<svg xmlns="http://www.w3.org/2000/svg" width="298.711" height="23.129" viewBox="0 0 298.711 23.129">
  <g id="a88be30a-a3ae-4d06-9d74-1e58e8034d52" data-name="レイヤー 2">
    <g id="f1439d2d-bd17-4f6a-b3c4-db566a988397" data-name="レイヤー 1">
      <g>
        <path d="M6.93,22.439c-4.86,0-6.93-3.09-6.93-3.93a.967.967,0,0,1,.99-.93.893.893,0,0,1,.81.48,5.613,5.613,0,0,0,5.159,2.61c2.88,0,4.92-1.83,4.92-4.08a4.89,4.89,0,0,0-2.819-4.11c-1.53-.87-3.18-1.679-4.8-2.489A5.53,5.53,0,0,1,.96,5.1C.96,2.52,3,.09,6.75.09s5.969,2.13,5.969,3.09a.956.956,0,0,1-.9.96,1.006,1.006,0,0,1-.84-.51A4.884,4.884,0,0,0,6.72,1.68c-2.46,0-3.93,1.59-3.93,3.36A4,4,0,0,0,5.16,8.46c1.35.72,3.48,1.68,4.77,2.4,2.729,1.5,3.9,3.66,3.9,5.7C13.829,19.379,11.52,22.439,6.93,22.439Z"/>
        <path d="M19.98,11.28C19.98,4.77,24.63.06,30.87.06S41.759,4.77,41.759,11.28c0,6.749-4.65,11.159-10.889,11.159S19.98,18.029,19.98,11.28Zm19.829,0c0-5.73-3.99-9.54-8.939-9.54s-8.94,3.81-8.94,9.54c0,5.7,3.99,9.449,8.94,9.449S39.809,16.979,39.809,11.28Z"/>
        <path d="M58.079,11.339c0,.12.12.27.33.451,1.65,1.529,2.94,4.139,4.11,6.059.84,1.35,1.71,2.25,3.06,2.4a1.009,1.009,0,0,1,.93,1.02c0,.51-.39.99-1.23.99-.66,0-2.73-.48-4.35-3.42-1.23-2.19-3.75-7.2-5.849-7.26-.421,0-1.71-.059-2.491-.059-.839,0-.96.179-.96.569,0,2.31.091,8.07.091,9.18a.922.922,0,0,1-.991.9.848.848,0,0,1-.929-.87c.059-5.73.03-14.579.119-17.819C50.01.21,53.009.21,55.319.21c.66,0,1.32.03,1.77.06,4.38.3,6.27,2.85,6.27,5.4a5.6,5.6,0,0,1-5.01,5.519C58.169,11.189,58.079,11.25,58.079,11.339ZM56.879,1.8c-.42-.03-1.08-.06-1.77-.06-2.219,0-3.27.42-3.389,2.13-.06.75-.031,3.81-.06,5.61,0,.45.449.51,2.909.51.96,0,1.951-.03,2.52-.06a4.425,4.425,0,0,0,4.38-4.23C61.469,3.81,60.059,1.98,56.879,1.8Z"/>
        <path d="M87.629,22.2a.993.993,0,0,1-.93-.69c-.36-.87-1.5-3.96-2.43-6.72-.09-.24-.18-.36-.48-.36-.48-.03-1.92-.03-3.45-.03-2.13,0-4.5,0-5.13.03a.456.456,0,0,0-.449.36c-.781,2.4-1.71,5.22-2.16,6.69a.97.97,0,0,1-.96.72.873.873,0,0,1-.93-.81,1.066,1.066,0,0,1,.06-.3c1.68-5.43,5.189-15.059,6.629-19.2A2.2,2.2,0,0,1,79.439.3a2.28,2.28,0,0,1,2.13,1.62c1.98,5.52,5.94,16.469,6.96,18.869a1.2,1.2,0,0,1,.09.45A.973.973,0,0,1,87.629,22.2Zm-4.2-9.87C82.5,9.51,80.58,4.35,80.1,2.85c-.151-.45-.361-.66-.6-.66s-.48.24-.661.72c-.63,1.71-3.3,9.419-3.3,9.659,0,.12.089.181.33.181.6,0,2.219.029,3.779.029,1.59,0,3.121-.029,3.57-.029.21,0,.27-.061.27-.151A.882.882,0,0,0,83.429,12.329Z"/>
        <path d="M107.58,5.67c0,2.79-3.96,14.069-7.98,14.069-1.56,0-3.9-2.04-3.9-5.58A11.146,11.146,0,0,1,107.189,3.57c5.16,0,9.69,3.3,9.69,8.579,0,7.38-8.19,9.78-9.24,9.78a.911.911,0,0,1-1.019-.84c0-.36.27-.75.9-.87,4.049-.87,7.649-3.66,7.649-8.189,0-4.2-3.72-7.14-8.01-7.14A.838.838,0,0,1,107.58,5.67ZM97.26,14.039c0,2.04,1.23,3.9,2.429,3.9,2.04,0,5.76-7.2,6.181-12.239a1.022,1.022,0,0,1,.3-.75A9.721,9.721,0,0,0,97.26,14.039Z"/>
        <path d="M142.949,4.32a.762.762,0,0,1,.87.75.8.8,0,0,1-.81.78c-1.65.06-4.079.09-6.48.09v.63c0,1.35-.059,3-.119,4.68,3.48,0,7.079-.031,9.6-.061a.776.776,0,0,1,.81.75.82.82,0,0,1-.93.78h-9.51c-.029,1.41-.089,2.76-.089,3.93,0,2.31.93,2.76,4.109,2.76a23.032,23.032,0,0,0,4.56-.42,1.461,1.461,0,0,1,.36-.03.827.827,0,0,1,.9.78c0,.39-.3.81-.99.93a27.669,27.669,0,0,1-4.29.33c-5.669,0-6.239-1.2-6.239-5.19,0-1.02,0-2.07.029-3.09-2.879,0-5.609.031-7.739.09h-.03a.8.8,0,0,1-.87-.779.79.79,0,0,1,.84-.78h7.86c.06-2.01.089-3.84.089-5.28-2.009,0-3.869-.03-5.129-.06a.8.8,0,0,1-.87-.75.852.852,0,0,1,.96-.81h.06c1.26.06,3,.09,4.829.09,2.94,0,6.121-.06,8.19-.12Z"/>
        <path d="M178.08,10.05c-1.08-.03-2.49-.06-4.08-.06-1.14,0-2.34.03-3.6.03a12.873,12.873,0,0,1-9.99,12.659.81.81,0,0,1-.9-.78.96.96,0,0,1,.75-.9A10.84,10.84,0,0,0,168.6,10.11v-.09c-3.66.03-7.289.12-9.6.209h-.03a.8.8,0,0,1-.869-.779.851.851,0,0,1,.96-.81c4.349-.06,14.129-.12,19.108-.15a.778.778,0,0,1,.871.75.825.825,0,0,1-.931.81Zm-4.14-7.68a.751.751,0,0,1,.84.75.805.805,0,0,1-.81.81c-4.23.06-8.22.18-11.49.18-.63,0-.9-.36-.9-.75a.858.858,0,0,1,.93-.81h1.23c3.42,0,6.54-.09,10.17-.18Zm4.32,2.94a9.789,9.789,0,0,0-2.49-2.61.544.544,0,0,1-.27-.48.645.645,0,0,1,.689-.6c.781,0,3.42,2.37,3.42,3.3a.749.749,0,0,1-.75.78A.668.668,0,0,1,178.26,5.31Zm2.94-1.62a10.953,10.953,0,0,0-2.52-2.61.627.627,0,0,1-.3-.51A.614.614,0,0,1,179.04,0c.75,0,3.54,2.31,3.54,3.3a.743.743,0,0,1-1.38.39Z"/>
        <path d="M185.281,20.249a.992.992,0,0,1,.659-.87c4.8-2.16,7.47-6.72,7.47-12.539V6.12c0-.66.39-.96.81-.96.93,0,.93.81.93,1.38,0,10.529-7.98,14.549-8.94,14.549A.862.862,0,0,1,185.281,20.249ZM200.19,5.58l-.42,11.309v.06c0,.57.27.78.63.78.93,0,5.46-2.79,8.64-8.7a.927.927,0,0,1,.839-.57.865.865,0,0,1,.841.87.927.927,0,0,1-.151.54c-3.419,6.119-8.789,9.809-10.649,9.809a1.78,1.78,0,0,1-1.86-1.92v-.24c.21-2.79.45-10.109.45-11.909a.9.9,0,0,1,.87-.99.824.824,0,0,1,.81.93Z"/>
        <path d="M218.251,18.749a.9.9,0,0,1-.93-.87,1.006,1.006,0,0,1,.57-.9,18.5,18.5,0,0,0,6.93-8.7,1.041,1.041,0,0,1,.9-.78.936.936,0,0,1,.9.96c0,.57-2.67,6.569-7.62,10.019A1.351,1.351,0,0,1,218.251,18.749Zm20.909-1.32c-.99-3.15-4.26-7.109-6.36-8.909a.73.73,0,0,1-.27-.54.829.829,0,0,1,.84-.78,1.157,1.157,0,0,1,.75.33c3.09,2.7,6.93,7.8,6.93,9.6a1.061,1.061,0,0,1-.99,1.08A.984.984,0,0,1,239.16,17.429Z"/>
        <path d="M253.292,12.809a.882.882,0,0,1-.93.87.779.779,0,0,1-.87-.78V10.92c0-.84,0-1.74-.03-2.49V8.37a2.921,2.921,0,0,1,3.12-2.79c1.41-.03,2.97-.06,4.529-.06,0-1.29-.029-3.45-.029-4.23a.809.809,0,0,1,.9-.81.791.791,0,0,1,.871.75V5.52c1.619,0,3.21,0,4.589.03,2.04.06,3.12,1.26,3.12,2.76v.18c-.69,12.059-12.689,14.639-13.259,14.639a.843.843,0,1,1-.15-1.68c9.689-2.37,11.519-9.659,11.519-12.809,0-1.14-.63-1.56-1.68-1.62-1.2-.06-3.03-.09-4.889-.09-2.1,0-4.17.03-5.13.09-1.41.09-1.77.9-1.77,1.71,0,.72.06,3.119.09,4.049Z"/>
        <path d="M281.552,6.15a.741.741,0,0,1-.75-.75.8.8,0,0,1,.809-.81c2.221-.09,6.81-.18,9.9-.18,1.77,0,2.61.9,2.61,1.92a2.209,2.209,0,0,1-.3,1.11,37.654,37.654,0,0,1-3.66,5.459c2.58,1.56,8.55,5.61,8.55,7.17a.927.927,0,0,1-1.68.6,33.3,33.3,0,0,0-7.89-6.57c-4.53,5.1-10.049,7.41-10.739,7.41a.84.84,0,0,1-.87-.81c0-.33.21-.66.75-.87,8.849-3.36,13.829-12.149,13.829-13.229,0-.63-.63-.63-1.59-.63-2.19,0-6.45.12-8.939.18Z"/>
      </g>
    </g>
  </g>
</svg>
