<svg version="1.1" id="レイヤー_1" xmlns="http://www.w3.org/2000/svg" x="0" y="0" width="130" height="80" xml:space="preserve"><style>.st0{fill:#fff}</style><path class="st0" d="M33.854 46.643c-1.329.16-2.689.224-4.162.224-1.393 0-1.953-.4-1.953-1.248v-2.865h5.186c.352 0 .992 0 1.409.032l-.016-1.633c-.384.032-1.088.064-1.425.064h-5.154v-3.089h3.985c.576 0 .977.032 1.377.048v-1.601c-.368.048-.849.064-1.377.064h-7.651c-.56 0-1.041-.032-1.489-.064v1.601c.448-.032.929-.048 1.489-.048h1.969v3.089h-2.897c-.464 0-1.168-.032-1.617-.08v1.681a28.424 28.424 0 011.617-.064h2.897v3.377c0 1.441.736 2.369 3.377 2.369 1.521 0 3.169-.064 4.338-.144l.097-1.713zm4.347-10.388v1.649a22.41 22.41 0 011.568-.064h5.395c.512 0 1.088.032 1.601.064v-1.649c-.496.064-1.104.096-1.601.096h-5.41a12.08 12.08 0 01-1.553-.096zm10.74.977c-.32-.624-.896-1.617-1.296-2.193l-1.024.432c.432.608.944 1.569 1.265 2.209l1.055-.448zm1.841-.705c-.288-.576-.896-1.569-1.329-2.177l-1.024.432c.448.608.977 1.521 1.312 2.209l1.041-.464zm-8.387 5.395c-.064 1.441-.272 2.705-.96 3.777-.625.976-1.777 1.905-2.961 2.385l1.473 1.088c1.393-.72 2.609-1.905 3.186-2.993.608-1.152.928-2.561.992-4.258h4.13c.416 0 .96.016 1.344.032v-1.649c-.416.064-1.008.08-1.344.08H37.769c-.496 0-1.008-.032-1.457-.08v1.665c.448-.032.976-.048 1.457-.048h4.626zm12.607 2.24c.432-1.601.496-5.01.496-6.835 0-.56.064-1.152.08-1.281h-1.856c.096.368.128.752.128 1.297 0 1.841 0 4.962-.464 6.387-.464 1.473-1.376 2.929-2.769 3.89l1.537 1.024a8.99 8.99 0 002.848-4.482zm4.786 1.969V37.28c0-.656.064-1.185.08-1.281h-1.857c0 .096.096.624.096 1.281v9.476c0 .368-.048.736-.112 1.008l1.057.88c.128-.096.32-.24.608-.4 1.84-.928 4.098-2.609 5.458-4.418l-.977-1.377c-1.152 1.697-2.96 3.058-4.353 3.682zm10.158-2.529c.624-1.569 1.201-3.874 1.425-4.914a18.2 18.2 0 01.32-1.36l-1.809-.368c-.208 1.921-.849 4.274-1.553 6.002-.56 1.36-1.473 3.057-2.481 4.386l1.745.736c.865-1.249 1.777-2.977 2.353-4.482zm9.86 3.842c-.432-1.521-1.28-4.018-1.905-5.538-.64-1.617-1.697-3.938-2.353-5.138l-1.648.544c.688 1.2 1.697 3.489 2.321 5.154.656 1.713 1.329 3.826 1.745 5.57l1.84-.592zm2.571-8.34v2.801c0 .352-.032.816-.064 1.153h1.745c-.048-.272-.064-.736-.064-1.057v-2.625h8.515c-.176 1.392-.64 3.137-1.473 4.418-.96 1.425-2.561 2.513-4.033 3.009-.577.224-1.313.432-1.921.528l1.312 1.521c2.881-.784 5.186-2.433 6.418-4.658.849-1.489 1.296-3.297 1.537-4.69.048-.304.16-.816.272-1.089l-1.104-.688c-.24.08-.561.16-1.201.16h-3.233v-1.376c0-.4.032-.752.096-1.329h-1.937c.096.576.112.928.112 1.329v1.376h-3.49c-.592 0-1.056-.032-1.552-.08.049.369.065.945.065 1.297zm22.052 3.634c1.121-1.441 2.065-3.249 2.625-4.562.112-.272.352-.672.464-.832l-1.041-.768c-.272.096-.8.16-1.393.16h-5.938a17.16 17.16 0 01-1.745-.112v1.809c.256-.016 1.121-.096 1.745-.096h5.875c-.384 1.249-1.457 3.009-2.545 4.226-1.585 1.777-3.986 3.698-6.579 4.69l1.296 1.361c2.289-1.073 4.45-2.785 6.163-4.61 1.584 1.473 3.185 3.233 4.242 4.674l1.408-1.249c-.992-1.218-2.929-3.283-4.577-4.691zM42.764 61.106h5.314v-1.441h-6.291v-3.714h5.65v-1.425h-5.65v-1.841h-1.569v1.841h-5.522v1.425h5.522v3.714h-6.274v1.441h5.346c-1.44 1.825-3.649 3.521-5.73 4.402.336.304.816.864 1.057 1.249 2.017-1.008 4.098-2.769 5.602-4.738v5.362h1.569v-5.394c1.504 1.985 3.585 3.794 5.618 4.818.24-.4.72-.96 1.041-1.265-2.066-.897-4.275-2.609-5.683-4.434z"/><path class="st0" d="M44.685 59.633c.544-.768 1.217-1.985 1.777-3.073l-1.553-.464c-.352.944-.976 2.257-1.504 3.105l1.28.432zm-7.476-3.489l-1.312.496c.592.928 1.153 2.193 1.345 2.977l1.409-.56c-.209-.8-.833-2.001-1.442-2.913zm17.153 4.258h2.049a8.595 8.595 0 01-3.025 2.945c.288.208.8.688 1.008.928a10.875 10.875 0 001.969-1.713h1.345c-.88 1.328-2.193 2.609-3.458 3.281.352.224.769.592.993.896 1.424-.896 2.945-2.593 3.81-4.178h1.264c-.672 1.617-1.792 3.201-3.041 4.034.368.208.833.56 1.072.832 1.329-1.008 2.577-3.009 3.217-4.866h.96c-.192 2.257-.4 3.169-.64 3.441-.128.16-.256.176-.496.176-.208 0-.705 0-1.249-.064.192.32.32.848.336 1.201.64.032 1.232.016 1.601-.016.384-.048.688-.144.96-.448.432-.48.672-1.729.928-4.93.016-.192.032-.56.032-.56h-6.691c.224-.304.417-.624.592-.96h6.467v-1.265H54.362v1.266zm1.489-2.033h7.395v-5.25h-7.395v5.25zm1.344-4.178h4.674v1.04h-4.674v-1.04zm0 2.049h4.674v1.056h-4.674V56.24z"/><path class="st0" d="M54.474 60.978c-.496.224-.992.448-1.473.672v-4.162h1.617V56.08h-1.617v-3.233h-1.376v3.233h-1.761v1.408h1.761v4.77c-.784.336-1.504.64-2.081.864l.576 1.489c1.344-.64 3.073-1.505 4.674-2.321l-.32-1.312zm24.308-2.321h-2.945l.304-.496c-.417-.208-.96-.448-1.569-.72 1.393-.896 2.865-2.049 3.954-3.137l-1.088-.832-.32.08h-9.716v1.376h8.259a16.75 16.75 0 01-2.593 1.889c-.944-.4-1.905-.768-2.705-1.089l-.769 1.12c1.249.496 2.833 1.2 4.13 1.809h-7.827v1.425h6.435v5.538c0 .24-.08.304-.384.32-.304 0-1.424.016-2.465-.032.208.4.464 1.024.56 1.441 1.376 0 2.353-.016 2.993-.24.64-.208.849-.624.849-1.457v-5.57h3.985c-.48.832-1.072 1.681-1.568 2.257l1.248.752c.929-1.008 1.937-2.577 2.721-4.002l-1.216-.528-.273.096zm13.647 3.986c-.352-.992-1.296-2.513-2.161-3.601l-1.2.592c.848 1.152 1.729 2.705 2.049 3.681l1.312-.672zm-6.899-4.386c.24.4.464.832.672 1.281l-2.129.08c1.072-1.328 2.273-3.089 3.185-4.546l-1.264-.544a30.074 30.074 0 01-1.617 2.785 9.321 9.321 0 00-.784-.928c.576-.864 1.249-2.129 1.825-3.217l-1.345-.48c-.288.864-.816 2.017-1.312 2.897l-.432-.385-.72.992c.704.672 1.521 1.537 2.017 2.241-.32.448-.624.864-.928 1.249l-1.121.032.128 1.312a205.22 205.22 0 012.497-.144v6.515h1.329v-6.595l1.185-.08c.128.336.224.64.288.896l1.136-.544c-.224-.88-.88-2.241-1.537-3.281l-1.073.464z"/><path class="st0" d="M81.432 65.588c.304.112.896.384 1.137.56.496-1.024.864-2.577 1.072-4.082l-1.265-.224c-.16 1.377-.463 2.785-.944 3.746zm4.45-3.458c.4.976.833 2.241.977 3.073l1.185-.416c-.176-.816-.608-2.065-1.041-3.025l-1.121.368zm5.362-9.107l-1.521-.352c-.561 2.097-1.553 4.178-2.769 5.474.352.208 1.024.64 1.312.896.496-.592.976-1.329 1.408-2.145h4.882c-.208 5.874-.464 8.243-.977 8.755-.176.208-.352.272-.688.272-.384 0-1.344-.016-2.385-.096.288.416.464 1.056.496 1.489.944.048 1.921.064 2.465-.016.624-.064 1.024-.208 1.408-.736.672-.816.88-3.313 1.153-10.372v-.72h-5.667c.339-.785.643-1.617.883-2.449zM59.693 22.838c-.464 0-.896.32-.896.752 0 .16.064.32.192.496.416.544.848 1.2 1.185 1.761a.975.975 0 00.848.496c.464 0 .896-.32.896-.8 0-.16-.048-.32-.144-.496a15.475 15.475 0 00-1.329-1.857.934.934 0 00-.752-.352zm-2.609.656a.967.967 0 00-.833-.496c-.432 0-.816.272-.816.688 0 .112.016.224.08.352.24.512.512 1.169.704 1.713.144.4.496.592.833.592.448 0 .864-.288.864-.784 0-.096-.016-.208-.048-.32a12.264 12.264 0 00-.784-1.745zm-7.363 2.801c.464-.624.88-1.377 1.216-2.113a.808.808 0 00.08-.368c0-.48-.448-.816-.913-.816a.813.813 0 00-.768.496c-.288.608-.72 1.329-1.168 1.921a.785.785 0 00-.176.496c0 .448.432.832.913.832.288 0 .576-.128.816-.448zm3.81.176c.496 0 .976-.352.864-.96a12.64 12.64 0 00-.496-1.793.884.884 0 00-.849-.624c-.432 0-.848.288-.848.752 0 .08.016.16.048.256.16.496.32 1.168.432 1.681a.847.847 0 00.849.688zm-5.475-7.651h2.177v2.145h-1.537c-.417 0-.641.368-.641.736s.224.736.641.736h12.421c.432 0 .64-.368.64-.736s-.208-.736-.64-.736h-1.152V18.82h1.776c.433 0 .641-.384.641-.752 0-.384-.208-.752-.641-.752h-1.776v-2.049h.88c.432 0 .64-.368.64-.736s-.208-.736-.64-.736h-8.852c.144-.24.288-.464.4-.688a.746.746 0 00.08-.352c0-.448-.448-.752-.912-.752a.774.774 0 00-.705.4c-.544 1.072-1.44 2.225-2.305 3.009a.78.78 0 00-.272.576c0 .416.4.784.865.784.224 0 .448-.08.672-.272.144-.128.272-.256.417-.4v1.217h-2.177c-.416 0-.64.368-.64.752 0 .367.224.751.64.751zm9.14-3.554h1.168v2.049h-1.168v-2.049zm0 3.554h1.168v2.145h-1.168V18.82zm-2.705-3.554h1.136v2.049h-1.136v-2.049zm0 3.554h1.136v2.145h-1.136V18.82zm-2.657-3.554h1.088v2.049h-1.088v-2.049zm0 3.554h1.088v2.145h-1.088V18.82zm30.548 6.531c0-.304-.16-.624-.544-.832a13.585 13.585 0 01-1.232-.8 10.81 10.81 0 01-1.856-1.777c-1.024-1.249-1.777-2.705-2.305-4.226-.32-.928-.528-1.873-.704-2.833.032-.528.048-1.089.048-1.681 0-.512-.464-.768-.913-.768-.464 0-.928.256-.928.768 0 4.226-.752 6.643-2.129 8.515-.944 1.281-2.289 2.369-3.569 3.089-.336.192-.48.48-.48.784 0 .448.336.88.848.88.176 0 .368-.048.56-.16 1.457-.816 2.993-2.161 4.018-3.537a11.573 11.573 0 001.953-4.162c1.056 3.345 3.169 6.083 5.826 7.555.16.096.336.128.48.128.527.001.927-.463.927-.943z"/><path transform="rotate(-19.689 41.675 19.8)" class="st0" d="M41.17 13.12h1v13.355h-1z"/><path transform="rotate(-28.495 39.547 23.085)" class="st0" d="M39.048 18.001h1v10.168h-1z"/><path transform="rotate(-70.306 88.334 19.797)" class="st0" d="M81.652 19.298h13.355v1H81.652z"/><path transform="rotate(-61.505 90.45 23.084)" class="st0" d="M85.369 22.585h10.168v1H85.369z"/></svg>