<svg version="1.1" id="レイヤー_1" xmlns="http://www.w3.org/2000/svg" x="0" y="0" width="60" height="180" xml:space="preserve"><style>.st0{fill:#fff}</style><path class="st0" d="M35.273 76.39h7.428c.512 0 .977-.032 1.328-.064v1.585a15.244 15.244 0 00-1.328-.048h-3.857v2.993h4.994c.319 0 1.008-.032 1.393-.064v1.601a42.58 42.58 0 00-1.361-.032h-5.025v2.753c0 .8.527 1.201 1.872 1.201 1.44 0 2.753-.08 4.065-.224l-.111 1.665c-1.121.08-2.737.128-4.21.128-2.562 0-3.281-.88-3.281-2.273v-3.249h-2.817c-.416 0-1.104.032-1.553.064v-1.649c.432.048 1.121.08 1.553.08h2.817v-2.993h-1.905c-.544 0-1.008.016-1.44.048v-1.585c.431.047.894.063 1.438.063zm-1.377 19.138H44.06c.337 0 .913-.017 1.313-.08v1.616a33.429 33.429 0 00-1.313-.032h-3.84c-.097 1.649-.479 3.01-1.072 4.114-.656 1.152-1.793 2.209-3.138 2.913l-1.44-1.072c1.152-.465 2.241-1.265 2.913-2.306.672-1.024.961-2.257 1.041-3.649h-4.627c-.479 0-.992.017-1.408.048v-1.632c.432.048.911.08 1.407.08zm1.922-3.906h5.394c.497 0 1.073-.032 1.553-.096v1.601a25.14 25.14 0 00-1.553-.048h-5.378c-.528 0-1.104.016-1.537.048v-1.601c.465.064 1.009.096 1.521.096zm8.995.849l-1.024.448c-.305-.641-.816-1.568-1.232-2.161l1.008-.416c.384.56.945 1.52 1.248 2.129zm1.777-.672l-.992.447c-.336-.672-.832-1.552-1.264-2.145l.992-.416c.401.577.992 1.553 1.264 2.114zm-11.637 22.179c.433-1.393.433-4.418.433-6.211 0-.528-.032-.912-.112-1.265h1.825c-.017.129-.08.721-.08 1.249 0 1.776-.032 5.026-.48 6.643-.464 1.696-1.456 3.218-2.769 4.354l-1.488-.992c1.327-.961 2.207-2.354 2.671-3.778zm4.594 2.928v-9.203c0-.641-.096-1.152-.111-1.232h1.824a7.8 7.8 0 00-.096 1.232v8.595c1.361-.607 3.121-1.937 4.226-3.569l.96 1.345c-1.328 1.745-3.521 3.378-5.297 4.273a2.664 2.664 0 00-.593.4l-1.04-.864c.08-.256.127-.624.127-.977zm-3.408 5.389l1.792.353c-.128.399-.256.976-.319 1.328-.225 1.04-.785 3.249-1.377 4.771-.561 1.472-1.441 3.137-2.289 4.354l-1.713-.721c.977-1.28 1.857-2.945 2.4-4.258.689-1.682 1.312-3.954 1.506-5.827zm3.904.336l1.617-.528c.625 1.169 1.648 3.426 2.289 4.994.592 1.473 1.408 3.906 1.824 5.378l-1.809.561a47.568 47.568 0 00-1.664-5.394c-.608-1.618-1.584-3.842-2.257-5.011zm-.287 14.512v1.521h3.152c.609 0 .93-.063 1.169-.144l1.057.672c-.112.256-.224.753-.272 1.057-.24 1.345-.672 3.105-1.488 4.546-1.201 2.145-3.426 3.762-6.242 4.514l-1.217-1.44a10.947 10.947 0 001.856-.496c1.44-.496 3.009-1.568 3.922-2.961.816-1.232 1.265-2.93 1.425-4.29H35.05v2.545c0 .304.016.752.063 1.024h-1.856c.048-.32.063-.769.063-1.12v-2.722c0-.336 0-.896-.063-1.248.496.048.96.063 1.521.063h3.297v-1.521c0-.384-.016-.72-.111-1.28h1.904c-.081.56-.112.896-.112 1.28zm3.682 16.209c-.529 1.281-1.457 3.041-2.529 4.45 1.584 1.36 3.489 3.361 4.449 4.529l-1.393 1.217c-1.023-1.393-2.576-3.121-4.113-4.53-1.648 1.777-3.746 3.426-5.971 4.467l-1.264-1.329c2.513-.944 4.85-2.833 6.402-4.546 1.04-1.185 2.08-2.929 2.465-4.13h-5.778c-.593 0-1.44.064-1.681.097v-1.729c.305.031 1.217.096 1.681.096h5.826c.593 0 1.089-.064 1.36-.16l1.009.769c-.112.142-.337.543-.463.799zM22.764 82.809c1.408 1.825 3.617 3.537 5.682 4.434-.32.304-.8.864-1.041 1.265-2.033-1.024-4.114-2.833-5.618-4.818v5.394h-1.569v-5.362c-1.504 1.969-3.585 3.729-5.602 4.738a7.158 7.158 0 00-1.057-1.249c2.081-.88 4.29-2.577 5.73-4.402h-5.346v-1.44h6.274v-3.714h-5.522V76.23h5.522v-1.841h1.569v1.841h5.65v1.424h-5.65v3.714h6.291v1.44h-5.313zm-5.555-4.962c.608.912 1.233 2.113 1.441 2.913l-1.409.56c-.192-.784-.752-2.049-1.345-2.977l1.313-.496zm6.195 3.057c.528-.848 1.152-2.161 1.504-3.105l1.553.464c-.56 1.088-1.232 2.305-1.777 3.073l-1.28-.432zm-4.61 19.089c-1.601.816-3.33 1.681-4.674 2.321l-.576-1.489a72.195 72.195 0 002.081-.864v-4.77h-1.761v-1.408h1.761v-3.234h1.376v3.234h1.617v1.408h-1.617v4.161c.48-.224.977-.448 1.473-.672l.32 1.313zm3.105-1.889a7.366 7.366 0 01-.592.96h6.691s-.016.368-.032.561c-.256 3.201-.496 4.45-.928 4.93-.272.305-.576.4-.96.448-.368.032-.96.048-1.601.017-.016-.353-.144-.881-.336-1.201.544.064 1.041.064 1.249.064.24 0 .368-.016.496-.176.24-.272.448-1.185.64-3.441h-.96c-.64 1.856-1.889 3.857-3.217 4.865-.24-.271-.704-.624-1.072-.832 1.249-.832 2.369-2.417 3.041-4.033h-1.264c-.865 1.584-2.385 3.281-3.81 4.178-.224-.305-.641-.673-.993-.896 1.265-.673 2.577-1.953 3.458-3.281h-1.345a10.88 10.88 0 01-1.969 1.713 8.068 8.068 0 00-1.008-.929 8.586 8.586 0 003.025-2.945h-2.049V96.84h10.004v1.265h-6.468zm5.347-2.033h-7.395v-5.25h7.395v5.25zm-1.377-4.177h-4.674v1.041h4.674v-1.041zm0 2.048h-4.674v1.057h4.674v-1.057zm2.401 18.85c-.784 1.425-1.792 2.993-2.721 4.002l-1.249-.753c.496-.576 1.088-1.424 1.568-2.257h-3.985v5.57c0 .832-.208 1.249-.849 1.457-.64.224-1.617.239-2.993.239-.096-.416-.352-1.04-.56-1.44 1.041.048 2.161.032 2.465.032.304-.016.384-.08.384-.32v-5.538h-6.435v-1.425h7.827a82.737 82.737 0 00-4.13-1.809l.769-1.12c.8.32 1.761.688 2.705 1.089a16.804 16.804 0 002.593-1.89H15.4v-1.376h9.716l.32-.08 1.088.832c-1.088 1.089-2.561 2.241-3.954 3.138.608.271 1.152.512 1.569.72l-.304.496h2.945l.272-.096 1.218.529zM15.641 131.77c-.208 1.504-.576 3.057-1.072 4.081-.24-.176-.833-.448-1.137-.56.48-.961.784-2.369.944-3.746l1.265.225zm2.961-4.275c.656 1.041 1.312 2.401 1.537 3.281l-1.136.545a7.93 7.93 0 00-.288-.896l-1.185.08v6.595h-1.329v-6.515c-.912.048-1.761.096-2.497.144l-.128-1.312 1.121-.032c.304-.384.608-.8.928-1.248-.496-.704-1.312-1.568-2.017-2.241l.72-.992.432.384c.496-.88 1.024-2.032 1.312-2.896l1.345.479c-.577 1.089-1.249 2.354-1.825 3.218.304.32.576.641.784.929.624-.961 1.2-1.953 1.617-2.785l1.264.544c-.912 1.456-2.113 3.217-3.185 4.546l2.129-.08a13.637 13.637 0 00-.672-1.28l1.073-.468zm.4 3.97c.432.961.864 2.209 1.041 3.025l-1.185.416c-.144-.832-.576-2.097-.977-3.073l1.121-.368zm9.028-5.57c-.272 7.059-.48 9.556-1.153 10.372-.384.528-.784.673-1.408.736-.544.08-1.521.064-2.465.017-.032-.433-.208-1.072-.496-1.489 1.041.08 2.001.097 2.385.097.336 0 .512-.064.688-.272.512-.512.769-2.881.977-8.756h-4.882c-.432.816-.912 1.553-1.408 2.146-.288-.256-.96-.688-1.312-.896 1.216-1.297 2.208-3.377 2.769-5.475l1.521.353a21.2 21.2 0 01-.88 2.449h5.667v.718zm-4.914 7.123c-.32-.977-1.201-2.529-2.049-3.682l1.2-.592c.865 1.088 1.809 2.608 2.161 3.602l-1.312.672zm-2.634-73.502h-1.631c-.312 0-.48-.288-.48-.564 0-.288.168-.563.48-.563h1.631v-.912c-.108.108-.204.204-.312.3a.76.76 0 01-.504.204c-.348 0-.647-.276-.647-.588 0-.144.06-.3.204-.432a8.415 8.415 0 001.727-2.255c.12-.216.324-.3.528-.3.348 0 .684.228.684.564a.56.56 0 01-.06.264c-.084.168-.192.336-.3.516h6.632c.324 0 .48.276.48.552s-.156.552-.48.552h-.66v1.535h1.332c.324 0 .479.276.479.563 0 .276-.156.564-.479.564h-1.332v1.607h.864c.324 0 .479.276.479.552s-.156.552-.479.552h-9.307c-.312 0-.479-.276-.479-.552s.168-.552.479-.552h1.151v-1.607zm-.095 3.13c.348 0 .684.251.684.611 0 .084-.012.18-.06.276a8.819 8.819 0 01-.912 1.583c-.18.24-.396.335-.611.335-.36 0-.684-.288-.684-.624 0-.12.036-.252.132-.372a8.6 8.6 0 00.875-1.439.611.611 0 01.576-.37zm2.111-4.257v-1.535h-.815v1.535h.815zm0 2.734v-1.607h-.815v1.607h.815zm1.103 3.406c.084.456-.276.72-.648.72a.635.635 0 01-.636-.516 14.54 14.54 0 00-.324-1.26.597.597 0 01-.036-.192c0-.348.312-.563.635-.563.252 0 .528.144.636.468.133.36.289.899.373 1.343zm.072-6.14h.852v-1.535h-.852v1.535zm0 2.734h.852v-1.607h-.852v1.607zm2.531 3.202a.896.896 0 01.036.24c0 .372-.312.587-.647.587a.656.656 0 01-.624-.444 15.131 15.131 0 00-.528-1.283.56.56 0 01-.06-.264c0-.312.288-.516.612-.516.228 0 .479.12.624.372.203.373.443.889.587 1.308zm-.504-5.936h.875v-1.535H25.7v1.535zm0 2.734h.875v-1.607H25.7v1.607zm3.43 3.059a.767.767 0 01.108.372c0 .36-.324.6-.671.6a.731.731 0 01-.636-.372c-.252-.42-.576-.912-.888-1.319a.634.634 0 01-.144-.372c0-.324.324-.563.672-.563.204 0 .408.072.563.264.36.43.756.981.996 1.39zm7.886-5.494c.396 1.139.96 2.23 1.728 3.166.407.492.876.948 1.392 1.332.287.216.6.408.924.6.287.156.407.396.407.624 0 .36-.3.708-.696.708a.705.705 0 01-.359-.096c-1.99-1.104-3.574-3.154-4.365-5.661a8.68 8.68 0 01-1.463 3.118c-.768 1.031-1.92 2.039-3.011 2.65a.833.833 0 01-.42.12c-.384 0-.636-.324-.636-.66 0-.228.108-.444.36-.588.959-.54 1.966-1.355 2.674-2.315 1.032-1.403 1.595-3.214 1.595-6.38 0-.384.349-.576.696-.576.336 0 .684.192.684.576 0 .444-.013.864-.036 1.259.13.72.286 1.428.526 2.123z"/><path transform="rotate(-19.689 13.529 60.109)" class="st0" d="M13.026 54.923h1v10.354h-1z"/><path transform="rotate(-28.495 11.879 62.644)" class="st0" d="M11.38 58.707h1v7.883h-1z"/><path transform="rotate(-70.306 46.477 60.102)" class="st0" d="M41.297 59.6h10.354v1H41.297z"/><path transform="rotate(-61.484 48.118 62.647)" class="st0" d="M44.178 62.149h7.883v1h-7.883z"/><path fill="#dcdcdc" d="M30 34.5L15 41V15h15z"/><path fill="#ebebeb" d="M45 41l-15-6.5V15h15z"/></svg>