<svg xmlns="http://www.w3.org/2000/svg" width="199.012" height="20.686"><defs><style>.bd5114a6-b5b3-4f2b-b2c8-4cb6e3c3c1d4{fill:#231815}</style></defs><g id="af576950-f9e2-454a-ad2d-3a61fc13deb6" data-name="レイヤー 2"><g id="bffde458-4fd8-47f8-b27f-e29db7ecea7a" data-name="レイヤー 1"><path d="M30.016 20.6q-3.787 0-5.311-2.652a15.338 15.338 0 01-1.525-7.561 15.417 15.417 0 011.525-7.574Q26.229.151 30.016.151t5.319 2.666a15.493 15.493 0 011.517 7.574 15.35 15.35 0 01-1.524 7.561Q33.8 20.6 30.016 20.6zm2.283-4.99a19.478 19.478 0 00.534-5.223 19.166 19.166 0 00-.54-5.3 2.208 2.208 0 00-2.277-1.723 2.239 2.239 0 00-2.3 1.723 18.451 18.451 0 00-.56 5.3 18.669 18.669 0 00.56 5.23 2.352 2.352 0 004.58-.007zm17.715-8.951a27.332 27.332 0 00-2.614 4.566 27.119 27.119 0 00-1.5 4.512 18.714 18.714 0 00-.67 4.375h-4.048a23.816 23.816 0 013.5-11.088 26.165 26.165 0 013.595-4.977h-9.884l.054-3.5h14V3.6a24.919 24.919 0 00-2.433 3.059zm10.237 3.609a3.792 3.792 0 00-1.23.178 2.442 2.442 0 00-1.381 1.217l-3.5-.164L55.534.547h10.924v3.309h-8.107L57.64 8.19a8.081 8.081 0 011.408-.779 5.95 5.95 0 012.064-.311 6.2 6.2 0 014.293 1.655 6.15 6.15 0 011.832 4.812 7.547 7.547 0 01-1.763 4.908 6.414 6.414 0 01-5.278 2.16 7.007 7.007 0 01-4.648-1.517 5.894 5.894 0 01-2.023-4.307h3.882a3.763 3.763 0 00.889 1.962 2.515 2.515 0 001.914.691 2.584 2.584 0 002.208-1.019 4.173 4.173 0 00.759-2.563 4.454 4.454 0 00-.711-2.564 2.49 2.49 0 00-2.215-1.05zm9.683.192h7.847v3.691h-7.847zm24.312 2.34v3.049H92v4.266h-3.81v-4.269h-7.848v-3.4L87.629.411H92V12.8zm-11.019 0h4.963V4.239zm19.228 7.886a6.554 6.554 0 01-4.006-1.319 5.2 5.2 0 01-2.037-3.849h3.888a2.334 2.334 0 00.738 1.422 2.284 2.284 0 001.6.547 2.781 2.781 0 002.708-2.133 12.511 12.511 0 00.533-3.432 4.219 4.219 0 01-1.135 1.026 5.157 5.157 0 01-2.693.656 6.122 6.122 0 01-4.2-1.634 5.982 5.982 0 01-1.832-4.71 7.272 7.272 0 011.835-5.16 6.229 6.229 0 014.778-1.976 6.174 6.174 0 016.208 4.006 15.614 15.614 0 01.96 5.97 17.017 17.017 0 01-.916 6 6.414 6.414 0 01-6.429 4.586zm-1.367-16.748a3.543 3.543 0 00-1.122 2.967 4.126 4.126 0 00.718 2.645 2.681 2.681 0 002.208.882 2.725 2.725 0 001.518-.465 3.215 3.215 0 001.326-2.939 4.155 4.155 0 00-.786-2.666 2.608 2.608 0 00-2.153-.984 2.676 2.676 0 00-1.709.56zm24.518 8.862v3.049h-2.242v4.266h-3.815v-4.269H111.7v-3.4L118.989.411h4.375V12.8zm-11.019 0h4.962V4.239zm13.46-2.34h7.847v3.691h-7.847zm16.768-.192a3.794 3.794 0 00-1.231.178 2.445 2.445 0 00-1.381 1.217l-3.5-.164L140.1.547h10.924v3.309h-8.108L142.2 8.19a8.118 8.118 0 011.408-.779 5.952 5.952 0 012.065-.315 6.2 6.2 0 014.293 1.655 6.153 6.153 0 011.832 4.812 7.548 7.548 0 01-1.764 4.908 6.413 6.413 0 01-5.277 2.16 7.008 7.008 0 01-4.649-1.517 5.9 5.9 0 01-2.023-4.307h3.883a3.755 3.755 0 00.889 1.962 2.513 2.513 0 001.914.691 2.585 2.585 0 002.208-1.019 4.179 4.179 0 00.758-2.563 4.454 4.454 0 00-.711-2.564 2.49 2.49 0 00-2.211-1.046zm15.709 0a3.792 3.792 0 00-1.23.178 2.442 2.442 0 00-1.381 1.217l-3.5-.164L155.807.547h10.924v3.309h-8.107l-.711 4.334a8.081 8.081 0 011.408-.779 5.95 5.95 0 012.064-.315 6.2 6.2 0 014.293 1.655 6.15 6.15 0 011.832 4.812 7.547 7.547 0 01-1.763 4.908 6.414 6.414 0 01-5.278 2.16 7.007 7.007 0 01-4.648-1.517 5.894 5.894 0 01-2.023-4.307h3.882a3.755 3.755 0 00.889 1.962 2.513 2.513 0 001.914.691 2.584 2.584 0 002.208-1.019 4.173 4.173 0 00.759-2.563 4.454 4.454 0 00-.711-2.564 2.49 2.49 0 00-2.215-1.046zm15.71 0a3.794 3.794 0 00-1.231.178 2.445 2.445 0 00-1.381 1.217l-3.5-.164L171.517.547h10.924v3.309h-8.108l-.711 4.334a8.118 8.118 0 011.408-.779 5.952 5.952 0 012.07-.311 6.2 6.2 0 014.293 1.655 6.153 6.153 0 011.832 4.812 7.548 7.548 0 01-1.764 4.908 6.413 6.413 0 01-5.277 2.16 7.008 7.008 0 01-4.649-1.517 5.9 5.9 0 01-2.023-4.307h3.883a3.762 3.762 0 00.888 1.962 2.517 2.517 0 001.915.691 2.585 2.585 0 002.208-1.019 4.179 4.179 0 00.758-2.563 4.454 4.454 0 00-.711-2.564 2.49 2.49 0 00-2.219-1.05zm10.719 8.6a5.862 5.862 0 01-1.709-4.252 6.074 6.074 0 01.756-3.022 4.807 4.807 0 012.222-2.037 4.623 4.623 0 01-1.866-2.071 5.787 5.787 0 01-.431-2.085 4.867 4.867 0 011.627-3.685 7.685 7.685 0 019.187 0 4.867 4.867 0 011.63 3.684 5.806 5.806 0 01-.43 2.085 3.984 3.984 0 01-1.867 1.935 5.491 5.491 0 012.2 2.173 6.211 6.211 0 01.738 3.022 5.655 5.655 0 01-1.853 4.259 7.221 7.221 0 01-5.174 1.756 6.694 6.694 0 01-5.03-1.762zm2.338-4.512a3.186 3.186 0 00.759 2.27 3.135 3.135 0 004.2 0 3.186 3.186 0 00.759-2.27 3.16 3.16 0 00-.772-2.3 3.158 3.158 0 00-4.17 0 3.152 3.152 0 00-.776 2.3zm1.026-6.756a2.8 2.8 0 003.67 0 2.453 2.453 0 00.65-1.763 2.516 2.516 0 00-.65-1.837 2.455 2.455 0 00-1.838-.663A2.484 2.484 0 00190.31 4a2.481 2.481 0 00-.663 1.839 2.409 2.409 0 00.67 1.761z"/><path class="bd5114a6-b5b3-4f2b-b2c8-4cb6e3c3c1d4" d="M11.117 12.28a.583.583 0 00-.777-.041l-1.094.883a.583.583 0 01-.741-.008 15.29 15.29 0 01-3.619-3.619.582.582 0 01-.008-.74l.883-1.1a.581.581 0 00-.042-.777l-2.1-2.1a.583.583 0 00-.786-.034L.208 6.961a.582.582 0 00-.139.721s.354.718.682 1.274a26.068 26.068 0 003.675 4.619 26 26 0 004.619 3.674c.552.328 1.274.682 1.274.682a.581.581 0 00.72-.139l2.209-2.629a.583.583 0 00-.035-.786zm.517-2.811l.873-.138a4.63 4.63 0 00-3.838-3.837l-.138.872a3.749 3.749 0 013.1 3.1zm3.51-6.612A10.15 10.15 0 009.537 0L9.4.873A9.3 9.3 0 0117.128 8.6L18 8.463a10.151 10.151 0 00-2.856-5.606z"/><path class="bd5114a6-b5b3-4f2b-b2c8-4cb6e3c3c1d4" d="M9.1 2.744l-.137.873a6.514 6.514 0 015.417 5.418l.873-.138A7.394 7.394 0 009.1 2.744z"/></g></g></svg>