<svg version="1.1" id="レイヤー_1" xmlns="http://www.w3.org/2000/svg" x="0" y="0" width="228" height="60" xml:space="preserve"><style>.st0{fill:#fff}</style><path class="st0" d="M13.423 35.349c-.45.486-.918.918-1.369 1.296-.306-.306-.972-.828-1.386-1.098 1.53-1.062 2.953-2.773 3.781-4.502l1.638.468c-.252.522-.54 1.026-.864 1.512h11.074v1.477h-1.765v2.701h2.431v1.513h-2.431v2.7h2.179v1.513H11.244v-1.513h2.179v-2.7h-2.449v-1.513h2.449v-1.854zm-2.611 11.577c.882-.738 1.692-2.106 2.125-3.403l1.621.396c-.45 1.351-1.224 2.772-2.161 3.673l-1.585-.666zm4.123-9.723h1.675v-2.701h-1.675v2.701zm0 4.213h1.675v-2.7h-1.675v2.7zm2.701 2.467c.234 1.062.432 2.449.45 3.277l-1.638.233c0-.846-.144-2.269-.36-3.349l1.548-.161zm2.125-6.68v-2.701h-1.747v2.701h1.747zm-1.747 1.513v2.7h1.747v-2.7h-1.747zm3.241 5.095c.468 1.026.937 2.413 1.099 3.277l-1.657.324c-.144-.864-.558-2.269-1.008-3.35l1.566-.251zm1.711-9.309h-1.783v2.701h1.783v-2.701zm0 4.214h-1.783v2.7h1.783v-2.7zm1.891 4.735c.864 1.08 1.908 2.574 2.376 3.547l-1.692.594c-.432-.954-1.405-2.503-2.269-3.637l1.585-.504zm12.814-11.92c-.018.252-.018.559-.054.882.162 2.396 1.098 10.479 7.833 13.576a5.428 5.428 0 00-1.279 1.404c-4.357-2.106-6.356-6.229-7.292-9.704-.864 3.438-2.755 7.328-6.932 9.723-.306-.433-.846-.954-1.386-1.314 7.202-3.835 7.094-12.189 7.22-14.566h1.89zm12.473 1.711h8.606c.594 0 1.135-.019 1.549-.072v1.801c-.45-.019-.9-.055-1.549-.055h-4.483v3.476h5.797c.378 0 1.17-.036 1.603-.072l.018 1.837c-.468-.036-1.188-.036-1.584-.036h-5.833v3.223c0 .954.63 1.404 2.196 1.404 1.657 0 3.187-.072 4.682-.252l-.108 1.927a76.8 76.8 0 01-4.88.162c-2.971 0-3.799-1.045-3.799-2.665v-3.8H49.1c-.486 0-1.297.036-1.819.071V38.3c.504.055 1.296.091 1.819.091h3.259v-3.476h-2.215c-.63 0-1.17.019-1.674.055v-1.8c.503.036 1.044.072 1.674.072zm15.408 4.213h11.793c.378 0 1.044-.018 1.512-.09v1.854a38.401 38.401 0 00-1.512-.036h-4.646c-.072 1.908-.432 3.493-1.116 4.789-.648 1.225-2.017 2.557-3.583 3.367l-1.657-1.225c1.333-.54 2.629-1.584 3.331-2.683.774-1.206 1.008-2.629 1.081-4.249h-5.204c-.541 0-1.134.018-1.639.054v-1.872c.505.055 1.081.091 1.64.091zm2.232-4.537h6.086c.558 0 1.242-.036 1.8-.108v1.854a30.079 30.079 0 00-1.8-.072h-6.068c-.612 0-1.278.036-1.765.072V32.81a13.6 13.6 0 001.747.108zm10.335.99l-1.188.504c-.36-.721-.937-1.801-1.422-2.485l1.152-.486c.45.649 1.098 1.765 1.458 2.467zm2.071-.793l-1.17.522c-.378-.774-.972-1.8-1.476-2.484l1.152-.486c.485.684 1.169 1.801 1.494 2.448zm2.93 8.103c.522-1.603.522-5.113.522-7.184 0-.612-.036-1.045-.144-1.459h2.088c-.018.145-.09.811-.09 1.44 0 2.053-.072 5.888-.558 7.688a10.118 10.118 0 01-3.205 5.042l-1.729-1.152c1.567-1.08 2.593-2.718 3.116-4.375zm5.311 3.403V33.962c0-.738-.108-1.332-.108-1.44h2.088c-.018.108-.09.702-.09 1.44v9.957c1.566-.702 3.601-2.232 4.897-4.142l1.098 1.549c-1.53 2.034-4.069 3.925-6.14 4.97-.324.18-.541.342-.685.45l-1.188-.99a5.08 5.08 0 00.128-1.135zm13.247-11.019l2.035.414c-.126.45-.288 1.135-.36 1.531-.252 1.17-.9 3.763-1.603 5.527-.648 1.692-1.674 3.637-2.647 5.041l-1.962-.828c1.134-1.494 2.161-3.402 2.791-4.934.792-1.944 1.512-4.59 1.746-6.751zm4.52.396l1.854-.612c.738 1.351 1.927 3.961 2.647 5.78.702 1.71 1.656 4.519 2.143 6.229l-2.071.666c-.468-1.963-1.224-4.339-1.962-6.266-.703-1.872-1.837-4.446-2.611-5.797zm17.082-.9v1.549h3.637c.721 0 1.08-.09 1.351-.181l1.242.774c-.126.307-.252.883-.306 1.225-.271 1.566-.774 3.601-1.729 5.275-1.387 2.503-3.979 4.357-7.221 5.239l-1.477-1.71a11.22 11.22 0 002.161-.595c1.656-.558 3.457-1.782 4.537-3.385.937-1.44 1.458-3.403 1.657-4.97h-9.58v2.953c0 .36.019.883.072 1.188h-1.963c.037-.378.072-.9.072-1.296v-3.151c0-.396-.018-1.044-.072-1.458.559.054 1.081.09 1.747.09h3.925v-1.549c0-.45-.018-.846-.125-1.494h2.178c-.071.65-.106 1.045-.106 1.496zm20.215 1.873c-.631 1.476-1.693 3.511-2.953 5.131 1.854 1.585 4.033 3.907 5.15 5.275l-1.586 1.405c-1.188-1.621-2.988-3.602-4.771-5.258-1.927 2.053-4.357 3.979-6.933 5.186l-1.458-1.53c2.917-1.117 5.618-3.277 7.399-5.276 1.225-1.368 2.432-3.349 2.863-4.753H134.6c-.703 0-1.675.09-1.963.108v-2.035c.36.054 1.404.126 1.963.126h6.68c.666 0 1.26-.072 1.566-.18l1.17.864a6.27 6.27 0 00-.521.937zm13.913 5.545c1.585 2.053 4.069 3.979 6.392 4.988-.359.342-.9.972-1.17 1.422-2.287-1.152-4.627-3.187-6.32-5.42v6.068h-1.764v-6.032c-1.693 2.215-4.033 4.195-6.303 5.33-.27-.433-.811-1.062-1.188-1.404 2.34-.99 4.824-2.899 6.445-4.952h-6.014v-1.62h7.059v-4.178h-6.213v-1.603h6.213v-2.07h1.764v2.07h6.355v1.603h-6.355v4.178h7.076v1.62h-5.977zm-6.248-5.581c.685 1.026 1.386 2.376 1.62 3.276l-1.584.631c-.217-.883-.846-2.305-1.513-3.35l1.477-.557zm6.968 3.438c.595-.954 1.297-2.431 1.693-3.493l1.746.522c-.631 1.225-1.387 2.593-1.998 3.457l-1.441-.486zm12.814 3.476a226.383 226.383 0 01-5.258 2.61l-.647-1.675a82.278 82.278 0 002.341-.972v-5.366h-1.98v-1.584h1.98v-3.637h1.549v3.637h1.818v1.584h-1.818v4.682c.539-.252 1.098-.504 1.656-.756l.359 1.477zm3.494-2.125a8.403 8.403 0 01-.667 1.08h7.526s-.018.414-.036.631c-.288 3.601-.558 5.005-1.044 5.545-.307.343-.648.45-1.08.505a14.38 14.38 0 01-1.801.018c-.018-.396-.162-.99-.379-1.351.613.072 1.171.072 1.404.072.271 0 .414-.018.559-.198.27-.306.504-1.332.721-3.871h-1.08c-.721 2.089-2.125 4.34-3.619 5.474-.271-.306-.793-.702-1.207-.937 1.404-.936 2.665-2.719 3.422-4.537h-1.424c-.972 1.782-2.682 3.691-4.285 4.699-.252-.342-.72-.756-1.115-1.008 1.422-.757 2.898-2.197 3.889-3.691h-1.512a12.34 12.34 0 01-2.215 1.927 8.93 8.93 0 00-1.135-1.044 9.665 9.665 0 003.402-3.313h-2.305v-1.423h11.254v1.423h-7.273zm6.014-2.286h-8.318v-5.906h8.318v5.906zm-1.549-4.701h-5.258v1.171h5.258v-1.171zm0 2.305h-5.258v1.188h5.258v-1.188zm20.701 3.205c-.883 1.603-2.018 3.367-3.062 4.502l-1.404-.847c.558-.648 1.224-1.603 1.765-2.539h-4.483v6.267c0 .936-.234 1.404-.954 1.638-.721.252-1.818.271-3.367.271-.108-.468-.396-1.171-.631-1.62 1.171.054 2.432.035 2.773.035.342-.018.432-.09.432-.359v-6.23h-7.238v-1.603h8.805a91.025 91.025 0 00-4.645-2.034l.863-1.261c.9.36 1.98.774 3.043 1.225a18.887 18.887 0 002.918-2.125h-9.291v-1.548h10.929l.36-.09 1.225.936c-1.225 1.225-2.881 2.521-4.447 3.529.684.307 1.296.576 1.764.811l-.342.558h3.312l.307-.107 1.368.591zm3.793 3.35c-.234 1.692-.648 3.438-1.206 4.591-.271-.198-.937-.504-1.278-.63.54-1.08.883-2.665 1.062-4.214l1.422.253zm3.331-4.808c.738 1.17 1.477 2.7 1.729 3.69l-1.278.612a9.068 9.068 0 00-.324-1.008l-1.332.09v7.418h-1.494v-7.328c-1.027.055-1.98.108-2.809.162l-.145-1.477 1.26-.036c.342-.432.685-.899 1.045-1.404-.559-.792-1.477-1.765-2.27-2.521l.811-1.116.486.432c.559-.99 1.152-2.286 1.477-3.259l1.512.541c-.647 1.224-1.404 2.647-2.052 3.619.342.36.647.721.882 1.045a33.12 33.12 0 001.818-3.134l1.423.612c-1.026 1.639-2.376 3.619-3.583 5.114l2.395-.091c-.234-.504-.486-.99-.756-1.44l1.205-.521zm.451 4.465c.486 1.08.973 2.485 1.17 3.403l-1.332.468c-.162-.936-.648-2.358-1.098-3.457l1.26-.414zm10.155-6.266c-.306 7.94-.54 10.749-1.296 11.668-.433.594-.883.756-1.585.828-.612.09-1.71.071-2.772.018-.037-.486-.234-1.206-.559-1.675 1.17.091 2.25.108 2.683.108.378 0 .576-.072.774-.306.576-.576.864-3.241 1.098-9.85h-5.491c-.485.919-1.026 1.747-1.585 2.413-.324-.288-1.08-.774-1.477-1.009 1.369-1.458 2.485-3.799 3.115-6.157l1.711.396c-.27.936-.612 1.873-.99 2.754h6.374v.812zm-5.529 8.013c-.359-1.099-1.35-2.845-2.305-4.142l1.352-.666c.972 1.225 2.033 2.935 2.43 4.051l-1.477.757zM81.1 17.368c-.784 0-1.311.256-1.579.766-.15.287-.226.729-.226 1.326v3.562h-1.962V15.57h1.859v1.299c.301-.496.562-.836.786-1.019.364-.305.838-.458 1.422-.458.036 0 .067.001.092.004.025.002.081.006.168.01v1.996a5.325 5.325 0 00-.56-.034zm8.08 3.466c-.051.442-.28.892-.69 1.347-.639.725-1.531 1.087-2.68 1.087a3.778 3.778 0 01-2.509-.916c-.725-.61-1.087-1.604-1.087-2.98 0-1.289.327-2.278.98-2.967.654-.688 1.503-1.032 2.547-1.032.619 0 1.178.116 1.675.349.496.232.906.6 1.23 1.101.291.442.48.955.567 1.538.05.342.07.834.062 1.477h-5.1c.027.748.262 1.271.704 1.572.269.188.592.28.971.28.4 0 .727-.113.978-.342a1.62 1.62 0 00.362-.513h1.99zm-1.927-2.283c-.032-.515-.188-.905-.469-1.172s-.628-.4-1.042-.4c-.451 0-.801.142-1.05.424-.248.283-.404.666-.468 1.148h3.029zm8.469-2.639c.583.374.918 1.017 1.005 1.928h-1.948c-.027-.25-.099-.448-.212-.595-.215-.264-.579-.396-1.094-.396-.424 0-.726.066-.906.198-.18.133-.27.287-.27.465 0 .224.096.386.287.485.191.105.868.285 2.03.54.774.183 1.355.458 1.743.827.383.374.574.841.574 1.401 0 .738-.274 1.341-.824 1.809-.549.467-1.397.7-2.546.7-1.172 0-2.036-.247-2.595-.741-.558-.495-.837-1.125-.837-1.891h1.976c.041.347.13.593.267.738.241.26.688.39 1.34.39.383 0 .687-.057.912-.171.226-.113.339-.284.339-.513a.555.555 0 00-.273-.499c-.183-.113-.859-.31-2.03-.588-.844-.209-1.438-.472-1.784-.786-.347-.31-.52-.756-.52-1.34 0-.688.27-1.279.81-1.773.54-.495 1.3-.742 2.28-.742.93 0 1.689.185 2.276.554zm9.031 4.922c-.051.442-.28.892-.69 1.347-.639.725-1.531 1.087-2.68 1.087a3.778 3.778 0 01-2.509-.916c-.725-.61-1.087-1.604-1.087-2.98 0-1.289.327-2.278.98-2.967.654-.688 1.503-1.032 2.547-1.032.619 0 1.178.116 1.675.349.496.232.906.6 1.23 1.101.291.442.48.955.567 1.538.05.342.07.834.062 1.477h-5.1c.027.748.262 1.271.704 1.572.269.188.592.28.971.28.4 0 .727-.113.978-.342a1.62 1.62 0 00.362-.513h1.99zm-1.928-2.283c-.032-.515-.188-.905-.469-1.172s-.628-.4-1.042-.4c-.451 0-.801.142-1.05.424-.248.283-.404.666-.468 1.148h3.029zm7.082-1.183c-.784 0-1.311.256-1.579.766-.15.287-.226.729-.226 1.326v3.562h-1.962V15.57H108v1.299c.301-.496.562-.836.786-1.019.364-.305.838-.458 1.422-.458.036 0 .067.001.092.004.025.002.081.006.168.01v1.996a5.325 5.325 0 00-.561-.034zm.971-1.798h2.188l1.552 5.496 1.586-5.496h2.092l-2.687 7.451h-2.058l-2.673-7.451zm8.798.807c.515-.656 1.398-.984 2.652-.984.815 0 1.54.162 2.174.485.633.324.95.935.95 1.832v3.418c0 .237.004.524.014.861.014.256.052.429.116.52a.682.682 0 00.287.226v.287h-2.119a2.047 2.047 0 01-.123-.424 5.115 5.115 0 01-.055-.451c-.27.292-.579.54-.93.745-.42.242-.894.362-1.422.362-.675 0-1.231-.192-1.672-.577-.439-.386-.659-.931-.659-1.638 0-.916.353-1.579 1.06-1.989.387-.223.957-.383 1.709-.479l.663-.082c.359-.045.617-.103.772-.171.277-.118.417-.303.417-.554 0-.305-.106-.516-.318-.632s-.522-.175-.933-.175c-.461 0-.786.114-.978.342-.137.169-.229.396-.273.684h-1.88c.042-.651.223-1.186.548-1.606zm1.449 5.236c.182.15.405.226.67.226a1.98 1.98 0 001.158-.369c.354-.246.537-.694.551-1.347v-.725a2.008 2.008 0 01-.373.188 3.086 3.086 0 01-.516.133l-.438.082c-.41.073-.704.162-.882.267-.301.178-.451.454-.451.827 0 .334.093.573.281.718zm9.468.021v1.456l-.923.034c-.921.032-1.55-.127-1.887-.479-.219-.223-.328-.567-.328-1.032v-4.587h-1.039v-1.388h1.039V13.56h1.928v2.078h1.21v1.388h-1.21v3.938c0 .306.038.496.116.571.077.075.314.112.711.112a6.237 6.237 0 00.383-.013zm3.253-8.75v1.798h-1.976v-1.798h1.976zm0 2.686v7.451h-1.976V15.57h1.976zm8.101.944c.629.789.943 1.721.943 2.796 0 1.094-.314 2.029-.943 2.807-.629.776-1.584 1.165-2.864 1.165-1.281 0-2.235-.389-2.864-1.165-.629-.777-.943-1.713-.943-2.807 0-1.075.314-2.007.943-2.796.629-.788 1.583-1.183 2.864-1.183 1.28 0 2.235.395 2.864 1.183zm-2.871.465c-.57 0-1.009.202-1.316.605s-.461.979-.461 1.726c0 .748.153 1.324.461 1.729.308.406.746.608 1.316.608.569 0 1.007-.202 1.312-.608.305-.405.458-.981.458-1.729 0-.747-.153-1.322-.458-1.726-.305-.403-.743-.605-1.312-.605zm8.716.034c-.661 0-1.114.28-1.36.841-.128.297-.191.675-.191 1.135v4.033H144.3v-7.438h1.88v1.087c.25-.383.487-.658.711-.827.4-.301.909-.451 1.524-.451.77 0 1.4.202 1.89.605.49.403.735 1.072.735 2.006v5.018h-1.996V18.49c0-.392-.053-.692-.157-.902-.193-.384-.558-.575-1.095-.575z"/><path transform="rotate(-19.438 71.531 17.964)" class="st0" d="M71.03 12.211h1v11.507h-1z"/><path transform="rotate(-30.098 69.407 21.25)" class="st0" d="M68.908 17.083h1v8.336h-1z"/><path transform="rotate(-70.556 156.839 17.962)" class="st0" d="M151.089 17.464h11.507v1h-11.507z"/><path transform="rotate(-59.881 158.962 21.25)" class="st0" d="M154.797 20.751h8.336v1h-8.336z"/></svg>