<svg xmlns="http://www.w3.org/2000/svg" width="135.296" height="60"><g id="f67174f0-b19a-466b-83ae-83ffa67d2be3" data-name="レイヤー 2"><g id="f3cdd9a5-504d-4b85-a578-06c76e21cf50" data-name="レイヤー 1"><path d="M23.813 53.109h2.357a1.6 1.6 0 011.129.4 1.438 1.438 0 01.429 1.113 1.625 1.625 0 01-.383 1.074 1.449 1.449 0 01-1.174.457h-1.644v2.226h-.714zm2.767.724a1.531 1.531 0 00-.644-.111h-1.409v1.825h1.409a1.346 1.346 0 00.775-.2.816.816 0 00.3-.721.8.8 0 00-.431-.793zm4.769 2.219a.353.353 0 00.3-.186.566.566 0 00.043-.248.527.527 0 00-.234-.481 1.259 1.259 0 00-.671-.149.85.85 0 00-.716.274.9.9 0 00-.153.45h-.6a1.117 1.117 0 01.46-.991 1.891 1.891 0 011.026-.278 2.09 2.09 0 011.1.258.877.877 0 01.419.8v2.212a.282.282 0 00.041.162.2.2 0 00.174.061.9.9 0 00.1-.006c.035 0 .074-.009.114-.016v.477a1.907 1.907 0 01-.229.054 1.735 1.735 0 01-.215.01.531.531 0 01-.484-.236.9.9 0 01-.111-.355 1.656 1.656 0 01-.567.448 1.747 1.747 0 01-.814.19 1.216 1.216 0 01-.873-.324 1.074 1.074 0 01-.338-.811 1.046 1.046 0 01.333-.827 1.59 1.59 0 01.875-.362zM29.99 57.8a.758.758 0 00.484.16 1.475 1.475 0 00.66-.157.887.887 0 00.537-.856v-.519a1.065 1.065 0 01-.3.127 2.585 2.585 0 01-.365.072l-.389.05a1.5 1.5 0 00-.528.146.569.569 0 00-.3.536.53.53 0 00.201.441zm4.684-.629a.926.926 0 00.165.495 1.043 1.043 0 00.863.312 1.314 1.314 0 00.644-.155.519.519 0 00.278-.483.412.412 0 00-.222-.377 2.714 2.714 0 00-.561-.182l-.521-.13a2.571 2.571 0 01-.736-.272.812.812 0 01-.423-.724 1.1 1.1 0 01.4-.882 1.6 1.6 0 011.07-.337 1.492 1.492 0 011.268.509 1.1 1.1 0 01.236.7h-.609a.731.731 0 00-.158-.4 1.024 1.024 0 00-.789-.254.962.962 0 00-.567.14.433.433 0 00-.193.368.453.453 0 00.254.4 1.527 1.527 0 00.431.157l.435.1a3.392 3.392 0 01.949.327.862.862 0 01.376.778 1.181 1.181 0 01-.393.885 1.69 1.69 0 01-1.2.373 1.616 1.616 0 01-1.229-.39 1.45 1.45 0 01-.386-.962zm4.626 0a.926.926 0 00.165.495 1.047 1.047 0 00.864.312 1.319 1.319 0 00.644-.155.52.52 0 00.278-.483.413.413 0 00-.223-.377 2.714 2.714 0 00-.561-.182l-.521-.13a2.571 2.571 0 01-.736-.272.813.813 0 01-.422-.724 1.1 1.1 0 01.4-.882 1.6 1.6 0 011.071-.337 1.494 1.494 0 011.268.509 1.1 1.1 0 01.236.7h-.61a.724.724 0 00-.158-.4 1.021 1.021 0 00-.789-.254.964.964 0 00-.567.14.434.434 0 00-.192.368.452.452 0 00.253.4 1.539 1.539 0 00.431.157l.435.1a3.38 3.38 0 01.949.327.863.863 0 01.377.778 1.182 1.182 0 01-.394.885 1.69 1.69 0 01-1.2.373 1.613 1.613 0 01-1.228-.39 1.455 1.455 0 01-.387-.962zm4.205-4.062h.657v.732h-.657zm0 1.445h.657v3.822h-.657zm2.868-.018l1.027 3.126 1.069-3.126h.706l-1.445 3.84h-.69l-1.416-3.84zm6.511.105a1.457 1.457 0 01.58.5 1.718 1.718 0 01.257.678 4.462 4.462 0 01.057.846h-2.793a1.671 1.671 0 00.274.941.917.917 0 00.794.353 1.022 1.022 0 00.8-.334 1.15 1.15 0 00.237-.451h.634a1.334 1.334 0 01-.166.472 1.742 1.742 0 01-.316.425 1.491 1.491 0 01-.723.387 2.187 2.187 0 01-.523.057 1.6 1.6 0 01-1.207-.522 2.031 2.031 0 01-.5-1.46 2.22 2.22 0 01.5-1.5 1.645 1.645 0 011.3-.577 1.756 1.756 0 01.795.185zm.231 1.509a1.7 1.7 0 00-.181-.671.928.928 0 00-.878-.466.967.967 0 00-.74.321 1.217 1.217 0 00-.316.816zm7.099-1.496a1.771 1.771 0 01.389.377v-1.94h.62v5.285h-.581v-.534a1.392 1.392 0 01-.532.512 1.511 1.511 0 01-.7.158 1.424 1.424 0 01-1.107-.539 2.118 2.118 0 01-.468-1.436 2.474 2.474 0 01.427-1.453 1.391 1.391 0 011.219-.616 1.364 1.364 0 01.733.186zm-1.441 2.879a.909.909 0 00.835.416.878.878 0 00.732-.385 1.826 1.826 0 00.288-1.106 1.648 1.648 0 00-.3-1.078.926.926 0 00-.731-.349.963.963 0 00-.787.373 1.712 1.712 0 00-.3 1.1 1.905 1.905 0 00.263 1.029zm6.689-2.892a1.467 1.467 0 01.581.5 1.732 1.732 0 01.256.678 4.462 4.462 0 01.057.846h-2.793a1.671 1.671 0 00.274.941.917.917 0 00.794.353 1.022 1.022 0 00.8-.334 1.15 1.15 0 00.237-.451h.632a1.334 1.334 0 01-.166.472 1.742 1.742 0 01-.316.425 1.491 1.491 0 01-.723.387 2.187 2.187 0 01-.523.057 1.6 1.6 0 01-1.207-.522 2.031 2.031 0 01-.5-1.46 2.22 2.22 0 01.5-1.5 1.645 1.645 0 011.3-.577 1.756 1.756 0 01.797.185zm.231 1.509a1.7 1.7 0 00-.181-.671.928.928 0 00-.878-.466.967.967 0 00-.74.321 1.217 1.217 0 00-.316.816zm2.737 1.021a.934.934 0 00.165.495 1.047 1.047 0 00.864.312 1.317 1.317 0 00.644-.155.519.519 0 00.278-.483.411.411 0 00-.223-.377 2.7 2.7 0 00-.56-.182l-.521-.13a2.568 2.568 0 01-.737-.272.813.813 0 01-.422-.724 1.1 1.1 0 01.4-.882 1.6 1.6 0 011.07-.337 1.493 1.493 0 011.268.509 1.1 1.1 0 01.236.7h-.61a.716.716 0 00-.158-.4 1.02 1.02 0 00-.788-.254.965.965 0 00-.568.14.434.434 0 00-.192.368.453.453 0 00.253.4 1.552 1.552 0 00.431.157l.435.1a3.367 3.367 0 01.949.327.863.863 0 01.377.778 1.184 1.184 0 01-.393.885 1.692 1.692 0 01-1.2.373 1.614 1.614 0 01-1.229-.39 1.455 1.455 0 01-.387-.962zm4.207-4.062h.656v.732h-.656zm0 1.445h.656v3.822h-.656zm4.695.136a1.789 1.789 0 01.372.366v-.484h.6v3.492a2.577 2.577 0 01-.215 1.154 1.538 1.538 0 01-1.516.782 1.856 1.856 0 01-1.039-.277 1.086 1.086 0 01-.472-.87h.656a.733.733 0 00.185.4 1.168 1.168 0 001.65-.309 2.94 2.94 0 00.126-1.1 1.254 1.254 0 01-.465.437 1.657 1.657 0 01-1.8-.3 1.958 1.958 0 01-.466-1.465 2.225 2.225 0 01.47-1.506 1.452 1.452 0 011.134-.541 1.387 1.387 0 01.78.221zm.079.692a.936.936 0 00-.746-.344.921.921 0 00-.927.638 2.541 2.541 0 00-.131.893 1.6 1.6 0 00.261.988.847.847 0 00.7.338.986.986 0 00.973-.627 2.028 2.028 0 00.158-.828 1.608 1.608 0 00-.288-1.058zm2.748-.846h.613v.545a1.711 1.711 0 01.577-.484 1.539 1.539 0 01.678-.147 1.118 1.118 0 011.1.57 2.03 2.03 0 01.157.893v2.463h-.656v-2.42a1.305 1.305 0 00-.1-.567.628.628 0 00-.623-.358 1.243 1.243 0 00-.377.047.963.963 0 00-.466.315.949.949 0 00-.209.393 2.646 2.646 0 00-.049.579v2.011h-.645zm7.696-1.427h.72v2.176h2.707v-2.176H92v5.267h-.721v-2.463h-2.704v2.463h-.72zm8.919 1.81a1.94 1.94 0 01.509 1.455 2.5 2.5 0 01-.45 1.532 1.614 1.614 0 01-1.391.606 1.569 1.569 0 01-1.25-.535 2.129 2.129 0 01-.462-1.438A2.3 2.3 0 0194.217 55a1.635 1.635 0 011.31-.572 1.727 1.727 0 011.247.491zm-.4 2.552a2.422 2.422 0 00.237-1.08 1.938 1.938 0 00-.171-.872.955.955 0 00-.929-.531.914.914 0 00-.851.452 2.107 2.107 0 00-.265 1.087 1.837 1.837 0 00.265 1.021.935.935 0 00.844.408.878.878 0 00.868-.485zm3.232-2.935v2.549a1.112 1.112 0 00.091.481.631.631 0 00.625.344.884.884 0 00.894-.6 2.458 2.458 0 00.129-.886v-1.888h.645v3.84h-.609l.007-.567a1.319 1.319 0 01-.306.37 1.334 1.334 0 01-.88.3 1.129 1.129 0 01-1.1-.549 1.652 1.652 0 01-.159-.785v-2.61zm4.681 2.635a.918.918 0 00.165.495 1.043 1.043 0 00.863.312 1.317 1.317 0 00.644-.155.52.52 0 00.278-.483.412.412 0 00-.222-.377 2.729 2.729 0 00-.562-.182l-.521-.13a2.6 2.6 0 01-.736-.272.813.813 0 01-.422-.724 1.1 1.1 0 01.4-.882 1.6 1.6 0 011.07-.337 1.493 1.493 0 011.268.509 1.1 1.1 0 01.236.7h-.609a.739.739 0 00-.158-.4 1.025 1.025 0 00-.79-.254.961.961 0 00-.566.14.433.433 0 00-.193.368.451.451 0 00.254.4 1.531 1.531 0 00.43.157l.435.1a3.4 3.4 0 01.95.327.862.862 0 01.376.778 1.178 1.178 0 01-.394.885 1.688 1.688 0 01-1.2.373 1.615 1.615 0 01-1.228-.39 1.455 1.455 0 01-.386-.962zm6.585-2.53a1.467 1.467 0 01.581.5 1.716 1.716 0 01.256.678 4.36 4.36 0 01.058.846h-2.793a1.663 1.663 0 00.274.941.915.915 0 00.793.353 1.021 1.021 0 00.8-.334 1.124 1.124 0 00.237-.451h.635a1.359 1.359 0 01-.167.472 1.742 1.742 0 01-.316.425 1.491 1.491 0 01-.723.387 2.179 2.179 0 01-.522.057 1.6 1.6 0 01-1.208-.522 2.035 2.035 0 01-.5-1.46 2.22 2.22 0 01.5-1.5 1.645 1.645 0 011.3-.577 1.756 1.756 0 01.795.185zm.232 1.509a1.711 1.711 0 00-.182-.671.928.928 0 00-.878-.466.963.963 0 00-.739.321 1.213 1.213 0 00-.317.816zM14.871 11.968h4.476a.612.612 0 00.612-.612V9.175a8.72 8.72 0 00-2.621-6.266A10.276 10.276 0 0014.23.8a9.706 9.706 0 00-3.963-.8 10.224 10.224 0 00-4.42.884A8.671 8.671 0 002.8 3.249 9.927 9.927 0 00.915 6.784a14.914 14.914 0 00-.627 4.346 14.135 14.135 0 001.285 6.37 9.26 9.26 0 005.046 4.072l4.2 1.725a14.271 14.271 0 011.764.867 3.374 3.374 0 011.092 1.066 4.628 4.628 0 01.47 1.7 25.557 25.557 0 01.115 2.654c0 .916-.028 1.759-.086 2.507a4.644 4.644 0 01-.559 1.961 3.175 3.175 0 01-1.325 1.267 5.171 5.171 0 01-2.366.441 3.79 3.79 0 01-3.258-1.327 4.887 4.887 0 01-.966-2.95v-1.146a.611.611 0 00-.611-.612H.612a.612.612 0 00-.612.612v1.491a9.277 9.277 0 00.77 3.79 10.015 10.015 0 002.08 3.051 9.387 9.387 0 003.136 2.053 10.412 10.412 0 003.937.741 11.145 11.145 0 004.737-.912 8.213 8.213 0 003.13-2.5 10.058 10.058 0 001.655-3.737 21.139 21.139 0 00.514-4.782 30.977 30.977 0 00-.23-3.985 10.766 10.766 0 00-.853-3.107A7.552 7.552 0 0017 20.133a11.148 11.148 0 00-3.141-1.74L9.375 16.61a9.155 9.155 0 01-1.828-.928 3.279 3.279 0 01-1.03-1.121 3.873 3.873 0 01-.441-1.468 18.641 18.641 0 01-.089-2.021 11.284 11.284 0 01.175-2 4.914 4.914 0 01.646-1.727 3.92 3.92 0 011.231-1.171 3.776 3.776 0 012-.473A3.553 3.553 0 0113.3 7.2a6.363 6.363 0 01.963 3.523v.629a.612.612 0 00.608.616zM48 5.587a9.546 9.546 0 00-2.219-3.134A10.414 10.414 0 0042.609.628a10.15 10.15 0 00-7.018 0 9.705 9.705 0 00-3.106 1.824 9.22 9.22 0 00-2.279 3.134 10.439 10.439 0 00-.855 4.336v21.619a10.343 10.343 0 00.854 4.393 8.788 8.788 0 002.282 3.02 9.169 9.169 0 003.106 1.881 10.112 10.112 0 007.016 0 9.845 9.845 0 003.166-1.882A9.083 9.083 0 0048 35.933a10.328 10.328 0 00.855-4.392V9.922A10.415 10.415 0 0048 5.587zm-4.85 4.335v21.619a3.991 3.991 0 01-1.207 3.195 4.449 4.449 0 01-5.684 0 3.992 3.992 0 01-1.208-3.195V9.922a4 4 0 011.207-3.2 4.452 4.452 0 015.684 0 4 4 0 011.208 3.2zm62.832 30.388l-6.038-17.834.061-.034a8.635 8.635 0 003.9-4.043 15.129 15.129 0 001.114-6.119c0-7.92-3.453-11.935-10.267-11.935h-8.731a.611.611 0 00-.612.612v39.549a.612.612 0 00.612.612H90.5a.612.612 0 00.612-.612V23.64h3.651l5.328 17.048a.612.612 0 00.584.43h4.725a.612.612 0 00.58-.808zM91.108 5.7h3.13c2.051 0 3.473.565 4.21 1.649a5.6 5.6 0 01.7 2.072 19.262 19.262 0 01.174 2.743 19.262 19.262 0 01-.174 2.743 5.689 5.689 0 01-.645 2.015 3.446 3.446 0 01-1.471 1.266 5.918 5.918 0 01-2.507.439h-3.417zM126.449.823a.614.614 0 00-.6-.478h-3.775a.614.614 0 00-.6.478l-8.832 39.55a.612.612 0 00.6.745h4.429a.611.611 0 00.6-.494l1.628-8.3h8.127l1.628 8.3a.611.611 0 00.6.494h4.429a.612.612 0 00.6-.745zm.584 26.142h-6.139l3.069-15.846z"/><path d="M66.42 12.873l.71-4.047.711 4.047H66.42zm-2.79.739l-.712-4.048 2.052 3.555-1.34.493zm-2.379 1.64l-2.052-3.527 3.173 2.624-1.121.903zM59.61 17.63l-3.144-2.652 3.855 1.422-.711 1.23zm-.738 2.79l-3.883-1.394h4.101l-.218 1.394zm16.297-1.394h4.102l-3.855 1.394-.247-1.394zM73.966 16.4l3.856-1.422-3.144 2.652-.712-1.23zm-2.051-2.051l3.145-2.624-2.051 3.527-1.094-.903zm-2.624-1.23l2.05-3.555-.711 4.048-1.339-.493z" fill-rule="evenodd"/><path d="M77.537 26.684a2.607 2.607 0 01-1.746-.64 1.857 1.857 0 00-2.467 0 2.7 2.7 0 01-3.488 0 1.85 1.85 0 00-2.462 0 2.692 2.692 0 01-3.485 0 1.847 1.847 0 00-2.46 0 2.685 2.685 0 01-3.48 0 1.771 1.771 0 00-1.226-.469v-.857a2.594 2.594 0 011.74.64 1.838 1.838 0 002.453 0 2.692 2.692 0 013.485 0 1.85 1.85 0 002.462 0 2.691 2.691 0 013.484 0 1.854 1.854 0 002.466 0 2.7 2.7 0 013.489 0 1.79 1.79 0 001.235.47zm0 3.192a4.1 4.1 0 01-1.64-.3 3.714 3.714 0 00-2.679 0 4.551 4.551 0 01-3.276 0 3.7 3.7 0 00-2.674 0 4.54 4.54 0 01-3.272 0 3.7 3.7 0 00-2.674 0 4.527 4.527 0 01-3.267 0 3.215 3.215 0 00-1.332-.25v-.857a4.076 4.076 0 011.633.3 3.684 3.684 0 002.668 0 4.542 4.542 0 013.27 0 3.689 3.689 0 002.675 0 4.554 4.554 0 013.272 0 3.7 3.7 0 002.678 0 4.568 4.568 0 013.277 0 3.241 3.241 0 001.341.251zM56.723 32.21h20.814v.857H56.723z"/></g></g></svg>