<svg xmlns="http://www.w3.org/2000/svg" width="32" height="32"><g id="b070ddda-0793-4ebd-b091-9d04b8ea4580" data-name="レイヤー 2"><path d="M2 2h9V0H0v11h2V2zm19-2v2h9v9h2V0H21zm9 30h-9v2h11V21h-2v9zM2 21H0v11h11v-2H2v-9zm19.539 1.535a1 1 0 00.706-1.707l-1.356-1.354a6.015 6.015 0 10-1.414 1.415l1.358 1.354a.994.994 0 00.706.292zm-8.368-3.705A4.006 4.006 0 0116 12a3.968 3.968 0 012.829 1.176 3.991 3.991 0 010 5.655 4.094 4.094 0 01-5.658-.001z" fill="#df8400" id="b77ac49f-6e0d-40b3-a1ab-b90b3609372d" data-name="レイヤー 1"/></g></svg>