<svg version="1.1" id="レイヤー_1" xmlns="http://www.w3.org/2000/svg" x="0" y="0" width="746" height="340" xml:space="preserve"><path d="M420.48 142.016l-3.556 3.437a.186.186 0 00.129.318.185.185 0 00.129-.052l3.556-3.437a.186.186 0 00.004-.262.186.186 0 00-.262-.004zm.003 1.894l-1.659 1.541a.186.186 0 00-.01.262c.036.04.086.059.136.059a.184.184 0 00.126-.049l1.659-1.541a.186.186 0 00.01-.262.184.184 0 00-.262-.01zm-19.754 110.528a.188.188 0 00-.213.152l-.127.709-.436.871-.314.316-.445.338-.437.224-.429.112h-.469l-23.111-.593-.003.001-.002-.001h-.236c-.022 0-.039.017-.059.025-.021-.008-.036-.025-.06-.025h-.118l-.002.001-3.073-.118-.007-.001h-.355a.186.186 0 00-.131.055l-.474.474c-.01.01-.008.024-.015.036-.008.011-.022.016-.027.029l-.948 2.489c-.004.012.003.023.001.035-.002.012-.013.019-.013.032 0 .014.012.023.015.036a.165.165 0 00.076.111c.011.007.015.021.028.026a.169.169 0 00.066.013h3.316l22.399.237h.002a.22.22 0 00.036-.004l1.929-.366.593-.236a.222.222 0 00.043-.023l.458-.345.628-.384.491-.494.723-.964.368-.62.246-.624.1-.549.017-.035.118-.475a.188.188 0 00-.019-.128l.022-.123a.186.186 0 00-.152-.214zm-29.82 2.382h.279l.002-.001 2.975.114-.779 2.004v.005l-.003.003-.09.268-.594.198h-3.02l.838-2.2.392-.391zm28.117 1.106l-.438.446-.608.366-.454.342-.531.216-.717.12-1.165.233-21.5-.228.003-.003.116-.347.753-1.936c.05-.033.089-.081.089-.146v-.041l.011-.011h.154l23.111.593h.005l.519-.006.512-.132.503-.255.453-.343-.12.201-.696.931zm3.514-26.921l-.118-.711a.21.21 0 00-.023-.065l-.739-1.221-.983-.976-1.213-.725-1.184-.474a.185.185 0 00-.069-.014h-.706l-21.914-2.014-.002.001-.001-.001-3.319-.237c-.011 0-.019.009-.03.011-.012.001-.022-.007-.034-.004-.017.005-.023.021-.037.029a.162.162 0 00-.079.101c-.004.013-.017.02-.018.034-.001.012.009.02.01.031.001.012-.007.022-.004.034l.711 2.489c.002.007.009.01.012.017.002.005-.001.01.001.016l.118.236a.185.185 0 00.035.048l.237.237a.182.182 0 00.072.045l.355.118c.013.005.026.005.04.007l.004.002 3.081.237.015.001h.119c.063 0 .11-.036.143-.084l.129.064c.021.01.042.012.063.015.003 0 .005.004.008.004l.012.001h.001l22.725 1.539.435.107.559.22.796.567.207.31.455.909v1.141a.186.186 0 10.372 0v-1.422a.176.176 0 00-.014-.068l-.228-.555zm-29.304-3.635l-.099-.198-.632-2.215 3.03.217.293.097.185.185.099.199.645 2.043a.179.179 0 00-.066.136v.047l-2.977-.229-.293-.097-.185-.185zm28.759 3.043l-.483-.361-.39-.255-.616-.245-.474-.118c-.006-.002-.011.003-.017.002-.006-.001-.009-.007-.015-.007l-22.717-1.538-.102-.05v-.005c0-.011-.01-.017-.011-.027-.001-.01.006-.018.003-.028l-.711-2.251c-.002-.005-.008-.007-.01-.012s.001-.011-.001-.016l-.118-.237c-.003-.007-.009-.012-.013-.018l21.163 1.945.017.001h.676l1.125.447 1.15.684.92.912.693 1.155.025.143-.049-.074a.224.224 0 00-.045-.047z"/><path d="M405.502 231.474l-.124-.615-.247-.735-.244-.487-.366-.608-.711-.947a.216.216 0 00-.037-.037l-.489-.367-1.198-.718-.474-.236a.193.193 0 00-.053-.017l-1.298-.236c-.004-.001-.006.003-.01.002s-.006-.005-.01-.005l-29.629-2.607c-.003 0-.005.003-.007.003-.003 0-.005-.004-.009-.004H368.7l-.01.001-36.147 1.896c-.004 0-.006.004-.009.004-.004 0-.007-.003-.011-.002l-.717.119-.616.122-.722.241-.592.237a.213.213 0 00-.042.023l-1.072.833a.257.257 0 00-.033.033l-.826 1.063a.156.156 0 00-.027.047l-.224.564-.355.593a.182.182 0 00-.023.06l-.238 1.31.002.007c0 .003-.003.004-.004.007l-1.541 18.133c0 .003.003.005.003.008s-.003.005-.003.007l.003 1.34.128.625.487 1.213.366.607.373.494.948.948c.014.015.03.026.048.035l.461.229.619.368.631.248.709.119h.001l21.57 3.792.008.001 5.464.712 5.57.355.01.001 34.844.237h.001l.623-.003.717-.119.593-.119a.217.217 0 00.06-.022l.566-.343.592-.237a.246.246 0 00.042-.023l.494-.373.977-.982.362-.605.243-.489.24-.603.237-.711a.197.197 0 00.01-.059v-.586l2.014-22.508c0-.003-.003-.005-.003-.008s.004-.005.004-.008l-.003-1.218zm-2.382 24.3l-.224.673-.23.578-.23.462-.327.558-.929.93-.455.341-.596.241-.564.34-1.236.227h-.592l-34.843-.237h-.001l-5.546-.354-5.443-.71-21.57-3.792h-.001l-.673-.108-.566-.225-.605-.362-.447-.223-.91-.907-.345-.459-.342-.564-.464-1.153-.115-.557v-1.294l1.539-18.12.229-1.259.352-.592.227-.565.461-.576.341-.456 1.024-.796.559-.225.689-.231 1.291-.234 36.123-1.895h1.892l29.611 2.606 1.269.231.436.218 1.17.7.452.34.685.911.349.58.228.45.231.688.114.557v1.179l-2.014 22.508c0 .003.003.005.003.008s-.004.005-.004.008v.56z"/><path d="M394.892 256.701l.637-.006.513-.132.502-.255.494-.373.355-.355a.165.165 0 00.035-.048l.474-.948a.188.188 0 00.02-.083v-.586l1.896-20.611c0-.003-.003-.005-.003-.008s.004-.005.004-.008l-.006-.638-.132-.512-.249-.494-.475-.711a.188.188 0 00-.043-.046l-.482-.361-.355-.237a.157.157 0 00-.058-.025l-.948-.236c-.006-.002-.011.003-.017.002-.006-.001-.009-.007-.015-.007l-26.902-1.896-.006.002c-.003 0-.005-.003-.007-.003h-2.223l-.658-.218-.237-.118a.182.182 0 00-.083-.02h-1.304c-.02 0-.04.004-.059.01l-.735.247-.198.099H348.67a.185.185 0 00-.083.02l-.494.249-.384.26-.237.237a.182.182 0 00-.045.072l-.123.369-.118.475c-.001.005.003.01.002.015-.001.005-.007.008-.007.013l-2.015 22.518c0 .003.003.005.003.009 0 .003-.003.005-.003.008l.005.4.119.474a.2.2 0 00.025.058l.237.356a.184.184 0 00.052.052l.71.474a.161.161 0 00.044.021l.355.118.02.003c.002 0 .002.002.004.003l2.489.475.012.001.001.001 4.986.594 4.978.355.007.001h.001l35.673.947h.008zm-29.245-28.561h1.231l.221.108.374.125c.028.068.081.122.159.122h.16l.873.873.094.185.248.736.099.197v.98l-.109.221-.227.687-.105.211-.896.896-.693.233-.198.099h-1.23l-.658-.218-.209-.104-1.133-1.133-.214-.642v-1.479l.214-.642 1.1-1.1h.042c.076 0 .128-.052.157-.117l.021-.011.679-.227zm-16.356 26.297l-2.468-.471-.323-.107-.66-.439-.199-.3-.105-.396v-.344l2.013-22.499.111-.446.105-.315.178-.182.336-.225.435-.218h15.508l-.869.869a.182.182 0 00-.045.072l-.237.711a.196.196 0 00-.009.059v1.54c0 .02.003.04.009.059l.237.712a.176.176 0 00.045.072l1.186 1.185c.014.015.03.026.048.035l.26.128.711.237c.019.006.039.01.059.01h1.304a.185.185 0 00.083-.02l.214-.108.71-.237a.176.176 0 00.072-.045l.948-.948a.185.185 0 00.035-.048l.128-.262.227-.687.119-.236a.182.182 0 00.02-.083v-1.067a.182.182 0 00-.02-.083l-.108-.212-.248-.736-.118-.236a.185.185 0 00-.035-.048l-.632-.632h1.805l26.872 1.894.902.225.769.55.445.665.224.437.112.429v.587l-1.896 20.611c0 .003.003.005.003.008s-.004.005-.004.008v.548l-.44.883-.314.316-.446.338-.436.224-.43.112h-.587l-35.673-.947h-.001l-4.96-.354-4.97-.593z"/><path d="M346.233 255.423c-.004-.024-.003-.046-.015-.067-.012-.021-.033-.031-.052-.045-.016-.012-.024-.031-.044-.038l-.67-.223-.293-.294-.219-.656-.111-.443.05-.554a.18.18 0 00.023-.255l2.175-24.263.222-.668.203-.304.304-.202.688-.229c.017-.006.023-.023.037-.032.02-.013.037-.024.051-.044.014-.02.018-.04.023-.065.004-.016.017-.028.016-.045 0-.009-.009-.015-.011-.024-.002-.009.005-.016.002-.025-.005-.015-.021-.02-.029-.033a.148.148 0 00-.046-.053.147.147 0 00-.058-.023c-.015-.004-.026-.017-.043-.017l-.009.001-13.866.711c-.005 0-.008.005-.013.006-.005 0-.009-.004-.015-.003l-1.297.236a.193.193 0 00-.053.017l-.486.244-.628.384-.965.968-.355.474a.164.164 0 00-.024.043l-.485 1.224-.119.711.002.008c0 .003-.003.004-.004.007l-1.422 16.474c0 .003.003.005.003.008s-.003.005-.003.007l.003.628.247 1.218.243.607.254.502.373.494.494.491.474.355c.013.01.027.018.042.023l.578.231.474.237a.2.2 0 00.047.016l.593.118h.003l.001.001 13.511 2.37a.183.183 0 00.144-.038c.011-.009.015-.022.024-.033.014-.017.032-.031.04-.053.001-.004-.002-.008-.001-.013.001-.005.007-.008.008-.013 0-.022-.013-.039-.016-.059zm-13.17-4.658l-.428-.103-.448-.224-.311-.306-.226-.336-.227-.449-.109-.327v-.434l1.421-16.571.111-.445.105-.314.347-.354.21-.314.406-.204.341-.115.458-.114 11.9-.584-2.076 23.166-11.474-1.972zm-1.509 1.787l-.57-.229-.434-.323-.457-.454-.338-.446-.231-.459-.227-.561-.234-1.149v-.582l1.421-16.463.106-.664.465-1.163.323-.434.913-.92.58-.349.449-.226.689-.114.583-.117 12.792-.656-.121.081a.169.169 0 00-.051.052l-.237.355a.181.181 0 00-.022.044l-.237.712c-.003.008.003.014.002.022-.002.008-.01.012-.01.02l-.06.667-11.972.587c-.006 0-.01.007-.016.008-.007.001-.013-.005-.019-.003l-.488.122-.379.129-.474.236a.18.18 0 00-.071.063l-.215.327-.355.356a.192.192 0 00-.044.072l-.123.369-.118.474c-.001.005.003.01.002.015-.001.006-.007.008-.007.014l-1.422 16.592c0 .003.003.005.003.008s-.003.005-.003.007v.475c0 .02.003.04.009.059l.129.38.249.493.26.384.355.355c.014.014.03.025.048.035l.512.251.474.119a.045.045 0 00.011.001l.002.001 11.51 1.976-.049.55c-.001.011.008.019.01.03.001.011-.007.02-.005.031l.123.487.237.711a.184.184 0 00.044.072l.077.077-12.357-2.168-.564-.112-.468-.227z"/><path d="M412.274 262.627c.028.066.081.119.158.119a.186.186 0 00.186-.186v-92.323a.186.186 0 00-.186-.186H319.99a.185.185 0 00-.185.186v92.204c0 .103.083.186.185.186h92.284zm-54.293-51.08h16.458v6.558l-16.458 1.312v-7.87zm16.83-.186a.186.186 0 00-.186-.186h-16.829a.185.185 0 00-.185.186v8.085l-26.415 2.105v-4.846l.235-4.128.164-.96.066-.198c.003-.011-.004-.02-.002-.031.002-.01.012-.017.012-.028v-.182l.467-2.728 1.182-4.02 1.187-3.205 1.066-3.319c.001-.004-.002-.008-.001-.013.001-.005.006-.007.007-.012l.358-2.047v-2.144l-.123-2.044-.474-2.134c-.001-.004-.005-.005-.007-.009-.001-.004.002-.007.001-.011l-2.13-6.152-1.298-4.947-.592-5.209-.115-2.763h.7l.112 3.14c.001.033.021.058.038.084.008.013.008.03.018.041a.185.185 0 00.129.054h.83c.076 0 .129-.053.158-.119h21.255c.028.066.081.119.158.119h.83c.05 0 .094-.021.127-.053.012-.012.012-.03.021-.044.015-.024.034-.046.036-.076l.224-3.146h56.411v44.669l-37.436 2.984v-6.713zm-39.83-21.756l.467 2.094.118 2.004.003 2.101-.353 2.001-1.061 3.301-1.186 3.199v.007l-.004.005-1.19 4.051-.252 1.473-.111-.221-.119-.236c-.005-.01-.017-.011-.023-.02-.006-.009-.004-.02-.012-.028l-.215-.216-.106-.211c-.009-.018-.029-.024-.043-.037-.014-.015-.02-.036-.04-.046l-.237-.118-.237-.118h-.002l-.235-.118c-.013-.007-.027 0-.041-.003-.015-.004-.025-.017-.042-.017h-.474c-.005 0-.007.005-.012.005-.004 0-.007-.004-.011-.003l-.948.119a.208.208 0 00-.06.018l-.711.355c-.006.003-.006.01-.012.013-.005.003-.011 0-.016.004l-.45.338-.342.114a.165.165 0 00-.097-.106v-6.175h4.081a.185.185 0 00.185-.186v-3.081c0-.023-.017-.039-.025-.06.008-.021.025-.036.025-.06v-4.622c0-.023-.017-.039-.024-.059.008-.02.024-.036.024-.059v-4.622c0-.023-.017-.039-.024-.059.008-.02.024-.036.024-.059v-4.741a.185.185 0 00-.185-.186h-1.83v-.052a.185.185 0 00-.185-.186h-2.066v-2.62a.174.174 0 00.074-.05c.004-.005.013-.003.016-.009l.612-.987.719-2.172.237-2.172-.246-2.292-.729-2.174-.593-.948c-.004-.007-.013-.007-.018-.013-.015-.019-.035-.028-.057-.04-.021-.011-.038-.023-.061-.026-.008-.001-.013-.009-.021-.009h-6.57v-1.051h10.541l.111 2.667.003.006-.002.006.598 5.241 1.304 4.978.005.007v.007l2.131 6.154zm-8.22-17.642l.519.821.703 2.096.237 2.211-.229 2.095-.692 2.094-.538.86h-6.468v-10.177h6.468zm.169 30.799v-2.71h3.896v2.71h-3.896zm1.096 6.508l.669-.335.901-.113h.424l.195.098.001.001.237.118.182.091.091.182c.006.013.018.019.027.029.004.006.003.013.008.018l.215.216.105.21.112.225.105.316v.827l-.063.369-.042.126-.112.224-.106.211-.215.216-.119.118-.215.215-.211.105-.001.001-.195.098h-.424l-.901-.113-.657-.329-.452-.451a.19.19 0 00-.1-.052l-1.298-.236c-.006-.001-.011.004-.018.004-.007-.001-.011-.008-.019-.008h-4.901l-.064-.063a.161.161 0 00-.048-.034l-.21-.106-.195-.194-.086-.171v-.505l.086-.171.195-.194.21-.106a.182.182 0 00.048-.034l.064-.063h4.901c.012 0 .024-.002.037-.004l.615-.125.711-.236a.213.213 0 00.052-.027l.461-.348zm-7.733-23.796h.104v1.525h-.104v-1.525zm.223 1.896v1.288h-.223v-1.288h.223zm-.119 1.659v10.296h-.104v-10.296h.104zm.119 10.667v1.288h-.223v-1.288h.223zm-.119 1.659v1.406h-.104v-1.406h.104zm-.104 8.427l.611.026-.168.085a.182.182 0 00-.048.034l-.237.236a.185.185 0 00-.035.048l-.119.237c-.003.007-.002.014-.005.021v-.687zm6.637-10.22v-.222h3.896v.222h-3.896zm0-.593v-3.658h3.896v3.658h-3.896zm0-4.148v-4.251h3.896v4.251h-3.896zm-.37 14.34h-6.148v-6.028h.17a.185.185 0 00.185-.186v-1.619c.066-.028.119-.081.119-.158v-1.659c0-.077-.053-.13-.119-.158v-10.351c.066-.028.119-.081.119-.158v-1.659c0-.077-.053-.13-.119-.158v-1.739a.185.185 0 00-.185-.186h-.17v-2.592h6.148v26.651zm-6.267 2.026c.002.007.002.014.005.021l.119.236a.208.208 0 00.034.048l.238.237c.014.015.03.025.048.034l.167.085-.61.027v-.688zm10.533-21.106h-3.896v-4.37h3.896v4.37zm.237 22.455l-.237 4.148.002.006-.002.005v4.687l-10.533.793v-9.93l2.421-.106.001.001h.119c.076 0 .129-.052.157-.118h3.146l1.23.225.432.432c.008.008.019.005.027.011.009.007.01.019.021.024l.711.355a.208.208 0 00.06.018l.948.119a.195.195 0 00.023.002h.474a.176.176 0 00.083-.021l.234-.117.003-.001.237-.118c.01-.005.012-.017.02-.023.009-.006.02-.004.028-.012l.237-.237.119-.118.043-.043-.004.018zm23.339-39.996h-21.063l.101-2.117h20.861l.101 2.117zm-21.443.177l.002.005-.002.004c0 .023.017.039.025.06.009.023.011.049.028.067.019.02.047.024.074.034.018.007.03.023.05.024l.009.001h21.452l.009-.001c.02-.001.033-.017.05-.024.026-.01.055-.014.074-.034.017-.018.019-.044.028-.067.008-.021.025-.036.025-.06l-.002-.004.002-.005-.109-2.294h.792l-.21 2.947h-.5c-.028-.066-.081-.119-.158-.119h-21.57c-.076 0-.129.053-.158.119h-.493l-.105-2.947h.799l-.112 2.294zm-12.666 89.539v-39.464l37.421-2.982c.026.014.05.034.082.034a.184.184 0 00.121-.05l54.21-4.32v46.783h-91.834z"/><path d="M324.421 225.146a.185.185 0 00-.035-.048l-.355-.356a.218.218 0 00-.049-.035l-.474-.236a.182.182 0 00-.083-.02h-.592a.185.185 0 00-.083.02l-.474.236a.218.218 0 00-.049.035l-.355.356a.185.185 0 00-.035.048l-.237.474a.188.188 0 00-.02.083v.711c0 .028.006.057.02.083l.237.475a.185.185 0 00.035.048l.355.355a.218.218 0 00.049.035l.474.236c.025.013.054.02.083.02h.592a.185.185 0 00.083-.02l.474-.236a.218.218 0 00.049-.035l.355-.355a.185.185 0 00.035-.048l.237-.475a.188.188 0 00.02-.083v-.711a.175.175 0 00-.02-.083l-.237-.474zm-.113 1.223l-.205.409-.313.312-.408.203h-.505l-.408-.203-.313-.312-.205-.409v-.623l.205-.408.313-.313.408-.203h.505l.408.203.313.313.205.408v.623zm365.279-58.223v-.042a.186.186 0 00-.055-.131l-.355-.356a.183.183 0 00-.131-.054h-.593a.185.185 0 00-.186.185v.042l-.052.01a.187.187 0 00-.131.054l-.118.119a.186.186 0 00-.055.131v.592c0 .049.02.096.055.131l.475.475a.185.185 0 00.131.054h.355c.049 0 .097-.02.131-.054l.064-.064h.041a.186.186 0 00.176-.127.176.176 0 00.074-.045l.118-.119a.186.186 0 00.055-.131v-.042l.063-.064a.186.186 0 00.055-.131v-.237a.186.186 0 00-.055-.131l-.062-.065zm-.253.355l-.063.064a.186.186 0 00-.055.131v.042l-.052.01a.186.186 0 00-.176.127.18.18 0 00-.073.045l-.064.064h-.202l-.365-.366v-.439l.052-.01c.049 0 .097-.02.131-.054l.118-.119a.187.187 0 00.042-.064h.343l.247.248v.042c0 .049.02.096.055.131l.063.064v.084z"/><path d="M687.149 168.274h-2.54v-.526c0-.102-.083-.185-.186-.185s-.186.083-.186.185v.526h-1.881v-45.562a.185.185 0 00-.186-.185c-.035 0-.061.02-.088.037.016-.028.037-.054.037-.088v-3.2c0-.026-.018-.045-.028-.068.082-.02.147-.082.147-.169a.185.185 0 00-.186-.185h-1.186c-.084 0-.144.062-.166.139a.17.17 0 00-.11.098h-4.168V61.203a.178.178 0 00-.178-.178H412.785l.538-2.51a.186.186 0 00-.142-.22.184.184 0 00-.22.143l-.554 2.587H147.686c-.007-.001-.011-.007-.018-.007h-2.015c-.007 0-.011.007-.018.007h-1.387c-.007-.001-.011-.007-.018-.007h-1.422c-.007 0-.011.007-.018.007h-1.387c-.007-.001-.011-.007-.018-.007h-1.422c-.007 0-.011.007-.018.007h-1.268c-.007-.001-.011-.007-.018-.007h-1.422c-.007 0-.011.007-.018.007h-1.387c-.007-.001-.011-.007-.018-.007h-1.422c-.007 0-.011.007-.018.007h-1.387c-.007-.001-.011-.007-.018-.007h-1.422c-.007 0-.011.007-.018.007h-1.268c-.007-.001-.011-.007-.018-.007h-1.422c-.007 0-.011.007-.018.007h-1.387c-.007-.001-.011-.007-.018-.007h-1.422c-.007 0-.011.007-.018.007h-1.387c-.007-.001-.011-.007-.018-.007h-1.304c-.007 0-.011.007-.018.007h-1.387c-.007-.001-.011-.007-.018-.007h-1.422c-.007 0-.011.007-.018.007h-1.387c-.007-.001-.011-.007-.018-.007h-1.422c-.007 0-.011.007-.018.007h-1.268c-.007-.001-.011-.007-.018-.007h-1.422c-.007 0-.011.007-.018.007h-1.387c-.007-.001-.011-.007-.018-.007h-1.422c-.007 0-.011.007-.018.007h-1.387c-.007-.001-.011-.007-.018-.007h-1.304c-.007 0-.011.007-.018.007h-1.387c-.007-.001-.011-.007-.018-.007h-2.133c-.007 0-.011.007-.018.007h-.456a.178.178 0 00-.178.178v21.57c0 .098.08.178.178.178h156.374v78.99c0 .102.083.185.185.185h33.303a.185.185 0 000-.37h-33.118V82.951h40.644v18.903c0 .098.08.178.178.178v1.297h-7.111a.186.186 0 00-.131.054l-.237.237a.184.184 0 00-.054.131v2.133c0 .102.083.185.185.185h.289v22.385h-.104v-21.977a.185.185 0 00-.37 0v21.977h-3.607a.185.185 0 000 .37h3.607v27.955h-.645a.185.185 0 000 .37h1.118v46.143c-.135.068-.23.205-.23.367s.095.298.23.367v1.293a.185.185 0 10.37 0v-1.244h6.03v1.244a.185.185 0 10.37 0v-1.293a.415.415 0 00.111-.077v49.902H105.24a.178.178 0 00-.178.178v21.688c0 .099.08.178.178.178h14.796a.182.182 0 00-.166.178c0 .103.083.186.185.186h20.148a.185.185 0 00.185-.186.182.182 0 00-.166-.178h204.472v1.362c0 .103.083.186.185.186h.711c.05 0 .095-.021.129-.053.011-.011.011-.028.019-.041.016-.026.036-.05.038-.082l.078-1.549h.076a.18.18 0 00.136.067h3.082c.02 0 .039-.003.059-.01l.326-.108h.208c.083 0 .142-.061.165-.138a.168.168 0 00.111-.1h30.589v.052c0 .103.083.186.186.186h.312l.198.099c.027.013.055.02.083.02h3.081a.177.177 0 00.136-.067h.194l.077 1.539v.001l.001.001v.008c.001.028.02.047.032.07.009.017.01.039.024.052a.18.18 0 00.128.053h.711a.186.186 0 00.186-.186v-1.362H621c.007.001.011.008.019.008h2.015c.007 0 .012-.007.019-.008h1.384c.007.001.011.008.019.008h1.422c.007 0 .012-.007.019-.008h1.385c.007.001.011.008.019.008h1.422c.007 0 .012-.007.019-.008h1.266c.007.001.011.008.019.008h1.422c.007 0 .012-.007.019-.008h1.385c.007.001.011.008.019.008h1.422c.007 0 .012-.007.019-.008h1.384c.007.001.011.008.019.008h1.422c.007 0 .012-.007.019-.008h1.266c.007.001.011.008.019.008h1.423c.007 0 .012-.007.019-.008h1.384c.007.001.011.008.019.008h1.422c.007 0 .012-.007.019-.008h1.385c.007.001.011.008.019.008h1.304c.007 0 .012-.007.019-.008h1.384c.007.001.011.008.019.008h1.422c.007 0 .012-.007.019-.008h1.385c.007.001.011.008.019.008h1.422c.007 0 .012-.007.019-.008h1.266c.007.001.011.008.019.008h1.422c.007 0 .012-.007.019-.008h1.385c.007.001.011.008.019.008h1.422c.007 0 .012-.007.019-.008h1.384c.007.001.011.008.019.008h1.304c.007 0 .012-.007.019-.008h1.384c.007.001.011.008.019.008h2.134c.007 0 .012-.007.019-.008h13.374a.177.177 0 00.178-.178V217.71h4.021v.052c0 .103.083.186.186.186h1.304a.186.186 0 00.186-.186c0-.088-.066-.15-.147-.17.01-.023.028-.041.028-.068v-3.081c0-.034-.02-.061-.037-.088.028.016.054.037.088.037a.186.186 0 00.186-.186v-45.562h1.881v.526c0 .102.083.185.186.185s.186-.083.186-.185v-.526h2.54c.103 0 .186-.083.186-.185s-.091-.185-.194-.185zm-7.044 48.132h.459v.933h-.459v-.933zm1.644.933h-.813v-.222h.813v.222zm-.711-2.933c-.019-.082-.082-.148-.17-.148a.186.186 0 00-.186.186v.316c-.066.029-.118.081-.118.158v1.118h-.645a.186.186 0 00-.186.186v1.118h-.577v-.723c.066-.028.119-.081.119-.158v-.83c0-.077-.053-.13-.119-.158v-1.857a.186.186 0 10-.372 0v1.118h-.933v-1.236a.186.186 0 00-.186-.186h-.592a.186.186 0 00-.186.186v1.236h-.526v-.051h-1.355v-.407h.525a.186.186 0 00.186-.186v-3.438c0-.011-.01-.018-.012-.029-.002-.01.006-.02.002-.03l-.114-.342-.119-.474c-.004-.017-.02-.024-.029-.038-.013-.023-.023-.042-.043-.058-.013-.011-.025-.016-.041-.023v-38.429c.019-.008.037-.013.053-.026.012-.011.016-.025.025-.038.012-.018.029-.031.035-.053l.202-.808h2.7a.186.186 0 00.186-.186v-1.474h.221v44.377a.186.186 0 10.372 0v-44.377h1.881v45.764zM295.642 103.827l.128-.128h3.175v1.289h-3.304v-1.161zm380.909 66.106v-.222h1.644v.222h-1.644zm-.712 0v-.459h.341v.459h-.341zm-.592 43.969v-.222h.103v.222h-.103zm2.015-.221h.221v1.051h-.221v-1.051zm.22 1.422v1.052h-1.051v-1.052h1.051zm1.304 1.051h-.933v-1.052h.933v1.052zM300.62 155.356v-.372c.018.083.082.15.17.15a.185.185 0 00.185-.185v-.83a.186.186 0 00-.054-.131l-.04-.04h.028a.185.185 0 00.185-.185c0-.02-.016-.034-.021-.052h.384c-.006.018-.021.032-.021.052 0 .076.053.129.119.158v.163c-.018-.083-.082-.15-.17-.15a.185.185 0 00-.185.185v1.237h-.58zm-1.66-26.533h5.556v24.518h-3.845a.185.185 0 00-.185.185v.052h-1.526v-24.755zm0-23.141c.002.009.007.016.01.024-.003.008-.008.015-.01.024v-.048zm-.014-.308c-.001-.006-.005-.011-.007-.016h.007v.016zm.014.545c.018.083.082.15.17.15h5.385v22.385h-5.556v-22.535zm378.302 61.052v-.17a.185.185 0 00-.186-.185h-.17v-40.281h.933v40.281h-.171a.185.185 0 00-.186.185v.17h-.22zm-1.082 2.133h-.104v-.459h.104v.459zm-374.375-14.34v-.104h.459v.104h-.459zm3.081-25.941h14.155a.185.185 0 000-.37h-14.155v-22.385h1.355a.185.185 0 000-.37h-.645v-.697h1.119c.007 0 .011-.007.018-.007h.845l.438.263.003.001a.231.231 0 00.236.001l.003-.001.453-.264h5.03l.438.263.003.001a.231.231 0 00.236.001l.003-.001.453-.264h3.983v9.304a.185.185 0 00.37 0v-1.15c.018.083.082.15.17.15h11.022a.185.185 0 000-.37h-4.941l.319-.266c.003-.002.002-.006.004-.008.003-.002.007-.001.009-.004l5.926-6.044a.185.185 0 10-.264-.26l-5.921 6.04-.65.542h-5.318v-2.109l2.907-2.907h.001l6.044-5.926a.185.185 0 10-.26-.264l-6.044 5.926v.001h-.001l-2.647 2.647v-7.298l8.36-8.36a.185.185 0 10-.262-.262l-8.17 8.17a.18.18 0 00-.113-.047.182.182 0 00-.178.167v-1.387c.01.093.083.167.178.167a.185.185 0 00.185-.185v-6.205l7.886-7.886a.185.185 0 10-.262-.262l-7.625 7.625v-1.687a.185.185 0 00-.185-.185.182.182 0 00-.178.167v-1.387c.01.093.083.167.178.167a.185.185 0 00.185-.185v-4.304l1.481-1.367.002-.004.005-.002 5.926-6.044a.187.187 0 00-.002-.262.184.184 0 00-.262.003l-5.925 6.044-1.224 1.13v-3.488a.185.185 0 00-.185-.185.182.182 0 00-.178.167v-1.387c.01.093.083.167.178.167a.185.185 0 00.185-.185v-2.45c.066-.028.119-.081.119-.158 0-.012-.01-.019-.012-.03l3.513-3.513a.185.185 0 10-.262-.262l-3.358 3.358v-7.309h7.309l-3.358 3.358a.186.186 0 00.131.316.184.184 0 00.131-.054l3.62-3.62h2.531c.007 0 .011-.007.018-.007h1.387c.007.001.011.007.018.007h3.464l-7.15 7.151a.186.186 0 00.131.316.184.184 0 00.131-.054l7.412-7.413h4.427c.007 0 .011-.007.018-.007h1.268c.007.001.011.007.018.007h1.687l-7.625 7.625a.186.186 0 00.131.316.184.184 0 00.131-.054l7.887-7.886h6.205c.007 0 .011-.007.018-.007h1.202l-8.106 8.106a.186.186 0 00.131.316.184.184 0 00.131-.054l8.36-8.36h7.302l-8.578 8.692a.185.185 0 10.264.26l8.834-8.952h.278c.007 0 .011-.007.018-.007h1.387c.007.001.011.007.018.007h5.716l-6.321 6.321a.186.186 0 00.131.316.184.184 0 00.131-.054l6.583-6.583h2.175c.007 0 .011-.007.018-.007h1.268c.007.001.011.007.018.007h3.938l-6.321 6.321a.186.186 0 00.131.316.184.184 0 00.131-.054l6.583-6.583h3.953c.007 0 .011-.007.018-.007h1.386c.007.001.011.007.018.007h2.042l-6.321 6.321a.186.186 0 00.131.316.184.184 0 00.131-.054l6.583-6.583h5.849c.007 0 .011-.007.018-.007h1.386c.007.001.011.007.018.007h.146l-6.321 6.321a.186.186 0 00.131.316.184.184 0 00.131-.054l6.583-6.583h7.417l-6.321 6.321a.186.186 0 00.131.316.184.184 0 00.131-.054l6.59-6.59h1.084c.007.001.011.007.018.007h6.196l-6.209 6.322a.185.185 0 10.264.26l6.464-6.582h3.605l-.007.033a.177.177 0 00-.07.137c0 .026.018.044.027.066l-.225 1.079-.787 3.673-7.493 7.376a.185.185 0 10.26.264l7.092-6.981-.16.748c-.003.008-.011.011-.013.019l-1.168 5.494-4.914 3.159-.001.001c-.006.004-.006.012-.011.016-.019.015-.027.035-.039.056-.004.007-.01.012-.013.019-.003.009-.014.014-.016.024v.002c-.001.006.004.013.003.019-.001.007-.008.012-.008.019 0 .019.015.031.02.048.005.017-.001.036.009.052l1.586 2.475-7.961 7.96a.186.186 0 00.131.316.184.184 0 00.131-.054l7.904-7.903 1.172 1.828c.023.035.063.04.098.053l.118.18c-.001.008-.009.013-.009.022 0 .013.012.022.014.034.002.012-.004.025 0 .036.006.015.02.023.03.036.009.011.014.021.025.03a.156.156 0 00.034.023c.004.002.005.008.01.01l.03.013.133.203c-.036.06-.048.131-.005.193l1.213 1.773-9.013 9.013a.186.186 0 00.131.316.184.184 0 00.131-.054l8.964-8.964 1.548 2.263-2.211 1.437c-.026.017-.035.046-.049.072l-.225.15c-.029.003-.059 0-.085.018l-2.243 1.534-.004.003h-.001l-.003.003-.001.001c-.005.004-.005.011-.01.015-.018.014-.025.033-.036.053-.009.016-.026.025-.03.044l-1.422 6.163c-.015.065.015.122.06.166l-.067.312c-.021.009-.044.008-.061.025l-2.963 2.963a.186.186 0 00.131.316.184.184 0 00.131-.054l2.617-2.617-.519 2.452-.733 3.404h-4.605l2.647-2.647a.185.185 0 10-.262-.262l-2.909 2.909h-5.731a.185.185 0 100 .37h10.779l-.109.507a.178.178 0 00-.071.138c0 .025.018.043.027.065l-2.274 10.562a.185.185 0 00.362.078l2.265-10.521h11.235v25.731c-.066.029-.118.081-.118.157s.052.129.118.157v1.545l-.063.063a.186.186 0 000 .262c.018.018.042.017.063.026v1.663l-.063.063a.186.186 0 000 .262c.018.018.042.017.063.026v4.28h-7.637a.185.185 0 100 .37h1.45l-1.581 1.58a.186.186 0 00.131.316.184.184 0 00.131-.054l1.842-1.842h1.491l-3.595 3.595a.186.186 0 00.131.316.184.184 0 00.131-.054l3.857-3.857h1.484l-5.364 5.253a.186.186 0 00.26.265l5.635-5.518h1.487l-5.367 5.253a.187.187 0 00-.003.262.186.186 0 00.263.003l5.255-5.143v1.379l-3.501 3.501a.186.186 0 00.131.316.184.184 0 00.131-.054l3.239-3.239v1.491l-1.485 1.486a.186.186 0 00.131.316.184.184 0 00.131-.054l1.224-1.224v9.805h-93.441v-8.119h-1.007a.178.178 0 00-.178-.178h-6.975c-.007-.001-.011-.007-.018-.007s-.011.007-.018.007h-4.656v-1.007a.185.185 0 00-.185-.185h-1.355v-24.519zm373.308-4.385v1.052h-.289c-.008 0-.013.008-.021.009-.008.001-.016-.006-.024-.003-.018.004-.025.021-.04.03-.022.012-.04.021-.055.041-.015.019-.019.039-.026.062-.005.017-.02.029-.02.047 0 .009.008.014.009.022.001.008-.005.015-.003.023l.009.037c-.003.013-.015.022-.015.037 0 .052.023.098.058.132l.01.038h-1.236v-1.526h1.643zm-3.555-1.318h-.34v-.408h.34v.408zm-155.477 43.021v-44.666h1.644v44.666h-1.644zm156.188.844v.104h-1.644v-.104h1.644zm-1.644 45.494v-1.524h1.217l-.037.111c-.003.01.004.019.002.03s-.012.018-.012.029c0 .016.013.026.017.041a.161.161 0 00.026.062c.006.008.005.021.012.029v.001c.011.011.028.009.041.017.012.008.017.022.031.027.02.007.039.01.059.01h.236c.02 0 .034-.015.052-.021v1.19h-1.644zm-325.68 61.163v-.229h1.526v.229h-1.526zM303.568 154.66v.052h-.104v-.052h.104zm1.318-48.962v-.704h.222v.296c0 .076.053.129.119.158v.25h-.341zm360.219 4.504c-.011 0-.017.01-.028.012a.16.16 0 00-.065.027.152.152 0 00-.05.044c-.006.009-.018.01-.023.02l-.118.237c-.007.014 0 .028-.003.042-.004.015-.017.025-.017.04v.83c0 .011.01.018.012.029a.164.164 0 00.025.061.161.161 0 00.045.052c.008.006.01.018.02.023l.135.067v4.085H619.63c.083-.018.15-.082.15-.17v-1.659a.185.185 0 00-.186-.185h-45.712c.083-.018.15-.082.15-.17v-1.659a.185.185 0 00-.186-.185h-50.657v-.056l.135-.067c.01-.005.011-.017.02-.023a.173.173 0 00.045-.052.147.147 0 00.025-.061c.002-.011.012-.018.012-.029v-.83c0-.016-.013-.026-.017-.04-.003-.014.004-.029-.003-.042l-.118-.237c-.005-.01-.017-.012-.023-.02a.162.162 0 00-.05-.044.16.16 0 00-.065-.027c-.01-.002-.017-.012-.028-.012h-1.008v-12.24c.001-.007.008-.011.008-.019V77.795c0-.007-.007-.012-.008-.019v-6.441h135.581v8.237c0 .098.079.178.178.178h8.237v30.451h-1.005zm-45.695 5.215h-1.783c.006-.018.022-.032.022-.052 0-.034-.02-.06-.036-.088.027.016.053.036.087.036h.119a.185.185 0 10.002-.369c.028 0 .055.007.081-.006a.185.185 0 00.082-.249l-.099-.198v-.074a.186.186 0 00-.055-.131l-.063-.064v-.042c0-.02-.016-.034-.022-.052h1.665v1.289zm-2.267-.104h.037l-.005.013c-.011-.005-.021-.011-.032-.013zm-.193-.489h-.122l-.01-.116a.207.207 0 00.052-.03.181.181 0 00.118.042h.042l.003.016a.162.162 0 00-.083.088zm.098.464c.008.003.015.008.024.01h-.048c.008-.002.016-.007.024-.01zm.213-1.061c.025.013.054.02.083.02h.042l.01.052c0 .049.02.096.055.131l.063.064v.042c0 .029.007.057.021.083l.119.237c.022.044.06.072.102.087h-.056a.185.185 0 00-.186.185c0 .034.02.06.036.088-.027-.016-.053-.036-.087-.036h-.073c.006-.018.021-.032.021-.052 0-.026-.018-.045-.028-.068.081-.02.146-.082.146-.169 0-.076-.052-.129-.118-.157v-.199a.186.186 0 00-.055-.131l-.118-.118a.183.183 0 00-.131-.054h-.042l-.064-.064c-.017-.018-.044-.018-.067-.027l.013-.013h.116l.198.099zm-45.794-.035a.185.185 0 00.131.054h.041l.247.247v.279c0 .088.067.152.15.17h-.083a.185.185 0 00-.186.185c0 .02.015.034.021.052h-.073c-.035 0-.061.02-.088.037.016-.028.037-.054.037-.088 0-.023-.017-.039-.025-.059l.005-.012c.077-.023.139-.082.139-.166 0-.023-.017-.039-.025-.059.008-.02.025-.036.025-.059v-.237a.186.186 0 00-.129-.176.185.185 0 00-.176-.127h-.16l-.064-.065c-.017-.017-.039-.023-.061-.032l.007-.007h.202l.065.063zm.029 1.113a.178.178 0 00.071-.029.22.22 0 00-.021.05c-.017-.007-.031-.019-.05-.021zm-.192-.471a.18.18 0 00-.062-.01h-.064a.187.187 0 00-.098-.103l.103-.103.047.047c.019.019.04.033.063.042v.064c0 .023.004.044.011.063zm-.003.454c.008.003.015.008.024.01h-.047c.008-.002.015-.007.023-.01zm103.22 54.66v.17c0 .103.083.186.186.186h.288v40.28h-.933v-40.28h.17a.186.186 0 00.186-.186v-.17h.103zm-255.149 49.643v-48.812h1.644v48.812h-1.644zm70.408.593l-.28-.279-.085-.172v-35.197l.365-.365h21.757l-.04.04a.189.189 0 00-.054.131v19.123l-.104-.31v-.325c0-.016-.013-.026-.017-.04-.003-.014.004-.029-.003-.043l-.116-.232c.004-.015.017-.025.017-.041a.186.186 0 00-.186-.186h-.08c-.029-.066-.081-.118-.158-.118h-.474c-.084 0-.142.061-.166.137-.03.008-.062.012-.085.036l-.118.119a.189.189 0 00-.054.131v.17h-.368c-.029-.066-.081-.118-.158-.118h-.763v-4.37h1.428c-.006.018-.021.032-.021.052 0 .023.017.039.024.059-.008.02-.024.036-.024.059 0 .084.062.143.139.166.023.077.082.139.166.139h.592a.186.186 0 00.186-.186c0-.012-.01-.019-.012-.029l.077-.076a.19.19 0 00.055-.132v-.225l.115-.693a.208.208 0 000-.061l-.115-.693v-.225c0-.022-.017-.039-.024-.059.008-.02.024-.036.024-.059a.186.186 0 00-.186-.186h-.079c-.028-.066-.081-.119-.158-.119h-.474c-.084 0-.143.062-.166.139-.077.023-.139.082-.139.166 0 .023.017.039.024.059-.008.02-.024.036-.024.059 0 .02.015.034.021.052h-1.428v-10.007a.184.184 0 00-.055-.131l-.711-.711a.184.184 0 00-.131-.055h-15.17c-.02 0-.04.004-.059.01l-.355.118c-.016.005-.03.013-.044.021l-.739.498-.237.236a.187.187 0 00-.045.072l-.355 1.067c-.003.01.004.019.002.03s-.012.018-.012.029v19.437c0 .011.01.018.012.029.002.01-.006.02-.002.03l.114.342.133.512.13.257.237.355a.184.184 0 00.052.052l.711.474c.03.021.066.031.103.031h.325l.327.109c.02.006.039.01.059.01h14.459c.02 0 .039-.004.059-.01l.38-.129.237-.118a.185.185 0 00.048-.035l.26-.266.237-.355a.178.178 0 00.031-.103v-2.777h.881c.076 0 .129-.052.158-.118h.271c-.006.018-.021.031-.021.051v.119c0 .049.02.097.055.131l.117.117c.022.022.054.027.085.036.023.077.082.139.166.139h.592a.186.186 0 00.186-.186c0-.012-.01-.019-.012-.03l.196-.196c.014-.014.012-.034.021-.051.013-.026.033-.048.033-.08v-.325l.104-.31v15.213c0 .049.02.097.055.131l.039.039H489.78zm23.283-17.369l-.098-.097-.085-.171v-.245h1.145l-.158.158a.186.186 0 00.131.317.185.185 0 00.131-.055l.039-.039v.92c-.017-.005-.034-.013-.052-.013h-.278l-.184-.183a.189.189 0 00-.131-.054h-.159l-.148-.253a.232.232 0 00-.034-.048l-.064-.064v-.042a.187.187 0 00-.055-.131zm1.106-1.145l-.039-.039a.185.185 0 10-.262.262l.039.039h-1.026v-.126l.085-.171.098-.098a.184.184 0 00.055-.131v-.074l.085-.172.194-.193.171-.086h.075c.049 0 .097-.02.131-.055l.064-.063h.16a.19.19 0 00.132-.055l.038-.039v1.001zm0-4.154l-.05-.043a.182.182 0 00-.261.021.184.184 0 00.021.261l.251.215-.251.215a.185.185 0 00.12.326.181.181 0 00.12-.045l.05-.043v1.849h-.052a.19.19 0 00-.132.055l-.063.064h-.16a.184.184 0 00-.131.055l-.064.063h-.042a.17.17 0 00-.083.021l-.236.119a.227.227 0 00-.048.033l-.237.237a.165.165 0 00-.035.048l-.118.237a.188.188 0 00-.02.083v.041l-.064.065a.212.212 0 00-.035.048l-.118.236a.188.188 0 00-.02.083v.17h-.695v-17.515l.253-.147a.183.183 0 00.086-.1h2.016v13.348zm-5.926 10.709l-.183.28-.216.217-.186.094-.326.109h-14.4l-.326-.109a.197.197 0 00-.059-.01h-.3l-.634-.422-.204-.305-.104-.199-.123-.487-.108-.326v-19.378l.332-.997.178-.182.69-.461.304-.101h15.062l.603.603v9.93h-2.54a.186.186 0 00-.186.186c0 .012.01.019.012.03l-.077.077a.184.184 0 00-.055.131v.947c0 .049.02.097.055.131l.077.077c-.002.011-.012.018-.012.03 0 .103.083.186.186.186h2.54v4.37h-.052a.186.186 0 00-.186.186c0 .012.01.019.012.03l-.195.195c-.014.014-.012.034-.021.051-.013.026-.033.048-.033.08v.525h-.289a.184.184 0 00-.131.055l-.118.118a.184.184 0 00-.055.131v.119c0 .049.02.097.055.131l.236.236a.184.184 0 00.131.055h.171v.407c0 .052.021.098.056.132l.193.195c-.002.011-.012.018-.012.029 0 .103.083.186.186.186h.052v2.718zm2.608-10.137v.16l-.012.011a.168.168 0 00-.117-.103c.006-.014.019-.023.022-.039l.119-.711a.208.208 0 000-.061l-.089-.534a.17.17 0 00.08-.116l.113.68-.113.681c-.001.005.004.009.003.015-.001.007-.006.011-.006.017zm0-1.46c-.007-.029-.014-.059-.034-.081.013-.015.014-.035.022-.053l.012.011v.123zm-.526.224c.029 0 .05-.019.075-.031l.093.556-.093.556c-.025-.012-.045-.031-.075-.031h-3.866c.006-.018.021-.032.021-.052v-.947c0-.019-.015-.034-.021-.052h3.866zm-4.216.132a.049.049 0 00-.003-.007l.003.003v.004zm0 .786v.004l-.003.003c.001-.002.003-.004.003-.007zm1.567 6.414l-.104-.103h.197v.103h-.093zm.685.51l-.103.31-.118-.118v-1.624l.118-.119.102.309v1.242zm.246.438l.116-.349a.197.197 0 00.01-.059v-1.304c0-.02-.004-.04-.01-.059l-.054-.162a.18.18 0 00.064-.135c0-.02-.015-.033-.021-.051h.508a.167.167 0 00.108.098c.003.012-.003.024.003.036l.099.198v1.453l-.099.197c-.006.012 0 .025-.003.037a.167.167 0 00-.108.098h-.613zm1.172-.205a.17.17 0 00.021-.083v-1.541a.17.17 0 00-.021-.083l-.024-.047c.009-.011.011-.026.016-.04h.553c.088 0 .151-.066.17-.148v.2c0 .02.004.04.01.059l.108.326v1.126l-.108.326a.197.197 0 00-.01.059v.081c-.019-.082-.082-.148-.17-.148h-.59l.045-.087zm.716-2.017a.172.172 0 00-.123-.129.167.167 0 00-.098-.109v-.003l.051-.051.084.084.086.17v.038zm.474 2.17v.278l-.12.12c.004-.016.018-.026.018-.043v-.325l.108-.327c.003-.01-.004-.019-.002-.03s.012-.018.012-.029v-1.185c0-.011-.01-.018-.012-.029-.002-.01.006-.02.002-.03l-.108-.327v-.325c0-.016-.013-.027-.017-.042-.003-.014.004-.028-.003-.041l-.103-.206h.017c.01.022.011.048.028.064l.097.097.085.172v.312c0 .02.004.04.01.059l.109.326v1.126l-.109.326a.156.156 0 00-.012.059zm-.474.279l-.14.14c-.011-.002-.018-.012-.03-.012h-.042l-.01-.01v-.042c0-.02-.015-.033-.021-.051h.073c.088 0 .151-.066.17-.148v.123zm1.658 14.825a.187.187 0 00-.086-.1l-.211-.104-.042-.043v-17.634h.695v.289c0 .028.007.057.02.083l.118.237c.01.018.021.034.035.049l.064.063v.041c0 .049.02.096.054.131l.098.098.104.21c.01.018.021.034.035.048l.119.119a.184.184 0 00.131.055h.16l.183.182a.184.184 0 00.131.055h.312l.096.048v1.921l-.05-.043a.183.183 0 00-.261.021.184.184 0 00.021.261l.251.215-.251.215a.185.185 0 00.12.326.181.181 0 00.12-.045l.05-.043v13.346h-2.016zm2.024-45.858v4.07c-.001.007-.008.011-.008.019v5.384h-24.466a.184.184 0 00-.131.055l-.474.475a.186.186 0 00-.055.131v35.317c0 .028.007.057.02.083l.118.237a.185.185 0 00.035.048l.354.355a.19.19 0 00.132.055h24.466v5.385c0 .007.007.012.008.019v31.091h-9.066a.177.177 0 00-.178.178v8.236H486.57v-91.138h27.607zm-45.332-4.615a.185.185 0 00.186-.185v-2.015a.182.182 0 00-.168-.178h45.314v2.489h-46.991a.178.178 0 00-.178.178v4.148c0 .099.079.178.178.178H486.2v91.138h-67.19v-45.669c.011.092.083.167.178.167h2.015a.186.186 0 00.186-.186V170.77h.289a.177.177 0 00.178-.178v-.882h46.989zm-122.19 95.693a.226.226 0 00-.143.06h-27.056v-97.301h94.567v2.43c0 .103.083.186.186.186.007 0 .012-.007.019-.008h4.773v45.669c-.011-.088-.079-.159-.17-.159h-5.096a.177.177 0 00-.178.178v48.946h-66.902zm122.004-97.708v1.645h-46.806v-1.645h46.806zM346.722 272.37c.02-.007.04-.012.058-.024h.186c-.006.018-.021.032-.021.052 0 .02.015.033.021.051h-.243v-.079zm.83.1v-.006h.014c-.005.001-.009.004-.014.006zm2.37.401a.185.185 0 00-.185-.186h-1.732c.006-.018.021-.032.021-.052v-.316c.066-.029.118-.081.118-.158a.185.185 0 00-.185-.186h-1.067v-6.096h36.858v6.096h-1.185a.186.186 0 00-.186.186c0 .076.052.129.118.158v.316c0 .02.015.034.021.052h-1.731a.186.186 0 00-.186.186v.17H349.92v-.17zm33.118-.374c-.014-.012-.034-.014-.051-.021v-.012h.103v.012c-.018.008-.038.009-.052.021zm.638-.151h.185c.018.012.038.017.058.024v.078h-.243c.006-.018.021-.031.021-.051 0-.02-.015-.033-.021-.051zm289.818-58.083c.009.001.015.01.025.01h.407v.222h-.399l-.033-.232zM468.441 90.796l.118.237c.01.018.021.035.035.049l.064.064v.913l-.064.064a.19.19 0 00-.035.049l-.118.237a.182.182 0 00-.02.083v.042l-.253.148a.185.185 0 00-.048.035l-.183.183h-.042a.175.175 0 00-.083.02l-.198.099h-.074a.175.175 0 00-.083.02l-.087.043v-3.011h.093l.064.064a.183.183 0 00.131.054h.16l.302.301c.014.014.03.026.048.035l.211.105.042.042v.042a.21.21 0 00.02.082zm-63.917 9.214a.172.172 0 00.141-.144l4.74-3.16h.063a.185.185 0 100-.37h-.019l-2.848-4.351 6.199 2.616c-.046.034-.081.08-.081.142v1.304c0 .102.083.185.186.185s.186-.083.186-.185v-1.304c0-.009-.009-.015-.01-.024l2.957 1.248v17.553h-2.947v-2.066c0-.102-.083-.185-.186-.185s-.186.083-.186.185v2.066h-8.991v-9.814l.796-3.696zm8.381-9.348a.185.185 0 00.186-.185v-1.422c0-.085-.063-.145-.141-.167l3.089-1.275v3.745h-9.073l5.791-2.39c-.016.027-.036.053-.036.087v1.422a.184.184 0 00.184.185zm5.975-4.623l-2.471 1.02v-15.36h12.429v19.659h-12.429v-3.899l2.611-1.078a.185.185 0 10-.14-.342zm.142 10.785l-2.613-1.103v-3.993h12.429v5.26l-.058-.066c-1.612 1.219-2.235 2.455-2.235 4.095s.623 2.875 2.235 4.095l.058-.066v8.474h-12.429V96.123l2.469 1.042a.185.185 0 10.144-.341zm-12.076-5.096h5.924c-.083.018-.15.082-.15.17v1.422c0 .102.083.185.186.185s.186-.083.186-.185v-1.422c0-.088-.067-.152-.15-.17h3.097v3.837l-9.093-3.837zm34.574-20.029v19.659h-2.647c.021-.029.038-.066.063-.083.043-.034.068-.059.068-.101s-.034-.067-.086-.084a3.163 3.163 0 00-.503-.126 1.82 1.82 0 01-.103.394h-2.184a5.236 5.236 0 00-.647-.89c.359-.639.572-1.102.836-1.774a.666.666 0 01.154-.269c.043-.042.068-.076.068-.109 0-.042-.035-.101-.154-.227-.119-.118-.162-.151-.213-.151a.207.207 0 00-.103.025.728.728 0 01-.188.017h-1.04c-.41 0-.589-.017-.641-.017-.06 0-.068.008-.068.067 0 .051.018.547.018 1.758v1.571h-4.941v-19.66h12.311zm-5.931 19.659h-.944v-2.925h1.246c-.273.749-.495 1.303-.922 2.093.284.333.48.601.62.832zm-1.439.37v1.682c0 1.194-.018 1.69-.018 1.732 0 .059.009.067.068.067h.393c.061 0 .068-.009.068-.067 0-.042-.018-.572-.018-1.74v-1.674h1.133c.102.253.13.467.13.69 0 .546-.35.698-1.023.656.068.084.12.202.146.328.025.168.025.168.195.159.861-.05 1.178-.513 1.178-1.126 0-.232-.026-.457-.112-.708h1.871c-.019.039-.033.078-.054.119h-.059c-.751 0-1.007-.017-1.05-.017-.06 0-.067.008-.067.059 0 .042.017.261.017 1v.731c0 1.278-.017 1.48-.017 1.522 0 .059.008.067.067.067h.367c.06 0 .067-.009.067-.067v-.336h2.773v.32c0 .059.008.067.067.067h.376c.059 0 .068-.008.068-.067 0-.042-.018-.244-.018-1.514v-.831c0-.631.018-.85.018-.892 0-.05-.01-.059-.068-.059-.052 0-.308.017-1.05.017h-1.007c.023-.04.042-.079.063-.119h2.863v6.915a1.42 1.42 0 00-.207.734c0 .292.072.54.207.766v1.415c-.25.269-.378.575-.378.964 0 .429.14.781.378 1.051v9.947h-12.311V91.728h4.944zm3.284 1.346v-.824h2.773v.824h-2.773zm2.773.395v.933h-2.773v-.933h2.773zm1.684 8.623c.131-.359.465-.642 1.076-.924l.18.076c.896.378 1.16.731 1.16 1.27 0 .681-.461 1.11-1.246 1.11-.613 0-1.028-.305-1.17-.778v-.754zm1.111-1.597c-.785-.345-1.016-.647-1.016-1.118 0-.588.436-.967 1.074-.967.648 0 1.101.387 1.101.958 0 .521-.222.875-.989 1.203l-.17-.076zm-.538.429a4.22 4.22 0 00-.573.317v-.674c.156.124.34.243.573.357zm-13.626 3.8c-1.303-1.153-1.738-2.295-1.738-3.708 0-1.413.435-2.555 1.738-3.708v7.416zm13.053 8.796v-9.64c.314.186.71.29 1.17.29 1.152 0 1.928-.63 1.928-1.673 0-.757-.332-1.244-1.322-1.689.836-.362 1.169-.782 1.169-1.455 0-.866-.733-1.488-1.774-1.488-.472 0-.87.14-1.17.367v-6.503h.853v1.598c-.409.059-.563.076-.759.076.033.176.076.37.11.487.017.076.052.109.085.109a.17.17 0 00.103-.051c.026-.025.137-.067.315-.101l.146-.025c-.009.833-.017 1.236-.017 1.27 0 .059.008.067.067.067h.393c.06 0 .068-.008.068-.067 0-.033-.017-.471-.017-1.37a23.913 23.913 0 001.91-.479c.17-.05.17-.05.17-.227 0-.101.01-.202.035-.303-.76.252-1.459.403-2.115.529v-1.286h1.065c.571 0 .733.017.784.017.061 0 .068-.008.068-.075v-.169h.881c.271.769.626 1.36 1.057 1.826-.572.479-1.322.883-2.355 1.193.104.093.18.193.239.303.077.143.094.143.247.093.965-.361 1.672-.782 2.219-1.244.554.496 1.202.849 1.928 1.177a.436.436 0 00.127.042c.043 0 .061-.042.111-.135.06-.126.137-.227.238-.328-.826-.303-1.501-.622-2.055-1.084a6.333 6.333 0 001.1-1.598c.045-.09.099-.192.152-.245h5.274v21.792h-12.428zm6.56-21.792c-.246.542-.557 1.053-1.017 1.514-.368-.396-.669-.885-.921-1.514h1.938zm.534-.37c-.109-.117-.169-.159-.237-.159a.203.203 0 00-.094.025.4.4 0 01-.171.033h-1.843c-.733 0-.963-.017-1.015-.017-.06 0-.068.009-.068.067v.049h-2.319v-.932h1.1c.562 0 .733.017.776.017.06 0 .068-.008.068-.067v-.345c0-.059-.009-.067-.068-.067-.043 0-.214.017-.776.017h-1.1v-.892c.741-.177 1.211-.328 1.739-.58.12-.059.29-.143.384-.16.068-.008.119-.034.119-.076 0-.05-.017-.076-.042-.109a2.023 2.023 0 00-.358-.361 1.988 1.988 0 01-.486.336c-.418.21-.836.362-1.424.505a3.488 3.488 0 00-.486-.135c.051.261.06.53.06 1.043v1.806h-.853V71.699h12.428v19.659h-5.334zm5.704 22.162V91.728h10.651v.289c0 .029.007.057.02.083l.118.237a.185.185 0 00.035.048l.063.064v.042c0 .049.021.097.055.131l.098.097.104.21a.19.19 0 00.035.049l.119.119a.185.185 0 00.131.054h.16l.183.183a.183.183 0 00.131.054h.312l.096.047v20.085h-12.311zM467 91.728v1.301c-.017-.005-.034-.012-.052-.012h-.278l-.184-.183a.185.185 0 00-.131-.054h-.16l-.147-.253a.218.218 0 00-.035-.049l-.064-.064v-.042a.186.186 0 00-.055-.131l-.097-.097-.085-.171v-.246H467zm-1.288-.37v-.127l.085-.171.097-.097a.186.186 0 00.055-.131v-.075l.086-.171.194-.195.171-.086h.075c.049 0 .097-.02.131-.054l.064-.064h.16c.049 0 .097-.02.131-.054l.039-.039v1.264h-1.288zm1.236-1.659a.187.187 0 00-.131.054l-.064.064h-.16a.187.187 0 00-.131.054l-.064.064h-.042a.182.182 0 00-.083.02l-.236.119a.208.208 0 00-.048.034l-.237.238a.161.161 0 00-.034.048l-.119.237a.17.17 0 00-.021.083v.042l-.063.064a.165.165 0 00-.035.048l-.118.237a.182.182 0 00-.02.083v.17h-10.651V71.699H467v18h-.052zm-61.44-4.634c.018.006.03.026.049.026.036 0 .072-.01.104-.032l2.205-1.509h.061a.185.185 0 00.186-.185c0-.063-.036-.11-.084-.143l1.344-6.273c.015-.021.034-.038.04-.065l.091-.439a.167.167 0 00.02-.097l.808-3.876.166-.775h2.221v1.948c0 .102.083.185.186.185s.186-.083.186-.185v-1.948h2.947V87.21l-9.889 4.082-2.421-3.698v-1.378l1.453-.918c.017-.011.02-.031.032-.045l.295-.188zm-2.404 1.577a.178.178 0 00.017-.04l.237-.15v.577l-.254-.387zm.253 18.788v8.09h-1.742l.049-.23c.092-.011.167-.083.167-.177 0-.062-.036-.109-.084-.143l.799-3.777.811-3.763zm9.734 34.771h1.146l-1.146 1.146v-1.146zm0 1.669l1.669-1.669h1.491l-3.161 3.161v-1.492zm5.168-1.669l-5.168 5.061v-1.377l3.684-3.684h1.484zm-5.168 5.543c.022-.009.046-.009.063-.026l5.635-5.518h1.487l-5.367 5.253a.187.187 0 00-.003.262.186.186 0 00.263.003l5.57-5.452c.053-.052.055-.125.031-.191.008-.021.025-.036.025-.06a.185.185 0 00-.186-.185h-7.519v-25.703h62.983a.185.185 0 00.186-.185v-.237a.185.185 0 00-.186-.185h-8.703V93.49c.005-.002.011-.001.016-.004l.198-.099h.074a.175.175 0 00.083-.02l.198-.099h.074a.185.185 0 00.131-.054l.217-.216.21-.105a.185.185 0 00.048-.035l.118-.119a.186.186 0 00.055-.131v-.075l.085-.171.098-.097a.19.19 0 00.055-.131v-1.067a.184.184 0 00-.055-.131l-.098-.097-.085-.17v-.075a.186.186 0 00-.055-.131l-.118-.118a.185.185 0 00-.048-.035l-.21-.105-.335-.334a.183.183 0 00-.131-.054h-.16l-.064-.064a.183.183 0 00-.131-.054h-.17v-18h8.703a.185.185 0 00.186-.185v-.178h37.917v43.237l-.412.229a.237.237 0 00.115.444c.039 0 .079-.01.115-.03l.182-.101v6.175c0 .098.079.178.178.178h4.437v41.521c-.011-.088-.079-.159-.17-.159h-51.436a.178.178 0 00-.178.178v4.148c0 .091.071.16.16.17h-45.314v-4.318a.178.178 0 00-.178-.178h-8.585v-17.086zm-107.034 8.782h-1.17v-.815h1.17v.815zm-1.541.186h-.153c.012-.014.014-.034.022-.052h.132v.052zm42.206 118.107h.599c-.006.018-.021.032-.021.052v.17h-.578v-.222zm3.2.593h30.681v.229h-30.681v-.229zm31.052.23v-.229h1.644v.229h-1.644zm2.37-.771c0-.02-.015-.034-.021-.052h.599v.222h-.577v-.17zm290.362-105.412h1.644v.815h-1.644v-.815zm1.644 1.186v.934h-1.644v-.934h1.644zm-153.225-49.791v-3.734l.051.028v3.706h-.051zm.512-3.877a.2.2 0 00-.033-.08c-.016-.027-.029-.05-.055-.069-.009-.007-.01-.021-.021-.027l-.403-.224v-4.006h.885l.048.096v.672l-.135.067c-.01.005-.011.017-.02.023a.173.173 0 00-.045.052.147.147 0 00-.025.061c-.002.011-.012.018-.012.029v6.281c0 .011.01.018.012.029a.164.164 0 00.025.061.161.161 0 00.045.052c.009.006.01.018.02.023l.135.067v.758l-.01.01h-.398v-3.845c0-.011-.011-.018-.013-.03zm.554-2.864h50.472v1.289h-50.472v-1.289zm45.747 2.014h1.62l-.039.04a.186.186 0 00-.055.131v.075l-.099.198a.17.17 0 00-.021.083v.237c0 .049.021.097.055.131l.064.064v.042c0 .049.02.096.055.131l.158.158h-1.738v-1.29zm3.06 1.186h.073a.185.185 0 00.186-.185.182.182 0 00-.168-.178.182.182 0 00.168-.178v-.355a.186.186 0 00-.055-.131l-.158-.158h44.26l-.158.158a.186.186 0 00-.055.131v.592c0 .049.02.097.055.131l.277.276h-44.425c.006-.018.022-.032.022-.052 0-.02-.016-.033-.022-.051zm42.688.829h50.354v1.289h-50.354v-1.289zm50.496 2.712l-.01-.01v-.758l.135-.067c.01-.005.011-.017.02-.023a.173.173 0 00.045-.052.161.161 0 00.025-.061c.002-.011.012-.018.012-.029v-6.281c0-.011-.01-.018-.012-.029a.164.164 0 00-.025-.061.161.161 0 00-.045-.052c-.008-.006-.01-.018-.02-.023l-.135-.067v-.672l.048-.096h.885v8.282h-.923zM304.516 154.29h-.606c-.028-.066-.081-.119-.158-.119s-.129.053-.158.119h-1.554v-.052a.186.186 0 00-.054-.131l-.064-.064v-.331h2.593v.578zm-2.948-.136c.002.011.009.021.013.032-.005.001-.009.004-.013.006v-.038zm1.066.506h.459v.052h-.289v.052h-.171v-.104zm44.088 118.752h.934v.229h-.033c-.007-.001-.011-.008-.019-.008h-.119c-.007 0-.012.007-.019.008h-.744v-.229zm36.455.23c-.007-.001-.011-.008-.019-.008h-.118c-.007 0-.012.007-.019.008h-.033v-.229h.933v.229h-.744zm290.936-60.332c-.02 0-.034.015-.052.021v-.48h.814v.48c-.018-.006-.032-.021-.052-.021h-.71zm1.134-.459h.103v.459h-.103v-.459zm.829-44.577v-.17a.185.185 0 00-.186-.185h-.17v-.341h.17a.185.185 0 00.186-.185v-.593a.185.185 0 00-.186-.185h-2.37a.185.185 0 00-.186.185v1.474h-8.585a.185.185 0 100 .37h8.585V170c0 .004.004.007.005.011l-.003.009.008.073c-.001.009-.01.015-.01.024 0 .016.013.027.017.042l.103.927c.003.027.022.045.034.067.009.015.01.033.023.045a.18.18 0 00.126.052h.052v38.384h-.052c-.025 0-.042.017-.064.026-.019.008-.038.009-.053.022-.022.018-.03.044-.041.071-.007.016-.023.026-.026.044l-.118.948c0 .004.003.007.003.011 0 .005-.005.007-.005.012v2.68c-.018-.006-.032-.021-.052-.021h-.237a.186.186 0 00-.186.186v.882h-1.467l-.244-.14c-.009-.005-.019 0-.029-.003-.031-.013-.058-.011-.092-.011-.029 0-.054-.001-.081.01-.01.004-.021-.002-.031.004l-.253.141h-4.372a.186.186 0 00-.186.186v50.775H654.2c-.007 0-.012.007-.019.008h-1.384c-.007-.001-.011-.008-.019-.008h-8.415c-.007 0-.012.007-.019.008h-1.384c-.007-.001-.011-.008-.019-.008h-8.414c-.007 0-.012.007-.019.008h-1.266c-.007-.001-.011-.008-.019-.008h-12.207c-.007 0-.012.007-.019.008h-98.883v-5.325h26.251a.186.186 0 100-.372h-26.251v-5.437h20.325a.186.186 0 100-.372h-20.325v-5.555h14.519a.186.186 0 100-.372h-14.519v-5.436h8.593a.186.186 0 100-.372h-8.593v-5.555h2.667a.186.186 0 100-.372h-2.667v-28.259a.177.177 0 00-.178-.178h-3.141v-37.254c.001-.007.008-.011.008-.019v-4.229c.019.082.082.147.17.147h2.015a.185.185 0 00.186-.185v-44.858h.763c.079 0 .133-.057.157-.127.081-.02.147-.082.147-.169 0-.076-.052-.129-.118-.157v-1.739c0-.007-.007-.012-.008-.019v-.033h.059v.645a.237.237 0 10.474 0v-.645h1.422a.185.185 0 100-.37h-.644v-.882c0-.011-.01-.018-.012-.029a.164.164 0 00-.025-.061.161.161 0 00-.045-.052c-.009-.006-.01-.018-.02-.023l-.135-.067v-3.967h45.526c-.083.018-.15.082-.15.17v1.659c0 .102.083.185.186.185h45.712c-.083.018-.15.082-.15.17v1.659c0 .102.083.185.186.185h50.414l-.01.005c-.01.005-.011.017-.02.023a.173.173 0 00-.045.052.161.161 0 00-.025.061c-.002.011-.012.018-.012.029v.948c0 .051.021.097.055.131l.117.118c.034.034.08.055.131.055h1.008v3.47c-.001.007-.008.011-.008.019 0 .102.083.185.186.185h6.569v.408c0 .102.083.185.186.185h.237a.185.185 0 00.186-.185v-.467l.016-.126h.443v.593c0 .102.083.185.186.185h.711a.185.185 0 00.186-.185v-.593h1.219a.18.18 0 00-.049.119v3.2c0 .004.004.007.005.011l-.003.009.008.074c-.001.009-.01.015-.01.024 0 .016.013.027.017.042l.103.927c.01.095.09.165.184.165l.021-.001c.013-.001.019-.013.031-.017v38.402h-.052c-.023 0-.039.017-.059.024-.021.008-.042.01-.059.025-.02.017-.027.041-.038.066-.008.017-.025.028-.027.047l-.118.948c0 .004.003.007.003.011 0 .005-.005.007-.005.012v1.474h-.105zm2.118-44.206h-.104v-.459h.104v.459zm-.526-.578c.02 0 .034-.015.052-.021v.599h-.813v-.605c.017-.008.037-.009.051-.021a.183.183 0 00.119.049h.591zm-.777-.823c-.018-.006-.032-.021-.052-.021h-.474a.183.183 0 00-.119.049v-.627h.644v.599zm-374.849 32.676c.066-.028.119-.081.119-.158v-.052h.488c-.006.018-.021.032-.021.052v.17h-.585v-.012zm44.68 119.543v-.118c0-.018-.014-.03-.019-.047.002-.005.008-.008.01-.014.003-.011-.004-.02-.002-.031.002-.01.011-.017.011-.028v-.651h.578v.94h-.599c.006-.018.021-.031.021-.051zm36.622-.889h.577v.651c0 .011.01.018.012.029.002.01-.006.02-.002.03.002.006.008.008.01.013-.005.017-.02.029-.02.047v.118c0 .02.015.034.021.052h-.599v-.94zm290.955-59.317v-1h.34v1h-.34zm3.895-45.339h-1.644v-.696h1.644v.696zm-1.643-1.067v-.934h1.644v.934h-1.644zm1.643-45.036h-.104v-.222h.104v.222zm-.712-.118h-.221v-1.052h.221v1.052zm-1.05-1.422v-.934h1.051v.934h-1.051zm1.422-.934h.933v.934h-.933v-.934zm.932-.37h-2.54v-.934h2.54v.934zm-374.27-14.696h-.244c.02-.064.018-.132-.033-.183-.05-.05-.119-.053-.183-.033v-.125h.459v.341zm-2.963-.118h-.341v-.222h.341v.222zm-2.014-.086a.172.172 0 00-.136-.136h.136v.136zm-2.949.547c.066-.028.119-.081.119-.158s-.053-.129-.119-.158v-.132h.013c.028.066.081.119.158.119h1.83v22.74h-2v-22.411zm2 22.782v24.94c0 .102.083.185.185.185h1.474v1.408h-3.778v-.013c.066-.029.118-.081.118-.157v-26.362h2.001zm-2.37 26.205a.169.169 0 00-.104.123v-26.328h.104v26.205zm-.104.547c.018.083.082.151.171.151h5.096a.18.18 0 00.118-.049.18.18 0 00.118.049h1.007v1.052h-6.511v-1.203zm50.539 119.734h.644v.103h-.644v-.103zm1.015-.711h.408a.185.185 0 00.185-.186v-.052h.341v1.051h-.934v-.813zm1.356.458c-.02 0-.034.016-.052.022v-.857c.018.006.032.022.052.022h32.473c.02 0 .034-.015.052-.021v.856c-.018-.006-.032-.021-.052-.021h-32.473zm32.896.355v-1.051h.458v.052c0 .103.083.186.186.186h.407v.813h-1.051zm1.422-.102h.644v.103h-.644v-.103zm293.021-57.97v-.813h2.421v.813h-2.421zm2.792-49.065v-44.377c0-.102-.083-.185-.186-.185s-.186.083-.186.185v44.377h-.221v-1.593c0-.011-.01-.018-.012-.029-.002-.01.006-.02.002-.03l-.115-.341-.118-.474c-.004-.018-.021-.026-.03-.041-.012-.02-.02-.038-.038-.053a.148.148 0 00-.044-.025V127.26c.052-.022.098-.058.112-.117l.205-.82c.086-.016.156-.082.156-.173 0-.076-.052-.129-.118-.157v-3.161a.185.185 0 00-.186-.185h-.526v-.578h.933v1.237c0 .102.083.185.186.185s.186-.083.186-.185v-1.858c.066-.028.119-.081.119-.158v-.83c0-.076-.053-.129-.119-.158v-.842h.577v1.119c0 .102.083.185.186.185h.645v1.237c0 .076.052.129.118.157v.317c0 .102.083.185.186.185.088 0 .151-.066.17-.147v45.761h-1.882zm1.779-48.814h.813v.341h-.813v-.341zm-.372.934h-.459v-.934h.459v.934zm.66 1.185a.185.185 0 00-.186.185v.2a.17.17 0 00-.103-.12v-.487h.288a.185.185 0 00.186-.185v-.119a.185.185 0 00-.186-.185c-.077 0-.13.053-.158.119h-.13v-.815h.813v2.304c0 .102.083.185.186.185.035 0 .061-.02.088-.037-.016.028-.037.054-.037.088v45.562h-.577v-46.51a.184.184 0 00-.184-.185zm-376.708-16.762v.171h-5.2v-1.289h3.489v1.118h1.711zm-8.4.829a.185.185 0 00-.185-.185h-.118a.185.185 0 00-.119.049c-.014-.012-.034-.014-.052-.021v-.132h.599c-.006.018-.021.032-.021.052v23.044h-.104v-22.807zm-.474 51.132v-27.955h.104v27.955h-.104zm.474 46.465v-46.095h6.03v46.095h-6.03zm6.4.049v-46.143h.111v46.221a.391.391 0 00-.111-.078zm42.897 73.778h-.35v-1.355h.417l-.067 1.355zm40.167-1.354v1.355h-.35l-.068-1.355h.418zm296.443-61.422c-.028-.016-.054-.037-.088-.037a.186.186 0 00-.186.186v2.303h-.813v-.933h.13c.028.066.081.119.158.119a.186.186 0 00.186-.186v-.119a.186.186 0 00-.186-.186h-.288v-.368a.17.17 0 00.103-.12v.2a.186.186 0 10.372 0v-46.51h.577v45.562c-.002.036.018.062.035.089z"/><path d="M663.577 167.735a.185.185 0 00-.131-.054h-.041l-.064-.064a.183.183 0 00-.131-.054h-.475a.187.187 0 00-.131.054l-.355.356a.186.186 0 00-.055.131v.592c0 .049.02.096.055.131l.063.064v.042c0 .049.021.097.055.131l.119.118a.185.185 0 00.131.054h.041l.064.064a.183.183 0 00.131.054h.237a.185.185 0 00.131-.054l.064-.065h.042c.049 0 .097-.02.131-.054l.064-.064h.042c.049 0 .097-.02.131-.054l.118-.119a.186.186 0 00.055-.131v-.711a.186.186 0 00-.055-.131l-.236-.236zm-.079 1.003l-.052.01a.187.187 0 00-.131.054l-.064.064h-.041a.185.185 0 00-.131.054l-.064.065h-.084l-.064-.064a.183.183 0 00-.131-.054h-.042l-.01-.052a.186.186 0 00-.055-.131l-.063-.064v-.439l.247-.248h.32l.064.064a.183.183 0 00.131.054h.042l.128.129v.558zm21.163 48.364h-.052v-1.829a.186.186 0 10-.372 0v2.015c0 .084.061.143.137.166l.005.013c-.008.02-.024.036-.024.059v.052h-1.118a.186.186 0 100 .372h1.304a.186.186 0 00.186-.186c0-.023-.017-.039-.024-.059.008-.02.024-.036.024-.059v-.119c0-.023-.017-.039-.024-.059l.005-.012c.077-.023.139-.082.139-.166a.186.186 0 00-.186-.188zm-1.423-97.878h1.118v.052c0 .023.017.039.025.059l-.005.013c-.076.023-.138.082-.138.165v2.015c0 .102.083.185.186.185s.186-.083.186-.185v-1.83h.052a.185.185 0 00.186-.185c0-.084-.062-.143-.139-.166l-.005-.012.005-.012c.077-.023.139-.082.139-.166s-.062-.143-.139-.166c-.023-.076-.082-.138-.166-.138h-1.304a.185.185 0 10-.001.371zm1 94.745a.186.186 0 10.372 0v-1.422a.186.186 0 10-.372 0v1.422zm0-2.844a.186.186 0 10.372 0v-1.423a.186.186 0 10-.372 0v1.423zm0-2.845a.186.186 0 10.372 0v-1.304a.186.186 0 10-.372 0v1.304zm0-2.725a.186.186 0 10.372 0v-1.422a.186.186 0 10-.372 0v1.422zm0-2.845a.186.186 0 10.372 0v-1.422a.186.186 0 10-.372 0v1.422zm0-2.726a.186.186 0 10.372 0v-1.422a.186.186 0 10-.372 0v1.422zm0-2.844a.186.186 0 10.372 0v-1.422a.186.186 0 10-.372 0v1.422zm0-2.844a.186.186 0 10.372 0v-1.423a.186.186 0 10-.372 0v1.423zm0-2.727a.186.186 0 10.372 0v-1.422a.186.186 0 10-.372 0v1.422zm0-2.843a.186.186 0 10.372 0v-1.422a.186.186 0 10-.372 0v1.422zm0-2.845a.186.186 0 10.372 0v-1.304a.186.186 0 10-.372 0v1.304zm0-2.726a.186.186 0 10.372 0v-1.422a.186.186 0 10-.372 0v1.422zm0-2.844a.186.186 0 10.372 0v-1.422a.186.186 0 10-.372 0v1.422zm0-2.726a.186.186 0 10.372 0v-1.422a.186.186 0 10-.372 0v1.422zm0-2.845a.186.186 0 10.372 0v-1.422a.186.186 0 10-.372 0v1.422zm.186-2.658a.186.186 0 00.186-.186v-1.304a.186.186 0 10-.372 0v1.304c0 .103.083.186.186.186zm0-7.363a.185.185 0 00-.186.185v1.422c0 .102.083.185.186.185s.186-.083.186-.185v-1.422a.187.187 0 00-.186-.185zm.185-2.541c0-.102-.083-.185-.186-.185s-.186.083-.186.185v1.304c0 .102.083.185.186.185s.186-.083.186-.185v-1.304zm0-2.845c0-.102-.083-.185-.186-.185s-.186.083-.186.185v1.422c0 .102.083.185.186.185s.186-.083.186-.185v-1.422zm0-2.844c0-.102-.083-.185-.186-.185s-.186.083-.186.185v1.422c0 .102.083.185.186.185s.186-.083.186-.185v-1.422zm0-2.726c0-.102-.083-.185-.186-.185s-.186.083-.186.185v1.422c0 .102.083.185.186.185s.186-.083.186-.185v-1.422zm0-2.844c0-.102-.083-.185-.186-.185s-.186.083-.186.185v1.422c0 .102.083.185.186.185s.186-.083.186-.185v-1.422zm0-2.726c0-.102-.083-.185-.186-.185s-.186.083-.186.185v1.304c0 .102.083.185.186.185s.186-.083.186-.185v-1.304zm0-2.844c0-.102-.083-.185-.186-.185s-.186.083-.186.185v1.422c0 .102.083.185.186.185s.186-.083.186-.185v-1.422zm0-2.845c0-.102-.083-.185-.186-.185s-.186.083-.186.185v1.422c0 .102.083.185.186.185s.186-.083.186-.185v-1.422zm0-2.725c0-.102-.083-.185-.186-.185s-.186.083-.186.185v1.304c0 .102.083.185.186.185s.186-.083.186-.185v-1.304zm0-2.845c0-.102-.083-.185-.186-.185s-.186.083-.186.185v1.422c0 .102.083.185.186.185s.186-.083.186-.185v-1.422zm0-2.844c0-.102-.083-.185-.186-.185s-.186.083-.186.185v1.422c0 .102.083.185.186.185s.186-.083.186-.185v-1.422zm0-2.726c0-.102-.083-.185-.186-.185s-.186.083-.186.185v1.422c0 .102.083.185.186.185s.186-.083.186-.185v-1.422zm0-2.844c0-.102-.083-.185-.186-.185s-.186.083-.186.185v1.422c0 .102.083.185.186.185s.186-.083.186-.185v-1.422zm0-2.726c0-.102-.083-.185-.186-.185s-.186.083-.186.185v1.304c0 .102.083.185.186.185s.186-.083.186-.185v-1.304zm0-2.845c0-.102-.083-.185-.186-.185s-.186.083-.186.185v1.422c0 .102.083.185.186.185s.186-.083.186-.185v-1.422zm-393.88 5.203l-.119-.119a.185.185 0 00-.131-.054h-.042l-.064-.064a.185.185 0 00-.131-.054h-.16l-.064-.064a.188.188 0 00-.262 0l-.064.064h-.16a.185.185 0 00-.185.185v.042l-.183.183a.185.185 0 00-.054.131v.592c0 .049.02.096.054.131l.355.355a.185.185 0 00.131.054h.593a.185.185 0 00.131-.054l.355-.356a.185.185 0 00.054-.131v-.16l.064-.064a.186.186 0 000-.262l-.064-.064v-.16c0-.05-.02-.096-.054-.131zm-.316.605v.16l-.247.247h-.439l-.247-.247v-.439l.183-.183a.187.187 0 00.042-.064h.064a.187.187 0 00.119-.043.183.183 0 00.119.043h.16l.064.064a.185.185 0 00.131.054h.042l.01.17c0 .043.015.085.043.119a.179.179 0 00-.044.119zm29.51.313v.042c0 .049.02.096.054.131l.119.119a.185.185 0 00.131.054h.042l.064.064a.185.185 0 00.131.054h.593a.185.185 0 00.131-.054l.119-.118a.185.185 0 00.054-.131v-.042l.183-.182a.185.185 0 00.054-.131v-.474a.189.189 0 00-.054-.131l-.355-.356a.185.185 0 00-.131-.054h-.16l-.064-.064a.188.188 0 00-.262 0l-.064.064h-.16a.189.189 0 00-.131.054l-.237.237a.185.185 0 00-.054.131v.042l-.064.064a.185.185 0 00-.054.131v.356c0 .049.02.096.054.131l.061.063zm.252-.474l.064-.064a.185.185 0 00.054-.131v-.042l.129-.129h.16a.187.187 0 00.119-.043.183.183 0 00.119.043h.16l.247.248v.32l-.183.183a.189.189 0 00-.054.131v.042l-.45.01-.064-.064a.185.185 0 00-.131-.054h-.042l-.01-.052a.189.189 0 00-.054-.131l-.064-.064v-.203zm164.676-17.225c.026 0 .052-.033.103-.109.409-.63.598-1.227.708-1.967.11-.791.128-1.228.128-2.833v-1.371h5.092c.845 0 1.127.017 1.169.017.06 0 .068-.008.068-.067v-.328c0-.059-.009-.067-.068-.067-.042 0-.324.017-1.169.017h-1.986v-.177c0-.269.016-.37.042-.429.025-.05.06-.092.06-.134 0-.042-.051-.059-.119-.067a4.62 4.62 0 00-.529-.042c.051.202.051.353.051.672v.177h-1.85c-.846 0-1.144-.017-1.187-.017-.06 0-.067.008-.067.067 0 .042.017.546.017 1.731 0 1.589-.026 2.035-.11 2.699-.104.664-.308 1.328-.717 1.875.076.05.188.134.264.252.04.068.074.101.1.101z"/><path d="M486.42 110.977a26.078 26.078 0 002.107-.589c.102.193.195.395.289.605.026.075.035.059.146.008l.196-.092c.111-.051.111-.067.076-.135-.246-.521-.502-.992-.869-1.438-.043-.051-.061-.051-.154 0l-.179.084c-.094.05-.103.059-.06.118.128.16.247.319.35.488-.512.159-.912.269-1.398.378v-1.479h1.211c.529 0 .699.017.742.017.06 0 .068-.008.068-.067 0-.042-.018-.26-.018-.807v-1.034c0-.547.018-.765.018-.808 0-.059-.009-.067-.068-.067-.043 0-.213.017-.742.017h-.196v-.186c0-.201 0-.294.042-.378.026-.059.052-.093.052-.151 0-.034-.042-.059-.11-.067a4.145 4.145 0 00-.504-.042c.043.193.051.378.051.647v.177h-.188c-.512 0-.732-.017-.784-.017-.043 0-.06.008-.06.067 0 .051.017.337.017 1.018v3.262c-.265.05-.485.084-.768.109.06.168.12.319.196.488.034.067.06.084.094.084s.076-.025.111-.059a.912.912 0 01.332-.151zm.504-4.423h1.535v.782h-1.535v-.782zm0 1.152h1.535v.833h-1.535v-.833zm5.142-1.505c.043-.042.068-.067.068-.109 0-.05-.025-.092-.153-.21-.136-.117-.179-.134-.213-.134a.16.16 0 00-.095.025c-.042.025-.067.025-.179.025h-1.134c-.461 0-.648-.017-.691-.017-.06 0-.068.009-.068.067 0 .042.018.395.018 1.253v3.077c0 .857-.018 1.186-.018 1.235 0 .051.009.059.068.059h.35c.061 0 .068-.008.068-.059 0-.042-.018-.42-.018-1.27v-3.918h1.425c-.323.749-.614 1.203-1.065 1.825 1.134.74 1.254 1.068 1.254 1.463 0 .496-.453.681-1.383.665a.657.657 0 01.137.303c.034.159.051.159.213.151 1.023-.034 1.52-.37 1.52-1.068 0-.462-.137-.95-1.187-1.605.409-.563.614-.908.946-1.564.061-.127.104-.161.137-.194zm1.198-1.101c.043 0 .316-.017 1.118-.017h2.038v4.868c0 .917-.017 1.295-.017 1.346 0 .059.009.067.067.067h.453c.06 0 .068-.009.068-.067 0-.042-.018-.429-.018-1.346v-3.085c.828.353 1.51.739 2.337 1.303.06.042.077.042.153-.067l.18-.244c.068-.092.051-.109 0-.143a13.64 13.64 0 00-2.67-1.37v-1.261h2.405c.811 0 1.075.017 1.118.017.059 0 .067-.009.067-.067v-.404c0-.059-.009-.067-.067-.067-.043 0-.308.017-1.118.017h-4.998c-.802 0-1.075-.017-1.118-.017-.059 0-.068.008-.068.067v.404c.001.057.011.066.07.066zm-56.375-14.455c-.239.05-.469.092-.674.118.043.151.102.302.162.437.025.067.06.109.094.109.033 0 .068-.025.102-.059.052-.051.12-.076.291-.126.57-.176 1.049-.336 1.629-.546.162-.059.162-.067.17-.227.009-.092.018-.176.035-.26-.504.176-.93.319-1.331.429v-1.211h.725c.367 0 .444.017.486.017.06 0 .068-.008.068-.059v-.336c0-.059-.009-.067-.068-.067-.042 0-.119.017-.486.017h-.725v-.244c0-.412.017-.597.06-.664a.213.213 0 00.034-.118c0-.034-.034-.067-.103-.076a3.987 3.987 0 00-.529-.05c.052.21.061.521.061.975v1.941zm2.132-.219c0 .353.136.462.307.521.153.059.443.075.785.075.528 0 .844-.075 1.006-.201.162-.126.273-.278.332-.74.01-.151.018-.168-.127-.219a1.013 1.013 0 01-.299-.168c-.018.479-.086.664-.188.757-.094.092-.316.143-.691.143-.222 0-.409-.017-.494-.042-.119-.033-.162-.084-.162-.319v-.681c.478-.202.955-.438 1.398-.689a.668.668 0 01.188-.067c.077-.017.103-.051.103-.084 0-.034-.009-.059-.052-.101a2.782 2.782 0 00-.332-.286c-.076.092-.17.185-.281.252-.307.202-.623.37-1.023.538v-.547c0-.403.008-.504.06-.597a.24.24 0 00.034-.126c0-.034-.034-.059-.111-.067a4.368 4.368 0 00-.503-.05c.034.151.052.437.052.849v1.849zm10.657-.976a.93.93 0 01-.299-.185c-.008.403-.043.588-.102.706-.061.101-.223.143-.436.143-.205 0-.273-.008-.316-.05-.059-.051-.084-.143-.084-.328v-.975c0-.462.017-.665.017-.715 0-.059-.009-.067-.068-.067-.043 0-.196.017-.69.017h-.674c-.512 0-.641-.017-.684-.017-.059 0-.067.008-.067.067 0 .05.017.202.017.555 0 1.151-.426 1.614-1.041 2.051a.99.99 0 01.291.202c.06.059.094.093.127.093.035 0 .068-.034.129-.084.69-.563.973-1.169.98-2.422h1.186v1.421c0 .328.051.496.223.605.102.076.272.093.596.093.385 0 .632-.042.777-.177.145-.151.195-.37.238-.731.008-.134.008-.151-.12-.202zm29.429 3.196c0-1.305-.697-2.269-2.186-2.269h-4.129v.699h4.104c1.127 0 1.605.605 1.605 1.553 0 .946-.479 1.552-1.605 1.552h-4.104v.742h4.129c1.505.001 2.186-.963 2.186-2.277zm-.117-4.778h-2.707v-1.296c0-1.459-.682-2.235-1.766-2.235-1.102 0-1.725.708-1.725 2.175v2.09h6.197v-.734zm-3.279 0h-2.329v-1.313c0-1.024.403-1.45 1.144-1.45.748 0 1.186.469 1.186 1.501v1.262zm4.636 33.382l.214-.244c-1.434-1.202-1.895-2.379-1.895-3.851s.461-2.648 1.895-3.851l-.214-.244c-1.612 1.219-2.235 2.455-2.235 4.095s.622 2.875 2.235 4.095zm4.628-1.631h-2.935c.281-.614.716-1.16 1.638-1.959 1.031-.891 1.287-1.396 1.287-2.068 0-1-.716-1.589-1.73-1.589-.955 0-1.672.563-1.852 1.631l.699.159c.111-.807.521-1.21 1.144-1.21.597 0 1.007.387 1.007 1.009 0 .538-.197.891-1.075 1.699-.93.849-1.476 1.572-1.825 2.388v.521h3.643v-.581zm1.058-.337h.93v.917h-.93zm5.051-5.238h-.973l-2.141 4.204v.521h2.473v1.429h.641v-1.429h.861v-.555h-.861v-4.17zm-.641 2.035v2.136h-1.842l1.135-2.296c.213-.429.393-.857.597-1.319h.146c-.018.546-.036.991-.036 1.479zm2.263 2.581c0 1.034.776 1.648 1.919 1.648 1.152 0 1.928-.63 1.928-1.673 0-.757-.332-1.244-1.322-1.689.836-.362 1.169-.782 1.169-1.455 0-.866-.733-1.488-1.774-1.488-1.04 0-1.748.656-1.748 1.513 0 .673.307 1.135 1.151 1.547-.922.428-1.323.874-1.323 1.597zm.845-3.144c0-.588.436-.967 1.074-.967.648 0 1.101.387 1.101.958 0 .521-.222.875-.989 1.203l-.17-.076c-.786-.345-1.016-.648-1.016-1.118zm.98 1.791l.18.076c.896.378 1.16.731 1.16 1.27 0 .681-.461 1.11-1.246 1.11-.759 0-1.236-.454-1.236-1.135 0-.565.324-.943 1.142-1.321zm5.137-.622v-.782h-.666v4.296h.684v-2.943c.324-.538.775-.849 1.177-.849.427 0 .683.252.683.874v2.917h.682v-2.943c.299-.513.742-.849 1.16-.849.452 0 .717.269.717.874v2.917h.699v-3.161c0-.782-.478-1.228-1.168-1.228-.572 0-1.066.336-1.451.866-.084-.521-.502-.866-1.092-.866-.572.002-1.025.321-1.425.877zm5.826-1.665h-1.127c.12-.168.282-.303.59-.521.408-.294.52-.429.52-.732 0-.37-.29-.588-.717-.588-.409 0-.674.21-.793.597l.384.084c.052-.227.171-.378.401-.378.213 0 .341.117.341.302 0 .177-.06.261-.418.53-.35.252-.571.471-.716.748v.27h1.535v-.312zm.975 5.986l.214.244c1.612-1.22 2.235-2.455 2.235-4.095s-.623-2.875-2.235-4.095l-.214.244c1.434 1.202 1.895 2.379 1.895 3.851-.001 1.471-.462 2.649-1.895 3.851zm-74.876-19.855c-.93.849-1.476 1.572-1.825 2.388v.521h3.643v-.58h-2.935c.281-.614.716-1.16 1.638-1.959 1.031-.891 1.287-1.396 1.287-2.068 0-1-.716-1.589-1.73-1.589-.955 0-1.672.563-1.852 1.631l.699.159c.111-.807.521-1.21 1.144-1.21.597 0 1.007.387 1.007 1.009-.001.538-.198.891-1.076 1.698zm2.876 1.993h.93v.917h-.93zm4.41.916h.641v-1.429h.861v-.555h-.861v-4.17h-.973l-2.141 4.204v.521h2.473v1.429zm-1.842-1.984l1.135-2.296c.213-.429.393-.857.597-1.319h.146c-.018.546-.035.992-.035 1.479v2.136h-1.843zm15.065-2.405c-.57 0-1.066.336-1.449.866-.086-.521-.504-.866-1.092-.866-.572 0-1.023.319-1.425.875v-.782h-.665v4.296h.682v-2.943c.324-.538.777-.849 1.178-.849.426 0 .682.252.682.874v2.917h.684v-2.943c.298-.513.741-.849 1.159-.849.452 0 .717.269.717.874v2.917h.699v-3.161c-.001-.78-.479-1.226-1.17-1.226zm.734-.79c.119-.168.281-.303.588-.521.41-.294.521-.429.521-.732 0-.37-.29-.588-.716-.588-.41 0-.674.21-.794.597l.384.084c.051-.227.171-.378.4-.378.214 0 .342.117.342.302 0 .177-.06.261-.418.53-.35.252-.571.471-.717.748v.27h1.535v-.312h-1.125zm2.144-1.959l-.214.244c1.433 1.202 1.894 2.379 1.894 3.851 0 1.471-.461 2.648-1.894 3.851l.214.244c1.611-1.22 2.234-2.455 2.234-4.095s-.622-2.876-2.234-4.095zm9.356 10.349h-.387a3.891 3.891 0 01-.969.479l.08.407c.318-.117.604-.256.82-.401v3.22h-.826v.373h2.055v-.373h-.773v-3.705zm-82.244 165.075a.186.186 0 100-.372h-33.54c-.102 0-.185.083-.185.186s.083.186.185.186h33.54zm2.37 4.724h-38.399c-.102 0-.185.083-.185.186s.083.186.185.186h38.399a.186.186 0 100-.372zm124.133-65.792a.185.185 0 00-.035-.048l-.097-.097-.106-.211a.208.208 0 00-.034-.048l-.118-.118a.184.184 0 00-.131-.055h-.83a.184.184 0 00-.131.055l-.118.118a.165.165 0 00-.035.048l-.104.21-.098.097a.243.243 0 00-.035.049l-.118.237a.188.188 0 00-.02.083v.237c0 .049.02.097.055.131l.097.097.106.211a.208.208 0 00.034.048l.235.237a.243.243 0 00.049.035l.237.118c.026.013.055.02.083.02h.355a.188.188 0 00.083-.02l.237-.118a.243.243 0 00.049-.035l.236-.236a.243.243 0 00.035-.049l.104-.211.097-.097a.184.184 0 00.055-.131v-.237a.188.188 0 00-.02-.083l-.117-.237zm-.234.481l-.063.064a.165.165 0 00-.035.048l-.104.21-.195.195-.171.085h-.268l-.171-.085-.194-.194-.106-.211a.208.208 0 00-.034-.048l-.063-.064v-.116l.085-.171.098-.097a.243.243 0 00.035-.049l.104-.211.043-.042h.676l.149.253a.208.208 0 00.034.048l.097.097.085.172v.116z"/><path d="M509.875 209.008a.173.173 0 00-.052-.045c-.012-.008-.018-.023-.032-.028-.01-.003-.02.004-.03.002-.011-.002-.018-.012-.029-.012-.016 0-.026.013-.041.017a.16.16 0 00-.06.025.163.163 0 00-.047.054c-.008.012-.023.017-.027.031l-.107.331-.106.21-.076.076-.406.204h-17.824l-.302-.1-.21-.104-.076-.076-.085-.171v-.312c0-.077-.053-.13-.119-.158v-23.587l.162-.162.186-.095.326-.108h18.075l.301.098.183.093.08.156.118.355a.186.186 0 00.235.117.185.185 0 00.117-.234l-.128-.38-.118-.236a.193.193 0 00-.083-.082l-.262-.13-.355-.118c-.01-.003-.019.004-.03.002s-.018-.012-.029-.012h-18.133c-.011 0-.018.01-.029.012-.01.002-.019-.005-.03-.002l-.38.129-.237.119a.182.182 0 00-.048.034l-.237.236a.184.184 0 00-.055.131v33.659a.17.17 0 00.021.083l.119.236c.009.018.02.034.034.048l.236.237c.014.014.03.026.048.035l.237.118c.026.013.055.02.083.02h18.606a.188.188 0 00.083-.02l.237-.118a.193.193 0 00.082-.083l.238-.474a.188.188 0 00.02-.083v-9.837c0-.016-.013-.026-.017-.041-.007-.022-.012-.041-.027-.06zm-.328 9.895l-.189.379-.144.071h-18.519l-.172-.085-.193-.194-.086-.171v-8.99l.038.038a.243.243 0 00.049.035l.262.128.355.119c.02.006.039.01.059.01h17.896a.176.176 0 00.083-.021l.475-.236a.243.243 0 00.049-.035l.038-.038v8.99z"/><path d="M505.049 201.703l-.129-.38-.236-.474a.193.193 0 00-.083-.082l-.211-.106-.215-.215a.182.182 0 00-.048-.034l-.237-.119a.17.17 0 00-.083-.021h-.312l-.198-.099c-.018-.008-.036-.001-.055-.003-.029-.005-.057-.016-.087-.006l-.327.108h-.207a.17.17 0 00-.083.021l-.256.13-.384.26-.356.356a.212.212 0 00-.035.048l-.128.261-.118.355a.197.197 0 00-.01.059v.83c0 .028.007.057.02.083l.108.213.118.355a.176.176 0 00.045.072l.385.379.375.247.236.119a.17.17 0 00.083.021h1.186a.17.17 0 00.083-.021l.237-.119a.208.208 0 00.048-.034l.215-.215.211-.106a.193.193 0 00.083-.082l.128-.261.109-.331.236-.475a.17.17 0 00.021-.083v-.355a.17.17 0 00-.021-.083l-.108-.213zm-.242.608l-.228.46-.109.331-.09.182-.183.092a.208.208 0 00-.048.034l-.215.215-.172.086h-1.098l-.178-.088-.327-.213-.326-.325-.113-.338-.099-.198v-.757l.099-.302.104-.21.307-.311.336-.227.197-.099h.193c.02 0 .04-.004.059-.01l.282-.094.169.084c.026.013.055.02.083.02h.312l.172.086.215.215c.014.014.03.025.048.034l.182.092.2.395.129.38.099.198v.268zm-91.902-91.976a.185.185 0 00.186-.185v-1.422c0-.102-.083-.185-.186-.185s-.186.083-.186.185v1.422a.187.187 0 00.186.185zm0-2.844a.185.185 0 00.186-.185v-1.422c0-.102-.083-.185-.186-.185s-.186.083-.186.185v1.422a.187.187 0 00.186.185zm0-2.845a.185.185 0 00.186-.185v-1.422c0-.102-.083-.185-.186-.185s-.186.083-.186.185v1.422a.187.187 0 00.186.185zm0-2.726a.185.185 0 00.186-.185v-1.422c0-.102-.083-.185-.186-.185s-.186.083-.186.185v1.422a.187.187 0 00.186.185zm0-2.844a.185.185 0 00.186-.185v-1.422c0-.102-.083-.185-.186-.185s-.186.083-.186.185v1.422a.187.187 0 00.186.185zm0-11.14a.185.185 0 00.186-.185v-1.422c0-.102-.083-.185-.186-.185s-.186.083-.186.185v1.422a.187.187 0 00.186.185zm0-2.845a.185.185 0 00.186-.185v-1.422c0-.102-.083-.185-.186-.185s-.186.083-.186.185v1.422a.187.187 0 00.186.185zm0-2.844a.185.185 0 00.186-.185v-1.303c0-.102-.083-.185-.186-.185s-.186.083-.186.185v1.303a.187.187 0 00.186.185zm0-2.726a.185.185 0 00.186-.185v-1.422c0-.102-.083-.185-.186-.185s-.186.083-.186.185v1.422a.187.187 0 00.186.185zm0-2.844a.185.185 0 00.186-.185V75.07c0-.102-.083-.185-.186-.185s-.186.083-.186.185v1.422a.187.187 0 00.186.185zm-24.609 36.251h-7.417l1.817-1.817 5.926-5.926a.185.185 0 10-.262-.262l-5.926 5.926-2.133 2.133a.186.186 0 00.131.316.184.184 0 00.131-.054l.066-.066c.028.067.081.12.159.12h8.414a.185.185 0 100-.37h-.382l2.883-2.884 5.926-5.925a.185.185 0 10-.262-.262l-5.926 5.925-3.145 3.146zm1.013-8.692c.036.036.083.054.131.054s.095-.018.131-.054l5.926-5.926a.185.185 0 10-.262-.262l-5.926 5.926a.184.184 0 000 .262zm-15.147 7.469l6.045-5.926a.185.185 0 00.002-.262.185.185 0 00-.262-.003l-6.045 5.926-.001.001-1.486 1.486h-1.464a.185.185 0 000 .37h8.414a.185.185 0 100-.37h-6.427l1.224-1.222zm6.732-6.876c.036.036.083.054.131.054s.095-.018.131-.054l5.926-5.926a.185.185 0 10-.262-.262l-5.926 5.926a.184.184 0 000 .262zm12.799-13.18l-5.926 5.926a.186.186 0 00.131.316.184.184 0 00.131-.054l5.926-5.926a.185.185 0 10-.262-.262zm1.068-.686c.036.036.083.054.131.054s.095-.018.131-.054l5.926-5.926a.185.185 0 10-.262-.262l-5.926 5.926a.184.184 0 000 .262zm-22.637 14.696c.036.036.083.054.131.054s.095-.018.131-.054l5.926-5.926a.185.185 0 10-.262-.262l-5.926 5.926a.186.186 0 000 .262zm12.8-13.062l-5.926 5.926a.186.186 0 00.131.316.184.184 0 00.131-.054l5.926-5.926a.185.185 0 10-.262-.262zm1.066-.805c.036.036.083.054.131.054s.095-.018.131-.054l5.926-5.926a.185.185 0 10-.262-.262l-5.926 5.926a.186.186 0 000 .262zm7.005-6.819a.184.184 0 00.131-.054l5.926-5.926a.185.185 0 10-.262-.262l-5.926 5.926a.186.186 0 00.131.316zm-28.811 20.686c.036.036.083.054.131.054s.095-.018.131-.054l5.925-5.926a.185.185 0 10-.262-.262l-5.925 5.926a.184.184 0 000 .262zm12.799-13.062l-5.926 5.926a.186.186 0 00.131.316.184.184 0 00.131-.054l5.926-5.926a.185.185 0 10-.262-.262zm1.067-.805c.036.036.083.054.131.054s.095-.018.131-.054l5.926-5.926a.185.185 0 10-.262-.262l-5.926 5.926a.186.186 0 000 .262zm7.005-6.819a.184.184 0 00.131-.054l5.926-5.926a.185.185 0 10-.262-.262l-5.926 5.926a.186.186 0 00.131.316zm-28.812 20.686c.036.036.083.054.131.054s.095-.018.131-.054l5.926-5.926a.185.185 0 10-.262-.262l-5.926 5.926a.184.184 0 000 .262zm12.918-13.062l-5.926 5.926a.186.186 0 00.131.316.184.184 0 00.131-.054l5.926-5.926a.185.185 0 10-.262-.262zm.948-.805c.036.036.083.054.131.054s.095-.018.131-.054l5.926-5.926a.185.185 0 10-.262-.262l-5.926 5.926a.186.186 0 000 .262zm7.005-6.819a.186.186 0 00.13-.053l6.044-5.926a.185.185 0 10-.26-.264l-6.044 5.926a.185.185 0 00.13.317zm-35.432 27.681c.003-.002.007-.001.009-.004l5.926-6.044a.185.185 0 10-.264-.26l-5.921 6.04-.702.585a.184.184 0 00.119.327.185.185 0 00.119-.043l.711-.593c.001-.002.001-.006.003-.008zm6.62-6.995c.036.036.083.054.131.054s.095-.018.131-.054l5.926-5.926a.185.185 0 10-.262-.262l-5.926 5.926a.186.186 0 000 .262zm12.919-13.062l-5.926 5.926a.186.186 0 00.131.316.184.184 0 00.131-.054l5.926-5.926a.185.185 0 10-.262-.262zm.947-.805c.036.036.083.054.131.054s.095-.018.131-.054l5.926-5.926a.185.185 0 10-.262-.262l-5.926 5.926a.186.186 0 000 .262zm7.124-6.819a.186.186 0 00.131-.054l5.926-5.926a.185.185 0 10-.262-.262l-5.926 5.926a.186.186 0 00.131.316zm-22.623 14.499a.185.185 0 00-.262-.002l-6.044 5.926a.186.186 0 00-.003.262.186.186 0 00.262.002l6.044-5.926a.184.184 0 00.003-.262zm6.611-6.875l-5.926 5.926a.186.186 0 00.131.316.184.184 0 00.131-.054l5.926-5.926a.185.185 0 10-.262-.262zm.948-.805c.036.036.083.054.131.054s.095-.018.131-.054l5.926-5.926a.185.185 0 10-.262-.262l-5.926 5.926a.186.186 0 000 .262zm7.124-6.819a.186.186 0 00.131-.054l5.926-5.926a.185.185 0 10-.262-.262l-5.926 5.926a.186.186 0 00.131.316zm-22.886 14.498l-5.926 5.926a.186.186 0 00.131.316.184.184 0 00.131-.054l5.926-5.926a.185.185 0 10-.262-.262zm.948-.686c.036.036.083.054.131.054s.095-.018.131-.054l5.926-5.926a.185.185 0 10-.262-.262l-5.926 5.926a.184.184 0 000 .262zm6.992-6.993c.036.036.083.054.131.054s.095-.018.131-.054l5.926-5.926a.185.185 0 10-.262-.262l-5.926 5.926a.186.186 0 000 .262zm7.005-6.819a.186.186 0 00.131-.054l5.926-5.926a.185.185 0 10-.262-.262l-5.926 5.926a.186.186 0 00.131.316zm-18.002 9.876a.186.186 0 00-.262 0l-5.926 5.926a.186.186 0 00.131.316.184.184 0 00.131-.054l5.926-5.926a.186.186 0 000-.262zm.687-.685a.184.184 0 00.262-.003l5.926-6.044a.187.187 0 00-.002-.262.186.186 0 00-.262.002l-5.926 6.044a.186.186 0 00.002.263zm7.123-6.939a.186.186 0 00.131-.054l5.926-5.926a.185.185 0 10-.262-.262l-5.926 5.926a.186.186 0 00.131.316zm-8.284.158a.186.186 0 00-.262 0l-5.926 5.926a.186.186 0 00.131.316.184.184 0 00.131-.054l5.926-5.926a.186.186 0 000-.262zm.817-.633a.186.186 0 00.131-.054l5.926-5.926a.185.185 0 10-.262-.262l-5.926 5.926a.186.186 0 00.131.316zm-1.291-6.715a.186.186 0 00-.262 0l-5.926 5.926a.186.186 0 00.131.316.184.184 0 00.131-.054l5.926-5.926a.186.186 0 000-.262zm-2.738 33.263h8.415a.185.185 0 000-.37h-6.719l.319-.266c.003-.002.002-.006.004-.008.003-.002.007-.001.009-.004l5.926-6.044a.185.185 0 10-.264-.26l-5.921 6.04-.65.542h-1.118a.185.185 0 00-.001.37zm18.251-.37h-.674l.319-.266c.003-.002.002-.006.004-.008.003-.002.007-.001.009-.004l5.926-6.044a.185.185 0 10-.264-.26l-5.921 6.039-.651.542h-7.162a.185.185 0 000 .37h8.415c.102 0 .185-.083.185-.185s-.084-.184-.186-.184zm9.837 0h-2.635l.277-.277 6.044-6.044a.185.185 0 10-.262-.262l-6.044 6.044-.538.539h-5.257a.185.185 0 000 .37h8.415a.185.185 0 000-.37zm9.718 0h-4.467l.319-.266c.003-.002.002-.006.004-.008.003-.002.007-.001.009-.004l5.926-6.044a.185.185 0 10-.264-.26l-5.921 6.04-.65.542h-3.37a.185.185 0 000 .37h8.415a.185.185 0 10-.001-.37zm-194.911 165.43a.185.185 0 00-.035-.048l-.097-.097-.105-.211a.185.185 0 00-.035-.048l-.215-.216-.105-.211a.185.185 0 00-.035-.048l-.119-.118a.165.165 0 00-.048-.035l-.209-.104-.097-.098a.186.186 0 00-.131-.055h-.193l-.198-.099a.182.182 0 00-.083-.02h-1.185a.185.185 0 00-.083.02l-.475.238a.182.182 0 00-.048.034l-.216.215-.21.106a.182.182 0 00-.048.034l-.119.118a.185.185 0 00-.035.048l-.105.211-.097.097a.185.185 0 00-.035.048l-.119.237a.188.188 0 00-.02.083v.074l-.099.198a.188.188 0 00-.02.083v1.066c0 .049.019.096.054.131l.064.064v.16c0 .028.006.057.02.083l.119.237a.185.185 0 00.035.048l.097.097.105.211a.232.232 0 00.034.048l.119.119a.19.19 0 00.049.035l.21.104.215.216a.218.218 0 00.049.035l.237.118c.025.013.054.02.083.02h.161l.064.063a.186.186 0 00.131.055h1.066a.185.185 0 00.083-.02l.435-.217h.075a.17.17 0 00.083-.021l.237-.119a.182.182 0 00.048-.034l.119-.118a.185.185 0 00.035-.048l.105-.211.097-.097a.185.185 0 00.035-.048l.105-.21.098-.098a.185.185 0 00.035-.048l.105-.211.097-.097a.183.183 0 00.054-.131v-1.304a.175.175 0 00-.02-.083l-.119-.231zm-.232 1.547l-.064.064a.185.185 0 00-.035.048l-.105.211-.097.097a.185.185 0 00-.035.048l-.105.211-.097.097a.185.185 0 00-.035.048l-.105.21-.077.076-.171.086h-.075a.185.185 0 00-.083.02l-.435.217h-.946l-.064-.063a.186.186 0 00-.131-.055h-.194l-.17-.085-.216-.216a.165.165 0 00-.048-.035l-.21-.104-.076-.076-.105-.211a.185.185 0 00-.035-.048l-.098-.098-.085-.171v-.192a.185.185 0 00-.054-.131l-.064-.064v-.946l.099-.198a.188.188 0 00.02-.083v-.074l.085-.171.098-.098a.185.185 0 00.035-.048l.105-.211.076-.075.21-.106a.208.208 0 00.048-.034l.216-.215.408-.204h1.098l.198.099c.025.013.054.02.083.02h.16l.064.064a.218.218 0 00.049.035l.21.104.076.076.105.21a.2.2 0 00.034.048l.216.217.105.21a.185.185 0 00.035.048l.097.097.086.172v1.179zm494.461-1.27v-.193a.184.184 0 00-.055-.131l-.097-.097-.106-.211a.208.208 0 00-.034-.048l-.215-.216-.106-.211a.193.193 0 00-.082-.083l-.21-.104-.098-.098a.195.195 0 00-.048-.033l-.236-.119a.17.17 0 00-.083-.021h-.075l-.198-.099a.188.188 0 00-.083-.02h-1.303a.189.189 0 00-.131.054l-.098.098-.211.106a.208.208 0 00-.048.034l-.097.097-.211.104a.243.243 0 00-.049.035l-.235.237a.182.182 0 00-.034.048l-.106.211-.097.097a.165.165 0 00-.035.048l-.104.21-.098.097a.19.19 0 00-.055.132v.193l-.099.198a.188.188 0 00-.02.083v.593c0 .028.007.057.02.083l.099.197v.075a.17.17 0 00.021.083l.236.474a.185.185 0 00.035.048l.097.097.106.211c.009.018.02.033.033.048l.237.237c.014.015.03.026.048.035l.21.104.097.098a.243.243 0 00.049.035l.237.118c.026.013.055.02.083.02h.075l.197.099c.026.013.055.02.083.02h1.066a.188.188 0 00.083-.02l.237-.118a.232.232 0 00.048-.034l.064-.064h.16c.049 0 .097-.02.131-.055l.098-.098.21-.104a.193.193 0 00.082-.083l.106-.211.097-.097a.165.165 0 00.035-.048l.104-.21.098-.097a.243.243 0 00.035-.049l.118-.237a.188.188 0 00.02-.083v-.074l.099-.198a.17.17 0 00.021-.083v-.83a.17.17 0 00-.021-.083l-.097-.197zm-.252 1.066l-.099.198a.17.17 0 00-.021.083v.074l-.085.171-.098.097a.243.243 0 00-.035.049l-.104.211-.097.097a.182.182 0 00-.034.048l-.092.183-.182.09a.212.212 0 00-.048.035l-.065.064h-.159a.189.189 0 00-.131.054l-.098.098-.172.085h-.979l-.197-.099a.188.188 0 00-.083-.02h-.075l-.171-.085-.097-.098a.243.243 0 00-.049-.035l-.211-.104-.193-.194-.106-.211a.208.208 0 00-.034-.048l-.097-.097-.204-.408v-.075a.188.188 0 00-.02-.083l-.099-.197v-.505l.099-.198a.188.188 0 00.02-.083v-.16l.064-.063a.209.209 0 00.035-.049l.104-.211.097-.097a.182.182 0 00.034-.048l.106-.211.194-.194.21-.104a.185.185 0 00.048-.035l.097-.097.211-.106a.227.227 0 00.048-.033l.064-.064h1.183l.198.099c.026.013.055.02.083.02h.075l.171.086.098.098a.2.2 0 00.048.034l.182.09.092.183c.009.018.02.033.033.048l.216.216.106.211a.208.208 0 00.034.048l.063.064v.16a.17.17 0 00.021.083l.099.197v.738zM584.415 95.79c-.052-.025-.11-.042-.153-.017s-.077.059-.205.067l-1.117.042c.068-.185.119-.353.196-.572.051-.143.103-.311.171-.37.059-.059.059-.151-.01-.185-.127-.084-.366-.16-.57-.219-.035.294-.104.597-.239 1.051-.256.833-.7 1.774-1.254 2.489.146.042.324.101.409.168.051.033.103.033.145-.034.393-.521.709-1.126.998-1.858l1.348-.059c-.221 1.085-.512 1.934-.887 2.683a8.172 8.172 0 01-1.672 2.261c.146.025.367.101.443.177.068.059.111.067.171.008a8.448 8.448 0 001.526-2.169c.351-.689.691-1.64.931-2.666.042-.168.077-.26.136-.328.043-.059.052-.143-.025-.219a1.89 1.89 0 00-.342-.25zm4.395.008c0-.101-.017-.101-.068-.101-.333 0-.665.008-.888.008h-.997c-.265 0-.589 0-.879-.008-.052 0-.068 0-.068.093.009.445.009.883.009 1.336v1.976c0 .571 0 .899-.009 1.513 0 .092 0 .109.06.109.052.008.358.008.41 0 .06 0 .06-.017.06-.109v-.605h1.833v.513c0 .101.01.117.061.117.06.009.367.009.418 0 .06 0 .06-.025.06-.126-.009-.445-.009-.874-.009-1.421v-1.95c-.002-.47-.002-.933.007-1.345zm-.539 3.742h-1.833v-3.355h1.833v3.355zm4.907-1.791c-.375.025-.674.025-.998.025h-1.578c-.366 0-.647-.017-.955-.059 0 .151.009.345.043.53.018.075.06.109.103.109.06 0 .204-.059.597-.059h1.809c.307 0 .614-.008.98.009.052 0 .086-.009.086-.101a2.717 2.717 0 000-.361c-.001-.085-.036-.093-.087-.093zm3.943-1.48c-.052-.025-.094-.025-.146.034-.051.05-.119.101-.315.185l-1.236.53V95.79c0-.328 0-.488.051-.597.043-.084.043-.176-.043-.21a3.534 3.534 0 00-.588-.117c.042.361.051.613.051.992v1.362l-.375.151c-.375.151-.572.219-.828.261.043.193.111.354.154.463.033.075.094.075.153.025.171-.101.265-.134.537-.261l.358-.16v2.018c0 .95.264 1.236 1.254 1.236.469 0 .785-.034 1.074-.084.061-.017.077-.034.077-.143 0-.101-.017-.202-.034-.32-.008-.075-.043-.084-.094-.067a4.127 4.127 0 01-1.023.126c-.58 0-.725-.16-.725-.841v-2.135l1.449-.614c-.179.673-.469 1.388-.869 1.9.127.025.332.084.418.143.051.025.085.034.136-.042.315-.479.606-1.177.794-1.791.051-.151.076-.252.136-.328.052-.076.095-.135.017-.21a1.485 1.485 0 00-.383-.278zm1.588-2.211c-.018-.025-.043-.025-.068-.008l-.222.143c.222.227.444.521.605.815.017.025.043.034.068.009l.196-.118c.025-.025.043-.05.018-.084a3.352 3.352 0 00-.597-.757zm-.529.344c-.017-.017-.025-.017-.051-.008l-.256.151c.248.227.443.513.598.824.017.025.033.034.068.009l.213-.135c.025-.017.043-.042.017-.076-.163-.285-.367-.571-.589-.765zm5.171 3.826a7.16 7.16 0 00-.46-1.186c-.043-.05-.061-.042-.104-.017-.068.034-.281.109-.357.168.213.378.341.799.469 1.236.018.067.043.076.094.059.068-.025.273-.092.342-.143.032-.025.024-.067.016-.117zm.622-.134c.086-.025.266-.076.35-.118.035-.017.035-.059.018-.126a5.408 5.408 0 00-.409-1.169c-.026-.042-.052-.059-.094-.033-.077.033-.272.101-.358.143.153.37.307.808.418 1.262.006.049.041.049.075.041zm1.134-1.337a3.82 3.82 0 01-.102.689c-.154.765-.35 1.387-.657 2.009-.358.706-.784 1.287-1.296 1.757.119.042.323.143.392.21.042.034.085.034.146-.034.426-.412.818-.958 1.177-1.648.308-.622.528-1.312.733-2.136.06-.252.094-.37.153-.454.06-.076.06-.134-.017-.185-.111-.074-.366-.15-.529-.208zm3.09.252v-1.581c0-.471.025-.597.068-.681.043-.101.043-.177-.034-.21-.128-.042-.47-.067-.632-.076.035.269.052.572.052 1.051v4.254c0 .496-.009.992-.026 1.547 0 .101.018.126.095.126.085.009.323.009.409 0 .076 0 .094-.025.086-.117-.018-.547-.018-1.018-.018-1.556V97.58c.494.244.989.555 1.586 1.051.068.059.111.067.154-.009.06-.109.111-.219.162-.336.025-.059.017-.101-.035-.144a10.082 10.082 0 00-1.867-1.133zM73.646 121.492c-.219-.351-.503-.625-.854-.823s-.752-.298-1.203-.298c-.98 0-1.763.365-2.348 1.094-.585.729-.878 1.729-.878 3.001 0 1.103.297 2.007.892 2.711s1.327 1.056 2.198 1.056c.529 0 .971-.1 1.326-.301.355-.2.672-.521.95-.964V128h1.894v-10.062h-1.976v3.554zm-.376 4.485c-.287.41-.707.615-1.258.615s-.961-.207-1.23-.622c-.273-.41-.41-.959-.41-1.647 0-.638.133-1.172.4-1.603s.685-.646 1.254-.646c.374 0 .702.119.984.355.46.392.69 1.044.69 1.955.001.652-.143 1.182-.43 1.593zm10.534-2.639a3.757 3.757 0 00-.567-1.538c-.324-.501-.734-.868-1.23-1.101s-1.055-.349-1.675-.349c-1.043 0-1.893.344-2.546 1.032-.654.688-.981 1.677-.981 2.967 0 1.376.362 2.37 1.087 2.98a3.778 3.778 0 002.509.916c1.148 0 2.042-.362 2.68-1.087.41-.456.64-.904.69-1.347h-1.989c-.105.219-.226.39-.362.513-.25.228-.577.342-.978.342-.378 0-.702-.093-.971-.28-.442-.301-.677-.825-.704-1.572h5.1c.008-.642-.013-1.134-.063-1.476zm-4.99.191c.064-.483.22-.866.468-1.148.249-.282.598-.424 1.049-.424.415 0 .762.134 1.042.4s.437.657.468 1.172h-3.027zm8.565-4.99h-1.928v2.078h-1.039v1.388h1.039v4.587c0 .465.109.809.328 1.032.337.351.966.511 1.887.479l.923-.034v-1.456a6.028 6.028 0 01-.383.014c-.396 0-.633-.037-.711-.112s-.116-.266-.116-.571v-3.938h1.21v-1.388h-1.21v-2.079zm8.532 8.429a33.27 33.27 0 01-.014-.861v-3.418c0-.897-.317-1.508-.95-1.832-.633-.323-1.358-.485-2.174-.485-1.253 0-2.137.328-2.652.984-.324.419-.506.955-.547 1.606h1.88c.045-.287.137-.515.273-.684.191-.228.517-.342.978-.342.41 0 .721.059.933.175s.318.327.318.632c0 .251-.139.436-.417.554-.155.068-.413.125-.772.171l-.663.082c-.752.096-1.322.255-1.709.479-.707.41-1.06 1.073-1.06 1.989 0 .707.22 1.252.66 1.638.44.385.997.577 1.671.577.529 0 1.002-.121 1.422-.362.351-.205.661-.453.93-.745.014.169.032.319.055.451s.064.273.123.424h2.119v-.287a.695.695 0 01-.287-.226c-.065-.092-.104-.265-.117-.52zm-1.962-1.866c-.014.652-.197 1.101-.55 1.347s-.739.369-1.159.369c-.264 0-.488-.075-.67-.226-.187-.146-.28-.385-.28-.718 0-.374.15-.649.451-.827.178-.104.472-.193.882-.267l.438-.082c.219-.041.391-.085.516-.133s.25-.111.373-.188v.725zm3.705-4.553h1.976V128h-1.976zm0-2.687h1.976v1.798h-1.976zm3.903.062h1.948V128h-1.948zm598.103 14.274a2.367 2.367 0 00-.855-.824 2.406 2.406 0 00-1.203-.297c-.979 0-1.762.364-2.348 1.094-.586.729-.879 1.729-.879 3.001 0 1.103.298 2.006.893 2.71s1.327 1.057 2.197 1.057c.529 0 .971-.101 1.326-.301.355-.201.673-.522.951-.964v1.032h1.893v-10.062h-1.975v3.554zm-.377 4.485c-.287.41-.706.615-1.258.615-.551 0-.961-.208-1.23-.622-.273-.41-.41-.959-.41-1.647 0-.638.134-1.173.4-1.604s.685-.646 1.254-.646c.374 0 .702.118.984.355.461.392.691 1.043.691 1.955.001.652-.144 1.183-.431 1.594zm10.535-2.639a3.758 3.758 0 00-.568-1.538 2.935 2.935 0 00-1.23-1.101 3.908 3.908 0 00-1.674-.349c-1.044 0-1.893.344-2.547 1.032-.654.688-.98 1.677-.98 2.967 0 1.376.361 2.37 1.086 2.98.725.61 1.562.916 2.51.916 1.148 0 2.041-.362 2.68-1.087.41-.456.64-.905.689-1.347h-1.988c-.105.219-.227.39-.363.513-.25.228-.576.342-.977.342-.379 0-.702-.094-.971-.28-.442-.301-.678-.825-.705-1.572h5.1c.009-.642-.012-1.134-.062-1.476zm-4.99.191c.063-.483.219-.866.468-1.148.249-.283.599-.424 1.05-.424.414 0 .762.133 1.042.399s.437.658.468 1.173h-3.028zm8.565-4.99h-1.928v2.078h-1.039v1.388h1.039v4.587c0 .465.109.809.328 1.032.338.351.967.51 1.887.479l.924-.034v-1.456a6.052 6.052 0 01-.195.01c-.066.002-.129.004-.188.004-.396 0-.634-.038-.711-.113-.078-.075-.117-.265-.117-.57v-3.938h1.211v-1.388h-1.211v-2.079zm8.531 8.429a33.339 33.339 0 01-.014-.861v-3.418c0-.898-.316-1.509-.949-1.832-.634-.324-1.358-.485-2.174-.485-1.254 0-2.138.328-2.652.984-.324.419-.506.955-.547 1.606h1.879c.046-.287.137-.515.273-.684.191-.228.518-.342.979-.342.41 0 .721.058.933.174s.317.327.317.633c0 .25-.139.435-.416.554-.155.068-.413.125-.773.171l-.662.082c-.752.096-1.322.255-1.709.479-.707.41-1.061 1.073-1.061 1.989 0 .706.221 1.252.66 1.637.439.385.997.578 1.672.578.528 0 1.002-.121 1.422-.362.351-.205.66-.454.93-.745.014.168.031.319.055.451.022.132.063.273.123.424h2.119v-.287a.698.698 0 01-.287-.226c-.065-.092-.104-.265-.118-.52zm-1.961-1.866c-.014.651-.197 1.101-.551 1.347s-.739.369-1.158.369c-.265 0-.488-.075-.67-.226-.188-.146-.281-.385-.281-.718 0-.374.15-.649.451-.827.178-.105.473-.194.883-.267l.438-.082c.219-.041.391-.086.516-.134s.25-.11.373-.188v.726zm3.705-7.24h1.975v1.798h-1.975zm0 2.687h1.975v7.451h-1.975zm3.902-2.625h1.949v10.076h-1.949zM484.232 46.556c.528 0 .971-.101 1.326-.301.355-.201.672-.522.949-.964v1.032h1.895V36.261h-1.977v3.555a2.364 2.364 0 00-.854-.824 2.408 2.408 0 00-1.203-.297c-.98 0-1.764.364-2.349 1.094-.585.729-.878 1.729-.878 3.001 0 1.103.297 2.006.892 2.71s1.328 1.056 2.199 1.056zm-.68-5.514c.267-.431.685-.646 1.255-.646.373 0 .701.118.984.355.46.392.689 1.043.689 1.955 0 .651-.143 1.183-.43 1.593s-.707.615-1.258.615c-.552 0-.962-.208-1.23-.622-.273-.41-.41-.959-.41-1.647 0-.638.133-1.172.4-1.603zm9.628 5.527c1.148 0 2.042-.362 2.68-1.087.41-.456.641-.905.691-1.347h-1.99c-.104.219-.225.39-.361.513-.251.228-.577.342-.979.342-.378 0-.701-.094-.971-.28-.441-.301-.676-.825-.703-1.572h5.1c.009-.643-.012-1.135-.062-1.477a3.756 3.756 0 00-.566-1.538 2.947 2.947 0 00-1.23-1.101 3.917 3.917 0 00-1.676-.349c-1.043 0-1.893.344-2.546 1.032-.653.688-.981 1.677-.981 2.967 0 1.376.363 2.37 1.088 2.98a3.76 3.76 0 002.506.917zm-1.118-5.865c.248-.283.598-.424 1.049-.424.415 0 .763.133 1.043.399s.437.658.469 1.173h-3.029c.064-.483.22-.866.468-1.148zm6.17 4.211c0 .465.109.809.328 1.032.337.351.966.51 1.887.479l.922-.034v-1.456a5.989 5.989 0 01-.194.01c-.065.002-.129.004-.188.004-.396 0-.633-.038-.711-.113-.077-.075-.115-.265-.115-.57v-3.938h1.209V38.94h-1.209v-2.078h-1.928v2.078h-1.039v1.388h1.039v4.587zm8.086-3.295c-.154.068-.412.125-.771.171l-.664.082c-.752.096-1.321.255-1.709.479-.706.41-1.059 1.073-1.059 1.989 0 .706.219 1.252.659 1.637.44.385.997.578 1.671.578a2.8 2.8 0 001.422-.362 4 4 0 00.93-.745c.014.168.032.319.055.451s.064.273.123.424h2.119v-.287a.712.712 0 01-.287-.226c-.063-.091-.102-.265-.115-.52a29.35 29.35 0 01-.014-.861v-3.418c0-.898-.317-1.509-.951-1.832-.633-.324-1.357-.485-2.174-.485-1.253 0-2.137.328-2.652.984-.323.419-.506.955-.547 1.606h1.881c.045-.287.137-.515.273-.684.191-.228.517-.342.977-.342.41 0 .722.058.934.174s.318.327.318.633c-.001.251-.14.435-.419.554zm.411 1.805c-.014.651-.197 1.101-.55 1.347s-.739.369-1.159.369c-.264 0-.487-.075-.67-.226-.187-.146-.279-.385-.279-.718 0-.374.15-.649.451-.827.178-.105.471-.194.881-.267l.438-.082c.219-.041.391-.086.517-.134s.249-.11.372-.188v.726zm3.705-4.553h1.977v7.451h-1.977zm0-2.686h1.977v1.798h-1.977zm3.904.061h1.947v10.076h-1.947zm57.938 272.916a2.364 2.364 0 00-.854-.824 2.406 2.406 0 00-1.203-.297c-.979 0-1.763.364-2.348 1.094-.586.729-.879 1.729-.879 3.001 0 1.103.298 2.006.893 2.71s1.327 1.057 2.197 1.057c.529 0 .971-.101 1.326-.301s.673-.522.95-.964v1.032h1.894v-10.062h-1.976v3.554zm-.376 4.484c-.287.41-.706.615-1.258.615-.551 0-.961-.208-1.23-.622-.273-.41-.41-.959-.41-1.647 0-.638.134-1.173.4-1.604s.685-.646 1.254-.646c.374 0 .702.118.984.355.461.392.69 1.043.69 1.955.001.653-.142 1.184-.43 1.594zm10.535-2.638a3.737 3.737 0 00-.567-1.538 2.928 2.928 0 00-1.23-1.101 3.91 3.91 0 00-1.675-.349c-1.043 0-1.893.344-2.546 1.032-.654.688-.981 1.677-.981 2.967 0 1.376.362 2.37 1.087 2.98s1.562.916 2.509.916c1.148 0 2.042-.362 2.68-1.087.41-.456.641-.904.69-1.347h-1.989a1.62 1.62 0 01-.362.513c-.25.228-.576.342-.978.342-.378 0-.701-.094-.971-.28-.441-.301-.677-.825-.704-1.572h5.1c.008-.642-.013-1.134-.063-1.476zm-4.991.191c.064-.483.22-.866.469-1.148.248-.282.598-.424 1.049-.424.415 0 .763.133 1.043.399s.437.658.468 1.173h-3.029zm8.566-4.99h-1.928v2.078h-1.039v1.388h1.039v4.587c0 .465.109.809.328 1.032.338.351.967.51 1.887.479l.923-.034v-1.456a5.989 5.989 0 01-.382.014c-.396 0-.633-.038-.711-.113-.077-.075-.116-.266-.116-.57v-3.938h1.21v-1.388h-1.21v-2.079zm8.531 8.429a33.407 33.407 0 01-.014-.861v-3.418c0-.898-.316-1.509-.95-1.832-.633-.324-1.357-.485-2.174-.485-1.253 0-2.137.328-2.652.984-.323.419-.506.954-.547 1.606h1.88c.046-.287.137-.516.273-.684.191-.229.518-.342.978-.342.41 0 .722.058.934.174s.317.327.317.633c0 .25-.139.436-.417.554-.154.068-.412.125-.772.171l-.663.082c-.752.096-1.321.255-1.709.479-.706.41-1.06 1.073-1.06 1.989 0 .706.22 1.252.66 1.637.439.386.997.578 1.671.578a2.8 2.8 0 001.422-.362c.352-.205.661-.453.93-.745.014.169.032.319.055.451s.064.273.123.424h2.119v-.287a.712.712 0 01-.287-.226c-.064-.093-.103-.265-.117-.52zm-1.962-1.867c-.014.651-.197 1.101-.55 1.347a1.986 1.986 0 01-1.159.369c-.264 0-.487-.075-.67-.226-.187-.146-.28-.386-.28-.718 0-.374.15-.649.451-.827.178-.104.472-.194.882-.267l.438-.082c.219-.041.391-.086.517-.134.125-.048.249-.11.372-.188v.726zm3.705-7.239h1.976v1.798h-1.976zm0 2.687h1.976v7.451h-1.976zm3.904-2.625h1.948v10.076h-1.948zM126.029 39.19c.529 0 .971-.101 1.326-.301.355-.201.672-.522.95-.964v1.032h1.894V28.896h-1.976v3.555c-.219-.351-.503-.626-.854-.824s-.752-.297-1.203-.297c-.98 0-1.763.364-2.348 1.094-.585.729-.878 1.729-.878 3.001 0 1.103.297 2.006.892 2.71s1.327 1.055 2.197 1.055zm-.68-5.513c.267-.431.685-.646 1.254-.646.374 0 .702.118.984.355.46.392.69 1.043.69 1.955 0 .651-.144 1.183-.431 1.593s-.707.615-1.258.615-.961-.208-1.23-.622c-.273-.41-.41-.959-.41-1.647.001-.638.135-1.173.401-1.603zm9.629 5.527c1.148 0 2.042-.362 2.68-1.087.41-.456.64-.905.69-1.347h-1.989c-.105.219-.226.39-.362.513-.25.228-.577.342-.978.342-.378 0-.702-.094-.971-.28-.442-.301-.677-.825-.704-1.572h5.1c.009-.643-.011-1.135-.062-1.477a3.757 3.757 0 00-.567-1.538c-.324-.501-.734-.868-1.23-1.101s-1.055-.349-1.675-.349c-1.043 0-1.893.344-2.546 1.032-.654.688-.981 1.677-.981 2.967 0 1.376.362 2.37 1.087 2.98.723.611 1.56.917 2.508.917zm-1.118-5.865c.249-.283.598-.424 1.049-.424.415 0 .762.133 1.042.399s.437.658.468 1.173h-3.028c.065-.483.22-.866.469-1.148zm6.169 4.211c0 .465.109.809.328 1.032.337.351.966.51 1.887.479l.923-.034V37.57a6.052 6.052 0 01-.195.01c-.066.002-.129.004-.188.004-.396 0-.633-.038-.711-.113s-.116-.265-.116-.57v-3.938h1.21v-1.388h-1.21v-2.078h-1.928v2.078h-1.039v1.388h1.039v4.587zm8.087-3.295c-.155.068-.413.125-.772.171l-.663.082c-.752.096-1.322.255-1.709.479-.707.41-1.06 1.073-1.06 1.989 0 .706.22 1.252.66 1.637.44.385.997.578 1.671.578.529 0 1.002-.121 1.422-.362a4.02 4.02 0 00.93-.745c.014.168.032.319.055.451s.064.273.123.424h2.119v-.287a.712.712 0 01-.287-.226c-.064-.091-.103-.265-.116-.52a33.339 33.339 0 01-.014-.861v-3.418c0-.898-.317-1.509-.95-1.832-.633-.324-1.358-.485-2.174-.485-1.253 0-2.137.328-2.652.984-.324.419-.506.955-.547 1.606h1.88c.045-.287.137-.515.273-.684.191-.228.517-.342.978-.342.41 0 .721.058.933.174s.318.327.318.633c-.001.251-.14.435-.418.554zm.41 1.805c-.014.651-.197 1.101-.55 1.347s-.739.369-1.159.369c-.264 0-.488-.075-.67-.226-.187-.146-.28-.385-.28-.718 0-.374.15-.649.451-.827.178-.105.472-.194.882-.267l.438-.082c.219-.041.391-.086.516-.134s.25-.11.373-.188v.726zm3.705-7.24h1.976v1.798h-1.976zm0 2.687h1.976v7.451h-1.976zm3.904-2.625h1.948v10.076h-1.948z"/><path d="M179.427 154.332h50v50h-50zm391.205 10.706h50v50h-50zM337.399 92.655h50v50h-50zm105.85 109.348h50v50h-50zM274.004 105.29h50v50h-50z" fill="#fff"/><path d="M377.814 102.933l-.832-.555 40.149-60.223h60.267v1h-59.732zm-268.387 20.9v1h59.691l19.861 39.723.895-.447-20.138-40.276zm520.897 10.705l-20.138 40.276.894.448 19.861-39.724h59.692v-1zM483.729 241.865l-.96.276 20.103 70.362h60.377v-1h-59.623zM224.254 34.79h-60.25v1h59.75l59.85 79.8.8-.6-60-80z" fill="#969696"/></svg>