<svg version="1.1" id="レイヤー_1" xmlns="http://www.w3.org/2000/svg" x="0" y="0" width="746" height="340" xml:space="preserve"><path d="M163.009 281.897v-.197c0-.05-.02-.098-.055-.133l-.065-.065v-.163c0-.05-.02-.098-.055-.133l-.099-.099-.107-.214a.19.19 0 00-.035-.049l-.603-.603a.188.188 0 00-.133-.055h-.197l-.173-.087-.099-.099a.188.188 0 00-.133-.055h-1.085a.189.189 0 00-.084.02l-.201.101h-.197a.19.19 0 00-.133.055l-.099.099-.214.107a.209.209 0 00-.049.035l-.22.22-.213.107a.19.19 0 00-.084.084l-.107.214-.099.099a.188.188 0 00-.055.133v.197l-.087.174-.099.099a.188.188 0 00-.055.133v1.085c0 .029.007.058.02.084l.121.241a.19.19 0 00.035.049l.065.065v.163c0 .05.02.098.055.133l.099.099.107.214a.19.19 0 00.084.084l.213.107.22.219a.209.209 0 00.049.035l.214.107.099.099a.209.209 0 00.049.035l.241.121c.026.013.055.02.084.02h1.326c.05 0 .098-.02.131-.057l.065-.065h.163a.189.189 0 00.084-.02l.241-.121a.209.209 0 00.049-.035l.724-.723a.19.19 0 00.035-.049l.121-.241a.189.189 0 00.02-.084v-.076l.101-.201a.189.189 0 00.02-.084v-.197l.101-.201a.189.189 0 00.02-.084v-.362a.189.189 0 00-.02-.084l-.101-.201zm-.254.604l-.101.201a.189.189 0 00-.02.084v.197l-.101.201a.189.189 0 00-.02.084v.076l-.087.174-.681.68-.174.087h-.196a.19.19 0 00-.133.055l-.065.065h-1.204l-.171-.087-.099-.099a.209.209 0 00-.049-.035l-.214-.107-.219-.219a.19.19 0 00-.049-.035l-.185-.093-.093-.185a.19.19 0 00-.035-.049l-.065-.065v-.163c0-.05-.02-.098-.055-.133l-.099-.099-.087-.174v-.962l.065-.065a.19.19 0 00.035-.049l.121-.241a.189.189 0 00.02-.084v-.163l.065-.065a.19.19 0 00.035-.049l.093-.185.185-.092a.209.209 0 00.049-.035l.22-.22.214-.107a.209.209 0 00.049-.035l.065-.065h.163a.189.189 0 00.084-.02l.201-.101h.962l.065.065a.19.19 0 00.049.035l.241.121c.026.013.055.02.084.02h.163l.526.526.107.214a.19.19 0 00.035.049l.065.065v.163c0 .05.02.098.055.133l.065.065v.163c0 .029.007.058.02.084l.101.201v.273zm-30.784-87.374a.188.188 0 00-.133-.055h-.603a.19.19 0 00-.133.055l-.065.065h-.042a.19.19 0 00-.133.055l-.121.12a.188.188 0 00-.055.133v.042l-.065.065a.188.188 0 00-.055.133v.362c0 .05.02.098.055.133l.065.065v.043c0 .05.02.098.055.133l.121.121a.188.188 0 00.133.055h.042l.065.065a.188.188 0 00.133.055h.603a.2.2 0 00.133-.052l.361-.362a.188.188 0 00.055-.133v-.603c0-.05-.02-.098-.055-.133l-.361-.362zm.04 1.017l-.251.251h-.447l-.066-.067a.188.188 0 00-.133-.055h-.042l-.01-.053c0-.05-.02-.098-.055-.133l-.065-.065v-.206l.065-.065a.188.188 0 00.055-.133v-.042l.053-.01a.19.19 0 00.133-.055l.065-.065h.447l.251.251v.447zm26.35-.83h-.042l-.186-.186a.188.188 0 00-.133-.055h-.603a.19.19 0 00-.133.055l-.065.065h-.042a.188.188 0 00-.188.188v.042l-.065.065a.188.188 0 00-.055.133v.603c0 .05.02.098.055.133l.065.065v.042c0 .104.084.188.188.188h.042l.065.065a.188.188 0 00.133.055H158c.049 0 .097-.02.133-.052l.186-.186h.042a.188.188 0 00.188-.188v-.844a.188.188 0 00-.188-.188zm-.189.853a.182.182 0 00-.065.042l-.186.186h-.446l-.065-.065a.196.196 0 00-.075-.046.188.188 0 00-.046-.075l-.065-.065v-.447l.065-.065a.185.185 0 00.046-.074.188.188 0 00.075-.046l.065-.065h.446l.186.186a.196.196 0 00.065.042v.492zm-21.029 75.701h-1.046a.168.168 0 00-.113-.101l-.005-.012.005-.012c.078-.023.141-.083.141-.169v-2.291a.188.188 0 10-.376 0v2.13c-.067.029-.121.082-.121.16v.121c0 .023.017.039.025.06-.008.021-.025.037-.025.06v.121c0 .085.063.146.141.168.023.078.083.141.168.141h1.206a.188.188 0 100-.376zm-1.018-151.599c0-.085-.063-.145-.141-.168l-.005-.012.005-.013a.17.17 0 00.112-.1h1.046a.188.188 0 100-.376h-1.206c-.085 0-.145.062-.168.139-.078.023-.141.083-.141.169v.121c0 .023.017.039.025.06-.008.021-.025.037-.025.06v.121c0 .078.054.132.121.16v2.13a.188.188 0 10.376 0v-2.291zm-.188 8.145a.188.188 0 00.188-.188V126.9a.188.188 0 10-.376 0v1.326c0 .104.084.188.188.188zm0 2.893a.188.188 0 00.188-.188v-1.447a.188.188 0 10-.376 0v1.447c0 .104.084.188.188.188zm0 2.894a.188.188 0 00.188-.188v-1.447a.188.188 0 10-.376 0v1.447c0 .104.084.188.188.188zm0 2.773a.188.188 0 00.188-.188v-1.326a.188.188 0 10-.376 0v1.326c0 .104.084.188.188.188zm0 2.893a.188.188 0 00.188-.188v-1.447a.188.188 0 10-.376 0v1.447c0 .104.084.188.188.188zm.188 1.259a.188.188 0 10-.376 0v1.447a.188.188 0 10.376 0v-1.447zm-.188 7.301a.188.188 0 00.188-.188v-1.447a.188.188 0 10-.376 0v1.447c0 .104.084.188.188.188zm0 2.773a.188.188 0 00.188-.188v-1.326a.188.188 0 10-.376 0v1.326c0 .104.084.188.188.188zm0 2.893a.188.188 0 00.188-.188v-1.447a.188.188 0 10-.376 0v1.447c0 .104.084.188.188.188zm0 2.894a.188.188 0 00.188-.188v-1.447a.188.188 0 10-.376 0v1.447c0 .104.084.188.188.188zm.188 1.259a.188.188 0 10-.376 0v1.326a.188.188 0 10.376 0v-1.326zm-.188 7.301a.188.188 0 00.188-.188v-1.447a.188.188 0 10-.376 0v1.447c0 .104.084.188.188.188zm0 2.773a.188.188 0 00.188-.188v-1.447a.188.188 0 10-.376 0v1.447c0 .104.084.188.188.188zm0 2.893a.188.188 0 00.188-.188v-1.447a.188.188 0 10-.376 0v1.447c0 .104.084.188.188.188zm0 2.773a.188.188 0 00.188-.188v-1.326a.188.188 0 10-.376 0v1.326c0 .104.084.188.188.188zm0 2.894a.188.188 0 00.188-.188v-1.447a.188.188 0 10-.376 0v1.447c0 .104.084.188.188.188zm.188 1.258a.188.188 0 10-.376 0v1.447a.188.188 0 10.376 0v-1.447zm-.188 7.302a.188.188 0 00.188-.188v-1.447a.188.188 0 10-.376 0v1.447c0 .104.084.188.188.188zm0 2.893a.188.188 0 00.188-.188v-1.447a.188.188 0 10-.376 0v1.447c0 .104.084.188.188.188zm0 2.773a.188.188 0 00.188-.188v-1.447a.188.188 0 10-.376 0v1.447c0 .104.084.188.188.188zm0 2.893a.188.188 0 00.188-.188v-1.447a.188.188 0 10-.376 0v1.447c0 .104.084.188.188.188zm.188 4.032a.188.188 0 10-.376 0v1.447a.188.188 0 10.376 0v-1.447zm-.188 7.301a.188.188 0 00.188-.188v-1.447a.188.188 0 10-.376 0v1.447c0 .104.084.188.188.188zm0 2.894a.188.188 0 00.188-.188v-1.447a.188.188 0 10-.376 0v1.447c0 .104.084.188.188.188zm0 2.893a.188.188 0 00.188-.188v-1.447a.188.188 0 10-.376 0v1.447c0 .104.084.188.188.188zm0 2.773a.188.188 0 00.188-.188v-1.447a.188.188 0 10-.376 0v1.447c0 .104.084.188.188.188zm.188 1.259a.188.188 0 10-.376 0v1.447a.188.188 0 10.376 0v-1.447zm-.188 7.301a.188.188 0 00.188-.188v-1.447a.188.188 0 10-.376 0v1.447c0 .104.084.188.188.188zm0 2.893a.188.188 0 00.188-.188v-1.447a.188.188 0 10-.376 0v1.447c0 .104.084.188.188.188zm0 2.773a.188.188 0 00.188-.188v-1.447a.188.188 0 10-.376 0v1.447c0 .104.084.188.188.188zm0 2.894a.188.188 0 00.188-.188v-1.447a.188.188 0 10-.376 0v1.447c0 .104.084.188.188.188zm0 2.773a.188.188 0 00.188-.188v-1.326a.188.188 0 10-.376 0v1.326c0 .104.084.188.188.188zm.188 1.258a.188.188 0 10-.376 0v1.447a.188.188 0 10.376 0v-1.447zm-.188 7.302a.188.188 0 00.188-.188v-1.326a.188.188 0 10-.376 0v1.326c0 .104.084.188.188.188zm0 2.893a.188.188 0 00.188-.188v-1.447a.188.188 0 10-.376 0v1.447c0 .104.084.188.188.188zm0 2.894a.188.188 0 00.188-.188v-1.447a.188.188 0 10-.376 0v1.447c0 .104.084.188.188.188zm0 2.772a.188.188 0 00.188-.188v-1.447a.188.188 0 10-.376 0v1.447c0 .104.084.188.188.188zm0 2.894a.188.188 0 00.188-.188v-1.447a.188.188 0 10-.376 0v1.447c0 .104.084.188.188.188zm.188 1.259a.188.188 0 10-.376 0v1.326a.188.188 0 10.376 0v-1.326zm-.188 7.301a.188.188 0 00.188-.188v-1.447a.188.188 0 10-.376 0v1.447c0 .104.084.188.188.188zm0 2.773a.188.188 0 00.188-.188v-1.326a.188.188 0 10-.376 0v1.326c0 .104.084.188.188.188zm0 2.893a.188.188 0 00.188-.188v-1.447a.188.188 0 10-.376 0v1.447c0 .104.084.188.188.188zm135.103-51.621c0 .059.008.068.069.068h.374c.06 0 .069-.008.069-.068v-.822h1.233v.531c0 .059.008.068.069.068h.365c.069 0 .078-.008.078-.068 0-.043-.018-.3-.018-1.892v-1.181c0-.942.018-1.216.018-1.267 0-.051-.009-.06-.078-.06-.043 0-.199.017-.729.017h-.643c-.53 0-.695-.017-.738-.017-.061 0-.069.009-.069.06s.017.342.017 1.481v1.147c0 1.686-.017 1.951-.017 2.003zm.511-4.203h1.233v2.91h-1.233v-2.91zm4.323 1.627c.017-.188.026-.291.052-.368.026-.068.061-.102.061-.171 0-.034-.053-.068-.122-.077a4.593 4.593 0 00-.573-.051c.052.24.07.436.07.933 0 1.464-.825 3.159-3.056 3.912.104.06.217.171.295.291.053.077.079.111.122.111.035 0 .069-.017.139-.043 1.719-.728 2.57-1.926 2.874-3.296.339 1.309 1.172 2.439 2.422 3.201.061.034.104.06.13.06.035 0 .061-.034.113-.12.078-.12.191-.248.295-.324-1.745-.848-2.571-2.346-2.822-4.058z"/><path d="M273.894 214.126c.035 0 .061-.034.104-.103.286-.411.538-.873.755-1.395h2.978c-.252.573-.581 1.147-.946 1.592.113.025.234.068.33.128.07.051.113.077.139.077.035 0 .061-.034.113-.111.321-.471.634-1.036.851-1.498.061-.128.113-.197.165-.231.043-.026.061-.06.061-.103s-.035-.103-.165-.214c-.138-.129-.19-.163-.251-.163a.142.142 0 00-.078.026c-.043.025-.113.034-.226.034v.002h-2.778c.096-.249.183-.514.269-.788.07-.214.096-.3.139-.36.035-.052.078-.112.078-.146 0-.043-.035-.077-.113-.103a2.899 2.899 0 00-.539-.111c0 .214-.035.463-.113.745a7.177 7.177 0 01-1.233 2.517c.096.017.234.077.33.137.069.042.104.068.13.068zm5.936.85a5.587 5.587 0 01-.772.206c.052.188.104.342.165.496.026.06.052.077.087.077a.17.17 0 00.113-.051c.043-.043.13-.095.321-.163.2-.068.399-.137.599-.214v2.08c0 .291-.078.385-.313.385-.252 0-.46-.008-.677-.034.07.102.13.23.165.376.034.162.043.171.217.171.565.008.73-.026.903-.146.165-.129.226-.283.226-.668 0-.334-.008-.839-.008-1.31v-1.062c.33-.137.651-.274.938-.411.156-.077.165-.086.156-.257-.008-.129 0-.249.018-.343-.347.18-.738.351-1.111.497h-.002v-1.682c.573 0 .756.017.799.017.06 0 .069-.008.069-.068v-.36c0-.059-.008-.068-.069-.068-.044 0-.226.017-.799.017v-.702c0-.488 0-.651.043-.745.026-.06.052-.103.052-.163 0-.034-.043-.068-.104-.077a9.39 9.39 0 00-.564-.043c.052.274.061.522.061 1.036v.693h-.313c-.607 0-.781-.017-.833-.017-.06 0-.069.008-.069.068v.36c0 .059.008.068.069.068.052 0 .226-.017.833-.017h.313v1.883c-.183.068-.356.12-.513.171z"/><path d="M282.053 212.858c.043 0 .321-.017 1.111-.017-.086.839-.243 1.721-.46 2.397-.365 1.173-.894 1.986-1.641 2.714a.78.78 0 01.261.223c.053.069.087.103.122.103s.061-.026.113-.086c.695-.745 1.224-1.593 1.598-2.731.044-.154.096-.317.139-.497a6.163 6.163 0 001.007 1.695c-.556.557-1.277.985-2.197 1.327.096.068.191.171.261.282.043.077.07.111.113.111.035 0 .07-.017.139-.043.834-.368 1.494-.796 2.023-1.31.521.514 1.12.899 1.806 1.224.06.026.095.043.13.043.052 0 .069-.043.121-.128.07-.128.148-.222.243-.308-.773-.308-1.424-.693-1.962-1.198.451-.539.799-1.173 1.068-1.943.069-.197.113-.265.165-.308.044-.034.061-.059.061-.111 0-.051-.026-.094-.165-.231-.138-.12-.182-.146-.234-.146a.304.304 0 00-.113.026c-.035.017-.078.034-.2.034h-2.058c.069-.376.122-.761.165-1.138h1.997c.86 0 1.146.017 1.198.017s.061-.008.061-.077v-.376c0-.06-.009-.069-.061-.069s-.338.017-1.198.017h-1.953c.017-.197.034-.403.043-.591.017-.369.026-.54.069-.634.026-.06.061-.12.061-.171 0-.051-.052-.086-.122-.103a6.478 6.478 0 00-.547-.06c.034.248.043.488.026 1.01-.009.18-.017.36-.035.548-.834 0-1.112-.017-1.155-.017-.06 0-.069.009-.069.069v.376c0 .068.008.077.069.077zm3.544 1.576c-.234.728-.547 1.344-.972 1.866-.442-.505-.807-1.121-1.085-1.866h2.057zm-128.142-45.896c-.044-.025-.087-.025-.122.009-.061.043-.096.094-.243.154l-1.294.531-.174-.967c-.043-.24-.061-.351-.035-.428.026-.069.017-.146-.061-.146a5.018 5.018 0 00-.582.034c.086.197.13.394.199.728l.183.933-.261.103a6.18 6.18 0 01-.825.274c.061.154.131.291.2.402.043.06.087.06.139.017.173-.094.373-.171.599-.274l.237-.103.356 1.781c.087.445.174.856.278 1.404.009.06.026.077.078.077.069-.018.338-.069.408-.103.035-.017.052-.034.035-.094-.113-.505-.226-.976-.321-1.421l-.365-1.823 1.354-.573a4.538 4.538 0 01-.729 1.575.982.982 0 01.382.128c.043.026.086.034.121-.043.313-.488.53-1.01.695-1.575a.882.882 0 01.104-.24c.044-.051.053-.103-.008-.154a1.121 1.121 0 00-.348-.206zm2.107 1.208a7.17 7.17 0 00-.469-1.207c-.043-.051-.061-.043-.104-.017-.07.034-.287.111-.366.172.218.385.348.813.478 1.258.018.069.044.077.096.06.069-.026.278-.094.347-.146.035-.026.026-.068.018-.12zm1.789-1.499a3.862 3.862 0 01-.104.702c-.156.779-.356 1.413-.668 2.046-.365.719-.799 1.31-1.32 1.789.121.043.33.146.399.214.043.034.086.034.147-.034.434-.42.833-.976 1.198-1.678.313-.633.539-1.335.747-2.174.061-.256.095-.376.156-.462.061-.077.061-.137-.017-.188-.113-.077-.374-.154-.538-.215zm-1.154 1.361c.086-.026.269-.077.356-.12.035-.017.035-.059.017-.128a5.565 5.565 0 00-.417-1.19c-.027-.043-.053-.06-.096-.034-.078.035-.278.103-.364.145.156.377.313.822.426 1.284.008.052.043.052.078.043zm4.122-1.105v-1.609c0-.479.026-.607.069-.693.043-.103.043-.18-.035-.214-.131-.043-.478-.068-.643-.077.034.274.052.582.052 1.07v4.332c0 .505-.008 1.01-.026 1.575 0 .102.018.128.096.128.087.009.331.009.417 0 .078 0 .096-.026.087-.12-.017-.556-.017-1.035-.017-1.583v-2.226c.504.248 1.007.565 1.615 1.07.069.06.113.068.156-.009.061-.111.113-.222.165-.342.026-.061.017-.103-.035-.146a10.241 10.241 0 00-1.901-1.156zm5.964-1.112c-.07-.068-.113-.077-.183-.034-.044.026-.113.043-.408.043v-.001h-.58v-.471c0-.488.018-.625.061-.711.051-.085.034-.162-.035-.188a4.588 4.588 0 00-.617-.086c.034.24.043.454.043.985v.471h-.616c-.131 0-.4-.009-.591-.026-.052-.009-.07.017-.061.094.009.222.009.419.009.71v.608c0 .411 0 .676-.009 1.036 0 .102 0 .128.052.128h.434c.044 0 .061-.025.061-.128-.009-.351-.009-.599-.009-1.044v-.899h2.049c-.078 1.002-.226 1.841-.521 2.671a5.393 5.393 0 01-1.424 2.2c.131.051.356.154.443.231.044.043.087.051.139 0a5.777 5.777 0 001.354-2.166c.278-.779.443-1.618.547-2.602.018-.145.052-.265.113-.342.052-.077.052-.137.009-.197a1.63 1.63 0 00-.26-.282zm4.487 1.742c-.252.017-.443.017-.694.017h-.434l-.018-.668c-.017-.42 0-.531.026-.591.026-.077.035-.137-.026-.154-.078-.026-.408-.052-.564-.052.034.265.043.47.052.71l.026.753h-1.033c-.235 0-.426 0-.66-.017 0 .12 0 .274.009.385.008.068.043.085.086.085a6.46 6.46 0 01.573-.026v.003h.81c-.148.428-.348.762-.599 1.121a5.117 5.117 0 01-1.068 1.156c.113.051.26.163.321.231.051.06.086.069.147.017.321-.291.616-.633.877-1.01.235-.334.408-.625.582-1.079l.043 2.012c.008.309-.044.394-.139.437-.139.068-.469.103-.686.094.095.112.173.257.208.377.025.06.043.077.086.077.218-.009.599-.077.782-.18.182-.119.26-.299.243-.753l-.07-2.508h.417c.251 0 .443.008.703.017.035 0 .061-.009.061-.086v-.291c0-.068-.026-.086-.061-.077zm4.419.69c.052 0 .087-.009.087-.103a2.51 2.51 0 000-.368c0-.085-.035-.094-.087-.094-.382.026-.686.026-1.016.026h-1.606c-.373 0-.66-.017-.972-.06 0 .154.008.351.043.539.017.077.061.111.104.111.061 0 .209-.06.608-.06h1.84c.313 0 .626-.008.999.009zm89.41 52.215v.599h1.617c-.471.753-.683 1.563-.683 2.507 0 .659.104 1.253.323 1.808-.078.414-.151.834-.193 1.292h.796c.006-.073.02-.134.027-.205.337.436.764.857 1.314 1.274l.216-.248c-.679-.572-1.136-1.139-1.438-1.733.25-1.806.772-3.274 1.707-4.764v-.53h-1.089c.231-.272.498-.543.82-.814l-.216-.249c-.461.35-.834.702-1.143 1.063h-2.058zm2.967.599a12.84 12.84 0 00-1.431 3.182 6.152 6.152 0 01-.04-.675c0-.924.18-1.734.658-2.507h.813zm1.87 4.674h.943v.933h-.943zm4.507.359v-5.693h-.588a5.924 5.924 0 01-1.471.736l.121.625a5.975 5.975 0 001.246-.616v4.948h-1.254v.573h3.124v-.573h-1.178zm4.63 0v-5.693h-.588a5.924 5.924 0 01-1.471.736l.121.625a5.975 5.975 0 001.246-.616v4.948h-1.254v.573h3.124v-.573h-1.178zm3.605-3.895c-.58 0-1.038.325-1.445.89v-.793h-.675v4.374h.692v-2.996c.329-.548.788-.865 1.194-.865.432 0 .692.257.692.89v2.97h.692v-2.996c.303-.523.753-.865 1.177-.865.458 0 .727.274.727.89v2.97h.709v-3.219c0-.796-.484-1.25-1.185-1.25-.58 0-1.082.343-1.471.882-.086-.531-.51-.882-1.107-.882zm4.464-.804H289.5c.121-.171.286-.308.597-.531.416-.3.528-.437.528-.745 0-.377-.294-.599-.727-.599-.416 0-.684.214-.805.608l.389.086c.053-.231.174-.385.407-.385.216 0 .346.12.346.308 0 .179-.061.265-.424.539-.355.257-.58.48-.727.762v.274h1.558v-.317zm1.066 6.095l.216.248c1.635-1.241 2.267-2.5 2.267-4.169s-.632-2.928-2.267-4.169l-.216.249c1.454 1.224 1.921 2.422 1.921 3.92 0 1.498-.467 2.697-1.921 3.921zm-134.235-46.335h-1.18v-5.693h-.591a5.958 5.958 0 01-1.476.736l.122.625c.486-.179.92-.394 1.25-.616v4.948h-1.259v.573h3.134v-.573zm1.241-.36h.946v.933h-.946zm19.696-4.34h-1.146c.121-.171.287-.308.599-.531.417-.3.53-.437.53-.745 0-.377-.295-.599-.729-.599-.417 0-.686.214-.808.608l.391.086c.052-.231.174-.385.408-.385.218 0 .348.12.348.308 0 .179-.061.265-.426.539-.356.257-.582.48-.729.762v.274h1.562v-.317zm2.917 2.175c0 1.489-.467 2.683-1.905 3.9l-.982-.357a.188.188 0 10-.129.354l1.326.482a.191.191 0 00.242-.113.186.186 0 00-.101-.23c1.513-1.199 2.112-2.426 2.112-4.036 0-1.669-.633-2.928-2.274-4.169l-.217.249c1.459 1.224 1.928 2.422 1.928 3.92zm183.635 73.111a.19.19 0 00-.25.094.188.188 0 00.093.249l1.326.603a.188.188 0 00.25-.094.188.188 0 00-.093-.249l-1.326-.603zm-1.339-.487l-26.644-9.886a.188.188 0 10-.131.353l26.644 9.886a.188.188 0 00.131-.353zm-29.283-10.966a.19.19 0 00-.25.094.188.188 0 00.093.249l1.326.603a.19.19 0 00.25-.094.188.188 0 00-.093-.249l-1.326-.603zm-92.014-33.892l26.765 10.007.006.001.001.001 1.085.362a.187.187 0 00.238-.119.188.188 0 00-.119-.238l-1.08-.36-26.765-10.007a.188.188 0 10-.131.353zm-2.65-.963l1.326.482a.188.188 0 10.129-.354l-1.326-.482a.188.188 0 10-.129.354zm-27.972-10.49l26.644 10.007a.19.19 0 00.243-.11.189.189 0 00-.11-.242l-26.644-10.007a.188.188 0 10-.133.352zm-2.65-.963l1.326.482a.191.191 0 00.242-.113.188.188 0 00-.113-.241l-1.326-.482a.188.188 0 10-.129.354zm-18.503 57.76a.211.211 0 00.065-.011l1.326-.482a.188.188 0 10-.129-.354l-1.326.482a.188.188 0 00.064.365zm2.653-.965a.182.182 0 00.065-.012l26.644-9.886a.189.189 0 00.111-.242.188.188 0 00-.242-.111l-26.644 9.886a.189.189 0 00.066.365zm29.357-11.338l-1.447.482a.188.188 0 00.119.357l1.447-.482a.188.188 0 00-.119-.357zm41.105-15.309l-39.785 14.829a.188.188 0 00-.11.242.188.188 0 00.242.111l39.785-14.829a.188.188 0 00.11-.242.187.187 0 00-.242-.111zm19.052-6.759a.188.188 0 00-.242-.113l-2.653.964c-.004.002-.005.007-.009.008-.017-.005-.029-.019-.047-.019h-.121c-.082 0-.139.059-.165.132-.007.002-.013-.003-.019-.001l-2.093.762-1.996-.761c-.007-.003-.015.003-.022.001-.025-.074-.083-.133-.165-.133h-.121c-.018 0-.03.015-.047.019-.004-.002-.005-.007-.009-.008l-2.652-.964a.189.189 0 00-.129.354l2.652.964a.205.205 0 00.064.011c.025 0 .047-.012.069-.021.018.006.031.021.052.021h.069a.183.183 0 00.105.108l1.589.606-.018.006c-.014.005-.018.02-.03.028a.174.174 0 00-.053.048.149.149 0 00-.025.061c-.004.015-.017.025-.017.041 0 .013.011.021.013.033.002.011-.005.021-.001.031.006.017.021.026.031.04.009.013.015.025.027.035a.182.182 0 00.114.047l.003.001h.121c.063 0 .111-.036.145-.084l.227-.083.405.154a.213.213 0 00.065.012h.122a.188.188 0 100-.376h-.016l1.649-.6a.18.18 0 00.107-.109h.069c.02 0 .033-.016.052-.021.022.009.044.021.068.021a.185.185 0 00.065-.011l2.653-.964a.186.186 0 00.114-.24zm48.585-18.318l-1.326.482a.188.188 0 10.129.354l1.326-.482a.188.188 0 10-.129-.354zm28.331-10.377a.188.188 0 00-.242-.112l-26.765 9.886a.189.189 0 00.131.354l26.765-9.886a.189.189 0 00.111-.242zm1.15-.229a.211.211 0 00.065-.011l1.326-.482a.188.188 0 10-.129-.354l-1.326.482a.188.188 0 00.064.365zM210.47 115.437c0 1.669.634 2.928 2.275 4.169l.217-.248c-1.459-1.224-1.928-2.423-1.928-3.921 0-1.498.469-2.696 1.928-3.92l-.217-.249c-1.641 1.242-2.275 2.5-2.275 4.169zm5.518 3.099h.651v-1.455h.877v-.565h-.877v-4.246h-.99l-2.179 4.28v.531h2.518v1.455zm-.001-4.194v2.174h-1.875l1.155-2.337c.217-.437.4-.873.608-1.344h.147c-.017.557-.035 1.011-.035 1.507zm2.578 3.262h.946v.933h-.946zm1.927-3.244c0 1.198.729 1.969 1.667 1.969.59 0 1.068-.283 1.389-.865-.052 1.926-.547 2.611-1.389 2.611-.364 0-.634-.189-.807-.591l-.695.318c.269.573.773.847 1.502.847 1.311 0 2.075-1.027 2.075-3.501 0-2.02-.773-2.919-1.945-2.919-1.05 0-1.797.839-1.797 2.131zm3.021.461c-.313.633-.712.924-1.233.924-.616 0-1.059-.522-1.059-1.395 0-.958.408-1.549 1.094-1.549.773 0 1.181.719 1.198 2.02zm3.985-.282c-.547 0-1.059.282-1.424.873.035-1.729.495-2.611 1.398-2.611.373 0 .677.18.833.608l.687-.299c-.269-.548-.773-.882-1.502-.882-1.293 0-2.109 1.044-2.109 3.492 0 2.012.807 2.928 1.927 2.928 1.05 0 1.814-.813 1.814-2.14 0-1.207-.678-1.969-1.624-1.969zm-.192 3.535c-.712 0-1.215-.616-1.216-2.021.356-.642.79-.933 1.268-.933.642 0 1.033.514 1.033 1.404 0 1.011-.417 1.55-1.085 1.55zm10.371-5.342c.417-.3.53-.437.53-.745 0-.377-.295-.599-.729-.599-.417 0-.686.214-.808.608l.391.086c.052-.231.174-.385.408-.385.218 0 .348.12.348.308 0 .179-.061.265-.426.539-.356.257-.582.48-.729.762v.274h1.562v-.317h-1.146c.121-.171.287-.308.599-.531zm-5.365 2.811c.33-.548.79-.865 1.198-.865.434 0 .695.257.695.89v2.97h.694v-2.996c.304-.523.756-.865 1.181-.865.46 0 .729.274.729.89v2.97h.712v-3.219c0-.796-.486-1.25-1.189-1.25-.581 0-1.085.343-1.476.882-.087-.531-.512-.882-1.111-.882-.582 0-1.042.325-1.45.89v-.793h-.677v4.374h.694v-2.996zm6.805-4.025c1.459 1.224 1.928 2.422 1.928 3.92s-.47 2.697-1.928 3.921l.217.248c1.64-1.241 2.274-2.5 2.274-4.169s-.633-2.928-2.274-4.169l-.217.249zm-39.764-8.754c.468-.035.946-.052 1.458-.052h3.325a8.02 8.02 0 01-1.632 2.739c-.729.822-1.476 1.464-2.804 2.115.182.077.347.188.451.291.078.086.191.086.295.017 1.077-.582 1.876-1.284 2.579-2.063a9.144 9.144 0 001.702-2.808.785.785 0 01.191-.291c.087-.077.095-.171.026-.265a2.267 2.267 0 00-.391-.351c-.07-.043-.157-.052-.226-.009-.095.051-.182.077-.434.077h-3.073c-.643 0-1.129-.017-1.667-.068.008.146.035.411.043.531.018.111.053.146.157.137zm11.65 3.824c-.417.488-1.137.916-2.023 1.173.183.094.312.189.434.317.087.077.148.077.243.043.773-.274 1.484-.753 1.901-1.258.443-.556.755-1.335.755-2.662h.001v-1.448c0-.745.026-1.001.087-1.121.043-.086.043-.18-.061-.214a4.057 4.057 0 00-.738-.137c.07.308.096.659.096 1.498v1.472c0 1.121-.269 1.823-.695 2.337zm-2.327-3.927v1.414c0 .42-.009.805-.018 1.173-.009.094.026.128.113.128h.408c.095 0 .13-.034.13-.137a21.493 21.493 0 01-.026-1.13v-1.447c0-.54.025-.788.086-.899.035-.078.035-.172-.078-.206a4.848 4.848 0 00-.712-.137c.061.308.096.702.096 1.241h.001zm7.36 2.414c.052 0 .417-.086 1.172-.086h3.205c.581 0 1.224 0 1.875.017.104.008.13-.009.13-.103a4.128 4.128 0 000-.445c0-.094-.026-.112-.13-.103-.66.017-1.302.026-1.901.026h-2.666c-.721 0-1.389-.008-1.919-.077.018.232.052.505.087.651.025.086.069.12.147.12zm8.213 2.21c.183.094.339.18.452.308.07.077.122.069.217.017 1.068-.582 2.11-1.378 3.1-2.388a15.716 15.716 0 012.396 2.174c.06.068.095.068.156.017.104-.094.216-.197.312-.308.069-.086.069-.111-.009-.18a17.768 17.768 0 00-2.492-2.148c.46-.566.903-1.199 1.285-1.841.086-.146.164-.249.251-.317.078-.069.095-.128.043-.197a2.224 2.224 0 00-.356-.351c-.06-.043-.121-.06-.173-.026-.104.059-.2.068-.495.068v.001h-2.516c-.538 0-.92 0-1.346-.034 0 .171.026.428.052.548.018.068.026.094.104.094.391-.025.764-.051 1.25-.051h2.613a10.79 10.79 0 01-1.649 2.294c-.86.89-1.884 1.678-3.195 2.32zm14.218-3.742a.87.87 0 00.877-.865.869.869 0 00-.877-.865.87.87 0 00-.877.865c0 .48.391.865.877.865zm0-1.404c.304 0 .547.24.547.539s-.243.539-.547.539a.54.54 0 110-1.078zm-5.044 3.484a3.22 3.22 0 01.373-.462 60.446 60.446 0 011.459-1.507c.043-.043.087-.077.165-.077.07 0 .122.051.174.094a53.845 53.845 0 003.933 2.911c.069.051.113.034.156-.026.087-.111.182-.257.269-.428.034-.069.026-.12-.052-.163-1.432-.865-2.874-1.875-3.985-2.808-.218-.18-.356-.231-.53-.231-.182 0-.304.068-.512.274-.469.471-.929.933-1.233 1.233-.356.351-.712.642-.921.77.174.18.365.351.504.454.078.06.148.051.2-.034zm8.324-.548c.052 0 .417-.086 1.172-.086h3.205c.581 0 1.224 0 1.875.017.104.008.13-.009.13-.103a3.67 3.67 0 000-.445c0-.094-.026-.112-.13-.103-.66.017-1.302.026-1.901.026h-2.666c-.721 0-1.389-.008-1.919-.077.018.232.052.505.087.651.025.086.069.12.147.12zm8.213 2.21c.183.094.339.18.452.308.07.077.122.069.217.017 1.068-.582 2.11-1.378 3.1-2.388a15.716 15.716 0 012.396 2.174c.06.068.095.068.156.017.104-.094.216-.197.312-.308.069-.086.069-.111-.009-.18a17.768 17.768 0 00-2.492-2.148c.46-.566.903-1.199 1.285-1.841.086-.146.164-.249.251-.317.078-.069.095-.128.043-.197a2.224 2.224 0 00-.356-.351c-.06-.043-.121-.06-.173-.026-.104.059-.2.068-.495.068v.001h-2.516c-.538 0-.92 0-1.346-.034 0 .171.026.428.052.548.018.068.026.094.104.094.391-.025.764-.051 1.25-.051h2.613a10.79 10.79 0 01-1.649 2.294c-.86.89-1.884 1.678-3.195 2.32zm157.845 27.536c.043-.043.069-.068.069-.111 0-.051-.026-.094-.156-.214-.138-.12-.182-.137-.217-.137a.158.158 0 00-.095.026c-.043.026-.069.026-.182.026v-.001h-1.153c-.47 0-.661-.017-.704-.017-.06 0-.069.009-.069.069 0 .042.018.402.018 1.275v3.133c0 .873-.018 1.207-.018 1.258 0 .051.008.06.069.06h.356c.061 0 .07-.008.07-.06 0-.042-.018-.427-.018-1.292v-3.989h1.45c-.33.761-.625 1.224-1.085 1.857 1.154.754 1.276 1.088 1.276 1.49 0 .505-.461.693-1.407.676.061.068.113.18.139.308.035.163.052.163.217.154 1.042-.034 1.545-.376 1.545-1.087 0-.471-.139-.967-1.207-1.635.416-.573.625-.924.963-1.592.061-.128.104-.163.139-.197zm-3.308 4.88c.026.078.034.061.147.009l.2-.094c.113-.051.113-.068.078-.137-.251-.531-.512-1.01-.885-1.464-.043-.052-.061-.052-.156 0l-.183.087c-.096.052-.104.06-.061.12.13.163.252.326.356.497a17.09 17.09 0 01-1.424.385v-1.507h1.233c.538 0 .712.017.755.017.06 0 .069-.009.069-.069 0-.043-.018-.266-.018-.822v-1.053c0-.557.018-.779.018-.822 0-.06-.008-.069-.069-.069-.043 0-.217.017-.755.017h-.2v-.188c0-.205 0-.299.043-.385.026-.06.052-.094.052-.154 0-.035-.044-.06-.113-.069a4.273 4.273 0 00-.512-.043c.043.197.052.385.052.659v.18h-.191c-.521 0-.747-.017-.799-.017-.043 0-.061.009-.061.069 0 .052.018.343.018 1.036v3.321a7.626 7.626 0 01-.782.111c.061.172.122.326.2.497.035.068.061.085.096.085s.078-.026.113-.06a.962.962 0 01.339-.154c.834-.205 1.39-.351 2.145-.599.104.197.2.402.295.616zm-1.926-4.52h1.562v.796h-1.562v-.796zm0 1.173h1.562v.847h-1.562v-.847z"/><path d="M400.461 140.085c.026 0 .052-.034.104-.111.417-.642.608-1.25.721-2.003.112-.805.13-1.25.13-2.885v-1.395h5.183c.859 0 1.146.017 1.189.017.061 0 .07-.008.07-.068h.001v-.335c0-.059-.009-.068-.07-.068-.043 0-.329.017-1.189.017h-2.023v-.18c0-.274.017-.377.043-.437.026-.051.061-.094.061-.137 0-.042-.053-.059-.122-.068a4.773 4.773 0 00-.539-.043c.052.206.052.36.052.685v.18h-1.884c-.86 0-1.164-.017-1.207-.017-.061 0-.069.008-.069.068 0 .043.017.556.017 1.763 0 1.618-.026 2.072-.113 2.748-.104.676-.312 1.353-.729 1.909a.941.941 0 01.27.257c.043.069.078.103.104.103zm8.562-6.384c.043 0 .321-.017 1.137-.017h2.075v4.956c0 .933-.018 1.319-.018 1.37 0 .06.008.069.069.069h.46c.06 0 .069-.009.069-.069 0-.043-.018-.437-.018-1.37v-3.142c.842.36 1.537.754 2.379 1.327.06.043.078.043.156-.068l.182-.248c.069-.095.052-.112 0-.146a13.864 13.864 0 00-2.718-1.396v-1.284h2.449c.825 0 1.094.017 1.137.017.061 0 .069-.008.069-.068h.003v-.41c0-.06-.008-.069-.069-.069-.043 0-.312.017-1.137.017h-5.088c-.816 0-1.094-.017-1.137-.017-.061 0-.07.009-.07.069v.411c0 .059.009.068.07.068zm-13.719 16.829c-1.085-1.292-1.493-2.431-1.493-3.963s.408-2.67 1.493-3.963l-.251-.206c-1.242 1.233-1.815 2.5-1.815 4.169s.573 2.936 1.815 4.169l.251-.206zm2.978-.864h.651v-1.455h.877v-.565h-.877V143.4h-.99l-2.179 4.28v.531h2.518v1.455zm-1.875-2.02l1.155-2.337c.217-.437.4-.873.608-1.344h.147c-.017.557-.035 1.011-.035 1.507v2.174h-1.875zm4.375 1.087h.946v.933h-.946zm4.471-5.333h-.591a5.958 5.958 0 01-1.476.736l.122.625c.486-.179.92-.394 1.25-.616v4.948h-1.259v.573h3.134v-.573h-1.18V143.4zm3.115 1.439c.156-.608.599-.899 1.111-.899.599 0 1.042.359 1.042 1.001 0 .71-.451 1.147-1.346 1.147h-.434v.608h.486c.964 0 1.424.471 1.424 1.275 0 .753-.46 1.224-1.155 1.224-.625 0-1.008-.257-1.242-.916l-.694.257c.33.864.964 1.241 1.936 1.241 1.129 0 1.901-.719 1.901-1.815 0-.822-.504-1.404-1.337-1.575v-.077c.746-.145 1.198-.676 1.198-1.429 0-.899-.738-1.524-1.771-1.524-.859 0-1.536.437-1.814 1.25l.695.232zm12.683-.977c.417-.3.53-.437.53-.745 0-.377-.295-.599-.729-.599-.417 0-.686.214-.808.608l.391.086c.052-.231.174-.385.408-.385.218 0 .348.12.348.308 0 .179-.061.265-.426.539-.356.257-.582.48-.729.762v.274h1.562v-.317h-1.146c.121-.171.287-.308.599-.531zm-5.382 2.226v-.793h-.677v4.374h.694v-2.996c.33-.548.79-.865 1.198-.865.434 0 .695.257.695.89v2.97h.694v-2.996c.304-.523.756-.865 1.181-.865.46 0 .729.274.729.89v2.97h.712v-3.219c0-.796-.486-1.25-1.189-1.25-.581 0-1.085.343-1.476.882-.087-.531-.512-.882-1.111-.882-.582 0-1.042.325-1.45.89zm6.731-3.483c1.086 1.292 1.494 2.431 1.494 3.963s-.409 2.671-1.494 3.963l.252.206c1.241-1.233 1.814-2.5 1.814-4.169s-.572-2.936-1.814-4.169l-.252.206zm31.114-32.7v4.948h-1.259v.573h3.134v-.573h-1.18v-5.693h-.591a5.958 5.958 0 01-1.476.736l.122.625c.486-.179.92-.394 1.25-.616zm-140.82 6.62v4.948h-1.259v.573h3.134v-.573h-1.18v-5.693h-.591a5.958 5.958 0 01-1.476.736l.122.625c.486-.179.92-.394 1.25-.616zm6.778.737c0-.899-.738-1.524-1.771-1.524-.859 0-1.536.437-1.814 1.25l.695.232c.156-.608.598-.899 1.111-.899.599 0 1.042.359 1.042 1.001 0 .71-.451 1.147-1.346 1.147h-.434v.608h.486c.964 0 1.424.471 1.424 1.275 0 .753-.46 1.224-1.155 1.224-.625 0-1.008-.257-1.242-.916l-.694.257c.33.864.964 1.241 1.936 1.241 1.129 0 1.901-.719 1.901-1.815 0-.822-.504-1.404-1.337-1.575v-.077c.746-.145 1.198-.676 1.198-1.429zm179.356 84.921h-12.592v-11.506a.188.188 0 10-.376 0v11.694c0 .104.084.188.188.188h12.78a.188.188 0 100-.376zm10.006 0h-8.56a.188.188 0 100 .376h8.56a.188.188 0 100-.376zm10.007 0h-8.56a.188.188 0 100 .376h8.56a.188.188 0 100-.376zm9.886 0h-8.56a.188.188 0 100 .376h8.56a.188.188 0 100-.376zm10.006 0h-8.56a.188.188 0 100 .376h8.56a.188.188 0 100-.376zm14.226-11.694a.188.188 0 00-.188.188v11.393l-10.098-4.931a.188.188 0 10-.165.338l9.637 4.706H540.18a.188.188 0 100 .376h12.779c.044 0 .084-.02.118-.049.01-.008.016-.016.024-.026.009-.011.021-.017.028-.03.007-.014 0-.029.003-.043.003-.014.017-.024.016-.04v-11.694a.19.19 0 00-.189-.188zm0-10.007a.188.188 0 00-.188.188v8.56a.188.188 0 10.376 0v-8.56a.188.188 0 00-.188-.188zm0-10.006a.188.188 0 00-.188.188v8.56a.188.188 0 10.376 0v-8.56a.188.188 0 00-.188-.188zm0-9.887a.188.188 0 00-.188.188v8.56a.188.188 0 10.376 0v-8.56a.188.188 0 00-.188-.188zm0-10.006a.188.188 0 00-.188.188v8.56a.188.188 0 10.376 0v-8.56a.188.188 0 00-.188-.188zm-22.786-12.765h8.56a.188.188 0 100-.376h-8.56a.188.188 0 100 .376zm-10.006 0h8.56a.188.188 0 100-.376h-8.56a.188.188 0 100 .376zm-9.886 0h8.56a.188.188 0 100-.376h-8.56a.188.188 0 100 .376zm-10.007 0h8.56a.188.188 0 100-.376h-8.56a.188.188 0 100 .376zm-14.226 11.694a.188.188 0 00.188-.188v-11.506h12.592a.188.188 0 100-.376H486.05l-.002-.001a.188.188 0 00-.188.188v11.695c0 .104.084.188.188.188zm0 10.007a.188.188 0 00.188-.188v-8.56a.188.188 0 10-.376 0v8.56c0 .104.084.188.188.188zm0 10.006a.188.188 0 00.188-.188v-8.56a.188.188 0 10-.376 0v8.56c0 .104.084.188.188.188zm0 9.887a.188.188 0 00.188-.188v-8.56a.188.188 0 10-.376 0v8.56c0 .104.084.188.188.188zm0 10.006a.188.188 0 00.188-.188v-8.56a.188.188 0 10-.376 0v8.56c0 .104.084.188.188.188zm67.08-51.873c-.005-.011-.018-.013-.025-.022a.194.194 0 00-.048-.042.162.162 0 00-.069-.029c-.01-.002-.016-.011-.027-.011H540.18a.188.188 0 100 .376h11.981l-1.938.969-.001.002-7.713 3.735a.188.188 0 00.164.338l7.716-3.737.003-.001 2.379-1.19v11.39a.188.188 0 10.376 0V137.63c0-.015-.013-.024-.016-.038-.003-.016.004-.032-.003-.047zm-11.946 5.582l-7.595 3.738a.187.187 0 00-.086.252.19.19 0 00.252.086l7.595-3.738a.187.187 0 00.086-.252.189.189 0 00-.252-.086zm-16.555 8.435a.183.183 0 00.082-.019l7.716-3.737a.188.188 0 00-.164-.338l-7.716 3.737a.188.188 0 00.082.357zm-8.921 4.34a.187.187 0 00.083-.019l7.595-3.738a.187.187 0 00.086-.252.189.189 0 00-.252-.086l-7.595 3.738a.187.187 0 00-.086.252.19.19 0 00.169.105zm-9.042 4.34a.183.183 0 00.082-.019l7.716-3.737a.188.188 0 00-.164-.338l-7.716 3.737a.188.188 0 00.082.357zm-9.091 4.234a.187.187 0 00.251.087l7.716-3.738a.188.188 0 00-.164-.338l-7.716 3.738a.188.188 0 00-.087.251zm-.987.438a.189.189 0 00-.252-.086l-10.368 5.063c-.02.01-.026.031-.041.046-.016.016-.038.023-.048.045v.01c-.009.022-.003.045-.003.069 0 .025-.005.049.004.071.001.003-.001.007.001.01.018.039.05.065.086.082l.005.006 2.652 1.206 7.712 3.736a.187.187 0 00.251-.087.187.187 0 00-.087-.251l-7.716-3.738-.003-.003-2.288-1.041 10.008-4.887a.187.187 0 00.087-.251zm1.238 10.523a.187.187 0 00-.251.087.187.187 0 00.087.251l7.716 3.738a.186.186 0 00.251-.087.187.187 0 00-.087-.251l-7.716-3.738zm8.758 4.679l7.716 3.737a.187.187 0 00.251-.087.187.187 0 00-.087-.251l-7.716-3.737a.188.188 0 10-.164.338zm16.636 8.076a.187.187 0 00.252-.086.188.188 0 00-.086-.252l-7.595-3.737a.189.189 0 00-.166.338l7.595 3.737zm9.044 4.342a.189.189 0 00.251-.087.187.187 0 00-.087-.251l-7.716-3.737a.187.187 0 00-.251.087.187.187 0 00.087.251l7.716 3.737zm1.239.349a.188.188 0 00.086.252l7.595 3.738c.026.014.055.02.083.02a.189.189 0 00.083-.358l-7.595-3.738a.189.189 0 00-.252.086zm128.808-70.391a.188.188 0 00-.188.188v1.567a.188.188 0 10.376 0v-1.567a.188.188 0 00-.188-.188zm0 3.014a.188.188 0 00-.188.188v1.447a.188.188 0 10.376 0v-1.447a.188.188 0 00-.188-.188zm0 2.893a.188.188 0 00-.188.188v1.447a.188.188 0 10.376 0v-1.447a.188.188 0 00-.188-.188zm0 2.773a.188.188 0 00-.188.188v1.447a.188.188 0 10.376 0v-1.447a.188.188 0 00-.188-.188zm0 2.894a.188.188 0 00-.188.188v1.447a.188.188 0 10.376 0v-1.447a.188.188 0 00-.188-.188zm0 2.893a.188.188 0 00-.188.188v1.447a.188.188 0 10.376 0v-1.447a.188.188 0 00-.188-.188zm0 2.773a.188.188 0 00-.188.188v1.447a.188.188 0 10.376 0v-1.447a.188.188 0 00-.188-.188zm0 2.894a.188.188 0 00-.188.188v1.447a.188.188 0 10.376 0v-1.447a.188.188 0 00-.188-.188zm0 2.894a.188.188 0 00-.188.188v1.326a.188.188 0 10.376 0v-1.326a.188.188 0 00-.188-.188zm0 2.772a.188.188 0 00-.188.188v1.447a.188.188 0 10.376 0v-1.447a.188.188 0 00-.188-.188zm0 2.893a.188.188 0 00-.188.188v1.447a.188.188 0 10.376 0v-1.447a.188.188 0 00-.188-.188zm0 2.773a.188.188 0 00-.188.188v1.447a.188.188 0 10.376 0v-1.447a.188.188 0 00-.188-.188zm0 2.894a.188.188 0 00-.188.188v1.447a.188.188 0 10.376 0v-1.447a.188.188 0 00-.188-.188zm0 2.894a.188.188 0 00-.188.188v1.326a.188.188 0 10.376 0v-1.326a.188.188 0 00-.188-.188zm0 2.772a.188.188 0 00-.188.188v1.447a.188.188 0 10.376 0v-1.447a.188.188 0 00-.188-.188zm0 2.894a.188.188 0 00-.188.188v1.447a.188.188 0 10.376 0V165.6a.188.188 0 00-.188-.188zm0 7.489a.187.187 0 00.188-.188v-1.447a.188.188 0 10-.376 0v1.447c0 .104.084.188.188.188zm0 2.894a.188.188 0 00.188-.188v-1.447a.188.188 0 10-.376 0v1.447c0 .104.084.188.188.188zm0 2.773a.188.188 0 00.188-.188v-1.447a.188.188 0 10-.376 0v1.447c0 .104.084.188.188.188zm0 2.893a.187.187 0 00.188-.188v-1.447a.188.188 0 10-.376 0v1.447c0 .104.084.188.188.188zm0 2.773a.187.187 0 00.188-.188v-1.326a.188.188 0 10-.376 0v1.326c0 .104.084.188.188.188zm0 2.893a.187.187 0 00.188-.188v-1.447a.188.188 0 10-.376 0v1.447c0 .104.084.188.188.188zm0 2.894a.188.188 0 00.188-.188v-1.447a.188.188 0 10-.376 0v1.447c0 .104.084.188.188.188zm0 2.773a.188.188 0 00.188-.188v-1.326a.188.188 0 10-.376 0v1.326c0 .104.084.188.188.188zm0 2.893a.187.187 0 00.188-.188v-1.447a.188.188 0 10-.376 0v1.447c0 .104.084.188.188.188zm0 2.894a.188.188 0 00.188-.188v-1.447a.188.188 0 10-.376 0v1.447c0 .104.084.188.188.188zm0 2.773a.188.188 0 00.188-.188v-1.447a.188.188 0 10-.376 0v1.447c0 .104.084.188.188.188zm0 2.893a.187.187 0 00.188-.188v-1.447a.188.188 0 10-.376 0v1.447c0 .104.084.188.188.188zm0 2.773a.187.187 0 00.188-.188v-1.326a.188.188 0 10-.376 0v1.326c0 .104.084.188.188.188zm0 2.893a.187.187 0 00.188-.188v-1.447a.188.188 0 10-.376 0v1.447c0 .104.084.188.188.188zm0 2.894a.187.187 0 00.188-.188v-1.447a.188.188 0 10-.376 0v1.447c0 .104.084.188.188.188zm0 2.894a.188.188 0 00.188-.188v-1.567a.188.188 0 10-.376 0v1.567c0 .104.084.188.188.188zm-1.862-46.683v-.042a.188.188 0 00-.188-.188h-.042l-.065-.065a.188.188 0 00-.133-.055h-.362a.19.19 0 00-.133.055l-.065.065h-.042a.19.19 0 00-.133.055l-.362.362a.188.188 0 00-.055.133v.482c0 .05.02.098.055.133l.362.362a.188.188 0 00.133.055h.042l.065.065a.188.188 0 00.133.055h.362c.049 0 .097-.02.133-.057l.065-.065h.042a.188.188 0 00.188-.188v-.042l.186-.186a.188.188 0 00.055-.133v-.482c0-.05-.02-.098-.055-.133l-.186-.186zm-.135.723l-.186.186a.188.188 0 00-.046.075.197.197 0 00-.074.046l-.065.065h-.206l-.065-.067a.188.188 0 00-.133-.055h-.042l-.251-.251v-.326l.251-.251h.042a.19.19 0 00.133-.055l.065-.065h.206l.065.065a.185.185 0 00.074.046.188.188 0 00.046.075l.186.186v.326zM383.075 85.999a1.024 1.024 0 01-.304-.171c-.018.489-.087.677-.191.771-.096.095-.322.146-.704.146-.225 0-.416-.017-.503-.043-.122-.034-.165-.085-.165-.325v-.697c.486-.205.973-.445 1.424-.702a.723.723 0 01.191-.068c.078-.017.104-.052.104-.086s-.009-.06-.052-.103a2.79 2.79 0 00-.338-.291 1.184 1.184 0 01-.287.257 6.147 6.147 0 01-1.042.548v-.556c0-.411.009-.514.061-.608a.238.238 0 00.035-.128c0-.035-.035-.06-.113-.069a4.768 4.768 0 00-.512-.051c.035.155.052.446.052.865v1.883c0 .36.139.471.312.531.156.06.452.077.799.077.538 0 .859-.077 1.024-.205s.278-.282.339-.753c.009-.154.017-.171-.13-.222zm-.635 3.82v-.847c0-.642.018-.864.018-.907 0-.051-.009-.06-.07-.06-.052 0-.313.017-1.068.017h-1.024c.078-.137.147-.274.217-.411a.456.456 0 01.13-.171c.044-.034.07-.06.07-.103 0-.042-.035-.068-.087-.085a3.249 3.249 0 00-.512-.128 2.079 2.079 0 01-.13.496c-.052.145-.113.265-.182.402h-.061c-.764 0-1.025-.017-1.068-.017-.06 0-.069.008-.069.06 0 .043.017.266.017 1.019v.745c0 1.301-.017 1.506-.017 1.549 0 .059.008.068.069.068h.374c.06 0 .069-.008.069-.068v-.343h2.822v.325c0 .059.008.068.069.068h.382c.061 0 .07-.008.07-.068 0-.043-.018-.249-.018-1.541h-.001zm-.502.804h-2.822v-.95h2.822v.95zm0-1.352h-2.822v-.839h2.822v.839zm-1.572-2.775c.009-.094.017-.179.035-.265-.512.18-.946.326-1.354.437v-1.234h.738c.373 0 .452.017.495.017.06 0 .069-.008.069-.06v-.342c0-.06-.008-.069-.069-.069-.043 0-.121.017-.495.017h-.738v-.248c0-.419.018-.608.061-.676a.213.213 0 00.035-.12c0-.034-.035-.068-.104-.077a4.323 4.323 0 00-.539-.051c.052.214.061.531.061.993v1.977a8.246 8.246 0 01-.686.12c.043.154.104.308.165.445.026.068.061.111.096.111s.069-.026.104-.06c.052-.051.121-.077.295-.128a33.62 33.62 0 001.658-.556c.165-.06.165-.068.173-.231zm6.597 2.947c.173-.051.173-.051.173-.231 0-.103.009-.205.035-.308-.773.257-1.485.411-2.153.539v-1.31h1.085c.582 0 .747.017.799.017.061 0 .069-.009.069-.077v-.343c0-.059-.008-.068-.069-.068-.052 0-.217.017-.799.017h-1.085v-1.104h1.12c.573 0 .747.017.79.017.061 0 .07-.009.07-.069v-.351c0-.06-.009-.069-.07-.069-.043 0-.217.017-.79.017h-1.12v-.907c.755-.18 1.232-.334 1.771-.591.122-.06.295-.146.391-.163.07-.009.122-.034.122-.077 0-.051-.017-.077-.043-.111a2.102 2.102 0 00-.365-.368c-.113.112-.244.206-.495.343a6.465 6.465 0 01-1.45.514 3.544 3.544 0 00-.495-.137c.052.265.061.539.061 1.061v3.845c-.416.06-.572.077-.772.077.035.18.078.377.113.497.017.077.052.111.087.111a.17.17 0 00.104-.051c.026-.026.139-.069.321-.103l.147-.026c-.009.848-.017 1.259-.017 1.293 0 .059.008.068.069.068h.399c.06 0 .069-.008.069-.068 0-.035-.017-.48-.017-1.396.66-.137 1.276-.291 1.945-.488zm-10.929 9.369h.946v.933h-.946zm5.703-.772c0-.822-.504-1.404-1.337-1.575v-.077c.746-.145 1.198-.676 1.198-1.429 0-.899-.738-1.524-1.771-1.524-.859 0-1.536.437-1.814 1.25l.695.232c.156-.608.599-.899 1.111-.899.599 0 1.042.359 1.042 1.001 0 .71-.451 1.147-1.346 1.147h-.434v.608h.486c.964 0 1.424.471 1.424 1.275 0 .753-.46 1.224-1.155 1.224-.625 0-1.008-.257-1.242-.916l-.694.257c.33.864.964 1.241 1.936 1.241 1.129 0 1.901-.719 1.901-1.815zm2.718-3.817v4.948h-1.259v.573h3.134v-.573h-1.18v-5.693h-.591a5.958 5.958 0 01-1.476.736l.122.625c.486-.179.92-.394 1.25-.616zm10.657-.282c.417-.3.53-.437.53-.745 0-.377-.295-.599-.729-.599-.417 0-.686.214-.808.608l.391.086c.052-.231.174-.385.408-.385.218 0 .348.12.348.308 0 .179-.061.265-.426.539-.356.257-.582.48-.729.762v.274h1.562v-.317h-1.146c.121-.171.287-.308.599-.531zm-1.346 1.335c-.581 0-1.085.343-1.476.882-.087-.531-.512-.882-1.111-.882-.582 0-1.042.325-1.45.89v-.796h-.677v4.377h.694v-2.996c.33-.548.79-.865 1.198-.865.434 0 .695.257.695.89v2.97h.694V96.75c.304-.523.756-.865 1.181-.865.46 0 .729.274.729.89v2.97h.712v-3.219c0-.796-.486-1.25-1.189-1.25zm-246.135 41.322a.188.188 0 00-.188.188v8.56a.188.188 0 10.376 0v-8.56a.188.188 0 00-.188-.188zm0 10.006a.188.188 0 00-.188.188v8.56a.188.188 0 10.376 0v-8.56a.188.188 0 00-.188-.188zm0 10.007a.188.188 0 00-.188.188v8.56a.188.188 0 10.376 0v-8.56a.188.188 0 00-.188-.188zm0 9.886a.188.188 0 00-.188.188v8.56a.188.188 0 10.376 0v-8.56a.188.188 0 00-.188-.188zm0 10.007a.188.188 0 00-.188.188v8.56a.188.188 0 10.376 0v-8.56a.188.188 0 00-.188-.188zm0 10.006a.188.188 0 00-.188.188v8.56a.188.188 0 10.376 0v-8.56a.188.188 0 00-.188-.188zm0 18.822a.187.187 0 00.188-.188v-8.56a.188.188 0 10-.376 0v8.56c0 .104.084.188.188.188zm0 10.007a.188.188 0 00.188-.188v-8.56a.188.188 0 10-.376 0v8.56c0 .104.084.188.188.188zm0 10.006a.187.187 0 00.188-.188v-8.56a.188.188 0 10-.376 0v8.56c0 .104.084.188.188.188zm0 9.887a.188.188 0 00.188-.188v-8.56a.188.188 0 10-.376 0v8.56c0 .104.084.188.188.188zm0 10.006a.187.187 0 00.188-.188v-8.56a.188.188 0 10-.376 0v8.56c0 .104.084.188.188.188zm0 10.007a.188.188 0 00.188-.188v-8.56a.188.188 0 10-.376 0v8.56c0 .104.084.188.188.188zm515.522-46.296a.188.188 0 00.188-.188v-8.56a.188.188 0 10-.376 0v8.56c0 .104.084.188.188.188zm0-10.006a.188.188 0 00.188-.188v-8.56a.188.188 0 10-.376 0v8.56c0 .104.084.188.188.188zm0-10.007a.188.188 0 00.188-.188v-8.439a.188.188 0 10-.376 0v8.439c0 .104.084.188.188.188zm0-9.886a.188.188 0 00.188-.188v-8.56a.188.188 0 10-.376 0v8.56c0 .104.084.188.188.188zm0-18.943a.188.188 0 00-.188.188v8.56a.188.188 0 10.376 0v-8.56a.188.188 0 00-.188-.188zm0-9.885a.188.188 0 00-.188.188v8.439a.188.188 0 10.376 0v-8.439a.188.188 0 00-.188-.188zm0-10.007a.188.188 0 00-.188.188v8.56a.188.188 0 10.376 0v-8.56a.188.188 0 00-.188-.188zm0-10.007a.188.188 0 00-.188.188v8.56a.188.188 0 10.376 0v-8.56a.188.188 0 00-.188-.188z"/><path d="M690.4 108.145h-16.939V60.47c0-.1-.081-.181-.181-.181H144.323V49.257a.188.188 0 00-.188-.188l-.003.001h-97.65l-.003-.001a.188.188 0 00-.188.188v241.486c0 .104.084.188.188.188h97.655a.188.188 0 00.188-.188v-11.876H673.28c.1 0 .181-.081.181-.181v-47.674H690.4a.188.188 0 00.188-.188V108.333a.188.188 0 00-.188-.188zM46.668 258.379h89.081v.898a.188.188 0 10.376 0v-1.447a.184.184 0 00-.05-.121.181.181 0 00.05-.12.188.188 0 00-.188-.188H46.668v-17.95h89.109c.029.067.082.121.16.121a.188.188 0 00.188-.188v-1.447a.188.188 0 10-.376 0v.535H46.668v-18.07h89.269a.188.188 0 100-.376H46.668v-.106h89.269a.188.188 0 00.188-.188.184.184 0 00-.17-.18.185.185 0 00.17-.181v-1.326a.188.188 0 10-.376 0v1.326c0 .09.068.154.152.173H46.668v-18.07h89.081v.897a.188.188 0 10.376 0v-1.447a.184.184 0 00-.05-.121.181.181 0 00.05-.12.188.188 0 00-.188-.188H46.668v-17.949h89.269a.188.188 0 00.188-.188v-1.447a.188.188 0 10-.376 0v.656H46.668v-18.07h89.269a.188.188 0 100-.376H46.668v-.106h89.269a.188.188 0 00.188-.188.185.185 0 00-.171-.181.185.185 0 00.171-.181v-1.447a.188.188 0 10-.376 0v1.447c0 .091.069.156.154.174H46.668v-18.07h89.081v.777a.188.188 0 10.376 0v-1.447c0-.024-.017-.04-.025-.06.008-.021.025-.037.025-.06a.188.188 0 00-.188-.188H46.668v-17.949h89.269a.188.188 0 00.188-.188v-1.447a.188.188 0 10-.376 0v.656H46.668v-18.07h97.286v12.953c0 .1.081.181.181.181v.114h-4.18a.172.172 0 00-.113-.102c-.023-.077-.083-.139-.168-.139h-1.326a.188.188 0 00-.188.188c0 .089.066.152.149.172-.01.023-.028.041-.028.068v.722l-.001.002.001.002v2.409a.188.188 0 10.376 0v-2.223h.829v.83h-.134c-.029-.067-.082-.121-.16-.121a.188.188 0 00-.188.188v.121c0 .104.084.188.188.188h.294v.495c-.022.01-.049.011-.065.028-.025.025-.033.061-.041.097v-.327a.188.188 0 10-.376 0v73.235h-.709v-72.149a.188.188 0 10-.376 0v72.149h-1.794v-.415a.188.188 0 10-.376 0v.415h-2.585a.188.188 0 100 .376h2.585v.535a.188.188 0 10.376 0v-.535h1.794v72.27a.188.188 0 10.376-.001V196.05h.709v73.354a.188.188 0 10.376 0v-.325c.013.06.051.101.106.124v.496h-.292l-.002-.001a.188.188 0 00-.188.188v.121c0 .104.084.188.188.188.077 0 .131-.053.16-.12h.134v.829h-.829v-2.223a.188.188 0 10-.376 0v2.409l-.001.002.001.002v.722c0 .027.018.046.029.069-.083.02-.149.083-.149.172 0 .104.084.188.188.188h1.447a.188.188 0 00.188-.188c0-.021-.016-.034-.022-.053h3.993v4.326H46.668v-17.951zm89.081-.549v.173H46.668v-.226h89.103c-.006.019-.022.032-.022.053zm0-18.755H46.668v-.227h89.081v.227zm0-38.151v.174H46.668v-.227h89.103c-.006.019-.022.032-.022.053zm0-18.754H46.668v-.227h89.081v.227zm0-37.977H46.668v-.227h89.081v.227zm0-18.928H46.668v-.227h89.081v.227zm540.96-5.532v1.139c0 .104.084.188.188.188h.777v1.74c0 .104.084.188.188.188.09 0 .154-.068.173-.152v46.554h-1.794v-45.144a.188.188 0 10-.376 0v45.144h-.347v-1.34c.067-.029.12-.082.12-.16s-.054-.132-.121-.16l-.004-.369-.12-.482c-.005-.02-.024-.029-.034-.046-.012-.019-.02-.036-.037-.05-.021-.017-.043-.022-.069-.029-.016-.004-.027-.018-.044-.018h-.053v-39.047h.053c.047 0 .089-.02.122-.051.012-.01.015-.024.024-.038.012-.018.03-.032.035-.055l.126-.528v-.322c.067-.029.121-.083.121-.16s-.053-.131-.12-.16v-3.216a.188.188 0 00-.188-.188h-.482c-.021 0-.035.016-.054.022v-.61h1.071v1.258a.188.188 0 10.376 0v-1.889c.067-.029.121-.083.121-.16v-.844a.188.188 0 00-.188-.188h-.053v-.83h.589zm2.17 0v.348h-.829v-.348h.829zm-.829 99.691v-.348h.829v.348h-.829zm-.965 0v-.951h.589v.413l-.001.002.001.002v.534h-.589zm-.964 0v-.83h.053a.188.188 0 00.188-.188v-.844c0-.078-.054-.132-.121-.16v-1.89a.188.188 0 10-.376 0v1.259h-1.071v-1.379a.188.188 0 00-.188-.188h-.603a.188.188 0 00-.188.188v1.379h-.535v-.777h-.655v-3.215c.067-.029.12-.082.12-.16 0-.077-.053-.131-.12-.16l-.004-.369-.121-.482c-.005-.02-.023-.029-.034-.045-.012-.02-.02-.037-.038-.051-.02-.016-.041-.021-.066-.027-.016-.005-.028-.019-.046-.019h-.053v-39.047h.053c.046 0 .088-.02.122-.05.013-.011.017-.026.026-.041.012-.018.029-.031.034-.053l.126-.528v-.315c.019.006.032.022.053.022h.001c.001 0 0 0 0 0h2.652a.188.188 0 00.188-.188v-1.499h.347v45.143a.188.188 0 10.376 0v-45.143h1.794v46.554c-.019-.084-.083-.152-.173-.152a.188.188 0 00-.188.188v1.74h-.777a.188.188 0 00-.188.188v1.139h-.588zm-2.841 0v-.951h2.465v.951h-2.465zm-531.61 52.203v-.897c0-.021-.016-.034-.022-.053h2.487v.95h-2.465zm-.964 0v-1.138a.188.188 0 00-.188-.188h-.656v-1.259c0-.077-.053-.131-.12-.16v-.202a.188.188 0 00-.188-.188c-.091 0-.156.069-.174.154v-72.597h1.914v71.185a.188.188 0 10.376 0v-71.185h.227v1.62c0 .008.008.013.009.021.001.009-.006.016-.004.024l.125.496.121.362a.183.183 0 00.111.107v65.129c-.015.006-.024.015-.036.024a.171.171 0 00-.047.053c-.008.012-.023.018-.028.032l-.125.375-.121.482c-.002.009.005.017.004.026-.001.008-.009.013-.009.021v3.376c0 .104.084.188.188.188h.536v.588h-.951v-1.258a.188.188 0 10-.376 0v1.889c-.067.029-.12.082-.12.16v.965c0 .077.053.131.12.16v.737h-.588zm-.844 0v-.95h.468v.95h-.468zm-.376 0h-.829v-.348h.829v.348zm.844-150.461h-.468v-.95h.468v.95zm-1.673-.95h.829v.347h-.829v-.347zm.723 2.98c.018.085.083.154.174.154a.188.188 0 00.188-.188v-.201c.022-.01.048-.01.065-.027a.187.187 0 00.055-.133v-1.259h.656a.187.187 0 00.188-.188v-1.138h.588v.736c-.067.029-.12.082-.12.16v.965c0 .077.053.131.12.16v1.89a.188.188 0 10.376 0v-1.259h.951v1.259c0 .104.084.188.188.188h.603a.188.188 0 00.188-.188v-1.259h.535v.776h.656v3.376c0 .007.007.012.008.019.001.009-.006.017-.004.026l.125.496.121.362c.007.02.023.031.035.047.009.012.013.023.024.033.016.014.034.02.053.028v65.128c-.015.006-.024.016-.037.025a.173.173 0 00-.045.052c-.008.013-.023.018-.028.033l-.125.375-.116.462h-2.716a.188.188 0 00-.188.188v1.379h-.227v-71.064a.188.188 0 10-.376 0v71.064h-1.914v-72.477zm4.755-2.98v.95h-2.487c.006-.019.022-.032.022-.053v-.897h2.465zm531.73.844v.95h-1.071v-.95h1.071zm-1.447.95h-1.07v-.95h1.07v.95zm-.95 49.068v-.106h1.674v.106h-1.674zm-.603 0v-.347h.227v.347h-.227zm1.326 44.502h.227v1.191h-.227v-1.191zm.227 1.567v.95h-1.07v-.95h1.07zm1.447.95h-1.071v-.95h1.071v.95zM141.67 270.301v-.951h.951v.951h-.951zm1.327-.951h1.07v.951h-1.07v-.951zm.95-74.868v.106h-1.674v-.106h1.674zm.723 0v.347h-.347v-.347h.347zm-1.446-70.543h-.227v-1.071h.227v1.071zm-.227-1.447v-.95h1.07v.95h-1.07zm-1.327-.95h.951v.95h-.951v-.95zm532.521 46.522v-.174a.188.188 0 00-.188-.188l-.003.001h-.072c.006-.019.022-.032.022-.053v-40.87c0-.021-.016-.035-.022-.054h.875c-.006.019-.022.033-.022.054v40.87c0 .021.016.034.022.053h-.193l-.003-.001a.188.188 0 00-.188.188v.174h-.228zm-530.967 29.311v.174c0 .104.084.188.188.188h.075c-.006.019-.022.032-.022.053v66.912c0 .021.016.034.022.053h-.852v-67.018h.174a.188.188 0 00.188-.188v-.174h.227zm-.951 69.309v-1.191h.295c.019 0 .04-.004.059-.01.014-.005.019-.02.032-.028a.157.157 0 00.055-.047.149.149 0 00.025-.061c.004-.015.017-.025.017-.042v-.121c0-.021-.016-.034-.022-.053h1.213v1.553h-1.674zm0 .376h.107v.468h-.107v-.468zm.536.468c-.021 0-.034.016-.053.022v-.49h.829v.496c-.017.007-.038.009-.052.021a.184.184 0 00-.121-.05l-.002.001h-.601zm.791.836c.019.006.032.022.053.022h.482a.188.188 0 00.188-.188v-3.255c0-.004-.004-.007-.004-.011 0-.005.004-.008.003-.012l-.12-.964c-.003-.027-.023-.043-.035-.065-.01-.017-.012-.036-.026-.049-.019-.018-.045-.021-.071-.029-.019-.007-.034-.023-.055-.023h-.174v-65.117c.02-.009.044-.01.06-.025.027.023.054.047.091.052a.189.189 0 00.21-.164l.12-.965c0-.004-.003-.007-.003-.012 0-.004.004-.006.004-.01v-1.5h.106v.294c0 .104.084.188.188.188h.174v.348h-.174a.188.188 0 00-.188.188v.482c0 .104.084.188.188.188h1.741v69.812c-.019-.006-.032-.022-.053-.022l-.002.001h-.598l-.002-.001a.188.188 0 00-.188.188v.724h-1.379v.535h-.536v-.61zm.723-73.159h.128c-.006.019-.022.032-.022.053v.415h-.106v-.468zm530.819-70.408v1.191h-.174a.188.188 0 00-.188.188v.174h-1.312v-1.553h1.674zM145.89 267.904h.227v.535h-.227v-.535zm526.735-99.598v-.227h.105v.227h-.105zm-.716 44.125h-.37V171.3c.018.085.083.154.174.154h.196c-.006.019-.022.033-.022.054v40.87c0 .021.016.034.022.053zM146.84 196.879h-.106v-.83h.106v.83zm-1.311-69.791h.829v67.018h-.051l-.002-.001a.188.188 0 00-.188.188v.174h-.227v-.174a.188.188 0 00-.188-.188l-.002.001h-.171v-67.018zm527.563-3.926v3.255c0 .007.007.012.008.019.001.008-.006.014-.004.022l.01.046c-.003.013-.014.021-.014.034a.18.18 0 00.047.113l.198.892c.005.024.024.04.037.059.009.013.012.027.024.038a.182.182 0 00.123.051h.053v39.047h-.053c-.016 0-.027.013-.042.017-.028.007-.052.012-.074.031-.017.014-.024.031-.035.05-.01.017-.029.027-.033.048l-.199.895a.187.187 0 00-.039.095.185.185 0 00-.181-.171h-1.379v-43.75h.174a.188.188 0 00.188-.188v-.604h1.191v.001zm-522.152 9.089l-.71-1.694v-6.732h1.674v43.769l-.2.045-.104-.736c-.051-.42-.069-.659-.043-.762.018-.077-.008-.128-.069-.137-.138 0-.494.009-.616.026.087.291.148.582.2.925l.11.795-.469.103c-.152.036-.319.051-.483.073v-36.392l.362.864a.187.187 0 00.247.101.19.19 0 00.101-.248zm-2.586-8.313a.188.188 0 00-.188.188v1.506l-.347-.828v-.979h2.035v5.835l-1.312-3.131v-2.403a.188.188 0 00-.188-.188zm-3.187 70.905h1.191v.83h-1.191v-.83zm527.082-26.764v.106h-.71v-.106h.71zm-1.086.106h-.588v-.106h.588v.106zm1.086 1.582v.95h-.172l-.002-.001-.002.001h-.357l-.002-.001-.002.001h-.172v-.95h.709zm-1.086.95h-.051l-.002-.001-.002.001h-.533v-.95h.588v.95zm-519.446 24.797l.065.065v.042c0 .02.016.034.021.052h-1.571v-.095l.065-.065a.188.188 0 00.055-.133v-.042l.053-.01a.19.19 0 00.133-.055l.186-.186h.48l.201.101c.026.013.055.02.084.02h.042l.131.131v.042c0 .05.02.098.055.133zm-1.485.535h1.646l-.041.041a.188.188 0 00-.055.133v.042l-.065.065a.188.188 0 00-.055.133v.042l-.131.131h-.042a.189.189 0 00-.084.02l-.201.101h-.48l-.187-.185a.188.188 0 00-.133-.055h-.042l-.01-.053c0-.05-.02-.098-.055-.133l-.065-.065v-.217zm2.048 0h3.67a.188.188 0 100-.376h-3.67v-11.882c.208.195.431.39.686.583l.217-.248a6.745 6.745 0 01-.903-.903v-6.035c.247-.303.544-.602.903-.903l-.217-.249a8.452 8.452 0 00-.686.583v-2.356l9.059 3.387c-.1.04-.196.091-.299.124l.122.625a6.3 6.3 0 00.966-.454l.284.106v4.68h-1.259v.573h3.134v-.573h-1.18v-4.42l2.608.975a7.93 7.93 0 00-.09 1.201c0 2.012.807 2.928 1.927 2.928 1.05 0 1.814-.813 1.814-2.14 0-.238-.033-.453-.083-.655l2.521.943v1.744h.694v-1.485l1.893.708v.776h.694v-.516l1.897.709a.187.187 0 00.242-.111c.011-.028 0-.055-.003-.083h.485v-3.219c0-.796-.486-1.25-1.189-1.25-.581 0-1.085.343-1.476.882-.087-.531-.512-.882-1.111-.882-.582 0-1.042.325-1.45.89v-.793h-.677v2.228l-2.688-1.005c-.279-.537-.771-.85-1.374-.85-.196 0-.385.05-.567.124l-.765-.286c.176-1.041.607-1.576 1.306-1.576.373 0 .677.18.833.608l.687-.299c-.269-.548-.773-.882-1.502-.882-.969 0-1.67.587-1.96 1.911l-2.667-.997v-.871h-.591a6.863 6.863 0 01-.674.398l-9.561-3.575v-1.048a1.8 1.8 0 00.135-.036c.034-.017.052-.052.043-.12-.07-.358-.126-.735-.178-1.09v-1.532l.5-.119.747-.154c.043-.018.06-.043.052-.103a3.49 3.49 0 00-.079-.36c-.025-.06-.043-.06-.086-.051a8.076 8.076 0 01-.686.188l-.448.109v-1.561l.049-.011c.26-.06.495-.111.738-.154.035-.009.061-.034.043-.094-.017-.111-.052-.257-.078-.368-.017-.061-.035-.069-.078-.052-.25.086-.467.154-.674.205v-43.685h2.103c.1 0 .181-.081.181-.181v-22.839h22.484a.188.188 0 100-.376h-22.484v-5.652h28.392a.188.188 0 100-.376h-28.392v-5.652h34.42a.188.188 0 100-.376h-34.42v-5.532h40.328a.188.188 0 100-.376h-40.328v-5.652h46.355a.188.188 0 100-.376h-46.355v-5.539h146.482v50.696c0 .1.081.181.181.181h7.716c.1 0 .181-.081.181-.181v-7.527h1.266a.188.188 0 100-.376h-1.266v-.227h20.249v.175c0 .02.016.034.021.052h-.559a.188.188 0 100 .376h.686c.009.022.01.049.027.066l.186.186v.163c0 .05.02.098.055.133l.121.121a.209.209 0 00.049.035l.241.121c.026.013.055.02.084.02h.042l.065.065a.209.209 0 00.049.035l.241.121c.026.013.055.02.084.02h.042l.065.065a.188.188 0 00.133.055h.362a.189.189 0 00.084-.02l.202-.1h.317a.19.19 0 00.133-.055l.22-.22.213-.107a.19.19 0 00.049-.035l.362-.362a.188.188 0 00.055-.133v-.163l.011-.011h.163a.188.188 0 100-.376h-.054v-.227h19.758v.227h-1.259a.188.188 0 100 .376h1.266v7.527c0 .1.081.181.181.181h32.256l1.35 1.859a.186.186 0 00.152.078.189.189 0 00.153-.299l-1.19-1.638h26.837c.1 0 .181-.081.181-.181v-3.669h20.489v.295c0 .05.02.098.055.133l.065.065v.163c0 .05.02.098.055.133l.603.603a.209.209 0 00.049.035l.241.121c.026.013.055.02.084.02h.042l.065.065a.188.188 0 00.133.055h.965c.05 0 .098-.02.132-.053l.099-.099.173-.087h.076a.19.19 0 00.133-.055l.362-.362a.19.19 0 00.035-.049l.107-.214.099-.099a.188.188 0 00.055-.133v-.076l.101-.201a.189.189 0 00.02-.084v-.176h19.525v3.669c0 .1.081.181.181.181h5.357v1.026c0 .048.018.097.055.133l.121.12a.191.191 0 00.133.055h.683c.029.067.082.121.16.121h.965c.078 0 .132-.054.16-.121h.202a.184.184 0 00.121-.05c.033.029.073.05.12.05h.053v18.62h-7.648a.241.241 0 000 .482h7.648v19.697l-.005-.01c-.005-.011-.018-.013-.025-.022a.159.159 0 00-.048-.041.166.166 0 00-.07-.029c-.01-.002-.016-.011-.026-.011h-2.291c-.01 0-.016.009-.026.011a.165.165 0 00-.066.027.156.156 0 00-.053.046c-.006.008-.017.01-.022.019l-.121.241c-.007.014 0 .029-.003.044-.004.015-.017.025-.017.041v1.024h-5.358c-.1 0-.181.081-.181.181v.827c-.001.006-.007.01-.007.017s.006.01.007.017v10.575c-.001.006-.007.01-.007.017s.006.01.007.017v.827a.18.18 0 00.181.181h5.358v1.025c0 .016.013.026.017.041.003.014-.004.029.003.043l.121.241c.006.012.017.017.025.027.009.011.016.02.027.029a.187.187 0 00.113.047l.002.001h2.291c.044 0 .084-.02.118-.049l.023-.024c.009-.011.022-.018.028-.031l.005-.01v19.698h-7.648a.241.241 0 000 .482h7.648v18.62h-.053a.18.18 0 00-.12.05.182.182 0 00-.121-.05h-.322c-.029-.067-.082-.121-.16-.121h-.845c-.078 0-.132.054-.16.121h-.683a.187.187 0 00-.133.055l-.121.12c-.003.003-.002.008-.005.011a.186.186 0 00-.05.122v1.025h-5.357c-.1 0-.181.081-.181.181v50.696h-46.529V169.58l.001-.003v-.241a.189.189 0 00-.02-.084l-.103-.206v-.073c0-.05-.02-.098-.055-.133l-.115-.115-.003-.004-.121-.121-.004-.003-.119-.119a.188.188 0 00-.133-.055h-.042l-.064-.064-.001-.001a.188.188 0 00-.133-.055h-.844l-.002.001h-76.911l-.004-.001h-.723l-.004.001H183.438c-.004 0-.008.003-.013.003h-.107a.19.19 0 00-.114.047c.024-.093.051-.183.073-.278.043-.171.078-.266.139-.334.043-.06.052-.146-.026-.223a1.838 1.838 0 00-.348-.257c-.052-.026-.113-.042-.156-.017s-.078.059-.208.068l-1.138.042c.07-.188.122-.36.2-.582.052-.146.105-.317.174-.377.06-.06.06-.154-.009-.188-.131-.085-.374-.162-.582-.222a6.062 6.062 0 01-.243 1.07c-.26.848-.712 1.806-1.276 2.534.147.043.33.103.417.171.051.035.104.035.147-.034.4-.531.721-1.147 1.016-1.892l1.372-.06c-.226 1.105-.521 1.969-.903 2.731a8.337 8.337 0 01-1.702 2.303c.148.026.374.103.452.18.07.06.113.069.174.009a8.599 8.599 0 001.554-2.208c.025-.05.05-.111.075-.163v14.568l-1.313-.485a.189.189 0 00-.131.354l1.444.533v70.359l-20.007 7.48h-.004l-10.115 3.712v-71.099zm-.376-13.357c-.47-.767-.649-1.57-.649-2.487 0-.916.179-1.72.649-2.486v4.973zm16.466-2.413c.169.239.265.58.265 1.013 0 1.011-.417 1.55-1.085 1.55-.712 0-1.215-.617-1.216-2.021.306-.553.673-.831 1.073-.902l.963.36zm-2.052-.1c.005-.234.019-.45.039-.653l.406.152a2.005 2.005 0 00-.445.501zm10.677 2.923l-1.91-.714v-2.077c.304-.523.756-.865 1.181-.865.46 0 .729.274.729.89v2.766zm-2.604-.974l-1.893-.708v-1.109c.33-.548.79-.865 1.198-.865.434 0 .695.257.695.89v1.792zm290.137-98.819v-.708h.18a.192.192 0 00.134-.055l.066-.066h1.782v.829h-2.162zm1.922 38.474v.415c0 .023.017.039.025.06-.008.021-.025.037-.025.06v.415h-.381c.085-.018.154-.083.154-.175v-.065a.188.188 0 00.121-.176v-.12c0-.05-.02-.098-.055-.133l-.121-.121a.188.188 0 00-.133-.055h-.362a.188.188 0 00-.188.188v.362a.19.19 0 00.13.179.188.188 0 00.16.124c-.016.002-.027.012-.042.017-.021-.008-.037-.025-.06-.025h-.415v-.95h1.192zm.594 41.459c.006-.019.022-.032.022-.053v-.796a.159.159 0 00.073-.055c.009-.011.022-.017.028-.03l.005-.01v.944h-.128zm-1.786 54.132v-.95h.415c.024 0 .04-.017.06-.025.015.006.026.016.042.018a.194.194 0 00-.115.047l-.121.121a.188.188 0 00-.055.133v.362c0 .104.084.188.188.188h.362a.188.188 0 00.178-.25.188.188 0 00.076-.313l-.241-.241c-.025-.025-.062-.032-.097-.04h.499v.415c0 .024.017.04.025.06-.008.021-.025.037-.025.061v.414h-1.191zm1.432 39.679v.83h-2.155v-.95h.096l.065.065a.187.187 0 00.133.055h1.861zm.376.83v-.857c.023-.009.048-.009.067-.028l.04-.04v.925h-.107zm-284.284-1.663l1.915-.716v12.754h-1.915V256.22zm0-70.482l1.915.707v68.656l-1.915.716v-70.079zm250.957-67.533l-.065-.065v-.215h2.996v.13l-.101.201a.189.189 0 00-.02.084v.042l-.065.065a.19.19 0 00-.035.049l-.107.214-.285.285h-.042a.189.189 0 00-.084.02l-.241.121a.19.19 0 00-.049.035l-.065.065h-.809l-.064-.067a.188.188 0 00-.133-.055h-.076l-.174-.087-.526-.526v-.163c0-.05-.02-.098-.055-.133zm-84.598-5.117l-17.706-10.209V92.486h10.493l12.264 21.211h-.936v-.421a.188.188 0 00-.188-.188h-3.927zm-17.412.603a.188.188 0 100 .376h.896v.096l-.285.285-.213.107a.19.19 0 00-.049.035l-.186.186h-.284a.189.189 0 00-.084.02l-.202.1h-.239l-.063-.066a.188.188 0 00-.133-.055h-.076l-.174-.087-.099-.099a.188.188 0 00-.133-.055h-.076l-.174-.087-.044-.044v-.163c0-.05-.02-.098-.055-.133l-.04-.04h.266a.188.188 0 100-.376h-.44c-.009-.022-.01-.049-.027-.066l-.065-.065v-.096h2.995v.227h-1.016zM466.69 82.104h-1.859a.19.19 0 00-.135.054l-.067.067h-.094v-.951h2.155v.83zM331.247 92.11a.188.188 0 00-.188.188v10.365l-21.935-12.647V70.898h20.322l12.265 21.212h-10.464zm133.1-11.212s-.001 0 0 0l-.001-10.18h.001v10.18zM358.513 90.17l4.118 1.7-4.283-.692.165-1.008zm11.777 10.268l-.87-1.197.604-4.316 3.384 1.397a9.802 9.802 0 01-.473.462c-.946.865-1.502 1.601-1.858 2.431v.531h3.708v-.591h-2.987c.287-.625.729-1.182 1.667-1.995.241-.208.435-.394.599-.567l3.164 1.306a.189.189 0 00.246-.102.19.19 0 00-.103-.246l-3.045-1.257c.344-.44.451-.806.451-1.24 0-1.019-.73-1.618-1.763-1.618-.935 0-1.634.544-1.849 1.553l-1.086-.449.175-1.25c.004-.031-.012-.056-.022-.083-.006-.018-.003-.039-.014-.054-.018-.024-.048-.033-.076-.047-.016-.008-.026-.025-.045-.028h-.005l-.039-.006c.12-.115.24-.23.378-.345l-.208-.239h7.252v17.843l-7.07-9.733.026-.03c-.051-.045-.092-.088-.141-.13zm3.382-4.415l-1.869-.772.039.009c.113-.822.53-1.233 1.164-1.233.607 0 1.024.393 1.024 1.027 0 .344-.079.613-.358.969zm-7.232-3.537h.666v.108l-.666-.108zm1.042 0h2.72a8.571 8.571 0 00-.609.509l-2.11-.341v-.168zm10.369 0h9.992v21.211h-7.921l-2.071-2.851v-18.36zm-.376-7.756c-.248.668-.471 1.21-.868 1.945.064.075.116.141.171.209l-.501.207v-2.548h1.198v.187zm-.347 1.886c.133-.238.243-.45.347-.659v.842a.188.188 0 00-.245-.101l-.026.011-.076-.093zm.347.329v.105l-.044-.061c.014-.016.036-.025.044-.044zm.376 2.368c.14-.191.215-.424.215-.694 0-.308-.043-.603-.215-.963v-2.531c.042-.102.084-.202.128-.314a.672.672 0 01.156-.274c.043-.042.069-.077.069-.111 0-.043-.034-.103-.156-.231-.106-.106-.152-.138-.197-.146v-13.15h9.992v15.113c-.187.331-.456.567-.775.795.095.042.2.111.295.205.061.06.096.094.13.094s.069-.035.13-.086c.079-.064.151-.13.22-.196v.594c-.243-.005-.361-.011-.393-.011-.06 0-.069.008-.069.068v.343c0 .059.008.068.069.068.033 0 .147-.008.393-.009v2.59c-.378.189-.803.36-1.296.509.104.094.182.197.243.308.078.145.096.145.252.094.291-.109.553-.225.801-.345v1.078h-9.992v-2.798zm11.092.446a5.35 5.35 0 01-.724.498v-1.553c.211.408.451.76.724 1.055zm-.608-1.892h2.005c-.251.565-.572 1.096-1.05 1.575-.382-.411-.695-.916-.955-1.575zm-.116 25.83V92.486h8.638l-.209.24c.779.653 1.269 1.301 1.563 1.989v3.861c-.294.689-.784 1.337-1.563 1.991l.217.248a6.897 6.897 0 001.346-1.308v14.19h-9.992zm8.657-21.211h1.335v1.299a6.874 6.874 0 00-1.335-1.299zm-8.657-.376v-1.271a6.551 6.551 0 001.08-.729c.564.505 1.224.864 1.962 1.198a.436.436 0 00.13.043c.044 0 .061-.043.113-.137.061-.128.139-.231.243-.334-.842-.308-1.528-.633-2.092-1.104.486-.504.833-1.052 1.12-1.626.051-.103.112-.231.173-.274.061-.043.087-.06.087-.111 0-.043-.052-.12-.165-.24-.113-.12-.174-.163-.243-.163a.203.203 0 00-.095.026.414.414 0 01-.174.034v.001h-1.875l-.264-.001v-1.059c.274-.44.397-.987.403-1.809h1.207v1.447c0 .334.052.505.226.616.104.077.277.094.607.094.391 0 .643-.043.79-.18.148-.154.2-.377.243-.745.008-.137.008-.154-.122-.205a.927.927 0 01-.304-.188c-.009.411-.043.599-.104.719-.061.103-.226.146-.443.146-.208 0-.278-.009-.321-.052-.061-.052-.087-.146-.087-.334v-.992c0-.471.018-.676.018-.728 0-.059-.009-.068-.07-.068-.043 0-.2.017-.703.017h-.686c-.423 0-.584-.011-.654-.015V70.898h9.992V92.11h-9.992zm-10.744-21.212v13.184h-.997c-.417 0-.599-.017-.651-.017-.061 0-.069.008-.069.068 0 .051.017.556.017 1.789v1.377l-8.293 3.424V70.898h9.993zm-1.7 16.808v1.905c0 1.215-.017 1.72-.017 1.763 0 .059.008.068.069.068h.399c.06 0 .069-.008.069-.068 0-.043-.018-.582-.018-1.772v-2.104l.74-.305c.241.331.383.594.458.822v.953c-.141.253-.458.331-.955.3.07.086.122.206.148.334.026.172.026.172.2.163a1.63 1.63 0 00.607-.146v2.49h-9.993v-.981l8.293-3.422zm-8.669 4.404h-2l2-.825v.825zm.033.871c.031.06.082.108.155.108a.184.184 0 00.136-.061l1.831.296a5.385 5.385 0 00-.537.656l-2.958-1.221 1.373.222zm2.595.419l.122.02-.136.971-.566-.234c.156-.256.353-.507.58-.757zm-.069 1.376l-.59 4.216c-.409-.725-.572-1.486-.572-2.346 0-.786.135-1.488.468-2.156l.694.286zm9.791 18.921h-9.441v-12.998l9.441 12.998zm19.131 0V98.939c.382-.692.552-1.438.552-2.293 0-.855-.169-1.601-.552-2.294v-1.866h9.993v21.211h-9.993zm0-21.587V70.898h9.993V92.11h-9.993zm-41.849-21.212v10.943l-7.909-10.943h7.909zm.376 0h9.992v19.979l-2.947 1.217-5.584-2.305.708-4.333a.186.186 0 00-.034-.14v-.001l-2.135-2.954V70.898zm1.784 14.575l-.681 4.168-1.103-.456v-6.182l1.784 2.47zm-.743 4.55l-.209 1.28-.001.002a.189.189 0 00.156.216l3.651.59h-4.638v-2.517l1.041.429zm5.057 2.463l-6.098 2.517v-2.517h6.098zm.947.016l4.363 1.801c-.402.706-.583 1.467-.583 2.342 0 1.458.484 2.603 1.7 3.696v13.356h-12.525V95.411l7.045-2.909zm44.797 21.195V92.486h.777c.001 0 0 0 0 0h14.322l-12.265 21.211h-2.834zm.777-21.587h-.777V70.898h27.582L424.272 92.11h-14.539zm54.648 29.779c.007-.001.012-.006.019-.008v.008h-.019zM329.88 70.898h18.484l8.374 11.586v6.547l-5.648-2.332a.189.189 0 00-.246.102.19.19 0 00.103.246l5.791 2.391v2.672h-14.593L329.88 70.898zm26.858 21.588v2.673l-5.79 2.39a.188.188 0 10.143.348l5.647-2.331v18.131h-2.111l-12.264-21.211h14.375zm56.069 21.392a.18.18 0 00-.181-.181h-.401l12.265-21.211h10.494v10.457l-22.176 12.784v-1.849zm22.552-21.58a.188.188 0 00-.188-.188h-10.464l12.265-21.212h19.598v19.6l-21.211 12.228V92.298zM309.124 90.45l21.935 12.647v8.304h-.053c-.05 0-.098.02-.133.056l-.065.065h-.042a.189.189 0 00-.084.02l-.201.101h-.076a.19.19 0 00-.133.055l-.099.099-.214.107a.209.209 0 00-.049.035l-.121.121a.188.188 0 00-.055.133v.163l-.186.186a.188.188 0 00-.055.133v.163l-.065.065a.188.188 0 00-.055.133v.052h-20.249V90.45zm20.691 22.598a.188.188 0 00.055-.133v-.163l.186-.186a.188.188 0 00.055-.133v-.163l.258-.151a.209.209 0 00.049-.035l.065-.065h.042a.189.189 0 00.084-.02l.201-.101h.076c.05 0 .098-.02.133-.055l.04-.04v1.285h-1.284l.04-.04zm1.62.04v-1.254l.089.045c.026.013.055.02.084.02h.284l.186.186a.19.19 0 00.049.035l.213.107.285.285v.163c0 .05.02.098.055.133l.065.065v.215h-1.31zm1.632-.426l-.065-.065v-.163c0-.05-.02-.098-.055-.133l-.362-.362a.19.19 0 00-.049-.035l-.213-.107-.22-.22a.188.188 0 00-.133-.055h-.317l-.201-.101c-.005-.003-.011-.002-.017-.004v-8.103l16.952 9.774h-15.265v-.293c0-.05-.02-.098-.055-.133zm79.74 3.5l22.176-12.784v12.487h-.295a.19.19 0 00-.133.055l-.065.065h-.042a.189.189 0 00-.084.02l-.241.121a.209.209 0 00-.049.035l-.482.482a.19.19 0 00-.035.049l-.121.241a.189.189 0 00-.02.084v.042l-.065.065a.188.188 0 00-.055.133v.293h-20.489v-1.388zm20.867 1.17l.065-.065a.188.188 0 00.055-.133v-.076l.087-.174.439-.439.174-.087h.076a.19.19 0 00.133-.055l.065-.065h.215v1.311h-1.309v-.217zm1.685.217v-1.311h.01l.201.101c.026.013.055.02.084.02h.076l.201.101c.026.013.055.02.084.02h.042l.165.164.107.214a.19.19 0 00.035.049l.186.186v.163c0 .05.02.098.055.133l.065.065v.095h-1.311zm1.631-.304l-.065-.065v-.163c0-.05-.02-.098-.055-.133l-.22-.219-.107-.214a.19.19 0 00-.035-.049l-.241-.241a.188.188 0 00-.133-.055h-.076l-.201-.101a.189.189 0 00-.084-.02h-.076l-.201-.101a.189.189 0 00-.084-.02h-.053v-12.703l21.211-12.228v26.616h-19.525v-.171c0-.05-.02-.098-.055-.133zm25.507 5.488l-.012-.011v-.938h.979c.029.067.082.12.16.12h.327c-.085.018-.154.083-.154.174v.603c0 .021.016.034.022.053h-1.322zm2.761.376h.415c.024 0 .04-.017.06-.025.021.008.037.025.06.025h.776v18.62h-1.312v-18.62zm.61-.844h.089l.001.001a.18.18 0 00-.044.027.177.177 0 00-.046-.028zm.702 19.946v19.825h-1.312v-19.825h1.312zm-1.978 19.96l.069.137c.006.013.018.019.027.029.008.01.014.018.024.026a.185.185 0 00.117.048h1.861v.777c0 .021.016.034.022.053h-4.227v-.972l.05-.099h2.057zm-2.057 14.815l-.05-.1v-.971h4.227c-.006.019-.022.032-.022.053v.777h-1.861c-.01 0-.016.009-.026.011a.175.175 0 00-.068.028.162.162 0 00-.05.044c-.007.009-.019.01-.024.021l-.069.138h-2.057zm2.723.135h1.312v19.825h-1.312v-19.825zm1.312 20.307v18.62h-.776c-.024 0-.04.017-.06.025-.021-.008-.037-.025-.06-.025h-.415v-18.62h1.311zm-.629 19.463h-.08v-.08l.08.08zm-3.946 51.548l.639-.001-.001.001h-.638zm-1.773-.001l-.617.001-.001-.001h.618zm.534 0h.71l.001.001-.711-.001zm3.627-51.17h.017v.007c-.006-.002-.011-.006-.017-.007zm-5.301 51.17l-.738.001.001-.001h.737zm4.086 0h.147v.001l-.147-.001zm.523.001l3.006-.001v.001h-3.006zm.128-52.015c-.006.019-.022.032-.022.053v.603c0 .091.069.156.154.174h-.325l-.002-.001c-.078 0-.132.054-.16.121h-.979v-.938l.012-.011h1.322zm-278.746 38.939l2.276-.851v1.268a.188.188 0 10.376 0v-1.326c0-.028-.019-.048-.03-.071l.257-.096v13.971h-.227v-2.471a.188.188 0 10-.376 0v2.471h-2.276v-12.895zm67.682-84.972l-.288-.287v-.042c0-.05-.02-.098-.055-.133l-.065-.065v-.567l.065-.065a.188.188 0 00.055-.133v-.042l.29-.29.164-.082h.606l.065.065a.188.188 0 00.133.055h.046l.063.063a.209.209 0 00.049.035l.043.022c.009.022.01.048.027.065l.186.186v.4l-.001.003v.406l-.185.185c-.016.016-.016.041-.025.062l-.047.023a.209.209 0 00-.049.035l-.062.062-.045.003a.19.19 0 00-.133.055l-.065.065h-.605l-.167-.084zm154.619.46v97.407h-2.276v-2.471a.188.188 0 10-.376 0v2.381l-.227-.085v-94.044a.186.186 0 00-.175-.183l.402-.15v2.382a.188.188 0 10.376 0v-2.653c0-.001 0 0 0 0 0-.011-.01-.017-.011-.028-.002-.013.006-.025.001-.038-.006-.016-.022-.021-.031-.034a.16.16 0 00-.111-.074c-.013-.003-.022-.015-.035-.015h-2.532a.188.188 0 100 .376h1.486l-.61.227H188.14a.188.188 0 00-.188.188v13.206l-.227-.084v-1.067a.188.188 0 10-.376 0v.928l-2.276-.841v-15.331h222.301zm-77.286-1.117l-.078-.156.079-.158a.195.195 0 00.019-.079l.001-.003v-.163l.411-.41.165-.082h.605l.065.065a.188.188 0 00.133.055h.042l.167.167.205.409v.394l-.208.415-.167.167h-.039a.19.19 0 00-.133.055l-.063.063h-.604l-.176-.088-.403-.403v-.163l-.002-.005a.188.188 0 00-.019-.08zm-140.929 83.699l-.831.311v-65.957l19.399 7.165a.187.187 0 00.242-.112.188.188 0 00-.111-.242l-19.53-7.214v-13.157h109.697v38.739l-10.849 4.057a.188.188 0 00-.11.242.188.188 0 00.242.111l10.717-4.008v15.034l-2.398-.89a.188.188 0 10-.131.353l2.529.938v39.455H188.328v-14.112l.963-.36a.188.188 0 00.11-.242.188.188 0 00-.242-.111zm119.113-79.206v34.925l-6.267 2.325-3.604 1.348v-38.598h9.871zm-6.135 37.603s0-.001 0 0l6.135-2.277v22.65l-9.871-3.662v-15.314l3.736-1.397zm-3.736 17.113l9.871 3.662v35.653h-9.871v-39.315zm10.247 3.801l24.222 8.986a.188.188 0 00.13-.353l-24.352-9.034v-22.929l20.132-7.47a.189.189 0 00.111-.242.189.189 0 00-.242-.111l-20.001 7.421v-34.785h93.595l-38.872 14.464a.189.189 0 00.066.365.2.2 0 00.066-.012l39.821-14.817h.795v93.715l-9.751-3.657-.002-.002-26.765-9.886a.189.189 0 00-.131.354l26.765 9.886.003.001 9.654 3.62h-95.244v-35.514zm-121.299-45.319v.117c0 .104.084.188.188.188.097 0 .17-.075.18-.169l.235.087v66.236l-2.879 1.076v-68.376l2.276.841zm220.401 80.833v-97.407h1.379a.18.18 0 00.132-.055l.067-.067h.041a.19.19 0 00.133-.055l.114-.114.007-.005.042-.042v97.745h-1.915zm1.71-99.285l.101.202.002.007.101.201v.392l-.208.415-.078.077-.214.107a.209.209 0 00-.049.035l-.065.065h-.601l-.172-.086-.406-.404v-.042c0-.05-.02-.098-.055-.133l-.065-.065v-.327l.065-.065a.188.188 0 00.055-.133v-.042l.41-.41.165-.082h.605l.065.065c.002.002.005.001.007.003a.202.202 0 00.042.03l.208.104.087.086zm-1.789-.25a.19.19 0 00-.035.049l-.241.482a.18.18 0 00-.018.076c0 .003-.003.005-.003.007v.238l-.001.003v.241l.001.004v.652H331.94l.282-.282a.188.188 0 00.055-.133v-.239l.001-.004v-.237l.001-.002v-.241l-.002-.008v-.232c0-.05-.02-.098-.055-.133l-.234-.234-.005-.007-.04-.04h75.769l-.041.04zm-77.762-.001a.19.19 0 00-.035.049l-.121.241a.175.175 0 00-.019.081l-.002.004v.163l-.065.065a.188.188 0 00-.055.133v.241c0 .05.02.098.055.133l.064.064v.164c0 .029.007.058.02.084l.121.241a.19.19 0 00.035.049l.041.041H254.28l.01-.005a.185.185 0 00.084-.084l.12-.241a.182.182 0 00.017-.073c0-.004.005-.007.005-.011v-.477l.002-.005v-.482a.189.189 0 00-.02-.084l-.121-.241a.19.19 0 00-.084-.084l-.012-.006h75.668l-.04.04zm-77.713-.034a.19.19 0 00-.084.084l-.121.241a.189.189 0 00-.02.084v.477l-.002.005v.482c0 .029.007.058.02.084l.121.241a.19.19 0 00.084.084l.01.005h-67.131v-1.137a.189.189 0 00-.02-.084l-.102-.204v-.072c0-.05-.02-.098-.055-.133l-.112-.112c-.003-.003-.005-.008-.008-.01l-.041-.041h67.472l-.011.006zm-68.112-.003l.065.065c.002.002.005.001.007.003a.202.202 0 00.042.03l.209.105.085.085.101.202.002.007.101.201v.394l-.001.002-.1.199v.001l-.106.211-.078.077-.213.107a.209.209 0 00-.049.035l-.065.065h-.601l-.338-.169v-.003c0-.05-.02-.098-.055-.133l-.186-.186v-.042c0-.05-.02-.098-.055-.133l-.065-.065v-.017c.076-.207.148-.422.217-.646l.089-.089a.188.188 0 00.055-.133l.137-.073.008-.006.189-.094h.605zm-1.302 1.829l.041.041a.19.19 0 00.049.035l.214.107.099.099a.188.188 0 00.133.055h1.379v15.192l-1.915-.707v-14.822zm274.151 97.924h.474v.001l-.474-.001c0 .001 0 0 0 0zm.85 0h.028l-.001.001-.027-.001zm9.39-91.58l-.005-.01c-.005-.011-.018-.013-.025-.022a.147.147 0 00-.048-.041c-.011-.007-.017-.021-.029-.025v-.791c0-.021-.016-.034-.022-.053h.129v.942zm0-94.66l-.04-.04c-.019-.018-.044-.018-.067-.027v-.857h.107v.924zm-315.269 86.818l-.131-.915.131-.03v.945zm10.615 94.778l.007-.001 19.88-7.433v11.898H152.28v-.706l10.239-3.758zm-10.615 4.464h-1.547l1.547-.568v.568zm518.671-98.867v-.83h.588v.83h-.588zm-.188-1.688a.188.188 0 00-.188.188v1.5h-.95v-45.626a.188.188 0 10-.376 0v45.626h-6.376v-.897a.188.188 0 10-.376 0v.897h-.227V122.68a.188.188 0 10-.376 0v46.711h-.053a.188.188 0 100 .376h.053v45.746a.188.188 0 10.376 0v-45.746h.227v.053a.188.188 0 10.376 0v-.053h6.376v45.625a.188.188 0 10.376 0v-45.625h.95v1.379c0 .007.007.012.008.019.001.008-.005.014-.004.021l.01.044c-.003.013-.015.022-.015.036 0 .046.021.086.049.119l.197.886c.005.024.024.04.037.059.009.013.012.027.024.038a.182.182 0 00.123.051h.053v39.047h-.053c-.018 0-.03.015-.047.019-.025.007-.047.011-.067.028-.019.015-.027.034-.039.055-.009.016-.027.026-.031.045l-.198.893a.185.185 0 00-.047.113c0 .013.011.021.014.034l-.01.045c-.002.008.005.015.004.023-.001.007-.008.012-.008.019v2.585h-.295a.188.188 0 00-.188.188v.3h-6.375v-5.605a.188.188 0 10-.376 0v10.73c0 .007.006.01.007.017v47.303H467.059v-9.999h.302a.188.188 0 00.188-.188v-1.205a.189.189 0 00-.054-.135l-.121-.121a.19.19 0 00-.138-.053h-.111c-.021-.001-.038.014-.059.021v-.797a.188.188 0 10-.376 0v.897h-1.781l-.067-.067a.19.19 0 00-.138-.053h-.176V217.75h.06c.089 0 .152-.066.172-.149.008.003.014.007.022.009.023.077.083.139.168.139h1.808a.188.188 0 00.188-.188v-.081c.067-.029.121-.083.12-.16v-1.447c0-.077-.053-.131-.12-.16v-1.127c.067-.029.121-.082.12-.16v-1.447c0-.077-.053-.131-.12-.16v-1.126c.067-.029.121-.082.12-.16v-1.326c0-.077-.053-.131-.12-.16v-1.127c.067-.029.121-.082.12-.16v-1.447c0-.077-.053-.131-.12-.16v-1.126c.067-.029.121-.083.12-.16v-1.447c0-.077-.053-.131-.12-.16v-1.006c.067-.029.121-.083.12-.16v-1.447c0-.077-.053-.131-.12-.16v-1.127c.067-.029.121-.082.12-.16v-1.447c0-.077-.053-.131-.12-.16v-1.126c.026-.011.052-.018.071-.04h7.457a.241.241 0 000-.482h-7.408v-1.085c0-.077-.053-.131-.12-.16v-1.006c.067-.029.121-.083.12-.16v-1.447c0-.077-.053-.131-.12-.16V191.8c.067-.029.121-.082.12-.16v-1.447c0-.077-.053-.131-.12-.16v-1.126c.067-.029.121-.083.12-.16v-1.326c0-.077-.053-.131-.12-.16v-1.127c.067-.029.121-.082.12-.16v-1.447c0-.077-.053-.131-.12-.16v-1.127c.067-.029.121-.082.12-.16v-1.447c0-.077-.053-.131-.12-.16v-1.006c.067-.029.121-.082.12-.16v-1.447c0-.077-.053-.131-.12-.16v-1.126c.067-.029.121-.083.12-.16v-.068c.017.005.033.014.051.014l.002.001h.121a.18.18 0 00.14-.074c.009-.011.022-.017.028-.03l.121-.241c.007-.015 0-.03.003-.046.003-.014.016-.023.016-.038v-1.206a.188.188 0 00-.188-.188h-.302v-.638c.001-.006.007-.01.007-.017s-.006-.01-.007-.017v-.327c.001-.006.007-.01.007-.017v-1.326c0-.007-.006-.01-.007-.017v-1.413c.001-.006.007-.01.007-.017v-1.447c0-.007-.006-.01-.007-.017v-1.413c.001-.006.007-.01.007-.017v-1.447c0-.007-.006-.01-.007-.017v-1.412c.001-.006.007-.01.007-.017v-1.326c0-.007-.006-.01-.007-.017v-.328c.001-.006.007-.01.007-.017s-.006-.01-.007-.017v-.639h.302a.188.188 0 00.188-.188v-1.206c0-.015-.012-.024-.016-.038-.003-.016.004-.032-.003-.047l-.121-.241c-.005-.011-.018-.013-.025-.022a.155.155 0 00-.047-.041.166.166 0 00-.07-.029c-.01-.002-.016-.011-.026-.011h-.121c-.01 0-.016.009-.026.011-.009.001-.018-.005-.027-.002v-.062c0-.077-.053-.131-.12-.16v-1.127c.067-.029.121-.082.12-.16v-1.447c0-.077-.053-.131-.12-.16v-1.006c.067-.029.121-.082.12-.16v-1.447c0-.077-.053-.131-.12-.16v-1.126c.067-.029.121-.083.12-.16v-1.447c0-.077-.053-.131-.12-.16v-1.127c.067-.029.121-.082.12-.16v-1.326c0-.077-.053-.131-.12-.16v-1.126c.067-.029.121-.083.12-.16v-1.447c0-.077-.053-.131-.12-.16v-1.127c.067-.029.121-.082.12-.16v-1.447c0-.077-.053-.131-.12-.16v-1.006c.067-.029.121-.082.12-.16v-1.085h7.408a.241.241 0 000-.482h-7.458c-.018-.021-.044-.029-.07-.04v-1.127c.067-.029.121-.082.12-.16v-1.447c0-.077-.053-.131-.12-.16v-1.126c.067-.029.121-.082.12-.16v-1.447c0-.077-.053-.131-.12-.16v-1.006c.067-.029.121-.082.12-.16v-1.447c0-.077-.053-.131-.12-.16v-1.126c.067-.029.121-.083.12-.16v-1.447c0-.077-.053-.131-.12-.16v-1.127c.067-.029.121-.082.12-.16v-1.326c0-.077-.053-.131-.12-.16v-1.127c.067-.029.121-.082.12-.16v-1.447c0-.077-.053-.131-.12-.16v-1.126c.067-.029.121-.083.12-.16v-1.447c0-.077-.053-.131-.12-.16v-.081a.188.188 0 00-.188-.188h-1.809c-.085 0-.145.062-.168.14-.008.002-.014.006-.021.009-.02-.082-.083-.149-.172-.149h-.06v-19.758h22.484a.188.188 0 100-.376h-22.484v-5.652h28.513a.188.188 0 100-.376h-28.513v-5.531h34.54a.188.188 0 100-.376h-32.156c.086-.018.155-.084.154-.174v-1.447a.188.188 0 10-.376 0v1.447c0 .091.069.156.154.174h-2.316v-5.653h40.448a.188.188 0 100-.376h-37.91v-.73c.019.006.032.022.053.022h.121a.194.194 0 00.134-.055l.121-.121a.185.185 0 00.054-.135v-1.204a.188.188 0 00-.188-.188h-.302v-3.241h43.945a.188.188 0 100-.376h-43.945v-6.383h195.913v47.304c-.001.006-.007.01-.007.017v10.73a.188.188 0 10.376 0v-5.606h6.375v.301c0 .104.084.188.188.188h.362a.187.187 0 00.188-.188v-.483h.468v.604c0 .104.084.188.188.188h.053v43.75h-.776zM146.84 125.159v1.553h-.106v-1.553h.106zm3.39 43.302c.156-.043.322-.089.535-.137l.486-.103.217 1.507-.764.163c-.161.034-.316.053-.474.077v-1.507zm0 2.037c.172-.047.329-.084.535-.136l.773-.163.174 1.241c.051.437.121.899.173 1.327.003.034.011.047.019.063v.89l-1.674-.626v-2.596zm1.674 3.624v2.872c-.859.951-1.213 1.967-1.213 3.211s.354 2.26 1.213 3.211v11.632l-.162-.162a.188.188 0 00-.133-.055h-.076l-.201-.101a.189.189 0 00-.084-.02h-.603a.19.19 0 00-.133.055l-.186.186h-.042c-.02 0-.035.016-.054.022v-21.477l1.674.626zm-1.674 22.749c.019.006.034.022.054.022h.042l.186.186a.188.188 0 00.133.055h.603a.167.167 0 00.084-.022l.201-.101h.076a.19.19 0 00.133-.055l.162-.162v70.494l-1.674.614v-71.031zm521.309-27.48v-.83h.71v.654l-.001.002.001.002v.172h-.71zm-525.422-45.452h-.227v-.295h.227v.295zm-.468.354c.019.006.032.022.053.022h.603c.021 0 .034-.016.053-.022v.49h-.709v-.49zm-.482 71.756h1.191v.83h-1.191v-.83zm1.567-.376v-.83h.106v.83h-.106zm.482-1.379c0-.004-.004-.007-.004-.011 0-.005.004-.008.003-.012l-.121-.964c-.003-.021-.02-.034-.029-.052-.011-.023-.016-.047-.035-.063-.017-.015-.04-.017-.062-.025-.021-.008-.037-.025-.061-.025h-.053v-65.089h.053a.19.19 0 00.127-.052c.012-.011.014-.028.022-.042.014-.023.034-.042.038-.071l.121-.964c.001-.005-.004-.009-.004-.014 0-.004.004-.006.004-.009v-2.559l.227.542v10.577a.188.188 0 10.376 0v-9.68l.347.828v69.065h-.95v-1.38zm1.326-66.789l1.312 3.131v42.318l-.469-.175a.188.188 0 00-.132.353l.601.225v22.317h-1.312v-68.169zm1.312 68.544v71.992l-.592.217h-.72v-72.209h1.312zm522.033 19.303l-.002.001c-.02-.082-.083-.149-.172-.149h-.174v-.468h.348v.616zm-.724-.148h-.053c-.078 0-.132.054-.16.121h-.013v-.589h.226v.468zm-.588-.844v-1.553h.588v1.553h-.588zm.46-1.929c.006-.019.022-.032.022-.053v-40.87c0-.021-.016-.035-.022-.054h.075c.021 0 .034-.016.053-.022v40.999h-.128zm-525.762-87.648h-.106v-.468h.106v.468zm1.085.376v1.553h-.731c.006-.019.022-.032.022-.053v-.121c0-.016-.013-.026-.017-.041a.173.173 0 00-.026-.064.159.159 0 00-.052-.044c-.013-.008-.019-.024-.034-.029-.011-.004-.021.004-.032.002-.01-.002-.017-.011-.027-.011h-.294v-1.191h1.191zm-1.191 72.096h1.191v.106h-1.191v-.106zm1.567 0h.106v.106h-.106v-.106zm.294.482a.187.187 0 00.188-.188v-1.5h.95v72.209h-.347v-11.875a.188.188 0 10-.376 0v11.172a.168.168 0 00-.092.093h-.081a.188.188 0 00-.188.188v.346l-.032.257h-.316v-70.702h.294zm524.511 16.623v-1.553h.348v.172l-.001.002c0 .104.084.188.188.188h.175v1.191h-.71zm1.553-45.177c-.018-.085-.083-.154-.174-.154h-.293v-.347h.293a.187.187 0 00.133-.055c.026-.025.034-.063.041-.099v.655zm-527.819-45.351v.107h-.106v-.107h.106zm527.819 46.504v.019h-.008c.002-.007.007-.012.008-.019zm1.514-46.383c.089 0 .153-.067.172-.149l.002.001v.617h-.95v-.589h.013c.029.067.082.121.16.121h.603zm-.791-.979h-.535v-.588h.535v.588zm-531.542 71.99h1.674v.05l-.001.003.001.003v.654h-1.674v-.71zm1.674 1.085v.95h-1.674v-.95h1.674zm-1.674 71.855h.107v.106h-.107v-.106zm.724 0h.227v1.07h-.227v-1.07zm532.145-97.308h-1.674v-.829h1.674v.829zm-1.674-1.205v-.951h1.674v.951h-1.674zm.95-45.814h-.227v-1.191h.227v1.191zm4.74 92.63c-.028-.017-.055-.038-.091-.038a.188.188 0 00-.188.188v2.343h-.829v-.95h.106v.053a.188.188 0 10.376 0v-.241a.188.188 0 00-.188-.188h-.294v-.258c.019.084.083.152.173.152a.188.188 0 00.188-.188v-47.313h.709v46.348c0 .036.021.063.038.092zm-.747-46.816v-47.313a.188.188 0 00-.188-.188c-.09 0-.154.068-.173.152v-.259h.294a.188.188 0 00.188-.188v-.241a.188.188 0 10-.376 0v.053h-.106v-.95h.829v2.344c0 .104.084.188.188.188.035 0 .062-.021.09-.037-.017.028-.037.054-.037.089v46.35h-.709zm-.737-49.124l-.001.002.001.002v.413h-.589v-.951h.589v.534zm-1.929.417h-2.465v-.951h2.465v.951zM143.954 68.36H46.668v-.227h97.286v.227zm0 .376v17.949H46.668V68.736h97.286zm0 18.325v.227H46.668v-.227h97.286zm0 .603v18.07H46.668v-18.07h97.286zm0 18.446v.106H46.668v-.106h97.286zm0 170.595v.227H46.668v-.227h97.286zM673.461 219.8h5.606a.187.187 0 00.188-.188v-3.255c0-.036-.021-.063-.038-.092.028.017.055.038.091.038a.187.187 0 00.188-.188v-6.442h10.716v17.949h-16.751V219.8zm6.035-10.503v-.227h10.716v.227h-10.716zm0-.603v-18.07h10.716v18.07h-10.716zm0-18.446v-.106h10.716v.106h-10.716zm0-.482v-18.071h10.716v18.071h-10.716zm0-18.447v-.226h10.716v.226h-10.716zm0-.602v-.95h4.755a.188.188 0 100-.376h-4.755v-16.624h10.716v17.95h-10.716zm0-18.326v-.227h10.716v.227h-10.716zm0-.603v-18.069h10.716v18.069h-10.716zm0-18.445v-.107h10.716v.107h-10.716zm0-.483v-9.819a.188.188 0 00-.188-.188c-.035 0-.062.02-.09.037.017-.028.037-.054.037-.089v-3.256c0-.001 0 0 0 0a.188.188 0 00-.188-.188h-5.606v-4.567h16.751v18.07h-10.716zm-6.035-18.446v-.226h16.751v.226h-16.751zM143.954 60.487v7.27H46.668v-18.07h97.279V60.47c0 .007.006.01.007.017zM46.668 277.308h97.286v1.362c-.001.006-.007.01-.007.017v11.868H46.668v-13.247zm626.793-49.31h16.751v.226h-16.751v-.226zm16.751-119.477v5.291h-16.751v-5.291h16.751zM673.461 228.6h16.751v2.036h-16.751V228.6z"/><path d="M466.878 84.635a.188.188 0 00-.188.188v1.447a.188.188 0 10.376 0v-1.447a.188.188 0 00-.188-.188zm0 5.787a.188.188 0 00-.188.188v1.327a.188.188 0 10.376-.001V90.61a.188.188 0 00-.188-.188zm0 2.773a.188.188 0 00-.188.188v1.447a.188.188 0 10.376 0v-1.447a.188.188 0 00-.188-.188zm0 2.894a.188.188 0 00-.188.188v1.447a.188.188 0 10.376 0v-1.447a.188.188 0 00-.188-.188zm0 2.773a.188.188 0 00-.188.188v1.447a.188.188 0 10.376 0V99.05a.188.188 0 00-.188-.188zm0 2.893a.188.188 0 00-.188.188v1.447a.188.188 0 10.376 0v-1.447a.188.188 0 00-.188-.188zm0 2.894a.188.188 0 00-.188.188v1.326a.188.188 0 10.376 0v-1.326a.188.188 0 00-.188-.188zm0 2.773a.188.188 0 00-.188.188v1.447a.188.188 0 10.376 0v-1.447a.188.188 0 00-.188-.188zm0 2.893a.188.188 0 00-.188.188v1.447a.188.188 0 10.376 0v-1.447a.188.188 0 00-.188-.188zm0 2.773a.188.188 0 00-.188.188v1.447a.188.188 0 10.376 0v-1.447a.188.188 0 00-.188-.188zm0 2.893a.188.188 0 00-.188.188v1.447a.188.188 0 10.376 0v-1.447a.188.188 0 00-.188-.188zm0 2.894a.188.188 0 00-.188.188v1.447a.188.188 0 10.376 0v-1.447a.188.188 0 00-.188-.188zm0 99.584a.188.188 0 00-.188.188v1.447a.188.188 0 10.376 0v-1.447a.188.188 0 00-.188-.188zm0 2.893a.188.188 0 00-.188.188v1.447a.188.188 0 10.376 0v-1.447a.188.188 0 00-.188-.188zm0 2.894a.188.188 0 00-.188.188v1.447a.188.188 0 10.376 0v-1.447a.188.188 0 00-.188-.188zm0 2.773a.188.188 0 00-.188.188v1.447a.188.188 0 10.376 0v-1.447a.188.188 0 00-.188-.188zm0 2.893a.188.188 0 00-.188.188v1.447a.188.188 0 10.376 0V230.1a.188.188 0 00-.188-.188zm0 2.894a.188.188 0 00-.188.188v1.326a.188.188 0 10.376 0v-1.326a.188.188 0 00-.188-.188zm0 2.773a.188.188 0 00-.188.188v1.447a.188.188 0 10.376 0v-1.447a.188.188 0 00-.188-.188zm0 2.893a.188.188 0 00-.188.188v1.447a.188.188 0 10.376 0v-1.447a.188.188 0 00-.188-.188zm0 2.773a.188.188 0 00-.188.188v1.447a.188.188 0 10.376 0v-1.447a.188.188 0 00-.188-.188zm0 2.894a.188.188 0 00-.188.188v1.447a.188.188 0 10.376 0v-1.447a.188.188 0 00-.188-.188zm0 2.894a.188.188 0 00-.188.188v1.326a.188.188 0 10.376 0v-1.326a.188.188 0 00-.188-.188zm0 2.772a.188.188 0 00-.188.188v1.447a.188.188 0 10.376 0v-1.447a.188.188 0 00-.188-.188zm0 2.893a.188.188 0 00-.188.188v1.447a.188.188 0 10.376 0v-1.447a.188.188 0 00-.188-.188zm-279.341 11.83a.187.187 0 00.188-.188v-1.326a.188.188 0 10-.376 0v1.326c0 .104.084.188.188.188zm0-2.773a.187.187 0 00.188-.188v-1.447a.188.188 0 10-.376 0v1.447c0 .104.084.188.188.188zm0-2.894a.187.187 0 00.188-.188v-1.447a.188.188 0 10-.376 0v1.447c0 .104.084.188.188.188zm0-5.666a.187.187 0 00.188-.188v-1.447a.188.188 0 10-.376 0v1.447c0 .104.084.188.188.188zm0-2.893a.188.188 0 00.188-.188v-1.447a.188.188 0 10-.376 0v1.447c0 .104.084.188.188.188zm0-2.773a.188.188 0 00.188-.188v-1.447a.188.188 0 10-.376 0v1.447c0 .104.084.188.188.188zm0-2.894a.187.187 0 00.188-.188V243a.188.188 0 10-.376 0v1.447c0 .104.084.188.188.188zm0-2.893a.188.188 0 00.188-.188v-1.326a.188.188 0 10-.376 0v1.326c0 .104.084.188.188.188zm0-2.773a.188.188 0 00.188-.188v-1.447a.188.188 0 10-.376 0v1.447c0 .104.084.188.188.188zm0-2.894a.187.187 0 00.188-.188v-1.447a.188.188 0 10-.376 0v1.447c0 .104.084.188.188.188zm0-2.772a.188.188 0 00.188-.188v-1.447a.188.188 0 10-.376 0v1.447c0 .104.084.188.188.188zm0-2.894a.187.187 0 00.188-.188v-1.447a.188.188 0 10-.376 0v1.447c0 .104.084.188.188.188zm0-2.893a.188.188 0 00.188-.188v-1.447a.188.188 0 10-.376 0v1.447c0 .104.084.188.188.188zm0-2.773a.188.188 0 00.188-.188v-1.447a.188.188 0 10-.376 0v1.447c0 .104.084.188.188.188zm0-2.894a.187.187 0 00.188-.188v-1.447a.188.188 0 10-.376 0v1.447c0 .104.084.188.188.188zm0-2.893a.188.188 0 00.188-.188v-1.326a.188.188 0 10-.376 0v1.326c0 .104.084.188.188.188zm0-2.773a.188.188 0 00.188-.188v-1.447a.188.188 0 10-.376 0v1.447c0 .104.084.188.188.188zm0-2.894a.187.187 0 00.188-.188v-1.447a.188.188 0 10-.376 0v1.447c0 .104.084.188.188.188zm0-2.773a.187.187 0 00.188-.188v-1.447a.188.188 0 10-.376 0v1.447c0 .104.084.188.188.188zm0-2.893a.188.188 0 00.188-.188v-1.447a.188.188 0 10-.376 0v1.447c0 .104.084.188.188.188zm0-2.894a.187.187 0 00.188-.188v-1.447a.188.188 0 10-.376 0v1.447c0 .104.084.188.188.188zm0-2.773a.187.187 0 00.188-.188v-1.447a.188.188 0 10-.376 0v1.447c0 .104.084.188.188.188zm0-2.893a.187.187 0 00.188-.188v-1.447a.188.188 0 10-.376 0v1.447c0 .104.084.188.188.188zm0-2.893a.188.188 0 00.188-.188v-1.326a.188.188 0 10-.376 0v1.326c0 .104.084.188.188.188zm0-2.773a.188.188 0 00.188-.188v-1.447a.188.188 0 10-.376 0v1.447c0 .104.084.188.188.188zm0-2.894a.187.187 0 00.188-.188v-1.447a.188.188 0 10-.376 0v1.447c0 .104.084.188.188.188zm0-5.666a.188.188 0 00.188-.188v-1.447a.188.188 0 10-.376 0v1.447c0 .104.084.188.188.188zm0-2.894a.187.187 0 00.188-.188v-1.326a.188.188 0 10-.376 0v1.326c0 .104.084.188.188.188zm0-2.773a.187.187 0 00.188-.188v-1.447a.188.188 0 10-.376 0v1.447c0 .104.084.188.188.188zm0-2.893a.188.188 0 00.188-.188v-2.465h2.464a.188.188 0 100-.376h-2.652a.188.188 0 00-.188.188v2.653c0 .104.084.188.188.188zm217.373 86.549a.188.188 0 00-.188.188v1.326a.188.188 0 10.376 0v-1.326a.188.188 0 00-.188-.188zm0-2.894a.188.188 0 00-.188.188v1.447a.188.188 0 10.376 0v-1.447a.188.188 0 00-.188-.188zm0-2.894a.188.188 0 00-.188.188v1.447a.188.188 0 10.376 0v-1.447a.188.188 0 00-.188-.188zm0-2.772a.188.188 0 00-.188.188v1.326a.188.188 0 10.376 0v-1.326a.188.188 0 00-.188-.188zm0-2.894a.188.188 0 00-.188.188v1.447a.188.188 0 10.376 0v-1.447a.188.188 0 00-.188-.188zm0-2.893a.188.188 0 00-.188.188v1.447a.188.188 0 10.376 0v-1.447a.188.188 0 00-.188-.188zm0-2.773a.188.188 0 00-.188.188v1.447a.188.188 0 10.376 0v-1.447a.188.188 0 00-.188-.188zm0-2.894a.188.188 0 00-.188.188v1.447a.188.188 0 10.376 0V243a.188.188 0 00-.188-.188zm0-2.772a.188.188 0 00-.188.188v1.326a.188.188 0 10.376 0v-1.326a.188.188 0 00-.188-.188zm0-2.894a.188.188 0 00-.188.188v1.447a.188.188 0 10.376 0v-1.447a.188.188 0 00-.188-.188zm0-2.894a.188.188 0 00-.188.188v1.447a.188.188 0 10.376 0v-1.447a.188.188 0 00-.188-.188zm0-2.772a.188.188 0 00-.188.188v1.447a.188.188 0 10.376 0v-1.447a.188.188 0 00-.188-.188zm0-2.894a.188.188 0 00-.188.188v1.447a.188.188 0 10.376 0v-1.447a.188.188 0 00-.188-.188zm0-2.893a.188.188 0 00-.188.188v1.447a.188.188 0 10.376 0v-1.447a.188.188 0 00-.188-.188zm0-2.773a.188.188 0 00-.188.188v1.447a.188.188 0 10.376 0v-1.447a.188.188 0 00-.188-.188zm0-2.894a.188.188 0 00-.188.188v1.447a.188.188 0 10.376 0v-1.447a.188.188 0 00-.188-.188zm0-2.772a.188.188 0 00-.188.188v1.326a.188.188 0 10.376 0v-1.326a.188.188 0 00-.188-.188zm0-2.894a.188.188 0 00-.188.188v1.447a.188.188 0 10.376 0v-1.447a.188.188 0 00-.188-.188zm0-2.894a.188.188 0 00-.188.188v1.447a.188.188 0 10.376 0v-1.447a.188.188 0 00-.188-.188zm0-2.773a.188.188 0 00-.188.188v1.447a.188.188 0 10.376 0v-1.447a.188.188 0 00-.188-.188zm0-2.893a.188.188 0 00-.188.188v1.447a.188.188 0 10.376 0v-1.447a.188.188 0 00-.188-.188zm0-2.894a.188.188 0 00-.188.188v1.447a.188.188 0 10.376 0v-1.447a.188.188 0 00-.188-.188zm0-2.773a.188.188 0 00-.188.188v1.447a.188.188 0 10.376 0v-1.447a.188.188 0 00-.188-.188zm0-2.893a.188.188 0 00-.188.188v1.447a.188.188 0 10.376 0v-1.447a.188.188 0 00-.188-.188zm0-2.772a.188.188 0 00-.188.188v1.326a.188.188 0 10.376 0v-1.326a.188.188 0 00-.188-.188zm0-2.894a.188.188 0 00-.188.188v1.447a.188.188 0 10.376 0v-1.447a.188.188 0 00-.188-.188zm0-2.894a.188.188 0 00-.188.188v1.447a.188.188 0 10.376 0v-1.447a.188.188 0 00-.188-.188zm0-2.773a.188.188 0 00-.188.188v1.447a.188.188 0 10.376 0v-1.447a.188.188 0 00-.188-.188zm0-2.893a.188.188 0 00-.188.188v1.447a.188.188 0 10.376 0v-1.447a.188.188 0 00-.188-.188zm0-2.773a.188.188 0 00-.188.188v1.326a.188.188 0 10.376 0v-1.326a.188.188 0 00-.188-.188zm0-2.894a.188.188 0 00-.188.188v1.447a.188.188 0 10.376 0v-1.447a.188.188 0 00-.188-.188zm-213.274-3.723h1.326a.188.188 0 100-.376h-1.326a.188.188 0 100 .376zm2.773 0h1.447a.188.188 0 100-.376h-1.447a.188.188 0 100 .376zm2.894 0h1.447a.188.188 0 100-.376h-1.447a.188.188 0 100 .376zm2.772 0h1.447a.188.188 0 100-.376h-1.447a.188.188 0 100 .376zm2.894 0h1.447a.188.188 0 100-.376h-1.447a.188.188 0 100 .376zm2.894 0h1.326a.188.188 0 100-.376h-1.326a.188.188 0 100 .376zm2.772 0h1.447a.188.188 0 100-.376h-1.447a.188.188 0 100 .376zm2.894 0h1.447a.188.188 0 100-.376h-1.447a.188.188 0 100 .376zm2.894 0h1.326a.188.188 0 100-.376h-1.326a.188.188 0 100 .376zm2.772 0h1.447a.188.188 0 100-.376h-1.447a.188.188 0 100 .376zm2.894 0h1.447a.188.188 0 100-.376h-1.447a.188.188 0 100 .376zm2.773 0h1.447a.188.188 0 100-.376h-1.447a.188.188 0 100 .376zm2.893 0h1.447a.188.188 0 100-.376h-1.447a.188.188 0 100 .376zm2.894 0h1.326a.188.188 0 100-.376h-1.326a.188.188 0 100 .376zm2.773 0h1.446a.188.188 0 100-.376h-1.446a.188.188 0 100 .376zm2.893 0h1.447a.188.188 0 100-.376h-1.447a.188.188 0 100 .376zm2.773 0h1.447a.188.188 0 100-.376h-1.447a.188.188 0 100 .376zm2.893 0h1.447a.188.188 0 100-.376h-1.447a.188.188 0 100 .376zm2.894 0h1.447a.188.188 0 100-.376h-1.447a.188.188 0 100 .376zm2.773 0h1.447a.188.188 0 100-.376h-1.447a.188.188 0 100 .376zm2.893 0h1.447a.188.188 0 100-.376h-1.447a.188.188 0 100 .376zm2.894 0h1.326a.188.188 0 100-.376h-1.326a.188.188 0 100 .376zm2.773 0h1.447a.188.188 0 100-.376h-1.447a.188.188 0 100 .376zm2.893 0h1.447a.188.188 0 100-.376h-1.447a.188.188 0 100 .376zm2.773 0h1.447a.188.188 0 100-.376h-1.447a.188.188 0 100 .376zm2.893 0h1.447a.188.188 0 100-.376h-1.447a.188.188 0 100 .376zm2.894 0h1.447a.188.188 0 100-.376h-1.447a.188.188 0 100 .376zm2.773 0h1.447a.188.188 0 100-.376h-1.447a.188.188 0 100 .376zm2.893 0h1.447a.188.188 0 100-.376h-1.447a.188.188 0 100 .376zm2.894 0h1.326a.188.188 0 100-.376h-1.326a.188.188 0 100 .376zm2.773 0h1.447a.188.188 0 100-.376h-1.447a.188.188 0 100 .376zm2.893 0h1.447a.188.188 0 100-.376h-1.447a.188.188 0 100 .376zm2.774 0h1.446a.188.188 0 100-.376h-1.446a.188.188 0 100 .376zm2.892 0H287a.188.188 0 100-.376h-1.447a.188.188 0 100 .376zm2.894 0h1.326a.188.188 0 100-.376h-1.326a.188.188 0 100 .376zm2.773 0h1.447a.188.188 0 100-.376h-1.447a.188.188 0 100 .376zm2.894 0h1.447a.188.188 0 100-.376h-1.447a.188.188 0 100 .376zm2.893 0h1.326a.188.188 0 100-.376h-1.326a.188.188 0 100 .376zm2.773 0h1.447a.188.188 0 100-.376h-1.447a.188.188 0 100 .376zm2.894 0h1.447a.188.188 0 100-.376h-1.447a.188.188 0 100 .376zm2.773 0h1.446a.188.188 0 100-.376h-1.446a.188.188 0 100 .376zm2.893 0h1.447a.188.188 0 100-.376h-1.447a.188.188 0 100 .376zm2.894 0h1.326a.188.188 0 100-.376h-1.326a.188.188 0 100 .376zm2.772 0h1.447a.188.188 0 100-.376h-1.447a.188.188 0 100 .376zm2.894 0h1.447a.188.188 0 100-.376H316.9a.188.188 0 100 .376zm2.894 0h1.326a.188.188 0 100-.376h-1.326a.188.188 0 100 .376zm2.772 0h1.447a.188.188 0 100-.376h-1.447a.188.188 0 100 .376zm2.894 0h1.447a.188.188 0 100-.376h-1.447a.188.188 0 100 .376zm2.773 0h1.446a.188.188 0 100-.376h-1.446a.188.188 0 100 .376zm2.893 0h1.447a.188.188 0 100-.376h-1.447a.188.188 0 100 .376zm2.894 0h1.326a.188.188 0 100-.376h-1.326a.188.188 0 100 .376zm2.772 0h1.447a.188.188 0 100-.376h-1.447a.188.188 0 100 .376zm2.894 0h1.447a.188.188 0 100-.376h-1.447a.188.188 0 100 .376zm2.773 0h1.447a.188.188 0 100-.376h-1.447a.188.188 0 100 .376zm2.893 0h1.447a.188.188 0 100-.376h-1.447a.188.188 0 100 .376zm2.894 0h1.447a.188.188 0 100-.376h-1.447a.188.188 0 100 .376zm2.773 0h1.446a.188.188 0 100-.376h-1.446a.188.188 0 100 .376zm2.893 0h1.447a.188.188 0 100-.376h-1.447a.188.188 0 100 .376zm2.894 0h1.326a.188.188 0 100-.376h-1.326a.188.188 0 100 .376zm2.772 0h1.447a.188.188 0 100-.376h-1.447a.188.188 0 100 .376zm2.894 0h1.447a.188.188 0 100-.376h-1.447a.188.188 0 100 .376zm2.773 0h1.447a.188.188 0 100-.376h-1.447a.188.188 0 100 .376zm2.893 0h1.447a.188.188 0 100-.376h-1.447a.188.188 0 100 .376zm2.894 0h1.447a.188.188 0 100-.376h-1.447a.188.188 0 100 .376zm2.773 0h1.446a.188.188 0 100-.376h-1.446a.188.188 0 100 .376zm2.894 0h1.446a.188.188 0 100-.376h-1.446a.188.188 0 100 .376zm2.893 0h1.326a.188.188 0 100-.376h-1.326a.188.188 0 100 .376zm2.773 0h1.447a.188.188 0 100-.376h-1.447a.188.188 0 100 .376zm2.893 0h1.447a.188.188 0 100-.376h-1.447a.188.188 0 100 .376zm2.773 0h1.447a.188.188 0 100-.376h-1.447a.188.188 0 100 .376zm2.894 0h1.447a.188.188 0 100-.376h-1.447a.188.188 0 100 .376zm2.894 0h1.326a.188.188 0 100-.376h-1.326a.188.188 0 100 .376zm2.772 0h1.447a.188.188 0 100-.376h-1.447a.188.188 0 100 .376zm2.894 0h1.446a.188.188 0 100-.376h-1.446a.188.188 0 100 .376zm21.662-44.836c1.329 0 2.31-.711 2.31-2.226v-4.203h-.712v4.177c0 1.147-.617 1.635-1.58 1.635-.964 0-1.581-.488-1.581-1.635v-4.177h-.755v4.203c0 1.533.981 2.226 2.318 2.226zm4.686-2.876h1.32c1.485 0 2.275-.694 2.275-1.798 0-1.122-.72-1.755-2.214-1.755h-2.128v6.309h.747v-2.756zm.001-2.954h1.337c1.042 0 1.476.411 1.476 1.164 0 .762-.478 1.207-1.528 1.207h-1.285v-2.371zm-92.886-1.085c0-2.124-1.146-3.125-3.03-3.125h-1.98v6.309h1.858c1.884 0 3.152-1.061 3.152-3.184zm-4.254 2.576v-5.093h1.146c1.433 0 2.31.744 2.31 2.525s-.955 2.568-2.379 2.568h-1.077zm6.233-3.021c0-.702-.026-1.319-.035-2.029h.13c.33.667.556 1.155.912 1.84l2.005 3.818h.965v-6.308h-.703v3.355c0 .745.043 1.396.069 2.072h-.139c-.304-.634-.529-1.182-.903-1.892l-1.832-3.535h-1.172v6.309h.703v-3.63zm13.801-7.361h1.447a.188.188 0 100-.376h-1.447a.188.188 0 100 .376zm-2.773 0h1.447a.188.188 0 100-.376h-1.447a.188.188 0 100 .376zm-2.894 0h1.447a.188.188 0 100-.376h-1.447a.188.188 0 100 .376zm-2.772 0h1.326a.188.188 0 100-.376h-1.326a.188.188 0 100 .376zm-2.894 0h1.447a.188.188 0 100-.376h-1.447a.188.188 0 100 .376zm-2.893 0h1.447a.188.188 0 100-.376h-1.447a.188.188 0 100 .376zm-8.56 0h1.447a.188.188 0 100-.376h-1.447a.188.188 0 100 .376zm-2.773 0h1.447a.188.188 0 100-.376h-1.447a.188.188 0 100 .376zm-2.894 0h1.447a.188.188 0 100-.376h-1.447a.188.188 0 100 .376zm-2.772 0h1.326a.188.188 0 100-.376h-1.326a.188.188 0 100 .376zm-2.894 0h1.447a.188.188 0 100-.376h-1.447a.188.188 0 100 .376zm-2.893 0h1.447a.188.188 0 100-.376h-1.447a.188.188 0 100 .376zm388.942-1.235c-.218-.351-.503-.626-.854-.824s-.752-.297-1.203-.297c-.98 0-1.763.365-2.348 1.094-.585.729-.878 1.73-.878 3.001 0 1.103.297 2.006.892 2.71.595.704 1.327 1.056 2.198 1.056.529 0 .971-.1 1.326-.301s.672-.522.95-.964v1.032h1.894v-10.062h-1.977v3.555zm-.375 4.483c-.287.41-.707.615-1.258.615s-.961-.207-1.23-.622c-.273-.41-.41-.959-.41-1.647 0-.638.135-1.172.401-1.603.266-.431.684-.646 1.254-.646.373 0 .701.118.984.355.46.392.69 1.044.69 1.955 0 .652-.144 1.183-.431 1.593zm10.534-2.636a3.743 3.743 0 00-.567-1.538 2.928 2.928 0 00-1.23-1.101c-.497-.233-1.055-.349-1.675-.349-1.043 0-1.892.344-2.546 1.032-.654.688-.981 1.677-.981 2.967 0 1.376.362 2.369 1.087 2.98a3.778 3.778 0 002.509.916c1.149 0 2.042-.362 2.68-1.087.41-.456.64-.904.69-1.346h-1.99a1.62 1.62 0 01-.362.513c-.251.228-.577.342-.978.342-.379 0-.702-.093-.971-.28-.442-.301-.677-.824-.704-1.572h5.1c.009-.643-.012-1.135-.062-1.477zm-4.988.189c.064-.482.219-.865.468-1.148.248-.283.598-.424 1.049-.424.414 0 .762.134 1.042.4s.436.657.468 1.172h-3.027zm4.955 2.284v.001zm3.609-7.275h-1.928v2.078h-1.039v1.388h1.039v4.587c0 .465.109.809.328 1.032.338.352.967.511 1.887.479l.923-.034v-1.456a6.028 6.028 0 01-.383.014c-.397 0-.634-.038-.711-.113s-.116-.266-.116-.571v-3.938h1.21v-1.388h-1.21v-2.078zm8.531 8.429c-.01-.337-.014-.624-.014-.861v-3.418c0-.898-.317-1.508-.95-1.832-.633-.323-1.358-.485-2.174-.485-1.253 0-2.137.328-2.652.984-.323.42-.506.955-.548 1.607h1.88c.045-.288.136-.515.273-.684.192-.228.518-.342.978-.342.41 0 .721.058.933.174.212.116.318.327.318.632 0 .251-.139.436-.417.554-.154.068-.412.126-.772.171l-.663.082c-.752.096-1.322.256-1.709.479-.707.41-1.06 1.073-1.06 1.989 0 .706.22 1.252.66 1.637s.997.578 1.671.578a2.8 2.8 0 001.422-.362c.351-.205.661-.453.93-.745.014.169.032.319.055.451s.064.274.123.424h2.119v-.287a.703.703 0 01-.287-.226c-.064-.092-.102-.265-.116-.52zm-1.962-1.865c-.013.652-.197 1.101-.55 1.347-.353.246-.74.369-1.159.369a1.02 1.02 0 01-.67-.226c-.187-.146-.28-.385-.281-.718 0-.373.15-.649.451-.827.178-.105.472-.194.882-.267l.438-.082c.219-.041.39-.085.516-.133s.25-.11.373-.188v.725zm3.705-4.553h1.976v7.451h-1.976zm0-2.687h1.976v1.798h-1.976zm3.904.062h1.948v10.076h-1.948zM381.235 45.307c.529 0 .971-.1 1.326-.301.355-.201.672-.522.95-.964v1.032h1.894V35.012h-1.977v3.555c-.218-.351-.503-.626-.854-.824s-.752-.297-1.203-.297c-.98 0-1.763.365-2.348 1.094-.585.729-.878 1.73-.878 3.001 0 1.102.297 2.006.892 2.71.595.704 1.327 1.056 2.198 1.056zm-.679-5.514c.266-.431.684-.646 1.254-.646.373 0 .701.118.984.355.46.392.69 1.044.69 1.955 0 .652-.144 1.183-.431 1.593-.287.41-.707.615-1.258.615s-.961-.207-1.23-.622c-.273-.41-.41-.959-.41-1.647 0-.638.135-1.172.401-1.603zm12.998 3.094v.001zm-3.37 2.434c1.149 0 2.042-.362 2.68-1.087.41-.456.64-.904.69-1.346h-1.99a1.62 1.62 0 01-.362.513c-.251.228-.577.342-.978.342-.379 0-.702-.093-.971-.28-.442-.301-.677-.825-.704-1.572h5.1c.009-.643-.012-1.135-.062-1.477a3.743 3.743 0 00-.567-1.538 2.928 2.928 0 00-1.23-1.101c-.497-.233-1.055-.349-1.675-.349-1.043 0-1.892.344-2.546 1.032s-.981 1.677-.981 2.967c0 1.376.362 2.369 1.087 2.98a3.778 3.778 0 002.509.916zm-1.117-5.866c.248-.283.598-.424 1.049-.424.414 0 .762.134 1.042.4s.436.657.468 1.172h-3.027c.064-.483.22-.865.468-1.148zm6.168 4.21c0 .465.109.809.328 1.032.338.351.967.511 1.887.479l.923-.034v-1.456a4.092 4.092 0 01-.383.014c-.397 0-.634-.038-.711-.113-.077-.075-.116-.266-.116-.571v-3.938h1.21V37.69h-1.21v-2.078h-1.928v2.078h-1.039v1.388h1.039v4.587zm8.086-3.294c-.154.068-.412.125-.772.171l-.663.082c-.752.096-1.322.256-1.709.479-.707.41-1.06 1.073-1.06 1.989 0 .706.22 1.252.66 1.637s.997.578 1.671.578a2.8 2.8 0 001.422-.362c.351-.205.661-.453.93-.745.014.169.032.319.055.451s.064.274.123.424h2.119v-.287a.703.703 0 01-.287-.226c-.064-.092-.102-.265-.116-.52-.01-.337-.014-.624-.014-.861v-3.418c0-.898-.317-1.509-.95-1.832-.633-.323-1.358-.485-2.174-.485-1.253 0-2.137.328-2.652.984-.323.419-.506.954-.548 1.607h1.88c.045-.288.136-.515.273-.684.192-.228.518-.342.978-.342.41 0 .721.058.933.174.212.116.318.327.318.632 0 .251-.139.436-.417.554zm.412 1.805c-.013.652-.197 1.101-.55 1.347-.353.246-.74.369-1.159.369a1.02 1.02 0 01-.67-.226c-.187-.146-.281-.385-.281-.718 0-.374.15-.649.451-.827.178-.105.472-.194.882-.267l.438-.082c.219-.041.39-.085.516-.133s.25-.111.373-.188v.725zm3.704-7.24h1.976v1.798h-1.976zm0 2.687h1.976v7.451h-1.976zm3.904-2.625h1.948v10.076h-1.948z"/><path d="M571.632 145.671h50v50h-50zm-367.23-24.265h50v50h-50z" fill="#fff"/><path d="M631.323 115.171l-20.138 40.277.895.447 19.861-39.724h59.691v-1zM244.007 131.1l.789.613 69.85-89.807h59.756v-1h-60.245z" fill="#969696"/></svg>