<svg version="1.1" id="レイヤー_1" xmlns="http://www.w3.org/2000/svg" x="0" y="0" width="746" height="340" xml:space="preserve"><path fill="gray" d="M353.068 114.361H456.63v7.595H353.068z"/><path fill="#fff" d="M356.633 161.545h50v50h-50z"/><path d="M311.955 115.793v3.272h-.839v.379h2.088v-.379h-.787V115.3h-.393c-.295.198-.63.374-.983.487l.081.413c.324-.118.613-.26.833-.407zm4.57 3.261h-1.989c.191-.413.485-.781 1.11-1.319.7-.601.873-.94.873-1.393 0-.674-.486-1.07-1.174-1.07-.648 0-1.133.379-1.255 1.098l.474.108c.075-.543.353-.815.775-.815.405 0 .683.26.683.679 0 .363-.133.601-.729 1.144-.63.572-1 1.059-1.237 1.608v.351h2.469v-.391zm11.051 6.491h1.858c1.884 0 3.152-1.061 3.152-3.184 0-2.124-1.146-3.125-3.03-3.125h-1.98v6.309zm.756-5.701h1.146c1.433 0 2.31.744 2.31 2.525s-.955 2.568-2.379 2.568h-1.077v-5.093zm6.406 2.072c0-.702-.026-1.319-.035-2.029h.13c.33.667.556 1.155.912 1.84l2.005 3.818h.965v-6.308h-.703v3.355c0 .745.043 1.396.069 2.072h-.139c-.304-.634-.529-1.182-.903-1.892l-1.832-3.535h-1.172v6.309h.703v-3.63zm226.013 47.047c-.043-.043-.069-.051-.147 0l-.175.103c-.096.051-.104.077-.061.128.269.343.53.737.764 1.156-.885.154-1.64.257-2.613.351.365-.659.73-1.404 1.068-2.217.052-.128.139-.299.191-.351.043-.042.078-.085.078-.128s-.043-.094-.122-.12a5.987 5.987 0 00-.521-.154c-.026.171-.07.368-.139.573-.33.874-.686 1.644-1.137 2.457-.234.025-.547.025-.851.034.034.179.087.376.13.539.026.085.061.111.113.111.043 0 .087-.034.139-.068.061-.034.13-.052.408-.086a43.462 43.462 0 003.49-.513c.105.197.2.402.287.599.027.069.044.069.174.009l.243-.12c.096-.043.096-.051.061-.12-.399-.83-.868-1.584-1.38-2.183zm8.811 3.536c.156.145.495.197 1.276.197.816 0 1.268-.086 1.476-.274.191-.172.321-.394.399-1.079.017-.171.017-.171-.156-.231a1.121 1.121 0 01-.33-.18c-.043.634-.104.933-.269 1.096-.156.145-.495.188-1.094.188-.538 0-.79-.025-.903-.128-.078-.077-.078-.24-.078-.505h.001v-2.707h1.928v.385c0 .059.008.068.069.068h.399c.06 0 .069-.008.069-.068 0-.042-.018-.265-.018-.907v-1.763c0-.642.018-.864.018-.907 0-.059-.008-.068-.069-.068-.053 0-.261.017-.912.017h-1.016c-.651 0-.842-.017-.894-.017-.061 0-.069.008-.069.068v.385c0 .051.008.06.069.06.052 0 .243-.017.894-.017h1.459v2.286H570.3c-.582 0-.834-.017-.877-.017-.07 0-.078.009-.078.069 0 .051.017.316.017.941v2.406c0 .42.053.574.2.702zm3.956-.196c.105.076.191.162.278.282.096.137.105.145.261.085 1.189-.479 2.057-1.121 2.63-1.909.33-.453.591-1.018.695-1.566.738 1.78 1.902 2.79 3.447 3.458.061.026.095.043.13.043.044 0 .061-.034.113-.137.07-.137.183-.274.287-.368-1.719-.608-2.916-1.627-3.629-3.329h1.709c.877 0 1.155.017 1.207.017.06 0 .069-.009.069-.069v-.394c0-.059-.008-.068-.069-.068-.052 0-.33.017-1.207.017h-1.901c.078-.608.104-1.224.113-1.806h2.24c.834 0 1.112.017 1.155.017.06 0 .069-.009.069-.069v-.394c0-.059-.008-.068-.069-.068-.044 0-.322.017-1.155.017h-4.906c-.834 0-1.112-.017-1.155-.017-.06 0-.069.008-.069.068v.394c0 .06.008.069.069.069.044 0 .322-.017 1.155-.017h2.119a16.197 16.197 0 01-.104 1.806h-1.563c-.877 0-1.155-.017-1.207-.017-.06 0-.069.008-.069.068v.394c0 .06.008.069.069.069.052 0 .33-.017 1.207-.017h1.485a3.593 3.593 0 01-.686 1.618c-.573.77-1.494 1.404-2.718 1.823zm14.203-2.099h.955c.808 0 1.067.017 1.12.017s.061-.008.061-.068h.002v-.393c0-.059-.009-.068-.061-.068s-.312.017-1.12.017h-.955v-1.995h.625c.851 0 1.138.017 1.181.017.06 0 .069-.008.069-.068v-.394c0-.06-.008-.069-.069-.069-.043 0-.33.017-1.181.017h-.625v-.642c0-.574.017-.779.052-.882.017-.068.043-.102.043-.154 0-.043-.043-.068-.104-.077a10.233 10.233 0 00-.599-.043c.051.334.069.565.069 1.173v.625h-2.162v-.488c0-.71.017-.89.052-1.001.026-.077.052-.12.052-.163 0-.051-.043-.076-.113-.085a5.912 5.912 0 00-.59-.051c.052.385.061.753.061 1.284v.505h-.66c-.851 0-1.129-.017-1.181-.017-.06 0-.069.009-.069.069v.394c0 .059.008.068.069.068.053 0 .33-.017 1.181-.017h.66v.693c0 .488-.009.916-.052 1.301h-1.024c-.808 0-1.077-.017-1.12-.017-.06 0-.069.008-.069.068v.394c0 .059.008.068.069.068.043 0 .312-.017 1.12-.017h.955a3.81 3.81 0 01-.122.471c-.269.848-.747 1.378-1.589 1.832.121.06.26.154.347.257.069.077.096.111.139.111.035 0 .069-.026.13-.069.755-.505 1.198-1.062 1.476-1.892.079-.24.14-.471.183-.711h2.257v1.156c0 .967-.018 1.386-.018 1.429 0 .06.008.069.069.069h.435c.06 0 .069-.009.069-.069 0-.042-.018-.462-.018-1.429v-1.156zm-.536-.495h-2.206c.034-.394.043-.813.043-1.31v-.685h2.163v1.995z"/><path d="M673.28 60.771H301.227c-.1 0-.181.081-.181.181v218.096c0 .1.081.181.181.181H673.28c.1 0 .181-.081.181-.181V60.952c0-.1-.081-.181-.181-.181zM309.124 71.26h20.482l12.003 20.85h-10.603a.188.188 0 00-.188.188v10.632l-21.694-12.516V71.26zm325.685 28.043a.186.186 0 00.266.001l27.897-27.778v196.949l-27.897-27.778a.188.188 0 00-.266.001.187.187 0 000 .266l27.896 27.777H464.8l7.758-7.642.001-.002 20.133-20.133a.19.19 0 000-.267.19.19 0 00-.267 0l-20.134 20.134-.001.003-7.762 7.645V77.776l1.859-1.36a.188.188 0 10-.222-.304l-1.637 1.198v-5.786l7.764 7.648 20.133 20.133a.191.191 0 00.133.055.195.195 0 00.134-.055.19.19 0 000-.267l-20.134-20.134-.002-.001-7.759-7.642h197.907l-27.896 27.777a.188.188 0 00.001.265zm-303.615-6.817h10.632l12.489 21.694h-1.059v-.422a.188.188 0 00-.188-.188h-3.807l-18.067-10.423V92.486zm125.437 29.289h-52.539l.651-.474h51.888v.474zm-103.382-7.233h1.375c.005 0 .007.007.012.007.009 0 .017-.006.026-.007h2.247c.006.001.01.007.017.007s.011-.006.017-.007h10.335c.006.001.01.007.017.007s.01-.006.017-.007h10.334c.006.001.01.007.017.007s.011-.006.017-.007h10.334c.006.001.01.007.017.007s.011-.006.017-.007h10.214c.006.001.01.007.017.007s.01-.006.017-.007h10.334c.006.001.01.007.017.007s.011-.006.017-.007h2.248c.009.001.017.007.026.007.005 0 .007-.007.012-.007h2.435l-.652.475h-58.821a.188.188 0 00-.188.188v5.908a.187.187 0 00.188.188h50.191l-.651.474h-50.203v-7.233zm3.865-22.056h9.993v21.694h-9.993V92.486zm51.721 21.694V92.486h14.479l-12.489 21.694h-1.99zm-10.368 0V92.486h9.992v21.694h-9.992zm-10.248 0V92.486h9.872v21.694h-9.872zm-10.368 0V92.486h9.992v21.694h-9.992zm63.662-20.03l-4.282-.685 3.055-7.241a.188.188 0 10-.347-.147l-3.092 7.327-1.285-.206-.002-.001c-.096-.014-.169.046-.197.13-.004.011-.015.016-.017.027v.001l-.591 3.9v-4.956c0-.001 0 0 0 0a.188.188 0 00-.188-.188h-2.759l-2.491-6.033a.188.188 0 00-.246-.102.188.188 0 00-.103.246l2.431 5.889h-7.436l12.003-20.85h20.482v11.96L441.513 94.15zm-7.133 4.189l-2.416-5.853h2.416v5.853zm1.31-4.74l1.007.161-1.61 3.815.603-3.976zm-12.16-1.489h-14.695V71.26h26.698L423.53 92.11zm-15.071 0h-9.992V71.26h9.992v20.85zm-10.368 0h-9.872V71.26h9.872v20.85zm-10.248 0h-9.992V71.26h9.992v20.85zm35.905.376h7.807l2.839 6.876c.007.016.021.025.031.038l.004.01-.62 4.091-2.312 1.271-3.77-.603c-.027-.005-.053.01-.08.018-.023.006-.048.004-.066.018l-13.698 9.974h-2.623l12.488-21.693zm9.818 12.617l-1.463-.234 1.635-.899-.172 1.133zm-5.823-.55l5.951.952.03.002a.188.188 0 00.186-.158v-.002l.949-6.259 2.222-5.266 4.45.712.03.002a.193.193 0 00.111-.036l14.778-10.813v30.493h-41.928l13.221-9.627zM377.475 71.26v20.85h-9.992V71.26h9.992zm0 21.226v21.694h-9.992V92.486h9.992zm79.156 28.439h-44.782v-4.798l1.008-.734h43.775v5.532zm-99.764-3.033l-2.499-2.499h4.999l-2.5 2.499zm2.765-2.231v4.996l-2.498-2.498 2.498-2.498zm-5.532-.001l2.5 2.499-2.5 2.499v-4.998zm2.767 2.766l2.499 2.499h-4.999l2.5-2.499zm3.141 2.499v-5.532h45.558v4.843l-.947.689h-44.611zm46.781-1.114l-.847.847v-.23l.847-.617zm-.847.151v-4.302l2.489 2.489-2.489 1.813zm4.525-3.295l1.006-1.006v.273l-1.006.733zm1.006-.267v4.257l-2.463-2.463 2.463-1.794zm-2.765 1.492l-2.499-2.499h4.998l-2.499 2.499zm-3.142 2.809v.224h-.307l.307-.224zm3.142-2.275l2.499 2.499h-4.998l2.499-2.499zm3.141-2.765v-.268h.368l-.368.268zm1.524-.644l.652-.475h42.606v.475h-43.258zM367.107 71.26v20.85h-9.993V71.26h9.993zm-10.369 20.85h-14.694l-12.003-20.85h26.697v20.85zm0 .376v21.694h-1.989L342.26 92.486h14.478zm-8.23 21.084h-15.656c-.009-.023-.01-.049-.028-.067l-.065-.065v-.163c0-.05-.02-.098-.055-.133l-.065-.065v-.163c0-.05-.02-.098-.055-.133l-.482-.482a.209.209 0 00-.049-.035l-.214-.107-.099-.099a.188.188 0 00-.133-.055h-.284l-.065-.065c-.017-.017-.042-.017-.064-.026v-8.33l17.314 9.988zm-17.314-1.208c.018.006.032.022.052.022h.284l.065.065a.209.209 0 00.049.035l.214.107.405.405v.163c0 .05.02.098.055.133l.065.065v.163c0 .019.015.032.021.05h-1.21v-1.208zm-.376 1.208h-1.321c.004-.016.011-.031.011-.048v-.283l.186-.186a.19.19 0 00.035-.049l.107-.214.164-.164h.042a.19.19 0 00.133-.055l.099-.099.174-.087h.076a.189.189 0 00.084-.02l.201-.101h.009v1.306zm1.663.376l-.043.043a.188.188 0 00-.055.133v.051h-.654a.188.188 0 100 .376h.534v.097l-.405.405-.214.107a.209.209 0 00-.049.035l-.065.065h-.284a.19.19 0 00-.133.055l-.065.065h-.239l-.2-.096a.189.189 0 00-.084-.02h-.076l-.202-.1a.189.189 0 00-.084-.02h-.042l-.285-.285-.107-.214a.19.19 0 00-.035-.049l-.045-.045h.633a.188.188 0 100-.376h-.774v-.049a.189.189 0 00-.02-.084l-.047-.094h3.04zm-3.455 0c.002.006.001.012.004.018l.101.201v.008h-.296a.188.188 0 100 .376h.324c.009.022.01.049.027.066l.22.219.107.214a.19.19 0 00.035.049l.361.362a.188.188 0 00.133.055h.076l.202.1c.026.013.055.02.084.02h.076l.201.101c.026.013.055.02.084.02h.361c.05 0 .098-.02.132-.059l.065-.065h.284a.19.19 0 00.133-.055l.099-.099.214-.107a.209.209 0 00.049-.035l.482-.482a.188.188 0 00.055-.133v-.163l.008-.008h.408a.188.188 0 100-.376h-.273l.042-.042a.188.188 0 00.055-.133v-.052h20.001v.227h-1.259a.188.188 0 100 .376h1.266v7.407c0 .1.081.181.181.181h49.887l-.205.149a.189.189 0 00.221.305l.623-.454h52.856V268.74H309.124V151.513a.185.185 0 00.18.169h22.666a.188.188 0 100-.376h-22.666c-.096 0-.169.075-.18.169v-5.992c.01.095.084.171.181.171h28.693a.188.188 0 100-.376h-28.693a.185.185 0 00-.181.171v-5.873c.01.095.084.171.181.171h34.601a.188.188 0 100-.376h-34.601a.185.185 0 00-.181.171v-5.994c.01.095.084.171.181.171h40.629a.188.188 0 100-.376h-40.629a.185.185 0 00-.181.171v-5.872a.185.185 0 00.18.169h46.537a.188.188 0 100-.376h-46.537c-.096 0-.169.075-.18.169v-13.055h1.145a.188.188 0 100-.376h-1.145v-.227h19.902zm1.792-10.582v8.519h-.054a.189.189 0 00-.084.02l-.201.101h-.076a.189.189 0 00-.084.02l-.241.121a.209.209 0 00-.049.035l-.065.065h-.042a.19.19 0 00-.133.055l-.241.242a.209.209 0 00-.035.049l-.107.214-.22.219a.188.188 0 00-.055.133v.317l-.048.096h-19.959V90.848l21.694 12.516zm332.335-32.473v-.475.475zm0-.837v-.595.595zm0-.971v-5.531 5.531zm0-5.907v-.114.114zm0-.476v-.723.723zm0-1.085v-.482.482z"/><path d="M494.467 101.345a.187.187 0 00.141.063.188.188 0 00.141-.313l-.964-1.085a.188.188 0 10-.282.25l.964 1.085zm21.227 21.106a.187.187 0 00.267-.001.188.188 0 00-.001-.266l-20.254-20.134a.188.188 0 10-.266.267l20.254 20.134zm2.057 1.936a.189.189 0 00.125.048.188.188 0 00.125-.33l-1.085-.964a.188.188 0 10-.25.282l1.085.964zm22.443 21.909a.19.19 0 00-.267 0 .19.19 0 000 .267l.964.965a.19.19 0 00.267 0 .19.19 0 000-.267l-.964-.965zm26.125 26.005h1.828v.334c0 .06.008.069.069.069h.321c.061 0 .069-.009.069-.069 0-.043-.017-.368-.017-2.32v-1.558c0-1.207.017-1.549.017-1.592 0-.059-.008-.068-.069-.068-.052 0-.277.017-.92.017v-.713l.33-.33c.614.003.847.016.886.016.06 0 .069-.008.069-.068v-.334c0-.059-.008-.068-.069-.068-.028 0-.161.007-.444.012l17.136-17.136a.19.19 0 000-.267.19.19 0 00-.267 0l-17.408 17.408h-1.683c-.773 0-1.017-.017-1.06-.017-.06 0-.069.008-.069.068v.334c0 .059.008.068.069.068.044 0 .287-.017 1.06-.017h.182v1.044c-.65 0-.877-.017-.92-.017-.06 0-.069.008-.069.068 0 .032.01.24.015.944l-.251.251a.19.19 0 000 .267.191.191 0 00.133.055c.043 0 .085-.02.12-.049l.001.338v1.438l-.002.958a.187.187 0 00-.252.006.19.19 0 000 .267l.249.249c-.005.708-.013.882-.013.917 0 .06.008.069.069.069h.33c.052 0 .061-.009.061-.069v-.47l19.438 19.438a.19.19 0 00.267 0 .19.19 0 000-.267l-19.206-19.206zm1.828-.444h-2.272l-.055-.055v-.818h2.327v.873zm.001-1.3h-2.327v-2.36l.527-.527a7.966 7.966 0 01-.041.901c-.06.505-.173.847-.425 1.147a.53.53 0 01.208.222c.026.043.052.069.078.069s.061-.026.087-.069c.251-.376.373-.77.434-1.241.061-.403.052-.856.052-1.19h.486v1.395c0 .274.034.454.156.565.087.085.243.128.425.128.122 0 .226 0 .339-.009h.001v.969zm-.002-3.049v1.651c-.078.009-.139.009-.217.009-.173 0-.226-.025-.269-.094-.043-.06-.043-.137-.043-.368v-1.198h.529zm-.919-.394h-.323l.323-.323v.323zm0-1.044v.187l-.486.486v-.673h.486zm-1.406 1.44h.153l-.153.153v-.153zm20.788 24.963a.188.188 0 10-.267.266l.965.964a.191.191 0 00.133.055.188.188 0 00.134-.321l-.965-.964zm1.929 2.049a.189.189 0 00-.266.002.187.187 0 00.001.266l20.254 20.013a.189.189 0 00.265-.268l-20.254-20.013zm21.21 21.089a.188.188 0 10-.25.282l1.085.965a.189.189 0 00.125.048.188.188 0 00.125-.33l-1.085-.965zm2.059 1.937a.19.19 0 00-.267 0 .19.19 0 000 .267l20.134 20.134a.19.19 0 00.267 0 .19.19 0 000-.267l-20.134-20.134zm21.226 21.108a.188.188 0 10-.282.25l.964 1.085a.189.189 0 00.266.016.188.188 0 00.016-.266l-.964-1.085zm-138.566-.001l-.964 1.085a.188.188 0 10.282.25l.964-1.085a.188.188 0 10-.282-.25zm21.226-21.107l-20.254 20.134a.188.188 0 10.266.267l20.254-20.134a.188.188 0 10-.266-.267zm2.058-1.936l-1.085.965a.188.188 0 10.25.282l1.085-.965a.188.188 0 10-.25-.282zm23.14-23.14l-.964.964a.19.19 0 000 .267.19.19 0 00.267 0l.964-.964a.19.19 0 000-.267.19.19 0 00-.267 0z"/><path d="M564.427 169.324a.19.19 0 00-.267 0l-.409.409-.103-.103c.052-.771.078-1.577.082-2.303 0-.265 0-.539.017-.787 0-.06-.017-.077-.078-.077-.052 0-.347.017-1.233.017h-1.95l-6.977-6.935V137.99a.188.188 0 00-.188-.188h-21.667l-12.68-12.604a.188.188 0 10-.266.267l12.412 12.337h-44.349a.188.188 0 00-.188.188v64.621c0 .104.084.188.188.188h43.743l-11.806 11.735a.188.188 0 10.266.267l12.075-12.002h22.272a.187.187 0 00.188-.188v-22.157l7.685-7.639c.318.026.594.042.973.042.79 0 1.094-.394 1.259-1.241.063-.345.111-.751.153-1.178l.172-.172.408.409a.191.191 0 00.133.055.188.188 0 00.134-.055.19.19 0 000-.267l-.408-.408.409-.409a.19.19 0 000-.267zm-5.394-3.69c.017-.011.014-.028.026-.04l.892.887h-1.387c.096-.179.182-.368.278-.573.061-.128.113-.223.191-.274zm-5.9-27.455v20.993l-1.794-1.783v-17.226a.188.188 0 00-.188-.188h-17.313l-1.806-1.795h21.101zm-11.278 53.594a.187.187 0 00.267.001l8.841-8.789v17.148h-17.232l5.377-5.345a.188.188 0 10-.266-.267l-5.646 5.612H489.25V140.35h44.432l5.16 5.129a.187.187 0 00.267-.001.188.188 0 00-.001-.266l-4.891-4.862h16.746v16.665l-8.841-8.789a.188.188 0 10-.266.267l9.107 9.053v24.908l-9.107 9.053a.188.188 0 00-.001.266zm9.484-33.853l1.794 1.783v20.594l-1.794 1.783v-24.16zm-64.38 44.504v-64.245h44.539l1.806 1.795h-44.242a.188.188 0 00-.188.188v60.16c0 .104.084.188.188.188h43.756l-1.926 1.914h-43.933zm66.174 0h-21.706l1.926-1.914h17.799a.187.187 0 00.188-.188v-17.71l1.794-1.783v21.595zm8.991-30.096c-.144 0-.282-.004-.428-.012l.68-.676a.188.188 0 10-.266-.267l-.904.899a12.81 12.81 0 01-.341-.047c.046.083.072.187.098.289l-7.453 7.409v-19.846l5.3 5.268a6.53 6.53 0 00-.357-.105 2.018 2.018 0 01-.165.599c-.426.993-.964 1.781-1.806 2.585.095.052.2.129.286.24.052.068.078.094.113.094s.069-.026.13-.086a8.076 8.076 0 001.294-1.703h2.138l1.668 1.658a.187.187 0 00.267-.001.188.188 0 00-.001-.266l-1.399-1.391h2.189c0 .88-.022 1.651-.058 2.341-.011.007-.024.005-.034.014a.19.19 0 000 .267l.019.019a19.116 19.116 0 01-.187 1.819c-.114.625-.288.899-.783.899zm24.352-24.745a.19.19 0 00.134-.055l.965-.965a.19.19 0 000-.267.19.19 0 00-.267 0l-.965.965a.19.19 0 000 .267.191.191 0 00.133.055zm1.929-2.049a.192.192 0 00.132-.054l20.254-20.013a.188.188 0 00-.265-.268l-20.254 20.013a.188.188 0 00.133.322zm22.179-22.392l-1.085.964a.188.188 0 10.25.282l1.085-.964a.188.188 0 10-.25-.282zm1.089-.636a.188.188 0 00.134-.055l20.134-20.134a.19.19 0 000-.267.19.19 0 00-.267 0l-20.134 20.134a.19.19 0 000 .267.191.191 0 00.133.055zm22.042-22.497l-.964 1.085a.188.188 0 10.282.25l.964-1.085a.188.188 0 10-.282-.25zm-321.999 14.54h1.447a.188.188 0 100-.376h-1.447a.188.188 0 100 .376zm2.893 0h1.447a.188.188 0 100-.376h-1.447a.188.188 0 100 .376zm2.773 0h1.447a.188.188 0 100-.376h-1.447a.188.188 0 100 .376zm2.893 0h1.447a.188.188 0 100-.376h-1.447a.188.188 0 100 .376zm2.894 0h1.326a.188.188 0 100-.376h-1.326a.188.188 0 100 .376zm2.773 0h1.447a.188.188 0 100-.376h-1.447a.188.188 0 100 .376zm8.56 0h1.447a.188.188 0 100-.376h-1.447a.188.188 0 100 .376zm2.893 0h1.447a.188.188 0 100-.376h-1.447a.188.188 0 100 .376zm2.773 0h1.447a.188.188 0 100-.376h-1.447a.188.188 0 100 .376zm2.894 0h1.447a.188.188 0 100-.376h-1.447a.188.188 0 100 .376zm2.893 0h1.326a.188.188 0 100-.376h-1.326a.188.188 0 100 .376zm2.773 0h1.447a.188.188 0 100-.376h-1.447a.188.188 0 100 .376zm-177.877 14.156a2.357 2.357 0 00-.854-.824 2.406 2.406 0 00-1.203-.297c-.98 0-1.763.365-2.348 1.094-.585.729-.878 1.73-.878 3.001 0 1.102.297 2.006.892 2.71.595.704 1.327 1.056 2.198 1.056.529 0 .971-.1 1.326-.301.355-.201.672-.522.95-.964v1.032h1.894V125.15h-1.977v3.555zm-.375 4.484c-.287.41-.707.615-1.258.615s-.961-.207-1.23-.622c-.273-.41-.41-.959-.41-1.647 0-.638.135-1.172.401-1.603.266-.431.684-.646 1.254-.646.373 0 .701.118.984.355.46.392.69 1.044.69 1.955 0 .652-.144 1.183-.431 1.593zm10.534-2.637a3.743 3.743 0 00-.567-1.538 2.922 2.922 0 00-1.23-1.101c-.497-.233-1.055-.349-1.675-.349-1.043 0-1.892.344-2.546 1.032s-.981 1.677-.981 2.967c0 1.376.362 2.369 1.087 2.98a3.778 3.778 0 002.509.916c1.149 0 2.042-.362 2.68-1.087.41-.456.64-.904.69-1.346h-1.99a1.62 1.62 0 01-.362.513c-.251.228-.577.342-.978.342-.379 0-.702-.093-.971-.28-.442-.301-.677-.825-.704-1.572h5.1c.009-.643-.012-1.135-.062-1.477zm-4.988.19c.064-.483.22-.865.468-1.148.248-.283.598-.424 1.049-.424.414 0 .762.134 1.042.4s.436.657.468 1.172h-3.027zm4.955 2.283v.001zm3.609-7.274h-1.928v2.078h-1.039v1.388h1.039v4.587c0 .465.109.809.328 1.032.338.351.967.511 1.887.479l.923-.034v-1.456c-.064.004-.129.009-.195.011a6.237 6.237 0 01-.188.003c-.397 0-.634-.038-.711-.113-.077-.075-.116-.266-.116-.571v-3.938h1.21v-1.388h-1.21v-2.078zm8.531 8.429c-.01-.337-.014-.624-.014-.861v-3.418c0-.898-.317-1.509-.95-1.832s-1.358-.485-2.174-.485c-1.253 0-2.137.328-2.652.984-.324.419-.506.955-.548 1.607h1.88c.045-.288.136-.515.273-.684.192-.228.518-.342.978-.342.41 0 .721.058.933.174.212.116.318.327.318.632 0 .251-.139.436-.417.554-.154.068-.412.125-.772.171l-.663.082c-.752.096-1.322.256-1.709.479-.707.41-1.06 1.073-1.06 1.989 0 .706.22 1.252.66 1.637s.997.578 1.671.578a2.8 2.8 0 001.422-.362c.351-.205.661-.453.93-.745.014.169.032.319.055.451s.064.274.123.424h2.119v-.287a.703.703 0 01-.287-.226c-.064-.092-.102-.265-.116-.52zm-1.962-1.866c-.013.652-.197 1.101-.55 1.347-.353.246-.74.369-1.159.369a1.02 1.02 0 01-.67-.226c-.187-.146-.28-.385-.281-.718 0-.374.15-.649.451-.827.178-.105.472-.194.882-.267l.438-.082c.219-.041.39-.085.516-.133s.25-.111.373-.188v.725zm3.705-7.239h1.976v1.798h-1.976zm0 2.686h1.976v7.451h-1.976zm3.904-2.625h1.948v10.076h-1.948z"/><path fill="#969696" d="M366.186 171.768l-19.862-39.723H206.633v-1h140.309l20.139 40.276z"/></svg>