<svg xmlns="http://www.w3.org/2000/svg" width="240.954" height="292.802"><g id="ba53ff0e-7b5f-4eff-901b-3cc507fe7a75" data-name="レイヤー 2"><path d="M222.353 20.4l.36-10.321c-.817.792-2.4 2.184-2.857 2.184a.608.608 0 01-.6-.6.617.617 0 01.336-.552A16.276 16.276 0 00224.537 6a.568.568 0 01.5-.312.7.7 0 01.672.672 9.249 9.249 0 01-1.8 2.472l-.261 11.568a.62.62 0 01-.671.576.561.561 0 01-.624-.552zm-2.808-14.111a.638.638 0 01.359-.528 15.582 15.582 0 004.585-4.7.6.6 0 01.5-.312.682.682 0 01.672.648c0 .768-4.368 5.521-5.473 5.521a.656.656 0 01-.643-.629zm10.969 6.649l-.025 3.36a29.546 29.546 0 003.5-.936.555.555 0 01.192-.049.49.49 0 01.456.529.544.544 0 01-.336.5 52.221 52.221 0 01-8.425 1.944.581.581 0 01-.624-.576.592.592 0 01.552-.576c.912-.12 2.184-.336 3.5-.6v-3.6l-2.9.047a.528.528 0 110-1.056h2.9l-.024-1.9a.58.58 0 01.624-.576.573.573 0 01.6.576v1.9l2.952-.024a.528.528 0 110 1.056zm-4.273-4.249a.528.528 0 010-1.056l3.072.024V4.489l-2.568.024a.5.5 0 01-.528-.528.5.5 0 01.528-.528l2.568.023-.024-2.568a.58.58 0 01.624-.576.573.573 0 01.6.576V3.48l2.591-.023a.5.5 0 01.529.528.5.5 0 01-.529.528l-2.591-.024-.025 3.168 2.952-.024a.529.529 0 010 1.056zm12 9.289v.072c0 1.464-.552 2.688-2.856 2.688a9.718 9.718 0 01-1.872-.216.594.594 0 01-.481-.624c0-.336.193-.648.505-.648h.1a10.8 10.8 0 001.752.216c1.008 0 1.56-.384 1.56-1.608 0-1.68.024-6.817.024-9.241h-2.208a.547.547 0 01-.552-.576.541.541 0 01.552-.552h5.52a.564.564 0 110 1.128h-2.088c0 1.8 0 5.713.024 6.865zM235.122 3.1a.588.588 0 110-1.176h4.536a.56.56 0 01.6.577.565.565 0 01-.6.6zm-5.4 41.469a221.455 221.455 0 01-5.785-.144 2.326 2.326 0 01-2.5-2.208c-.023-.7-.047-1.392-.047-2.088s.024-1.368.047-1.968a2.375 2.375 0 012.449-2.232c1.824-.048 3.816-.072 5.833-.072l-.019-3.937a.6.6 0 01.649-.576.607.607 0 01.672.576l-.025 3.937c2.04 0 4.105.024 6 .072a2.294 2.294 0 012.328 2.064c.048.624.048 1.344.048 2.064s0 1.464-.048 2.136a2.432 2.432 0 01-2.472 2.232c-1.92.1-3.912.144-5.857.144l.025 7.033a.6.6 0 01-.672.552.6.6 0 01-.649-.552zm0-7.536c-1.969 0-3.865.024-5.329.072a1.636 1.636 0 00-1.705 1.536c-.023.408-.023.96-.023 1.536 0 2.3.1 3 1.752 3.072 1.536.072 3.384.12 5.305.12zm1.271 6.336c1.872 0 3.744-.048 5.377-.12a1.555 1.555 0 001.68-1.536c.024-.5.024-1.152.024-1.8 0-1.9-.048-2.736-1.728-2.808a175.784 175.784 0 00-5.353-.072zm.433 22.32c0 2.232-3.169 11.257-6.385 11.257-1.248 0-3.12-1.632-3.12-4.465a8.917 8.917 0 019.192-8.472c4.129 0 7.753 2.64 7.753 6.864 0 5.905-6.553 7.825-7.392 7.825a.73.73 0 01-.817-.672c0-.288.216-.6.721-.7 3.24-.7 6.12-2.928 6.12-6.553 0-3.36-2.977-5.712-6.408-5.712a.67.67 0 01.336.628zm-8.257 6.7c0 1.633.984 3.121 1.944 3.121 1.632 0 4.609-5.761 4.945-9.793a.813.813 0 01.24-.6 7.777 7.777 0 00-7.129 7.268zm-2.593 31.892a.657.657 0 01-.672-.575.628.628 0 01.288-.505 18.309 18.309 0 004.561-5.472 19.574 19.574 0 00-.912-2.76c-.624.648-2.616 2.616-3.216 2.616a.609.609 0 01-.625-.552.55.55 0 01.288-.456 16.97 16.97 0 003.072-2.664 10.26 10.26 0 00-1.679-2.5.637.637 0 01-.193-.457.585.585 0 01.576-.576c.553 0 1.513 1.321 2.161 2.544a17.211 17.211 0 001.632-2.3.52.52 0 01.456-.264.653.653 0 01.648.6c0 .408-1.3 1.993-2.232 3.049a23.053 23.053 0 011.848 8.88c0 3.313-.7 6.937-4.224 6.937-1.752 0-1.945-.432-1.945-.816a.584.584 0 01.553-.648.523.523 0 01.191.024 5.126 5.126 0 001.273.192 2.314 2.314 0 002.328-1.8 12.421 12.421 0 00.648-4.129 20.4 20.4 0 00-.312-3.384c-.84 1.344-3.649 5.016-4.513 5.016zm13.993-2.88a11.972 11.972 0 006.049 7.393.56.56 0 01.336.528.738.738 0 01-.7.744c-1.031 0-5.184-3.288-6.5-7.825-1.656 6.049-6.409 8.017-6.937 8.017a.638.638 0 01-.216-1.248 10.187 10.187 0 006.144-7.609l-5.064.072a.564.564 0 110-1.128l5.257.024a45.518 45.518 0 00.12-5.688l-4.657.048a.576.576 0 110-1.152l4.632.024c0-1.488 0-2.761-.023-3.241v-.024a.6.6 0 01.624-.624.591.591 0 01.624.624V93.6l5.088-.024a.577.577 0 010 1.152l-5.065-.024a53.215 53.215 0 01-.143 5.664l1.3-.024a24.842 24.842 0 001.8-4.224.55.55 0 01.552-.432c.36 0 .768.288.768.624a26.527 26.527 0 01-1.968 4.032h3.672a.543.543 0 01.553.552.548.548 0 01-.553.576zm-4.2-2.28a12.383 12.383 0 00-1.7-2.592.38.38 0 01-.12-.288c0-.264.336-.5.624-.5.48 0 2.328 2.448 2.328 3.1a.64.64 0 01-.624.648.542.542 0 01-.508-.368zm-9.408 36.433a.682.682 0 01-.481-1.2 15.442 15.442 0 004.033-6.409.58.58 0 01.576-.408.725.725 0 01.768.672 18.447 18.447 0 01-4.3 7.081.845.845 0 01-.596.264zm9-13.033a.684.684 0 111.368 0v12.913l.049 2.688v.048c0 1.464-.889 3-3.745 3a12.318 12.318 0 01-2.28-.264.7.7 0 01-.624-.672.693.693 0 01.648-.72.408.408 0 01.168.024 10.943 10.943 0 002.184.288c1.344 0 2.232-.5 2.232-1.872zm9.313 11.665a22.712 22.712 0 00-4.488-5.761.507.507 0 01-.192-.408.618.618 0 01.648-.576c1.056 0 5.472 5.5 5.472 6.433a.794.794 0 01-.768.792.773.773 0 01-.672-.48zm-15.937 26.423h-2.832a.543.543 0 01-.553-.552.548.548 0 01.553-.576l2.832.024v-5.665a.591.591 0 01.647-.6.584.584 0 01.624.6l-.023 5.665 2.568-.024a.521.521 0 01.528.552.528.528 0 01-.528.576h-2.568l-.024 6.5a36.028 36.028 0 002.665-1.272.632.632 0 01.287-.072.554.554 0 01.528.552.594.594 0 01-.36.528c-1.656.84-6.624 3.12-7.344 3.12a.614.614 0 01-.168-1.2c.96-.288 2.088-.7 3.191-1.152zm10.345-.576l-3.073 1.56c0 3.024-.024 6.12-.024 7.608 0 1.849 1.776 1.849 3.457 1.849 4.776 0 5.376-.576 5.376-3.073a.586.586 0 01.624-.648c.265 0 .721.144.721.84 0 3.7-2.257 4.009-6.313 4.009-2.52 0-5.064-.048-5.064-2.809v-7.152a15.866 15.866 0 01-2.545 1.248.559.559 0 01-.528-.576.527.527 0 01.312-.5s1.176-.6 2.761-1.416v-5.641a.584.584 0 01.624-.6.576.576 0 01.624.552c0 1.3-.025 3.12-.025 5.041l3.073-1.537v-5.616a.579.579 0 01.624-.576.572.572 0 01.6.576v4.992c1.944-.983 2.4-1.2 3.024-1.2 1.512 0 1.585 1.44 1.585 2.761 0 5.376-.433 6.816-2.473 6.816-1.056 0-1.2-.312-1.2-.7 0-.312.192-.648.48-.648.048 0 .072.024.12.024a2.192 2.192 0 00.624.1c.84 0 1.224-.768 1.224-5.112 0-1.488-.12-2.016-.7-2.016-.12 0-.36.023-2.688 1.224v8.3a.549.549 0 01-.6.528.557.557 0 01-.624-.528zm1.872 41.067c-4.872 0-7.849-3.216-7.849-7.08a9.407 9.407 0 012.448-6.025c.193-.192.288-.312.288-.36 0-.024 0-.048-.047-.048a1.2 1.2 0 00-.384.1c-3.072 1.008-6.913 1.992-7.129 1.992a.782.782 0 01-.864-.744.755.755 0 01.7-.7c.528-.12 1.992-.408 2.784-.6 1.2-.312 3.36-.792 5.881-1.512a40.645 40.645 0 016.792-1.44.77.77 0 01.816.768c0 .624-.552.7-1.848.768a12.2 12.2 0 00-3.744.72 7.947 7.947 0 00-4.398 6.839c0 3 2.04 5.784 6.337 5.784h.432c.672 0 1.008.36 1.008.744.001.12-.048.794-1.223.794zm2.28-9a8.059 8.059 0 00-2.353-1.728.445.445 0 01-.311-.408.567.567 0 01.6-.528c.48 0 3.1 1.368 3.1 2.256a.615.615 0 01-.6.624.51.51 0 01-.436-.216zm2.064-1.752a7.979 7.979 0 00-2.4-1.728.466.466 0 01-.336-.432.566.566 0 01.6-.5c.36 0 3.144 1.272 3.144 2.256a.6.6 0 01-.576.624.584.584 0 01-.43-.223zm-11.113 35.902c0 1.008.025 3.816 2.689 3.816a4.074 4.074 0 003.912-4.1 5.837 5.837 0 00-1.872-3.84.806.806 0 01-.241-.528.625.625 0 01.672-.577.843.843 0 01.624.288 7.355 7.355 0 012.16 4.729 5.4 5.4 0 01-5.28 5.256c-1.992 0-3.792-1.3-3.887-4.2v-.648c0-.672.023-1.392.071-2.136a14.139 14.139 0 01-2.616-.456c-.456-.121-.624-.408-.624-.673a.624.624 0 01.624-.647 1.019 1.019 0 01.264.047 11.286 11.286 0 002.448.481c.121-1.392.289-2.857.432-4.225-2.5-.216-3.144-.6-3.144-1.152a.64.64 0 01.648-.624.609.609 0 01.288.048 9.13 9.13 0 002.328.5c.216-2.376.336-3.7.408-5.016a.634.634 0 01.648-.672.721.721 0 01.744.7v.048c-.048 1.176-.239 2.16-.384 3.576l-.143 1.392a8.423 8.423 0 001.584-.192.737.737 0 01.216-.024.568.568 0 01.624.576c0 .864-1.849.888-2.592.888-.169 1.368-.361 2.785-.481 4.2a7.793 7.793 0 002.256-.384 1.224 1.224 0 01.288-.049.626.626 0 01.649.625.649.649 0 01-.529.624 10.28 10.28 0 01-2.736.432c-.023.645-.048 1.293-.048 1.917zM177.633 3.961a.553.553 0 01-.576-.576.524.524 0 01.551-.529l8.162.025-.025-2.113a.65.65 0 01.7-.624.638.638 0 01.7.624l-.025 2.113 8.137-.025a.51.51 0 01.528.552.522.522 0 01-.528.553zm.12 9.6c0-1.369.864-2.3 2.568-2.329 2.136-.024 4.464-.024 6.865-.024 1.752 0 3.551 0 5.328.024a2.351 2.351 0 012.545 2.136v3.889c0 .312.047.816.047 1.3v.072c0 1.128-.528 2.208-2.88 2.208-2.016 0-2.281-.312-2.281-.744a.606.606 0 01.6-.648h.1a11.317 11.317 0 001.8.216c.84 0 1.344-.288 1.344-1.2 0-3.769 0-4.321-.024-4.824-.024-.865-.576-1.345-1.536-1.369-1.92-.024-3.985-.048-6.025-.048-2.015 0-3.96.024-5.664.048a1.379 1.379 0 00-1.488 1.464c0 .865-.025 2.089-.025 3.313 0 1.248.025 2.5.025 3.456a.588.588 0 01-.649.576.6.6 0 01-.647-.6zm8.688-3.841c-5.088 0-5.52-.024-5.52-1.992 0-1.344.072-2.208 2.088-2.232 1.3-.024 2.568-.048 3.841-.048 4.8 0 5.16.024 5.16 2.136 0 2.137-.288 2.137-5.569 2.137zm-.072 8.569c-4.008 0-4.512-.192-4.512-2.136 0-1.056.072-2.089 1.8-2.161a94.29 94.29 0 012.737-.047c.984 0 1.944.023 2.711.047 1.777.072 1.825 1.105 1.825 2.017 0 2.233-.649 2.281-4.561 2.281zm4.417-10.7c0-.84-.049-1.128-1.08-1.128-1.248-.024-2.5-.024-3.745-.024-.912 0-1.824 0-2.735.024-.961.024-1.081.288-1.081 1.1 0 1.2 0 1.2 4.081 1.2 3.96 0 4.511 0 4.536-.672a3.068 3.068 0 00.024-.504zm-4.417 9.7c3.36 0 3.36-.024 3.36-1.224a2.726 2.726 0 00-.023-.456c-.072-.7-.1-.7-3.721-.7-.744 0-1.464 0-1.992.023-.912.025-.936.384-.936 1.561.048.789.456.789 3.312.789zm-10.633 23.872a.9.9 0 01.145-.432 8.057 8.057 0 001.008-3.984.489.489 0 01.528-.528.622.622 0 01.672.624c0 1.368-.672 4.872-1.752 4.872a.569.569 0 01-.601-.552zm3.721-8.977a.611.611 0 01.672-.6.6.6 0 01.648.6V51.53a.6.6 0 01-.648.576.607.607 0 01-.672-.576zm3.24 6.073a10.03 10.03 0 00-1.344-2.208.5.5 0 01-.12-.289.531.531 0 01.552-.455c.6 0 2.04 1.992 2.04 2.616a.666.666 0 01-.648.672.5.5 0 01-.477-.336zm.888 12.889a.543.543 0 01-.6-.552.574.574 0 01.6-.576l6 .024v-5.569l-3.841.024a.542.542 0 01-.6-.552.573.573 0 01.6-.576l3.841.024V38.5l-3.505.024a19.045 19.045 0 01-2.016 3.7.691.691 0 01-.6.36.61.61 0 01-.6-.6.542.542 0 01.12-.36 17.012 17.012 0 003.073-7.68.621.621 0 01.624-.577.645.645 0 01.672.624 18.293 18.293 0 01-.865 3.409l3.1.024v-5.168a.636.636 0 011.271 0v5.161l4.8-.024a.564.564 0 110 1.128l-4.8-.024v4.9l3.817-.024a.567.567 0 110 1.128l-3.817-.024v5.569l5.545-.024a.564.564 0 110 1.128zm-6.912 18.239a.553.553 0 01-.576-.576.528.528 0 01.528-.576c.5-.024 1.031-.024 1.584-.072a33.346 33.346 0 002.063-4.969.591.591 0 01.6-.408.672.672 0 01.72.576 27.042 27.042 0 01-2.16 4.681 53.495 53.495 0 004.656-.7 11.165 11.165 0 00-1.128-1.056.419.419 0 01-.168-.336.6.6 0 01.6-.528c.671 0 3.143 2.616 3.143 3.36a.662.662 0 01-.624.672.553.553 0 01-.5-.336 13.167 13.167 0 00-.624-.96 53.092 53.092 0 01-8.114 1.228zm2.256 9.073c0 1.632.024 3.24.048 4.368a.612.612 0 01-1.224 0v-10.1c0-1.944 1.559-1.968 3.624-1.968 2.232 0 3.672.048 3.721 1.992.023.576.023 1.968.023 3.288v3.025c.025.864.048 1.176.048 1.872V81a1.913 1.913 0 01-2.16 2.16c-1.536 0-1.728-.36-1.728-.744a.564.564 0 01.528-.6c.048 0 .072.024.12.024a5.841 5.841 0 001.056.144c.552 0 .936-.216.96-1.08 0-.576.024-1.464.024-2.448zm0-3.265v2.281h5.04c0-.768-.024-1.536-.024-2.281zm4.992-.984c0-.5-.024-.936-.024-1.3a1.022 1.022 0 00-1.032-1.08c-.336-.024-1.08-.024-1.7-.024-2.089 0-2.208.048-2.208 2.4zm5.089-4.609c.023.792.263 1.32 2.736 1.32 2.136 0 3.36-.432 3.36-2.232a.547.547 0 01.6-.576.691.691 0 01.72.648c-.048 2.9-2.256 3.24-4.68 3.24-2.28 0-4.009-.216-4.009-2.28 0-1.464.048-4.873.048-6.217a.581.581 0 01.649-.552c.311 0 .624.168.624.5v.024a99.865 99.865 0 00-.048 3.1 38.247 38.247 0 005.472-2.065.547.547 0 01.264-.072.707.707 0 01.649.7.667.667 0 01-.457.577 42.933 42.933 0 01-5.928 1.92zm0 10.681c.048 1.272 1.176 1.344 2.639 1.344 2.737 0 3.578-.648 3.578-2.232a.546.546 0 01.6-.576.7.7 0 01.744.648c-.048 2.832-2.16 3.288-4.776 3.288-2.376 0-4.057-.24-4.057-2.3 0-1.464.048-5.329.048-6.673a.581.581 0 01.649-.552c.311 0 .624.168.624.5v.024c-.025.72-.048 1.968-.048 3.193a42.432 42.432 0 005.448-2.185.547.547 0 01.264-.072.7.7 0 01.648.672.638.638 0 01-.432.577 44.139 44.139 0 01-5.928 2.04zm2.544 31.297c-4.872 0-7.849-3.216-7.849-7.08a9.407 9.407 0 012.448-6.025c.193-.192.288-.312.288-.36 0-.024 0-.048-.047-.048a1.2 1.2 0 00-.384.1c-3.072 1.008-6.913 1.992-7.129 1.992a.782.782 0 01-.864-.744.755.755 0 01.7-.7c.528-.12 1.992-.408 2.784-.6 1.2-.312 3.36-.792 5.881-1.512a40.645 40.645 0 016.792-1.44.77.77 0 01.816.768c0 .624-.552.7-1.848.768a12.2 12.2 0 00-3.744.72 7.947 7.947 0 00-4.398 6.841c0 3 2.04 5.784 6.337 5.784h.432c.672 0 1.008.36 1.008.744.001.12-.048.792-1.223.792zm2.28-9a8.059 8.059 0 00-2.353-1.728.445.445 0 01-.311-.408.567.567 0 01.6-.528c.48 0 3.1 1.368 3.1 2.256a.615.615 0 01-.6.624.51.51 0 01-.436-.217zm2.064-1.752a7.979 7.979 0 00-2.4-1.728.466.466 0 01-.336-.432.566.566 0 01.6-.5c.36 0 3.144 1.272 3.144 2.256a.6.6 0 01-.576.624.584.584 0 01-.43-.221zm-5.352 25.199a2.676 2.676 0 012.9 2.568c.072 1.464.1 3.672.1 5.88 0 2.185-.024 4.321-.072 5.665-.048 1.848-1.152 2.784-3.288 2.856-.913.024-2.016.048-3.145.048-1.56 0-3.144-.024-4.271-.072-2.185-.072-3.265-.912-3.313-2.784-.024-1.344-.048-3.12-.048-4.992 0-2.281.024-4.657.048-6.457.023-1.56 1.008-2.64 3.072-2.712.48-.024 1.176-.048 1.945-.048.311-1.008.672-2.448.767-3a.616.616 0 01.672-.455c.36 0 .744.191.744.6a19.626 19.626 0 01-.887 2.857c1.751-.002 3.671-.002 4.776.046zm1.7 6.312h-11.638c0 1.3.025 2.688.025 3.985h11.617zm0-1.1c0-3.048 0-4.032-2.16-4.128-.96-.048-2.4-.048-3.769-.048-1.391 0-2.688 0-3.432.048-1.632.072-2.16.816-2.208 1.944a53.99 53.99 0 00-.048 2.184zm-11.617 6.193c0 .96.024 1.824.048 2.448.072 2.064 1.3 2.064 5.953 2.064 4.176 0 5.52 0 5.568-2.088.024-.648.024-1.488.024-2.424zm.244 23.491a.5.5 0 01-.384-.5.593.593 0 01.6-.6 11.44 11.44 0 012.856 1.248 11.973 11.973 0 00.888-2.712c0-.432-.288-.624-.96-.624-.624 0-1.776.024-2.76.048a23.109 23.109 0 01-3.648 5.3.789.789 0 01-.6.288.588.588 0 01-.6-.576.6.6 0 01.191-.456 19.718 19.718 0 004.633-7.608.638.638 0 01.6-.505.682.682 0 01.672.649 8.714 8.714 0 01-.744 1.872l2.52-.048h.169c1.248 0 1.872.6 1.872 1.464a2.532 2.532 0 01-.12.7c-2.641 8.545-8.45 10.8-8.858 10.8a.639.639 0 01-.647-.624.664.664 0 01.456-.576 11.922 11.922 0 004.584-3.553 17.017 17.017 0 00-2.64-1.176.476.476 0 01-.36-.456.619.619 0 01.624-.624 13.865 13.865 0 013.072 1.344 17.916 17.916 0 001.176-1.92 13.084 13.084 0 00-2.592-1.155zm-3.984 13.273a.59.59 0 01.311-.48 6.216 6.216 0 002.425-3.264.585.585 0 01.6-.48.619.619 0 01.648.6c0 1.248-2.256 4.248-3.265 4.248a.692.692 0 01-.719-.624zm13.873-13.394a11.347 11.347 0 005.736 6.816.589.589 0 01.36.577.669.669 0 01-.671.672c-.937 0-4.8-2.928-6.074-6.769a9.658 9.658 0 01-6.672 7.081.66.66 0 01-.648-.648.594.594 0 01.456-.552 8.717 8.717 0 005.952-7.153l-2.76.024h-.024a.478.478 0 01-.5-.5.548.548 0 01.553-.576h2.9a14.46 14.46 0 00.071-1.752c0-1.032-.047-2.064-.071-3.121a.611.611 0 01.624-.648.626.626 0 01.672.6c0 .84.023 1.609.023 2.3a22.57 22.57 0 01-.12 2.616h4.849a.5.5 0 01.528.528.509.509 0 01-.528.552zm-6.262 13.9a.56.56 0 01-.6-.576 10.119 10.119 0 00-.671-3.576.294.294 0 01-.025-.144.5.5 0 01.552-.432c1.225 0 1.464 3.912 1.464 4.032a.686.686 0 01-.72.696zm5.232-.072a.584.584 0 01-.6-.5 9.956 9.956 0 00-1.584-3.5.454.454 0 01-.072-.24.556.556 0 01.576-.48c1.032 0 2.4 3.5 2.4 4.032a.7.7 0 01-.723.686zm4.3-16.345a5.647 5.647 0 00-2.064-1.92.278.278 0 01-.145-.265.647.647 0 01.625-.575c.5 0 2.617 1.512 2.617 2.3a.683.683 0 01-.649.672.461.461 0 01-.39-.214zm1.536 16.153a.632.632 0 01-.576-.36 11.608 11.608 0 00-2.952-3.312.332.332 0 01-.144-.264.634.634 0 01.648-.552c.816 0 3.769 2.784 3.769 3.768a.743.743 0 01-.751.718zm-8.142 13.893c0 2.232-3.169 11.257-6.385 11.257-1.248 0-3.12-1.632-3.12-4.464a8.917 8.917 0 019.192-8.473c4.129 0 7.753 2.64 7.753 6.864 0 5.905-6.553 7.825-7.392 7.825a.73.73 0 01-.817-.672c0-.288.216-.6.721-.7 3.24-.7 6.12-2.928 6.12-6.553 0-3.36-2.977-5.712-6.408-5.712a.67.67 0 01.336.628zm-8.257 6.7c0 1.632.984 3.12 1.944 3.12 1.632 0 4.609-5.761 4.945-9.793a.813.813 0 01.24-.6 7.777 7.777 0 00-7.129 7.27zm-2.832 36.429a.594.594 0 01.359-.528 6.851 6.851 0 002.569-3.24.527.527 0 01.528-.408.663.663 0 01.7.576c0 1.08-2.3 4.224-3.432 4.224a.692.692 0 01-.724-.624zm10.585-16.058v1.992c1.512 0 3.023.024 4.391.048 1.416.024 2.161.84 2.209 1.608.024.5.048 1.32.048 2.112 0 .648-.024 1.272-.048 1.68-.072 1.033-.816 1.848-2.329 1.9-1.559.047-3.095.072-4.584.072-1.728 0-3.408-.025-4.992-.072-1.56-.049-2.328-.769-2.376-1.849-.024-.48-.024-1.2-.024-1.9s0-1.392.024-1.8c.048-.936.648-1.728 2.3-1.752 1.2-.024 2.641-.048 4.177-.048V215.4l-7.778.024a.528.528 0 01-.551-.552.523.523 0 01.551-.528l7.778.024v-1.728a.583.583 0 01.624-.6.576.576 0 01.6.6v1.729l7.9-.024a.524.524 0 01.553.528.529.529 0 01-.553.552zm-1.177 2.952c-1.464 0-2.856 0-3.96.024-1.224.024-1.44.552-1.44 2.184h5.4zm0 3.144h-5.4c0 1.512.024 2.232 1.464 2.28 1.2.048 2.545.048 3.936.048zm-2.04 5.4c-.024.864-.048 1.824-.048 2.592 0 1.56.12 2.064 2.977 2.064 2.687 0 3.576-.48 3.647-2.256a.58.58 0 01.625-.576.647.647 0 01.7.6c0 3.192-2.785 3.336-5.185 3.336-2.567 0-4.008-.312-4.008-2.5 0-1.032 0-2.136.048-3.264a.568.568 0 01.624-.5c.313 0 .624.168.624.48zm4.368 1.536a9.026 9.026 0 00-2.807-2.064.408.408 0 01-.265-.408.558.558 0 01.553-.552c.551 0 3.6 1.7 3.6 2.568a.685.685 0 01-.624.7.582.582 0 01-.457-.242zm4.321-7.873c0-1.392 0-2.16-1.488-2.184-1.152-.024-2.568-.024-4.009-.024v2.208zm-5.5.936v2.328c1.369 0 2.737-.023 4.009-.048 1.464-.048 1.488-.72 1.488-2.28zm8.545 9.313a10.313 10.313 0 00-3.192-3.168.411.411 0 01-.216-.384.611.611 0 01.624-.576c.72 0 4.008 2.76 4.008 3.744a.692.692 0 01-.672.7.67.67 0 01-.549-.314zM184.113 254.5c-.864 1.752-2.568 5.136-5.3 5.136a1.872 1.872 0 01-1.993-1.92c0-2.352 3.145-3.936 6.529-4.3l.264-.5c.912-1.921 2.472-4.849 3.144-6.361a.618.618 0 00.072-.24c0-.048-.023-.1-.12-.1a.352.352 0 00-.143.024 18.4 18.4 0 01-3.769.624c-.5 0-.72-.288-.72-.6a.659.659 0 01.648-.648 30.914 30.914 0 004.032-.6 2.14 2.14 0 01.528-.072c.672 0 1.057.36 1.057.912a1.912 1.912 0 01-.288.912c-1.177 2.016-2.377 4.489-3.385 6.577a16.857 16.857 0 016.745 1.3 6.313 6.313 0 00.216-1.608 3.839 3.839 0 00-.5-1.992.466.466 0 01-.072-.24.64.64 0 01.672-.553c.792 0 1.2 1.561 1.2 2.761a7.736 7.736 0 01-.336 2.136 19.214 19.214 0 013.792 2.328.941.941 0 01.385.7.724.724 0 01-.7.744.8.8 0 01-.551-.24 15.415 15.415 0 00-3.385-2.328c-1.512 3.408-4.7 5.5-5.353 5.5a.531.531 0 01-.576-.528.793.793 0 01.456-.672 10.952 10.952 0 004.321-4.824 16.791 16.791 0 00-6.145-1.32zm-6.049 3.072a.851.851 0 00.937.816c1.8 0 3.288-2.808 3.769-3.792-2.498.382-4.706 1.63-4.706 2.974zm5.905 20.373a9.872 9.872 0 01-1.536.144c-1.224 0-2.3-.36-2.3-1.056a.581.581 0 01.624-.576 1.016 1.016 0 01.552.192 2.506 2.506 0 001.32.288 11.637 11.637 0 002.017-.24 10.638 10.638 0 00.407-2.5.642.642 0 01.7-.552.611.611 0 01.672.6 7.6 7.6 0 01-.456 2.112 11.959 11.959 0 002.185-.84.793.793 0 01.383-.12.59.59 0 01.6.576c0 .744-1.465 1.176-3.576 1.656a24.908 24.908 0 01-1.7 3.528 4.652 4.652 0 011.823-.408 2.83 2.83 0 012.856 2.641c1.153-.6 2.377-1.153 3.457-1.633.6-.264 1.344-.552 2.04-.936a1.187 1.187 0 01.577-.168.7.7 0 01.719.672.8.8 0 01-.5.7c-.7.312-1.176.456-2.448.936a43.794 43.794 0 00-3.721 1.657c.025.576.048 1.3.048 1.968 0 1.224 0 1.992-.767 1.992a.572.572 0 01-.552-.648v-.072c.023-.552.048-1.248.048-1.872v-.7c-1.609.936-3.769 2.28-3.769 3.96 0 .48.384 2.256 3.529 2.256a11.8 11.8 0 003.408-.528 1.326 1.326 0 01.408-.072.665.665 0 01.72.648c0 .336-.216.672-.768.816a13.618 13.618 0 01-3.433.432c-4.032 0-5.136-2.088-5.136-3.408 0-2.52 3.192-4.392 4.969-5.376-.193-1.609-.96-2.233-1.92-2.233a4.756 4.756 0 00-3.049 1.56c-.792 1.081-1.128 1.441-1.56 1.441a.567.567 0 01-.6-.528.866.866 0 01.312-.6 15.783 15.783 0 003.7-5.736zM139.777 15.434a56.1 56.1 0 01-7.369 2.184.594.594 0 01-.527-.648.5.5 0 01.407-.552c.7-.144 1.368-.312 2.065-.48l.024-13.438H132.6a.529.529 0 01-.552-.553.522.522 0 01.552-.527h10.128a.509.509 0 01.552.527.516.516 0 01-.552.553H141l.024 17.833a.624.624 0 01-1.248 0zm.023-12.962h-4.224v3.505h4.224zm0 4.537h-4.224v3.312h4.224zm0 4.344h-4.224l.024 4.273a60.923 60.923 0 004.176-1.345zm3.024-5.568a.509.509 0 01-.527-.552.547.547 0 01.552-.576c1.9-.024 4.488-.024 6.144-.024 1.3 0 2.016.576 2.016 1.752a18.377 18.377 0 01-2.952 8.713 12.538 12.538 0 004.537 3.768.579.579 0 01.359.552.738.738 0 01-.7.744c-.407 0-2.712-1.128-4.92-4.032-2.185 2.856-4.7 4.248-5.137 4.248a.666.666 0 01-.672-.648.569.569 0 01.361-.528 13.135 13.135 0 004.728-4.08 18.682 18.682 0 01-2.929-7.609.6.6 0 01.624-.6.5.5 0 01.529.432 17.065 17.065 0 002.471 6.72 15.89 15.89 0 002.4-7.512c0-.456-.168-.816-.888-.816-1.44 0-4.224 0-5.976.048zm-2.638 30.264c.047 0 .168-.192.263-.336a3.392 3.392 0 012.809-1.56c3.311 0 4.032 4.584 4.032 7.08a12.936 12.936 0 01-5.785 10.777 1.151 1.151 0 01-.624.216.653.653 0 01-.695-.624.9.9 0 01.5-.744 11.657 11.657 0 005.233-9.817c0-1.992-.528-5.784-2.784-5.784-1.3 0-3.5 1.128-3.5 5.784 0 .432.024.912.048 1.44v.1c0 .6-.36.864-.743.864-.649 0-.745-.48-.745-1.632a23.526 23.526 0 01.552-4.752c.288-1.272.72-2.9.912-4.417a.625.625 0 01.649-.576.635.635 0 01.672.648 16.559 16.559 0 01-.7 2.929 1.566 1.566 0 00-.095.384zm-3.313 29.159h-.024a.58.58 0 01-.577-.624.6.6 0 01.577-.647c1.056-.025 2.9-.049 3.888-.049h.073c1.295 0 2.255.72 2.255 1.849.048 5.808 3.672 12.409 9.074 15.289a.76.76 0 01.456.672.868.868 0 01-.841.84c-.84 0-7.177-4.32-9.288-12.5-2.112 9.769-9.241 12.793-9.673 12.793a.812.812 0 01-.793-.768.67.67 0 01.433-.624c6.408-3.048 9.144-9.793 9.384-15.529-.095-.5-.431-.792-1.3-.792h-.1zm2.304 37.992c3.192-3.336 5.329-4.8 7.056-4.8 1.609 0 2.377 1.416 2.377 3.144 0 .12-.024.264-.024.384-.1 1.464-.552 4.176-.672 5.569-.024.24-.024.48-.024.7 0 1.392.456 1.992 1.152 1.992a4.348 4.348 0 002.641-1.632.826.826 0 01.575-.288.668.668 0 01.624.7c0 .72-2.232 2.544-3.985 2.544-1.319 0-2.328-.936-2.328-3.144 0-.289.025-.576.049-.888.144-1.3.575-3.985.648-5.473v-.336c0-1.3-.36-2.088-1.248-2.088-1.9 0-6.433 4.56-6.961 5.16a59.74 59.74 0 00-.119 3.529 29.1 29.1 0 00.263 4.128v.12a.738.738 0 01-.744.768c-.744 0-.768-.912-.768-2.736 0-1.3.072-2.857.168-4.513a22.143 22.143 0 00-1.417 2.281c-1.271 2.352-1.368 2.52-1.967 2.52a.732.732 0 01-.744-.624c0-.264.047-.312.744-1.128a61.411 61.411 0 003.576-5.881l.144-1.848a27.72 27.72 0 00-2.713 1.224.841.841 0 01-.431.12.58.58 0 01-.6-.6.633.633 0 01.385-.576c1.08-.5 2.4-1.08 3.48-1.464.192-1.968.36-3.7.5-4.825a.6.6 0 01.624-.576.622.622 0 01.672.552v.1a59.86 59.86 0 00-.624 4.393c.073 0 .12-.024.168-.024a.693.693 0 01.744.744c0 .36-.144.72-1.224 2.64zm-2.064 27.193a6.055 6.055 0 01-2.232-.384.707.707 0 01-.408-.648.542.542 0 01.551-.6.92.92 0 01.313.073 6.279 6.279 0 002.112.335 8.953 8.953 0 001.945-.216 8.21 8.21 0 00.168-1.608 11.449 11.449 0 00-.1-1.368v-.1a.591.591 0 01.648-.6c.6 0 .792.408.792 1.56a8.6 8.6 0 01-.168 1.728 9.34 9.34 0 001.968-.96.555.555 0 01.336-.1.7.7 0 01.673.648c0 .312-.24.864-3.289 1.729a93.855 93.855 0 01-4.584 12.5.859.859 0 01-.769.528.637.637 0 01-.672-.648 1.334 1.334 0 01.145-.552 76.113 76.113 0 004.512-11.521 10.886 10.886 0 01-1.941.204zm10.633 12.407c-3.385 0-5.425-1.512-5.425-2.329a.734.734 0 01.7-.72.655.655 0 01.5.264 4.436 4.436 0 003.7 1.345 17.642 17.642 0 002.592-.216h.144a.649.649 0 01.7.672c-.007.578-.535.984-2.911.984zm2.5-10.009a9.679 9.679 0 00-3.312-.6 6.047 6.047 0 00-2.136.336.707.707 0 01-.217.048.563.563 0 01-.552-.576c0-.936 2.4-1.008 3.121-1.008a10.576 10.576 0 013.48.576.642.642 0 01.456.624.6.6 0 01-.576.648 1.021 1.021 0 01-.268-.046zM132.625 159.6a.565.565 0 110-1.128h7.32a.565.565 0 110 1.128zm5.136 14.905c-.5.024-1.1.048-1.7.048s-1.176-.024-1.657-.048a1.582 1.582 0 01-1.631-1.608c-.025-.528-.025-1.008-.025-1.464 0-.648 0-1.248.025-1.848a1.557 1.557 0 011.584-1.608c.551-.024 1.1-.048 1.631-.048.673 0 1.3.024 1.873.048a1.653 1.653 0 011.728 1.464c.024.552.024 1.152.024 1.752 0 .576 0 1.152-.024 1.68a1.714 1.714 0 01-1.828 1.633zm-4.176-18.193a.564.564 0 110-1.128h5.064a.527.527 0 01.552.552.534.534 0 01-.552.576zm.023 6.456a.57.57 0 01-.6-.552.556.556 0 01.6-.552h5.092a.515.515 0 01.552.552.527.527 0 01-.552.552zm0 3.145a.57.57 0 01-.6-.553.556.556 0 01.6-.552h5.092a.515.515 0 01.552.552.528.528 0 01-.552.553zm4.825 5.3c0-.528 0-1.032-.024-1.392-.048-.84-.6-.864-2.3-.864-.456 0-.912 0-1.271.024-.912.048-.912.5-.912 2.232 0 .528.023 1.032.023 1.416.025.7.385.816 2.16.816 1.993 0 2.281-.144 2.3-.864.024-.355.024-.859.024-1.363zm1.824 3.96a.666.666 0 01-.672-.648.6.6 0 01.528-.576 13.1 13.1 0 005.449-3 10.578 10.578 0 01-2.592-4.1.638.638 0 01.672-.577.437.437 0 01.431.265 12.384 12.384 0 002.281 3.6 9.341 9.341 0 002.375-4.3c0-.384-.263-.553-.863-.553-1.656 0-4.44.024-6.337.048a.5.5 0 01-.48-.552c0-.288.144-.552.432-.552h6.792c1.417.024 1.873.6 1.873 1.344 0 1.417-1.873 4.2-2.928 5.377a12.334 12.334 0 005.28 2.664.679.679 0 01.553.672.662.662 0 01-.7.672 12.751 12.751 0 01-5.953-3.168 13.186 13.186 0 01-6.141 3.389zm9.409-12.673c-1.728 0-2.16-.48-2.16-1.776 0-1.032.048-2.712.048-3.5 0-.864-.529-.936-1.536-.936-1.321 0-1.9.024-1.9 1.008 0 2.16-.191 4.344-2.328 5.688a.774.774 0 01-.432.144.686.686 0 01-.672-.672.463.463 0 01.264-.432c1.776-.888 1.969-2.52 1.969-4.536v-.552c0-1.633 1.2-1.729 2.76-1.729 2.016 0 3.072.073 3.072 1.777 0 1.2-.072 2.544-.072 3.552 0 .768.336.888 1.224.888 1.08 0 1.489-.264 1.489-1.728 0-.5.023-.84.6-.84s.6.336.6.768c.008 2.641-1.174 2.881-2.926 2.881zm-16.922 28.373a.566.566 0 110-1.129h8.785a.555.555 0 01.6.552.56.56 0 01-.6.577zm4.129 15c-.792 0-1.561-.024-2.04-.048a1.716 1.716 0 01-1.776-1.728c-.025-.48-.025-1.056-.025-1.632s0-1.129.025-1.513a1.69 1.69 0 011.728-1.728 46.832 46.832 0 014.296 0 1.815 1.815 0 011.9 1.584c.023.456.047 1.176.047 1.848 0 1.609 0 3.049-2.04 3.169-.531.025-1.323.049-2.115.049zM133.8 187.56a.547.547 0 01-.552-.576.541.541 0 01.552-.552h6.36a.542.542 0 01.552.552.548.548 0 01-.552.576zm.048 6.457a.53.53 0 110-1.056h6.36a.529.529 0 110 1.056zm0 3.144a.53.53 0 110-1.056h6.36a.529.529 0 110 1.056zm5.952 5.329c0-1.729-.072-2.233-1.128-2.257-.408-.024-1.08-.024-1.728-.024s-1.3 0-1.68.024c-1.056.048-1.056.888-1.056 2.305 0 .48 0 .96.023 1.3.073.816.336.936 2.689.936 2.184 0 2.76 0 2.832-.96.025-.34.048-.845.048-1.324zm6.961-7.825l-4.273.024a.588.588 0 110-1.176l4.273.024-.025-6.937a.673.673 0 011.345 0l-.024 6.937 4.392-.024a.591.591 0 110 1.176l-4.392-.024.024 11.233a.677.677 0 01-1.345 0zM99.426 3.289c0 2.232-3.169 11.257-6.385 11.257-1.248 0-3.12-1.632-3.12-4.464a8.917 8.917 0 019.192-8.473c4.129 0 7.753 2.64 7.753 6.864 0 5.9-6.553 7.825-7.392 7.825a.73.73 0 01-.817-.672c0-.288.216-.6.721-.7 3.24-.7 6.12-2.928 6.12-6.553 0-3.36-2.977-5.712-6.408-5.712a.67.67 0 01.336.628zm-8.257 6.7c0 1.632.984 3.12 1.944 3.12 1.632 0 4.609-5.761 4.945-9.793a.813.813 0 01.24-.6 7.777 7.777 0 00-7.129 7.27zm1.056 20.492a9.768 9.768 0 004.753-1.032.911.911 0 01.456-.144.671.671 0 01.7.648.808.808 0 01-.527.72c-1.369.72-5.137 5.712-5.137 10.417 0 2.28.96 4.536 3.36 4.536 2.208 0 6.673-2.544 6.673-9.625a7.91 7.91 0 00-1.032-4.272 1.17 1.17 0 01-.145-.528.631.631 0 01.649-.648.991.991 0 01.887.72 10.989 10.989 0 005.065 4.92.773.773 0 01.456.7.707.707 0 01-.72.72c-.624 0-2.712-1.608-3.792-2.856-.168-.216-.264-.312-.288-.312s-.024 0-.024.048a4.659 4.659 0 00.072.528 11.163 11.163 0 01.12 1.584c0 5.257-3.457 10.417-7.921 10.417-1.512 0-4.633-.768-4.633-5.76 0-3.649 2.041-7.345 3.673-9.505a1.679 1.679 0 00.192-.288c0-.024 0-.048-.048-.048a1.217 1.217 0 00-.216.048 19.565 19.565 0 01-2.9.336c-.456.024-.84-.192-.84-.648a.729.729 0 01.816-.672zm14.065 1.272a7.485 7.485 0 00-2.328-1.7.446.446 0 01-.313-.408.568.568 0 01.6-.5c.528 0 3.048 1.345 3.048 2.233a.606.606 0 01-.576.6.545.545 0 01-.431-.225zm1.992-1.728a7.8 7.8 0 00-2.376-1.7.5.5 0 01-.336-.408.55.55 0 01.6-.5c.528 0 3.12 1.321 3.12 2.209a.615.615 0 01-.6.624.536.536 0 01-.408-.225zm-12.625 36.48l2.233 4.009c2.231 4.056 3 5.9 3 6.576a.746.746 0 01-.7.816.8.8 0 01-.744-.7c-.408-1.512-1.632-4.32-4.824-10.1-.48.265-3.433 1.921-4.128 1.921a.692.692 0 01-.7-.672c0-.264.168-.529.624-.672a23.879 23.879 0 003.624-1.633c-1.32-2.664-1.777-3.552-1.777-3.984a.631.631 0 01.649-.648.694.694 0 01.624.5 20.923 20.923 0 001.56 3.552l.48-.264a40.429 40.429 0 014.728-2.472 10.483 10.483 0 013.721-.792c2.712 0 4.1 1.608 4.1 3.192 0 2.3-2.353 4.729-5.929 4.729-1.536 0-3.576-.6-3.576-1.416a.714.714 0 01.672-.721.838.838 0 01.479.168 4.606 4.606 0 002.5.673c2.905 0 4.465-1.968 4.465-3.409 0-1.368-1.488-2.064-2.856-2.064-2.256 0-4.321 1.1-7.9 3.216zm2.905-4.416a4.594 4.594 0 00-1.393-2.184.5.5 0 01-.168-.36.6.6 0 01.648-.528c.768 0 2.233 2.064 2.233 2.832a.764.764 0 01-.744.744.594.594 0 01-.576-.504zM93.5 95.378a22.858 22.858 0 01-2.5.192.605.605 0 01-.648-.6.637.637 0 01.624-.648c.792-.024 1.536-.024 2.424-.1l1.56-.168a41.806 41.806 0 00.936-4.393.674.674 0 01.7-.6.65.65 0 01.673.648 27.372 27.372 0 01-.912 4.2c1.872-.168 1.895-.168 1.967-.168 1.513 0 2.809.744 2.809 3.432 0 3.888-1.128 7.945-4.656 7.945-.624 0-2.185-.144-2.185-.985a.641.641 0 01.649-.624.661.661 0 01.215.024 4.763 4.763 0 001.368.216c2.953 0 3.313-4.68 3.313-6.408 0-1.536-.288-2.448-1.729-2.448-.36 0-1.007.048-2.064.168A35.744 35.744 0 0191.265 105a1.048 1.048 0 01-.865.481.635.635 0 01-.7-.6 1.106 1.106 0 01.312-.7 27.99 27.99 0 004.632-8.953zm13.969 3.144a9.27 9.27 0 00-4.008-4.489.46.46 0 01-.265-.431.6.6 0 01.624-.577c1.009 0 4.969 3.6 4.969 5.209a.73.73 0 01-.7.768.668.668 0 01-.623-.48zm-3.915 35.137c-4.872 0-7.849-3.216-7.849-7.081a9.406 9.406 0 012.448-6.024c.193-.192.288-.312.288-.36 0-.024 0-.048-.047-.048a1.2 1.2 0 00-.384.1c-3.072 1.008-6.913 1.992-7.129 1.992a.782.782 0 01-.864-.744.755.755 0 01.7-.7c.528-.12 1.992-.408 2.784-.6 1.2-.312 3.36-.792 5.881-1.512a40.634 40.634 0 016.792-1.441.77.77 0 01.816.769c0 .624-.552.7-1.848.768a12.165 12.165 0 00-3.744.72 7.947 7.947 0 00-4.398 6.84c0 3 2.04 5.785 6.337 5.785h.432c.672 0 1.008.36 1.008.744.001.12-.048.792-1.223.792zm2.28-9a8.059 8.059 0 00-2.353-1.728.445.445 0 01-.311-.408.567.567 0 01.6-.528c.48 0 3.1 1.368 3.1 2.256a.615.615 0 01-.6.624.51.51 0 01-.436-.217zm2.064-1.752a7.979 7.979 0 00-2.4-1.728.466.466 0 01-.336-.432.566.566 0 01.6-.5c.36 0 3.144 1.272 3.144 2.256a.6.6 0 01-.576.624.584.584 0 01-.43-.221zM56.386 10.681l-.025 3.072c.96 0 1.969.024 3.025.049 1.536.023 2.16.887 2.208 1.8.024.456.048.912.048 1.392 0 .456-.024.912-.048 1.416-.048.984-.7 1.872-2.328 1.92-1.3.048-2.4.048-3.5.048-1.08 0-2.137 0-3.385-.048-1.584-.048-2.328-.864-2.376-1.9-.024-.408-.024-.816-.024-1.224 0-.552 0-1.056.024-1.536.048-.936.7-1.825 2.328-1.872.912-.025 1.849-.049 2.809-.049l-.025-3.072-7.129.024c-.215 3.216-.887 6.361-2.712 8.737a.756.756 0 01-.624.336.642.642 0 01-.671-.6.763.763 0 01.143-.408c2.3-3.1 2.689-6.889 2.689-10.7 0-1.608-.073-3.216-.1-4.8v-.049a2.122 2.122 0 012.351-2.161c1.537-.048 3.457-.048 5.4-.048 1.92 0 3.888 0 5.472.048 2.136.024 2.232 1.057 2.232 2.809 0 1.128-.216 2.16-2.472 2.184-2.112.024-5.016.072-7.969.072-1.224 0-2.472 0-3.648-.024 0 .48.023.96.023 1.44 0 .672-.023 1.344-.047 2.04l7.056.024v-2.5a.58.58 0 01.624-.576.588.588 0 01.649.576V9.6l6.888-.024a.564.564 0 110 1.128zm-8.329-5.688c1.68.024 3.48.024 5.232.024 2.473 0 4.776-.024 6.385-.072 1.128-.024 1.248-.576 1.248-1.416 0-.985-.1-1.393-1.3-1.416-1.345-.025-3-.049-4.681-.049-2.04 0-4.08.024-5.544.049a1.272 1.272 0 00-1.364 1.367v.072zM51.2 17.042c0 1.56.12 2.208 1.368 2.232.888.024 1.848.048 2.857.048 1.2 0 2.448-.024 3.6-.048 1.2-.024 1.345-.6 1.345-2.088 0-.432 0-.864-.024-1.2-.048-1.153-.432-1.176-4.536-1.176-1.128 0-2.256 0-3.241.048-1.248.024-1.369.624-1.369 2.184zM44.408 48a.72.72 0 01-.744-.672.774.774 0 01.217-.5 13.314 13.314 0 002.952-5.4.631.631 0 01.647-.5.671.671 0 01.7.648c0 .864-1.824 4.729-3.1 6.1a.909.909 0 01-.672.324zm7.7-10.321a542.22 542.22 0 00-.24 10.993c0 1.536 1.176 1.824 2.736 1.824 3.841 0 4.273-1.032 4.273-3.336a.63.63 0 01.648-.7c.168 0 .768.047.768.888 0 3.672-1.992 4.32-5.448 4.32-1.993 0-4.3-.144-4.3-2.832 0-2.76.12-7.369.192-11.137a.632.632 0 01.7-.6.6.6 0 01.672.552zm4.393-1.9a15.059 15.059 0 00-4.777-2.353.568.568 0 01-.432-.5.654.654 0 01.7-.624 18.2 18.2 0 015.378 2.378.7.7 0 11-.864 1.1zm7.152 10.08a16.272 16.272 0 00-4.392-4.392.548.548 0 01-.261-.45.665.665 0 01.7-.576c.768 0 5.3 3.888 5.3 4.968a.835.835 0 01-.768.817.712.712 0 01-.574-.361zm-16.316 25.23h-2.832a.543.543 0 01-.553-.552.548.548 0 01.553-.576l2.832.024V64.32a.591.591 0 01.647-.6.584.584 0 01.624.6l-.023 5.665 2.568-.024a.521.521 0 01.528.552.528.528 0 01-.528.576h-2.568l-.024 6.5a36.028 36.028 0 002.665-1.272.632.632 0 01.287-.072.554.554 0 01.528.552.594.594 0 01-.36.528c-1.656.84-6.624 3.12-7.344 3.12a.614.614 0 01-.168-1.2c.96-.288 2.088-.7 3.191-1.152zm10.345-.576l-3.073 1.56c0 3.024-.024 6.12-.024 7.608 0 1.849 1.776 1.849 3.457 1.849 4.776 0 5.376-.576 5.376-3.073a.586.586 0 01.624-.648c.265 0 .721.144.721.84 0 3.7-2.257 4.009-6.313 4.009-2.52 0-5.064-.048-5.064-2.809V72.7a15.866 15.866 0 01-2.545 1.248.559.559 0 01-.528-.576.527.527 0 01.312-.5s1.176-.6 2.761-1.416v-5.648a.584.584 0 01.624-.6.576.576 0 01.624.552c0 1.3-.025 3.12-.025 5.041l3.073-1.537v-5.616a.579.579 0 01.624-.576.572.572 0 01.6.576v4.992c1.944-.984 2.4-1.2 3.024-1.2 1.512 0 1.585 1.44 1.585 2.761 0 5.376-.433 6.816-2.473 6.816-1.056 0-1.2-.312-1.2-.7 0-.312.192-.648.48-.648.048 0 .072.024.12.024a2.192 2.192 0 00.624.1c.84 0 1.224-.768 1.224-5.112 0-1.488-.12-2.016-.7-2.016-.12 0-.36.023-2.688 1.224v8.3a.549.549 0 01-.6.528.557.557 0 01-.624-.528zm-2.256 26.376c0 2.232-3.169 11.257-6.385 11.257-1.248 0-3.12-1.632-3.12-4.465a8.917 8.917 0 019.192-8.472c4.129 0 7.753 2.64 7.753 6.864 0 5.905-6.553 7.825-7.392 7.825a.73.73 0 01-.817-.672c0-.288.216-.6.721-.7 3.24-.7 6.12-2.928 6.12-6.553 0-3.36-2.977-5.712-6.408-5.712a.67.67 0 01.336.628zm-8.257 6.7c0 1.633.984 3.121 1.944 3.121 1.632 0 4.609-5.761 4.945-9.793a.813.813 0 01.24-.6 7.777 7.777 0 00-7.129 7.268zm2.4 29.204c-.024 2.136-.024 4.656-.024 6.481a39.3 39.3 0 004.8-1.633.844.844 0 01.239-.047.605.605 0 01.576.6.632.632 0 01-.456.576 52.428 52.428 0 01-9.576 2.784.626.626 0 01-.649-.624.663.663 0 01.6-.648c1.056-.168 2.136-.408 3.24-.672 0-2.305-.024-4.849-.024-7.273 0-2.4.024-4.7.024-6.457a2.158 2.158 0 012.376-2.112c.984-.024 2.04-.048 3.073-.048l-.025-2.112a.637.637 0 01.7-.624.63.63 0 01.672.624l-.023 2.112c1.008 0 2.015.024 2.9.048 1.8.048 2.472.96 2.52 2.065.048.719.048 1.511.048 2.3 0 .816 0 1.632-.048 2.4-.048 1.176-.768 2.136-2.569 2.208-.96.024-2.015.048-3.168.048a10.615 10.615 0 001.729 3.36 23.637 23.637 0 005.376-2.736.484.484 0 01.312-.1.752.752 0 01.72.7.7.7 0 01-.408.576 29.929 29.929 0 01-5.233 2.424 11.876 11.876 0 006.793 3.121.615.615 0 01.552.624.726.726 0 01-.744.72 12.22 12.22 0 01-10.32-8.689zm9.744-5.04c0-1.993-.071-2.881-1.584-2.953-.6-.024-1.391-.024-2.28-.024-1.416 0-3.024.024-4.368.048-1.488.048-1.512.864-1.512 2.929zm-9.744 1.008v3.024c1.1.024 2.136.024 3.12.024 1.968 0 3.649-.024 5.04-.1 1.464-.072 1.584-.84 1.584-2.952zm3.768 33.049a.756.756 0 01.721.72c0 .144-1.1 3.672-3.288 3.672-1.225 0-4.129-1.512-4.561-8.425-.072-1.056-.1-1.56-.1-2.112 0-.744.049-1.272.7-1.272.671 0 .7.48.7 1.872 0 6.937 2.52 8.425 3.24 8.425.288 0 1.105-.12 1.992-2.424a.668.668 0 01.596-.456zm8.9-.553a7.771 7.771 0 00-2.952-4.944.569.569 0 01-.265-.5.6.6 0 01.624-.6c1.057 0 4.057 3.648 4.057 5.736a.865.865 0 01-.816.912.645.645 0 01-.643-.604zM1.345 19.682a.577.577 0 010-1.152l8.448.023-.023-4.224-6.265.024a.564.564 0 110-1.128H17.21a.527.527 0 01.552.552.534.534 0 01-.552.576l-6.169-.024v4.224l8.359-.023a.554.554 0 01.551.6.542.542 0 01-.551.552zM18.266 5.568c0-.792-.432-1.128-1.656-1.152a475.626 475.626 0 00-6.312-.048c-2.28 0-4.513.024-6.169.048-1.32.024-1.729.456-1.752 1.176 0 .336.023 1.2.023 1.633a.637.637 0 01-.695.624c-.648 0-.673-.409-.673-1.657 0-1.368 0-2.808 2.616-2.832 2.065-.024 4.081-.048 6.1-.048V.624a.624.624 0 01.7-.624.616.616 0 01.672.624l-.03 2.688c1.968 0 3.935.024 5.952.048 1.68.024 2.544.768 2.568 1.968v1.7a.668.668 0 01-.7.649.605.605 0 01-.648-.6zM2.521 11.641a.643.643 0 01-.648-.648.584.584 0 01.48-.576A8.033 8.033 0 007.9 5.952a.533.533 0 01.528-.312.619.619 0 01.648.6.82.82 0 01-.1.361 9.741 9.741 0 01-6.455 5.04zM11.762 6a.548.548 0 01.6-.528c.313 0 .6.168.6.48v.024c-.024.625-.024 2.209-.024 2.449.024.768.24 1.032 2.136 1.032 1.416 0 2.088-.12 2.16-1.128a.523.523 0 01.576-.505.576.576 0 01.624.553c-.048 1.8-1.44 2.112-3.577 2.112-1.607 0-3.095-.024-3.095-1.872zm-.336 28.489c0 2.232-3.169 11.257-6.385 11.257-1.248 0-3.12-1.632-3.12-4.465a8.917 8.917 0 019.192-8.472c4.129 0 7.753 2.64 7.753 6.864 0 5.905-6.553 7.825-7.392 7.825a.73.73 0 01-.817-.672c0-.288.216-.6.721-.7 3.24-.7 6.12-2.928 6.12-6.553 0-3.36-2.977-5.712-6.408-5.712a.67.67 0 01.336.628zm-8.257 6.7c0 1.632.984 3.12 1.944 3.12 1.632 0 4.609-5.761 4.945-9.793a.813.813 0 01.24-.6 7.777 7.777 0 00-7.129 7.27zM.648 79.25A.63.63 0 010 78.6a.6.6 0 01.576-.576 8.356 8.356 0 006.913-4.8.588.588 0 01.552-.432.7.7 0 01.672.672.517.517 0 01-.048.264C6.505 78.65.744 79.25.648 79.25zm9.746-7.032c-1.345 0-2.665-.024-3.793-.072-1.752-.073-2.592-1.009-2.64-2.305-.024-1.08-.048-2.664-.048-4.224 0-1.584.024-3.12.048-4.056a2.329 2.329 0 012.448-2.28c1.008-.025 2.184-.049 3.408-.049 1.489 0 3.025.024 4.393.049a2.206 2.206 0 012.3 2.088c.048 1.128.048 2.688.048 4.224 0 1.56 0 3.1-.048 4.224a2.361 2.361 0 01-2.449 2.329c-.479.023-.96.048-1.463.048a166.333 166.333 0 00-.048 3.36c0 1.368.048 2.136 2.88 2.136 2.28 0 3.6-.384 3.6-3a.611.611 0 01.624-.648.717.717 0 01.744.672c0 4.1-2.952 4.128-5.064 4.128-1.849 0-4.009-.144-4.057-2.592 0-.7 0-2.736.025-4.032zm4.944-7.969H5.137c0 .912.024 1.9.024 2.808h10.177zm-.025-1.008c0-1.992 0-2.833-1.679-2.88-.864-.025-2.113-.049-3.385-.049-1.248 0-2.52.024-3.456.049a1.466 1.466 0 00-1.608 1.464c-.024.384-.024.864-.024 1.416zM5.161 68.065c0 2.328 0 2.952 1.656 3.024 1.128.048 2.352.072 3.6.072 1.08 0 2.185-.024 3.24-.072 1.656-.072 1.656-.84 1.656-3.024zm-.6 40.153a1.358 1.358 0 01-1.033.624c-.048 0-.743 0-.743-.576a.952.952 0 01.287-.624 45.92 45.92 0 012.761-2.88 96.589 96.589 0 006.721-7.562c0-.024-.025-.024-.048-.024a1.107 1.107 0 00-.265.072 30.372 30.372 0 01-6.1 1.969.746.746 0 01-.816-.7.69.69 0 01.624-.672 31.725 31.725 0 004.372-1.145 9.724 9.724 0 012.641-.768 1.057 1.057 0 011.176 1.056 1.3 1.3 0 01-.361.864c-1.151 1.272-3.408 3.817-6.24 6.721a3.005 3.005 0 011.152-.24 2.4 2.4 0 012.208 1.536 2.594 2.594 0 002.569 1.848 10.882 10.882 0 004.056-.84 1.114 1.114 0 01.457-.1.662.662 0 01.7.672.909.909 0 01-.7.816 13.329 13.329 0 01-4.25.72h-.288a4.053 4.053 0 01-.792-.072c-1.343-.192-2.16-.888-2.856-2.472a1.669 1.669 0 00-1.56-1.152c-.936 0-2.088.744-3.1 2.136zm8.353-14.713c-.768 0-3.385-1.56-4.2-2.208a.625.625 0 01-.264-.5.663.663 0 01.672-.624.765.765 0 01.456.168 14.169 14.169 0 003.576 1.824.688.688 0 01.553.624.772.772 0 01-.793.716zm2.976 39.361c0-2.184-1.968-3.144-4.08-3.144a8.2 8.2 0 00-6.385 3.144.742.742 0 01-1.344-.36.99.99 0 01.336-.672A87.813 87.813 0 0012.481 123c0-.024-.023-.048-.072-.048a.469.469 0 00-.168.024c-1.3.408-5.352 1.224-5.5 1.224a.665.665 0 01-.72-.648.678.678 0 01.672-.648 54.62 54.62 0 005.689-1.1 2.32 2.32 0 01.552-.072c.671 0 1.152.36 1.152.912 0 .456-.145.792-2.832 3.6l-3.313 3.433a9.353 9.353 0 014.2-1.008c3.264 0 5.088 1.9 5.088 4.128 0 2.976-2.784 5.52-6.649 5.52-2.808 0-4.416-1.3-4.416-2.736 0-.912.7-2.064 2.616-2.064 1.656 0 3.072 1.08 3.072 3.408v.168a4.648 4.648 0 004.038-4.227zm-5.256 4.176c0-1.584-.649-2.5-1.777-2.5-1.368 0-1.512.888-1.512 1.032 0 .816 1.056 1.632 2.953 1.632h.336zm3.095 25.296a15.614 15.614 0 006.433 3.024.578.578 0 01.481.552.7.7 0 01-.721.7 15.507 15.507 0 01-4.152-1.656c.168.288.264.528.264 1.944 0 .528 0 1.1-.024 1.512-.048 1.225-.744 1.944-2.208 1.993-1.153.047-2.256.047-3.313.047-1.08 0-2.135 0-3.192-.047-1.608-.049-2.208-.841-2.233-1.969 0-.384-.023-.84-.023-1.272 0-1.584.072-2.16.552-2.592A18.428 18.428 0 01.816 166.9a.6.6 0 01-.6-.624.553.553 0 01.408-.552 19.756 19.756 0 006.24-3.384l-6.049.048a.491.491 0 01-.5-.5.5.5 0 01.5-.528l7.129.024a16.215 16.215 0 001.368-1.488c-5.136 0-5.4 0-5.4-2.977 0-1.44 0-2.712 2.208-2.784 1.416-.048 2.928-.048 4.441-.048s3.024 0 4.44.048c2.04.024 2.088 1.128 2.088 2.784 0 1.729-.12 2.857-2.136 2.929-1.345.048-2.856.048-4.369.048 0 .048-.023.072-.048.12a15.766 15.766 0 01-1.151 1.368h1.008l9.672-.024a.491.491 0 01.5.5.5.5 0 01-.5.528zm-.072-10.057v.864a.563.563 0 01-.6.528.571.571 0 01-.624-.528v-.864H8.281v.864a.572.572 0 01-.624.528.572.572 0 01-.624-.528v-.864l-5.665.024c-.431 0-.624-.24-.624-.5a.582.582 0 01.624-.576l5.665.024v-1.032a.557.557 0 01.624-.528.557.557 0 01.624.528v1.032h4.153v-1.032a.556.556 0 01.624-.528.548.548 0 01.6.528v1.032l5.953-.024a.541.541 0 110 1.08zm2.281 4.248c0-1.176-.36-1.488-1.224-1.512-1.32-.024-2.761-.048-4.177-.048-1.439 0-2.856.024-4.152.048-.888.024-1.344.336-1.344 1.512zm-10.9.84c0 1.345.5 1.56 1.392 1.585 1.2.024 2.616.024 4.081.024s2.952 0 4.223-.024c1.153-.025 1.225-.552 1.225-1.585zm3.408 4.969a20.519 20.519 0 01-2.4 1.92c.6-.288 1.536-.288 4.776-.288 1.057 0 2.137.024 3.1.048a2.93 2.93 0 01.479.048 16.031 16.031 0 01-2.088-1.728zm6.457 4.3c0-1.056-.049-1.608-1.32-1.656-.864-.024-1.969-.048-3.072-.048s-2.208.024-3.073.048-1.224.36-1.272 1.056v.6zm-8.737.912v.792c.024.745.48 1.057 1.32 1.08.936.024 1.945.049 2.952.049 1.033 0 2.088-.025 3.1-.049.72-.023 1.319-.36 1.344-1.128 0-.216.024-.48.024-.744zm3.483 34.029a.722.722 0 01-.792-.673c0-.312.216-.624.745-.72a12.707 12.707 0 003.456-1.128c2.376-1.392 3.408-2.976 3.408-4.224 0-1.44-1.248-1.992-2.592-1.992-2.52 0-5.473 1.872-6.745 2.976a1.938 1.938 0 01-1.2.6c-.672 0-1.1-.576-1.1-2.376a24.759 24.759 0 01.216-2.832c.192-1.561.5-3.121.672-4.177a.666.666 0 01.672-.576.548.548 0 01.576.552v.12c-.144 1.032-.432 2.448-.624 3.625a20.381 20.381 0 00-.288 2.76c0 .384 0 1.08.288 1.08a1.321 1.321 0 00.528-.264c2.065-1.272 4.536-2.664 7.08-2.664 2.449 0 3.913 1.344 3.913 3.144 0 1.632-1.2 3.624-3.913 5.28a12.525 12.525 0 01-4.3 1.489zm.168-15.506a1.013 1.013 0 01-.263.048.614.614 0 01-.624-.6.41.41 0 01.287-.432c.625-.24.912-.408.912-.6 0-.168-.239-.336-.7-.624-1.729-1.1-1.849-1.176-1.849-1.56a.578.578 0 01.624-.552.951.951 0 01.528.192c.456.336 1.153.768 1.729 1.1.7.432 1.536.96 1.559 1.536.005.676-.235.919-2.203 1.492zm-2.784 27.072a.731.731 0 01.792.672c0 .12-.024 1.08-.36 5.521-.168 2.208-.36 4.2-.36 6.192 0 .384 0 .744.024 1.128a3.066 3.066 0 003.408 3.072 10.384 10.384 0 006.192-2.64.939.939 0 01.625-.264.729.729 0 01.7.768.872.872 0 01-.336.672 11.8 11.8 0 01-7.129 2.833c-2.64 0-4.7-1.392-4.8-4.441-.024-.36-.024-.7-.024-1.032 0-2.088.24-3.936.336-6.168.072-1.44.216-3.5.216-5.041v-.552a.678.678 0 01.716-.72z" id="a990ad34-96be-4b1c-b551-709d3a76bb68" data-name="レイヤー 1"/></g></svg>