<svg xmlns="http://www.w3.org/2000/svg" width="579.961" height="125.979"><g id="a7da24c6-3a58-4264-b381-6db675ffd6bd" data-name="レイヤー 2"><path d="M169.891 25.319l.45-12.9c-1.02.99-3 2.729-3.57 2.729a.761.761 0 01-.75-.75.773.773 0 01.42-.69 20.341 20.341 0 006.18-6.389.71.71 0 01.629-.39.88.88 0 01.84.84c0 .39-1.049 1.71-2.249 3.09l-.33 14.459a.776.776 0 01-.84.72.7.7 0 01-.78-.69zm-3.51-17.639a.8.8 0 01.45-.66 19.483 19.483 0 005.73-5.88.744.744 0 01.629-.39.854.854 0 01.841.81c0 .96-5.46 6.9-6.84 6.9a.821.821 0 01-.81-.78zm13.709 8.309l-.03 4.2a36.97 36.97 0 004.38-1.17.706.706 0 01.24-.06.611.611 0 01.57.66.678.678 0 01-.42.63 65.214 65.214 0 01-10.53 2.43.726.726 0 01-.779-.72.74.74 0 01.689-.72c1.141-.15 2.73-.42 4.38-.75v-4.5l-3.63.06a.66.66 0 110-1.32h3.63l-.029-2.37a.723.723 0 01.779-.719.715.715 0 01.75.719v2.37l3.69-.03a.66.66 0 010 1.32zm-5.34-5.309a.66.66 0 110-1.32l3.84.03V5.43l-3.21.03a.628.628 0 01-.659-.66.628.628 0 01.659-.66l3.21.03-.029-3.21a.723.723 0 01.779-.72.715.715 0 01.75.72v3.21l3.24-.03a.628.628 0 01.66.66.628.628 0 01-.66.66l-3.24-.03-.03 3.96 3.69-.03a.661.661 0 010 1.32zm15 11.609v.09c0 1.83-.69 3.36-3.57 3.36a12.169 12.169 0 01-2.34-.27.742.742 0 01-.6-.78c0-.42.24-.81.63-.81h.12a13.5 13.5 0 002.19.27c1.26 0 1.95-.48 1.95-2.01 0-2.1.03-8.519.03-11.549h-2.76a.685.685 0 01-.69-.72.677.677 0 01.69-.69h6.9a.705.705 0 110 1.41h-2.61c0 2.249 0 7.139.03 8.579zm-3.9-18.6a.724.724 0 01-.75-.75.717.717 0 01.75-.72h5.67a.7.7 0 01.75.72.707.707 0 01-.75.75zm26.25 12.84c-2.459-.03-4.89-.09-7.229-.18a2.907 2.907 0 01-3.12-2.76c-.03-.87-.06-1.74-.06-2.609s.03-1.71.06-2.46a2.968 2.968 0 013.06-2.79c2.279-.06 4.77-.09 7.289-.09l-.03-4.92a.749.749 0 01.81-.72.759.759 0 01.84.72l-.03 4.92c2.55 0 5.13.03 7.5.09a2.867 2.867 0 012.91 2.58c.06.78.06 1.68.06 2.58s0 1.829-.06 2.669a3.04 3.04 0 01-3.09 2.79c-2.4.12-4.89.18-7.32.18l.03 8.79a.756.756 0 01-.84.69.745.745 0 01-.81-.69zm0-9.419c-2.459 0-4.829.03-6.66.09a2.045 2.045 0 00-2.129 1.92c-.03.51-.03 1.2-.03 1.92 0 2.879.12 3.749 2.19 3.839 1.92.09 4.23.15 6.629.15zm1.59 7.919c2.34 0 4.68-.06 6.72-.15a1.944 1.944 0 002.1-1.92c.03-.63.03-1.439.03-2.249 0-2.37-.06-3.42-2.16-3.51-1.86-.06-4.26-.09-6.69-.09zm32.341-7.499c0 2.79-3.96 14.069-7.98 14.069-1.56 0-3.9-2.04-3.9-5.58a11.146 11.146 0 0111.49-10.589c5.159 0 9.689 3.3 9.689 8.579 0 7.38-8.189 9.78-9.24 9.78a.911.911 0 01-1.019-.84c0-.36.269-.75.9-.87 4.05-.87 7.649-3.66 7.649-8.189 0-4.2-3.72-7.14-8.01-7.14a.838.838 0 01.421.78zm-10.32 8.37c0 2.04 1.23 3.9 2.43 3.9 2.04 0 5.76-7.2 6.18-12.239a1.022 1.022 0 01.3-.75 9.721 9.721 0 00-8.91 9.089zm28.26 2.369a.822.822 0 01-.84-.72.78.78 0 01.36-.63 22.9 22.9 0 005.7-6.839 24.467 24.467 0 00-1.14-3.45c-.78.81-3.27 3.27-4.02 3.27a.761.761 0 01-.78-.69.685.685 0 01.36-.57 21.3 21.3 0 003.84-3.33 12.887 12.887 0 00-2.1-3.12.8.8 0 01-.24-.57.73.73 0 01.72-.72c.69 0 1.89 1.65 2.7 3.18a21.514 21.514 0 002.04-2.88.65.65 0 01.57-.33.816.816 0 01.81.75c0 .51-1.62 2.49-2.79 3.81a28.812 28.812 0 012.31 11.1c0 4.14-.87 8.67-5.28 8.67-2.19 0-2.43-.54-2.43-1.02a.729.729 0 01.69-.81.661.661 0 01.24.03 6.4 6.4 0 001.59.24 2.892 2.892 0 002.91-2.25 15.519 15.519 0 00.81-5.16 25.493 25.493 0 00-.39-4.229c-1.05 1.678-4.56 6.268-5.64 6.268zm17.489-3.6a14.963 14.963 0 007.56 9.24.7.7 0 01.42.66.923.923 0 01-.87.93c-1.29 0-6.48-4.11-8.13-9.78-2.069 7.56-8.009 10.02-8.669 10.02a.8.8 0 01-.27-1.56 12.739 12.739 0 007.68-9.51l-6.33.09a.705.705 0 110-1.41l6.569.031a56.9 56.9 0 00.15-7.11l-5.82.06a.691.691 0 01-.719-.72.691.691 0 01.719-.72l5.791.03c0-1.86 0-3.45-.031-4.05V.84a.755.755 0 01.781-.78.738.738 0 01.779.78v4.08l6.36-.03a.685.685 0 01.69.72.685.685 0 01-.69.72l-6.33-.03a66.066 66.066 0 01-.181 7.08l1.621-.031a31.086 31.086 0 002.25-5.279.687.687 0 01.69-.54c.45 0 .96.36.96.78a33.116 33.116 0 01-2.46 5.039h4.59a.677.677 0 01.69.69.685.685 0 01-.69.72zm-5.25-2.849a15.489 15.489 0 00-2.129-3.24.472.472 0 01-.15-.36c0-.33.42-.63.779-.63.6 0 2.911 3.06 2.911 3.87a.8.8 0 01-.781.81.678.678 0 01-.63-.45zm21.241 6.539a.852.852 0 01-.6-1.5 19.292 19.292 0 005.04-8.009.726.726 0 01.72-.51.906.906 0 01.96.84c0 .72-2.16 5.639-5.37 8.849a1.053 1.053 0 01-.75.33zM308.7 2.07a.855.855 0 111.71 0v16.139l.06 3.36v.06c0 1.83-1.11 3.75-4.68 3.75a15.4 15.4 0 01-2.85-.33.879.879 0 01-.78-.84.866.866 0 01.81-.9.511.511 0 01.21.03 13.679 13.679 0 002.73.36c1.68 0 2.79-.63 2.79-2.34zm11.64 14.579a28.378 28.378 0 00-5.61-7.2.634.634 0 01-.24-.51.773.773 0 01.81-.72c1.32 0 6.84 6.869 6.84 8.039a.993.993 0 01-.96.99.963.963 0 01-.84-.599zm13.081-5.969h-3.54a.677.677 0 01-.69-.69.685.685 0 01.69-.72l3.54.03V2.22a.739.739 0 01.81-.75.73.73 0 01.78.75l-.03 7.08 3.21-.03a.652.652 0 01.66.69.661.661 0 01-.66.72h-3.21l-.03 8.129c1.26-.54 2.43-1.11 3.33-1.59a.8.8 0 01.36-.09.693.693 0 01.66.69.742.742 0 01-.45.66c-2.07 1.05-8.28 3.9-9.18 3.9a.767.767 0 01-.21-1.5c1.2-.36 2.61-.87 3.99-1.44zm12.93-.72l-3.84 1.95c0 3.779-.031 7.649-.031 9.509 0 2.31 2.221 2.31 4.32 2.31 5.97 0 6.72-.72 6.72-3.84a.732.732 0 01.78-.81c.33 0 .9.18.9 1.05 0 4.62-2.82 5.01-7.889 5.01-3.15 0-6.331-.06-6.331-3.51V12.69c-3.059 1.559-3.059 1.559-3.179 1.559a.7.7 0 01-.66-.72.656.656 0 01.39-.629s1.469-.75 3.449-1.77V4.08a.731.731 0 01.781-.75.719.719 0 01.78.69c0 1.62-.03 3.9-.03 6.3l3.84-1.92V1.38a.723.723 0 01.779-.72.715.715 0 01.75.72v6.24c2.43-1.23 3-1.5 3.78-1.5 1.89 0 1.98 1.8 1.98 3.45 0 6.719-.54 8.519-3.09 8.519-1.32 0-1.5-.39-1.5-.87 0-.39.241-.81.6-.81.06 0 .09.03.15.03a2.746 2.746 0 00.78.12c1.05 0 1.53-.96 1.53-6.389 0-1.86-.15-2.52-.87-2.52-.15 0-.45.03-3.36 1.53v10.379a.686.686 0 01-.75.66.7.7 0 01-.779-.66zm34.14 14.429c-6.09 0-9.81-4.02-9.81-8.85a11.757 11.757 0 013.06-7.529q.36-.36.36-.45c0-.03 0-.06-.06-.06a1.51 1.51 0 00-.48.12c-3.84 1.26-8.64 2.49-8.91 2.49a.978.978 0 01-1.08-.93.945.945 0 01.87-.87c.66-.15 2.49-.51 3.48-.75 1.5-.39 4.2-.99 7.35-1.89.87-.24 6.39-1.8 8.489-1.8a.962.962 0 011.02.96c0 .78-.69.87-2.309.96a15.232 15.232 0 00-4.68.9 9.935 9.935 0 00-5.49 8.549c0 3.75 2.55 7.23 7.92 7.23h.54c.84 0 1.26.45 1.26.93 0 .15-.061.99-1.53.99zm2.849-11.249a10.066 10.066 0 00-2.939-2.16.556.556 0 01-.39-.51.709.709 0 01.75-.66c.6 0 3.869 1.71 3.869 2.82a.769.769 0 01-.75.78.643.643 0 01-.54-.27zm2.58-2.19a9.961 9.961 0 00-3-2.16.584.584 0 01-.42-.54.707.707 0 01.75-.63c.451 0 3.93 1.59 3.93 2.82a.744.744 0 01-.72.78.727.727 0 01-.54-.27zm15.511 8.279c0 1.26.03 4.77 3.36 4.77a5.092 5.092 0 004.89-5.13 7.3 7.3 0 00-2.34-4.8 1 1 0 01-.3-.659.781.781 0 01.84-.72 1.055 1.055 0 01.78.359 9.2 9.2 0 012.7 5.91 6.751 6.751 0 01-6.6 6.57c-2.49 0-4.74-1.62-4.86-5.25v-.81c0-.84.031-1.74.09-2.67a17.661 17.661 0 01-3.269-.57c-.571-.15-.781-.51-.781-.84a.782.782 0 01.781-.81 1.283 1.283 0 01.33.06 14.172 14.172 0 003.059.6c.15-1.739.36-3.569.54-5.279-3.119-.27-3.929-.75-3.929-1.44a.8.8 0 01.81-.78.765.765 0 01.36.06 11.405 11.405 0 002.909.63c.27-2.97.42-4.62.511-6.27a.791.791 0 01.81-.84.9.9 0 01.929.87v.06c-.06 1.47-.3 2.7-.48 4.47l-.18 1.74a10.505 10.505 0 001.98-.24.925.925 0 01.27-.03.71.71 0 01.78.72c0 1.08-2.31 1.11-3.24 1.11-.21 1.71-.45 3.48-.6 5.249a9.742 9.742 0 002.819-.48 1.506 1.506 0 01.36-.06.781.781 0 01.81.78.811.811 0 01-.66.78 12.858 12.858 0 01-3.42.54c-.029.81-.059 1.62-.059 2.4zM26.49 54.77a.691.691 0 01-.719-.72.653.653 0 01.689-.66l10.2.03-.03-2.64a.813.813 0 01.87-.78.8.8 0 01.87.78l-.03 2.64 10.169-.03a.636.636 0 01.66.69.652.652 0 01-.66.69zm.15 12c0-1.71 1.08-2.879 3.21-2.91 2.67-.03 5.58-.03 8.58-.03 2.19 0 4.44 0 6.659.03a2.939 2.939 0 013.181 2.67v4.86c0 .39.06 1.02.06 1.62v.09c0 1.41-.661 2.76-3.6 2.76-2.52 0-2.85-.39-2.85-.93a.757.757 0 01.75-.81h.121a14.146 14.146 0 002.25.27c1.049 0 1.679-.36 1.679-1.5 0-4.71 0-5.4-.03-6.03-.029-1.08-.719-1.68-1.92-1.71-2.4-.03-4.979-.06-7.529-.06-2.52 0-4.95.03-7.08.06a1.725 1.725 0 00-1.86 1.83c0 1.08-.03 2.61-.03 4.14 0 1.56.03 3.12.03 4.32a.733.733 0 01-.81.72.755.755 0 01-.81-.75zm10.86-4.8c-6.36 0-6.9-.03-6.9-2.49 0-1.68.09-2.76 2.61-2.79 1.62-.03 3.21-.06 4.8-.06 6 0 6.449.03 6.449 2.67 0 2.67-.359 2.67-6.959 2.67zm-.09 10.709c-5.01 0-5.64-.24-5.64-2.67 0-1.32.09-2.61 2.25-2.7 1.02-.03 2.22-.06 3.42-.06 1.23 0 2.43.03 3.39.06 2.22.09 2.279 1.38 2.279 2.52 0 2.79-.809 2.85-5.699 2.85zM42.93 59.3c0-1.05-.06-1.41-1.35-1.41-1.56-.03-3.12-.03-4.68-.03-1.14 0-2.28 0-3.42.03-1.2.03-1.35.36-1.35 1.38 0 1.5 0 1.5 5.1 1.5 4.95 0 5.64 0 5.669-.84a3.713 3.713 0 00.031-.63zm-5.52 12.119c4.2 0 4.2-.03 4.2-1.53a3.267 3.267 0 00-.03-.57c-.09-.87-.121-.87-4.65-.87-.93 0-1.83 0-2.49.03-1.14.03-1.17.48-1.17 1.95.06.99.57.99 4.14.99zm19.711-9.149a1.136 1.136 0 01.179-.54 10.071 10.071 0 001.26-4.98.612.612 0 01.66-.66.777.777 0 01.84.78c0 1.71-.84 6.089-2.19 6.089a.71.71 0 01-.749-.689zm4.649-11.22a.764.764 0 01.84-.75.755.755 0 01.81.75v24.179a.749.749 0 01-.81.72.759.759 0 01-.84-.72zm4.05 7.59a12.538 12.538 0 00-1.68-2.76.623.623 0 01-.15-.36.664.664 0 01.69-.57c.75 0 2.55 2.49 2.55 3.27a.832.832 0 01-.81.84.625.625 0 01-.6-.42zm1.11 16.109a.678.678 0 01-.75-.69.717.717 0 01.75-.72l7.5.03v-6.96l-4.8.03a.678.678 0 01-.75-.69.717.717 0 01.75-.72l4.8.03V58.94l-4.38.03a23.836 23.836 0 01-2.52 4.619.864.864 0 01-.75.45.762.762 0 01-.75-.75.681.681 0 01.15-.45 21.255 21.255 0 003.84-9.6.777.777 0 01.78-.72.806.806 0 01.84.78 22.84 22.84 0 01-1.08 4.26l3.87.03V51.14a.755.755 0 01.779-.78.764.764 0 01.811.78v6.45l6-.03a.705.705 0 110 1.41l-6-.03v6.119l4.77-.03a.709.709 0 110 1.41l-4.77-.03v6.96l6.929-.03a.705.705 0 110 1.41zM91.291 58.55a.693.693 0 01-.721-.72.661.661 0 01.66-.72c.63-.03 1.29-.03 1.98-.09a41.673 41.673 0 002.58-6.21.737.737 0 01.75-.51.839.839 0 01.9.72 33.846 33.846 0 01-2.7 5.85c2.04-.21 4.11-.54 5.82-.87a13.956 13.956 0 00-1.41-1.32.524.524 0 01-.21-.42.752.752 0 01.75-.66c.84 0 3.93 3.27 3.93 4.2a.828.828 0 01-.78.84.69.69 0 01-.63-.42c-.24-.42-.51-.81-.78-1.2a66.375 66.375 0 01-10.139 1.53zm2.819 11.339c0 2.04.03 4.05.06 5.46a.723.723 0 01-.75.75.73.73 0 01-.78-.75v-12.63c0-2.429 1.95-2.459 4.53-2.459 2.79 0 4.59.06 4.65 2.49.03.719.03 2.459.03 4.109v3.78c.03 1.08.06 1.47.06 2.34v.09a2.391 2.391 0 01-2.7 2.7c-1.92 0-2.16-.45-2.16-.93a.705.705 0 01.66-.75c.06 0 .09.03.15.03a7.3 7.3 0 001.32.18c.69 0 1.17-.27 1.2-1.35 0-.72.03-1.83.03-3.06zm0-4.08v2.85h6.3c0-.96-.03-1.92-.03-2.85zm6.24-1.23c0-.63-.03-1.169-.03-1.62a1.278 1.278 0 00-1.29-1.35c-.42-.029-1.35-.029-2.13-.029-2.61 0-2.76.06-2.76 3zm6.359-5.759c.031.99.331 1.65 3.42 1.65 2.67 0 4.2-.54 4.2-2.79a.683.683 0 01.75-.72.863.863 0 01.9.81c-.06 3.63-2.819 4.05-5.85 4.05-2.849 0-5.009-.27-5.009-2.85 0-1.83.06-6.09.06-7.77a.726.726 0 01.81-.69c.39 0 .78.21.78.63v.03c-.03.93-.061 2.4-.061 3.87a47.809 47.809 0 006.84-2.58.684.684 0 01.33-.09.882.882 0 01.81.87.833.833 0 01-.569.72 53.637 53.637 0 01-7.411 2.4zm0 13.349c.061 1.59 1.471 1.68 3.3 1.68 3.419 0 4.469-.81 4.469-2.79a.683.683 0 01.75-.72.873.873 0 01.93.81c-.06 3.54-2.7 4.11-5.97 4.11-2.969 0-5.069-.3-5.069-2.88 0-1.83.06-6.66.06-8.34a.726.726 0 01.81-.69c.39 0 .78.21.78.63v.03c-.03.9-.061 2.46-.061 3.99a52.745 52.745 0 006.811-2.73.678.678 0 01.33-.09.875.875 0 01.809.84.8.8 0 01-.539.72 55.014 55.014 0 01-7.411 2.55zm34.981 2.22c-6.09 0-9.81-4.02-9.81-8.85a11.757 11.757 0 013.06-7.529q.36-.36.36-.45c0-.03 0-.06-.06-.06a1.51 1.51 0 00-.48.12c-3.84 1.26-8.639 2.49-8.909 2.49a.978.978 0 01-1.08-.93.945.945 0 01.87-.87c.659-.15 2.489-.51 3.48-.75 1.5-.39 4.2-.99 7.349-1.89.87-.24 6.39-1.8 8.489-1.8a.962.962 0 011.02.96c0 .78-.689.87-2.309.96a15.243 15.243 0 00-4.68.9 9.935 9.935 0 00-5.49 8.549c0 3.75 2.55 7.23 7.92 7.23h.54c.84 0 1.26.45 1.26.93 0 .15-.06.99-1.53.99zm2.85-11.249a10.084 10.084 0 00-2.94-2.16.556.556 0 01-.39-.51.709.709 0 01.75-.66c.6 0 3.87 1.71 3.87 2.82a.769.769 0 01-.75.78.64.64 0 01-.54-.27zm2.58-2.19a9.973 9.973 0 00-3-2.16.582.582 0 01-.42-.54.707.707 0 01.75-.63c.45 0 3.929 1.59 3.929 2.82a.744.744 0 01-.719.78.725.725 0 01-.54-.27zm24.51-6.9c2.43.09 3.57 1.56 3.63 3.21.09 1.83.12 4.589.12 7.349 0 2.73-.03 5.4-.09 7.08-.06 2.31-1.44 3.48-4.11 3.57-1.14.03-2.52.06-3.93.06-1.95 0-3.93-.03-5.339-.09-2.73-.09-4.08-1.14-4.14-3.48-.03-1.68-.061-3.9-.061-6.24 0-2.849.031-5.819.061-8.069.03-1.95 1.26-3.3 3.839-3.39.6-.03 1.471-.06 2.431-.06.389-1.26.839-3.06.959-3.75a.771.771 0 01.84-.57c.451 0 .931.24.931.75a24.608 24.608 0 01-1.111 3.57c2.19 0 4.59 0 5.97.06zm2.13 7.89h-14.55c0 1.619.031 3.359.031 4.979h14.519zm0-1.38c0-3.81 0-5.04-2.7-5.16-1.2-.06-3-.06-4.71-.06-1.74 0-3.36 0-4.289.06-2.04.09-2.7 1.02-2.76 2.43-.03.75-.06 1.68-.06 2.73zm-14.519 7.74c0 1.2.03 2.28.06 3.06.09 2.58 1.619 2.58 7.439 2.58 5.22 0 6.9 0 6.96-2.61.03-.81.03-1.86.03-3.03zm31.5-9.63a.631.631 0 01-.48-.63.741.741 0 01.75-.75 14.3 14.3 0 013.57 1.56 15.019 15.019 0 001.109-3.39c0-.54-.359-.78-1.2-.78-.781 0-2.22.03-3.45.06a28.808 28.808 0 01-4.56 6.63.984.984 0 01-.75.36.737.737 0 01-.75-.72.75.75 0 01.24-.57 24.661 24.661 0 005.79-9.51.8.8 0 01.75-.63.853.853 0 01.84.81 10.823 10.823 0 01-.93 2.34l3.15-.06h.21c1.559 0 2.34.75 2.34 1.83a3.119 3.119 0 01-.15.87c-3.3 10.679-10.56 13.5-11.07 13.5a.8.8 0 01-.81-.78.832.832 0 01.57-.72 14.894 14.894 0 005.73-4.439 21.176 21.176 0 00-3.3-1.47.6.6 0 01-.45-.571.774.774 0 01.78-.779 17.331 17.331 0 013.84 1.68 22.225 22.225 0 001.469-2.4 16.323 16.323 0 00-3.238-1.441zm-4.98 16.589a.739.739 0 01.39-.6 7.762 7.762 0 003.03-4.08.731.731 0 01.75-.6.774.774 0 01.81.75c0 1.56-2.82 5.31-4.08 5.31a.866.866 0 01-.9-.78zM203.1 58.52a14.185 14.185 0 007.17 8.519.735.735 0 01.45.72.838.838 0 01-.84.84c-1.17 0-6-3.66-7.589-8.459-2.1 7.5-8.311 8.849-8.34 8.849a.825.825 0 01-.81-.81.742.742 0 01.569-.69c4.621-1.47 6.72-5.16 7.44-8.939l-3.449.03h-.031a.6.6 0 01-.629-.63.684.684 0 01.689-.72h3.63a17.825 17.825 0 00.09-2.19c0-1.29-.06-2.58-.09-3.9a.763.763 0 01.78-.81.782.782 0 01.84.75c0 1.05.03 2.01.03 2.88a28.493 28.493 0 01-.15 3.27h6.06a.628.628 0 01.66.66.636.636 0 01-.66.69zm-7.829 17.369a.7.7 0 01-.75-.72 12.621 12.621 0 00-.84-4.47.381.381 0 01-.03-.18c0-.33.329-.54.69-.54 1.53 0 1.829 4.89 1.829 5.04a.857.857 0 01-.899.87zm6.54-.09a.73.73 0 01-.75-.63 12.436 12.436 0 00-1.98-4.38.58.58 0 01-.091-.3.7.7 0 01.72-.6c1.29 0 3 4.38 3 5.04a.876.876 0 01-.899.871zm5.369-20.429a7.058 7.058 0 00-2.58-2.4.345.345 0 01-.18-.33.809.809 0 01.78-.72c.63 0 3.27 1.89 3.27 2.88a.853.853 0 01-.81.84.576.576 0 01-.48-.27zm1.92 20.189a.79.79 0 01-.72-.45 14.51 14.51 0 00-3.69-4.14.415.415 0 01-.18-.33.793.793 0 01.81-.69c1.02 0 4.71 3.48 4.71 4.71a.927.927 0 01-.93.9zm21.631-18.029c0 2.79-3.96 14.069-7.98 14.069-1.56 0-3.9-2.04-3.9-5.58a11.146 11.146 0 0111.49-10.589c5.159 0 9.689 3.3 9.689 8.579 0 7.38-8.189 9.78-9.239 9.78a.912.912 0 01-1.02-.84c0-.36.27-.75.9-.87 4.05-.87 7.649-3.66 7.649-8.189 0-4.2-3.719-7.14-8.009-7.14a.837.837 0 01.42.78zm-10.32 8.37c0 2.04 1.23 3.9 2.43 3.9 2.04 0 5.76-7.2 6.18-12.239a1.026 1.026 0 01.3-.75 9.721 9.721 0 00-8.91 9.089zm27.96 8.039a.742.742 0 01.45-.66 8.569 8.569 0 003.21-4.05.658.658 0 01.659-.51.829.829 0 01.871.72c0 1.35-2.88 5.28-4.29 5.28a.866.866 0 01-.9-.78zM261.6 53.87v2.49c1.89 0 3.78.03 5.49.06 1.77.03 2.7 1.05 2.76 2.01.03.63.06 1.65.06 2.64 0 .81-.03 1.59-.06 2.1-.09 1.289-1.02 2.309-2.91 2.369-1.95.06-3.87.09-5.73.09-2.16 0-4.259-.03-6.239-.09-1.95-.06-2.91-.96-2.971-2.31-.029-.6-.029-1.5-.029-2.369s0-1.74.029-2.25c.061-1.17.811-2.16 2.88-2.19 1.5-.03 3.3-.06 5.22-.06v-2.49l-9.719.03a.661.661 0 01-.69-.69.654.654 0 01.69-.66l9.719.03v-2.16a.73.73 0 01.78-.75.723.723 0 01.75.75v2.16l9.87-.03a.654.654 0 01.69.66.661.661 0 01-.69.69zm-1.47 3.69c-1.83 0-3.569 0-4.949.03-1.531.03-1.8.69-1.8 2.73h6.75zm0 3.93h-6.75c0 1.89.031 2.789 1.83 2.849 1.5.06 3.181.06 4.92.06zm-2.549 6.749c-.031 1.08-.06 2.28-.06 3.24 0 1.95.149 2.58 3.719 2.58 3.36 0 4.47-.6 4.56-2.82a.724.724 0 01.78-.72.809.809 0 01.87.75c0 3.99-3.48 4.17-6.48 4.17-3.21 0-5.01-.39-5.01-3.12 0-1.29 0-2.67.061-4.08a.709.709 0 01.779-.63c.39 0 .781.21.781.6zm5.459 1.92a11.272 11.272 0 00-3.51-2.58.512.512 0 01-.33-.51.7.7 0 01.69-.69c.691 0 4.5 2.13 4.5 3.21a.857.857 0 01-.78.87.725.725 0 01-.57-.3zm5.4-9.839c0-1.74 0-2.7-1.86-2.73-1.44-.03-3.21-.03-5.01-.03v2.76zm-6.87 1.17v2.91c1.71 0 3.42-.029 5.01-.06 1.83-.06 1.86-.9 1.86-2.849zm10.68 11.639a12.891 12.891 0 00-3.99-3.96.514.514 0 01-.27-.48.764.764 0 01.78-.72c.9 0 5.01 3.45 5.01 4.68a.865.865 0 01-.84.87.837.837 0 01-.69-.39zm18.84-7.89c-1.08 2.19-3.21 6.42-6.63 6.42a2.34 2.34 0 01-2.489-2.4c0-2.94 3.93-4.92 8.159-5.369l.33-.63c1.141-2.4 3.09-6.06 3.93-7.95a.8.8 0 00.09-.3c0-.06-.03-.12-.15-.12a.446.446 0 00-.18.03 22.984 22.984 0 01-4.71.78c-.629 0-.9-.36-.9-.75a.823.823 0 01.81-.81 38.628 38.628 0 005.039-.75 2.675 2.675 0 01.66-.09c.84 0 1.32.45 1.32 1.14a2.377 2.377 0 01-.36 1.14c-1.469 2.52-2.969 5.61-4.23 8.219a21.067 21.067 0 018.43 1.62 7.889 7.889 0 00.27-2.009 4.794 4.794 0 00-.63-2.49.579.579 0 01-.09-.3.8.8 0 01.84-.69c.99 0 1.5 1.95 1.5 3.45a9.669 9.669 0 01-.42 2.669 24.018 24.018 0 014.74 2.91 1.178 1.178 0 01.48.87.9.9 0 01-.87.93 1.01 1.01 0 01-.69-.3 19.231 19.231 0 00-4.23-2.91c-1.89 4.26-5.88 6.87-6.69 6.87a.663.663 0 01-.72-.66.991.991 0 01.571-.84 13.69 13.69 0 005.4-6.03 20.982 20.982 0 00-7.68-1.65zm-7.559 3.84a1.063 1.063 0 001.17 1.02c2.25 0 4.11-3.51 4.71-4.74-3.12.48-5.88 2.041-5.88 3.72zm37.68-12.329a12.339 12.339 0 01-1.92.18c-1.53 0-2.88-.45-2.88-1.32a.727.727 0 01.78-.72 1.266 1.266 0 01.69.24 3.132 3.132 0 001.65.36 14.516 14.516 0 002.52-.3 13.3 13.3 0 00.51-3.12.8.8 0 01.87-.69.764.764 0 01.84.75 9.552 9.552 0 01-.57 2.64 14.959 14.959 0 002.73-1.05.993.993 0 01.48-.15.737.737 0 01.75.72c0 .93-1.83 1.47-4.471 2.07a30.852 30.852 0 01-2.129 4.41 5.82 5.82 0 012.28-.51c1.68 0 3.119.96 3.57 3.3 1.44-.75 2.969-1.439 4.319-2.039.75-.33 1.68-.69 2.55-1.17a1.484 1.484 0 01.72-.21.872.872 0 01.9.84 1 1 0 01-.63.869c-.87.391-1.47.571-3.06 1.171-1.56.6-3.21 1.35-4.649 2.069.029.72.06 1.62.06 2.46 0 1.53 0 2.49-.96 2.49a.715.715 0 01-.69-.81v-.09c.029-.69.06-1.56.06-2.34v-.87c-2.01 1.17-4.71 2.85-4.71 4.95 0 .6.48 2.82 4.409 2.82a14.732 14.732 0 004.26-.66 1.669 1.669 0 01.51-.09.831.831 0 01.9.81c0 .42-.27.84-.96 1.02a17.005 17.005 0 01-4.29.54c-5.039 0-6.419-2.61-6.419-4.26 0-3.15 3.99-5.49 6.209-6.72-.239-2.01-1.2-2.789-2.4-2.789a5.937 5.937 0 00-3.81 1.95c-.99 1.349-1.41 1.8-1.95 1.8a.709.709 0 01-.75-.66 1.076 1.076 0 01.39-.749 19.739 19.739 0 004.62-7.17zm32.16 12.359a70.078 70.078 0 01-9.21 2.73.743.743 0 01-.66-.81.63.63 0 01.51-.69c.87-.18 1.71-.39 2.58-.6l.03-16.8H344.4a.661.661 0 01-.69-.69.654.654 0 01.69-.66h12.66a.636.636 0 01.689.66.643.643 0 01-.689.69h-2.16l.031 22.289a.781.781 0 01-1.56 0zm.03-16.2h-5.28v4.38h5.28zm0 5.67h-5.28v4.139h5.28zm0 5.429h-5.28l.03 5.34c1.8-.51 3.57-1.08 5.22-1.68zm3.78-6.959a.636.636 0 01-.66-.69.684.684 0 01.689-.72c2.371-.03 5.61-.03 7.68-.03 1.62 0 2.52.72 2.52 2.19a22.958 22.958 0 01-3.69 10.889 15.679 15.679 0 005.67 4.71.723.723 0 01.45.69.923.923 0 01-.87.93c-.51 0-3.39-1.41-6.15-5.04-2.73 3.57-5.88 5.31-6.42 5.31a.832.832 0 01-.839-.81.712.712 0 01.45-.66 16.413 16.413 0 005.909-5.1 23.351 23.351 0 01-3.66-9.509.749.749 0 01.781-.75.622.622 0 01.659.54 21.329 21.329 0 003.09 8.4 19.864 19.864 0 003-9.389c0-.57-.21-1.02-1.11-1.02-1.8 0-5.28 0-7.47.06zm24.6-1.169c.059 0 .21-.24.329-.42a4.237 4.237 0 013.511-1.95c4.139 0 5.039 5.73 5.039 8.849a16.168 16.168 0 01-7.229 13.47 1.439 1.439 0 01-.781.27.817.817 0 01-.869-.78 1.129 1.129 0 01.63-.93 14.572 14.572 0 006.539-12.269c0-2.49-.66-7.23-3.48-7.23-1.619 0-4.38 1.41-4.38 7.23 0 .54.031 1.14.06 1.8v.12c0 .75-.449 1.08-.929 1.08-.81 0-.93-.6-.93-2.04a29.412 29.412 0 01.689-5.939c.36-1.59.9-3.63 1.141-5.52a.78.78 0 01.81-.72.794.794 0 01.84.81 20.685 20.685 0 01-.871 3.66 2.017 2.017 0 00-.119.48zm24.36-2.55h-.03a.724.724 0 01-.72-.78.749.749 0 01.72-.81c1.32-.03 3.63-.06 4.86-.06h.09c1.62 0 2.82.9 2.82 2.31.06 7.26 4.59 15.509 11.339 19.109a.949.949 0 01.571.84 1.084 1.084 0 01-1.051 1.05c-1.05 0-8.969-5.4-11.609-15.629-2.64 12.209-11.549 15.989-12.089 15.989a1.015 1.015 0 01-.991-.96.84.84 0 01.54-.78c8.01-3.81 11.43-12.239 11.73-19.409-.12-.63-.54-.99-1.62-.99h-.12zm34.98 9.389c3.99-4.169 6.66-6 8.82-6 2.01 0 2.97 1.77 2.97 3.93 0 .15-.03.33-.03.48-.12 1.829-.69 5.219-.84 6.959-.03.3-.03.6-.03.87 0 1.74.57 2.49 1.44 2.49.9 0 2.07-.75 3.3-2.04a1.039 1.039 0 01.721-.36.835.835 0 01.779.87c0 .9-2.79 3.18-4.979 3.18-1.65 0-2.91-1.17-2.91-3.93 0-.36.03-.72.06-1.11.18-1.62.72-4.98.81-6.839V60.8c0-1.62-.45-2.61-1.56-2.61-2.37 0-8.04 5.7-8.7 6.449-.09 1.5-.15 3-.15 4.41a36.351 36.351 0 00.33 5.16v.15a.923.923 0 01-.93.96c-.93 0-.96-1.14-.96-3.42 0-1.62.09-3.57.21-5.64a27.445 27.445 0 00-1.77 2.85c-1.59 2.94-1.71 3.15-2.46 3.15a.915.915 0 01-.929-.78c0-.33.06-.39.929-1.41a76.651 76.651 0 004.47-7.35l.18-2.309a34.48 34.48 0 00-3.39 1.53 1.051 1.051 0 01-.54.149.723.723 0 01-.75-.749.792.792 0 01.48-.72c1.351-.63 3-1.35 4.35-1.83.24-2.46.45-4.62.63-6.03a.754.754 0 01.78-.72.776.776 0 01.84.69v.12c-.24 1.29-.54 3.24-.78 5.49.09 0 .15-.03.21-.03a.866.866 0 01.93.93c0 .45-.18.9-1.53 3.3zm28.921-4.109a7.569 7.569 0 01-2.79-.48.884.884 0 01-.51-.81.676.676 0 01.69-.75 1.175 1.175 0 01.39.09 7.849 7.849 0 002.64.42 11.178 11.178 0 002.43-.27 10.177 10.177 0 00.21-2.01 14.109 14.109 0 00-.121-1.71v-.12a.74.74 0 01.811-.75c.75 0 .99.51.99 1.95a10.749 10.749 0 01-.21 2.16 11.752 11.752 0 002.459-1.2.69.69 0 01.421-.12.876.876 0 01.84.81c0 .39-.3 1.08-4.11 2.16a117.216 117.216 0 01-5.73 15.629 1.072 1.072 0 01-.96.66.8.8 0 01-.84-.81 1.684 1.684 0 01.18-.69 95.083 95.083 0 005.64-14.4 13.608 13.608 0 01-2.43.241zm13.289 15.509c-4.229 0-6.78-1.89-6.78-2.91a.919.919 0 01.87-.9.823.823 0 01.63.33c.991 1.2 2.491 1.68 4.62 1.68a22.052 22.052 0 003.24-.27h.18a.811.811 0 01.87.84c0 .72-.661 1.23-3.63 1.23zm3.12-12.51a12.123 12.123 0 00-4.14-.749 7.559 7.559 0 00-2.67.42.876.876 0 01-.269.06.7.7 0 01-.691-.72c0-1.17 3-1.26 3.9-1.26a13.22 13.22 0 014.35.72.8.8 0 01.57.78.752.752 0 01-.72.81 1.237 1.237 0 01-.33-.061zm10.681-5.189a.706.706 0 110-1.41h9.149a.706.706 0 110 1.41zm6.419 18.629c-.63.03-1.38.06-2.13.06s-1.469-.03-2.069-.06a1.979 1.979 0 01-2.04-2.01c-.03-.66-.03-1.26-.03-1.83 0-.81 0-1.56.03-2.31a1.947 1.947 0 011.98-2.01c.689-.03 1.379-.06 2.04-.06.839 0 1.62.03 2.339.06a2.068 2.068 0 012.161 1.83c.029.69.029 1.44.029 2.19 0 .72 0 1.44-.029 2.1a2.145 2.145 0 01-2.281 2.04zm-5.219-22.739a.705.705 0 110-1.41h6.33a.66.66 0 01.69.69.668.668 0 01-.69.72zm.03 8.07a.712.712 0 01-.75-.69.7.7 0 01.75-.69h6.359a.644.644 0 01.69.69.659.659 0 01-.69.69zm0 3.929a.712.712 0 01-.75-.689.7.7 0 01.75-.69h6.359a.644.644 0 01.69.69.659.659 0 01-.69.689zm6.03 6.63c0-.66 0-1.29-.031-1.74-.06-1.05-.75-1.08-2.88-1.08-.569 0-1.14 0-1.589.03-1.141.06-1.141.63-1.141 2.79 0 .66.031 1.29.031 1.77.03.87.48 1.02 2.7 1.02 2.49 0 2.851-.18 2.88-1.08.03-.449.03-1.08.03-1.71zm2.279 4.95a.832.832 0 01-.839-.81.746.746 0 01.659-.72 16.366 16.366 0 006.81-3.75 13.23 13.23 0 01-3.24-5.13.8.8 0 01.84-.72.549.549 0 01.54.33 15.45 15.45 0 002.85 4.5 11.679 11.679 0 002.97-5.37c0-.479-.33-.69-1.08-.69-2.07 0-5.55.03-7.92.06a.622.622 0 01-.6-.689c0-.36.18-.69.54-.69h8.49c1.77.03 2.34.749 2.34 1.68 0 1.769-2.34 5.249-3.66 6.719a15.418 15.418 0 006.6 3.33.847.847 0 01.69.84.827.827 0 01-.87.84 15.922 15.922 0 01-7.44-3.96 16.482 16.482 0 01-7.68 4.23zm11.76-15.839c-2.16 0-2.7-.6-2.7-2.22 0-1.29.06-3.39.06-4.38 0-1.08-.66-1.17-1.92-1.17-1.65 0-2.37.03-2.37 1.26 0 2.7-.24 5.43-2.91 7.11a.968.968 0 01-.54.18.858.858 0 01-.84-.84.575.575 0 01.331-.54c2.219-1.11 2.458-3.15 2.458-5.67v-.69c0-2.04 1.5-2.16 3.45-2.16 2.52 0 3.84.09 3.84 2.22 0 1.5-.09 3.18-.09 4.44 0 .96.42 1.11 1.53 1.11 1.35 0 1.86-.33 1.86-2.16 0-.63.03-1.05.75-1.05s.75.42.75.96c.001 3.3-1.469 3.6-3.659 3.6zm11.851-3.54a.706.706 0 110-1.41h10.979a.706.706 0 110 1.41zm5.159 18.749c-.989 0-1.949-.03-2.549-.06a2.145 2.145 0 01-2.22-2.16c-.03-.6-.03-1.32-.03-2.04s0-1.41.03-1.89a2.112 2.112 0 012.16-2.16c.689-.03 1.589-.06 2.46-.06 1.08 0 2.159.03 2.909.06a2.267 2.267 0 012.37 1.98c.03.57.06 1.47.06 2.31 0 2.01 0 3.81-2.549 3.96-.661.03-1.65.06-2.641.06zM531.6 52.37a.685.685 0 01-.69-.72.677.677 0 01.69-.69h7.949a.677.677 0 01.69.69.685.685 0 01-.69.72zm.06 8.07a.662.662 0 110-1.32h7.949a.661.661 0 110 1.32zm0 3.93a.663.663 0 110-1.321h7.949a.661.661 0 110 1.321zm7.439 6.659c0-2.16-.09-2.79-1.41-2.82-.51-.03-1.35-.03-2.16-.03s-1.619 0-2.1.03c-1.32.06-1.32 1.11-1.32 2.88 0 .6 0 1.2.03 1.62.089 1.02.42 1.17 3.359 1.17 2.73 0 3.45 0 3.541-1.2.032-.42.061-1.05.061-1.65zm8.7-9.779l-5.34.03a.735.735 0 110-1.47l5.34.03-.03-8.67a.84.84 0 011.68 0l-.03 8.67 5.49-.03a.738.738 0 110 1.47l-5.49-.03.03 14.039a.845.845 0 01-1.68 0zM11.88 107.53c0 2.79-3.96 14.069-7.98 14.069-1.56 0-3.9-2.04-3.9-5.58a11.146 11.146 0 0111.49-10.589c5.159 0 9.689 3.3 9.689 8.579 0 7.38-8.189 9.78-9.24 9.78a.911.911 0 01-1.019-.84c0-.36.27-.75.9-.87 4.05-.87 7.649-3.66 7.649-8.189 0-4.2-3.719-7.14-8.01-7.14a.838.838 0 01.421.78zM1.56 115.9c0 2.04 1.23 3.9 2.43 3.9 2.04 0 5.76-7.2 6.18-12.239a1.026 1.026 0 01.3-.75 9.721 9.721 0 00-8.91 9.089zm31.32-11.58a12.2 12.2 0 005.94-1.29 1.143 1.143 0 01.57-.18.84.84 0 01.87.81 1.01 1.01 0 01-.66.9c-1.71.9-6.419 7.14-6.419 13.019 0 2.85 1.2 5.67 4.2 5.67 2.76 0 8.34-3.18 8.34-12.029a9.887 9.887 0 00-1.29-5.34 1.46 1.46 0 01-.18-.66.788.788 0 01.81-.81 1.24 1.24 0 011.11.9c.87 2.07 2.97 4.32 6.33 6.15a.965.965 0 01.57.869.884.884 0 01-.9.9c-.78 0-3.39-2.009-4.74-3.569-.21-.27-.33-.39-.36-.39s-.03 0-.03.06a5.824 5.824 0 00.09.66 13.953 13.953 0 01.15 1.98c0 6.569-4.32 13.019-9.9 13.019-1.89 0-5.79-.96-5.79-7.2 0-4.56 2.551-9.179 4.59-11.879a2.03 2.03 0 00.24-.36c0-.03 0-.06-.06-.06a1.522 1.522 0 00-.27.06 24.456 24.456 0 01-3.63.42c-.569.03-1.049-.24-1.049-.81a.912.912 0 011.02-.84zm17.58 1.59a9.356 9.356 0 00-2.91-2.13.556.556 0 01-.39-.51.707.707 0 01.75-.63c.66 0 3.81 1.68 3.81 2.79a.757.757 0 01-.72.75.681.681 0 01-.54-.27zm2.49-2.16a9.753 9.753 0 00-2.97-2.13.626.626 0 01-.42-.51.687.687 0 01.75-.63c.66 0 3.9 1.65 3.9 2.76a.768.768 0 01-.75.78.67.67 0 01-.51-.27zm16.021 7.8l2.79 5.009c2.789 5.07 3.749 7.38 3.749 8.22a.932.932 0 01-.869 1.02 1 1 0 01-.931-.87c-.509-1.89-2.04-5.4-6.029-12.629-.6.33-4.29 2.4-5.16 2.4a.865.865 0 01-.87-.84c0-.33.21-.66.78-.839a29.83 29.83 0 004.53-2.04c-1.65-3.33-2.22-4.44-2.22-4.98a.788.788 0 01.81-.81.867.867 0 01.78.63 26.065 26.065 0 001.95 4.44l.6-.33a50.536 50.536 0 015.91-3.09 13.088 13.088 0 014.649-.99c3.39 0 5.13 2.01 5.13 3.99 0 2.879-2.94 5.909-7.41 5.909-1.92 0-4.47-.75-4.47-1.77a.891.891 0 01.84-.9 1.047 1.047 0 01.6.21 5.764 5.764 0 003.12.841c3.63 0 5.58-2.46 5.58-4.26 0-1.71-1.86-2.58-3.57-2.58-2.82 0-5.4 1.38-9.869 4.02zm3.63-5.52a5.75 5.75 0 00-1.741-2.73.625.625 0 01-.21-.45.749.749 0 01.81-.66c.96 0 2.79 2.58 2.79 3.54a.953.953 0 01-.93.93.745.745 0 01-.72-.63zm25.77 5.01a28.588 28.588 0 01-3.121.24.757.757 0 01-.81-.75.8.8 0 01.781-.81c.989-.03 1.92-.03 3.029-.12l1.95-.21a52.159 52.159 0 001.17-5.49.842.842 0 01.87-.75.812.812 0 01.84.81 34.177 34.177 0 01-1.14 5.25c2.34-.21 2.37-.21 2.46-.21 1.89 0 3.51.93 3.51 4.289 0 4.86-1.41 9.93-5.82 9.93-.78 0-2.73-.18-2.73-1.23a.8.8 0 01.81-.78.831.831 0 01.27.03 5.954 5.954 0 001.71.27c3.69 0 4.14-5.85 4.14-8.009 0-1.92-.36-3.06-2.16-3.06-.45 0-1.26.06-2.58.21a44.713 44.713 0 01-5.969 12.419 1.311 1.311 0 01-1.081.6.8.8 0 01-.87-.75 1.382 1.382 0 01.391-.87c2.069-2.34 4.319-6.72 5.789-11.189zm17.459 3.929a11.583 11.583 0 00-5.01-5.609.576.576 0 01-.33-.54.745.745 0 01.78-.72c1.26 0 6.209 4.5 6.209 6.509a.912.912 0 01-.869.96.833.833 0 01-.78-.6zm26.91 9.42c-6.09 0-9.809-4.02-9.809-8.85a11.758 11.758 0 013.059-7.529c.24-.24.361-.39.361-.45 0-.03 0-.06-.06-.06a1.5 1.5 0 00-.48.12c-3.84 1.26-8.64 2.49-8.91 2.49a.978.978 0 01-1.08-.93.945.945 0 01.87-.87c.66-.15 2.49-.51 3.479-.75 1.5-.39 4.2-.99 7.351-1.89.869-.24 6.389-1.8 8.489-1.8a.962.962 0 011.02.96c0 .78-.69.87-2.31.96a15.243 15.243 0 00-4.68.9 9.935 9.935 0 00-5.49 8.549c0 3.75 2.551 7.23 7.92 7.23h.54c.84 0 1.26.45 1.26.93 0 .15-.06.99-1.53.99zm2.85-11.249a10.084 10.084 0 00-2.94-2.16.556.556 0 01-.39-.51.709.709 0 01.75-.66c.6 0 3.87 1.71 3.87 2.82a.769.769 0 01-.75.78.64.64 0 01-.54-.27zm2.58-2.19a9.973 9.973 0 00-3-2.16.582.582 0 01-.42-.54.707.707 0 01.75-.63c.45 0 3.93 1.59 3.93 2.82a.745.745 0 01-.72.78.727.727 0 01-.54-.27zm23.61 2.22l-.03 3.839c1.2 0 2.46.03 3.78.06 1.92.03 2.7 1.11 2.76 2.25.03.57.06 1.14.06 1.74 0 .57-.03 1.14-.06 1.77-.06 1.23-.87 2.34-2.91 2.4-1.62.06-3 .06-4.38.06-1.35 0-2.669 0-4.229-.06-1.98-.06-2.91-1.08-2.97-2.37-.03-.51-.03-1.02-.03-1.53 0-.69 0-1.32.03-1.92.06-1.17.869-2.28 2.909-2.34 1.141-.03 2.311-.06 3.51-.06l-.03-3.839-8.909.029c-.27 4.02-1.11 7.95-3.39 10.92a.944.944 0 01-.78.42.8.8 0 01-.84-.75.956.956 0 01.18-.51c2.88-3.87 3.36-8.61 3.36-13.379 0-2.01-.09-4.02-.12-6v-.06a2.653 2.653 0 012.94-2.7c1.92-.06 4.32-.06 6.749-.06 2.4 0 4.86 0 6.84.06 2.67.03 2.79 1.32 2.79 3.51 0 1.41-.27 2.7-3.09 2.73-2.64.03-6.27.09-9.96.09-1.529 0-3.089 0-4.559-.03 0 .6.03 1.2.03 1.8 0 .84-.03 1.68-.06 2.55l8.819.03v-3.12a.724.724 0 01.78-.72.733.733 0 01.81.72v3.12l8.61-.03a.685.685 0 01.72.689.692.692 0 01-.72.72zm-10.409-7.11c2.1.03 4.35.03 6.54.03 3.089 0 5.969-.03 7.979-.09 1.41-.03 1.56-.72 1.56-1.77 0-1.23-.12-1.74-1.62-1.77-1.68-.03-3.75-.06-5.85-.06-2.549 0-5.1.03-6.929.06a1.591 1.591 0 00-1.71 1.71v.09zm3.93 15.059c0 1.95.15 2.76 1.709 2.79 1.111.03 2.31.06 3.571.06 1.5 0 3.059-.03 4.5-.06 1.5-.03 1.68-.75 1.68-2.61 0-.54 0-1.08-.03-1.5-.06-1.44-.54-1.47-5.669-1.47-1.411 0-2.821 0-4.051.06-1.56.03-1.711.78-1.711 2.73zm24.51-.3a.9.9 0 01-.93-.84.972.972 0 01.27-.63 16.629 16.629 0 003.69-6.75.791.791 0 01.81-.629.838.838 0 01.87.81c0 1.079-2.28 5.909-3.87 7.619a1.135 1.135 0 01-.84.42zm9.629-12.9a684.99 684.99 0 00-.3 13.739c0 1.92 1.469 2.28 3.42 2.28 4.8 0 5.339-1.29 5.339-4.17a.788.788 0 01.81-.87c.21 0 .96.06.96 1.11 0 4.59-2.49 5.4-6.81 5.4-2.489 0-5.369-.18-5.369-3.54 0-3.45.15-9.209.239-13.919a.791.791 0 01.871-.75.755.755 0 01.839.69zm5.49-2.37a18.814 18.814 0 00-5.97-2.94.711.711 0 01-.54-.63.818.818 0 01.871-.78 22.736 22.736 0 016.719 2.97.9.9 0 01-.51 1.62.944.944 0 01-.57-.239zm8.94 12.6a20.322 20.322 0 00-5.49-5.489.686.686 0 01-.33-.571.832.832 0 01.87-.719c.96 0 6.63 4.859 6.63 6.209a1.043 1.043 0 01-.96 1.02.887.887 0 01-.72-.45zm12.601-7.469h-3.54a.677.677 0 01-.69-.69.685.685 0 01.69-.72l3.54.03v-7.08a.739.739 0 01.81-.75.73.73 0 01.78.75l-.03 7.08 3.21-.03a.652.652 0 01.659.69.66.66 0 01-.659.72h-3.21l-.031 8.129a44.592 44.592 0 003.331-1.59.8.8 0 01.359-.09.693.693 0 01.661.69.743.743 0 01-.451.66c-2.069 1.05-8.279 3.9-9.179 3.9a.767.767 0 01-.21-1.5c1.2-.36 2.61-.87 3.99-1.44zm12.929-.72l-3.839 1.95c0 3.779-.031 7.649-.031 9.509 0 2.31 2.22 2.31 4.32 2.31 5.97 0 6.72-.72 6.72-3.84a.732.732 0 01.78-.81c.33 0 .9.18.9 1.05 0 4.62-2.82 5.01-7.89 5.01-3.15 0-6.33-.06-6.33-3.51v-8.939c-3.059 1.559-3.059 1.559-3.179 1.559a.7.7 0 01-.661-.72.657.657 0 01.391-.629s1.469-.75 3.449-1.77v-7.05a.731.731 0 01.781-.75.718.718 0 01.779.69c0 1.62-.029 3.9-.029 6.3l3.839-1.92v-7.02a.724.724 0 01.78-.72.715.715 0 01.75.72v6.24c2.43-1.23 3-1.5 3.78-1.5 1.89 0 1.98 1.8 1.98 3.45 0 6.719-.54 8.519-3.09 8.519-1.32 0-1.5-.39-1.5-.87 0-.39.24-.81.6-.81.06 0 .09.03.15.03a2.746 2.746 0 00.78.12c1.05 0 1.53-.96 1.53-6.389 0-1.86-.15-2.52-.87-2.52-.15 0-.45.03-3.36 1.53v10.379a.686.686 0 01-.75.66.7.7 0 01-.78-.66zm28.981-2.43c0 2.79-3.96 14.069-7.98 14.069-1.56 0-3.9-2.04-3.9-5.58a11.146 11.146 0 0111.49-10.589c5.159 0 9.689 3.3 9.689 8.579 0 7.38-8.189 9.78-9.24 9.78a.911.911 0 01-1.019-.84c0-.36.27-.75.9-.87 4.05-.87 7.649-3.66 7.649-8.189 0-4.2-3.72-7.14-8.01-7.14a.838.838 0 01.421.78zm-10.32 8.369c0 2.04 1.23 3.9 2.43 3.9 2.04 0 5.759-7.2 6.18-12.239a1.026 1.026 0 01.3-.75 9.721 9.721 0 00-8.91 9.09zm34.5-.99c-.03 2.67-.03 5.82-.03 8.1a49.122 49.122 0 006-2.04 1.066 1.066 0 01.3-.06.757.757 0 01.72.75.787.787 0 01-.571.72 65.508 65.508 0 01-11.969 3.48.781.781 0 01-.81-.78.827.827 0 01.75-.81c1.32-.21 2.67-.51 4.05-.84 0-2.88-.03-6.06-.03-9.09 0-3 .03-5.879.03-8.069 0-1.38.99-2.58 2.97-2.64 1.23-.03 2.55-.06 3.84-.06l-.03-2.64a.8.8 0 01.87-.78.787.787 0 01.84.78l-.031 2.64c1.261 0 2.52.03 3.63.06 2.25.06 3.09 1.2 3.15 2.58.06.9.06 1.89.06 2.88 0 1.02 0 2.04-.06 3-.06 1.47-.96 2.67-3.209 2.76-1.2.03-2.52.06-3.96.06a13.26 13.26 0 002.159 4.2 29.525 29.525 0 006.72-3.42.6.6 0 01.39-.12.939.939 0 01.9.87.875.875 0 01-.51.72 37.441 37.441 0 01-6.54 3.03 14.848 14.848 0 008.49 3.9.769.769 0 01.69.78.908.908 0 01-.93.9 15.272 15.272 0 01-12.9-10.86zm12.179-6.3c0-2.49-.09-3.6-1.979-3.69-.75-.03-1.74-.03-2.85-.03-1.77 0-3.78.03-5.46.06-1.86.06-1.89 1.08-1.89 3.66zm-12.179 1.26v3.78c1.38.029 2.67.029 3.9.029 2.46 0 4.56-.029 6.3-.12 1.829-.09 1.979-1.049 1.979-3.689zm37.11 6.51a.944.944 0 01.9.9c0 .18-1.38 4.59-4.11 4.59-1.53 0-5.16-1.89-5.7-10.529-.091-1.32-.12-1.95-.12-2.64 0-.93.06-1.59.869-1.59.841 0 .87.6.87 2.34 0 8.669 3.15 10.529 4.05 10.529.361 0 1.38-.15 2.49-3.03a.836.836 0 01.751-.57zm11.13-.69a9.714 9.714 0 00-3.69-6.179.71.71 0 01-.33-.63.75.75 0 01.78-.75c1.32 0 5.069 4.56 5.069 7.169a1.08 1.08 0 01-1.019 1.14.807.807 0 01-.811-.75zm11.881 8.73a.721.721 0 010-1.44l10.559.03-.03-5.28-7.83.03a.705.705 0 110-1.41h17.13a.659.659 0 01.69.69.667.667 0 01-.69.72l-7.71-.03v5.28l10.44-.03a.694.694 0 01.69.75.678.678 0 01-.69.69zm21.149-17.639c0-.99-.54-1.41-2.07-1.44-2.19-.03-5.07-.06-7.89-.06-2.85 0-5.64.03-7.709.06-1.651.03-2.161.57-2.19 1.47 0 .42.029 1.5.029 2.04a.8.8 0 01-.87.78c-.809 0-.839-.51-.839-2.07 0-1.71 0-3.51 3.27-3.54 2.579-.03 5.1-.06 7.619-.06v-3.36a.779.779 0 01.87-.78.77.77 0 01.84.78l-.03 3.36c2.46 0 4.92.03 7.44.06 2.1.03 3.179.96 3.21 2.46v2.13a.836.836 0 01-.87.81.757.757 0 01-.81-.75zm-19.68 7.59a.807.807 0 01-.81-.811.73.73 0 01.6-.72 10.039 10.039 0 006.93-5.579.665.665 0 01.66-.39.774.774 0 01.81.75 1.008 1.008 0 01-.12.45 12.173 12.173 0 01-8.07 6.3zm11.55-7.05a.686.686 0 01.75-.66c.39 0 .75.21.75.6v.03c-.03.78-.03 2.76-.03 3.06.03.96.3 1.29 2.67 1.29 1.77 0 2.61-.15 2.7-1.41a.652.652 0 01.72-.63.719.719 0 01.78.69c-.061 2.25-1.8 2.64-4.47 2.64-2.01 0-3.87-.03-3.87-2.34zm31.381.21c0 2.79-3.96 14.069-7.98 14.069-1.56 0-3.9-2.04-3.9-5.58a11.146 11.146 0 0111.489-10.589c5.16 0 9.69 3.3 9.69 8.579 0 7.38-8.19 9.78-9.24 9.78a.911.911 0 01-1.019-.84c0-.36.269-.75.9-.87 4.05-.87 7.65-3.66 7.65-8.189 0-4.2-3.72-7.14-8.01-7.14a.838.838 0 01.42.78zm-10.32 8.369c0 2.04 1.23 3.9 2.43 3.9 2.039 0 5.76-7.2 6.18-12.239a1.022 1.022 0 01.3-.75 9.721 9.721 0 00-8.91 9.09zm28.349 10.08a.788.788 0 01-.81-.81.746.746 0 01.72-.72c4.23-.57 7.23-2.79 8.64-6a.735.735 0 01.69-.54.88.88 0 01.84.84.646.646 0 01-.06.33c-2.7 6.15-9.9 6.9-10.02 6.9zm12.18-8.79c-1.68 0-3.33-.03-4.74-.09-2.19-.09-3.24-1.26-3.3-2.88-.03-1.349-.06-3.329-.06-5.279 0-1.98.03-3.9.06-5.07a2.913 2.913 0 013.06-2.85c1.26-.03 2.73-.06 4.26-.06 1.86 0 3.78.03 5.49.06a2.757 2.757 0 012.879 2.61c.06 1.41.06 3.36.06 5.28 0 1.95 0 3.87-.06 5.279a2.948 2.948 0 01-3.059 2.91c-.6.03-1.2.06-1.83.06-.03 1.32-.06 3.09-.06 4.2 0 1.71.06 2.67 3.6 2.67 2.849 0 4.5-.48 4.5-3.75a.763.763 0 01.781-.81.9.9 0 01.929.84c0 5.13-3.69 5.16-6.329 5.16-2.31 0-5.01-.18-5.07-3.24 0-.87 0-3.42.03-5.04zm6.18-9.959h-12.75c0 1.14.03 2.37.03 3.51h12.72zm-.031-1.26c0-2.49 0-3.54-2.1-3.6-1.08-.03-2.64-.06-4.23-.06-1.56 0-3.15.03-4.32.06a1.833 1.833 0 00-2.01 1.83c-.03.48-.03 1.08-.03 1.77zM420.751 112c0 2.909 0 3.689 2.07 3.779 1.41.06 2.94.09 4.5.09 1.35 0 2.73-.03 4.05-.09 2.069-.09 2.069-1.05 2.069-3.779zm29.849 11.789a1.7 1.7 0 01-1.29.78c-.06 0-.93 0-.93-.72a1.193 1.193 0 01.36-.78c1.02-1.17 2.43-2.64 3.45-3.6a120.665 120.665 0 008.4-9.449c0-.03-.029-.03-.06-.03a1.365 1.365 0 00-.33.09 37.912 37.912 0 01-7.619 2.46.933.933 0 01-1.02-.87.862.862 0 01.78-.84 39.612 39.612 0 005.459-1.44c2.64-.9 2.91-.96 3.3-.96a1.319 1.319 0 011.469 1.32 1.631 1.631 0 01-.45 1.08c-1.44 1.59-4.26 4.769-7.8 8.4a3.756 3.756 0 011.44-.3 3 3 0 012.759 1.92c.72 1.5 1.5 2.31 3.21 2.31a13.6 13.6 0 005.07-1.05 1.391 1.391 0 01.57-.12.828.828 0 01.87.84 1.136 1.136 0 01-.87 1.02 16.643 16.643 0 01-5.309.9h-.359a5.057 5.057 0 01-.99-.09c-1.68-.24-2.7-1.11-3.569-3.09a2.088 2.088 0 00-1.951-1.44c-1.17 0-2.609.93-3.869 2.67zm10.44-18.389c-.96 0-4.23-1.95-5.25-2.76a.783.783 0 01-.331-.63.829.829 0 01.841-.78.961.961 0 01.57.21 17.682 17.682 0 004.469 2.28.86.86 0 01.69.78.964.964 0 01-.987.9zm30.122 12.3c0-2.73-2.46-3.93-5.1-3.93a10.242 10.242 0 00-7.98 3.93.928.928 0 01-1.68-.45 1.237 1.237 0 01.42-.84c5.37-5.279 10.08-10.769 10.08-11.039 0-.03-.03-.06-.09-.06a.586.586 0 00-.21.03c-1.62.51-6.69 1.53-6.87 1.53a.831.831 0 01-.9-.81.848.848 0 01.84-.81 68.182 68.182 0 007.11-1.38 2.908 2.908 0 01.69-.09c.84 0 1.44.45 1.44 1.14 0 .57-.18.99-3.54 4.5l-4.14 4.289a11.7 11.7 0 015.25-1.259c4.08 0 6.359 2.369 6.359 5.159 0 3.72-3.479 6.9-8.309 6.9-3.51 0-5.52-1.62-5.52-3.42 0-1.14.87-2.58 3.27-2.58 2.07 0 3.84 1.35 3.84 4.26v.21c2.85-.48 5.04-2.821 5.04-5.28zm-6.57 5.22c0-1.98-.81-3.12-2.22-3.12-1.71 0-1.89 1.11-1.89 1.29 0 1.02 1.32 2.04 3.69 2.04h.42zm33.87-7.381a19.507 19.507 0 008.039 3.78.724.724 0 01.6.69.877.877 0 01-.9.87 19.368 19.368 0 01-5.189-2.07c.21.36.33.66.33 2.43 0 .66 0 1.38-.03 1.89-.061 1.53-.93 2.43-2.76 2.49-1.44.06-2.82.06-4.14.06-1.35 0-2.67 0-3.99-.06-2.01-.06-2.76-1.05-2.79-2.46 0-.48-.03-1.05-.03-1.59 0-1.98.09-2.7.69-3.24a23.037 23.037 0 01-5.97 2.91.748.748 0 01-.75-.78.691.691 0 01.511-.69 24.7 24.7 0 007.8-4.23l-7.56.06a.613.613 0 01-.63-.63.621.621 0 01.63-.66l8.91.03a20.139 20.139 0 001.71-1.86c-6.42 0-6.75 0-6.75-3.719 0-1.8 0-3.39 2.76-3.48 1.77-.06 3.66-.06 5.55-.06s3.78 0 5.55.06c2.55.03 2.61 1.41 2.61 3.48 0 2.16-.15 3.569-2.67 3.66-1.68.059-3.57.059-5.46.059 0 .061-.03.09-.06.151a19.858 19.858 0 01-1.44 1.709h1.26l12.089-.03a.613.613 0 01.63.63.621.621 0 01-.63.66zm-.09-12.569v1.08a.705.705 0 01-.75.66.715.715 0 01-.78-.66v-1.08h-5.19v1.08a.791.791 0 01-1.56 0v-1.08l-7.08.03c-.54 0-.78-.3-.78-.63a.726.726 0 01.78-.72l7.08.03v-1.29a.791.791 0 011.56 0v1.29h5.19v-1.29a.7.7 0 01.78-.66.686.686 0 01.75.66v1.29l7.44-.03a.676.676 0 110 1.35zm2.85 5.31c0-1.47-.451-1.86-1.53-1.89-1.65-.03-3.45-.06-5.22-.06-1.8 0-3.57.03-5.19.06-1.11.03-1.68.42-1.68 1.89zm-13.62 1.05c0 1.68.63 1.95 1.74 1.98 1.5.03 3.27.03 5.1.03s3.69 0 5.28-.03c1.44-.03 1.529-.69 1.529-1.98zm4.26 6.209a25.649 25.649 0 01-3 2.4c.75-.36 1.92-.36 5.97-.36 1.32 0 2.67.03 3.87.06a3.693 3.693 0 01.6.06 19.956 19.956 0 01-2.61-2.16zm8.07 5.37c0-1.32-.06-2.01-1.65-2.07-1.08-.03-2.46-.06-3.84-.06s-2.76.03-3.84.06-1.53.45-1.59 1.32v.75zm-10.92 1.14v.99c.03.93.6 1.32 1.65 1.35 1.17.03 2.43.06 3.69.06 1.29 0 2.61-.03 3.87-.06.9-.03 1.65-.45 1.68-1.41 0-.27.03-.6.03-.93zm33.75 3.54a.9.9 0 01-.99-.84c0-.39.27-.78.93-.9a15.869 15.869 0 004.32-1.41c2.97-1.74 4.26-3.72 4.26-5.28 0-1.8-1.56-2.49-3.24-2.49-3.15 0-6.84 2.34-8.43 3.72a2.421 2.421 0 01-1.5.75c-.84 0-1.38-.72-1.38-2.97a30.931 30.931 0 01.27-3.539c.241-1.95.63-3.9.84-5.22a.832.832 0 01.841-.72.684.684 0 01.719.69v.15c-.179 1.29-.54 3.06-.779 4.53a25.3 25.3 0 00-.36 3.449c0 .48 0 1.35.36 1.35a1.655 1.655 0 00.659-.33c2.58-1.59 5.67-3.33 8.85-3.33 3.06 0 4.89 1.68 4.89 3.93 0 2.04-1.5 4.53-4.89 6.6a15.65 15.65 0 01-5.37 1.86zm.21-19.379a1.276 1.276 0 01-.33.06.768.768 0 01-.78-.75.513.513 0 01.36-.54c.78-.3 1.14-.51 1.14-.75 0-.21-.3-.42-.87-.78-2.159-1.38-2.309-1.47-2.309-1.95a.721.721 0 01.779-.69 1.192 1.192 0 01.661.24c.569.42 1.439.96 2.159 1.38.87.54 1.92 1.2 1.95 1.92 0 .84-.3 1.14-2.76 1.86zm23.22-3.96a.914.914 0 01.99.84c0 .15-.03 1.35-.451 6.9-.21 2.76-.449 5.249-.449 7.739 0 .48 0 .93.03 1.41.09 2.52 1.83 3.84 4.259 3.84 2.221 0 5.01-1.08 7.74-3.3a1.169 1.169 0 01.78-.33.912.912 0 01.87.96 1.089 1.089 0 01-.42.84 14.751 14.751 0 01-8.91 3.54c-3.3 0-5.88-1.74-6-5.55-.03-.45-.03-.87-.03-1.29 0-2.61.3-4.919.419-7.709.091-1.8.271-4.38.271-6.3v-.69a.848.848 0 01.901-.9z" id="b582ffe5-47e1-4e94-89ed-a6cd339a60ba" data-name="レイヤー 1"/></g></svg>