<svg xmlns="http://www.w3.org/2000/svg" width="304.47" height="25.619" viewBox="0 0 304.47 25.619">
  <g id="b3ebf892-3f95-4cd6-bb69-04ba21d952f1" data-name="レイヤー 2">
    <g id="fd70b856-f29b-4810-a3b0-285670aa23d9" data-name="レイヤー 1">
      <g>
        <path d="M6.93,23.909c-4.86,0-6.93-3.09-6.93-3.93a.967.967,0,0,1,.99-.93.893.893,0,0,1,.81.48,5.613,5.613,0,0,0,5.159,2.61c2.88,0,4.92-1.83,4.92-4.08a4.89,4.89,0,0,0-2.819-4.11c-1.53-.87-3.18-1.679-4.8-2.49A5.528,5.528,0,0,1,.96,6.57C.96,3.99,3,1.56,6.75,1.56s5.969,2.13,5.969,3.09a.956.956,0,0,1-.9.96,1.006,1.006,0,0,1-.84-.51A4.884,4.884,0,0,0,6.72,3.15c-2.46,0-3.93,1.59-3.93,3.36A4,4,0,0,0,5.16,9.93c1.35.72,3.48,1.679,4.77,2.4,2.729,1.5,3.9,3.66,3.9,5.7C13.829,20.849,11.52,23.909,6.93,23.909Z"/>
        <path d="M19.98,12.75c0-6.51,4.65-11.22,10.89-11.22S41.759,6.24,41.759,12.75c0,6.749-4.65,11.159-10.889,11.159S19.98,19.5,19.98,12.75Zm19.829,0c0-5.73-3.99-9.54-8.939-9.54s-8.94,3.81-8.94,9.54c0,5.7,3.99,9.449,8.94,9.449S39.809,18.449,39.809,12.75Z"/>
        <path d="M58.079,12.809c0,.12.12.27.33.451,1.65,1.529,2.94,4.139,4.11,6.059.84,1.35,1.71,2.25,3.06,2.4a1.009,1.009,0,0,1,.93,1.02c0,.51-.39.99-1.23.99-.66,0-2.73-.48-4.35-3.42-1.23-2.19-3.75-7.2-5.849-7.26-.421,0-1.71-.059-2.491-.059-.839,0-.96.179-.96.569,0,2.31.091,8.07.091,9.18a.922.922,0,0,1-.991.9.848.848,0,0,1-.929-.87c.059-5.73.03-14.579.119-17.819.091-3.27,3.09-3.27,5.4-3.27.66,0,1.32.03,1.77.06,4.38.3,6.27,2.85,6.27,5.4a5.6,5.6,0,0,1-5.01,5.519C58.169,12.659,58.079,12.719,58.079,12.809Zm-1.2-9.539c-.42-.03-1.08-.06-1.77-.06-2.219,0-3.27.42-3.389,2.13-.06.75-.031,3.81-.06,5.61,0,.45.449.509,2.909.509.96,0,1.951-.029,2.52-.059a4.425,4.425,0,0,0,4.38-4.23C61.469,5.28,60.059,3.45,56.879,3.27Z"/>
        <path d="M87.629,23.669a.993.993,0,0,1-.93-.69c-.36-.87-1.5-3.96-2.43-6.72-.09-.24-.18-.36-.48-.36-.48-.03-1.92-.03-3.45-.03-2.13,0-4.5,0-5.13.03a.456.456,0,0,0-.449.36c-.781,2.4-1.71,5.22-2.16,6.69a.97.97,0,0,1-.96.72.873.873,0,0,1-.93-.81,1.066,1.066,0,0,1,.06-.3C72.45,17.129,75.959,7.5,77.4,3.36a2.2,2.2,0,0,1,2.04-1.59,2.28,2.28,0,0,1,2.13,1.62c1.98,5.52,5.94,16.469,6.96,18.869a1.2,1.2,0,0,1,.09.45A.973.973,0,0,1,87.629,23.669Zm-4.2-9.87C82.5,10.979,80.58,5.82,80.1,4.32c-.151-.45-.361-.66-.6-.66s-.48.24-.661.72c-.63,1.71-3.3,9.419-3.3,9.659,0,.12.089.18.33.18.6,0,2.219.03,3.779.03,1.59,0,3.121-.03,3.57-.03.21,0,.27-.06.27-.15A.876.876,0,0,0,83.429,13.8Z"/>
        <path d="M95.31,5.97a.685.685,0,0,1-.69-.72.677.677,0,0,1,.69-.69h7.259a.705.705,0,1,1,0,1.41Zm-.03,16.619c-.03-.87-.03-1.71-.03-2.52,0-.57,0-1.14.03-1.71a1.991,1.991,0,0,1,1.98-1.95c.51-.03,1.019-.06,1.53-.06,1.439,0,3.419.03,3.48,1.86.029.78.059,1.62.059,2.43,0,2.79,0,3.93-3.45,3.93C97.109,24.569,95.34,24.509,95.28,22.589ZM96.27,1.8a.669.669,0,0,1-.72-.69.663.663,0,0,1,.72-.66h5.58a.637.637,0,0,1,.69.66.645.645,0,0,1-.69.69Zm.06,8.13a.677.677,0,0,1-.69-.69.66.66,0,0,1,.69-.69h5.25a.644.644,0,0,1,.69.69.659.659,0,0,1-.69.69Zm0,3.929a.676.676,0,0,1-.69-.69.66.66,0,0,1,.69-.69h5.25a.644.644,0,0,1,.69.69.659.659,0,0,1-.69.69Zm4.589,6.93c0-3.03,0-3.18-2.129-3.18-2.161,0-2.161.18-2.161,2.88,0,.63.031,1.23.031,1.71.029,1.08,1.02,1.08,2.25,1.08C100.859,23.279,100.919,22.949,100.919,20.789Zm5.31-6.84c-.03.39-.03.78-.03,1.17a10.364,10.364,0,0,0,.51,3.48,20.361,20.361,0,0,0,1.8-7.109.874.874,0,0,0-.99-.99H105.9l-.12.27a.862.862,0,0,1-.81.57c-.36,0-.72-.27-.72-.57a.706.706,0,0,1,.06-.24c.45-.93,2.97-6.15,2.97-6.96,0-.39-.24-.57-.69-.57h-2.61a.562.562,0,0,1-.54-.63.588.588,0,0,1,.6-.63h3.06a1.519,1.519,0,0,1,1.71,1.53c0,.45,0,.48-2.37,6,.69,0,1.32-.03,1.47-.03h.06a1.808,1.808,0,0,1,1.86,2.01,24.271,24.271,0,0,1-2.37,8.819c1.56,2.31,4.59,3.36,9.33,3.36,1.02,0,2.1-.06,3.27-.15h.06a.73.73,0,0,1,.69.75c0,.84-.63.87-3.6.87-5.13,0-8.55-1.05-10.41-3.69-.84,1.32-3.39,4.29-4.23,4.29a.853.853,0,0,1-.87-.75.794.794,0,0,1,.42-.63,13.717,13.717,0,0,0,3.93-4.23,12.112,12.112,0,0,1-.93-4.35c-.81,1.05-1.08,1.35-1.44,1.35a.672.672,0,0,1-.42-1.23,6.591,6.591,0,0,0,1.95-2.52.426.426,0,0,1,.42-.24.686.686,0,0,1,.69.57.381.381,0,0,1-.03.18l-.06.12Zm4.05,5.82a.721.721,0,0,1,0-1.44l1.35.03V8.1a.667.667,0,0,1,.72-.69.659.659,0,0,1,.69.69V18.359h2.16V3.66c-2.01.45-3.75.66-3.78.66a.682.682,0,0,1-.63-.75.571.571,0,0,1,.48-.63,29.763,29.763,0,0,0,7.23-1.83.381.381,0,0,1,.18-.03.815.815,0,0,1,.719.81c0,.39-.089.66-2.759,1.38V9.24l2.73-.03a.721.721,0,1,1,0,1.44h-2.73v7.709l2.85-.03a.72.72,0,0,1,0,1.44Z"/>
        <path d="M128.55,24.3a.7.7,0,0,1-.75-.72.741.741,0,0,1,.75-.75l11.219.03v-6.72l-6.689.03a.684.684,0,0,1-.69-.72.709.709,0,0,1,.69-.75l6.689.03V8.79l-6.54.03a33.517,33.517,0,0,1-3.54,5.339,1.031,1.031,0,0,1-.81.45.8.8,0,0,1-.809-.78.939.939,0,0,1,.24-.569,28.827,28.827,0,0,0,5.669-10.38.818.818,0,0,1,.811-.6.87.87,0,0,1,.929.78,27.075,27.075,0,0,1-1.74,4.32l5.79.03V1.14a.825.825,0,1,1,1.65,0V7.41l9.12-.03a.721.721,0,1,1,0,1.44l-9.12-.03v5.939l7.05-.03a.692.692,0,0,1,.72.72.7.7,0,0,1-.72.75l-7.05-.03v6.72l11.07-.03a.7.7,0,0,1,.719.75.691.691,0,0,1-.719.72Z"/>
        <path d="M166.979,25.619c-2.43,0-4.62-1.44-4.62-3.27,0-1.65,1.77-3.12,5.04-3.12a12.064,12.064,0,0,1,3.39.51c0-.96-.09-1.95-.18-3.03-.09-.93-.18-2.07-.24-3.3a21.826,21.826,0,0,1-4.5.57c-1.41,0-2.55-.09-2.55-1.02a.741.741,0,0,1,.81-.75,1.3,1.3,0,0,1,.33.031,7.4,7.4,0,0,0,1.53.15,22.415,22.415,0,0,0,4.29-.541c-.09-1.559-.15-3.209-.18-4.8a36.367,36.367,0,0,1-4.709.45c-1.741,0-2.25-.18-2.25-.9a.751.751,0,0,1,.839-.75,1.122,1.122,0,0,1,.3.03,10.456,10.456,0,0,0,1.741.15,25.383,25.383,0,0,0,4.049-.42c0-.75-.03-1.5-.03-2.16,0-2.85,0-3.45.93-3.45a.87.87,0,0,1,.9.84V.9c-.09,1.35-.15,2.85-.18,4.38.96-.18,1.98-.39,3.12-.66a.511.511,0,0,1,.21-.03.774.774,0,0,1,.78.78c0,.33-.27.69-.84.81l-3.27.6c0,1.59.03,3.21.09,4.74,1.05-.27,2.22-.6,3.45-1.02a.953.953,0,0,1,.39-.06.758.758,0,0,1,.81.75.958.958,0,0,1-.81.9q-2.115.585-3.78.99c.06,1.26.15,2.46.24,3.51a36.8,36.8,0,0,1,.27,3.69,18.058,18.058,0,0,1,4.26,2.46,1.036,1.036,0,0,1,.42.81.929.929,0,0,1-.84.96.972.972,0,0,1-.63-.27,16.361,16.361,0,0,0-3.39-2.31A5.265,5.265,0,0,1,166.979,25.619Zm.271-5.01c-.96,0-3.42.36-3.42,1.74,0,1.08,1.619,1.77,3.059,1.77a3.733,3.733,0,0,0,3.78-2.85A10.013,10.013,0,0,0,167.25,20.609Z"/>
        <path d="M203.039,24c-6.09,0-9.81-4.02-9.81-8.85a11.757,11.757,0,0,1,3.06-7.529q.36-.36.36-.45c0-.03,0-.06-.06-.06a1.51,1.51,0,0,0-.48.12c-3.839,1.26-8.639,2.49-8.909,2.49a.978.978,0,0,1-1.08-.93.945.945,0,0,1,.87-.87c.659-.15,2.489-.51,3.48-.75,1.5-.39,4.2-.99,7.349-1.89.87-.24,6.39-1.8,8.49-1.8a.962.962,0,0,1,1.02.96c0,.78-.69.87-2.31.96a15.243,15.243,0,0,0-4.68.9,9.935,9.935,0,0,0-5.49,8.549c0,3.75,2.55,7.23,7.92,7.23h.54c.84,0,1.26.45,1.26.93C204.569,23.159,204.509,24,203.039,24Zm2.85-11.249a10.084,10.084,0,0,0-2.94-2.16.556.556,0,0,1-.39-.51.709.709,0,0,1,.75-.66c.6,0,3.87,1.71,3.87,2.82a.769.769,0,0,1-.75.78A.64.64,0,0,1,205.889,12.75Zm2.58-2.19a9.973,9.973,0,0,0-3-2.16.582.582,0,0,1-.42-.54.707.707,0,0,1,.75-.63c.45,0,3.93,1.59,3.93,2.82a.745.745,0,0,1-.72.78A.727.727,0,0,1,208.469,10.56Z"/>
        <path d="M229.68,7.14c0,2.79-3.96,14.069-7.98,14.069-1.56,0-3.9-2.04-3.9-5.58A11.146,11.146,0,0,1,229.29,5.04c5.159,0,9.689,3.3,9.689,8.579,0,7.38-8.189,9.78-9.24,9.78a.911.911,0,0,1-1.019-.84c0-.36.269-.75.9-.87,4.049-.87,7.649-3.66,7.649-8.189,0-4.2-3.72-7.14-8.01-7.14A.838.838,0,0,1,229.68,7.14Zm-10.32,8.369c0,2.04,1.23,3.9,2.43,3.9,2.04,0,5.76-7.2,6.18-12.239a1.022,1.022,0,0,1,.3-.75A9.721,9.721,0,0,0,219.36,15.509Z"/>
        <path d="M255.99,20.489v.3c0,1.98-1.11,2.79-2.58,2.79-1.26,0-4.65-.99-4.65-2.94,0-2.13,3.87-4.68,5.61-5.7,0-.84-.03-1.679-.03-2.49,0-.84.03-1.649.03-2.429a12.208,12.208,0,0,1-2.88.36c-2.04,0-2.25-.45-2.25-.96a.736.736,0,0,1,.81-.72,1.231,1.231,0,0,1,.33.03,6.647,6.647,0,0,0,1.141.12A11.235,11.235,0,0,0,254.4,8.4V7.08c0-1.11-.03-2.01-.06-2.82a.858.858,0,1,1,1.71-.09v.06c-.06.93-.12,2.46-.15,3.66a9.687,9.687,0,0,0,2.28-1.23.756.756,0,0,1,.48-.15.794.794,0,0,1,.78.78,1.011,1.011,0,0,1-.6.87,17.03,17.03,0,0,1-3,1.41c-.03,1.35-.03,2.94-.03,4.619a14.008,14.008,0,0,1,6.39-1.77c1.47,0,6.659.48,6.659,4.68a6.173,6.173,0,0,1-6.359,5.85c-1.5,0-4.38-.72-4.38-1.77a.768.768,0,0,1,.75-.78.847.847,0,0,1,.45.12,7.744,7.744,0,0,0,3.39.9,4.491,4.491,0,0,0,4.439-4.26c0-2.4-2.819-3.27-4.979-3.27a13.449,13.449,0,0,0-6.36,1.83C255.84,17.4,255.9,19.049,255.99,20.489Zm-5.61.03c0,.93,1.98,1.59,2.85,1.59.78,0,1.2-.45,1.2-1.47,0-1.17,0-2.61-.03-4.11C253.95,16.8,250.38,19.139,250.38,20.519Zm18.959-11.1a6.345,6.345,0,0,0-4.11-1.47,4.424,4.424,0,0,0-.629.03h-.12a.769.769,0,0,1-.78-.75c0-.6.42-.78,1.44-.78,2.37,0,5.7,1.14,5.7,2.43a.858.858,0,0,1-.839.84A.949.949,0,0,1,269.339,9.42Z"/>
        <path d="M279.271,6.12a.706.706,0,1,1,0-1.41h9.209a.706.706,0,1,1,0,1.41Zm6.419,18.659c-.63.03-1.379.06-2.129.06s-1.471-.03-2.071-.06a1.948,1.948,0,0,1-2.01-1.98c-.029-.66-.029-1.26-.029-1.86,0-.81,0-1.59.029-2.34a1.965,1.965,0,0,1,1.98-2.01c.69-.03,1.38-.06,2.04-.06.811,0,1.59.03,2.31.06a2.088,2.088,0,0,1,2.16,1.83c.03.69.03,1.44.03,2.19s0,1.47-.03,2.13A2.162,2.162,0,0,1,285.69,24.779Zm-5.219-22.8a.678.678,0,0,1-.691-.69.661.661,0,0,1,.691-.69h6.359a.661.661,0,0,1,.69.69.677.677,0,0,1-.69.69Zm.059,8.1a.676.676,0,1,1,0-1.35h6.36a.654.654,0,0,1,.69.66.661.661,0,0,1-.69.69Zm0,3.9a.662.662,0,1,1,0-1.32h6.36a.661.661,0,1,1,0,1.32Zm.361,6.69c0,.66.029,1.32.029,1.8.03.87.42,1.02,2.73,1.02,2.4,0,2.85-.09,2.88-1.05.03-.45.03-1.11.03-1.77s0-1.32-.03-1.77c-.06-1.08-.69-1.11-2.88-1.11-2.009,0-2.67,0-2.73,1.14C280.92,19.349,280.891,20.009,280.891,20.669ZM297.75,9.93v5.039c.69,0,1.32.03,1.95.06a2.729,2.729,0,0,1,2.79,2.43c.06.87.09,1.89.09,2.91,0,.6-.03,1.17-.03,1.71a2.643,2.643,0,0,1-2.73,2.64c-.81.06-1.8.06-2.76.06-.99,0-1.98,0-2.88-.06a2.549,2.549,0,0,1-2.67-2.61c-.03-.6-.03-1.23-.03-1.89,0-.87,0-1.77.03-2.64a2.584,2.584,0,0,1,2.7-2.55c.63-.03,1.29-.06,1.98-.06V9.93h-5.85a.721.721,0,1,1,0-1.44l5.85.03V3.78a48.345,48.345,0,0,1-5.13.48.667.667,0,0,1-.69-.72.655.655,0,0,1,.63-.72A33.478,33.478,0,0,0,301.8.96a.748.748,0,0,1,.96.72c0,.57-.361,1.02-5.01,1.86V8.52l5.939-.03a.722.722,0,1,1,0,1.44Zm3.149,7.949c-.059-1.62-1.019-1.65-3.869-1.65-3.9,0-3.99,0-3.99,3.54,0,3.45,0,3.66,3.81,3.66,3.569,0,4.14-.06,4.14-2.67C300.99,19.8,300.93,18.689,300.9,17.879Z"/>
      </g>
    </g>
  </g>
</svg>
