<svg xmlns="http://www.w3.org/2000/svg" width="550.141" height="26.039" viewBox="0 0 550.141 26.039">
  <g id="aa9ff597-9a13-48a5-b6f8-8d4972efb014" data-name="レイヤー 2">
    <g id="bb3cba05-4937-4043-ae4d-2356d3034f5e" data-name="レイヤー 1">
      <g>
        <path d="M.9,24.269a.872.872,0,0,1-.9-.84.774.774,0,0,1,.63-.75A13.517,13.517,0,0,0,6.9,18.6a.618.618,0,0,1,.48-.24.914.914,0,0,1,.84.9C8.22,20.459,2.52,24.269.9,24.269ZM1.32,5.4A.7.7,0,0,1,.6,4.65a.715.715,0,0,1,.72-.75l10.5.03V.81A.771.771,0,0,1,12.66.03a.77.77,0,0,1,.84.78l-.031,3.12,10.35-.03a.707.707,0,0,1,.75.75.723.723,0,0,1-.75.75ZM12.029,16.469H9.18c-2.16,0-4.41-.03-4.47-2.61,0-.48-.03-.99-.03-1.47,0-.51.03-1.02.03-1.47a2.714,2.714,0,0,1,3-2.58C8.91,8.31,10.26,8.31,11.7,8.31c1.949,0,4.019,0,5.969.029,1.89.031,2.97,1.11,3.03,2.34.03.39.03.841.03,1.29,0,.63,0,1.29-.03,1.86-.06,1.41-.9,2.61-3.06,2.64h-3.99v3.51l.03,2.34v.09c0,1.65-.809,3.27-3.84,3.27s-3.059-.75-3.059-1.05a.832.832,0,0,1,.81-.84.511.511,0,0,1,.21.03,9.412,9.412,0,0,0,2.159.3c1.471,0,2.07-.63,2.07-2.07Zm7.08-3.84c0-2.04,0-2.85-1.95-2.94-.99-.03-2.19-.06-3.42-.06-1.949,0-4.019.03-5.609.06-1.8,0-1.86,1.17-1.86,2.58,0,2.04.03,2.82,1.83,2.85,1.319.03,2.879.06,4.5.06s3.239-.03,4.65-.06C18.869,15.089,19.109,14.579,19.109,12.629Zm3.84,11.25a17.757,17.757,0,0,0-5.88-3.81.637.637,0,0,1-.42-.63.768.768,0,0,1,.75-.78c.81,0,4.65,1.95,6.63,3.75a1.094,1.094,0,0,1,.39.81.953.953,0,0,1-.87.96A.779.779,0,0,1,22.949,23.879Z"/>
        <path d="M41.52,10.679a34,34,0,0,1-3.15,3.09,3.693,3.693,0,0,1,.6-.06c.75-.03,1.53-.03,2.31-.03.57,0,1.139,0,1.679.03a2.419,2.419,0,0,1,2.46,2.28c.06,1.11.09,2.76.09,4.23,0,.81,0,1.56-.03,2.13A2.593,2.593,0,0,1,42.81,24.9c-.6.03-1.23.06-1.891.06-.629,0-1.289-.03-1.919-.06-1.8-.09-2.76-1.11-2.79-2.52,0-.45-.03-.93-.03-1.44,0-1.65.06-3.48.12-4.74a2.408,2.408,0,0,1,.18-.9c-1.26.93-3.18,2.28-3.69,2.28a.686.686,0,0,1-.69-.72.762.762,0,0,1,.42-.66,29.63,29.63,0,0,0,7.23-5.52l-6.51.06a.685.685,0,0,1-.72-.69.669.669,0,0,1,.72-.69l5.19.03L38.4,5.4l-3.75.03a.676.676,0,1,1,0-1.35l3.75.03V.78a.715.715,0,0,1,.75-.72.733.733,0,0,1,.809.72L39.93,4.11l2.7-.03a.661.661,0,0,1,.691.69.654.654,0,0,1-.691.66l-2.7-.03V9.389h.989A27.8,27.8,0,0,0,45.3,2.28a.7.7,0,0,1,.66-.45.784.784,0,0,1,.78.72,25,25,0,0,1-4.11,6.839l3.781-.03a.7.7,0,0,1,.75.721.664.664,0,0,1-.721.659Zm2.609,7.8c0-3.51-.06-3.54-3.3-3.54-2.04,0-3.12.03-3.18,1.65,0,.45-.06,1.14-.06,1.89Zm-6.539,1.29v2.25c.03,1.44,1.17,1.59,3.3,1.59,1.62,0,3.179-.06,3.239-1.65.031-.51.031-1.32.031-2.19ZM50.369,9.419c0,3.9.03,8.28.03,12.57v3.27a.733.733,0,0,1-.81.72.749.749,0,0,1-.81-.72c0-13.65,0-17.429.06-20.939.03-2.64,1.65-2.82,4.38-2.82.78,0,1.62,0,2.46.03,1.59.06,2.52.93,2.52,2.16a3.54,3.54,0,0,1-.24,1.17c-.51,1.26-1.23,2.46-1.86,3.69a3.287,3.287,0,0,0-.48,1.47,2.617,2.617,0,0,0,.63,1.5c1.2,1.679,2.28,3.059,2.28,5.429,0,3.24-2.07,4.5-4.23,4.5-1.23,0-2.1-.27-2.1-1.02a.748.748,0,0,1,.69-.81c.06,0,.12.03.18.03a5.685,5.685,0,0,0,1.17.15c2.16,0,2.64-1.62,2.64-3a8.022,8.022,0,0,0-2.04-4.62,3.274,3.274,0,0,1-.78-1.98,5.1,5.1,0,0,1,.63-2.159c1.44-2.79,1.74-3.63,1.74-4.14,0-.93-.57-1.02-2.82-1.02-2.4,0-3.21.03-3.21,1.68C50.369,6.06,50.369,7.709,50.369,9.419Z"/>
        <path d="M78.69,7.469c0,2.79-3.96,14.07-7.98,14.07-1.56,0-3.9-2.04-3.9-5.58A11.145,11.145,0,0,1,78.3,5.37c5.159,0,9.689,3.3,9.689,8.579,0,7.38-8.189,9.78-9.239,9.78a.912.912,0,0,1-1.02-.84c0-.36.27-.75.9-.87,4.05-.87,7.649-3.66,7.649-8.19,0-4.2-3.719-7.14-8.009-7.14A.839.839,0,0,1,78.69,7.469Zm-10.32,8.37c0,2.04,1.23,3.9,2.43,3.9,2.04,0,5.76-7.2,6.18-12.239a1.025,1.025,0,0,1,.3-.75A9.72,9.72,0,0,0,68.37,15.839Z"/>
        <path d="M96.63,18.209a.821.821,0,0,1-.839-.72.778.778,0,0,1,.359-.63,22.909,22.909,0,0,0,5.7-6.839,24.382,24.382,0,0,0-1.14-3.45c-.78.809-3.27,3.269-4.02,3.269a.761.761,0,0,1-.78-.69.681.681,0,0,1,.361-.569,21.326,21.326,0,0,0,3.839-3.33,12.887,12.887,0,0,0-2.1-3.12.8.8,0,0,1-.24-.57.73.73,0,0,1,.72-.72c.69,0,1.89,1.65,2.7,3.18a21.514,21.514,0,0,0,2.04-2.88.65.65,0,0,1,.57-.33.816.816,0,0,1,.81.75c0,.51-1.62,2.49-2.79,3.81a28.812,28.812,0,0,1,2.31,11.1c0,4.14-.87,8.67-5.28,8.67-2.19,0-2.43-.54-2.43-1.02a.729.729,0,0,1,.69-.81.661.661,0,0,1,.24.03,6.4,6.4,0,0,0,1.59.24,2.892,2.892,0,0,0,2.91-2.25,15.519,15.519,0,0,0,.81-5.16,25.5,25.5,0,0,0-.39-4.23C101.22,13.619,97.71,18.209,96.63,18.209Zm17.49-3.6a14.959,14.959,0,0,0,7.559,9.24.7.7,0,0,1,.42.66.923.923,0,0,1-.87.93c-1.29,0-6.479-4.11-8.129-9.78-2.07,7.56-8.01,10.02-8.67,10.02a.8.8,0,0,1-.27-1.56,12.737,12.737,0,0,0,7.68-9.51l-6.33.09a.705.705,0,1,1,0-1.41l6.57.03a57.277,57.277,0,0,0,.149-7.11l-5.819.061a.692.692,0,0,1-.72-.72.692.692,0,0,1,.72-.72l5.79.03c0-1.86,0-3.45-.031-4.05V.78A.756.756,0,0,1,112.95,0a.738.738,0,0,1,.779.78V4.86l6.36-.03a.684.684,0,0,1,.69.72.684.684,0,0,1-.69.72l-6.329-.03a66.587,66.587,0,0,1-.18,7.079l1.62-.03a31.074,31.074,0,0,0,2.249-5.279.688.688,0,0,1,.69-.541c.45,0,.96.361.96.781a33.273,33.273,0,0,1-2.459,5.039h4.589a.677.677,0,0,1,.69.69.685.685,0,0,1-.69.72Zm-5.25-2.85a15.519,15.519,0,0,0-2.13-3.239.477.477,0,0,1-.15-.36c0-.33.42-.63.78-.63.6,0,2.91,3.059,2.91,3.869a.8.8,0,0,1-.78.81A.676.676,0,0,1,108.87,11.759Z"/>
        <path d="M130.11,18.3a.852.852,0,0,1-.6-1.5,19.3,19.3,0,0,0,5.04-8.009.724.724,0,0,1,.72-.51.905.905,0,0,1,.96.84c0,.719-2.16,5.639-5.37,8.849A1.053,1.053,0,0,1,130.11,18.3ZM141.36,2.01a.855.855,0,1,1,1.71,0V18.149l.06,3.36v.06c0,1.83-1.11,3.75-4.68,3.75a15.4,15.4,0,0,1-2.85-.33.879.879,0,0,1-.78-.84.866.866,0,0,1,.81-.9.511.511,0,0,1,.21.03,13.679,13.679,0,0,0,2.73.36c1.68,0,2.79-.63,2.79-2.34ZM153,16.589a28.428,28.428,0,0,0-5.61-7.2.629.629,0,0,1-.241-.51.773.773,0,0,1,.81-.719c1.32,0,6.84,6.869,6.84,8.039a.993.993,0,0,1-.96.99A.962.962,0,0,1,153,16.589Z"/>
        <path d="M166.08,10.619h-3.539a.677.677,0,0,1-.691-.69.685.685,0,0,1,.691-.72l3.539.031V2.16a.739.739,0,0,1,.81-.75.73.73,0,0,1,.78.75l-.03,7.08,3.21-.031a.652.652,0,0,1,.66.69.661.661,0,0,1-.66.72h-3.21l-.03,8.13c1.26-.54,2.43-1.11,3.33-1.59a.8.8,0,0,1,.36-.09.692.692,0,0,1,.66.69.742.742,0,0,1-.45.66c-2.07,1.05-8.28,3.9-9.18,3.9a.767.767,0,0,1-.21-1.5c1.2-.36,2.61-.87,3.99-1.44Zm12.93-.72-3.84,1.95c0,3.78-.03,7.65-.03,9.51,0,2.31,2.22,2.31,4.319,2.31,5.97,0,6.72-.72,6.72-3.84a.733.733,0,0,1,.78-.81c.33,0,.9.18.9,1.05,0,4.62-2.819,5.01-7.889,5.01-3.15,0-6.33-.06-6.33-3.51v-8.94c-3.06,1.56-3.06,1.56-3.18,1.56a.7.7,0,0,1-.66-.72.658.658,0,0,1,.39-.63s1.47-.75,3.45-1.77V4.02a.73.73,0,0,1,.78-.75.719.719,0,0,1,.78.69c0,1.62-.03,3.9-.03,6.3l3.84-1.92V1.32a.723.723,0,0,1,.78-.72.716.716,0,0,1,.75.72V7.56c2.429-1.23,3-1.5,3.779-1.5,1.89,0,1.98,1.8,1.98,3.45,0,6.719-.54,8.519-3.09,8.519-1.319,0-1.5-.39-1.5-.87,0-.39.241-.81.6-.81.06,0,.089.03.149.03a2.746,2.746,0,0,0,.78.12c1.051,0,1.531-.96,1.531-6.39,0-1.859-.15-2.519-.871-2.519-.149,0-.45.03-3.359,1.53V19.5a.686.686,0,0,1-.75.66.7.7,0,0,1-.78-.66Z"/>
        <path d="M197.131,17.309c0-1.2.09-2.43.21-3.63.36-3.48,1.139-6.839,1.409-8.669a.828.828,0,0,1,.811-.75.776.776,0,0,1,.81.75v.15c-1.141,5.819-1.681,9.119-1.681,11.969,0,2.13.361,2.82.54,2.82.091,0,.21-.21.36-.51.06-.15,1.14-2.22,1.261-2.43a.657.657,0,0,1,.629-.39.73.73,0,0,1,.721.72.8.8,0,0,1-.091.36c-.75,1.35-2.13,3.93-2.13,5.49v.15c0,.09.031.15.031.24a.873.873,0,0,1-.841.96C197.581,24.539,197.131,19.109,197.131,17.309ZM212.37,23.1c-4.53,0-6.66-1.89-6.66-2.7a.808.808,0,0,1,.84-.78.841.841,0,0,1,.63.27,6.858,6.858,0,0,0,4.74,1.47,17.069,17.069,0,0,0,3.87-.48,1.345,1.345,0,0,1,.33-.03.814.814,0,0,1,.9.81,1.03,1.03,0,0,1-.84.99A16.793,16.793,0,0,1,212.37,23.1Zm2.49-14.4a16.335,16.335,0,0,0-3.51-.389,16.931,16.931,0,0,0-4.17.54.392.392,0,0,1-.18.029.827.827,0,0,1-.78-.839.809.809,0,0,1,.69-.78,19.3,19.3,0,0,1,4.8-.571c3.9,0,4.17.661,4.17,1.2a.811.811,0,0,1-.81.839A.586.586,0,0,1,214.86,8.7Z"/>
        <path d="M230.851,15.809a31.337,31.337,0,0,1-4.35,1.68.741.741,0,0,1-.75-.75.726.726,0,0,1,.51-.72c1.68-.6,3.21-1.17,4.59-1.77l.03-6.33-2.7.03c-.87,4.14-1.38,4.8-2.13,4.8a.625.625,0,0,1-.69-.6,1.037,1.037,0,0,1,.09-.36,22.232,22.232,0,0,0,1.86-8.4.715.715,0,0,1,.75-.72.724.724,0,0,1,.78.72c0,.27-.18,1.65-.42,3.15h2.46l.03-5.76a.782.782,0,0,1,1.56,0l-.031,5.76h2.911a.644.644,0,0,1,.69.689.659.659,0,0,1-.69.69H232.44l-.029,5.64c.96-.45,1.86-.93,2.7-1.41a.408.408,0,0,1,.241-.06.714.714,0,0,1,.659.69c0,.42-.42.78-3.6,2.31l-.031,10.17a.785.785,0,0,1-1.559,0Zm5.429-5.22a.712.712,0,0,1-.75-.69.663.663,0,0,1,.72-.659h6V5.459l-4.77.031a.676.676,0,1,1,0-1.35h4.77L242.22.81a.733.733,0,0,1,.81-.72.749.749,0,0,1,.81.72V4.14h5.46a.654.654,0,0,1,.69.66.661.661,0,0,1-.69.69l-5.49-.031V9.24h7.11a.628.628,0,0,1,.66.659.636.636,0,0,1-.66.69Zm9.36,5.16h-9.36a.676.676,0,1,1,0-1.35l9.33.03v-2.07a.724.724,0,0,1,.78-.72.693.693,0,0,1,.75.69l.03,2.1,3.96-.03a.628.628,0,0,1,.66.66.636.636,0,0,1-.66.69h-3.96l.03,3.75.09,3v.18c0,1.41-.6,3.09-3.81,3.09-2.25,0-2.97-.33-2.97-1.02a.748.748,0,0,1,.75-.78h.15a14.475,14.475,0,0,0,2.28.27c1.23,0,1.98-.45,1.98-1.89Zm-4.17,5.46a10.181,10.181,0,0,0-3.449-2.58.561.561,0,0,1-.36-.48.785.785,0,0,1,.779-.72c.69,0,4.38,2.07,4.38,3.27a.732.732,0,0,1-1.35.51Z"/>
        <path d="M264.331,25.019,264.75,8.79c-.629.75-4.229,4.859-5.309,4.859a.813.813,0,0,1-.81-.84.838.838,0,0,1,.36-.69A32.385,32.385,0,0,0,268.11,1.14a.713.713,0,0,1,.661-.45,1.009,1.009,0,0,1,.989.93c0,.63-2.219,3.66-3.449,5.25l-.27,18.119a.84.84,0,0,1-.9.78.733.733,0,0,1-.81-.72Zm18.719-6.63a.923.923,0,0,1,.96.81v.24c0,5.28-2.94,5.4-6.42,5.4-2.43,0-5.31-.12-5.31-3.15,0-1.29.031-19.139.06-20.069a.8.8,0,0,1,.84-.75.764.764,0,0,1,.84.75c0,.66-.06,5.069-.09,9.569a47.6,47.6,0,0,0,7.53-4.379.808.808,0,0,1,.45-.15,1,1,0,0,1,.93.93,1,1,0,0,1-.51.809,60.11,60.11,0,0,1-8.43,4.32c-.03,3.39-.06,6.6-.06,8.01,0,1.95.27,2.61,3.96,2.61,2.73,0,4.5-.09,4.5-3.99v-.18A.716.716,0,0,1,283.05,18.389Z"/>
        <path d="M296.4,2.19a.914.914,0,0,1,.99.84c0,.15-.03,1.35-.451,6.9-.21,2.76-.449,5.25-.449,7.74,0,.48,0,.93.03,1.41.09,2.52,1.83,3.84,4.259,3.84,2.22,0,5.01-1.08,7.74-3.3a1.169,1.169,0,0,1,.78-.33.912.912,0,0,1,.87.96,1.089,1.089,0,0,1-.42.84,14.751,14.751,0,0,1-8.91,3.54c-3.3,0-5.88-1.74-6-5.55-.03-.45-.03-.87-.03-1.29,0-2.61.3-4.92.419-7.709.091-1.8.27-4.38.27-6.3V3.09A.848.848,0,0,1,296.4,2.19Z"/>
        <path d="M323.1,8.55a7.589,7.589,0,0,1-2.79-.48.885.885,0,0,1-.51-.81.676.676,0,0,1,.69-.75,1.175,1.175,0,0,1,.39.09,7.874,7.874,0,0,0,2.64.42,11.171,11.171,0,0,0,2.43-.27,10.177,10.177,0,0,0,.21-2.01,14.327,14.327,0,0,0-.12-1.71V2.91a.739.739,0,0,1,.81-.75c.75,0,.99.51.99,1.95a10.749,10.749,0,0,1-.21,2.16,11.777,11.777,0,0,0,2.459-1.2.683.683,0,0,1,.421-.12.876.876,0,0,1,.84.81c0,.39-.3,1.08-4.11,2.159a117.044,117.044,0,0,1-5.73,15.63,1.072,1.072,0,0,1-.96.66.8.8,0,0,1-.84-.81,1.684,1.684,0,0,1,.18-.69,95.083,95.083,0,0,0,5.64-14.4A13.7,13.7,0,0,1,323.1,8.55ZM336.39,24.059c-4.229,0-6.78-1.89-6.78-2.91a.919.919,0,0,1,.87-.9.823.823,0,0,1,.63.33c.991,1.2,2.491,1.68,4.62,1.68a22.052,22.052,0,0,0,3.24-.27h.18a.811.811,0,0,1,.87.84C340.02,23.549,339.36,24.059,336.39,24.059Zm3.12-12.51a12.1,12.1,0,0,0-4.14-.75,7.55,7.55,0,0,0-2.669.42.854.854,0,0,1-.27.06.7.7,0,0,1-.69-.719c0-1.171,3-1.261,3.9-1.261a13.222,13.222,0,0,1,4.35.721.8.8,0,0,1,.57.779.752.752,0,0,1-.72.81A1.276,1.276,0,0,1,339.51,11.549Z"/>
        <path d="M353.131,10.319h-.06a.746.746,0,0,1-.84-.719.781.781,0,0,1,.81-.781c1.89-.09,4.32-.15,6.78-.179a30.292,30.292,0,0,0,.36-4.29c0-.75.12-1.35.87-1.35a.922.922,0,0,1,.93.96,29.663,29.663,0,0,1-.42,4.649c1.56,0,3.03,0,4.319.031,2.071.059,3.391,1.229,3.391,3.149,0,2.49-.541,7.2-1.891,9.54a5.257,5.257,0,0,1-4.709,2.76c-1.74,0-4.2-1.02-4.2-1.95a.865.865,0,0,1,.87-.84,1.124,1.124,0,0,1,.63.21,4.607,4.607,0,0,0,2.67.9,3.735,3.735,0,0,0,3.21-1.89c1.17-1.8,1.71-6.09,1.71-8.37a1.874,1.874,0,0,0-2.1-2.069c-.569-.031-1.23-.031-1.919-.031-.72,0-1.47,0-2.28.031-2.46,11.159-9.15,14.819-10.05,14.819a.84.84,0,0,1-.87-.81,1.14,1.14,0,0,1,.72-.96c4.65-2.52,7.35-7.71,8.49-13.02C357.241,10.169,354.9,10.229,353.131,10.319Z"/>
        <path d="M380.462,24.929a.8.8,0,0,1-.87-.75c0-.3.24-.66.78-.87a25.366,25.366,0,0,0,10.979-7.86,18.724,18.724,0,0,0-4.439-2.04.6.6,0,0,1-.451-.6.755.755,0,0,1,.781-.78,17.81,17.81,0,0,1,5.1,2.16c.87-1.17,3.75-5.609,3.75-6.54,0-.449-.3-.659-.81-.659-.69,0-5.04.3-6.57.479-2.339,3.12-6.329,7.65-7.71,7.65a.75.75,0,0,1-.779-.75,1.114,1.114,0,0,1,.6-.9c2.94-1.86,7.349-7.379,8.519-10.109a.936.936,0,0,1,1.83.24c0,.33-.42.96-1.379,2.37.689-.06,5.219-.42,6-.42,1.44,0,2.22.75,2.22,1.829a3.253,3.253,0,0,1-.45,1.53,53.553,53.553,0,0,1-3.84,6.15c1.62,1.11,3.06,2.28,3.06,3a.865.865,0,0,1-.84.87.877.877,0,0,1-.66-.33,14.792,14.792,0,0,0-2.55-2.25C387.511,22.8,380.942,24.929,380.462,24.929Z"/>
        <path d="M428.611,13.439c-1.8-.06-4.89-.06-8.22-.06v.06a12.577,12.577,0,0,1-8.97,11.76,1.768,1.768,0,0,1-.629.12.8.8,0,0,1-.9-.81.938.938,0,0,1,.719-.9,10.826,10.826,0,0,0,8.16-10.23c-3.57,0-7.229,0-9.839.09H408.9a.726.726,0,0,1-.779-.72.766.766,0,0,1,.839-.749c2.431-.061,6.18-.091,9.84-.091,0-1.74-.06-3.9-.06-5.069a40.56,40.56,0,0,1-6.75.69c-.659,0-.96-.39-.96-.75,0-.39.3-.75.93-.75h.69A36.257,36.257,0,0,0,423.9,3.9a1.143,1.143,0,0,1,.51-.12.724.724,0,0,1,.75.75c0,.48,0,.929-4.71,1.98V7.919c0,1.26,0,2.73-.03,3.99,3.48,0,6.69.03,8.22.06a.8.8,0,0,1,.87.75.775.775,0,0,1-.87.72Z"/>
        <path d="M450.691,7.469c0,2.79-3.96,14.07-7.98,14.07-1.56,0-3.9-2.04-3.9-5.58A11.145,11.145,0,0,1,450.3,5.37c5.16,0,9.69,3.3,9.69,8.579,0,7.38-8.19,9.78-9.24,9.78a.912.912,0,0,1-1.02-.84c0-.36.27-.75.9-.87,4.05-.87,7.65-3.66,7.65-8.19,0-4.2-3.72-7.14-8.01-7.14A.839.839,0,0,1,450.691,7.469Zm-10.319,8.37c0,2.04,1.23,3.9,2.429,3.9,2.04,0,5.76-7.2,6.18-12.239a1.025,1.025,0,0,1,.3-.75A9.72,9.72,0,0,0,440.372,15.839Z"/>
        <path d="M472.052,25.319l.42-16.289c-3.24,4.349-4.17,4.409-4.35,4.409a.775.775,0,0,1-.78-.78.836.836,0,0,1,.3-.63A30.05,30.05,0,0,0,475.381,1.02.751.751,0,0,1,476.1.51a.927.927,0,0,1,.96.84,28.766,28.766,0,0,1-3,5.43l-.331,18.539a.8.8,0,0,1-.869.72c-.421,0-.81-.21-.81-.69Zm3.929-.54a.736.736,0,1,1,0-1.47l7.98.03v-7.68l-5.49.03a.709.709,0,1,1,0-1.41l5.49.03V7.919l-6.39.03a.725.725,0,0,1-.779-.72.717.717,0,0,1,.75-.719h14.669a.72.72,0,1,1,0,1.439l-6.63-.03v6.39l5.46-.03a.709.709,0,1,1,0,1.41l-5.46-.03v7.68l7.86-.03a.741.741,0,0,1,.75.75.7.7,0,0,1-.75.72Zm9.99-20.519a13.463,13.463,0,0,0-4.26-2.7.629.629,0,0,1-.39-.57.825.825,0,0,1,.81-.81,15.2,15.2,0,0,1,4.98,2.73.889.889,0,0,1,.33.69.946.946,0,0,1-.87.93A.743.743,0,0,1,485.971,4.26Z"/>
        <path d="M507.392,25.949c-2.431,0-4.621-1.44-4.621-3.27,0-1.65,1.771-3.12,5.041-3.12a12.063,12.063,0,0,1,3.389.51c0-.96-.09-1.95-.18-3.03-.09-.93-.18-2.07-.24-3.3a21.826,21.826,0,0,1-4.5.57c-1.41,0-2.551-.09-2.551-1.02a.741.741,0,0,1,.811-.75,1.353,1.353,0,0,1,.33.03,7.313,7.313,0,0,0,1.529.15,22.4,22.4,0,0,0,4.29-.54c-.09-1.56-.149-3.21-.18-4.8a36.2,36.2,0,0,1-4.71.451c-1.739,0-2.249-.181-2.249-.9a.751.751,0,0,1,.84-.75,1.156,1.156,0,0,1,.3.029,10.338,10.338,0,0,0,1.741.151,25.389,25.389,0,0,0,4.049-.421c0-.749-.03-1.5-.03-2.159,0-2.85,0-3.45.93-3.45a.87.87,0,0,1,.9.84v.06c-.09,1.35-.15,2.85-.18,4.38.96-.18,1.98-.39,3.12-.66a.511.511,0,0,1,.21-.03.774.774,0,0,1,.78.78c0,.33-.27.69-.84.81l-3.27.6c0,1.589.03,3.209.09,4.739,1.05-.27,2.22-.6,3.45-1.02a.968.968,0,0,1,.39-.059.758.758,0,0,1,.81.75.959.959,0,0,1-.81.9q-2.115.585-3.78.99c.06,1.26.15,2.46.24,3.51a36.8,36.8,0,0,1,.27,3.69,18.058,18.058,0,0,1,4.26,2.46,1.036,1.036,0,0,1,.42.81.929.929,0,0,1-.84.96.972.972,0,0,1-.63-.27,16.361,16.361,0,0,0-3.39-2.31A5.263,5.263,0,0,1,507.392,25.949Zm.27-5.01c-.96,0-3.42.36-3.42,1.74,0,1.08,1.619,1.77,3.059,1.77a3.735,3.735,0,0,0,3.781-2.85A10.023,10.023,0,0,0,507.662,20.939Z"/>
        <path d="M537.182,16.319a.944.944,0,0,1,.9.9c0,.18-1.38,4.59-4.11,4.59-1.53,0-5.16-1.89-5.7-10.53-.09-1.32-.12-1.949-.12-2.639,0-.931.06-1.59.87-1.59.84,0,.87.6.87,2.339,0,8.67,3.15,10.53,4.05,10.53.36,0,1.38-.15,2.49-3.03A.836.836,0,0,1,537.182,16.319Zm11.13-.69a9.714,9.714,0,0,0-3.69-6.18.707.707,0,0,1-.33-.63.749.749,0,0,1,.78-.749c1.32,0,5.069,4.559,5.069,7.169a1.08,1.08,0,0,1-1.019,1.14A.806.806,0,0,1,548.312,15.629Z"/>
      </g>
    </g>
  </g>
</svg>
