<svg xmlns="http://www.w3.org/2000/svg" width="8.859" height="30.779" viewBox="0 0 8.859 30.779">
  <g id="ab2c988e-6ebc-4ba9-894c-3ab4affc5da6" data-name="レイヤー 2">
    <g id="ed67a51b-695e-4702-bf76-edcc4ef5ffd9" data-name="レイヤー 1">
      <g>
        <path d="M6.316,4.793a2.056,2.056,0,0,1-1.652.861V3.984a.99.99,0,0,0,.51-.181,1.146,1.146,0,0,0,.34-.938,1.348,1.348,0,0,0-.17-.776.491.491,0,0,0-.4-.232.436.436,0,0,0-.416.247,10.653,10.653,0,0,0-.463,1.74,3.188,3.188,0,0,1-.709,1.494,1.608,1.608,0,0,1-1.2.492,1.941,1.941,0,0,1-1.55-.706,3.32,3.32,0,0,1-.6-2.183A3.284,3.284,0,0,1,.642.718,2.064,2.064,0,0,1,2.262,0V1.693a1.123,1.123,0,0,0-.633.229A1.543,1.543,0,0,0,1.3,3.07a1.766,1.766,0,0,0,.146.783.471.471,0,0,0,.44.29.476.476,0,0,0,.428-.235,9.588,9.588,0,0,0,.5-1.74A3.632,3.632,0,0,1,3.486.639,1.463,1.463,0,0,1,4.635.193a1.991,1.991,0,0,1,1.52.7,2.788,2.788,0,0,1,.636,1.954A3.612,3.612,0,0,1,6.316,4.793Z"/>
        <path d="M4.318,12.592V10.881a1.479,1.479,0,0,0,.645-.24,1.008,1.008,0,0,0,.387-.873,1.151,1.151,0,0,0-.838-1.155,3.517,3.517,0,0,0-1.184-.164A3.229,3.229,0,0,0,2.2,8.613a1.115,1.115,0,0,0-.8,1.125.991.991,0,0,0,.317.832,1.573,1.573,0,0,0,.82.3v1.705A2.784,2.784,0,0,1,1.1,12.023,2.675,2.675,0,0,1,0,9.7,2.721,2.721,0,0,1,.914,7.43,3.694,3.694,0,0,1,3.287,6.7a3.756,3.756,0,0,1,2.561.8,2.8,2.8,0,0,1,.914,2.215,3.34,3.34,0,0,1-.539,1.966A2.512,2.512,0,0,1,4.318,12.592Z"/>
        <path d="M5.068,16.951A1.383,1.383,0,0,0,4.412,15.6,2.551,2.551,0,0,0,3.275,15.4H.223V13.723H6.609v1.593H5.5a3.535,3.535,0,0,1,.873.674,1.835,1.835,0,0,1,.393,1.219c0,.031,0,.058,0,.079s-.005.069-.009.144H5.039c.012-.106.02-.2.023-.282S5.068,17,5.068,16.951Z"/>
        <path d="M5.8,23.736a3.729,3.729,0,0,1-2.4.809A3.7,3.7,0,0,1,1,23.736a2.97,2.97,0,0,1-1-2.455,2.972,2.972,0,0,1,1-2.455,3.7,3.7,0,0,1,2.4-.808,3.728,3.728,0,0,1,2.4.808,2.95,2.95,0,0,1,1.013,2.455A2.949,2.949,0,0,1,5.8,23.736Zm-.4-2.461a1.337,1.337,0,0,0-.518-1.128,2.4,2.4,0,0,0-1.48-.395,2.418,2.418,0,0,0-1.482.395,1.477,1.477,0,0,0,0,2.253,2.425,2.425,0,0,0,1.482.393,2.412,2.412,0,0,0,1.48-.393A1.326,1.326,0,0,0,5.4,21.275Z"/>
        <path d="M8.859,25.775v1.67H.223v-1.67Z"/>
        <path d="M8.859,29.109v1.67H.223v-1.67Z"/>
      </g>
    </g>
  </g>
</svg>
