<svg xmlns="http://www.w3.org/2000/svg" width="322.058" height="248.785" viewBox="0 0 322.058 248.785">
  <g id="a18d61ec-00de-4790-ba3b-a70ca28b3184" data-name="レイヤー 2">
    <g id="b69c763e-0ba0-42c2-84e5-5c3c17ff00a7" data-name="レイヤー 1">
      <g>
        <path d="M308.281,6.913c-.96,0-3.912-.408-3.912-1.464a.618.618,0,0,1,.624-.624.97.97,0,0,1,.407.12,6.342,6.342,0,0,0,3,.72,10.528,10.528,0,0,0,2.856-.432c-.216-.336-1.872-3-1.872-3.624a.58.58,0,0,1,.6-.6.8.8,0,0,1,.768.6A16.674,16.674,0,0,0,312.409,4.9a16.55,16.55,0,0,0,1.8-.72,9.059,9.059,0,0,1,.816-.456,1.012,1.012,0,0,1,.433-.1.624.624,0,0,1,.647.624c0,.576-.695.96-3,1.752.624,1.008,1.3,2.016,1.9,2.928a9.512,9.512,0,0,1,1.777,4.176c0,.577-.264.913-.7.913a1.4,1.4,0,0,1-.816-.312c-.936-.7-3.6-.889-4.9-.889-.792,0-4.488.048-4.488,2.089,0,1.488,2.376,2.616,5.736,2.616.264,0,.5,0,.768-.024.192,0,.912,0,.912.7,0,.384-.312.768-.96.768-2.9,0-7.753-.936-7.753-4.056,0-2.113,2.137-3.241,5.977-3.241a27.786,27.786,0,0,1,3.744.288,1.476,1.476,0,0,0,.312.024c.24,0,.361-.072.361-.24,0-.672-.817-1.968-3.025-5.376A15.679,15.679,0,0,1,308.281,6.913Z"/>
        <path d="M307.249,44.977a22.9,22.9,0,0,0,.24,3.625v.12a.7.7,0,0,1-.72.7c-.744,0-.792-.72-.792-2.712,0-.937.023-2.017.1-3.169a15.066,15.066,0,0,0-2.4,3.457.957.957,0,0,1-.816.552.692.692,0,0,1-.7-.672c0-.337.24-.7,1.1-1.705a45.924,45.924,0,0,0,3.12-5.976l.144-1.632c-.72.336-2.377,1.2-2.977,1.56a1,1,0,0,1-.48.144.6.6,0,0,1-.575-.648.641.641,0,0,1,.383-.6c1.057-.5,2.473-1.152,3.769-1.68l.456-4.8a.631.631,0,0,1,.648-.6.623.623,0,0,1,.672.576v.072c-.144,1.032-.36,2.544-.552,4.3a.816.816,0,0,1,.24-.024.674.674,0,0,1,.7.72,1.914,1.914,0,0,1-.336.984c-.144.24-.5.936-.96,1.848l-.12,1.632c2.3-1.824,4.968-3.408,7.968-3.408,3.145,0,5.305,1.848,5.305,4.032,0,3.888-5.9,6.625-6.769,6.625a.727.727,0,0,1-.768-.672c0-.288.216-.576.7-.744,3.1-1.105,5.4-3.121,5.4-5.185,0-1.68-1.632-2.88-3.936-2.88-3.7,0-7.057,2.832-7.969,3.648Q307.249,43.753,307.249,44.977Z"/>
        <path d="M307.993,69.265l2.232,4.008c2.232,4.057,3,5.905,3,6.577a.746.746,0,0,1-.7.816.8.8,0,0,1-.744-.7c-.408-1.512-1.632-4.32-4.824-10.105-.481.264-3.433,1.92-4.128,1.92a.692.692,0,0,1-.7-.672c0-.264.168-.528.624-.672a23.827,23.827,0,0,0,3.625-1.632c-1.321-2.664-1.777-3.552-1.777-3.984a.63.63,0,0,1,.648-.648.694.694,0,0,1,.625.5,20.923,20.923,0,0,0,1.56,3.552l.48-.264a40.429,40.429,0,0,1,4.728-2.472,10.479,10.479,0,0,1,3.721-.792c2.712,0,4.1,1.608,4.1,3.192,0,2.3-2.352,4.728-5.929,4.728-1.536,0-3.576-.6-3.576-1.416a.713.713,0,0,1,.672-.72.832.832,0,0,1,.48.168,4.609,4.609,0,0,0,2.5.672c2.9,0,4.465-1.968,4.465-3.408,0-1.368-1.488-2.064-2.856-2.064-2.257,0-4.321,1.1-7.9,3.216Zm2.9-4.416a4.593,4.593,0,0,0-1.392-2.184.5.5,0,0,1-.168-.36.6.6,0,0,1,.648-.529c.768,0,2.232,2.065,2.232,2.833a.763.763,0,0,1-.744.744A.6.6,0,0,1,310.9,64.849Z"/>
        <path d="M305.833,98.137a22.856,22.856,0,0,1-2.5.192.606.606,0,0,1-.648-.6.637.637,0,0,1,.624-.648c.792-.024,1.537-.024,2.425-.1l1.56-.168a41.727,41.727,0,0,0,.936-4.392.674.674,0,0,1,.7-.6.65.65,0,0,1,.672.648,27.342,27.342,0,0,1-.912,4.2c1.872-.168,1.9-.168,1.968-.168,1.512,0,2.808.744,2.808,3.433,0,3.888-1.128,7.944-4.656,7.944-.624,0-2.184-.144-2.184-.984a.64.64,0,0,1,.648-.624.664.664,0,0,1,.216.024,4.763,4.763,0,0,0,1.368.216c2.952,0,3.312-4.68,3.312-6.408,0-1.537-.288-2.449-1.728-2.449-.36,0-1.008.048-2.064.168a35.737,35.737,0,0,1-4.776,9.937,1.05,1.05,0,0,1-.865.48.635.635,0,0,1-.695-.6,1.1,1.1,0,0,1,.312-.7,27.989,27.989,0,0,0,4.632-8.953Zm13.969,3.145a9.264,9.264,0,0,0-4.009-4.489.463.463,0,0,1-.264-.432.6.6,0,0,1,.624-.576c1.009,0,4.969,3.6,4.969,5.209a.73.73,0,0,1-.7.768A.667.667,0,0,1,319.8,101.282Z"/>
        <path d="M305.953,125.017c-.7,0-2.233-.024-2.233-.84a.58.58,0,0,1,.6-.6,1.628,1.628,0,0,1,.312.048,5.95,5.95,0,0,0,1.68.216,9.234,9.234,0,0,0,2.257-.288,17.386,17.386,0,0,0,.624-2.856.621.621,0,0,1,.648-.529.587.587,0,0,1,.648.577,16.365,16.365,0,0,1-.6,2.5,8.937,8.937,0,0,0,1.92-.936.542.542,0,0,1,.36-.12.589.589,0,0,1,.6.576c0,.7-1.584,1.248-3.264,1.752a51.666,51.666,0,0,1-4.561,8.5.887.887,0,0,1-.743.456.6.6,0,0,1-.624-.6.837.837,0,0,1,.168-.481,40.646,40.646,0,0,0,4.416-7.632A10.082,10.082,0,0,1,305.953,125.017Zm7.584,8.713c0-.936-.1-2.209-.1-3.169,0-1.728.144-2.112.72-2.112a.579.579,0,0,1,.6.6v.144a7.564,7.564,0,0,0-.119,1.344v.408c0,.912.047,1.993.071,2.833,0,.288.048.624.048.936,1.777.72,3.529,2.016,3.529,2.808a.7.7,0,0,1-.672.72.741.741,0,0,1-.576-.312,8.118,8.118,0,0,0-2.329-1.9l-.047.312a3.888,3.888,0,0,1-3.985,2.712c-2.016,0-3.7-1.224-3.7-2.64,0-1.368,1.68-2.5,4.1-2.5a9.745,9.745,0,0,1,2.448.36Zm-2.5,1.3c-1.2,0-2.88.456-2.88,1.416,0,.792,1.2,1.512,2.5,1.512a2.672,2.672,0,0,0,2.76-1.92,5.353,5.353,0,0,0,.1-.552A7.488,7.488,0,0,0,311.041,135.026Zm7.681-7.681A6.86,6.86,0,0,0,315,126.289c-.168,0-.335.024-.5.024h-.049a.505.505,0,0,1-.552-.5c0-.432.216-.7,1.345-.7,1.08,0,4.368.5,4.368,1.632a.662.662,0,0,1-.624.672A.626.626,0,0,1,318.722,127.345Z"/>
        <path d="M316.562,158.305c0-1.632.047-3.168.072-4.32v-.048c0-.984-.576-1.56-1.873-1.608-1.511-.072-3.144-.1-4.7-.1-1.584,0-3.12.024-4.513.1a1.567,1.567,0,0,0-1.728,1.728c0,.96.024,2.136.024,3.432,0,4.152-.263,9.457-2.472,12.433a.832.832,0,0,1-.672.36.675.675,0,0,1-.72-.624.816.816,0,0,1,.192-.456c2.088-2.64,2.424-7.2,2.424-11.089,0-1.632-.048-3.12-.071-4.344v-.048a2.469,2.469,0,0,1,2.711-2.52c1.609-.048,3.289-.048,4.969-.048s3.384,0,4.992.048c1.728.048,2.737.984,2.737,2.376v.048c-.024,1.464-.12,3.432-.12,5.448,0,7.249,1.32,9.409,1.872,9.409.528,0,.984-1.368,1.08-2.688a.591.591,0,0,1,.6-.6.708.708,0,0,1,.7.744c0,.336-.5,3.984-2.3,3.984C316.682,169.922,316.562,160.969,316.562,158.305Zm-7.033,5.689c-3.624,0-3.841-.216-3.841-3.289,0-2.28.361-2.64,3.841-2.64v-2.3c-1.584.144-3.049.216-3.744.216a.569.569,0,0,1-.553-.6.5.5,0,0,1,.5-.528h.288a32.433,32.433,0,0,0,7.632-.888.358.358,0,0,1,.168-.024.626.626,0,0,1,.576.624c0,.528-.383.672-3.624,1.08v2.424c3.409,0,3.865.1,3.865,2.808,0,2.5-.025,3.121-3.865,3.121v3.072c1.128-.168,2.16-.336,2.976-.48a10.522,10.522,0,0,0-.816-.888.38.38,0,0,1-.12-.288.582.582,0,0,1,.6-.5c.7,0,2.929,2.736,2.929,3.528a.677.677,0,0,1-.673.7.593.593,0,0,1-.551-.408,9.516,9.516,0,0,0-.7-1.272c-3.6.84-9.361,1.536-9.576,1.536a.615.615,0,0,1-.673-.6.592.592,0,0,1,.6-.6c1.321-.1,3.073-.288,4.753-.528Zm.024-4.945c-2.448,0-2.712.072-2.712,1.8,0,2.065.024,2.161,2.712,2.161Zm1.176,3.937c2.64,0,2.736-.12,2.736-1.8,0-2.136,0-2.136-2.736-2.136Z"/>
        <path d="M305.809,188.857a22.607,22.607,0,0,1-2.5.192.6.6,0,0,1-.647-.6.637.637,0,0,1,.624-.648c.792-.024,1.536-.024,2.423-.1l1.561-.168a41.727,41.727,0,0,0,.936-4.392.674.674,0,0,1,.7-.6.65.65,0,0,1,.672.648,27.342,27.342,0,0,1-.912,4.2c1.872-.168,1.9-.168,1.968-.168,2.256,0,2.784,1.656,2.784,3.481,0,5.832-2.232,7.9-4.656,7.9-.936,0-2.184-.24-2.184-.96a.651.651,0,0,1,.672-.648.664.664,0,0,1,.216.024,4.763,4.763,0,0,0,1.368.216c2.952,0,3.312-4.68,3.312-6.408,0-1.536-.288-2.449-1.728-2.449-.36,0-1.008.048-2.064.168a35.735,35.735,0,0,1-4.8,9.937,1.04,1.04,0,0,1-.84.48.635.635,0,0,1-.7-.6,1.034,1.034,0,0,1,.312-.7,27.973,27.973,0,0,0,4.633-8.952ZM319.778,192a9.27,9.27,0,0,0-4.008-4.489.487.487,0,0,1-.289-.432.612.612,0,0,1,.624-.576c1.153,0,4.993,3.7,4.993,5.209a.73.73,0,0,1-.7.768A.667.667,0,0,1,319.778,192Zm-.72-5.881a7.887,7.887,0,0,0-2.4-1.632.443.443,0,0,1-.312-.408.565.565,0,0,1,.6-.5c.48,0,3.1,1.224,3.1,2.136a.628.628,0,0,1-.576.624A.536.536,0,0,1,319.058,186.121Zm1.92-1.824a8.115,8.115,0,0,0-2.448-1.584.466.466,0,0,1-.336-.432.574.574,0,0,1,.624-.5c.432,0,3.144,1.128,3.144,2.088a.611.611,0,0,1-.576.624A.507.507,0,0,1,320.978,184.3Z"/>
        <path d="M251.248,11.208a.554.554,0,0,1-.552-.6.548.548,0,0,1,.552-.577h1.392c1.393,0,2.857.024,2.857,1.969,0,1.416-.048,3-.048,4.752,1.632,2.064,3.72,2.856,8.088,2.856,2.448,0,5.041-.264,6.937-.408h.072a.636.636,0,0,1,.672.648.711.711,0,0,1-.72.672,61.325,61.325,0,0,1-6.144.312c-6.289,0-7.777-1.2-9.529-3.144a10.855,10.855,0,0,1-3.817,3.024.729.729,0,0,1-.7-.7.644.644,0,0,1,.36-.552,12.423,12.423,0,0,0,3.529-2.784c.024-1.224.048-2.352.048-3.36v-1.08c0-.768-.409-1.008-1.1-1.033Zm3.6-6a9.746,9.746,0,0,0-2.857-2.472.4.4,0,0,1-.24-.36.7.7,0,0,1,.7-.624c.648,0,3.025,1.992,3.408,2.472a.713.713,0,0,1,.169.456.807.807,0,0,1-.72.792A.52.52,0,0,1,254.849,5.208Zm9.576,8.041v4.056a.578.578,0,0,1-1.152,0V13.249h-3.84c0,1.3,0,2.664.024,4.008a.548.548,0,0,1-.576.552.582.582,0,0,1-.6-.552c-.024-1.44-.024-2.88-.024-4.3,0-1.9,0-3.745.024-5.425.024-1.2.816-2.016,2.328-2.04h3.024a7.718,7.718,0,0,0-2.208-1.32.355.355,0,0,1-.216-.312.567.567,0,0,1,.528-.528,7.1,7.1,0,0,1,2.112,1.008c.456-.216,2.977-1.536,2.977-1.944,0-.144-.192-.216-.529-.216-1.752.024-5.472.048-7.608.12h-.024a.454.454,0,0,1-.456-.5.513.513,0,0,1,.48-.552c2.616-.048,5.544-.048,7.969-.048,1.056,0,1.656.456,1.656,1.008a1.329,1.329,0,0,1-.648,1.032,23.281,23.281,0,0,1-3.073,1.8.628.628,0,0,1,.073.288.429.429,0,0,1-.049.168h2.665a2.065,2.065,0,0,1,2.232,2.064v.7c0,.96-.024,2.208-.024,3.145,0,.408,0,.768.024,1.008,0,.048.072,2.568.072,2.9a2.131,2.131,0,0,1-2.328,2.28c-.624,0-1.465-.072-1.465-.7a.537.537,0,0,1,.457-.576c.047,0,.072.024.12.024a3.938,3.938,0,0,0,.888.12c.6,0,1.08-.264,1.08-1.2v-.1c0-.072.024-.84.024-1.92ZM263.3,6.408c-.912,0-1.776,0-2.544.024a1.2,1.2,0,0,0-1.3,1.272c0,.36-.024.744-.024,1.152H263.3Zm-.024,3.384h-3.84v2.521h3.84Zm5.065-.936c0-1.44,0-2.376-1.344-2.424-.865-.024-1.728-.024-2.569-.024V8.856Zm-3.913.936v2.521h3.937c0-.816-.024-1.7-.024-2.521Z"/>
        <path d="M258.521,36.168c.048,0,.168-.192.264-.336a3.39,3.39,0,0,1,2.808-1.56c3.312,0,4.032,4.585,4.032,7.081a12.936,12.936,0,0,1-5.784,10.777,1.151,1.151,0,0,1-.624.216.654.654,0,0,1-.7-.624.905.905,0,0,1,.5-.744,11.66,11.66,0,0,0,5.232-9.817c0-1.992-.528-5.785-2.784-5.785-1.3,0-3.5,1.128-3.5,5.785,0,.432.024.912.048,1.44v.1c0,.6-.36.864-.744.864-.648,0-.744-.48-.744-1.632a23.537,23.537,0,0,1,.552-4.753c.288-1.272.72-2.9.912-4.416a.624.624,0,0,1,.648-.576.635.635,0,0,1,.672.648,16.535,16.535,0,0,1-.7,2.928,1.592,1.592,0,0,0-.1.384Z"/>
        <path d="M253.792,75.049a16.219,16.219,0,0,1-2.736,1.128.625.625,0,0,1-.624-.648.572.572,0,0,1,.408-.552q1.584-.612,2.952-1.224l-.023-4.825-2.593.025a.548.548,0,0,1-.576-.552.56.56,0,0,1,.576-.6h2.593V63.312a.624.624,0,0,1,1.248,0V67.8h2.016a.577.577,0,0,1,0,1.153l-2.016-.025v4.225c.695-.36,1.368-.72,2.016-1.128a.323.323,0,0,1,.192-.048.6.6,0,0,1,.552.6c0,.336-.288.6-2.76,1.872v2.76c0,.384.024,2.616.047,3.481v.168c0,1.224-.456,2.328-2.424,2.328-1.176,0-1.9-.168-1.9-.768a.566.566,0,0,1,.528-.6h.12a5.565,5.565,0,0,0,1.152.144c.768,0,1.225-.336,1.248-1.416Zm9.073-6.937c-.144.937-.312,1.873-.5,2.785h4.489c1.1,0,1.872.528,1.872,1.56,0,1.152-1.177,3.888-2.713,5.928a14.209,14.209,0,0,0,4.729,3.337.561.561,0,0,1,.36.528.742.742,0,0,1-.72.744c-.552,0-2.88-1.224-5.088-3.7-2.785,3.217-5.545,4.033-5.737,4.033a.625.625,0,0,1-.648-.624.594.594,0,0,1,.408-.552,13.485,13.485,0,0,0,5.208-3.793,14.5,14.5,0,0,1-2.712-5.256c-1.056,3.792-2.616,7.153-4.752,9.337a.732.732,0,0,1-.5.216.625.625,0,0,1-.672-.576.67.67,0,0,1,.216-.432c3.144-3.145,4.848-8.569,5.52-13.538h-3.072a.527.527,0,0,1-.552-.552.555.555,0,0,1,.552-.6h3.192a33.75,33.75,0,0,0,.216-3.7.591.591,0,0,1,.648-.6c.36,0,.72.216.72.552,0,.84-.168,2.544-.312,3.744h7.249a.578.578,0,0,1,0,1.152Zm-.312,3.817a13.35,13.35,0,0,0,2.664,5.544A10.915,10.915,0,0,0,267.4,72.6c0-.384-.24-.672-.961-.672Z"/>
        <path d="M255.232,110.858a11.76,11.76,0,0,1-1.248-5.569c0-2.04.336-4.08.5-6.049.119-1.416.263-2.208.312-3.264a.627.627,0,0,1,.648-.648.645.645,0,0,1,.672.624c0,.672-.216,2.5-.36,3.456a42.493,42.493,0,0,0-.576,5.617c0,.144,0,2.544.432,2.544.095,0,.192-.12.288-.36l.984-2.256a.613.613,0,0,1,.528-.408.558.558,0,0,1,.552.552.433.433,0,0,1-.048.24,13.67,13.67,0,0,0-1.368,4.536c0,.12.024.36.024.576a.71.71,0,0,1-1.345.409Zm11.426-11.57c.84-.168,1.584-.36,2.184-.528a.664.664,0,0,1,.216-.024.64.64,0,0,1,.648.624c0,.553-.336.673-3.048,1.153,0,.84.024,1.632.071,2.856.024.312.024.6.024.888,0,4.3-1.368,7.393-4.752,9.793a.97.97,0,0,1-.576.192.626.626,0,0,1-.672-.576.667.667,0,0,1,.384-.576c3.217-2.089,4.3-5.161,4.3-9.193,0-.384,0-.744-.073-3.144a23.977,23.977,0,0,1-3.36.312c-1.752,0-2.04-.24-2.04-.768a.64.64,0,0,1,.7-.625.866.866,0,0,1,.24.025,8.208,8.208,0,0,0,1.416.12,19.454,19.454,0,0,0,3.024-.288V98.472c0-1.536-.144-2.04-.191-2.952v-.072a.66.66,0,0,1,.695-.72c.721,0,.841.456.841,1.872,0,.48-.024,1.008-.024,1.632Z"/>
        <path d="M270.618,128.3a.679.679,0,0,1-.576-.312,10.245,10.245,0,0,0-3.457-2.832.61.61,0,0,1-.359-.576.6.6,0,0,1,.624-.6c.768,0,4.488,2.448,4.488,3.624A.717.717,0,0,1,270.618,128.3Z"/>
        <path d="M204.008,16.657c-.336,0-.7,0-1.055-.024a1.887,1.887,0,0,1-1.729-2.016c-.024-1.488-.024-3.432-.024-5.352,0-1.9,0-3.769.024-5.113A1.825,1.825,0,0,1,203,2.256c.384-.024.745-.048,1.081-.048.359,0,.7.024,1.007.048a1.827,1.827,0,0,1,1.8,1.8c.048,1.392.072,3.145.072,4.921,0,2.04-.024,4.1-.072,5.64C206.865,16.321,205.929,16.657,204.008,16.657Zm-1.68-7.008c0,1.8.025,3.6.048,4.752.024,1.1.552,1.152,1.681,1.152,1.151,0,1.655-.12,1.68-1.176.048-1.272.072-3,.072-4.728Zm3.481-1.056c0-1.584-.024-3.1-.072-4.2-.049-1.056-.7-1.1-1.656-1.1-1.128,0-1.657.1-1.7,1.128-.023.984-.023,2.545-.023,4.177Zm7.224,2.64c-.216.672-.48,1.344-.744,1.968,1.32-.024,3.6-.024,4.657-.048h.048c.96,0,1.464.528,1.464,1.2,0,.936-1.272,2.544-2.544,3.673a10.911,10.911,0,0,0,4.944,1.488.557.557,0,0,1,.528.576.626.626,0,0,1-.7.624,11.645,11.645,0,0,1-5.641-1.992,13.247,13.247,0,0,1-5.712,2.3.613.613,0,0,1-.6-.624.491.491,0,0,1,.432-.5,11.878,11.878,0,0,0,4.968-1.9,10.389,10.389,0,0,1-2.568-3.288c-2.064,3.889-4.656,5.737-5.16,5.737a.589.589,0,0,1-.6-.576.7.7,0,0,1,.312-.528,15.468,15.468,0,0,0,5.736-8.113l-3.456.024a.485.485,0,0,1-.48-.5.472.472,0,0,1,.48-.5h3.744a21.1,21.1,0,0,0,.456-2.136l-3.24.024a.491.491,0,0,1-.5-.5.5.5,0,0,1,.5-.529H216.2a18.924,18.924,0,0,0,1.584-3.384.451.451,0,0,1,.48-.288c.336,0,.72.216.72.528A14.23,14.23,0,0,1,217.377,7.1h2.209a.5.5,0,0,1,.5.529.491.491,0,0,1-.5.5l-5.809-.024a20.228,20.228,0,0,1-.456,2.16l7.153-.024a.478.478,0,0,1,.5.5.491.491,0,0,1-.5.5ZM208.857,2.04c.36.024.768.024,1.152.024a44.144,44.144,0,0,0,8.905-.864c.048,0,.072-.024.12-.024a.7.7,0,0,1,.672.648c0,.216-.144.408-.528.5a53.54,53.54,0,0,1-9.937.864c-.336,0-.984,0-.984-.6a.535.535,0,0,1,.576-.552Zm1.7,4.537a5.888,5.888,0,0,0-1.176-1.753.5.5,0,0,1-.12-.288.564.564,0,0,1,.6-.48c.672,0,1.728,1.872,1.728,2.209a.65.65,0,0,1-.6.624A.475.475,0,0,1,210.561,6.577Zm6.577,7.872c0-.264-.241-.36-.7-.36-.839,0-2.808.024-4.08.024a9.576,9.576,0,0,0,2.617,3.24A6.675,6.675,0,0,0,217.138,14.449Zm-2.857-7.8a.451.451,0,0,1-.456-.384,6.031,6.031,0,0,0-.864-1.993.289.289,0,0,1-.048-.192.513.513,0,0,1,.552-.432c.7,0,1.416,1.92,1.416,2.425A.605.605,0,0,1,214.281,6.649Z"/>
        <path d="M205.833,38.377a22.856,22.856,0,0,1-2.5.192.606.606,0,0,1-.648-.6.637.637,0,0,1,.624-.648c.792-.024,1.537-.024,2.425-.1l1.56-.168a41.727,41.727,0,0,0,.936-4.392.674.674,0,0,1,.7-.6.65.65,0,0,1,.672.649,27.342,27.342,0,0,1-.912,4.2c1.872-.168,1.9-.168,1.968-.168,1.512,0,2.808.744,2.808,3.432,0,3.888-1.128,7.945-4.656,7.945-.624,0-2.184-.144-2.184-.984a.64.64,0,0,1,.648-.624.664.664,0,0,1,.216.024,4.763,4.763,0,0,0,1.368.216c2.952,0,3.312-4.681,3.312-6.409,0-1.536-.288-2.448-1.728-2.448-.36,0-1.008.048-2.064.168A35.75,35.75,0,0,1,203.6,48a1.05,1.05,0,0,1-.865.48.635.635,0,0,1-.695-.6,1.1,1.1,0,0,1,.312-.7,28,28,0,0,0,4.632-8.953ZM219.8,41.521a9.262,9.262,0,0,0-4.009-4.488.463.463,0,0,1-.264-.432.6.6,0,0,1,.624-.576c1.009,0,4.969,3.6,4.969,5.208a.73.73,0,0,1-.7.768A.667.667,0,0,1,219.8,41.521Z"/>
        <path d="M209.673,69.529a.755.755,0,0,1,.72.72c0,.144-1.1,3.673-3.288,3.673-1.224,0-4.128-1.512-4.561-8.425-.072-1.056-.1-1.56-.1-2.112,0-.744.049-1.272.7-1.272.671,0,.695.48.695,1.872,0,6.936,2.521,8.425,3.241,8.425.288,0,1.1-.12,1.992-2.425A.669.669,0,0,1,209.673,69.529Zm8.905-.552a7.768,7.768,0,0,0-2.953-4.944.57.57,0,0,1-.264-.5.6.6,0,0,1,.624-.6c1.057,0,4.057,3.648,4.057,5.736a.865.865,0,0,1-.816.912A.646.646,0,0,1,218.578,68.977Z"/>
        <path d="M214.089,105.05c-1.056.048-2.184.048-3.288.048s-2.184,0-3.168-.048c-1.9-.072-3-1.08-3.049-2.736-.047-1.584-.071-4.009-.071-6.433,0-2.16.024-4.344.071-5.976.048-1.512,1.009-2.617,2.953-2.689.912-.023,2.256-.048,3.6-.048,1.08,0,2.16.025,3,.048a2.712,2.712,0,0,1,2.905,2.689c.048,1.488.072,3.768.072,6.024,0,2.5-.024,4.969-.072,6.265A2.8,2.8,0,0,1,214.089,105.05Zm1.7-10.2c0-1.824-.023-3.5-.071-4.584-.049-1.152-.432-1.848-1.945-1.9-.624-.024-1.752-.048-2.88-.048s-2.3.024-3.048.048c-1.32.048-1.944.624-1.993,1.9-.047,1.1-.071,2.784-.071,4.584Zm-10.008,1.2c0,2.3,0,4.585.048,5.857.048,1.344.672,1.9,2.232,1.944.552.024,1.632.024,2.712.024,1.1,0,2.232,0,2.856-.024,1.513-.048,2.04-.72,2.089-2.064.048-1.32.071-3.529.071-5.737Z"/>
        <path d="M205.544,136.2a.5.5,0,0,1-.5-.552.516.516,0,0,1,.5-.552l6.6.048v-3.96l-5.232.024a.475.475,0,0,1-.264-.048c-2.256,3.6-4.753,5.112-5.257,5.112a.688.688,0,0,1-.7-.648.5.5,0,0,1,.288-.456,15.169,15.169,0,0,0,6.217-7.825H201.68a.57.57,0,0,1-.6-.552.53.53,0,0,1,.576-.528l8.4.024v-2.448l-6,.024a.528.528,0,1,1,0-1.056l6,.024v-2.3l-7.392.024a.509.509,0,0,1-.529-.552.5.5,0,0,1,.529-.528h5.184a.306.306,0,0,1-.1-.144,7.6,7.6,0,0,0-1.728-2.209.385.385,0,0,1-.12-.264.66.66,0,0,1,.672-.552c.7,0,2.3,2.065,2.3,2.641a.66.66,0,0,1-.288.528h3.792a16.829,16.829,0,0,0,1.512-2.881.687.687,0,0,1,1.32.168,11.026,11.026,0,0,1-1.56,2.713h5.137a.5.5,0,0,1,.5.528.5.5,0,0,1-.5.552l-7.441-.024v2.3l6.049-.024a.529.529,0,0,1,0,1.056l-6.049-.024v2.448l8.5-.024a.5.5,0,0,1,.528.528.509.509,0,0,1-.528.552H208.5a19.529,19.529,0,0,1-1.272,2.809H218.53a.53.53,0,0,1,0,1.056l-5.113-.024v3.96l6.721-.048a.517.517,0,0,1,.5.552.5.5,0,0,1-.5.552Z"/>
        <path d="M207.369,148.465a.731.731,0,0,1,.792.672c0,.12-.024,1.08-.36,5.52-.168,2.208-.36,4.2-.36,6.193,0,.384,0,.744.024,1.128a3.067,3.067,0,0,0,3.408,3.072,10.387,10.387,0,0,0,6.192-2.64.939.939,0,0,1,.624-.264.729.729,0,0,1,.7.768.872.872,0,0,1-.336.672,11.806,11.806,0,0,1-7.129,2.832c-2.64,0-4.7-1.392-4.8-4.44-.024-.36-.024-.7-.024-1.032,0-2.088.24-3.937.336-6.169.072-1.44.216-3.5.216-5.04v-.552A.678.678,0,0,1,207.369,148.465Z"/>
        <path d="M205.809,185.258a22.856,22.856,0,0,1-2.5.192.6.6,0,0,1-.647-.6.637.637,0,0,1,.624-.648c.792-.025,1.536-.025,2.423-.1l1.561-.167a41.806,41.806,0,0,0,.936-4.393.674.674,0,0,1,.7-.6.65.65,0,0,1,.672.648,27.342,27.342,0,0,1-.912,4.2c1.872-.168,1.9-.168,1.968-.168,2.256,0,2.784,1.657,2.784,3.481,0,5.832-2.232,7.9-4.656,7.9-.936,0-2.184-.24-2.184-.96a.651.651,0,0,1,.672-.648.664.664,0,0,1,.216.024,4.763,4.763,0,0,0,1.368.216c2.952,0,3.312-4.68,3.312-6.408,0-1.536-.288-2.448-1.728-2.448-.36,0-1.008.048-2.064.168a35.742,35.742,0,0,1-4.8,9.936,1.038,1.038,0,0,1-.84.481.636.636,0,0,1-.7-.6,1.034,1.034,0,0,1,.312-.7,27.973,27.973,0,0,0,4.633-8.952Zm13.969,3.144a9.27,9.27,0,0,0-4.008-4.489.486.486,0,0,1-.289-.432.612.612,0,0,1,.624-.576c1.153,0,4.993,3.7,4.993,5.209a.73.73,0,0,1-.7.768A.667.667,0,0,1,219.778,188.4Zm-.72-5.881a7.887,7.887,0,0,0-2.4-1.632.443.443,0,0,1-.312-.408.565.565,0,0,1,.6-.5c.48,0,3.1,1.224,3.1,2.136a.628.628,0,0,1-.576.624A.536.536,0,0,1,219.058,182.521Zm1.92-1.824a8.115,8.115,0,0,0-2.448-1.584.466.466,0,0,1-.336-.432.574.574,0,0,1,.624-.5c.432,0,3.144,1.128,3.144,2.088a.611.611,0,0,1-.576.624A.507.507,0,0,1,220.978,180.7Z"/>
        <path d="M151.584,9.193a.641.641,0,0,1-.648-.624.582.582,0,0,1,.216-.456A22.019,22.019,0,0,0,156.361.84a.61.61,0,0,1,.576-.384.758.758,0,0,1,.768.648,11.374,11.374,0,0,1-.984,1.944h9.288a2.149,2.149,0,0,1,2.329,2.16c.024.7.024,1.464.024,2.257,0,4.968-.72,8.016-3.817,8.016a6.566,6.566,0,0,1-1.7-.264.711.711,0,0,1-.5-.7.575.575,0,0,1,.552-.624,1.2,1.2,0,0,1,.288.048,4.416,4.416,0,0,0,1.368.264c2.017,0,2.569-2.328,2.569-6.576,0-.792-.024-1.56-.049-2.185a1.23,1.23,0,0,0-1.368-1.3h-2.184c-2.448,0-6.048,0-7.488.024C155.521,4.944,152.616,9.193,151.584,9.193Zm3.217-1.1a.5.5,0,0,1-.5-.528.528.528,0,0,1,.553-.552c.792-.025,1.776-.025,2.76-.025s1.992,0,2.808.025c2.232.048,2.28,1.032,2.28,3,0,2.448-.12,3.072-3.072,3.072h-2.544c-1.512,0-1.993.048-2.017,1.08-.047,1.032-.047,2.136-.047,3.168a1.818,1.818,0,0,0,1.872,1.825c1.272.12,2.808.192,4.392.192a49.337,49.337,0,0,0,5.593-.288c1.872-.24,2.328-1.753,2.328-3.6a.648.648,0,0,1,.672-.7.709.709,0,0,1,.768.672c0,3.577-1.656,4.633-3.528,4.849a52.284,52.284,0,0,1-5.545.288c-1.8,0-3.528-.1-4.968-.216a2.862,2.862,0,0,1-2.856-2.857c0-2.64.024-3.144.047-3.672.072-1.008.577-1.8,2.161-1.824h4.176c1.224,0,1.368-.264,1.368-1.92,0-1.992-.024-2.016-2.76-2.016-1.3,0-2.808,0-3.912.024Z"/>
        <path d="M158.449,42.457c-.864,1.752-2.568,5.137-5.3,5.137a1.872,1.872,0,0,1-1.993-1.92c0-2.353,3.144-3.937,6.529-4.3l.264-.5c.912-1.92,2.472-4.848,3.144-6.36a.636.636,0,0,0,.072-.24c0-.048-.024-.1-.12-.1a.357.357,0,0,0-.144.024,18.387,18.387,0,0,1-3.768.624c-.5,0-.72-.288-.72-.6a.658.658,0,0,1,.648-.648,31.091,31.091,0,0,0,4.032-.6,2.14,2.14,0,0,1,.528-.072c.672,0,1.056.36,1.056.913a1.9,1.9,0,0,1-.288.912c-1.176,2.016-2.376,4.488-3.384,6.576a16.86,16.86,0,0,1,6.745,1.3,6.31,6.31,0,0,0,.215-1.608,3.849,3.849,0,0,0-.5-1.992.465.465,0,0,1-.073-.24.641.641,0,0,1,.673-.552c.792,0,1.2,1.56,1.2,2.76a7.7,7.7,0,0,1-.337,2.136,19.241,19.241,0,0,1,3.793,2.328.946.946,0,0,1,.384.7.723.723,0,0,1-.7.744.808.808,0,0,1-.552-.24,15.371,15.371,0,0,0-3.385-2.329c-1.511,3.409-4.7,5.5-5.352,5.5a.531.531,0,0,1-.576-.528.793.793,0,0,1,.456-.672,10.951,10.951,0,0,0,4.32-4.825,16.786,16.786,0,0,0-6.144-1.32ZM152.4,45.53a.851.851,0,0,0,.936.816c1.8,0,3.289-2.809,3.769-3.793C154.608,42.937,152.4,44.185,152.4,45.53Z"/>
        <path d="M151.32,71.689a.534.534,0,0,1-.552-.576.579.579,0,0,1,.576-.624c.672,0,1.56,0,2.352.024,1.441.024,2.016.672,2.016,1.968,0,1.416-.047,3-.047,4.729,2.064,2.616,4.92,2.808,7.992,2.808,2.377,0,4.921-.264,6.841-.408h.072a.636.636,0,0,1,.672.648.711.711,0,0,1-.72.672,60.682,60.682,0,0,1-6.1.312c-5.712,0-7.464-.96-9.384-3.072-1.513,1.56-3.553,3.024-4.009,3.024a.729.729,0,0,1-.7-.7.6.6,0,0,1,.36-.552,15.181,15.181,0,0,0,3.721-2.808c.023-1.224.047-2.352.047-3.361V72.721c0-.768-.336-1.008-1.031-1.032Zm3.6-5.952a9.569,9.569,0,0,0-2.9-2.425.451.451,0,0,1-.264-.407.69.69,0,0,1,.7-.649c.673,0,3.673,2.065,3.673,2.953A.807.807,0,0,1,155.4,66,.585.585,0,0,1,154.92,65.737Zm4.177-2.376h-.024a.542.542,0,0,1-.552-.553.548.548,0,0,1,.552-.576c.936-.024,2.28-.072,3.168-.072,1.2,0,1.945.648,1.945,1.489v.336A14.3,14.3,0,0,0,170.4,75.842a.691.691,0,0,1,.36.6.718.718,0,0,1-.72.7.846.846,0,0,1-.5-.168,15.422,15.422,0,0,1-5.905-9.289,14.713,14.713,0,0,1-5.9,9.529.714.714,0,0,1-.36.12.755.755,0,0,1-.744-.672.52.52,0,0,1,.264-.456c4.584-3.193,5.808-7.537,6.192-12.073,0-.1-.024-.192-.024-.264-.048-.36-.312-.576-.96-.576H162Z"/>
        <path d="M155.785,105.817a2.07,2.07,0,0,1-.385.024,2.615,2.615,0,0,1-2.5-2.76,2.835,2.835,0,0,1,2.689-2.928,3.663,3.663,0,0,1,1.176.216l.192-2.76a8.141,8.141,0,0,1-1.392.143c-1.609,0-2.065-.432-2.065-.888a.615.615,0,0,1,.577-.648.837.837,0,0,1,.312.072,3.772,3.772,0,0,0,1.392.24,5.565,5.565,0,0,0,1.224-.12h.048v-.12c.024-.456.048-.84.048-1.224,0-.5-.024-.96-.072-1.488V93.5a.688.688,0,0,1,.7-.768c.744,0,.744.672.744,1.008,0,.648-.072,1.632-.144,2.3a8.043,8.043,0,0,0,1.7-.84.714.714,0,0,1,.36-.12.635.635,0,0,1,.624.624c0,.528-.72.936-2.808,1.584a40.209,40.209,0,0,0-.216,4.153,2.373,2.373,0,0,1,.264,1.128,2.926,2.926,0,0,1-.168.984c-.264.744-.816,1.776-1.2,2.688a4.823,4.823,0,0,0-.432,1.728c0,2.089,2.64,2.209,3.84,2.209,4.681,0,5.208-2.185,5.208-3.625a9.326,9.326,0,0,0-.263-2.04.393.393,0,0,1-.025-.168.672.672,0,0,1,.7-.648.734.734,0,0,1,.72.672,11.648,11.648,0,0,1,.263,2.256c0,4.585-4.944,4.825-6.576,4.825-2.808,0-5.089-.864-5.089-3.289a5.846,5.846,0,0,1,.5-2.256Zm1.224-3.192a1.373,1.373,0,0,0-1.392-1.392,1.754,1.754,0,0,0-1.609,1.9c0,.336.241,1.632,1.417,1.632C156.457,104.761,157.009,103.393,157.009,102.625Zm12.145-2.136a.652.652,0,0,1-.576-.336,4.645,4.645,0,0,0-3.361-2.112.6.6,0,0,1-.648-.577.652.652,0,0,1,.721-.648c1.7,0,4.608,1.849,4.608,2.953A.743.743,0,0,1,169.154,100.489Z"/>
        <path d="M168.506,127.681a2.773,2.773,0,1,1,2.784-2.76A2.766,2.766,0,0,1,168.506,127.681Zm0-4.681a1.947,1.947,0,0,0-1.944,1.921,1.944,1.944,0,0,0,3.888,0A1.947,1.947,0,0,0,168.506,123Z"/>
        <path d="M114.881,3.5a2.677,2.677,0,0,1,2.905,2.569c.072,1.464.1,3.672.1,5.88,0,2.184-.024,4.32-.072,5.664-.048,1.849-1.152,2.785-3.289,2.857-.912.024-2.016.048-3.144.048-1.56,0-3.144-.024-4.272-.072-2.185-.072-3.265-.912-3.313-2.784-.023-1.345-.047-3.121-.047-4.993,0-2.28.024-4.656.047-6.457.024-1.56,1.009-2.64,3.073-2.712.48-.024,1.176-.048,1.944-.048.312-1.008.672-2.448.768-3A.616.616,0,0,1,110.249,0c.36,0,.744.192.744.6a19.672,19.672,0,0,1-.888,2.856C111.857,3.456,113.777,3.456,114.881,3.5Zm1.7,6.313H104.944c0,1.3.025,2.688.025,3.984h11.616Zm0-1.1c0-3.049,0-4.033-2.16-4.129-.96-.048-2.4-.048-3.768-.048-1.392,0-2.688,0-3.432.048-1.632.072-2.161.816-2.208,1.945-.024.6-.048,1.344-.048,2.184Zm-11.616,6.192c0,.96.024,1.824.048,2.448.071,2.065,1.3,2.065,5.952,2.065,4.177,0,5.521,0,5.569-2.089.024-.648.024-1.488.024-2.424Z"/>
        <path d="M105.208,38.4a.505.505,0,0,1-.383-.505.593.593,0,0,1,.6-.6,11.414,11.414,0,0,1,2.856,1.249,12,12,0,0,0,.888-2.713c0-.432-.288-.624-.96-.624-.624,0-1.776.024-2.76.048a23.088,23.088,0,0,1-3.649,5.305.787.787,0,0,1-.6.288.589.589,0,0,1-.6-.576.6.6,0,0,1,.192-.456,19.73,19.73,0,0,0,4.633-7.609.637.637,0,0,1,.6-.5.682.682,0,0,1,.672.648,8.658,8.658,0,0,1-.744,1.872l2.52-.048h.168c1.248,0,1.872.6,1.872,1.464a2.5,2.5,0,0,1-.12.7c-2.64,8.545-8.449,10.8-8.857,10.8a.64.64,0,0,1-.648-.624.666.666,0,0,1,.456-.576,11.913,11.913,0,0,0,4.585-3.552,17.1,17.1,0,0,0-2.64-1.176.476.476,0,0,1-.361-.456.619.619,0,0,1,.624-.624,13.846,13.846,0,0,1,3.073,1.344,17.916,17.916,0,0,0,1.176-1.92A13.065,13.065,0,0,0,105.208,38.4Zm-3.984,13.273a.591.591,0,0,1,.312-.48,6.208,6.208,0,0,0,2.424-3.265.586.586,0,0,1,.6-.48.618.618,0,0,1,.647.6c0,1.248-2.255,4.249-3.264,4.249A.693.693,0,0,1,101.224,51.674ZM115.1,38.281a11.347,11.347,0,0,0,5.736,6.816.588.588,0,0,1,.36.576.67.67,0,0,1-.672.672c-.936,0-4.8-2.928-6.073-6.768a9.659,9.659,0,0,1-6.672,7.08.66.66,0,0,1-.648-.648.593.593,0,0,1,.456-.552,8.717,8.717,0,0,0,5.952-7.153l-2.76.024h-.024a.477.477,0,0,1-.5-.5.548.548,0,0,1,.552-.576h2.905a14.46,14.46,0,0,0,.071-1.752c0-1.032-.048-2.064-.071-3.12a.611.611,0,0,1,.624-.648.625.625,0,0,1,.671.6c0,.84.024,1.608.024,2.3a22.8,22.8,0,0,1-.12,2.616h4.849a.5.5,0,0,1,.528.528.509.509,0,0,1-.528.552Zm-6.265,13.9a.56.56,0,0,1-.6-.576,10.1,10.1,0,0,0-.672-3.577.3.3,0,0,1-.024-.144.5.5,0,0,1,.552-.432c1.224,0,1.464,3.913,1.464,4.033A.686.686,0,0,1,108.833,52.178Zm5.232-.072a.585.585,0,0,1-.6-.5,9.926,9.926,0,0,0-1.584-3.5.463.463,0,0,1-.072-.24.557.557,0,0,1,.576-.48c1.032,0,2.4,3.5,2.4,4.033A.7.7,0,0,1,114.065,52.106Zm4.3-16.346a5.649,5.649,0,0,0-2.065-1.92.277.277,0,0,1-.144-.264.647.647,0,0,1,.625-.576c.5,0,2.616,1.512,2.616,2.3a.683.683,0,0,1-.648.672A.461.461,0,0,1,118.362,35.76ZM119.9,51.914a.632.632,0,0,1-.576-.36,11.614,11.614,0,0,0-2.952-3.313.329.329,0,0,1-.144-.264.634.634,0,0,1,.648-.552c.815,0,3.768,2.784,3.768,3.769A.742.742,0,0,1,119.9,51.914Z"/>
        <path d="M111.761,65.809c0,2.232-3.168,11.257-6.385,11.257-1.248,0-3.12-1.633-3.12-4.465a8.919,8.919,0,0,1,9.193-8.473c4.129,0,7.753,2.641,7.753,6.865,0,5.905-6.553,7.825-7.393,7.825a.729.729,0,0,1-.816-.672c0-.288.216-.6.72-.7,3.241-.7,6.12-2.929,6.12-6.553,0-3.36-2.976-5.712-6.408-5.712A.67.67,0,0,1,111.761,65.809Zm-8.257,6.7c0,1.632.985,3.12,1.945,3.12,1.632,0,4.608-5.76,4.944-9.792a.821.821,0,0,1,.24-.6A7.778,7.778,0,0,0,103.5,72.505Z"/>
        <path d="M115.841,95.112c1.945,0,3.049.888,3.1,2.449.024.7.048,1.44.048,2.208,0,4.416-.384,10.273-5.953,10.273a10.388,10.388,0,0,1-2.712-.384.654.654,0,0,1-.48-.648.63.63,0,0,1,.624-.672.9.9,0,0,1,.24.024,8.154,8.154,0,0,0,2.28.36c2.208,0,4.681-1.008,4.681-8.617,0-.84-.048-1.632-.072-2.328-.049-.936-.673-1.44-1.9-1.465h-4.8c-.672,6.169-2.688,11.449-8.737,14.018a.959.959,0,0,1-.36.072.722.722,0,0,1-.72-.72.621.621,0,0,1,.432-.6c5.737-2.377,7.489-7.3,8.041-12.77-2.784,0-5.64.049-6.985.049a.56.56,0,0,1-.576-.6.584.584,0,0,1,.6-.624c1.248,0,4.177-.024,7.057-.024.1-1.44.144-2.928.168-4.392a.642.642,0,0,1,.7-.648.63.63,0,0,1,.672.624c-.024,1.512-.072,2.976-.192,4.416Z"/>
        <path d="M108.305,126.144a9.872,9.872,0,0,1-1.536.144c-1.225,0-2.305-.36-2.305-1.056a.582.582,0,0,1,.624-.576,1.016,1.016,0,0,1,.553.192,2.506,2.506,0,0,0,1.32.288,11.613,11.613,0,0,0,2.016-.24,10.639,10.639,0,0,0,.408-2.5.642.642,0,0,1,.7-.552.611.611,0,0,1,.672.6,7.642,7.642,0,0,1-.456,2.112,11.944,11.944,0,0,0,2.184-.84.8.8,0,0,1,.384-.12.589.589,0,0,1,.6.576c0,.744-1.464,1.176-3.576,1.656a24.751,24.751,0,0,1-1.7,3.529,4.656,4.656,0,0,1,1.824-.408,2.831,2.831,0,0,1,2.856,2.64c1.153-.6,2.377-1.152,3.457-1.632.6-.264,1.344-.552,2.04-.936a1.187,1.187,0,0,1,.576-.168.7.7,0,0,1,.72.672.8.8,0,0,1-.5.7c-.7.312-1.176.456-2.448.936-1.248.48-2.569,1.08-3.721,1.656.024.576.048,1.3.048,1.968,0,1.224,0,1.992-.768,1.992a.572.572,0,0,1-.552-.648v-.072c.024-.552.048-1.248.048-1.872v-.7c-1.608.936-3.768,2.28-3.768,3.96,0,.48.384,2.256,3.528,2.256a11.791,11.791,0,0,0,3.408-.528,1.331,1.331,0,0,1,.408-.072.666.666,0,0,1,.721.648c0,.336-.217.673-.768.817a13.624,13.624,0,0,1-3.433.432c-4.032,0-5.136-2.089-5.136-3.409,0-2.52,3.192-4.392,4.968-5.376-.192-1.608-.96-2.232-1.92-2.232a4.754,4.754,0,0,0-3.048,1.56c-.792,1.08-1.128,1.44-1.56,1.44a.567.567,0,0,1-.6-.528.864.864,0,0,1,.312-.6,15.794,15.794,0,0,0,3.7-5.737Z"/>
        <path d="M60.129,9.841V20.57a.576.576,0,1,1-1.152,0V17.689A56.588,56.588,0,0,1,51.152,19.9a.579.579,0,0,1-.6-.6.608.608,0,0,1,.528-.6c.816-.144,1.776-.336,2.736-.577V9.841l-2.736.024a.529.529,0,0,1-.552-.552.542.542,0,0,1,.552-.552H70.426a.529.529,0,0,1,.552.552.542.542,0,0,1-.552.552Zm4.9-2.688c-1.344.024-2.568.048-3.792.048-1.464,0-2.88-.024-4.416-.048C54.44,7.129,54.369,6,54.369,4.1c0-.528,0-1.056.024-1.488.024-1.152.671-1.92,2.352-1.968C57.993.624,59.6.6,61.281.6c1.368,0,2.737.024,3.961.048C67.377.7,67.4,2.112,67.4,3.6c0,.552,0,1.152-.025,1.584C67.33,6.432,66.609,7.129,65.025,7.153ZM58.977,9.841H54.969v1.8h4.008Zm0,2.712H54.969v1.752h4.008Zm0,2.688H54.969v2.592c1.536-.408,3.024-.864,4.008-1.176Zm7.2-11.809c0-1.1,0-1.776-1.321-1.8-1.151-.024-2.688-.048-4.152-.048s-2.856.024-3.768.048c-.937.024-1.32.5-1.344,1.152,0,.192-.024.408-.024.648Zm-10.609.912c0,1.3.048,1.849,1.392,1.872,1.032.024,2.352.024,3.744.024s2.832,0,4.081-.024c1.007-.023,1.343-.5,1.367-1.128,0-.216.025-.48.025-.744Zm5.784,16.514a.614.614,0,0,1-.6-.624.523.523,0,0,1,.384-.528,10.567,10.567,0,0,0,3.456-2.065,9.841,9.841,0,0,1-2.424-3.768.626.626,0,0,1,.6-.6.411.411,0,0,1,.384.264,10.5,10.5,0,0,0,2.208,3.336A7.474,7.474,0,0,0,67.33,13.3a.606.606,0,0,0-.672-.624h-.817c-1.2,0-2.52.024-4.1.048a.466.466,0,0,1-.456-.5.5.5,0,0,1,.48-.552c1.2-.024,2.064-.024,3-.024.673,0,1.368,0,2.233.024,1.1.024,1.608.648,1.608,1.44,0,1.608-2.137,4.176-2.424,4.489A11.1,11.1,0,0,0,70.4,19.562a.6.6,0,0,1,.48.576.67.67,0,0,1-.672.672,10.559,10.559,0,0,1-4.825-2.425A9.589,9.589,0,0,1,61.353,20.858Z"/>
        <path d="M61.593,39.144a15.534,15.534,0,0,0,9.145,11.065.629.629,0,0,1,.432.624.824.824,0,0,1-.792.84c-1.224,0-7.729-4.1-9.505-10.9-2.112,8.4-9.289,11.161-9.721,11.161a.727.727,0,0,1-.72-.744.622.622,0,0,1,.408-.576,14.336,14.336,0,0,0,9.049-11.473l-8.425.048a.612.612,0,1,1,0-1.224h8.593a24.8,24.8,0,0,0,.1-2.808c0-.936,0-1.968-.024-2.568v-.024a.658.658,0,0,1,.72-.624.674.674,0,0,1,.744.672c0,2.136-.168,4.944-.216,5.352h8.569a.612.612,0,1,1,0,1.224Z"/>
        <path d="M54.8,63.456c1.464,0,3,0,3,1.584a14.684,14.684,0,0,1-1.152,3.36,2.606,2.606,0,0,0-.337,1.128,2.814,2.814,0,0,0,.577,1.392,5.659,5.659,0,0,1,1.1,3.313c0,2.5-1.536,3.384-2.976,3.384-1.033,0-1.369-.336-1.369-.744a.521.521,0,0,1,.48-.576,1.065,1.065,0,0,0,.121.024,2.229,2.229,0,0,0,.647.1c.816,0,1.849-.528,1.849-2.184a5.663,5.663,0,0,0-1.1-3.193,2.608,2.608,0,0,1-.528-1.464,3.643,3.643,0,0,1,.336-1.392,12.268,12.268,0,0,0,.984-3c0-.432-.265-.7-1.32-.7-.432,0-.937.024-1.2.024-.721.024-1.009.408-1.009,1.08-.048,3.984-.024,11.545-.048,17.281a.611.611,0,0,1-.624.648.635.635,0,0,1-.672-.648c0-4.44.048-13.033.1-17.473C51.7,63.48,52.928,63.456,54.8,63.456Zm6.336,9.625c0,.312-.024,5.784-.024,7.56a30.766,30.766,0,0,0,3.5-1.416.54.54,0,0,1,.24-.072.559.559,0,0,1,.528.576.55.55,0,0,1-.336.5,47.939,47.939,0,0,1-8.064,2.88.535.535,0,0,1-.576-.552.649.649,0,0,1,.528-.624c.792-.192,1.848-.528,2.976-.888,0-4.152,0-12.361.072-15.505a2.207,2.207,0,0,1,2.328-2.04c.7-.024,1.44-.048,2.208-.048s1.561.024,2.281.048a2.046,2.046,0,0,1,2.208,1.872c.072,1.3.1,2.592.1,3.84,0,.6,0,1.224-.024,1.8a2.212,2.212,0,0,1-2.329,2.065c-.456.023-1.1.048-1.8.048a15.3,15.3,0,0,0,1.128,3.408,23.4,23.4,0,0,0,3.456-2.376.576.576,0,0,1,.36-.144.678.678,0,0,1,.648.648.662.662,0,0,1-.288.528,22.808,22.808,0,0,1-3.72,2.232,10.668,10.668,0,0,0,4.752,4.44.646.646,0,0,1,.408.576.714.714,0,0,1-.72.672c-.888,0-5.832-3.144-7.1-9.984C62.961,73.129,62.025,73.1,61.137,73.081Zm6.769-5.329-.073-1.872c-.071-1.32-1.1-1.344-3.191-1.344-.7,0-1.392.024-1.993.048-1.032.048-1.464.624-1.488,1.3-.024.576-.024,1.224-.024,1.872Zm-6.769,1.08v3.192c.864.024,1.872.048,2.832.048s1.872-.024,2.472-.048a1.382,1.382,0,0,0,1.417-1.3c.024-.576.048-1.2.048-1.9Z"/>
        <path d="M53.312,105.361c0-.96.072-1.944.168-2.9.289-2.784.913-5.472,1.128-6.936a.663.663,0,0,1,.648-.6.621.621,0,0,1,.649.6v.12a52.507,52.507,0,0,0-1.344,9.576c0,1.7.288,2.257.432,2.257.071,0,.168-.168.288-.408.048-.12.912-1.777,1.008-1.945a.526.526,0,0,1,.5-.312.584.584,0,0,1,.577.576.639.639,0,0,1-.072.288c-.6,1.08-1.7,3.145-1.7,4.393v.12c0,.072.024.12.024.192a.7.7,0,0,1-.673.768C53.672,111.146,53.312,106.8,53.312,105.361Zm12.193,4.633c-3.624,0-5.328-1.512-5.328-2.16a.647.647,0,0,1,.672-.625.674.674,0,0,1,.5.217,5.487,5.487,0,0,0,3.793,1.176,13.655,13.655,0,0,0,3.1-.384,1.076,1.076,0,0,1,.264-.024.651.651,0,0,1,.72.648.824.824,0,0,1-.672.792A13.443,13.443,0,0,1,65.505,109.994ZM67.5,98.473a13.077,13.077,0,0,0-2.809-.312,13.545,13.545,0,0,0-3.336.432.3.3,0,0,1-.144.024.662.662,0,0,1-.624-.672.649.649,0,0,1,.552-.624,15.45,15.45,0,0,1,3.841-.456c3.12,0,3.336.528,3.336.96a.65.65,0,0,1-.648.672A.469.469,0,0,1,67.5,98.473Z"/>
        <path d="M54.081,131.521a9.778,9.778,0,0,0-3.313-1.656.431.431,0,0,1-.312-.432.682.682,0,0,1,.672-.648,9.168,9.168,0,0,1,3.673,1.584.725.725,0,0,1-.337,1.3A.517.517,0,0,1,54.081,131.521Zm-1.969,10.825a.687.687,0,0,1-.672-.672.652.652,0,0,1,.144-.408,23.662,23.662,0,0,0,3.648-6.361.54.54,0,0,1,.529-.336.626.626,0,0,1,.672.6,25.993,25.993,0,0,1-3.649,6.793A.9.9,0,0,1,52.112,142.346Zm3.12-16.01a10.079,10.079,0,0,0-2.976-2.256.429.429,0,0,1-.264-.408.635.635,0,0,1,.648-.576c.408,0,3.721,1.752,3.721,2.712a.744.744,0,0,1-.673.769A.614.614,0,0,1,55.232,126.336Zm9.457,4.249v3.84c.769,0,1.537,0,2.208.024,1.393.048,2.377.816,2.425,1.968.024.6.048,1.249.048,1.9s-.024,1.3-.048,1.921c-.048,1.224-.816,2.04-2.4,2.136-.816.048-1.823.072-2.832.072-.984,0-1.992-.024-2.784-.072-1.632-.1-2.448-.912-2.5-2.088-.024-.48-.024-.984-.024-1.488,0-.793.024-1.585.048-2.281a2.217,2.217,0,0,1,2.4-2.064c.672-.024,1.416-.024,2.184-.024v-3.84H57.849a.588.588,0,1,1,0-1.176h5.568v-3.817c-2.616.336-4.464.408-4.68.408a.6.6,0,0,1-.1-1.2,35.076,35.076,0,0,0,9.529-1.392,1.021,1.021,0,0,1,.264-.048.62.62,0,0,1,.6.648.6.6,0,0,1-.456.576,28.715,28.715,0,0,1-3.889.816v4.009H70.45a.589.589,0,1,1,0,1.176Zm3.361,8.089c0-.624-.024-1.273-.049-1.9-.047-.768-.456-1.248-1.487-1.272-.648-.024-1.513-.048-2.4-.048-.863,0-1.752.024-2.448.048-1.1.048-1.56.6-1.584,1.248-.024.432-.024.888-.024,1.345,0,.624,0,1.272.024,1.848.048,1.3.768,1.368,4.008,1.368,3.144,0,3.889-.024,3.937-1.392C68.026,139.538,68.05,139.106,68.05,138.674Z"/>
        <path d="M69.274,171.17v.072c0,1.344-.6,2.688-3.24,2.688a12.09,12.09,0,0,1-2.089-.216.661.661,0,0,1-.576-.648.586.586,0,0,1,.6-.624h.12a12.194,12.194,0,0,0,2.016.24c1.272,0,1.849-.48,1.849-1.7,0-1.2-.024-2.833-.024-4.609H61.449l.024,6.817a.6.6,0,0,1-.648.624.609.609,0,0,1-.648-.624v-6.817H54.033a15.357,15.357,0,0,1-2.185,7.249.811.811,0,0,1-.7.384.692.692,0,0,1-.72-.624.714.714,0,0,1,.12-.36c2.016-2.88,2.4-6.937,2.4-10.753,0-1.8-.1-3.552-.12-5.089v-.048c0-1.752,1.056-2.64,3.023-2.688,1.873-.048,3.769-.1,5.689-.1,1.584,0,3.216.024,4.9.1,1.585.048,2.689.912,2.713,2.4.072,3.457.048,9.049.1,11.713Zm-9.073-10.2h-6c0,.456.024.912.024,1.392,0,.96-.024,1.92-.1,2.9H60.2Zm0-5.473c-1.416,0-2.832.048-4.248.072a1.6,1.6,0,0,0-1.8,1.752c0,.769.024,1.633.049,2.545h6Zm7.705,4.369c0-.96-.024-1.824-.048-2.545a1.552,1.552,0,0,0-1.729-1.752q-2.34-.072-4.68-.072v4.369Zm-6.457,1.1v4.3H67.93c0-1.44,0-2.928-.024-4.3Z"/>
        <path d="M57.369,185.424a.731.731,0,0,1,.792.672c0,.12-.024,1.081-.36,5.521-.168,2.208-.36,4.2-.36,6.192,0,.384,0,.744.024,1.129a3.067,3.067,0,0,0,3.408,3.072,10.387,10.387,0,0,0,6.192-2.64.936.936,0,0,1,.624-.265.73.73,0,0,1,.7.769.872.872,0,0,1-.336.672,11.806,11.806,0,0,1-7.129,2.832c-2.64,0-4.7-1.392-4.8-4.44-.024-.36-.024-.7-.024-1.033,0-2.088.24-3.936.336-6.168.072-1.44.216-3.5.216-5.041v-.552A.678.678,0,0,1,57.369,185.424Z"/>
        <path d="M55.449,220.753a6.06,6.06,0,0,1-2.233-.384.708.708,0,0,1-.407-.648.542.542,0,0,1,.551-.6.94.94,0,0,1,.312.073,6.31,6.31,0,0,0,2.113.336,8.877,8.877,0,0,0,1.944-.217A8.134,8.134,0,0,0,57.9,217.7a11.462,11.462,0,0,0-.1-1.368v-.1a.591.591,0,0,1,.648-.6c.6,0,.792.408.792,1.56a8.6,8.6,0,0,1-.168,1.728,9.389,9.389,0,0,0,1.968-.96.551.551,0,0,1,.336-.1.7.7,0,0,1,.672.649c0,.312-.24.864-3.288,1.728a93.69,93.69,0,0,1-4.585,12.5.858.858,0,0,1-.768.528.636.636,0,0,1-.672-.648,1.347,1.347,0,0,1,.144-.552,76.2,76.2,0,0,0,4.513-11.521A10.886,10.886,0,0,1,55.449,220.753Zm10.633,12.409c-3.385,0-5.425-1.512-5.425-2.329a.733.733,0,0,1,.7-.719.657.657,0,0,1,.5.263,4.434,4.434,0,0,0,3.7,1.345,17.642,17.642,0,0,0,2.592-.216h.144a.649.649,0,0,1,.7.672C68.986,232.754,68.458,233.162,66.082,233.162Zm2.5-10.009a9.683,9.683,0,0,0-3.312-.6,6.053,6.053,0,0,0-2.137.336.7.7,0,0,1-.216.048.563.563,0,0,1-.552-.576c0-.936,2.4-1.008,3.12-1.008a10.582,10.582,0,0,1,3.481.576.642.642,0,0,1,.456.624.6.6,0,0,1-.576.648A1.021,1.021,0,0,1,68.578,223.153Z"/>
        <path d="M70.618,248.785a.679.679,0,0,1-.576-.312,10.245,10.245,0,0,0-3.457-2.832.61.61,0,0,1-.359-.576.6.6,0,0,1,.624-.6c.768,0,4.488,2.449,4.488,3.625A.717.717,0,0,1,70.618,248.785Z"/>
        <path d="M.744,16.921A.72.72,0,0,1,0,16.249a.778.778,0,0,1,.216-.5,13.3,13.3,0,0,0,2.952-5.4.633.633,0,0,1,.648-.5.671.671,0,0,1,.7.648c0,.864-1.825,4.728-3.1,6.1A.911.911,0,0,1,.744,16.921ZM8.449,6.6c-.12,3.769-.216,8.233-.24,10.994,0,1.536,1.176,1.824,2.736,1.824,3.841,0,4.272-1.033,4.272-3.337a.631.631,0,0,1,.649-.7c.168,0,.768.048.768.888,0,3.673-1.992,4.321-5.449,4.321-1.992,0-4.3-.144-4.3-2.833,0-2.76.12-7.368.192-11.136a.632.632,0,0,1,.7-.6.6.6,0,0,1,.672.553Zm4.392-1.9A15.052,15.052,0,0,0,8.065,2.352a.568.568,0,0,1-.432-.5.654.654,0,0,1,.7-.624A18.206,18.206,0,0,1,13.706,3.6.721.721,0,0,1,13.3,4.9.755.755,0,0,1,12.841,4.7Zm7.153,10.081A16.272,16.272,0,0,0,15.6,10.393a.549.549,0,0,1-.265-.456.666.666,0,0,1,.7-.576c.768,0,5.3,3.888,5.3,4.968a.834.834,0,0,1-.768.816A.709.709,0,0,1,19.994,14.785Z"/>
        <path d="M3.672,40.008H.84a.542.542,0,0,1-.552-.552A.548.548,0,0,1,.84,38.88l2.832.024V33.24a.591.591,0,0,1,.648-.6.584.584,0,0,1,.624.6L4.92,38.9l2.569-.024a.521.521,0,0,1,.528.552.528.528,0,0,1-.528.576H4.92l-.024,6.5c1.009-.432,1.945-.888,2.665-1.272a.639.639,0,0,1,.288-.072.554.554,0,0,1,.528.552.594.594,0,0,1-.36.528c-1.656.84-6.625,3.12-7.345,3.12a.614.614,0,0,1-.168-1.2c.96-.288,2.088-.7,3.192-1.152Zm10.346-.576-3.073,1.56c0,3.025-.024,6.121-.024,7.609,0,1.848,1.776,1.848,3.456,1.848,4.777,0,5.377-.576,5.377-3.072a.586.586,0,0,1,.624-.648c.264,0,.72.144.72.84,0,3.7-2.256,4.008-6.312,4.008-2.521,0-5.065-.048-5.065-2.808V41.616a15.989,15.989,0,0,1-2.544,1.249.559.559,0,0,1-.528-.577.527.527,0,0,1,.312-.5s1.176-.6,2.76-1.416v-5.64a.584.584,0,0,1,.624-.6.575.575,0,0,1,.624.552c0,1.3-.024,3.12-.024,5.04l3.073-1.536V32.568a.579.579,0,0,1,.624-.576.573.573,0,0,1,.6.576V37.56c1.944-.984,2.4-1.2,3.024-1.2,1.512,0,1.584,1.44,1.584,2.76,0,5.377-.432,6.817-2.473,6.817-1.055,0-1.2-.312-1.2-.7,0-.312.192-.648.48-.648.048,0,.071.024.12.024a2.192,2.192,0,0,0,.624.1c.84,0,1.224-.768,1.224-5.113,0-1.488-.12-2.016-.7-2.016-.12,0-.36.024-2.688,1.224v8.305a.549.549,0,0,1-.6.528.557.557,0,0,1-.624-.528Z"/>
        <path d="M9.673,72.409a.755.755,0,0,1,.72.72c0,.144-1.1,3.673-3.288,3.673-1.224,0-4.128-1.513-4.561-8.425-.072-1.056-.1-1.56-.1-2.112,0-.744.049-1.273.7-1.273.671,0,.695.481.695,1.873,0,6.936,2.521,8.424,3.241,8.424.288,0,1.1-.12,1.992-2.424A.669.669,0,0,1,9.673,72.409Zm8.9-.552a7.768,7.768,0,0,0-2.953-4.944.57.57,0,0,1-.264-.5.6.6,0,0,1,.624-.6c1.057,0,4.057,3.648,4.057,5.736a.865.865,0,0,1-.816.912A.646.646,0,0,1,18.578,71.857Z"/>
        <path d="M9.673,97.849a.755.755,0,0,1,.72.72c0,.144-1.1,3.673-3.288,3.673-1.224,0-4.128-1.512-4.561-8.425-.072-1.056-.1-1.56-.1-2.112,0-.744.049-1.272.7-1.272.671,0,.695.48.695,1.872,0,6.936,2.521,8.425,3.241,8.425.288,0,1.1-.12,1.992-2.425A.669.669,0,0,1,9.673,97.849Zm8.9-.552a7.768,7.768,0,0,0-2.953-4.944.57.57,0,0,1-.264-.5.6.6,0,0,1,.624-.6c1.057,0,4.057,3.648,4.057,5.736a.865.865,0,0,1-.816.912A.646.646,0,0,1,18.578,97.3Z"/>
        <path d="M14.065,125.978A15.608,15.608,0,0,0,20.5,129a.578.578,0,0,1,.48.552.7.7,0,0,1-.72.7,15.522,15.522,0,0,1-4.153-1.656c.168.288.265.528.265,1.944,0,.528,0,1.1-.024,1.512-.049,1.224-.744,1.944-2.209,1.992-1.152.048-2.256.048-3.312.048-1.08,0-2.136,0-3.192-.048-1.608-.048-2.208-.84-2.233-1.968,0-.384-.024-.84-.024-1.272,0-1.584.073-2.16.553-2.592a18.428,18.428,0,0,1-4.777,2.328.6.6,0,0,1-.6-.624.553.553,0,0,1,.408-.552A19.761,19.761,0,0,0,7.2,125.978l-6.049.048a.491.491,0,0,1-.5-.5.5.5,0,0,1,.5-.528l7.129.024a16.215,16.215,0,0,0,1.368-1.488c-5.136,0-5.4,0-5.4-2.976,0-1.44,0-2.712,2.208-2.784,1.416-.048,2.928-.048,4.44-.048s3.024,0,4.44.048c2.04.024,2.089,1.128,2.089,2.784,0,1.728-.12,2.856-2.136,2.928-1.345.048-2.857.048-4.369.048,0,.048-.024.072-.048.12a15.776,15.776,0,0,1-1.152,1.368h1.008l9.673-.024a.491.491,0,0,1,.5.505.5.5,0,0,1-.5.528Zm-.072-10.057v.864a.564.564,0,0,1-.6.528.572.572,0,0,1-.624-.528v-.864H8.617v.864a.572.572,0,0,1-.624.528.572.572,0,0,1-.624-.528v-.864l-5.665.024c-.432,0-.624-.24-.624-.5a.581.581,0,0,1,.624-.576l5.665.024v-1.033a.557.557,0,0,1,.624-.528.557.557,0,0,1,.624.528v1.033h4.152v-1.033a.557.557,0,0,1,.624-.528.549.549,0,0,1,.6.528v1.033l5.953-.024a.541.541,0,1,1,0,1.08Zm2.28,4.248c0-1.176-.359-1.488-1.224-1.512-1.32-.024-2.76-.048-4.176-.048-1.44,0-2.856.024-4.152.048-.888.024-1.345.336-1.345,1.512Zm-10.9.84c0,1.344.5,1.56,1.393,1.584,1.2.024,2.616.024,4.08.024s2.952,0,4.224-.024c1.153-.024,1.224-.552,1.224-1.584Zm3.409,4.969a20.519,20.519,0,0,1-2.4,1.92c.6-.288,1.536-.288,4.776-.288,1.056,0,2.136.024,3.1.048a2.954,2.954,0,0,1,.48.048,15.964,15.964,0,0,1-2.088-1.728Zm6.457,4.3c0-1.056-.049-1.608-1.321-1.656-.864-.024-1.968-.048-3.072-.048s-2.208.024-3.072.048-1.224.36-1.272,1.056v.6Zm-8.737.912v.792c.024.744.48,1.056,1.32,1.08.936.024,1.944.048,2.952.048,1.032,0,2.088-.024,3.1-.048.719-.024,1.319-.36,1.343-1.128,0-.216.025-.48.025-.744Z"/>
        <path d="M9.985,165.218a.721.721,0,0,1-.792-.672c0-.312.216-.624.744-.72a12.7,12.7,0,0,0,3.456-1.128c2.377-1.392,3.409-2.976,3.409-4.224,0-1.441-1.248-1.993-2.593-1.993-2.52,0-5.472,1.873-6.744,2.977a1.938,1.938,0,0,1-1.2.6c-.672,0-1.1-.576-1.1-2.376a25,25,0,0,1,.215-2.833c.193-1.56.5-3.12.673-4.176a.666.666,0,0,1,.672-.576.548.548,0,0,1,.576.552v.12c-.144,1.032-.432,2.448-.624,3.624a20.378,20.378,0,0,0-.288,2.761c0,.384,0,1.08.288,1.08a1.327,1.327,0,0,0,.528-.264c2.064-1.272,4.536-2.665,7.08-2.665,2.448,0,3.913,1.344,3.913,3.145,0,1.632-1.2,3.624-3.913,5.28A12.52,12.52,0,0,1,9.985,165.218Zm.168-15.5a1.021,1.021,0,0,1-.264.048.614.614,0,0,1-.624-.6.411.411,0,0,1,.288-.432c.624-.24.912-.408.912-.6,0-.168-.24-.336-.7-.624-1.728-1.1-1.848-1.176-1.848-1.56a.578.578,0,0,1,.624-.553.951.951,0,0,1,.528.192c.456.337,1.152.769,1.728,1.1.7.432,1.536.96,1.56,1.536C12.361,148.9,12.121,149.137,10.153,149.713Z"/>
        <path d="M7.369,176.785a.731.731,0,0,1,.792.672c0,.12-.024,1.08-.36,5.52-.168,2.208-.36,4.2-.36,6.193,0,.384,0,.744.024,1.128a3.067,3.067,0,0,0,3.408,3.072,10.387,10.387,0,0,0,6.192-2.64.939.939,0,0,1,.624-.264.729.729,0,0,1,.7.768.872.872,0,0,1-.336.672,11.806,11.806,0,0,1-7.129,2.832c-2.64,0-4.7-1.392-4.8-4.44-.024-.36-.024-.7-.024-1.032,0-2.088.24-3.937.336-6.169.072-1.44.216-3.5.216-5.04v-.552A.678.678,0,0,1,7.369,176.785Z"/>
      </g>
    </g>
  </g>
</svg>
