<svg xmlns="http://www.w3.org/2000/svg" width="199.012" height="20.686" viewBox="0 0 199.012 20.686">
  <defs>
    <style>
      .bd5114a6-b5b3-4f2b-b2c8-4cb6e3c3c1d4 {
        fill: #231815;
      }
    </style>
  </defs>
  <g id="af576950-f9e2-454a-ad2d-3a61fc13deb6" data-name="レイヤー 2">
    <g id="bffde458-4fd8-47f8-b27f-e29db7ecea7a" data-name="レイヤー 1">
      <g>
        <g>
          <path d="M30.016,20.6q-3.787,0-5.311-2.652a15.338,15.338,0,0,1-1.525-7.561,15.417,15.417,0,0,1,1.525-7.574Q26.229.151,30.016.151t5.319,2.666a15.493,15.493,0,0,1,1.517,7.574,15.35,15.35,0,0,1-1.524,7.561Q33.8,20.6,30.016,20.6Zm2.283-4.99a19.478,19.478,0,0,0,.534-5.223,19.166,19.166,0,0,0-.54-5.3,2.208,2.208,0,0,0-2.277-1.723,2.239,2.239,0,0,0-2.3,1.723,18.451,18.451,0,0,0-.56,5.3,18.669,18.669,0,0,0,.56,5.23,2.352,2.352,0,0,0,4.58-.007Z"/>
          <path d="M50.014,6.659A27.332,27.332,0,0,0,47.4,11.225a27.119,27.119,0,0,0-1.5,4.512,18.714,18.714,0,0,0-.67,4.375H41.182a23.816,23.816,0,0,1,3.5-11.088,26.165,26.165,0,0,1,3.595-4.977H38.393l.054-3.5h14V3.6A24.919,24.919,0,0,0,50.014,6.659Z"/>
          <path d="M60.251,10.268a3.792,3.792,0,0,0-1.23.178,2.442,2.442,0,0,0-1.381,1.217l-3.5-.164L55.534.547H66.458V3.856H58.351L57.64,8.19a8.081,8.081,0,0,1,1.408-.779A5.95,5.95,0,0,1,61.112,7.1a6.2,6.2,0,0,1,4.293,1.655,6.15,6.15,0,0,1,1.832,4.812,7.547,7.547,0,0,1-1.763,4.908,6.414,6.414,0,0,1-5.278,2.16,7.007,7.007,0,0,1-4.648-1.517,5.894,5.894,0,0,1-2.023-4.307h3.882a3.763,3.763,0,0,0,.889,1.962,2.515,2.515,0,0,0,1.914.691,2.584,2.584,0,0,0,2.208-1.019,4.173,4.173,0,0,0,.759-2.563,4.454,4.454,0,0,0-.711-2.564A2.49,2.49,0,0,0,60.251,10.268Z"/>
          <path d="M69.934,10.46h7.847v3.691H69.934Z"/>
          <path d="M94.246,12.8v3.049H92v4.266H88.19V15.846H80.342v-3.4L87.629.411H92V12.8Zm-11.019,0H88.19V4.239Z"/>
          <path d="M102.455,20.686a6.554,6.554,0,0,1-4.006-1.319,5.2,5.2,0,0,1-2.037-3.849H100.3a2.334,2.334,0,0,0,.738,1.422,2.284,2.284,0,0,0,1.6.547,2.781,2.781,0,0,0,2.708-2.133,12.511,12.511,0,0,0,.533-3.432,4.219,4.219,0,0,1-1.135,1.026,5.157,5.157,0,0,1-2.693.656,6.122,6.122,0,0,1-4.2-1.634,5.982,5.982,0,0,1-1.832-4.71A7.272,7.272,0,0,1,97.854,2.1,6.229,6.229,0,0,1,102.632.124,6.174,6.174,0,0,1,108.84,4.13,15.614,15.614,0,0,1,109.8,10.1a17.017,17.017,0,0,1-.916,6A6.414,6.414,0,0,1,102.455,20.686ZM101.088,3.938a3.543,3.543,0,0,0-1.122,2.967,4.126,4.126,0,0,0,.718,2.645,2.681,2.681,0,0,0,2.208.882,2.725,2.725,0,0,0,1.518-.465,3.215,3.215,0,0,0,1.326-2.939,4.155,4.155,0,0,0-.786-2.666,2.608,2.608,0,0,0-2.153-.984A2.676,2.676,0,0,0,101.088,3.938Z"/>
          <path d="M125.606,12.8v3.049h-2.242v4.266h-3.815V15.846H111.7v-3.4L118.989.411h4.375V12.8Zm-11.019,0h4.962V4.239Z"/>
          <path d="M128.047,10.46h7.847v3.691h-7.847Z"/>
          <path d="M144.815,10.268a3.794,3.794,0,0,0-1.231.178,2.445,2.445,0,0,0-1.381,1.217l-3.5-.164L140.1.547h10.924V3.856h-8.108L142.2,8.19a8.118,8.118,0,0,1,1.408-.779,5.952,5.952,0,0,1,2.065-.315,6.2,6.2,0,0,1,4.293,1.655,6.153,6.153,0,0,1,1.832,4.812,7.548,7.548,0,0,1-1.764,4.908,6.413,6.413,0,0,1-5.277,2.16,7.008,7.008,0,0,1-4.649-1.517,5.9,5.9,0,0,1-2.023-4.307h3.883a3.755,3.755,0,0,0,.889,1.962,2.513,2.513,0,0,0,1.914.691,2.585,2.585,0,0,0,2.208-1.019,4.179,4.179,0,0,0,.758-2.563,4.454,4.454,0,0,0-.711-2.564A2.49,2.49,0,0,0,144.815,10.268Z"/>
          <path d="M160.524,10.268a3.792,3.792,0,0,0-1.23.178,2.442,2.442,0,0,0-1.381,1.217l-3.5-.164L155.807.547h10.924V3.856h-8.107l-.711,4.334a8.081,8.081,0,0,1,1.408-.779,5.95,5.95,0,0,1,2.064-.315,6.2,6.2,0,0,1,4.293,1.655,6.15,6.15,0,0,1,1.832,4.812,7.547,7.547,0,0,1-1.763,4.908,6.414,6.414,0,0,1-5.278,2.16,7.007,7.007,0,0,1-4.648-1.517,5.894,5.894,0,0,1-2.023-4.307h3.882a3.755,3.755,0,0,0,.889,1.962,2.513,2.513,0,0,0,1.914.691,2.584,2.584,0,0,0,2.208-1.019,4.173,4.173,0,0,0,.759-2.563,4.454,4.454,0,0,0-.711-2.564A2.49,2.49,0,0,0,160.524,10.268Z"/>
          <path d="M176.234,10.268a3.794,3.794,0,0,0-1.231.178,2.445,2.445,0,0,0-1.381,1.217l-3.5-.164L171.517.547h10.924V3.856h-8.108l-.711,4.334a8.118,8.118,0,0,1,1.408-.779A5.952,5.952,0,0,1,177.1,7.1a6.2,6.2,0,0,1,4.293,1.655,6.153,6.153,0,0,1,1.832,4.812,7.548,7.548,0,0,1-1.764,4.908,6.413,6.413,0,0,1-5.277,2.16,7.008,7.008,0,0,1-4.649-1.517,5.9,5.9,0,0,1-2.023-4.307h3.883a3.762,3.762,0,0,0,.888,1.962,2.517,2.517,0,0,0,1.915.691,2.585,2.585,0,0,0,2.208-1.019,4.179,4.179,0,0,0,.758-2.563,4.454,4.454,0,0,0-.711-2.564A2.49,2.49,0,0,0,176.234,10.268Z"/>
          <path d="M186.953,18.868a5.862,5.862,0,0,1-1.709-4.252A6.074,6.074,0,0,1,186,11.594a4.807,4.807,0,0,1,2.222-2.037,4.623,4.623,0,0,1-1.866-2.071,5.787,5.787,0,0,1-.431-2.085,4.867,4.867,0,0,1,1.627-3.685,7.685,7.685,0,0,1,9.187,0A4.867,4.867,0,0,1,198.369,5.4a5.806,5.806,0,0,1-.43,2.085,3.984,3.984,0,0,1-1.867,1.935,5.491,5.491,0,0,1,2.2,2.173,6.211,6.211,0,0,1,.738,3.022,5.655,5.655,0,0,1-1.853,4.259,7.221,7.221,0,0,1-5.174,1.756A6.694,6.694,0,0,1,186.953,18.868Zm2.338-4.512a3.186,3.186,0,0,0,.759,2.27,3.135,3.135,0,0,0,4.2,0,3.186,3.186,0,0,0,.759-2.27,3.16,3.16,0,0,0-.772-2.3,3.158,3.158,0,0,0-4.17,0A3.152,3.152,0,0,0,189.291,14.356ZM190.317,7.6a2.8,2.8,0,0,0,3.67,0,2.453,2.453,0,0,0,.65-1.763A2.516,2.516,0,0,0,193.987,4a2.455,2.455,0,0,0-1.838-.663A2.484,2.484,0,0,0,190.31,4a2.481,2.481,0,0,0-.663,1.839A2.409,2.409,0,0,0,190.317,7.6Z"/>
        </g>
        <g>
          <path class="bd5114a6-b5b3-4f2b-b2c8-4cb6e3c3c1d4" d="M11.117,12.28a.583.583,0,0,0-.777-.041l-1.094.883a.583.583,0,0,1-.741-.008A15.29,15.29,0,0,1,4.886,9.495a.582.582,0,0,1-.008-.74l.883-1.1a.581.581,0,0,0-.042-.777l-2.1-2.1a.583.583,0,0,0-.786-.034L.208,6.961a.582.582,0,0,0-.139.721S.423,8.4.751,8.956a26.068,26.068,0,0,0,3.675,4.619,26,26,0,0,0,4.619,3.674c.552.328,1.274.682,1.274.682a.581.581,0,0,0,.72-.139l2.209-2.629a.583.583,0,0,0-.035-.786Z"/>
          <path class="bd5114a6-b5b3-4f2b-b2c8-4cb6e3c3c1d4" d="M11.634,9.469l.873-.138A4.63,4.63,0,0,0,8.669,5.494l-.138.872a3.749,3.749,0,0,1,3.1,3.1Z"/>
          <path class="bd5114a6-b5b3-4f2b-b2c8-4cb6e3c3c1d4" d="M15.144,2.857A10.15,10.15,0,0,0,9.537,0L9.4.873A9.3,9.3,0,0,1,17.128,8.6L18,8.463A10.151,10.151,0,0,0,15.144,2.857Z"/>
          <path class="bd5114a6-b5b3-4f2b-b2c8-4cb6e3c3c1d4" d="M9.1,2.744l-.137.873a6.514,6.514,0,0,1,5.417,5.418l.873-.138A7.394,7.394,0,0,0,9.1,2.744Z"/>
        </g>
      </g>
    </g>
  </g>
</svg>
