<?xml version="1.0" encoding="utf-8"?>
<!-- Generator: Adobe Illustrator 26.0.3, SVG Export Plug-In . SVG Version: 6.00 Build 0)  -->
<svg version="1.1" id="レイヤー_1" xmlns="http://www.w3.org/2000/svg" xmlns:xlink="http://www.w3.org/1999/xlink" x="0px"
	 y="0px" width="228px" height="60px" viewBox="0 0 228 60" style="enable-background:new 0 0 228 60;" xml:space="preserve">
<style type="text/css">
	.st0{fill:#FFFFFF;}
</style>
<g>
	<g>
		<g>
			<path class="st0" d="M13.423,35.349c-0.45,0.486-0.918,0.918-1.369,1.296c-0.306-0.306-0.972-0.828-1.386-1.098
				c1.53-1.062,2.953-2.773,3.781-4.502l1.638,0.468c-0.252,0.522-0.54,1.026-0.864,1.512h11.074v1.477h-1.765v2.701h2.431v1.513
				h-2.431v2.7h2.179v1.513H11.244v-1.513h2.179v-2.7h-2.449v-1.513h2.449V35.349z M10.812,46.926
				c0.882-0.738,1.692-2.106,2.125-3.403l1.621,0.396c-0.45,1.351-1.224,2.772-2.161,3.673L10.812,46.926z M14.935,37.203h1.675
				v-2.701h-1.675V37.203z M14.935,41.416h1.675v-2.7h-1.675V41.416z M17.636,43.883c0.234,1.062,0.432,2.449,0.45,3.277
				l-1.638,0.233c0-0.846-0.144-2.269-0.36-3.349L17.636,43.883z M19.761,37.203v-2.701h-1.747v2.701H19.761z M18.014,38.716v2.7
				h1.747v-2.7H18.014z M21.255,43.811c0.468,1.026,0.937,2.413,1.099,3.277l-1.657,0.324c-0.144-0.864-0.558-2.269-1.008-3.35
				L21.255,43.811z M22.966,34.502h-1.783v2.701h1.783V34.502z M22.966,38.716h-1.783v2.7h1.783V38.716z M24.857,43.451
				c0.864,1.08,1.908,2.574,2.376,3.547l-1.692,0.594c-0.432-0.954-1.405-2.503-2.269-3.637L24.857,43.451z"/>
			<path class="st0" d="M37.671,31.531c-0.018,0.252-0.018,0.559-0.054,0.882c0.162,2.396,1.098,10.479,7.833,13.576
				c-0.522,0.396-1.009,0.954-1.279,1.404c-4.357-2.106-6.356-6.229-7.292-9.704c-0.864,3.438-2.755,7.328-6.932,9.723
				c-0.306-0.433-0.846-0.954-1.386-1.314c7.202-3.835,7.094-12.189,7.22-14.566H37.671z"/>
			<path class="st0" d="M50.144,33.242h8.606c0.594,0,1.135-0.019,1.549-0.072v1.801c-0.45-0.019-0.9-0.055-1.549-0.055h-4.483
				v3.476h5.797c0.378,0,1.17-0.036,1.603-0.072l0.018,1.837c-0.468-0.036-1.188-0.036-1.584-0.036h-5.833v3.223
				c0,0.954,0.63,1.404,2.196,1.404c1.657,0,3.187-0.072,4.682-0.252l-0.108,1.927c-1.314,0.09-3.169,0.162-4.88,0.162
				c-2.971,0-3.799-1.045-3.799-2.665V40.12H49.1c-0.486,0-1.297,0.036-1.819,0.071v-1.891c0.504,0.055,1.296,0.091,1.819,0.091
				h3.259v-3.476h-2.215c-0.63,0-1.17,0.019-1.674,0.055V33.17C48.973,33.206,49.514,33.242,50.144,33.242z"/>
			<path class="st0" d="M65.552,37.455h11.793c0.378,0,1.044-0.018,1.512-0.09v1.854c-0.432-0.019-1.044-0.036-1.512-0.036h-4.646
				c-0.072,1.908-0.432,3.493-1.116,4.789c-0.648,1.225-2.017,2.557-3.583,3.367l-1.657-1.225c1.333-0.54,2.629-1.584,3.331-2.683
				c0.774-1.206,1.008-2.629,1.081-4.249h-5.204c-0.541,0-1.134,0.018-1.639,0.054v-1.872
				C64.417,37.419,64.993,37.455,65.552,37.455z M67.784,32.918h6.086c0.558,0,1.242-0.036,1.8-0.108v1.854
				c-0.576-0.036-1.224-0.072-1.8-0.072h-6.068c-0.612,0-1.278,0.036-1.765,0.072V32.81C66.578,32.882,67.19,32.918,67.784,32.918z
				 M78.119,33.908l-1.188,0.504c-0.36-0.721-0.937-1.801-1.422-2.485l1.152-0.486C77.111,32.09,77.759,33.206,78.119,33.908z
				 M80.19,33.115l-1.17,0.522c-0.378-0.774-0.972-1.8-1.476-2.484l1.152-0.486C79.181,31.351,79.865,32.468,80.19,33.115z"/>
			<path class="st0" d="M83.12,41.218c0.522-1.603,0.522-5.113,0.522-7.184c0-0.612-0.036-1.045-0.144-1.459h2.088
				c-0.018,0.145-0.09,0.811-0.09,1.44c0,2.053-0.072,5.888-0.558,7.688c-0.54,1.98-1.674,3.745-3.205,5.042l-1.729-1.152
				C81.571,44.513,82.597,42.875,83.12,41.218z M88.431,44.621V33.962c0-0.738-0.108-1.332-0.108-1.44h2.088
				c-0.018,0.108-0.09,0.702-0.09,1.44v9.957c1.566-0.702,3.601-2.232,4.897-4.142l1.098,1.549c-1.53,2.034-4.069,3.925-6.14,4.97
				c-0.324,0.18-0.541,0.342-0.685,0.45l-1.188-0.99C88.377,45.449,88.431,45.035,88.431,44.621z"/>
			<path class="st0" d="M101.678,33.602l2.035,0.414c-0.126,0.45-0.288,1.135-0.36,1.531c-0.252,1.17-0.9,3.763-1.603,5.527
				c-0.648,1.692-1.674,3.637-2.647,5.041l-1.962-0.828c1.134-1.494,2.161-3.402,2.791-4.934
				C100.724,38.409,101.444,35.763,101.678,33.602z M106.198,33.998l1.854-0.612c0.738,1.351,1.927,3.961,2.647,5.78
				c0.702,1.71,1.656,4.519,2.143,6.229l-2.071,0.666c-0.468-1.963-1.224-4.339-1.962-6.266
				C108.106,37.923,106.972,35.349,106.198,33.998z"/>
			<path class="st0" d="M123.28,33.098v1.549h3.637c0.721,0,1.08-0.09,1.351-0.181l1.242,0.774
				c-0.126,0.307-0.252,0.883-0.306,1.225c-0.271,1.566-0.774,3.601-1.729,5.275c-1.387,2.503-3.979,4.357-7.221,5.239l-1.477-1.71
				c0.685-0.108,1.513-0.342,2.161-0.595c1.656-0.558,3.457-1.782,4.537-3.385c0.937-1.44,1.458-3.403,1.657-4.97h-9.58v2.953
				c0,0.36,0.019,0.883,0.072,1.188h-1.963c0.037-0.378,0.072-0.9,0.072-1.296v-3.151c0-0.396-0.018-1.044-0.072-1.458
				c0.559,0.054,1.081,0.09,1.747,0.09h3.925v-1.549c0-0.45-0.018-0.846-0.125-1.494h2.178
				C123.315,32.252,123.28,32.647,123.28,33.098z"/>
			<path class="st0" d="M143.495,34.971c-0.631,1.476-1.693,3.511-2.953,5.131c1.854,1.585,4.033,3.907,5.15,5.275l-1.586,1.405
				c-1.188-1.621-2.988-3.602-4.771-5.258c-1.927,2.053-4.357,3.979-6.933,5.186l-1.458-1.53c2.917-1.117,5.618-3.277,7.399-5.276
				c1.225-1.368,2.432-3.349,2.863-4.753H134.6c-0.703,0-1.675,0.09-1.963,0.108v-2.035c0.36,0.054,1.404,0.126,1.963,0.126h6.68
				c0.666,0,1.26-0.072,1.566-0.18l1.17,0.864C143.891,34.214,143.621,34.664,143.495,34.971z"/>
			<path class="st0" d="M157.408,40.516c1.585,2.053,4.069,3.979,6.392,4.988c-0.359,0.342-0.9,0.972-1.17,1.422
				c-2.287-1.152-4.627-3.187-6.32-5.42v6.068h-1.764v-6.032c-1.693,2.215-4.033,4.195-6.303,5.33
				c-0.27-0.433-0.811-1.062-1.188-1.404c2.34-0.99,4.824-2.899,6.445-4.952h-6.014v-1.62h7.059v-4.178h-6.213v-1.603h6.213v-2.07
				h1.764v2.07h6.355v1.603h-6.355v4.178h7.076v1.62H157.408z M151.16,34.935c0.685,1.026,1.386,2.376,1.62,3.276l-1.584,0.631
				c-0.217-0.883-0.846-2.305-1.513-3.35L151.16,34.935z M158.128,38.373c0.595-0.954,1.297-2.431,1.693-3.493l1.746,0.522
				c-0.631,1.225-1.387,2.593-1.998,3.457L158.128,38.373z"/>
			<path class="st0" d="M170.942,41.849c-1.801,0.918-3.744,1.891-5.258,2.61l-0.647-1.675c0.647-0.252,1.458-0.594,2.341-0.972
				v-5.366h-1.98v-1.584h1.98v-3.637h1.549v3.637h1.818v1.584h-1.818v4.682c0.539-0.252,1.098-0.504,1.656-0.756L170.942,41.849z
				 M174.436,39.724c-0.199,0.378-0.415,0.738-0.667,1.08h7.526c0,0-0.018,0.414-0.036,0.631c-0.288,3.601-0.558,5.005-1.044,5.545
				c-0.307,0.343-0.648,0.45-1.08,0.505c-0.414,0.035-1.081,0.054-1.801,0.018c-0.018-0.396-0.162-0.99-0.379-1.351
				c0.613,0.072,1.171,0.072,1.404,0.072c0.271,0,0.414-0.018,0.559-0.198c0.27-0.306,0.504-1.332,0.721-3.871h-1.08
				c-0.721,2.089-2.125,4.34-3.619,5.474c-0.271-0.306-0.793-0.702-1.207-0.937c1.404-0.936,2.665-2.719,3.422-4.537h-1.424
				c-0.972,1.782-2.682,3.691-4.285,4.699c-0.252-0.342-0.72-0.756-1.115-1.008c1.422-0.757,2.898-2.197,3.889-3.691h-1.512
				c-0.686,0.756-1.441,1.404-2.215,1.927c-0.234-0.271-0.811-0.811-1.135-1.044c1.35-0.774,2.574-1.945,3.402-3.313h-2.305v-1.423
				h11.254v1.423H174.436z M180.45,37.438h-8.318v-5.906h8.318V37.438z M178.901,32.737h-5.258v1.171h5.258V32.737z M178.901,35.042
				h-5.258v1.188h5.258V35.042z"/>
			<path class="st0" d="M199.602,38.247c-0.883,1.603-2.018,3.367-3.062,4.502l-1.404-0.847c0.558-0.648,1.224-1.603,1.765-2.539
				h-4.483v6.267c0,0.936-0.234,1.404-0.954,1.638c-0.721,0.252-1.818,0.271-3.367,0.271c-0.108-0.468-0.396-1.171-0.631-1.62
				c1.171,0.054,2.432,0.035,2.773,0.035c0.342-0.018,0.432-0.09,0.432-0.359v-6.23h-7.238v-1.603h8.805
				c-1.458-0.684-3.24-1.476-4.645-2.034l0.863-1.261c0.9,0.36,1.98,0.774,3.043,1.225c0.99-0.576,2.071-1.368,2.918-2.125h-9.291
				v-1.548h10.929l0.36-0.09l1.225,0.936c-1.225,1.225-2.881,2.521-4.447,3.529c0.684,0.307,1.296,0.576,1.764,0.811l-0.342,0.558
				h3.312l0.307-0.107L199.602,38.247z"/>
			<path class="st0" d="M203.395,41.597c-0.234,1.692-0.648,3.438-1.206,4.591c-0.271-0.198-0.937-0.504-1.278-0.63
				c0.54-1.08,0.883-2.665,1.062-4.214L203.395,41.597z M206.726,36.789c0.738,1.17,1.477,2.7,1.729,3.69l-1.278,0.612
				c-0.072-0.288-0.18-0.63-0.324-1.008l-1.332,0.09v7.418h-1.494v-7.328c-1.027,0.055-1.98,0.108-2.809,0.162l-0.145-1.477
				l1.26-0.036c0.342-0.432,0.685-0.899,1.045-1.404c-0.559-0.792-1.477-1.765-2.27-2.521l0.811-1.116
				c0.162,0.144,0.324,0.288,0.486,0.432c0.559-0.99,1.152-2.286,1.477-3.259l1.512,0.541c-0.647,1.224-1.404,2.647-2.052,3.619
				c0.342,0.36,0.647,0.721,0.882,1.045c0.703-1.081,1.351-2.197,1.818-3.134l1.423,0.612c-1.026,1.639-2.376,3.619-3.583,5.114
				l2.395-0.091c-0.234-0.504-0.486-0.99-0.756-1.44L206.726,36.789z M207.177,41.254c0.486,1.08,0.973,2.485,1.17,3.403
				l-1.332,0.468c-0.162-0.936-0.648-2.358-1.098-3.457L207.177,41.254z M217.332,34.988c-0.306,7.94-0.54,10.749-1.296,11.668
				c-0.433,0.594-0.883,0.756-1.585,0.828c-0.612,0.09-1.71,0.071-2.772,0.018c-0.037-0.486-0.234-1.206-0.559-1.675
				c1.17,0.091,2.25,0.108,2.683,0.108c0.378,0,0.576-0.072,0.774-0.306c0.576-0.576,0.864-3.241,1.098-9.85h-5.491
				c-0.485,0.919-1.026,1.747-1.585,2.413c-0.324-0.288-1.08-0.774-1.477-1.009c1.369-1.458,2.485-3.799,3.115-6.157l1.711,0.396
				c-0.27,0.936-0.612,1.873-0.99,2.754h6.374V34.988z M211.803,43.001c-0.359-1.099-1.35-2.845-2.305-4.142l1.352-0.666
				c0.972,1.225,2.033,2.935,2.43,4.051L211.803,43.001z"/>
		</g>
	</g>
	<g>
		<g>
			<path class="st0" d="M81.1,17.368c-0.784,0-1.311,0.256-1.579,0.766c-0.15,0.287-0.226,0.729-0.226,1.326v3.562h-1.962V15.57
				h1.859v1.299c0.301-0.496,0.562-0.836,0.786-1.019c0.364-0.305,0.838-0.458,1.422-0.458c0.036,0,0.067,0.001,0.092,0.004
				c0.025,0.002,0.081,0.006,0.168,0.01v1.996c-0.123-0.014-0.232-0.022-0.328-0.027C81.237,17.371,81.159,17.368,81.1,17.368z"/>
			<path class="st0" d="M89.18,20.834c-0.051,0.442-0.28,0.892-0.69,1.347c-0.639,0.725-1.531,1.087-2.68,1.087
				c-0.948,0-1.784-0.305-2.509-0.916c-0.725-0.61-1.087-1.604-1.087-2.98c0-1.289,0.327-2.278,0.98-2.967
				c0.654-0.688,1.503-1.032,2.547-1.032c0.619,0,1.178,0.116,1.675,0.349c0.496,0.232,0.906,0.6,1.23,1.101
				c0.291,0.442,0.48,0.955,0.567,1.538c0.05,0.342,0.07,0.834,0.062,1.477h-5.1c0.027,0.748,0.262,1.271,0.704,1.572
				c0.269,0.188,0.592,0.28,0.971,0.28c0.4,0,0.727-0.113,0.978-0.342c0.137-0.123,0.257-0.294,0.362-0.513H89.18z M87.253,18.551
				c-0.032-0.515-0.188-0.905-0.469-1.172s-0.628-0.4-1.042-0.4c-0.451,0-0.801,0.142-1.05,0.424
				c-0.248,0.283-0.404,0.666-0.468,1.148H87.253z"/>
			<path class="st0" d="M95.722,15.912c0.583,0.374,0.918,1.017,1.005,1.928h-1.948c-0.027-0.25-0.099-0.448-0.212-0.595
				c-0.215-0.264-0.579-0.396-1.094-0.396c-0.424,0-0.726,0.066-0.906,0.198c-0.18,0.133-0.27,0.287-0.27,0.465
				c0,0.224,0.096,0.386,0.287,0.485c0.191,0.105,0.868,0.285,2.03,0.54c0.774,0.183,1.355,0.458,1.743,0.827
				c0.383,0.374,0.574,0.841,0.574,1.401c0,0.738-0.274,1.341-0.824,1.809c-0.549,0.467-1.397,0.7-2.546,0.7
				c-1.172,0-2.036-0.247-2.595-0.741c-0.558-0.495-0.837-1.125-0.837-1.891h1.976c0.041,0.347,0.13,0.593,0.267,0.738
				c0.241,0.26,0.688,0.39,1.34,0.39c0.383,0,0.687-0.057,0.912-0.171c0.226-0.113,0.339-0.284,0.339-0.513
				c0-0.219-0.092-0.385-0.273-0.499c-0.183-0.113-0.859-0.31-2.03-0.588c-0.844-0.209-1.438-0.472-1.784-0.786
				c-0.347-0.31-0.52-0.756-0.52-1.34c0-0.688,0.27-1.279,0.81-1.773c0.54-0.495,1.3-0.742,2.28-0.742
				C94.376,15.358,95.135,15.543,95.722,15.912z"/>
			<path class="st0" d="M104.753,20.834c-0.051,0.442-0.28,0.892-0.69,1.347c-0.639,0.725-1.531,1.087-2.68,1.087
				c-0.948,0-1.784-0.305-2.509-0.916c-0.725-0.61-1.087-1.604-1.087-2.98c0-1.289,0.327-2.278,0.98-2.967
				c0.654-0.688,1.503-1.032,2.547-1.032c0.619,0,1.178,0.116,1.675,0.349c0.496,0.232,0.906,0.6,1.23,1.101
				c0.291,0.442,0.48,0.955,0.567,1.538c0.05,0.342,0.07,0.834,0.062,1.477h-5.1c0.027,0.748,0.262,1.271,0.704,1.572
				c0.269,0.188,0.592,0.28,0.971,0.28c0.4,0,0.727-0.113,0.978-0.342c0.137-0.123,0.257-0.294,0.362-0.513H104.753z
				 M102.825,18.551c-0.032-0.515-0.188-0.905-0.469-1.172s-0.628-0.4-1.042-0.4c-0.451,0-0.801,0.142-1.05,0.424
				c-0.248,0.283-0.404,0.666-0.468,1.148H102.825z"/>
			<path class="st0" d="M109.907,17.368c-0.784,0-1.311,0.256-1.579,0.766c-0.15,0.287-0.226,0.729-0.226,1.326v3.562h-1.962V15.57
				H108v1.299c0.301-0.496,0.562-0.836,0.786-1.019c0.364-0.305,0.838-0.458,1.422-0.458c0.036,0,0.067,0.001,0.092,0.004
				c0.025,0.002,0.081,0.006,0.168,0.01v1.996c-0.123-0.014-0.232-0.022-0.328-0.027C110.044,17.371,109.966,17.368,109.907,17.368z
				"/>
			<path class="st0" d="M110.878,15.57h2.188l1.552,5.496l1.586-5.496h2.092l-2.687,7.451h-2.058L110.878,15.57z"/>
			<path class="st0" d="M119.676,16.377c0.515-0.656,1.398-0.984,2.652-0.984c0.815,0,1.54,0.162,2.174,0.485
				c0.633,0.324,0.95,0.935,0.95,1.832v3.418c0,0.237,0.004,0.524,0.014,0.861c0.014,0.256,0.052,0.429,0.116,0.52
				c0.063,0.092,0.159,0.167,0.287,0.226v0.287h-2.119c-0.06-0.15-0.101-0.291-0.123-0.424c-0.023-0.132-0.041-0.282-0.055-0.451
				c-0.27,0.292-0.579,0.54-0.93,0.745c-0.42,0.242-0.894,0.362-1.422,0.362c-0.675,0-1.231-0.192-1.672-0.577
				c-0.439-0.386-0.659-0.931-0.659-1.638c0-0.916,0.353-1.579,1.06-1.989c0.387-0.223,0.957-0.383,1.709-0.479l0.663-0.082
				c0.359-0.045,0.617-0.103,0.772-0.171c0.277-0.118,0.417-0.303,0.417-0.554c0-0.305-0.106-0.516-0.318-0.632
				s-0.522-0.175-0.933-0.175c-0.461,0-0.786,0.114-0.978,0.342c-0.137,0.169-0.229,0.396-0.273,0.684h-1.88
				C119.17,17.332,119.351,16.797,119.676,16.377z M121.125,21.613c0.182,0.15,0.405,0.226,0.67,0.226
				c0.419,0,0.806-0.123,1.158-0.369c0.354-0.246,0.537-0.694,0.551-1.347v-0.725c-0.123,0.078-0.247,0.141-0.373,0.188
				c-0.125,0.048-0.297,0.092-0.516,0.133l-0.438,0.082c-0.41,0.073-0.704,0.162-0.882,0.267c-0.301,0.178-0.451,0.454-0.451,0.827
				C120.844,21.229,120.937,21.468,121.125,21.613z"/>
			<path class="st0" d="M130.593,21.634v1.456l-0.923,0.034c-0.921,0.032-1.55-0.127-1.887-0.479
				c-0.219-0.223-0.328-0.567-0.328-1.032v-4.587h-1.039v-1.388h1.039v-2.078h1.928v2.078h1.21v1.388h-1.21v3.938
				c0,0.306,0.038,0.496,0.116,0.571c0.077,0.075,0.314,0.112,0.711,0.112c0.059,0,0.122-0.001,0.188-0.003
				C130.464,21.642,130.528,21.639,130.593,21.634z"/>
			<path class="st0" d="M133.846,12.884v1.798h-1.976v-1.798H133.846z M133.846,15.57v7.451h-1.976V15.57H133.846z"/>
			<path class="st0" d="M141.947,16.514c0.629,0.789,0.943,1.721,0.943,2.796c0,1.094-0.314,2.029-0.943,2.807
				c-0.629,0.776-1.584,1.165-2.864,1.165c-1.281,0-2.235-0.389-2.864-1.165c-0.629-0.777-0.943-1.713-0.943-2.807
				c0-1.075,0.314-2.007,0.943-2.796c0.629-0.788,1.583-1.183,2.864-1.183C140.363,15.331,141.318,15.726,141.947,16.514z
				 M139.076,16.979c-0.57,0-1.009,0.202-1.316,0.605s-0.461,0.979-0.461,1.726c0,0.748,0.153,1.324,0.461,1.729
				c0.308,0.406,0.746,0.608,1.316,0.608c0.569,0,1.007-0.202,1.312-0.608c0.305-0.405,0.458-0.981,0.458-1.729
				c0-0.747-0.153-1.322-0.458-1.726C140.083,17.181,139.645,16.979,139.076,16.979z"/>
			<path class="st0" d="M147.792,17.013c-0.661,0-1.114,0.28-1.36,0.841c-0.128,0.297-0.191,0.675-0.191,1.135v4.033h-1.941v-7.438
				h1.88v1.087c0.25-0.383,0.487-0.658,0.711-0.827c0.4-0.301,0.909-0.451,1.524-0.451c0.77,0,1.4,0.202,1.89,0.605
				c0.49,0.403,0.735,1.072,0.735,2.006v5.018h-1.996v-4.532c0-0.392-0.053-0.692-0.157-0.902
				C148.694,17.204,148.329,17.013,147.792,17.013z"/>
		</g>
		<g>
			
				<rect x="71.03" y="12.211" transform="matrix(0.943 -0.3328 0.3328 0.943 -1.901 24.8296)" class="st0" width="1" height="11.507"/>
			
				<rect x="68.908" y="17.083" transform="matrix(0.8652 -0.5015 0.5015 0.8652 -1.2985 37.6729)" class="st0" width="1" height="8.336"/>
		</g>
		<g>
			
				<rect x="151.089" y="17.464" transform="matrix(0.3329 -0.943 0.943 0.3329 87.6945 159.8825)" class="st0" width="11.507" height="1"/>
			
				<rect x="154.797" y="20.751" transform="matrix(0.5018 -0.865 0.865 0.5018 60.8136 148.0889)" class="st0" width="8.336" height="1"/>
		</g>
	</g>
</g>
</svg>
