<?xml version="1.0" encoding="utf-8"?>
<!-- Generator: Adobe Illustrator 26.0.3, SVG Export Plug-In . SVG Version: 6.00 Build 0)  -->
<svg version="1.1" id="レイヤー_1" xmlns="http://www.w3.org/2000/svg" xmlns:xlink="http://www.w3.org/1999/xlink" x="0px"
	 y="0px" width="130px" height="80px" viewBox="0 0 130 80" style="enable-background:new 0 0 130 80;" xml:space="preserve">
<style type="text/css">
	.st0{fill:#FFFFFF;}
</style>
<g>
	<path class="st0" d="M33.854,46.643c-1.329,0.16-2.689,0.224-4.162,0.224c-1.393,0-1.953-0.4-1.953-1.248v-2.865h5.186
		c0.352,0,0.992,0,1.409,0.032l-0.016-1.633c-0.384,0.032-1.088,0.064-1.425,0.064h-5.154v-3.089h3.985
		c0.576,0,0.977,0.032,1.377,0.048v-1.601c-0.368,0.048-0.849,0.064-1.377,0.064h-7.651c-0.56,0-1.041-0.032-1.489-0.064v1.601
		c0.448-0.032,0.929-0.048,1.489-0.048h1.969v3.089h-2.897c-0.464,0-1.168-0.032-1.617-0.08v1.681
		c0.464-0.032,1.185-0.064,1.617-0.064h2.897v3.377c0,1.441,0.736,2.369,3.377,2.369c1.521,0,3.169-0.064,4.338-0.144L33.854,46.643
		z"/>
	<path class="st0" d="M38.201,36.255v1.649c0.432-0.032,1.024-0.064,1.568-0.064h5.395c0.512,0,1.088,0.032,1.601,0.064v-1.649
		c-0.496,0.064-1.104,0.096-1.601,0.096h-5.41C39.226,36.351,38.681,36.319,38.201,36.255z"/>
	<path class="st0" d="M48.941,37.232c-0.32-0.624-0.896-1.617-1.296-2.193l-1.024,0.432c0.432,0.608,0.944,1.569,1.265,2.209
		L48.941,37.232z"/>
	<path class="st0" d="M50.782,36.527c-0.288-0.576-0.896-1.569-1.329-2.177l-1.024,0.432c0.448,0.608,0.977,1.521,1.312,2.209
		L50.782,36.527z"/>
	<path class="st0" d="M42.395,41.922c-0.064,1.441-0.272,2.705-0.96,3.777c-0.625,0.976-1.777,1.905-2.961,2.385l1.473,1.088
		c1.393-0.72,2.609-1.905,3.186-2.993c0.608-1.152,0.928-2.561,0.992-4.258h4.13c0.416,0,0.96,0.016,1.344,0.032v-1.649
		c-0.416,0.064-1.008,0.08-1.344,0.08H37.769c-0.496,0-1.008-0.032-1.457-0.08v1.665c0.448-0.032,0.976-0.048,1.457-0.048H42.395z"
		/>
	<path class="st0" d="M55.002,44.162c0.432-1.601,0.496-5.01,0.496-6.835c0-0.56,0.064-1.152,0.08-1.281h-1.856
		c0.096,0.368,0.128,0.752,0.128,1.297c0,1.841,0,4.962-0.464,6.387c-0.464,1.473-1.376,2.929-2.769,3.89l1.537,1.024
		C53.514,47.492,54.522,45.923,55.002,44.162z"/>
	<path class="st0" d="M59.788,46.131V37.28c0-0.656,0.064-1.185,0.08-1.281h-1.857c0,0.096,0.096,0.624,0.096,1.281v9.476
		c0,0.368-0.048,0.736-0.112,1.008l1.057,0.88c0.128-0.096,0.32-0.24,0.608-0.4c1.84-0.928,4.098-2.609,5.458-4.418l-0.977-1.377
		C62.989,44.146,61.181,45.507,59.788,46.131z"/>
	<path class="st0" d="M69.946,43.602c0.624-1.569,1.201-3.874,1.425-4.914c0.064-0.352,0.208-0.96,0.32-1.36l-1.809-0.368
		c-0.208,1.921-0.849,4.274-1.553,6.002c-0.56,1.36-1.473,3.057-2.481,4.386l1.745,0.736C68.458,46.835,69.37,45.107,69.946,43.602z
		"/>
	<path class="st0" d="M79.806,47.444c-0.432-1.521-1.28-4.018-1.905-5.538c-0.64-1.617-1.697-3.938-2.353-5.138L73.9,37.312
		c0.688,1.2,1.697,3.489,2.321,5.154c0.656,1.713,1.329,3.826,1.745,5.57L79.806,47.444z"/>
	<path class="st0" d="M82.377,39.104v2.801c0,0.352-0.032,0.816-0.064,1.153h1.745c-0.048-0.272-0.064-0.736-0.064-1.057v-2.625
		h8.515c-0.176,1.392-0.64,3.137-1.473,4.418c-0.96,1.425-2.561,2.513-4.033,3.009c-0.577,0.224-1.313,0.432-1.921,0.528
		l1.312,1.521c2.881-0.784,5.186-2.433,6.418-4.658c0.849-1.489,1.296-3.297,1.537-4.69c0.048-0.304,0.16-0.816,0.272-1.089
		l-1.104-0.688c-0.24,0.08-0.561,0.16-1.201,0.16h-3.233v-1.376c0-0.4,0.032-0.752,0.096-1.329h-1.937
		c0.096,0.576,0.112,0.928,0.112,1.329v1.376h-3.49c-0.592,0-1.056-0.032-1.552-0.08C82.361,38.176,82.377,38.752,82.377,39.104z"/>
	<path class="st0" d="M104.429,42.738c1.121-1.441,2.065-3.249,2.625-4.562c0.112-0.272,0.352-0.672,0.464-0.832l-1.041-0.768
		c-0.272,0.096-0.8,0.16-1.393,0.16h-5.938c-0.496,0-1.424-0.064-1.745-0.112v1.809c0.256-0.016,1.121-0.096,1.745-0.096h5.875
		c-0.384,1.249-1.457,3.009-2.545,4.226c-1.585,1.777-3.986,3.698-6.579,4.69l1.296,1.361c2.289-1.073,4.45-2.785,6.163-4.61
		c1.584,1.473,3.185,3.233,4.242,4.674l1.408-1.249C108.014,46.211,106.077,44.146,104.429,42.738z"/>
	<path class="st0" d="M42.764,61.106h5.314v-1.441h-6.291v-3.714h5.65v-1.425h-5.65v-1.841h-1.569v1.841h-5.522v1.425h5.522v3.714
		h-6.274v1.441h5.346c-1.44,1.825-3.649,3.521-5.73,4.402c0.336,0.304,0.816,0.864,1.057,1.249c2.017-1.008,4.098-2.769,5.602-4.738
		v5.362h1.569v-5.394c1.504,1.985,3.585,3.794,5.618,4.818c0.24-0.4,0.72-0.96,1.041-1.265
		C46.381,64.643,44.172,62.931,42.764,61.106z"/>
	<path class="st0" d="M44.685,59.633c0.544-0.768,1.217-1.985,1.777-3.073l-1.553-0.464c-0.352,0.944-0.976,2.257-1.504,3.105
		L44.685,59.633z"/>
	<path class="st0" d="M37.209,56.144l-1.312,0.496c0.592,0.928,1.153,2.193,1.345,2.977l1.409-0.56
		C38.442,58.257,37.818,57.056,37.209,56.144z"/>
	<path class="st0" d="M54.362,60.402h2.049c-0.736,1.216-1.825,2.257-3.025,2.945c0.288,0.208,0.8,0.688,1.008,0.928
		c0.688-0.464,1.361-1.041,1.969-1.713h1.345c-0.88,1.328-2.193,2.609-3.458,3.281c0.352,0.224,0.769,0.592,0.993,0.896
		c1.424-0.896,2.945-2.593,3.81-4.178h1.264c-0.672,1.617-1.792,3.201-3.041,4.034c0.368,0.208,0.833,0.56,1.072,0.832
		c1.329-1.008,2.577-3.009,3.217-4.866h0.96c-0.192,2.257-0.4,3.169-0.64,3.441c-0.128,0.16-0.256,0.176-0.496,0.176
		c-0.208,0-0.705,0-1.249-0.064c0.192,0.32,0.32,0.848,0.336,1.201c0.64,0.032,1.232,0.016,1.601-0.016
		c0.384-0.048,0.688-0.144,0.96-0.448c0.432-0.48,0.672-1.729,0.928-4.93c0.016-0.192,0.032-0.56,0.032-0.56h-6.691
		c0.224-0.304,0.417-0.624,0.592-0.96h6.467v-1.265H54.362V60.402z"/>
	<path class="st0" d="M55.851,58.369h7.395v-5.25h-7.395V58.369z M57.195,54.191h4.674v1.04h-4.674V54.191z M57.195,56.24h4.674
		v1.056h-4.674V56.24z"/>
	<path class="st0" d="M54.474,60.978c-0.496,0.224-0.992,0.448-1.473,0.672v-4.162h1.617V56.08h-1.617v-3.233h-1.376v3.233h-1.761
		v1.408h1.761v4.77c-0.784,0.336-1.504,0.64-2.081,0.864l0.576,1.489c1.344-0.64,3.073-1.505,4.674-2.321L54.474,60.978z"/>
	<path class="st0" d="M78.782,58.657h-2.945l0.304-0.496c-0.417-0.208-0.96-0.448-1.569-0.72c1.393-0.896,2.865-2.049,3.954-3.137
		l-1.088-0.832l-0.32,0.08h-9.716v1.376h8.259c-0.752,0.672-1.712,1.377-2.593,1.889c-0.944-0.4-1.905-0.768-2.705-1.089
		l-0.769,1.12c1.249,0.496,2.833,1.2,4.13,1.809h-7.827v1.425h6.435v5.538c0,0.24-0.08,0.304-0.384,0.32
		c-0.304,0-1.424,0.016-2.465-0.032c0.208,0.4,0.464,1.024,0.56,1.441c1.376,0,2.353-0.016,2.993-0.24
		c0.64-0.208,0.849-0.624,0.849-1.457v-5.57h3.985c-0.48,0.832-1.072,1.681-1.568,2.257l1.248,0.752
		c0.929-1.008,1.937-2.577,2.721-4.002l-1.216-0.528L78.782,58.657z"/>
	<path class="st0" d="M92.429,62.643c-0.352-0.992-1.296-2.513-2.161-3.601l-1.2,0.592c0.848,1.152,1.729,2.705,2.049,3.681
		L92.429,62.643z"/>
	<path class="st0" d="M85.53,58.257c0.24,0.4,0.464,0.832,0.672,1.281l-2.129,0.08c1.072-1.328,2.273-3.089,3.185-4.546
		l-1.264-0.544c-0.417,0.832-0.993,1.825-1.617,2.785c-0.208-0.288-0.48-0.608-0.784-0.928c0.576-0.864,1.249-2.129,1.825-3.217
		l-1.345-0.48c-0.288,0.864-0.816,2.017-1.312,2.897L82.329,55.2l-0.72,0.992c0.704,0.672,1.521,1.537,2.017,2.241
		c-0.32,0.448-0.624,0.864-0.928,1.249l-1.121,0.032l0.128,1.312c0.736-0.048,1.585-0.096,2.497-0.144v6.515h1.329v-6.595
		l1.185-0.08c0.128,0.336,0.224,0.64,0.288,0.896l1.136-0.544c-0.224-0.88-0.88-2.241-1.537-3.281L85.53,58.257z"/>
	<path class="st0" d="M81.432,65.588c0.304,0.112,0.896,0.384,1.137,0.56c0.496-1.024,0.864-2.577,1.072-4.082l-1.265-0.224
		C82.216,63.219,81.913,64.627,81.432,65.588z"/>
	<path class="st0" d="M85.882,62.13c0.4,0.976,0.833,2.241,0.977,3.073l1.185-0.416c-0.176-0.816-0.608-2.065-1.041-3.025
		L85.882,62.13z"/>
	<path class="st0" d="M91.244,53.023l-1.521-0.352c-0.561,2.097-1.553,4.178-2.769,5.474c0.352,0.208,1.024,0.64,1.312,0.896
		c0.496-0.592,0.976-1.329,1.408-2.145h4.882c-0.208,5.874-0.464,8.243-0.977,8.755c-0.176,0.208-0.352,0.272-0.688,0.272
		c-0.384,0-1.344-0.016-2.385-0.096c0.288,0.416,0.464,1.056,0.496,1.489c0.944,0.048,1.921,0.064,2.465-0.016
		c0.624-0.064,1.024-0.208,1.408-0.736c0.672-0.816,0.88-3.313,1.153-10.372v-0.72h-5.667C90.7,54.687,91.004,53.855,91.244,53.023z
		"/>
	<path class="st0" d="M59.693,22.838c-0.464,0-0.896,0.32-0.896,0.752c0,0.16,0.064,0.32,0.192,0.496
		c0.416,0.544,0.848,1.2,1.185,1.761c0.208,0.352,0.544,0.496,0.848,0.496c0.464,0,0.896-0.32,0.896-0.8
		c0-0.16-0.048-0.32-0.144-0.496c-0.32-0.544-0.848-1.281-1.329-1.857C60.237,22.934,59.965,22.838,59.693,22.838z"/>
	<path class="st0" d="M57.084,23.494c-0.192-0.336-0.528-0.496-0.833-0.496c-0.432,0-0.816,0.272-0.816,0.688
		c0,0.112,0.016,0.224,0.08,0.352c0.24,0.512,0.512,1.169,0.704,1.713c0.144,0.4,0.496,0.592,0.833,0.592
		c0.448,0,0.864-0.288,0.864-0.784c0-0.096-0.016-0.208-0.048-0.32C57.676,24.678,57.356,23.99,57.084,23.494z"/>
	<path class="st0" d="M49.721,26.295c0.464-0.624,0.88-1.377,1.216-2.113c0.064-0.128,0.08-0.256,0.08-0.368
		c0-0.48-0.448-0.816-0.913-0.816c-0.304,0-0.608,0.144-0.768,0.496c-0.288,0.608-0.72,1.329-1.168,1.921
		c-0.128,0.16-0.176,0.336-0.176,0.496c0,0.448,0.432,0.832,0.913,0.832C49.193,26.743,49.481,26.615,49.721,26.295z"/>
	<path class="st0" d="M53.531,26.471c0.496,0,0.976-0.352,0.864-0.96c-0.112-0.592-0.32-1.312-0.496-1.793
		c-0.144-0.432-0.512-0.624-0.849-0.624c-0.432,0-0.848,0.288-0.848,0.752c0,0.08,0.016,0.16,0.048,0.256
		c0.16,0.496,0.32,1.168,0.432,1.681C52.778,26.247,53.163,26.471,53.531,26.471z"/>
	<path class="st0" d="M48.056,18.82h2.177v2.145h-1.537c-0.417,0-0.641,0.368-0.641,0.736s0.224,0.736,0.641,0.736h12.421
		c0.432,0,0.64-0.368,0.64-0.736s-0.208-0.736-0.64-0.736h-1.152V18.82h1.776c0.433,0,0.641-0.384,0.641-0.752
		c0-0.384-0.208-0.752-0.641-0.752h-1.776v-2.049h0.88c0.432,0,0.64-0.368,0.64-0.736s-0.208-0.736-0.64-0.736h-8.852
		c0.144-0.24,0.288-0.464,0.4-0.688c0.064-0.128,0.08-0.24,0.08-0.352c0-0.448-0.448-0.752-0.912-0.752
		c-0.272,0-0.544,0.112-0.705,0.4c-0.544,1.072-1.44,2.225-2.305,3.009c-0.192,0.176-0.272,0.384-0.272,0.576
		c0,0.416,0.4,0.784,0.865,0.784c0.224,0,0.448-0.08,0.672-0.272c0.144-0.128,0.272-0.256,0.417-0.4v1.217h-2.177
		c-0.416,0-0.64,0.368-0.64,0.752C47.416,18.436,47.64,18.82,48.056,18.82z M57.196,15.266h1.168v2.049h-1.168V15.266z
		 M57.196,18.82h1.168v2.145h-1.168V18.82z M54.491,15.266h1.136v2.049h-1.136V15.266z M54.491,18.82h1.136v2.145h-1.136V18.82z
		 M51.834,15.266h1.088v2.049h-1.088V15.266z M51.834,18.82h1.088v2.145h-1.088V18.82z"/>
	<path class="st0" d="M82.382,25.351c0-0.304-0.16-0.624-0.544-0.832c-0.432-0.256-0.848-0.512-1.232-0.8
		c-0.688-0.512-1.312-1.12-1.856-1.777c-1.024-1.249-1.777-2.705-2.305-4.226c-0.32-0.928-0.528-1.873-0.704-2.833
		c0.032-0.528,0.048-1.089,0.048-1.681c0-0.512-0.464-0.768-0.913-0.768c-0.464,0-0.928,0.256-0.928,0.768
		c0,4.226-0.752,6.643-2.129,8.515c-0.944,1.281-2.289,2.369-3.569,3.089c-0.336,0.192-0.48,0.48-0.48,0.784
		c0,0.448,0.336,0.88,0.848,0.88c0.176,0,0.368-0.048,0.56-0.16c1.457-0.816,2.993-2.161,4.018-3.537
		c0.913-1.233,1.569-2.609,1.953-4.162c1.056,3.345,3.169,6.083,5.826,7.555c0.16,0.096,0.336,0.128,0.48,0.128
		C81.982,26.295,82.382,25.831,82.382,25.351z"/>
	
		<rect x="41.17" y="13.12" transform="matrix(0.9415 -0.3369 0.3369 0.9415 -4.2341 15.198)" class="st0" width="1" height="13.355"/>
	
		<rect x="39.048" y="18.001" transform="matrix(0.8789 -0.4771 0.4771 0.8789 -6.2227 21.6646)" class="st0" width="1" height="10.168"/>
	
		<rect x="81.652" y="19.298" transform="matrix(0.337 -0.9415 0.9415 0.337 39.9267 96.2915)" class="st0" width="13.355" height="1"/>
	
		<rect x="85.369" y="22.585" transform="matrix(0.4771 -0.8789 0.8789 0.4771 27.0123 91.5683)" class="st0" width="10.168" height="1"/>
</g>
</svg>
