<?xml version="1.0" encoding="utf-8"?>
<!-- Generator: Adobe Illustrator 26.0.3, SVG Export Plug-In . SVG Version: 6.00 Build 0)  -->
<svg version="1.1" id="レイヤー_1" xmlns="http://www.w3.org/2000/svg" xmlns:xlink="http://www.w3.org/1999/xlink" x="0px"
	 y="0px" width="60px" height="180px" viewBox="0 0 60 180" style="enable-background:new 0 0 60 180;" xml:space="preserve">
<style type="text/css">
	.st0{fill:#FFFFFF;}
	.st1{fill:#DCDCDC;}
	.st2{fill:#EBEBEB;}
</style>
<g>
	<g>
		<g>
			<g>
				<path class="st0" d="M35.273,76.39h7.428c0.512,0,0.977-0.032,1.328-0.064v1.585c-0.385-0.032-0.769-0.048-1.328-0.048h-3.857
					v2.993h4.994c0.319,0,1.008-0.032,1.393-0.064v1.601c-0.4-0.016-1.025-0.032-1.361-0.032h-5.025v2.753
					c0,0.8,0.527,1.201,1.872,1.201c1.44,0,2.753-0.08,4.065-0.224l-0.111,1.665c-1.121,0.08-2.737,0.128-4.21,0.128
					c-2.562,0-3.281-0.88-3.281-2.273v-3.249h-2.817c-0.416,0-1.104,0.032-1.553,0.064v-1.649c0.432,0.048,1.121,0.08,1.553,0.08
					h2.817v-2.993h-1.905c-0.544,0-1.008,0.016-1.44,0.048v-1.585C34.266,76.374,34.729,76.39,35.273,76.39z"/>
				<path class="st0" d="M33.896,95.528h10.164c0.337,0,0.913-0.017,1.313-0.08v1.616c-0.368-0.016-0.896-0.032-1.313-0.032H40.22
					c-0.097,1.649-0.479,3.01-1.072,4.114c-0.656,1.152-1.793,2.209-3.138,2.913l-1.44-1.072c1.152-0.465,2.241-1.265,2.913-2.306
					c0.672-1.024,0.961-2.257,1.041-3.649h-4.627c-0.479,0-0.992,0.017-1.408,0.048v-1.632C32.921,95.496,33.4,95.528,33.896,95.528
					z M35.818,91.622h5.394c0.497,0,1.073-0.032,1.553-0.096v1.601c-0.496-0.032-1.056-0.048-1.553-0.048h-5.378
					c-0.528,0-1.104,0.016-1.537,0.048v-1.601C34.762,91.59,35.306,91.622,35.818,91.622z M44.813,92.471l-1.024,0.448
					c-0.305-0.641-0.816-1.568-1.232-2.161l1.008-0.416C43.949,90.902,44.51,91.862,44.813,92.471z M46.59,91.799l-0.992,0.447
					c-0.336-0.672-0.832-1.552-1.264-2.145l0.992-0.416C45.727,90.262,46.318,91.238,46.59,91.799z"/>
				<path class="st0" d="M34.953,113.978c0.433-1.393,0.433-4.418,0.433-6.211c0-0.528-0.032-0.912-0.112-1.265h1.825
					c-0.017,0.129-0.08,0.721-0.08,1.249c0,1.776-0.032,5.026-0.48,6.643c-0.464,1.696-1.456,3.218-2.769,4.354l-1.488-0.992
					C33.609,116.795,34.489,115.402,34.953,113.978z M39.547,116.906v-9.203c0-0.641-0.096-1.152-0.111-1.232h1.824
					c-0.016,0.08-0.096,0.607-0.096,1.232v8.595c1.361-0.607,3.121-1.937,4.226-3.569l0.96,1.345
					c-1.328,1.745-3.521,3.378-5.297,4.273c-0.289,0.145-0.465,0.288-0.593,0.4l-1.04-0.864
					C39.5,117.627,39.547,117.259,39.547,116.906z"/>
				<path class="st0" d="M36.139,122.295l1.792,0.353c-0.128,0.399-0.256,0.976-0.319,1.328c-0.225,1.04-0.785,3.249-1.377,4.771
					c-0.561,1.472-1.441,3.137-2.289,4.354l-1.713-0.721c0.977-1.28,1.857-2.945,2.4-4.258
					C35.322,126.44,35.945,124.168,36.139,122.295z M40.043,122.631l1.617-0.528c0.625,1.169,1.648,3.426,2.289,4.994
					c0.592,1.473,1.408,3.906,1.824,5.378l-1.809,0.561c-0.4-1.681-1.04-3.745-1.664-5.394
					C41.692,126.024,40.716,123.8,40.043,122.631z"/>
				<path class="st0" d="M39.756,137.143v1.521h3.152c0.609,0,0.93-0.063,1.169-0.144l1.057,0.672
					c-0.112,0.256-0.224,0.753-0.272,1.057c-0.24,1.345-0.672,3.105-1.488,4.546c-1.201,2.145-3.426,3.762-6.242,4.514l-1.217-1.44
					c0.576-0.096,1.297-0.288,1.856-0.496c1.44-0.496,3.009-1.568,3.922-2.961c0.816-1.232,1.265-2.93,1.425-4.29H35.05v2.545
					c0,0.304,0.016,0.752,0.063,1.024h-1.856c0.048-0.32,0.063-0.769,0.063-1.12v-2.722c0-0.336,0-0.896-0.063-1.248
					c0.496,0.048,0.96,0.063,1.521,0.063h3.297v-1.521c0-0.384-0.016-0.72-0.111-1.28h1.904
					C39.787,136.423,39.756,136.759,39.756,137.143z"/>
				<path class="st0" d="M43.438,153.352c-0.529,1.281-1.457,3.041-2.529,4.45c1.584,1.36,3.489,3.361,4.449,4.529l-1.393,1.217
					c-1.023-1.393-2.576-3.121-4.113-4.53c-1.648,1.777-3.746,3.426-5.971,4.467l-1.264-1.329c2.513-0.944,4.85-2.833,6.402-4.546
					c1.04-1.185,2.08-2.929,2.465-4.13h-5.778c-0.593,0-1.44,0.064-1.681,0.097v-1.729c0.305,0.031,1.217,0.096,1.681,0.096h5.826
					c0.593,0,1.089-0.064,1.36-0.16l1.009,0.769C43.789,152.695,43.564,153.096,43.438,153.352z"/>
				<path class="st0" d="M22.764,82.809c1.408,1.825,3.617,3.537,5.682,4.434c-0.32,0.304-0.8,0.864-1.041,1.265
					c-2.033-1.024-4.114-2.833-5.618-4.818v5.394h-1.569v-5.362c-1.504,1.969-3.585,3.729-5.602,4.738
					c-0.24-0.384-0.72-0.944-1.057-1.249c2.081-0.88,4.29-2.577,5.73-4.402h-5.346v-1.44h6.274v-3.714h-5.522V76.23h5.522v-1.841
					h1.569v1.841h5.65v1.424h-5.65v3.714h6.291v1.44H22.764z M17.209,77.847c0.608,0.912,1.233,2.113,1.441,2.913l-1.409,0.56
					c-0.192-0.784-0.752-2.049-1.345-2.977L17.209,77.847z M23.404,80.904c0.528-0.848,1.152-2.161,1.504-3.105l1.553,0.464
					c-0.56,1.088-1.232,2.305-1.777,3.073L23.404,80.904z"/>
				<path class="st0" d="M18.794,99.993c-1.601,0.816-3.33,1.681-4.674,2.321l-0.576-1.489c0.576-0.224,1.296-0.528,2.081-0.864
					v-4.77h-1.761v-1.408h1.761v-3.234h1.376v3.234h1.617v1.408h-1.617v4.161c0.48-0.224,0.977-0.448,1.473-0.672L18.794,99.993z
					 M21.899,98.104c-0.176,0.336-0.368,0.656-0.592,0.96h6.691c0,0-0.016,0.368-0.032,0.561c-0.256,3.201-0.496,4.45-0.928,4.93
					c-0.272,0.305-0.576,0.4-0.96,0.448c-0.368,0.032-0.96,0.048-1.601,0.017c-0.016-0.353-0.144-0.881-0.336-1.201
					c0.544,0.064,1.041,0.064,1.249,0.064c0.24,0,0.368-0.016,0.496-0.176c0.24-0.272,0.448-1.185,0.64-3.441h-0.96
					c-0.64,1.856-1.889,3.857-3.217,4.865c-0.24-0.271-0.704-0.624-1.072-0.832c1.249-0.832,2.369-2.417,3.041-4.033h-1.264
					c-0.865,1.584-2.385,3.281-3.81,4.178c-0.224-0.305-0.641-0.673-0.993-0.896c1.265-0.673,2.577-1.953,3.458-3.281h-1.345
					c-0.608,0.672-1.28,1.248-1.969,1.713c-0.208-0.24-0.72-0.721-1.008-0.929c1.201-0.688,2.289-1.729,3.025-2.945h-2.049V96.84
					h10.004v1.265H21.899z M27.246,96.071h-7.395v-5.25h7.395V96.071z M25.869,91.894h-4.674v1.041h4.674V91.894z M25.869,93.942
					h-4.674v1.057h4.674V93.942z"/>
				<path class="st0" d="M28.27,112.792c-0.784,1.425-1.792,2.993-2.721,4.002l-1.249-0.753c0.496-0.576,1.088-1.424,1.568-2.257
					h-3.985v5.57c0,0.832-0.208,1.249-0.849,1.457c-0.64,0.224-1.617,0.239-2.993,0.239c-0.096-0.416-0.352-1.04-0.56-1.44
					c1.041,0.048,2.161,0.032,2.465,0.032c0.304-0.016,0.384-0.08,0.384-0.32v-5.538h-6.435v-1.425h7.827
					c-1.296-0.607-2.881-1.312-4.13-1.809l0.769-1.12c0.8,0.32,1.761,0.688,2.705,1.089c0.88-0.513,1.841-1.217,2.593-1.89h-8.259
					v-1.376h9.716l0.32-0.08l1.088,0.832c-1.088,1.089-2.561,2.241-3.954,3.138c0.608,0.271,1.152,0.512,1.569,0.72l-0.304,0.496
					h2.945l0.272-0.096L28.27,112.792z"/>
				<path class="st0" d="M15.641,131.77c-0.208,1.504-0.576,3.057-1.072,4.081c-0.24-0.176-0.833-0.448-1.137-0.56
					c0.48-0.961,0.784-2.369,0.944-3.746L15.641,131.77z M18.602,127.495c0.656,1.041,1.312,2.401,1.537,3.281l-1.136,0.545
					c-0.064-0.257-0.16-0.561-0.288-0.896l-1.185,0.08v6.595h-1.329v-6.515c-0.912,0.048-1.761,0.096-2.497,0.144l-0.128-1.312
					l1.121-0.032c0.304-0.384,0.608-0.8,0.928-1.248c-0.496-0.704-1.312-1.568-2.017-2.241l0.72-0.992
					c0.144,0.128,0.288,0.256,0.432,0.384c0.496-0.88,1.024-2.032,1.312-2.896l1.345,0.479c-0.577,1.089-1.249,2.354-1.825,3.218
					c0.304,0.32,0.576,0.641,0.784,0.929c0.624-0.961,1.2-1.953,1.617-2.785l1.264,0.544c-0.912,1.456-2.113,3.217-3.185,4.546
					l2.129-0.08c-0.208-0.448-0.432-0.881-0.672-1.28L18.602,127.495z M19.002,131.465c0.432,0.961,0.864,2.209,1.041,3.025
					l-1.185,0.416c-0.144-0.832-0.576-2.097-0.977-3.073L19.002,131.465z M28.03,125.895c-0.272,7.059-0.48,9.556-1.153,10.372
					c-0.384,0.528-0.784,0.673-1.408,0.736c-0.544,0.08-1.521,0.064-2.465,0.017c-0.032-0.433-0.208-1.072-0.496-1.489
					c1.041,0.08,2.001,0.097,2.385,0.097c0.336,0,0.512-0.064,0.688-0.272c0.512-0.512,0.769-2.881,0.977-8.756h-4.882
					c-0.432,0.816-0.912,1.553-1.408,2.146c-0.288-0.256-0.96-0.688-1.312-0.896c1.216-1.297,2.208-3.377,2.769-5.475l1.521,0.353
					c-0.24,0.832-0.544,1.665-0.88,2.449h5.667V125.895z M23.116,133.018c-0.32-0.977-1.201-2.529-2.049-3.682l1.2-0.592
					c0.865,1.088,1.809,2.608,2.161,3.602L23.116,133.018z"/>
			</g>
		</g>
		<g>
			<g>
				<path class="st0" d="M20.482,59.516h-1.631c-0.312,0-0.48-0.288-0.48-0.564c0-0.288,0.168-0.563,0.48-0.563h1.631v-0.912
					c-0.108,0.108-0.204,0.204-0.312,0.3c-0.168,0.144-0.336,0.204-0.504,0.204c-0.348,0-0.647-0.276-0.647-0.588
					c0-0.144,0.06-0.3,0.204-0.432c0.648-0.588,1.319-1.451,1.727-2.255c0.12-0.216,0.324-0.3,0.528-0.3
					c0.348,0,0.684,0.228,0.684,0.564c0,0.084-0.012,0.168-0.06,0.264c-0.084,0.168-0.192,0.336-0.3,0.516h6.632
					c0.324,0,0.48,0.276,0.48,0.552s-0.156,0.552-0.48,0.552h-0.66v1.535h1.332c0.324,0,0.479,0.276,0.479,0.563
					c0,0.276-0.156,0.564-0.479,0.564h-1.332v1.607h0.864c0.324,0,0.479,0.276,0.479,0.552s-0.156,0.552-0.479,0.552h-9.307
					c-0.312,0-0.479-0.276-0.479-0.552s0.168-0.552,0.479-0.552h1.151V59.516z M20.387,62.646c0.348,0,0.684,0.251,0.684,0.611
					c0,0.084-0.012,0.18-0.06,0.276c-0.252,0.552-0.563,1.116-0.912,1.583c-0.18,0.24-0.396,0.335-0.611,0.335
					c-0.36,0-0.684-0.288-0.684-0.624c0-0.12,0.036-0.252,0.132-0.372c0.336-0.443,0.66-0.983,0.875-1.439
					C19.931,62.754,20.159,62.646,20.387,62.646z M22.498,58.389v-1.535h-0.815v1.535H22.498z M22.498,61.123v-1.607h-0.815v1.607
					H22.498z M23.601,64.529c0.084,0.456-0.276,0.72-0.648,0.72c-0.276,0-0.563-0.168-0.636-0.516
					c-0.083-0.384-0.204-0.888-0.324-1.26c-0.024-0.072-0.036-0.132-0.036-0.192c0-0.348,0.312-0.563,0.635-0.563
					c0.252,0,0.528,0.144,0.636,0.468C23.361,63.546,23.517,64.085,23.601,64.529z M23.673,58.389h0.852v-1.535h-0.852V58.389z
					 M23.673,61.123h0.852v-1.607h-0.852V61.123z M26.204,64.325c0.024,0.084,0.036,0.168,0.036,0.24
					c0,0.372-0.312,0.587-0.647,0.587c-0.252,0-0.516-0.144-0.624-0.444c-0.144-0.408-0.348-0.899-0.528-1.283
					c-0.048-0.096-0.06-0.18-0.06-0.264c0-0.312,0.288-0.516,0.612-0.516c0.228,0,0.479,0.12,0.624,0.372
					C25.82,63.39,26.06,63.906,26.204,64.325z M25.7,58.389h0.875v-1.535H25.7V58.389z M25.7,61.123h0.875v-1.607H25.7V61.123z
					 M29.13,64.182c0.072,0.132,0.108,0.251,0.108,0.372c0,0.36-0.324,0.6-0.671,0.6c-0.228,0-0.48-0.108-0.636-0.372
					c-0.252-0.42-0.576-0.912-0.888-1.319c-0.096-0.132-0.144-0.252-0.144-0.372c0-0.324,0.324-0.563,0.672-0.563
					c0.204,0,0.408,0.072,0.563,0.264C28.494,63.222,28.89,63.773,29.13,64.182z"/>
				<path class="st0" d="M37.016,58.688c0.396,1.139,0.96,2.23,1.728,3.166c0.407,0.492,0.876,0.948,1.392,1.332
					c0.287,0.216,0.6,0.408,0.924,0.6c0.287,0.156,0.407,0.396,0.407,0.624c0,0.36-0.3,0.708-0.696,0.708
					c-0.107,0-0.239-0.024-0.359-0.096c-1.99-1.104-3.574-3.154-4.365-5.661c-0.288,1.163-0.779,2.194-1.463,3.118
					c-0.768,1.031-1.92,2.039-3.011,2.65c-0.144,0.084-0.288,0.12-0.42,0.12c-0.384,0-0.636-0.324-0.636-0.66
					c0-0.228,0.108-0.444,0.36-0.588c0.959-0.54,1.966-1.355,2.674-2.315c1.032-1.403,1.595-3.214,1.595-6.38
					c0-0.384,0.349-0.576,0.696-0.576c0.336,0,0.684,0.192,0.684,0.576c0,0.444-0.013,0.864-0.036,1.259
					C36.62,57.285,36.776,57.993,37.016,58.688z"/>
			</g>
			<g>
				
					<rect x="13.026" y="54.923" transform="matrix(0.9415 -0.3369 0.3369 0.9415 -19.4598 8.0719)" class="st0" width="1" height="10.354"/>
				
					<rect x="11.38" y="58.707" transform="matrix(0.8789 -0.4771 0.4771 0.8789 -28.4483 13.2564)" class="st0" width="1" height="7.883"/>
			</g>
			<g>
				
					<rect x="41.297" y="59.6" transform="matrix(0.337 -0.9415 0.9415 0.337 -25.7713 83.6056)" class="st0" width="10.354" height="1"/>
				
					<rect x="44.178" y="62.149" transform="matrix(0.4774 -0.8787 0.8787 0.4774 -29.9014 75.0209)" class="st0" width="7.883" height="1"/>
			</g>
		</g>
	</g>
	<g>
		<polygon class="st1" points="30,34.5 15,41 15,15 30,15 		"/>
		<polygon class="st2" points="45,41 30,34.5 30,15 45,15 		"/>
	</g>
</g>
</svg>
