<svg xmlns="http://www.w3.org/2000/svg" width="135.296" height="60" viewBox="0 0 135.296 60">
  <defs>
    <style>
      .e5a6a2ce-0226-40cf-b927-af5b84b8a2d7 {
        fill-rule: evenodd;
      }
    </style>
  </defs>
  <g id="f67174f0-b19a-466b-83ae-83ffa67d2be3" data-name="レイヤー 2">
    <g id="f3cdd9a5-504d-4b85-a578-06c76e21cf50" data-name="レイヤー 1">
      <g>
        <g>
          <path d="M23.813,53.109H26.17a1.6,1.6,0,0,1,1.129.4,1.438,1.438,0,0,1,.429,1.113,1.625,1.625,0,0,1-.383,1.074,1.449,1.449,0,0,1-1.174.457H24.527v2.226h-.714Zm2.767.724a1.531,1.531,0,0,0-.644-.111H24.527v1.825h1.409a1.346,1.346,0,0,0,.775-.2.816.816,0,0,0,.3-.721A.8.8,0,0,0,26.58,53.833Z"/>
          <path d="M31.349,56.052a.353.353,0,0,0,.3-.186.566.566,0,0,0,.043-.248.527.527,0,0,0-.234-.481,1.259,1.259,0,0,0-.671-.149.85.85,0,0,0-.716.274.9.9,0,0,0-.153.45h-.6a1.117,1.117,0,0,1,.46-.991,1.891,1.891,0,0,1,1.026-.278,2.09,2.09,0,0,1,1.1.258.877.877,0,0,1,.419.8v2.212a.282.282,0,0,0,.041.162.2.2,0,0,0,.174.061.9.9,0,0,0,.1-.006c.035,0,.074-.009.114-.016v.477a1.907,1.907,0,0,1-.229.054,1.735,1.735,0,0,1-.215.01.531.531,0,0,1-.484-.236.9.9,0,0,1-.111-.355,1.656,1.656,0,0,1-.567.448,1.747,1.747,0,0,1-.814.19,1.216,1.216,0,0,1-.873-.324,1.074,1.074,0,0,1-.338-.811,1.046,1.046,0,0,1,.333-.827,1.59,1.59,0,0,1,.875-.362ZM29.99,57.8a.758.758,0,0,0,.484.16,1.475,1.475,0,0,0,.66-.157.887.887,0,0,0,.537-.856v-.519a1.065,1.065,0,0,1-.3.127,2.585,2.585,0,0,1-.365.072l-.389.05a1.5,1.5,0,0,0-.528.146.569.569,0,0,0-.3.536A.53.53,0,0,0,29.99,57.8Z"/>
          <path d="M34.674,57.171a.926.926,0,0,0,.165.495,1.043,1.043,0,0,0,.863.312,1.314,1.314,0,0,0,.644-.155.519.519,0,0,0,.278-.483.412.412,0,0,0-.222-.377,2.714,2.714,0,0,0-.561-.182l-.521-.13a2.571,2.571,0,0,1-.736-.272.812.812,0,0,1-.423-.724,1.1,1.1,0,0,1,.4-.882,1.6,1.6,0,0,1,1.07-.337,1.492,1.492,0,0,1,1.268.509,1.1,1.1,0,0,1,.236.7h-.609a.731.731,0,0,0-.158-.4,1.024,1.024,0,0,0-.789-.254.962.962,0,0,0-.567.14.433.433,0,0,0-.193.368.453.453,0,0,0,.254.4,1.527,1.527,0,0,0,.431.157l.435.1a3.392,3.392,0,0,1,.949.327.862.862,0,0,1,.376.778,1.181,1.181,0,0,1-.393.885,1.69,1.69,0,0,1-1.2.373,1.616,1.616,0,0,1-1.229-.39,1.45,1.45,0,0,1-.386-.962Z"/>
          <path d="M39.3,57.171a.926.926,0,0,0,.165.495,1.047,1.047,0,0,0,.864.312,1.319,1.319,0,0,0,.644-.155.52.52,0,0,0,.278-.483.413.413,0,0,0-.223-.377,2.714,2.714,0,0,0-.561-.182l-.521-.13a2.571,2.571,0,0,1-.736-.272.813.813,0,0,1-.422-.724,1.1,1.1,0,0,1,.4-.882,1.6,1.6,0,0,1,1.071-.337,1.494,1.494,0,0,1,1.268.509,1.1,1.1,0,0,1,.236.7h-.61a.724.724,0,0,0-.158-.4,1.021,1.021,0,0,0-.789-.254.964.964,0,0,0-.567.14.434.434,0,0,0-.192.368.452.452,0,0,0,.253.4,1.539,1.539,0,0,0,.431.157l.435.1a3.38,3.38,0,0,1,.949.327.863.863,0,0,1,.377.778,1.182,1.182,0,0,1-.394.885,1.69,1.69,0,0,1-1.2.373,1.613,1.613,0,0,1-1.228-.39,1.455,1.455,0,0,1-.387-.962Z"/>
          <path d="M43.505,53.109h.657v.732h-.657Zm0,1.445h.657v3.822h-.657Z"/>
          <path d="M46.373,54.536,47.4,57.662l1.069-3.126h.706l-1.445,3.84H47.04l-1.416-3.84Z"/>
          <path d="M52.884,54.641a1.457,1.457,0,0,1,.58.5,1.718,1.718,0,0,1,.257.678,4.462,4.462,0,0,1,.057.846H50.985a1.671,1.671,0,0,0,.274.941.917.917,0,0,0,.794.353,1.022,1.022,0,0,0,.8-.334,1.15,1.15,0,0,0,.237-.451h.634a1.334,1.334,0,0,1-.166.472,1.742,1.742,0,0,1-.316.425,1.491,1.491,0,0,1-.723.387,2.187,2.187,0,0,1-.523.057,1.6,1.6,0,0,1-1.207-.522,2.031,2.031,0,0,1-.5-1.46,2.22,2.22,0,0,1,.5-1.5,1.645,1.645,0,0,1,1.3-.577A1.756,1.756,0,0,1,52.884,54.641Zm.231,1.509a1.7,1.7,0,0,0-.181-.671.928.928,0,0,0-.878-.466.967.967,0,0,0-.74.321A1.217,1.217,0,0,0,51,56.15Z"/>
          <path d="M60.214,54.654a1.771,1.771,0,0,1,.389.377v-1.94h.62v5.285h-.581v-.534a1.392,1.392,0,0,1-.532.512,1.511,1.511,0,0,1-.7.158,1.424,1.424,0,0,1-1.107-.539,2.118,2.118,0,0,1-.468-1.436,2.474,2.474,0,0,1,.427-1.453,1.391,1.391,0,0,1,1.219-.616A1.364,1.364,0,0,1,60.214,54.654Zm-1.441,2.879a.909.909,0,0,0,.835.416.878.878,0,0,0,.732-.385,1.826,1.826,0,0,0,.288-1.106,1.648,1.648,0,0,0-.3-1.078.926.926,0,0,0-.731-.349.963.963,0,0,0-.787.373,1.712,1.712,0,0,0-.3,1.1A1.905,1.905,0,0,0,58.773,57.533Z"/>
          <path d="M65.462,54.641a1.467,1.467,0,0,1,.581.5,1.732,1.732,0,0,1,.256.678,4.462,4.462,0,0,1,.057.846H63.563a1.671,1.671,0,0,0,.274.941.917.917,0,0,0,.794.353,1.022,1.022,0,0,0,.8-.334,1.15,1.15,0,0,0,.237-.451H66.3a1.334,1.334,0,0,1-.166.472,1.742,1.742,0,0,1-.316.425,1.491,1.491,0,0,1-.723.387,2.187,2.187,0,0,1-.523.057,1.6,1.6,0,0,1-1.207-.522,2.031,2.031,0,0,1-.5-1.46,2.22,2.22,0,0,1,.5-1.5,1.645,1.645,0,0,1,1.3-.577A1.756,1.756,0,0,1,65.462,54.641Zm.231,1.509a1.7,1.7,0,0,0-.181-.671.928.928,0,0,0-.878-.466.967.967,0,0,0-.74.321,1.217,1.217,0,0,0-.316.816Z"/>
          <path d="M68.43,57.171a.934.934,0,0,0,.165.495,1.047,1.047,0,0,0,.864.312,1.317,1.317,0,0,0,.644-.155.519.519,0,0,0,.278-.483.411.411,0,0,0-.223-.377,2.7,2.7,0,0,0-.56-.182l-.521-.13a2.568,2.568,0,0,1-.737-.272.813.813,0,0,1-.422-.724,1.1,1.1,0,0,1,.4-.882,1.6,1.6,0,0,1,1.07-.337,1.493,1.493,0,0,1,1.268.509,1.1,1.1,0,0,1,.236.7h-.61a.716.716,0,0,0-.158-.4,1.02,1.02,0,0,0-.788-.254.965.965,0,0,0-.568.14.434.434,0,0,0-.192.368.453.453,0,0,0,.253.4,1.552,1.552,0,0,0,.431.157l.435.1a3.367,3.367,0,0,1,.949.327.863.863,0,0,1,.377.778,1.184,1.184,0,0,1-.393.885,1.692,1.692,0,0,1-1.2.373,1.614,1.614,0,0,1-1.229-.39,1.455,1.455,0,0,1-.387-.962Z"/>
          <path d="M72.637,53.109h.656v.732h-.656Zm0,1.445h.656v3.822h-.656Z"/>
          <path d="M77.332,54.69a1.789,1.789,0,0,1,.372.366v-.484h.6v3.492a2.577,2.577,0,0,1-.215,1.154A1.538,1.538,0,0,1,76.573,60a1.856,1.856,0,0,1-1.039-.277,1.086,1.086,0,0,1-.472-.87h.656a.733.733,0,0,0,.185.4,1.168,1.168,0,0,0,1.65-.309,2.94,2.94,0,0,0,.126-1.1,1.254,1.254,0,0,1-.465.437,1.657,1.657,0,0,1-1.8-.3,1.958,1.958,0,0,1-.466-1.465,2.225,2.225,0,0,1,.47-1.506,1.452,1.452,0,0,1,1.134-.541A1.387,1.387,0,0,1,77.332,54.69Zm.079.692a.936.936,0,0,0-.746-.344.921.921,0,0,0-.927.638,2.541,2.541,0,0,0-.131.893,1.6,1.6,0,0,0,.261.988.847.847,0,0,0,.7.338.986.986,0,0,0,.973-.627,2.028,2.028,0,0,0,.158-.828A1.608,1.608,0,0,0,77.411,55.382Z"/>
          <path d="M80.159,54.536h.613v.545a1.711,1.711,0,0,1,.577-.484,1.539,1.539,0,0,1,.678-.147,1.118,1.118,0,0,1,1.1.57,2.03,2.03,0,0,1,.157.893v2.463h-.656v-2.42a1.305,1.305,0,0,0-.1-.567.628.628,0,0,0-.623-.358,1.243,1.243,0,0,0-.377.047.963.963,0,0,0-.466.315.949.949,0,0,0-.209.393,2.646,2.646,0,0,0-.049.579v2.011h-.645Z"/>
          <path d="M87.855,53.109h.72v2.176h2.707V53.109H92v5.267h-.721V55.913H88.575v2.463h-.72Z"/>
          <path d="M96.774,54.919a1.94,1.94,0,0,1,.509,1.455,2.5,2.5,0,0,1-.45,1.532,1.614,1.614,0,0,1-1.391.606,1.569,1.569,0,0,1-1.25-.535,2.129,2.129,0,0,1-.462-1.438A2.3,2.3,0,0,1,94.217,55a1.635,1.635,0,0,1,1.31-.572A1.727,1.727,0,0,1,96.774,54.919Zm-.4,2.552a2.422,2.422,0,0,0,.237-1.08,1.938,1.938,0,0,0-.171-.872.955.955,0,0,0-.929-.531.914.914,0,0,0-.851.452,2.107,2.107,0,0,0-.265,1.087,1.837,1.837,0,0,0,.265,1.021.935.935,0,0,0,.844.408A.878.878,0,0,0,96.372,57.471Z"/>
          <path d="M99.606,54.536v2.549a1.112,1.112,0,0,0,.091.481.631.631,0,0,0,.625.344.884.884,0,0,0,.894-.6,2.458,2.458,0,0,0,.129-.886V54.536h.645v3.84h-.609l.007-.567a1.319,1.319,0,0,1-.306.37,1.334,1.334,0,0,1-.88.3,1.129,1.129,0,0,1-1.1-.549,1.652,1.652,0,0,1-.159-.785v-2.61Z"/>
          <path d="M104.287,57.171a.918.918,0,0,0,.165.495,1.043,1.043,0,0,0,.863.312,1.317,1.317,0,0,0,.644-.155.52.52,0,0,0,.278-.483.412.412,0,0,0-.222-.377,2.729,2.729,0,0,0-.562-.182l-.521-.13a2.6,2.6,0,0,1-.736-.272.813.813,0,0,1-.422-.724,1.1,1.1,0,0,1,.4-.882,1.6,1.6,0,0,1,1.07-.337,1.493,1.493,0,0,1,1.268.509,1.1,1.1,0,0,1,.236.7h-.609a.739.739,0,0,0-.158-.4,1.025,1.025,0,0,0-.79-.254.961.961,0,0,0-.566.14.433.433,0,0,0-.193.368.451.451,0,0,0,.254.4,1.531,1.531,0,0,0,.43.157l.435.1a3.4,3.4,0,0,1,.95.327.862.862,0,0,1,.376.778,1.178,1.178,0,0,1-.394.885,1.688,1.688,0,0,1-1.2.373,1.615,1.615,0,0,1-1.228-.39,1.455,1.455,0,0,1-.386-.962Z"/>
          <path d="M110.872,54.641a1.467,1.467,0,0,1,.581.5,1.716,1.716,0,0,1,.256.678,4.36,4.36,0,0,1,.058.846h-2.793a1.663,1.663,0,0,0,.274.941.915.915,0,0,0,.793.353,1.021,1.021,0,0,0,.8-.334,1.124,1.124,0,0,0,.237-.451h.635a1.359,1.359,0,0,1-.167.472,1.742,1.742,0,0,1-.316.425,1.491,1.491,0,0,1-.723.387,2.179,2.179,0,0,1-.522.057,1.6,1.6,0,0,1-1.208-.522,2.035,2.035,0,0,1-.5-1.46,2.22,2.22,0,0,1,.5-1.5,1.645,1.645,0,0,1,1.3-.577A1.756,1.756,0,0,1,110.872,54.641Zm.232,1.509a1.711,1.711,0,0,0-.182-.671.928.928,0,0,0-.878-.466.963.963,0,0,0-.739.321,1.213,1.213,0,0,0-.317.816Z"/>
        </g>
        <g>
          <path d="M14.871,11.968h4.476a.612.612,0,0,0,.612-.612V9.175a8.72,8.72,0,0,0-2.621-6.266A10.276,10.276,0,0,0,14.23.8,9.706,9.706,0,0,0,10.267,0a10.224,10.224,0,0,0-4.42.884A8.671,8.671,0,0,0,2.8,3.249,9.927,9.927,0,0,0,.915,6.784,14.914,14.914,0,0,0,.288,11.13,14.135,14.135,0,0,0,1.573,17.5a9.26,9.26,0,0,0,5.046,4.072l4.2,1.725a14.271,14.271,0,0,1,1.764.867,3.374,3.374,0,0,1,1.092,1.066,4.628,4.628,0,0,1,.47,1.7,25.557,25.557,0,0,1,.115,2.654c0,.916-.028,1.759-.086,2.507a4.644,4.644,0,0,1-.559,1.961,3.175,3.175,0,0,1-1.325,1.267,5.171,5.171,0,0,1-2.366.441,3.79,3.79,0,0,1-3.258-1.327A4.887,4.887,0,0,1,5.7,31.483V30.337a.611.611,0,0,0-.611-.612H.612A.612.612,0,0,0,0,30.337v1.491a9.277,9.277,0,0,0,.77,3.79,10.015,10.015,0,0,0,2.08,3.051,9.387,9.387,0,0,0,3.136,2.053,10.412,10.412,0,0,0,3.937.741,11.145,11.145,0,0,0,4.737-.912,8.213,8.213,0,0,0,3.13-2.5,10.058,10.058,0,0,0,1.655-3.737,21.139,21.139,0,0,0,.514-4.782,30.977,30.977,0,0,0-.23-3.985,10.766,10.766,0,0,0-.853-3.107A7.552,7.552,0,0,0,17,20.133a11.148,11.148,0,0,0-3.141-1.74L9.375,16.61a9.155,9.155,0,0,1-1.828-.928,3.279,3.279,0,0,1-1.03-1.121,3.873,3.873,0,0,1-.441-1.468,18.641,18.641,0,0,1-.089-2.021,11.284,11.284,0,0,1,.175-2,4.914,4.914,0,0,1,.646-1.727A3.92,3.92,0,0,1,8.039,6.174a3.776,3.776,0,0,1,2-.473A3.553,3.553,0,0,1,13.3,7.2a6.363,6.363,0,0,1,.963,3.523v.629A.612.612,0,0,0,14.871,11.968Z"/>
          <path d="M48,5.587a9.546,9.546,0,0,0-2.219-3.134A10.414,10.414,0,0,0,42.609.628a10.15,10.15,0,0,0-7.018,0,9.705,9.705,0,0,0-3.106,1.824,9.22,9.22,0,0,0-2.279,3.134,10.439,10.439,0,0,0-.855,4.336V31.541a10.343,10.343,0,0,0,.854,4.393,8.788,8.788,0,0,0,2.282,3.02,9.169,9.169,0,0,0,3.106,1.881,10.112,10.112,0,0,0,7.016,0,9.845,9.845,0,0,0,3.166-1.882A9.083,9.083,0,0,0,48,35.933a10.328,10.328,0,0,0,.855-4.392V9.922A10.415,10.415,0,0,0,48,5.587ZM43.15,9.922V31.541a3.991,3.991,0,0,1-1.207,3.195,4.449,4.449,0,0,1-5.684,0,3.992,3.992,0,0,1-1.208-3.195V9.922a4,4,0,0,1,1.207-3.2,4.452,4.452,0,0,1,5.684,0A4,4,0,0,1,43.15,9.922Z"/>
          <path d="M105.982,40.31,99.944,22.476l.061-.034a8.635,8.635,0,0,0,3.9-4.043,15.129,15.129,0,0,0,1.114-6.119c0-7.92-3.453-11.935-10.267-11.935H86.021a.611.611,0,0,0-.612.612V40.506a.612.612,0,0,0,.612.612H90.5a.612.612,0,0,0,.612-.612V23.64h3.651l5.328,17.048a.612.612,0,0,0,.584.43H105.4a.612.612,0,0,0,.58-.808ZM91.108,5.7h3.13c2.051,0,3.473.565,4.21,1.649a5.6,5.6,0,0,1,.7,2.072,19.262,19.262,0,0,1,.174,2.743,19.262,19.262,0,0,1-.174,2.743,5.689,5.689,0,0,1-.645,2.015,3.446,3.446,0,0,1-1.471,1.266,5.918,5.918,0,0,1-2.507.439H91.108Z"/>
          <path d="M126.449.823a.614.614,0,0,0-.6-.478h-3.775a.614.614,0,0,0-.6.478l-8.832,39.55a.612.612,0,0,0,.6.745h4.429a.611.611,0,0,0,.6-.494l1.628-8.3h8.127l1.628,8.3a.611.611,0,0,0,.6.494h4.429a.612.612,0,0,0,.6-.745Zm.584,26.142h-6.139l3.069-15.846Z"/>
          <g>
            <g>
              <polygon class="e5a6a2ce-0226-40cf-b927-af5b84b8a2d7" points="66.42 12.873 67.13 8.826 67.841 12.873 66.42 12.873"/>
              <polygon class="e5a6a2ce-0226-40cf-b927-af5b84b8a2d7" points="63.63 13.612 62.918 9.564 64.97 13.119 63.63 13.612"/>
              <polygon class="e5a6a2ce-0226-40cf-b927-af5b84b8a2d7" points="61.251 15.252 59.199 11.725 62.372 14.349 61.251 15.252"/>
              <polygon class="e5a6a2ce-0226-40cf-b927-af5b84b8a2d7" points="59.61 17.63 56.466 14.978 60.321 16.4 59.61 17.63"/>
              <polygon class="e5a6a2ce-0226-40cf-b927-af5b84b8a2d7" points="58.872 20.42 54.989 19.026 59.09 19.026 58.872 20.42"/>
              <polygon class="e5a6a2ce-0226-40cf-b927-af5b84b8a2d7" points="75.169 19.026 79.271 19.026 75.416 20.42 75.169 19.026"/>
              <polygon class="e5a6a2ce-0226-40cf-b927-af5b84b8a2d7" points="73.966 16.4 77.822 14.978 74.678 17.63 73.966 16.4"/>
              <polygon class="e5a6a2ce-0226-40cf-b927-af5b84b8a2d7" points="71.915 14.349 75.06 11.725 73.009 15.252 71.915 14.349"/>
              <polygon class="e5a6a2ce-0226-40cf-b927-af5b84b8a2d7" points="69.291 13.119 71.341 9.564 70.63 13.612 69.291 13.119"/>
            </g>
            <g>
              <path d="M77.537,26.684a2.607,2.607,0,0,1-1.746-.64,1.857,1.857,0,0,0-2.467,0,2.7,2.7,0,0,1-3.488,0,1.85,1.85,0,0,0-2.462,0,2.692,2.692,0,0,1-3.485,0,1.847,1.847,0,0,0-2.46,0,2.685,2.685,0,0,1-3.48,0,1.771,1.771,0,0,0-1.226-.469v-.857a2.594,2.594,0,0,1,1.74.64,1.838,1.838,0,0,0,2.453,0,2.692,2.692,0,0,1,3.485,0,1.85,1.85,0,0,0,2.462,0,2.691,2.691,0,0,1,3.484,0,1.854,1.854,0,0,0,2.466,0,2.7,2.7,0,0,1,3.489,0,1.79,1.79,0,0,0,1.235.47Z"/>
              <path d="M77.537,29.876a4.1,4.1,0,0,1-1.64-.3,3.714,3.714,0,0,0-2.679,0,4.551,4.551,0,0,1-3.276,0,3.7,3.7,0,0,0-2.674,0,4.54,4.54,0,0,1-3.272,0,3.7,3.7,0,0,0-2.674,0,4.527,4.527,0,0,1-3.267,0,3.215,3.215,0,0,0-1.332-.25v-.857a4.076,4.076,0,0,1,1.633.3,3.684,3.684,0,0,0,2.668,0,4.542,4.542,0,0,1,3.27,0,3.689,3.689,0,0,0,2.675,0,4.554,4.554,0,0,1,3.272,0,3.7,3.7,0,0,0,2.678,0,4.568,4.568,0,0,1,3.277,0,3.241,3.241,0,0,0,1.341.251Z"/>
              <rect x="56.723" y="32.21" width="20.814" height="0.857"/>
            </g>
          </g>
        </g>
      </g>
    </g>
  </g>
</svg>
