<svg xmlns="http://www.w3.org/2000/svg" width="327.509" height="126.129"><g id="b4917046-c8af-4fa8-99ac-30fb1839c7c8" data-name="レイヤー 2"><path d="M12.689 17.01s.031-3.72.06-6.36a40.839 40.839 0 01-10.56 11.1 1.121 1.121 0 01-.629.21.84.84 0 01-.87-.81.856.856 0 01.45-.72A36.169 36.169 0 0012.39 8.58l-10.05.09a.722.722 0 01-.78-.69.774.774 0 01.78-.78h10.349V.66c0-.45.39-.66.81-.66a.723.723 0 01.811.66V7.2H24.6a.7.7 0 01.72.75.692.692 0 01-.72.72l-9.96-.09a35.549 35.549 0 0011.189 11.039 1 1 0 01.51.81.961.961 0 01-.96.93 1.124 1.124 0 01-.63-.21 39.733 39.733 0 01-10.5-10.8l.061 6.629v8.34a.723.723 0 01-.811.66c-.42 0-.81-.21-.81-.66zm21.871-3.33a.685.685 0 01-.69-.721.715.715 0 01.72-.749h1.8c1.98 0 3.6.09 3.6 2.459 0 1.77-.059 3.75-.059 5.94 2.37 3 5.429 3.57 10.139 3.57 3.06 0 6.3-.33 8.67-.51h.09a.8.8 0 01.84.81.889.889 0 01-.9.84c-1.95.21-4.86.39-7.709.39-7.741 0-9.661-1.47-11.911-3.93-2.009 2.25-4.319 3.78-4.859 3.78a.912.912 0 01-.87-.87.805.805 0 01.45-.69 15.91 15.91 0 004.5-3.48c.029-1.53.06-2.939.06-4.2v-1.35c0-.749-.33-1.26-1.38-1.289zm4.53-7.62a11.881 11.881 0 00-3.57-3.03.537.537 0 01-.331-.51.827.827 0 01.841-.75c.72 0 4.53 2.58 4.53 3.63a1.009 1.009 0 01-.9.99.648.648 0 01-.57-.33zm3.569 4.47a.66.66 0 010-1.32l6.66.03V5.37H45.21c-1.261 2.52-1.8 2.76-2.19 2.76a.762.762 0 01-.781-.69.565.565 0 01.12-.33 15.256 15.256 0 002.7-5.46c.059-.27.3-.36.57-.36.42 0 .93.27.93.66a14.413 14.413 0 01-.75 2.13l3.509-.03V.99a.782.782 0 011.56 0v3.06h5.61a.661.661 0 110 1.32h-5.61v3.87l7.14-.03a.66.66 0 010 1.32zm1.351 6.72c0-.571.029-1.17.059-1.71a2.471 2.471 0 012.7-2.25c.959-.03 2.16-.03 3.359-.03 1.17 0 2.34 0 3.24.03 1.56.03 2.73.93 2.79 2.22.03.689.06 1.349.06 2.039 0 .451-.03.96-.03 1.471-.03 1.289-1.05 2.189-2.85 2.309-.84.06-1.89.09-2.97.09-4.229 0-6.239 0-6.33-2.34.001-.63-.028-1.23-.028-1.829zm10.589 0c0-.48 0-.96-.03-1.38-.06-1.35-.719-1.38-4.53-1.38-1.019 0-2.04 0-2.64.03-1.8.03-1.8.839-1.8 3 0 2.4.059 2.549 4.2 2.549 3.511 0 4.74 0 4.77-1.41.031-.45.031-.93.031-1.409zm30.15 4.769a2.112 2.112 0 01-2.16 2.16 2.38 2.38 0 01-2.01-1.17C78.449 19.589 71.97 7.77 70.35 4.98c-.21-.36-.48-.6-.69-.6-.42 0-.42.42-.42 2.52 0 3.84.06 13.169.15 16.289v.03a1.028 1.028 0 01-2.04 0v-.03c.06-2.76.089-5.91.089-8.969 0-3.54-.029-6.96-.089-9.63V4.5c0-1.62.93-2.37 1.95-2.37a2.731 2.731 0 012.28 1.41c1.859 3.12 8.039 14.309 10.259 17.789a.862.862 0 00.6.48c.39 0 .39-.57.39-1.47 0-3.21-.09-14.339-.18-17.189v-.03a.967.967 0 01.991-1.02 1 1 0 011.049 1.02v.03c-.06 1.71-.06 3.9-.06 6.24 0 4.47.06 9.479.12 12.6zm10.801 1.17a.928.928 0 01-1.021.87.917.917 0 01-.99-.87v-.03c.061-3.27.091-7.289.091-11.069 0-3.42-.03-6.63-.091-8.97v-.03a1.009 1.009 0 012.011 0v.03c-.03 1.59-.061 3.3-.061 4.77 0 1.5.031 2.73.031 3.36 0 .39.089.6.959.6a2.227 2.227 0 001.831-.84c2.339-2.43 6.3-6.75 7.559-8.43a.992.992 0 01.78-.39 1.05 1.05 0 011.05.96c0 .42-.06.72-8.1 8.94a.735.735 0 00-.271.45c0 .15.09.27.24.45 2.88 2.939 6.84 6.659 9.39 9.179a1.041 1.041 0 01.3.75 1.145 1.145 0 01-1.05 1.14 1.236 1.236 0 01-.87-.45c-2.52-2.79-6.36-6.569-9.06-9.479a1.879 1.879 0 00-1.53-.57c-.27 0-.51.03-.75.03-.21 0-.479.06-.479.51-.031.72-.031 2.219-.031 4.079 0 1.53 0 3.27.061 4.98zm21.089-.21a.781.781 0 010-1.56l10.83.03-.031-15.959-9.149.03a.765.765 0 010-1.53h19.739a.715.715 0 01.72.75.724.724 0 01-.72.78l-8.88-.03-.03 15.959 10.68-.03a.786.786 0 010 1.56zm36.15-11.519a13.332 13.332 0 00-3.81-1.68.6.6 0 01-.48-.6.832.832 0 01.84-.81s4.77.84 4.77 2.34a.891.891 0 01-.84.9.811.811 0 01-.48-.15zm-2.58 13.74a.891.891 0 01-.87-.87.842.842 0 01.21-.57 26.178 26.178 0 004.5-7.409.788.788 0 011.5.3c0 .9-2.7 5.94-4.529 8.1a1.13 1.13 0 01-.811.449zm4.26-20.039a14.706 14.706 0 00-3.48-2.46.587.587 0 01-.36-.54.818.818 0 01.81-.75c.54 0 4.44 1.98 4.44 3.06a.946.946 0 01-.87.93.807.807 0 01-.54-.241zm10.17 8.58a59.931 59.931 0 01-3.12 8.909c3-.36 6.089-.87 8.7-1.44a28.876 28.876 0 00-2.941-3.419.631.631 0 01-.21-.451.764.764 0 01.781-.719.793.793 0 01.569.239c1.74 1.65 5.49 6.15 5.49 7.35a.929.929 0 01-.9.93.87.87 0 01-.779-.57 15.934 15.934 0 00-1.2-2.19 96.317 96.317 0 01-14.579 2.37.786.786 0 01-.81-.81.766.766 0 01.719-.81c1.141-.06 2.311-.18 3.54-.3a54.76 54.76 0 003.031-9.089l-6.33.03a.705.705 0 110-1.41l7.349.03V7.05l-5.7.03a.706.706 0 110-1.41l5.67.03V1.44a.77.77 0 01.84-.78.761.761 0 01.809.78l-.03 4.26 6.21-.03a.705.705 0 110 1.41l-6.21-.03v5.34l7.95-.03a.705.705 0 110 1.41zM199.5 24.389c-6.09 0-9.81-4.02-9.81-8.849a11.757 11.757 0 013.06-7.53q.36-.36.36-.45c0-.03 0-.06-.06-.06a1.51 1.51 0 00-.48.12c-3.84 1.26-8.639 2.49-8.91 2.49a.978.978 0 01-1.08-.93.946.946 0 01.87-.87c.66-.15 2.49-.51 3.481-.75 1.5-.39 4.2-.99 7.349-1.89.869-.24 6.39-1.8 8.49-1.8a.961.961 0 011.019.96c0 .78-.689.87-2.309.96a15.238 15.238 0 00-4.68.9 9.935 9.935 0 00-5.49 8.55c0 3.749 2.55 7.229 7.92 7.229h.54c.839 0 1.259.45 1.259.93-.001.15-.06.99-1.529.99zm2.85-11.249a10.084 10.084 0 00-2.94-2.16.556.556 0 01-.39-.51.708.708 0 01.75-.66c.6 0 3.87 1.71 3.87 2.82a.769.769 0 01-.75.78.638.638 0 01-.541-.27zm2.58-2.19a10 10 0 00-3-2.16.582.582 0 01-.42-.54.707.707 0 01.75-.63c.45 0 3.929 1.59 3.929 2.82a.745.745 0 01-.719.78.723.723 0 01-.541-.27zm9.149 2.73a.685.685 0 01-.689-.721.715.715 0 01.719-.749h1.8c1.981 0 3.6.09 3.6 2.459 0 1.77-.06 3.75-.06 5.94 2.37 3 5.43 3.57 10.14 3.57 3.059 0 6.3-.33 8.67-.51h.09a.8.8 0 01.839.81.888.888 0 01-.9.84c-1.949.21-4.859.39-7.709.39-7.74 0-9.66-1.47-11.91-3.93-2.01 2.25-4.319 3.78-4.859 3.78a.912.912 0 01-.871-.87.806.806 0 01.451-.69 15.924 15.924 0 004.5-3.48c.029-1.53.059-2.939.059-4.2v-1.35c0-.749-.33-1.26-1.38-1.289zm4.53-7.62a11.869 11.869 0 00-3.57-3.03.538.538 0 01-.33-.51.826.826 0 01.841-.75c.72 0 4.529 2.58 4.529 3.63a1.008 1.008 0 01-.9.99.651.651 0 01-.57-.33zm3.57 4.47a.66.66 0 010-1.32l6.66.03V5.37h-4.11c-1.26 2.52-1.8 2.76-2.19 2.76a.761.761 0 01-.78-.69.559.559 0 01.12-.33 15.254 15.254 0 002.7-5.46c.06-.27.3-.36.57-.36.42 0 .93.27.93.66a14.413 14.413 0 01-.75 2.13l3.51-.03V.99a.782.782 0 011.559 0v3.06h5.611a.661.661 0 110 1.32H230.4v3.87l7.14-.03a.66.66 0 010 1.32zm1.35 6.72c0-.571.03-1.17.06-1.71a2.47 2.47 0 012.7-2.25c.96-.03 2.16-.03 3.359-.03 1.17 0 2.34 0 3.241.03 1.559.03 2.729.93 2.79 2.22.03.689.059 1.349.059 2.039 0 .451-.029.96-.029 1.471-.03 1.289-1.051 2.189-2.851 2.309-.839.06-1.889.09-2.969.09-4.23 0-6.24 0-6.33-2.34 0-.63-.03-1.23-.03-1.829zm10.589 0c0-.48 0-.96-.029-1.38-.061-1.35-.72-1.38-4.53-1.38-1.02 0-2.04 0-2.64.03-1.8.03-1.8.839-1.8 3 0 2.4.06 2.549 4.2 2.549 3.511 0 4.741 0 4.771-1.41.028-.45.028-.93.028-1.409zm20.402 8.339a.9.9 0 01-.991-.84c0-.39.271-.78.93-.9a15.869 15.869 0 004.32-1.41c2.97-1.74 4.26-3.72 4.26-5.28 0-1.8-1.56-2.49-3.24-2.49-3.15 0-6.84 2.341-8.43 3.72a2.418 2.418 0 01-1.5.75c-.84 0-1.38-.72-1.38-2.97a30.919 30.919 0 01.271-3.539c.24-1.95.63-3.9.84-5.22a.83.83 0 01.839-.72.684.684 0 01.72.69v.15c-.18 1.29-.54 3.06-.779 4.53a25.316 25.316 0 00-.36 3.45c0 .48 0 1.349.36 1.349a1.657 1.657 0 00.659-.329c2.58-1.591 5.67-3.33 8.851-3.33 3.059 0 4.889 1.679 4.889 3.929 0 2.04-1.5 4.53-4.889 6.6a15.656 15.656 0 01-5.37 1.86zm.209-19.379a1.268 1.268 0 01-.33.06.768.768 0 01-.78-.75.513.513 0 01.36-.54c.781-.3 1.14-.51 1.14-.75 0-.21-.3-.42-.87-.78-2.159-1.38-2.31-1.47-2.31-1.95a.723.723 0 01.781-.69 1.189 1.189 0 01.66.24c.569.42 1.439.96 2.159 1.38.87.54 1.92 1.2 1.95 1.92 0 .84-.3 1.14-2.76 1.86zm26.4 6.51c3.99-4.17 6.66-6 8.82-6 2.01 0 2.97 1.77 2.97 3.93 0 .15-.03.33-.03.48-.12 1.829-.69 5.22-.84 6.959-.03.3-.03.6-.03.87 0 1.74.57 2.49 1.44 2.49.9 0 2.069-.75 3.3-2.04a1.035 1.035 0 01.72-.36.835.835 0 01.78.87c0 .9-2.79 3.18-4.981 3.18-1.649 0-2.909-1.17-2.909-3.93 0-.36.029-.72.06-1.109.179-1.621.719-4.98.81-6.84v-.42c0-1.62-.45-2.61-1.56-2.61-2.37 0-8.039 5.7-8.7 6.45-.089 1.5-.15 3-.15 4.409a36.351 36.351 0 00.33 5.16v.15a.923.923 0 01-.93.96c-.93 0-.959-1.14-.959-3.42 0-1.62.089-3.57.209-5.639a27.417 27.417 0 00-1.77 2.849c-1.59 2.94-1.71 3.15-2.46 3.15a.917.917 0 01-.93-.78c0-.33.061-.39.93-1.41a76.945 76.945 0 004.471-7.349l.179-2.31a34.346 34.346 0 00-3.389 1.53 1.058 1.058 0 01-.54.15.723.723 0 01-.75-.75.791.791 0 01.479-.72c1.351-.63 3-1.35 4.35-1.83.24-2.46.45-4.62.631-6.03a.754.754 0 01.779-.72.776.776 0 01.84.69v.12c-.239 1.29-.54 3.24-.779 5.49.089 0 .149-.03.209-.03a.866.866 0 01.93.93c0 .45-.18.9-1.53 3.3zm28.921-4.11a7.569 7.569 0 01-2.79-.48.884.884 0 01-.51-.81.676.676 0 01.689-.75 1.174 1.174 0 01.391.09 7.849 7.849 0 002.64.42 11.162 11.162 0 002.429-.27 10.1 10.1 0 00.21-2.01 14.121 14.121 0 00-.12-1.71v-.12a.74.74 0 01.811-.75c.75 0 .99.51.99 1.95a10.822 10.822 0 01-.21 2.16 11.7 11.7 0 002.459-1.2.692.692 0 01.421-.12.876.876 0 01.84.81c0 .39-.3 1.08-4.111 2.16a117.044 117.044 0 01-5.729 15.629 1.072 1.072 0 01-.96.66.8.8 0 01-.84-.81 1.684 1.684 0 01.18-.69 94.951 94.951 0 005.639-14.4 13.588 13.588 0 01-2.429.241zm13.289 15.509c-4.23 0-6.779-1.89-6.779-2.91a.917.917 0 01.87-.9.823.823 0 01.63.33c.99 1.2 2.49 1.68 4.62 1.68a22.04 22.04 0 003.239-.27h.181a.81.81 0 01.869.84c0 .72-.659 1.23-3.63 1.23zm3.12-12.509a12.1 12.1 0 00-4.14-.75 7.563 7.563 0 00-2.67.42.864.864 0 01-.269.06.7.7 0 01-.691-.72c0-1.17 3-1.26 3.9-1.26a13.216 13.216 0 014.35.72.8.8 0 01.57.78.752.752 0 01-.72.81 1.276 1.276 0 01-.33-.06zM1.74 60.86c0-1.89.03-3.75.03-5.19a2.285 2.285 0 012.339-2.34c.451-.03.87-.03 1.321-.03.48 0 .929 0 1.41.03a2.257 2.257 0 012.309 2.34c.031 1.14.061 2.52.061 3.96 0 2.22-.03 4.59-.061 6.479-.059 2.52-2.25 2.55-3.779 2.55-1.74 0-3.54-.03-3.6-2.519 0-1.53-.03-3.42-.03-5.28zm5.94 1.32c0-2.16-.031-4.47-.06-6.06 0-1.17-.54-1.41-2.31-1.41-1.2 0-2.01.12-2.01 1.38-.03 1.5-.03 3.57-.03 5.61 0 1.5 0 2.969.03 4.139.03 1.02.36 1.38 2.16 1.38 1.59 0 2.13-.3 2.16-1.409.06-1.05.06-2.31.06-3.63zm8.849-2.91a.774.774 0 01.87-.75.8.8 0 01.871.78c0 .9-.031 1.86-.09 2.49a14.8 14.8 0 007.979 12.059.8.8 0 01.54.75.961.961 0 01-.96.93c-1.17 0-6.42-3.69-8.19-9.959A14.291 14.291 0 016.87 75.919a.845.845 0 01-.87-.84.806.806 0 01.66-.75c8.339-2.22 9.9-9.059 9.9-13.2 0-.6 0-1.2-.031-1.83zm-4.62 2.55a.927.927 0 01-.72.45.8.8 0 01-.78-.78.674.674 0 01.151-.45 23.916 23.916 0 004.019-10.02.762.762 0 01.75-.69.806.806 0 01.84.78 26.358 26.358 0 01-.989 3.87c2.46-.03 6.149-.03 8.129-.03 1.38 0 2.25.6 2.25 1.77 0 1.29-1.89 4.62-2.43 5.46a.954.954 0 01-.81.48.74.74 0 01-.78-.69.726.726 0 01.12-.39 18.22 18.22 0 002.25-4.65c0-.45-.3-.6-.96-.6h-8.22a27.036 27.036 0 01-2.82 5.49zm27.3 2.13c-1.23 0-2.159-.09-2.159-.96a.8.8 0 01.869-.78.825.825 0 01.27.03 9.569 9.569 0 001.35.09 18.528 18.528 0 004.74-.72c-.6-1.02-1.259-2.22-2.009-3.69a19.332 19.332 0 01-4.291.51c-.959 0-1.86-.06-1.86-.96 0-.33.24-.63.75-.63h.21a11.615 11.615 0 001.441.09 14.525 14.525 0 003.089-.36 26.282 26.282 0 00-2.549-4.62.842.842 0 01-.241-.57.776.776 0 01.84-.69c.84 0 1.14.66 3.361 5.52a19.189 19.189 0 002.819-1.17 1.226 1.226 0 01.54-.15.781.781 0 01.78.81c0 .45-.27.87-3.51 1.86.69 1.47 1.35 2.64 1.95 3.66a17.642 17.642 0 003.06-1.29 1.243 1.243 0 01.6-.18.813.813 0 01.81.84c0 .57-.57.99-3.6 2.04l.96 1.44c.57.84 1.98 3.03 1.98 4.829 0 .6-.15 1.53-.9 1.53a5.331 5.331 0 01-1.739-.66 12.809 12.809 0 00-4.71-.84c-3.63 0-4.89 1.23-4.89 2.4 0 1.68 2.459 3 5.64 3a8.445 8.445 0 001.5-.12 1.223 1.223 0 01.329-.03c.69 0 1.05.39 1.05.81 0 .78-.78 1.02-2.28 1.02-3.359 0-7.83-1.32-7.83-4.62 0-3.57 4.891-3.84 6.691-3.84a21.392 21.392 0 014.2.451 3.334 3.334 0 00.69.089c.27 0 .39-.089.39-.36 0-.84-.63-1.919-2.43-4.679a23.106 23.106 0 01-5.911.9zm24.15 1.529a20.207 20.207 0 01-3.42 1.41.78.78 0 01-.779-.809.716.716 0 01.51-.69q1.98-.766 3.689-1.53l-.029-6.03-3.24.03a.685.685 0 01-.72-.69.7.7 0 01.72-.75h3.24v-5.61a.781.781 0 011.56 0v5.61h2.519a.721.721 0 010 1.44l-2.519-.03v5.28c.87-.45 1.71-.9 2.519-1.41a.406.406 0 01.24-.06.753.753 0 01.691.75c0 .42-.361.75-3.45 2.339v3.45c0 .48.03 3.27.06 4.35v.21c0 1.53-.57 2.91-3.03 2.91-1.47 0-2.37-.21-2.37-.96a.707.707 0 01.66-.75h.15a6.948 6.948 0 001.44.18c.96 0 1.53-.42 1.559-1.77zM74.7 56.81a62.844 62.844 0 01-.63 3.48h5.61c1.38 0 2.34.66 2.34 1.95 0 1.44-1.47 4.86-3.39 7.409a17.74 17.74 0 005.91 4.17.7.7 0 01.45.66.927.927 0 01-.9.93c-.69 0-3.6-1.53-6.36-4.62-3.48 4.02-6.929 5.04-7.169 5.04a.781.781 0 01-.81-.78.74.74 0 01.51-.69 16.861 16.861 0 006.51-4.74 18.1 18.1 0 01-3.391-6.569c-1.319 4.74-3.27 8.939-5.94 11.669a.911.911 0 01-.629.27.78.78 0 01-.84-.72.84.84 0 01.269-.54c3.93-3.929 6.06-10.709 6.9-16.919H69.3a.659.659 0 01-.691-.69.694.694 0 01.691-.75h3.989a41.951 41.951 0 00.271-4.62.738.738 0 01.809-.75c.45 0 .9.27.9.69 0 1.05-.21 3.18-.391 4.68h9.059a.723.723 0 010 1.44zm-.389 4.77a16.645 16.645 0 003.33 6.929 13.654 13.654 0 002.729-6.089c0-.48-.3-.84-1.2-.84zm21.75 10.559A14.677 14.677 0 0194.5 65.18c0-2.55.42-5.1.63-7.56.15-1.77.33-2.76.391-4.08a.783.783 0 01.809-.81.806.806 0 01.84.78c0 .84-.27 3.12-.45 4.32a53.077 53.077 0 00-.72 7.02c0 .18 0 3.179.54 3.179q.18 0 .36-.449l1.23-2.82a.765.765 0 01.66-.51.7.7 0 01.689.689.552.552 0 01-.059.3 17.107 17.107 0 00-1.71 5.669c0 .15.03.45.03.72a.886.886 0 01-1.679.51zM110.34 57.68c1.05-.21 1.979-.45 2.729-.66a.834.834 0 01.271-.03.8.8 0 01.809.78c0 .69-.42.84-3.809 1.44 0 1.05.029 2.04.09 3.57.03.39.03.75.03 1.11 0 5.369-1.71 9.239-5.94 12.239a1.215 1.215 0 01-.72.24.781.781 0 01-.84-.72.834.834 0 01.479-.72c4.021-2.61 5.371-6.45 5.371-11.49 0-.48 0-.929-.09-3.929a29.985 29.985 0 01-4.2.39c-2.19 0-2.55-.3-2.55-.96a.8.8 0 01.87-.78 1.125 1.125 0 01.3.03 10.251 10.251 0 001.77.15 24.319 24.319 0 003.779-.36v-1.32c0-1.92-.179-2.55-.24-3.69v-.09a.826.826 0 01.87-.9c.9 0 1.05.57 1.05 2.34 0 .6-.029 1.26-.029 2.04zm24.78-.15c0 2.79-3.96 14.069-7.98 14.069-1.56 0-3.9-2.04-3.9-5.579a11.146 11.146 0 0111.489-10.59c5.161 0 9.69 3.3 9.69 8.58 0 7.379-8.19 9.779-9.239 9.779a.912.912 0 01-1.02-.84c0-.36.27-.75.9-.87 4.049-.87 7.649-3.66 7.649-8.189 0-4.2-3.72-7.14-8.01-7.14a.836.836 0 01.421.78zM124.8 65.9c0 2.04 1.23 3.9 2.43 3.9 2.04 0 5.76-7.2 6.18-12.239a1.019 1.019 0 01.3-.75 9.721 9.721 0 00-8.91 9.089zm37.65 3.479a7.686 7.686 0 00.63 1.32 1.018 1.018 0 01.15.57.877.877 0 01-.81.93c-.42 0-.69-.21-1.29-1.62-1.319 1.08-3.6 2.7-5.01 2.7-1.2 0-2.34-.81-2.34-2.79 0-2.82 2.311-6.659 6.66-9.059.121-1.44.3-2.94.51-4.59a14.353 14.353 0 01-1.59.06c-2.519 0-3.479-.36-3.479-1.05a.691.691 0 01.72-.72 2.043 2.043 0 01.389.06 8.416 8.416 0 002.43.3q.81 0 1.71-.09c.15-1.11.3-2.25.48-3.42a.838.838 0 01.81-.81.8.8 0 01.84.75v.15c-.18 1.08-.39 2.13-.539 3.12a28.747 28.747 0 005.129-1.41.761.761 0 01.36-.06.745.745 0 01.78.72c0 .3-.21.63-.75.81a31.659 31.659 0 01-5.76 1.41c-.209 1.47-.419 2.82-.54 4.08a12.947 12.947 0 014.65-.93c.12-.96.27-1.38.9-1.38a.787.787 0 01.84.78c0 .03 0 .03-.09.69 4.11.51 6.36 3.329 6.36 6.479 0 6.42-8.039 9.03-8.73 9.03a.764.764 0 01-.84-.72.931.931 0 01.75-.87c4.77-1.44 7.079-4.68 7.079-7.529 0-2.43-1.679-4.56-4.979-5.01a20.764 20.764 0 01-5.43 8.099zm-2.16-4.529c0-.6.03-1.23.061-1.86-2.76 1.65-5.1 4.979-5.1 7.289 0 .93.449 1.38 1.079 1.38.45 0 2.1-.66 4.351-2.639a19.456 19.456 0 01-.391-4.17zm1.53-2.64c-.059.749-.09 1.47-.09 2.13a17.056 17.056 0 00.3 3.419 18.027 18.027 0 004.2-6.569 13.079 13.079 0 00-4.41 1.02zm37.68 5.49c0-2.73-2.46-3.929-5.1-3.929a10.242 10.242 0 00-7.98 3.929.928.928 0 01-1.68-.449 1.239 1.239 0 01.42-.841c5.37-5.279 10.08-10.769 10.08-11.039 0-.03-.03-.06-.09-.06a.593.593 0 00-.211.03c-1.619.51-6.689 1.53-6.869 1.53a.831.831 0 01-.9-.81.848.848 0 01.84-.81 68.182 68.182 0 007.11-1.38 2.908 2.908 0 01.69-.09c.839 0 1.44.45 1.44 1.14 0 .57-.18.99-3.54 4.5l-4.14 4.289a11.7 11.7 0 015.25-1.259c4.079 0 6.36 2.37 6.36 5.159 0 3.72-3.48 6.9-8.31 6.9-3.51 0-5.519-1.62-5.519-3.42 0-1.14.869-2.58 3.269-2.58 2.07 0 3.84 1.35 3.84 4.26v.21c2.851-.48 5.04-2.821 5.04-5.28zm-6.57 5.22c0-1.98-.81-3.12-2.22-3.12-1.71 0-1.89 1.11-1.89 1.29 0 1.02 1.32 2.04 3.69 2.04h.42zm18.391 1.499a.721.721 0 010-1.44l10.56.03-.03-5.28-7.83.03a.691.691 0 01-.72-.719.684.684 0 01.72-.69h17.129a.659.659 0 01.69.69.667.667 0 01-.69.719l-7.71-.03v5.28l10.44-.03a.693.693 0 01.69.75.677.677 0 01-.69.69zM232.47 56.78c0-.99-.54-1.41-2.07-1.44-2.19-.03-5.07-.06-7.889-.06-2.851 0-5.64.03-7.71.06-1.65.03-2.16.57-2.19 1.47 0 .42.03 1.5.03 2.04a.8.8 0 01-.87.78c-.81 0-.84-.51-.84-2.07 0-1.71 0-3.51 3.27-3.54 2.579-.03 5.1-.06 7.619-.06V50.6a.779.779 0 01.87-.78.77.77 0 01.84.78l-.03 3.36c2.46 0 4.92.03 7.44.06 2.1.03 3.18.96 3.21 2.46v2.13a.835.835 0 01-.87.81.757.757 0 01-.81-.75zm-19.679 7.59a.806.806 0 01-.811-.81.73.73 0 01.6-.72 10.043 10.043 0 006.93-5.58.665.665 0 01.66-.39.773.773 0 01.809.75 1.008 1.008 0 01-.12.45 12.172 12.172 0 01-8.068 6.3zm11.55-7.05a.685.685 0 01.75-.66c.389 0 .75.21.75.6v.03c-.03.78-.03 2.76-.03 3.06.03.96.3 1.29 2.669 1.29 1.77 0 2.61-.15 2.7-1.41a.652.652 0 01.72-.63.719.719 0 01.78.69c-.06 2.25-1.8 2.64-4.47 2.64-2.01 0-3.869-.03-3.869-2.34zm19.59 17.999c.21-5.58.18-15.239.21-21.719 0-2.58 2.01-2.58 4.679-2.58 1.021 0 2.071 0 2.641.03a2.262 2.262 0 012.46 2.04c.029.84.059 1.86.059 2.85 0 .69-.03 1.38-.03 1.98-.059 2.43-1.92 2.43-5.669 2.43-.87 0-1.8 0-2.58-.06v3.03c0 3.479-.03 7.649-.12 11.969a.764.764 0 01-.84.75.729.729 0 01-.81-.69zm8.61-20.249c0-2.64 0-2.76-3.391-2.76-3.42 0-3.449.15-3.449 2.76zm-6.84 1.2v2.76c.779.06 2.07.06 3.239.06 3.51 0 3.571-.03 3.571-2.82zm12.089 16.259c-.869.06-1.68.09-2.489.09q-1.036 0-2.16-.09c-1.741-.12-2.79-1.11-2.821-2.43v-1.29c0-1.38.031-2.97.091-4.2a2.57 2.57 0 012.67-2.37c.9-.06 1.68-.06 2.459-.06s1.53 0 2.311.06a2.517 2.517 0 012.58 2.219c.09 1.141.12 2.52.12 3.811 0 .659 0 1.259-.03 1.8a2.6 2.6 0 01-2.731 2.46zm1.261-7.619c-.061-1.44-1.471-1.471-3.271-1.471-.75 0-1.559 0-2.279.031a1.591 1.591 0 00-1.71 1.409c-.03.421-.061 1.08-.061 1.741h7.35zm-7.321 2.909v1.41c0 1.74.451 2.04 3.72 2.04 1.891 0 3.6 0 3.66-1.53v-1.92zm11.28-7.469c-1.289 0-2.52-.03-3.209-.06-1.92-.09-2.611-1.11-2.641-2.37 0-.57-.029-1.23-.029-1.92 0-.99.029-2.01.059-2.91.031-1.11.871-1.98 2.4-2.04.569-.03 1.68-.03 2.76-.03.809 0 1.559 0 2.069.03 2.19.09 2.82 1.29 2.82 2.43.06 5.1.06 10.62.06 15.149 0 1.44.03 2.73.03 3.78 0 1.83-.63 3.48-3.99 3.48-2.4 0-2.64-.3-2.64-.9a.743.743 0 01.72-.78h.12a13.041 13.041 0 001.981.18c1.439 0 2.129-.51 2.159-2.16 0-.39.03-.93.03-10.079v-1.86c-.809.06-1.769.06-2.699.06zm2.64-5.28c0-2.76-.3-2.76-3.48-2.76-3.569 0-3.569.06-3.569 2.76zm-7.049 1.2c0 2.79 0 2.82 3.719 2.82 1.23 0 2.61 0 3.39-.06 0-1.02-.03-1.95-.03-2.76zm24.299.48a12.339 12.339 0 01-1.92.18c-1.53 0-2.879-.45-2.879-1.32a.726.726 0 01.779-.72 1.264 1.264 0 01.69.24 3.132 3.132 0 001.65.36 14.516 14.516 0 002.52-.3 13.3 13.3 0 00.51-3.12.8.8 0 01.87-.69.764.764 0 01.84.75 9.552 9.552 0 01-.57 2.64 14.929 14.929 0 002.73-1.05 1 1 0 01.48-.15.737.737 0 01.75.72c0 .93-1.83 1.47-4.47 2.07a30.972 30.972 0 01-2.13 4.41 5.82 5.82 0 012.28-.51c1.68 0 3.119.96 3.57 3.3 1.44-.75 2.969-1.44 4.32-2.04.75-.33 1.68-.69 2.55-1.17a1.478 1.478 0 01.719-.21.873.873 0 01.9.84 1.006 1.006 0 01-.631.87c-.869.39-1.47.57-3.06 1.17-1.559.6-3.21 1.35-4.649 2.07.029.72.06 1.619.06 2.459 0 1.53 0 2.49-.96 2.49a.715.715 0 01-.69-.81v-.09c.029-.69.06-1.559.06-2.34v-.87c-2.01 1.171-4.71 2.85-4.71 4.95 0 .6.48 2.82 4.41 2.82a14.744 14.744 0 004.26-.66 1.658 1.658 0 01.509-.09.831.831 0 01.9.81c0 .42-.271.84-.96 1.02a17.011 17.011 0 01-4.29.54c-5.04 0-6.42-2.61-6.42-4.26 0-3.15 3.99-5.489 6.21-6.719-.24-2.01-1.2-2.79-2.4-2.79a5.942 5.942 0 00-3.809 1.95c-.99 1.35-1.41 1.8-1.95 1.8a.709.709 0 01-.75-.66 1.078 1.078 0 01.39-.75 19.718 19.718 0 004.619-7.17zM4.62 125.409l.359-16.259c-3.089 4.38-3.929 4.5-4.2 4.5A.789.789 0 010 112.9a.839.839 0 01.27-.57 28.924 28.924 0 007.29-11.4.718.718 0 01.719-.54.918.918 0 01.931.81 25.38 25.38 0 01-2.67 5.55l-.33 18.629a.78.78 0 01-.84.75.676.676 0 01-.75-.69zm11.52-6.15l-3.481.03a.663.663 0 01-.72-.66.693.693 0 01.72-.72l3.481.03v-1.23l.12-7.229a33.248 33.248 0 01-7.71 10.439.828.828 0 01-1.41-.54.776.776 0 01.33-.629 28.76 28.76 0 008.13-10.68l-6.481.09a.7.7 0 01-.749-.72.691.691 0 01.72-.72h7.05v-5.85a.785.785 0 011.559 0v5.85h7.68a.7.7 0 01.72.75.677.677 0 01-.69.69l-7.32-.09a30.673 30.673 0 008.79 10.049.744.744 0 01.33.631.89.89 0 01-.87.869.912.912 0 01-.6-.24 35.2 35.2 0 01-8.16-9.779l.09 7.079v1.26l3.57-.03a.644.644 0 01.69.69.659.659 0 01-.69.69l-3.57-.03v6.09a.71.71 0 01-.75.69.718.718 0 01-.779-.69zm31.56-1.17a.7.7 0 01-.689-.72.574.574 0 01.33-.539 12.329 12.329 0 004.05-3.27 30.716 30.716 0 01-2.311-8.7c-3.149 0-6.059.03-8.729.06-1.29.03-1.8.57-1.8 1.56v1.2c0 3.48-.33 7.92-2.821 10.679a1.093 1.093 0 01-.809.391.771.771 0 01-.6-1.351c2.28-2.279 2.67-5.729 2.67-8.909 0-.78-.03-1.53-.06-2.25v-.12c0-1.38.99-2.58 3.059-2.61 2.88-.03 5.851-.03 8.941-.03-.21-1.59-.3-2.73-.3-2.73a.749.749 0 01.78-.75.713.713 0 01.75.72c.061.9.151 1.83.24 2.76 2.22 0 4.56.03 6.96.03a.636.636 0 01.66.69.652.652 0 01-.66.69c-2.339-.03-4.62-.03-6.81-.03a28.249 28.249 0 001.77 7.41 19.06 19.06 0 002.13-4.89.632.632 0 01.63-.48.768.768 0 01.78.75 17.627 17.627 0 01-2.85 5.97c.45.75 1.71 2.609 2.79 2.609.78 0 1.35-.9 1.71-2.79a.647.647 0 01.66-.6.806.806 0 01.84.78c0 .359-.75 4.17-3.18 4.17-.99 0-2.37-.69-3.75-2.97a10.425 10.425 0 01-4.381 3.27zm-13.589 6.18a.776.776 0 01.54-.69 9.243 9.243 0 003.419-3.6.687.687 0 01.66-.45.856.856 0 01.871.78c0 1.11-3.36 4.71-4.59 4.71a.824.824 0 01-.901-.75zm6.629-15.929a.59.59 0 01-.6-.63.606.606 0 01.6-.63h6.84a.574.574 0 01.6.63.589.589 0 01-.6.63zm3.361 7.589c-3.54 0-3.6-.48-3.6-2.819 0-2.19.06-2.76 3.72-2.76 3.3 0 3.6.21 3.6 3-.002 2.009-.301 2.579-3.721 2.579zm2.729 9.69c-5.01 0-5.67-.9-5.67-2.79v-2.67c0-1.56 0-2.04.811-2.04a.724.724 0 01.78.72c0 .87-.03 3.48-.03 3.84 0 1.17.479 1.59 4.17 1.59 3.569 0 4.5-.45 4.529-2.31a.692.692 0 01.75-.69.807.807 0 01.87.72c-.001 3.27-2.701 3.63-6.211 3.63zm-4.92-11.759c.03.84.6.84 2.28.84 1.56 0 2.22-.06 2.25-.781v-1.139c0-1.2-.089-1.23-2.28-1.23-1.59 0-2.189.06-2.25.75zm6.45 7.409a12.826 12.826 0 00-3.719-2.64.535.535 0 01-.33-.51.732.732 0 01.75-.69c.9 0 3.809 2.071 4.379 2.67a.972.972 0 01.27.63.85.85 0 01-.779.84.77.77 0 01-.572-.3zm6.21-18.239a7.656 7.656 0 00-2.549-1.89.411.411 0 01-.241-.39.752.752 0 01.75-.66c.63 0 3.21 1.44 3.21 2.34a.818.818 0 01-.75.81.524.524 0 01-.421-.21zm3.15 20.759a12.831 12.831 0 00-3.78-3.45.545.545 0 01-.3-.48.793.793 0 01.81-.69c.87 0 4.8 2.91 4.8 4.08a.922.922 0 01-.9.9.74.74 0 01-.631-.36zm27.059.6c-6.09 0-9.809-4.02-9.809-8.849a11.764 11.764 0 013.059-7.53q.362-.36.361-.45c0-.03 0-.06-.06-.06a1.5 1.5 0 00-.48.12c-3.84 1.26-8.64 2.49-8.91 2.49a.978.978 0 01-1.08-.93.945.945 0 01.87-.87c.66-.15 2.49-.51 3.48-.75 1.5-.39 4.2-.99 7.35-1.89.87-.24 6.389-1.8 8.49-1.8a.962.962 0 011.019.96c0 .78-.69.87-2.309.96a15.256 15.256 0 00-4.681.9 9.934 9.934 0 00-5.489 8.55c0 3.749 2.55 7.229 7.92 7.229h.54c.84 0 1.26.45 1.26.93 0 .15-.061.99-1.531.99zm2.85-11.249a10.071 10.071 0 00-2.94-2.16.556.556 0 01-.389-.51.709.709 0 01.75-.66c.6 0 3.869 1.71 3.869 2.82a.768.768 0 01-.75.78.638.638 0 01-.54-.27zm2.58-2.19a9.961 9.961 0 00-3-2.16.582.582 0 01-.42-.54.708.708 0 01.75-.63c.45 0 3.93 1.59 3.93 2.82a.744.744 0 01-.72.78.727.727 0 01-.54-.27zm13.801 3c-1.231 0-2.16-.09-2.16-.96a.8.8 0 01.87-.78.825.825 0 01.269.03 9.573 9.573 0 001.351.09 18.521 18.521 0 004.739-.72c-.6-1.02-1.26-2.22-2.01-3.69a19.308 19.308 0 01-4.29.51c-.96 0-1.859-.06-1.859-.96 0-.33.24-.63.75-.63h.21a11.583 11.583 0 001.439.09 14.534 14.534 0 003.09-.36 26.214 26.214 0 00-2.55-4.62.848.848 0 01-.239-.57.776.776 0 01.84-.69c.84 0 1.14.66 3.359 5.52a19.224 19.224 0 002.821-1.17 1.215 1.215 0 01.54-.15.781.781 0 01.779.81c0 .45-.27.87-3.51 1.86a43.708 43.708 0 001.95 3.66 17.608 17.608 0 003.06-1.29 1.244 1.244 0 01.6-.18.813.813 0 01.809.84c0 .57-.57.99-3.6 2.04l.959 1.44c.57.84 1.98 3.03 1.98 4.829 0 .6-.149 1.53-.9 1.53a5.359 5.359 0 01-1.741-.66 12.8 12.8 0 00-4.71-.84c-3.63 0-4.889 1.23-4.889 2.4 0 1.68 2.46 3 5.639 3a8.423 8.423 0 001.5-.12 1.231 1.231 0 01.33-.03c.691 0 1.05.39 1.05.81 0 .78-.78 1.02-2.279 1.02-3.36 0-7.83-1.32-7.83-4.62 0-3.57 4.89-3.84 6.689-3.84a21.4 21.4 0 014.2.451 3.318 3.318 0 00.689.089c.27 0 .391-.089.391-.36 0-.84-.63-1.919-2.431-4.679a23.092 23.092 0 01-5.905.9zm26.31 12.059c-2.43 0-4.62-1.44-4.62-3.27 0-1.65 1.77-3.12 5.04-3.12a12.064 12.064 0 013.39.51c0-.96-.09-1.95-.18-3.029-.091-.931-.18-2.07-.24-3.3a21.9 21.9 0 01-4.5.57c-1.41 0-2.55-.09-2.55-1.02a.741.741 0 01.81-.75 1.345 1.345 0 01.33.03 7.323 7.323 0 001.53.15 22.41 22.41 0 004.29-.54c-.09-1.56-.15-3.21-.181-4.8a36.335 36.335 0 01-4.709.45c-1.74 0-2.25-.18-2.25-.9a.751.751 0 01.84-.75 1.125 1.125 0 01.3.03 10.444 10.444 0 001.74.15 25.383 25.383 0 004.05-.42c0-.75-.03-1.5-.03-2.16 0-2.85 0-3.45.93-3.45a.87.87 0 01.9.84v.06c-.09 1.35-.15 2.85-.181 4.38.96-.18 1.981-.39 3.12-.66a.515.515 0 01.21-.03.774.774 0 01.781.78c0 .33-.271.69-.84.81l-3.271.6c0 1.59.031 3.21.091 4.74 1.05-.27 2.22-.6 3.449-1.02a.96.96 0 01.391-.06.758.758 0 01.81.75.958.958 0 01-.81.9q-2.115.587-3.78.991c.059 1.259.15 2.459.24 3.509a36.8 36.8 0 01.269 3.69 18.018 18.018 0 014.26 2.46 1.033 1.033 0 01.42.81.929.929 0 01-.84.96.972.972 0 01-.63-.27 16.326 16.326 0 00-3.389-2.31 5.266 5.266 0 01-5.19 3.689zm.27-5.01c-.96 0-3.42.36-3.42 1.74 0 1.08 1.62 1.77 3.059 1.77a3.734 3.734 0 003.781-2.85 10.014 10.014 0 00-3.42-.659zm30.96-9.899l-.09-3.42c-2.819.24-5.64.63-7.38.9-2.159.36-3.779.72-4.709.87-.06 0-.12.03-.181.03a.863.863 0 01-.839-.87.948.948 0 01.87-.9c.96-.15 7.259-1.11 12.21-1.53v-1.17c-.031-1.92-.091-2.1-.12-3.06v-.03a.841.841 0 01.87-.9c.96 0 .96.96.96 1.23 0 .72-.061 1.86-.091 2.55-.029.42-.029.84-.029 1.26 1.139-.09 2.159-.15 3-.15.75-.03 1.409-.03 2.159-.03.72 0 1.53 0 2.58.03a.986.986 0 011.11.9.883.883 0 01-.99.84h-.151c-.719-.06-2.1-.15-5.579-.15-.69 0-1.41.03-2.16.06 0 1.11.031 2.31.06 3.48 0 .51.06 1.26.091 2.04a5.99 5.99 0 01.929 3.359c0 4.74-4.349 9.69-5.729 9.69a.786.786 0 01-.841-.75 1.146 1.146 0 01.57-.9 11.819 11.819 0 004.38-6.87 3.723 3.723 0 01-2.97 1.5 3.893 3.893 0 01.451-7.769 3.686 3.686 0 011.649.33zm0 2.37a2.384 2.384 0 00-1.71-.72 2.336 2.336 0 00-2.43 2.4 2.229 2.229 0 002.16 2.431c1.56 0 2.31-1.53 2.31-2.94a3.754 3.754 0 00-.12-.96zm23.55 11.339a1.45 1.45 0 01-1.441-1.38 1.482 1.482 0 011.441-1.53 1.432 1.432 0 011.5 1.44 1.45 1.45 0 01-1.5 1.47zm.03-6.269a.755.755 0 01-.78-.781v-1.11c0-3.21-.18-10.229-.3-14.1v-.06a1.007 1.007 0 011.05-1.05 1.094 1.094 0 011.11 1.14c0 3.54-.3 11.4-.3 14.46v.689a.763.763 0 01-.779.812z" id="a6a4e266-8e39-4ff5-a035-b558c4159b11" data-name="レイヤー 1"/></g></svg>