<svg xmlns="http://www.w3.org/2000/svg" width="8.859" height="30.779"><g id="ab2c988e-6ebc-4ba9-894c-3ab4affc5da6" data-name="レイヤー 2"><path d="M6.316 4.793a2.056 2.056 0 01-1.652.861v-1.67a.99.99 0 00.51-.181 1.146 1.146 0 00.34-.938 1.348 1.348 0 00-.17-.776.491.491 0 00-.4-.232.436.436 0 00-.416.247 10.653 10.653 0 00-.463 1.74 3.188 3.188 0 01-.709 1.494 1.608 1.608 0 01-1.2.492 1.941 1.941 0 01-1.55-.706 3.32 3.32 0 01-.6-2.183A3.284 3.284 0 01.642.718 2.064 2.064 0 012.262 0v1.693a1.123 1.123 0 00-.633.229A1.543 1.543 0 001.3 3.07a1.766 1.766 0 00.146.783.471.471 0 00.44.29.476.476 0 00.428-.235 9.588 9.588 0 00.5-1.74A3.632 3.632 0 013.486.639 1.463 1.463 0 014.635.193a1.991 1.991 0 011.52.7 2.788 2.788 0 01.636 1.954 3.612 3.612 0 01-.475 1.946zm-1.998 7.799v-1.711a1.479 1.479 0 00.645-.24 1.008 1.008 0 00.387-.873 1.151 1.151 0 00-.838-1.155 3.517 3.517 0 00-1.184-.164 3.229 3.229 0 00-1.128.164 1.115 1.115 0 00-.8 1.125.991.991 0 00.317.832 1.573 1.573 0 00.82.3v1.705a2.784 2.784 0 01-1.437-.552A2.675 2.675 0 010 9.7a2.721 2.721 0 01.914-2.27 3.694 3.694 0 012.373-.73 3.756 3.756 0 012.561.8 2.8 2.8 0 01.914 2.215 3.34 3.34 0 01-.539 1.966 2.512 2.512 0 01-1.905.911zm.75 4.359a1.383 1.383 0 00-.656-1.351 2.551 2.551 0 00-1.137-.2H.223v-1.677h6.386v1.593H5.5a3.535 3.535 0 01.873.674 1.835 1.835 0 01.393 1.219v.079c0 .021-.005.069-.009.144H5.039c.012-.106.02-.2.023-.282s.006-.15.006-.199zm.732 6.785a3.729 3.729 0 01-2.4.809 3.7 3.7 0 01-2.4-.809 2.97 2.97 0 01-1-2.455 2.972 2.972 0 011-2.455 3.7 3.7 0 012.4-.808 3.728 3.728 0 012.4.808 2.95 2.95 0 011.013 2.455A2.949 2.949 0 015.8 23.736zm-.4-2.461a1.337 1.337 0 00-.518-1.128 2.4 2.4 0 00-1.48-.395 2.418 2.418 0 00-1.482.395 1.477 1.477 0 000 2.253 2.425 2.425 0 001.482.393 2.412 2.412 0 001.48-.393 1.326 1.326 0 00.518-1.125zm3.459 4.5v1.67H.223v-1.67zm0 3.334v1.67H.223v-1.67z" id="ed67a51b-695e-4702-bf76-edcc4ef5ffd9" data-name="レイヤー 1"/></g></svg>