<?xml version="1.0" encoding="utf-8"?>
<!-- Generator: Adobe Illustrator 26.0.3, SVG Export Plug-In . SVG Version: 6.00 Build 0)  -->
<svg version="1.1" id="レイヤー_1" xmlns="http://www.w3.org/2000/svg" xmlns:xlink="http://www.w3.org/1999/xlink" x="0px"
	 y="0px" width="746px" height="340px" viewBox="0 0 746 340" style="enable-background:new 0 0 746 340;" xml:space="preserve">
<style type="text/css">
	.st0{fill:#808080;}
	.st1{fill:#FFFFFF;}
	.st2{fill:#969696;}
</style>
<rect x="353.068" y="114.361" class="st0" width="103.562" height="7.595"/>
<rect x="356.633" y="161.545" class="st1" width="50" height="50"/>
<g>
	<path d="M311.955,115.793v3.272h-0.839v0.379h2.088v-0.379h-0.787V115.3h-0.393c-0.295,0.198-0.63,0.374-0.983,0.487l0.081,0.413
		C311.446,116.082,311.735,115.94,311.955,115.793z"/>
	<path d="M316.525,119.054h-1.989c0.191-0.413,0.485-0.781,1.11-1.319c0.7-0.601,0.873-0.94,0.873-1.393
		c0-0.674-0.486-1.07-1.174-1.07c-0.648,0-1.133,0.379-1.255,1.098l0.474,0.108c0.075-0.543,0.353-0.815,0.775-0.815
		c0.405,0,0.683,0.26,0.683,0.679c0,0.363-0.133,0.601-0.729,1.144c-0.63,0.572-1,1.059-1.237,1.608v0.351h2.469V119.054z"/>
	<path d="M327.576,125.545h1.858c1.884,0,3.152-1.061,3.152-3.184c0-2.124-1.146-3.125-3.03-3.125h-1.98V125.545z M328.332,119.844
		h1.146c1.433,0,2.31,0.744,2.31,2.525c0,1.781-0.955,2.568-2.379,2.568h-1.077V119.844z"/>
	<path d="M334.738,121.916c0-0.702-0.026-1.319-0.035-2.029h0.13c0.33,0.667,0.556,1.155,0.912,1.84l2.005,3.818h0.965v-6.308
		h-0.703v3.355c0,0.745,0.043,1.396,0.069,2.072h-0.139c-0.304-0.634-0.529-1.182-0.903-1.892l-1.832-3.535h-1.172v6.309h0.703
		V121.916z"/>
	<path d="M560.751,168.963c-0.043-0.043-0.069-0.051-0.147,0l-0.175,0.103c-0.096,0.051-0.104,0.077-0.061,0.128
		c0.269,0.343,0.53,0.737,0.764,1.156c-0.885,0.154-1.64,0.257-2.613,0.351c0.365-0.659,0.73-1.404,1.068-2.217
		c0.052-0.128,0.139-0.299,0.191-0.351c0.043-0.042,0.078-0.085,0.078-0.128c0-0.043-0.043-0.094-0.122-0.12
		c-0.139-0.051-0.321-0.102-0.521-0.154c-0.026,0.171-0.07,0.368-0.139,0.573c-0.33,0.874-0.686,1.644-1.137,2.457
		c-0.234,0.025-0.547,0.025-0.851,0.034c0.034,0.179,0.087,0.376,0.13,0.539c0.026,0.085,0.061,0.111,0.113,0.111
		c0.043,0,0.087-0.034,0.139-0.068c0.061-0.034,0.13-0.052,0.408-0.086c1.276-0.137,2.231-0.282,3.49-0.513
		c0.105,0.197,0.2,0.402,0.287,0.599c0.027,0.069,0.044,0.069,0.174,0.009l0.243-0.12c0.096-0.043,0.096-0.051,0.061-0.12
		C561.732,170.316,561.263,169.562,560.751,168.963z"/>
	<path d="M569.562,172.499c0.156,0.145,0.495,0.197,1.276,0.197c0.816,0,1.268-0.086,1.476-0.274
		c0.191-0.172,0.321-0.394,0.399-1.079c0.017-0.171,0.017-0.171-0.156-0.231c-0.122-0.043-0.234-0.103-0.33-0.18
		c-0.043,0.634-0.104,0.933-0.269,1.096c-0.156,0.145-0.495,0.188-1.094,0.188c-0.538,0-0.79-0.025-0.903-0.128
		c-0.078-0.077-0.078-0.24-0.078-0.505h0.001v-2.707h1.928v0.385c0,0.059,0.008,0.068,0.069,0.068h0.399
		c0.06,0,0.069-0.008,0.069-0.068c0-0.042-0.018-0.265-0.018-0.907v-1.763c0-0.642,0.018-0.864,0.018-0.907
		c0-0.059-0.008-0.068-0.069-0.068c-0.053,0-0.261,0.017-0.912,0.017h-1.016c-0.651,0-0.842-0.017-0.894-0.017
		c-0.061,0-0.069,0.008-0.069,0.068v0.385c0,0.051,0.008,0.06,0.069,0.06c0.052,0,0.243-0.017,0.894-0.017h1.459v2.286H570.3
		c-0.582,0-0.834-0.017-0.877-0.017c-0.07,0-0.078,0.009-0.078,0.069c0,0.051,0.017,0.316,0.017,0.941v2.406
		C569.362,172.217,569.415,172.371,569.562,172.499z"/>
	<path d="M573.518,172.303c0.105,0.076,0.191,0.162,0.278,0.282c0.096,0.137,0.105,0.145,0.261,0.085
		c1.189-0.479,2.057-1.121,2.63-1.909c0.33-0.453,0.591-1.018,0.695-1.566c0.738,1.78,1.902,2.79,3.447,3.458
		c0.061,0.026,0.095,0.043,0.13,0.043c0.044,0,0.061-0.034,0.113-0.137c0.07-0.137,0.183-0.274,0.287-0.368
		c-1.719-0.608-2.916-1.627-3.629-3.329h1.709c0.877,0,1.155,0.017,1.207,0.017c0.06,0,0.069-0.009,0.069-0.069v-0.394
		c0-0.059-0.008-0.068-0.069-0.068c-0.052,0-0.33,0.017-1.207,0.017h-1.901c0.078-0.608,0.104-1.224,0.113-1.806h2.24
		c0.834,0,1.112,0.017,1.155,0.017c0.06,0,0.069-0.009,0.069-0.069v-0.394c0-0.059-0.008-0.068-0.069-0.068
		c-0.044,0-0.322,0.017-1.155,0.017h-4.906c-0.834,0-1.112-0.017-1.155-0.017c-0.06,0-0.069,0.008-0.069,0.068v0.394
		c0,0.06,0.008,0.069,0.069,0.069c0.044,0,0.322-0.017,1.155-0.017h2.119c-0.009,0.582-0.026,1.198-0.104,1.806h-1.563
		c-0.877,0-1.155-0.017-1.207-0.017c-0.06,0-0.069,0.008-0.069,0.068v0.394c0,0.06,0.008,0.069,0.069,0.069
		c0.052,0,0.33-0.017,1.207-0.017h1.485c-0.087,0.582-0.33,1.147-0.686,1.618C575.663,171.25,574.742,171.884,573.518,172.303z"/>
	<path d="M587.721,170.204h0.955c0.808,0,1.067,0.017,1.12,0.017s0.061-0.008,0.061-0.068h0.002v-0.393
		c0-0.059-0.009-0.068-0.061-0.068s-0.312,0.017-1.12,0.017h-0.955v-1.995h0.625c0.851,0,1.138,0.017,1.181,0.017
		c0.06,0,0.069-0.008,0.069-0.068v-0.394c0-0.06-0.008-0.069-0.069-0.069c-0.043,0-0.33,0.017-1.181,0.017h-0.625v-0.642
		c0-0.574,0.017-0.779,0.052-0.882c0.017-0.068,0.043-0.102,0.043-0.154c0-0.043-0.043-0.068-0.104-0.077
		c-0.174-0.017-0.373-0.034-0.599-0.043c0.051,0.334,0.069,0.565,0.069,1.173v0.625h-2.162v-0.488c0-0.71,0.017-0.89,0.052-1.001
		c0.026-0.077,0.052-0.12,0.052-0.163c0-0.051-0.043-0.076-0.113-0.085c-0.173-0.025-0.373-0.042-0.59-0.051
		c0.052,0.385,0.061,0.753,0.061,1.284v0.505h-0.66c-0.851,0-1.129-0.017-1.181-0.017c-0.06,0-0.069,0.009-0.069,0.069v0.394
		c0,0.059,0.008,0.068,0.069,0.068c0.053,0,0.33-0.017,1.181-0.017h0.66v0.693c0,0.488-0.009,0.916-0.052,1.301h-1.024
		c-0.808,0-1.077-0.017-1.12-0.017c-0.06,0-0.069,0.008-0.069,0.068v0.394c0,0.059,0.008,0.068,0.069,0.068
		c0.043,0,0.312-0.017,1.12-0.017h0.955c-0.035,0.163-0.07,0.325-0.122,0.471c-0.269,0.848-0.747,1.378-1.589,1.832
		c0.121,0.06,0.26,0.154,0.347,0.257c0.069,0.077,0.096,0.111,0.139,0.111c0.035,0,0.069-0.026,0.13-0.069
		c0.755-0.505,1.198-1.062,1.476-1.892c0.079-0.24,0.14-0.471,0.183-0.711h2.257v1.156c0,0.967-0.018,1.386-0.018,1.429
		c0,0.06,0.008,0.069,0.069,0.069h0.435c0.06,0,0.069-0.009,0.069-0.069c0-0.042-0.018-0.462-0.018-1.429V170.204z M587.185,169.709
		h-2.206c0.034-0.394,0.043-0.813,0.043-1.31v-0.685h2.163V169.709z"/>
	<path d="M673.28,60.771H301.227c-0.1,0-0.181,0.081-0.181,0.181v218.096c0,0.1,0.081,0.181,0.181,0.181H673.28
		c0.1,0,0.181-0.081,0.181-0.181V60.952C673.461,60.852,673.38,60.771,673.28,60.771z M309.124,71.26h20.482l12.003,20.85h-10.603
		c-0.104,0-0.188,0.084-0.188,0.188c0,0,0,0,0,0v10.632l-21.694-12.516V71.26z M634.809,99.303c0.036,0.037,0.085,0.056,0.133,0.056
		s0.096-0.019,0.133-0.055l27.897-27.778v196.949l-27.897-27.778c-0.074-0.073-0.193-0.073-0.266,0.001
		c-0.074,0.073-0.074,0.193,0,0.266l27.896,27.777H464.8l7.758-7.642c0,0,0-0.001,0.001-0.002l20.133-20.133
		c0.073-0.074,0.073-0.193,0-0.267c-0.075-0.073-0.193-0.073-0.267,0l-20.134,20.134c-0.001,0.001,0,0.002-0.001,0.003l-7.762,7.645
		V77.776l1.859-1.36c0.084-0.061,0.103-0.179,0.041-0.263c-0.06-0.084-0.178-0.102-0.263-0.041l-1.637,1.198v-5.786l7.764,7.648
		l20.133,20.133c0.037,0.036,0.085,0.055,0.133,0.055c0.048,0,0.096-0.019,0.134-0.055c0.073-0.074,0.073-0.193,0-0.267
		l-20.134-20.134c0,0-0.001,0-0.002-0.001l-7.759-7.642h197.907l-27.896,27.777C634.736,99.11,634.735,99.229,634.809,99.303z
		 M331.194,92.486h10.632l12.489,21.694h-1.059v-0.422c0-0.104-0.084-0.188-0.188-0.188h-3.807l-18.067-10.423V92.486z
		 M456.631,121.775C456.631,121.775,456.631,121.775,456.631,121.775c-0.001,0-0.001,0-0.001,0h-52.538l0.651-0.474h51.888V121.775z
		 M353.249,114.542h1.375c0.005,0,0.007,0.007,0.012,0.007c0.009,0,0.017-0.006,0.026-0.007h2.247
		c0.006,0.001,0.01,0.007,0.017,0.007s0.011-0.006,0.017-0.007h10.335c0.006,0.001,0.01,0.007,0.017,0.007s0.01-0.006,0.017-0.007
		h10.334c0.006,0.001,0.01,0.007,0.017,0.007s0.011-0.006,0.017-0.007h10.334c0.006,0.001,0.01,0.007,0.017,0.007
		s0.011-0.006,0.017-0.007h10.214c0.006,0.001,0.01,0.007,0.017,0.007s0.01-0.006,0.017-0.007h10.334
		c0.006,0.001,0.01,0.007,0.017,0.007s0.011-0.006,0.017-0.007h2.248c0.009,0.001,0.017,0.007,0.026,0.007
		c0.005,0,0.007-0.007,0.012-0.007h2.435l-0.652,0.475h-58.821c-0.104,0-0.188,0.084-0.188,0.188c0,0,0,0,0,0c0,0,0,0,0,0.001v5.907
		c0,0.052,0.021,0.099,0.055,0.133s0.081,0.055,0.133,0.055h0l0,0h50.191l-0.651,0.474h-50.203V114.542z M357.114,92.486h9.993
		v21.694h-9.993V92.486z M408.835,114.18V92.486h14.479l-12.489,21.694H408.835z M398.467,114.18V92.486h9.992v21.694H398.467z
		 M388.219,114.18V92.486h9.872v21.694H388.219z M377.851,114.18V92.486h9.992v21.694H377.851z M441.513,94.15l-4.282-0.685
		l3.055-7.241c0.041-0.096-0.004-0.206-0.1-0.247c-0.096-0.04-0.206,0.004-0.247,0.1l-3.092,7.327l-1.285-0.206c0,0,0,0,0,0
		c-0.001,0-0.001-0.001-0.002-0.001c-0.096-0.014-0.169,0.046-0.197,0.13c-0.004,0.011-0.015,0.016-0.017,0.027c0,0,0,0,0,0.001
		c0,0,0,0,0,0l-0.591,3.9v-4.955c0,0,0,0,0-0.001s0,0,0,0c0-0.104-0.084-0.188-0.188-0.188h-2.759l-2.491-6.033
		c-0.04-0.096-0.15-0.142-0.246-0.102c-0.097,0.04-0.143,0.15-0.103,0.246l2.431,5.889h-7.436l12.003-20.85h20.482v11.96
		L441.513,94.15z M434.38,98.339l-2.416-5.853h2.416V98.339z M435.69,93.599l1.007,0.161l-1.61,3.815L435.69,93.599z M423.53,92.11
		h-14.695V71.26h26.698L423.53,92.11z M408.459,92.11h-9.992V71.26h9.992V92.11z M398.091,92.11h-9.872V71.26h9.872V92.11z
		 M387.843,92.11h-9.992V71.26h9.992V92.11z M423.748,92.486h7.807l2.839,6.876c0.007,0.016,0.021,0.025,0.031,0.038
		c0.002,0.003,0.002,0.007,0.004,0.01l-0.62,4.091l-2.312,1.271l-3.77-0.603c-0.027-0.005-0.053,0.01-0.08,0.018
		c-0.023,0.006-0.048,0.004-0.066,0.018l-13.698,9.974h-2.623L423.748,92.486z M433.566,105.103l-1.463-0.234l1.635-0.899
		L433.566,105.103z M427.743,104.553l5.951,0.952c0.01,0.001,0.02,0.002,0.03,0.002c0.091,0,0.172-0.066,0.186-0.158
		c0-0.001,0-0.001,0-0.001c0,0,0,0,0-0.001l0.949-6.259l2.222-5.266l4.45,0.712c0.01,0.001,0.02,0.002,0.03,0.002
		c0.038,0,0.077-0.012,0.111-0.036l14.778-10.813v30.493h-41.928L427.743,104.553z M377.475,71.26v20.85h-9.992V71.26H377.475z
		 M377.475,92.486v21.694h-9.992V92.486H377.475z M456.631,120.925h-44.782v-4.798l1.008-0.734h43.775V120.925z M356.867,117.892
		l-2.499-2.499h4.999L356.867,117.892z M359.632,115.661v4.996l-2.498-2.498L359.632,115.661z M354.1,115.66l2.5,2.499l-2.5,2.499
		V115.66z M356.867,118.426l2.499,2.499h-4.999L356.867,118.426z M360.008,120.925v-5.532h45.558v4.843l-0.947,0.689H360.008z
		 M406.789,119.811l-0.847,0.847v-0.23L406.789,119.811z M405.942,119.962v-4.302l2.489,2.489L405.942,119.962z M410.467,116.667
		l1.006-1.006v0.273L410.467,116.667z M411.473,116.4v4.257l-2.463-2.463L411.473,116.4z M408.708,117.892l-2.499-2.499h4.998
		L408.708,117.892z M405.566,120.701v0.224h-0.307L405.566,120.701z M408.708,118.426l2.499,2.499h-4.998L408.708,118.426z
		 M411.849,115.661v-0.268h0.368L411.849,115.661z M413.373,115.017l0.652-0.475h42.606v0.475H413.373z M367.107,71.26v20.85h-9.993
		V71.26H367.107z M356.738,92.11h-14.694l-12.003-20.85h26.697V92.11z M356.738,92.486v21.694h-1.989L342.26,92.486H356.738z
		 M348.508,113.57h-15.656c-0.009-0.023-0.01-0.049-0.028-0.067l-0.065-0.065v-0.163c0-0.05-0.02-0.098-0.055-0.133l-0.065-0.065
		v-0.163c0-0.05-0.02-0.098-0.055-0.133l-0.482-0.482c-0.015-0.014-0.031-0.026-0.049-0.035l-0.214-0.107l-0.099-0.099
		c-0.035-0.035-0.083-0.055-0.133-0.055h-0.284l-0.065-0.065c-0.017-0.017-0.042-0.017-0.064-0.026v-8.33L348.508,113.57z
		 M331.194,112.362c0.018,0.006,0.032,0.022,0.052,0.022h0.284l0.065,0.065c0.015,0.014,0.031,0.026,0.049,0.035l0.214,0.107
		l0.405,0.405v0.163c0,0.05,0.02,0.098,0.055,0.133l0.065,0.065v0.163c0,0.019,0.015,0.032,0.021,0.05h-1.21V112.362z
		 M330.818,113.57h-1.321c0.004-0.016,0.011-0.031,0.011-0.048v-0.283l0.186-0.186c0.014-0.014,0.026-0.031,0.035-0.049l0.107-0.214
		l0.164-0.164h0.042c0.05,0,0.097-0.02,0.133-0.055l0.099-0.099l0.174-0.087h0.076c0.029,0,0.058-0.007,0.084-0.02l0.201-0.101
		h0.009V113.57z M332.481,113.946l-0.043,0.043c-0.035,0.035-0.055,0.083-0.055,0.133v0.051h-0.654
		c-0.104,0-0.188,0.084-0.188,0.188s0.084,0.188,0.188,0.188h0.534v0.097l-0.405,0.405l-0.214,0.107
		c-0.018,0.009-0.034,0.021-0.049,0.035l-0.065,0.065h-0.284c-0.05,0-0.097,0.02-0.133,0.055l-0.065,0.065h-0.239l-0.2-0.096
		c-0.026-0.013-0.055-0.02-0.084-0.02h-0.076l-0.202-0.1c-0.026-0.013-0.055-0.02-0.084-0.02h-0.042l-0.285-0.285l-0.107-0.214
		c-0.009-0.018-0.021-0.035-0.035-0.049l-0.045-0.045h0.633c0.104,0,0.188-0.084,0.188-0.188s-0.084-0.188-0.188-0.188h-0.774
		v-0.049c0-0.029-0.007-0.058-0.02-0.084l-0.047-0.094H332.481z M329.026,113.946c0.002,0.006,0.001,0.012,0.004,0.018l0.101,0.201
		v0.008h-0.296c-0.104,0-0.188,0.084-0.188,0.188s0.084,0.188,0.188,0.188h0.324c0.009,0.022,0.01,0.049,0.027,0.066l0.22,0.219
		l0.107,0.214c0.009,0.018,0.021,0.035,0.035,0.049l0.361,0.362c0.035,0.035,0.083,0.055,0.133,0.055h0.076l0.202,0.1
		c0.026,0.013,0.055,0.02,0.084,0.02h0.076l0.201,0.101c0.026,0.013,0.055,0.02,0.084,0.02h0.361c0.05,0,0.098-0.02,0.132-0.059
		l0.065-0.065h0.284c0.05,0,0.097-0.02,0.133-0.055l0.099-0.099l0.214-0.107c0.018-0.009,0.034-0.021,0.049-0.035l0.482-0.482
		c0.035-0.035,0.055-0.083,0.055-0.133v-0.163l0.008-0.008h0.408c0.104,0,0.188-0.084,0.188-0.188s-0.084-0.188-0.188-0.188h-0.273
		l0.042-0.042c0.035-0.035,0.055-0.083,0.055-0.133v-0.052h20.001v0.227h-1.259c-0.104,0-0.188,0.084-0.188,0.188
		s0.084,0.188,0.188,0.188h1.266v7.407c0,0.1,0.081,0.181,0.181,0.181h49.887l-0.205,0.149c-0.084,0.061-0.103,0.179-0.042,0.263
		c0.037,0.051,0.094,0.078,0.152,0.078c0.039,0,0.078-0.012,0.111-0.036l0.623-0.454h52.856V268.74H309.124V151.513
		c0.011,0.093,0.084,0.169,0.18,0.169h22.666c0.104,0,0.188-0.084,0.188-0.188s-0.084-0.188-0.188-0.188h-22.666
		c-0.096,0-0.169,0.075-0.18,0.169v-5.992c0.01,0.095,0.084,0.171,0.181,0.171h28.693c0.104,0,0.188-0.084,0.188-0.188
		s-0.084-0.188-0.188-0.188h-28.693c-0.097,0-0.171,0.076-0.181,0.171v-5.873c0.01,0.095,0.084,0.171,0.181,0.171h34.601
		c0.104,0,0.188-0.084,0.188-0.188s-0.084-0.188-0.188-0.188h-34.601c-0.097,0-0.171,0.076-0.181,0.171v-5.994
		c0.01,0.095,0.084,0.171,0.181,0.171h40.629c0.104,0,0.188-0.084,0.188-0.188s-0.084-0.188-0.188-0.188h-40.629
		c-0.097,0-0.171,0.076-0.181,0.171v-5.872c0.011,0.093,0.084,0.169,0.18,0.169h46.537c0.104,0,0.188-0.084,0.188-0.188
		s-0.084-0.188-0.188-0.188h-46.537c-0.096,0-0.169,0.075-0.18,0.169v-13.055h1.145c0.104,0,0.188-0.084,0.188-0.188
		s-0.084-0.188-0.188-0.188h-1.145v-0.227H329.026z M330.818,103.364v8.519h-0.054c-0.029,0-0.058,0.007-0.084,0.02l-0.201,0.101
		h-0.076c-0.029,0-0.058,0.007-0.084,0.02l-0.241,0.121c-0.018,0.009-0.034,0.021-0.049,0.035l-0.065,0.065h-0.042
		c-0.05,0-0.097,0.02-0.133,0.055l-0.241,0.242c-0.014,0.015-0.026,0.031-0.035,0.049l-0.107,0.214l-0.22,0.219
		c-0.035,0.035-0.055,0.083-0.055,0.133v0.317l-0.048,0.096h-19.959V90.848L330.818,103.364z M663.153,70.891L663.153,70.891
		l0-0.475h0V70.891z M663.153,70.054L663.153,70.054l0-0.595h0V70.054z M663.153,69.083L663.153,69.083l0-5.531h0V69.083z
		 M663.153,63.176L663.153,63.176l0-0.114h0V63.176z M663.153,62.7L663.153,62.7l0-0.723h0V62.7z M663.153,61.615L663.153,61.615
		l0-0.482h0V61.615z"/>
	<path d="M494.467,101.345c0.037,0.042,0.089,0.063,0.141,0.063c0.044,0,0.089-0.016,0.125-0.047
		c0.078-0.069,0.085-0.188,0.016-0.266l-0.964-1.085c-0.069-0.078-0.188-0.084-0.266-0.016c-0.078,0.069-0.085,0.188-0.016,0.266
		L494.467,101.345z"/>
	<path d="M515.694,122.451c0.037,0.037,0.085,0.055,0.133,0.055s0.096-0.018,0.134-0.056c0.073-0.073,0.073-0.193-0.001-0.266
		l-20.254-20.134c-0.074-0.073-0.193-0.073-0.267,0.001c-0.073,0.073-0.073,0.193,0.001,0.266L515.694,122.451z"/>
	<path d="M517.751,124.387c0.036,0.032,0.081,0.048,0.125,0.048c0.052,0,0.104-0.021,0.141-0.064
		c0.069-0.078,0.062-0.197-0.016-0.266l-1.085-0.964c-0.078-0.069-0.197-0.062-0.266,0.016c-0.069,0.078-0.062,0.197,0.016,0.266
		L517.751,124.387z"/>
	<path d="M540.194,146.296c-0.075-0.073-0.193-0.073-0.267,0c-0.073,0.074-0.073,0.193,0,0.267l0.964,0.965
		c0.037,0.036,0.085,0.055,0.133,0.055c0.048,0,0.096-0.018,0.134-0.055c0.073-0.074,0.073-0.193,0-0.267L540.194,146.296z"/>
	<path d="M566.319,172.301h1.828v0.334c0,0.06,0.008,0.069,0.069,0.069h0.321c0.061,0,0.069-0.009,0.069-0.069
		c0-0.043-0.017-0.368-0.017-2.32v-1.558c0-1.207,0.017-1.549,0.017-1.592c0-0.059-0.008-0.068-0.069-0.068
		c-0.052,0-0.277,0.017-0.92,0.017v-0.713l0.33-0.33c0.614,0.003,0.847,0.016,0.886,0.016c0.06,0,0.069-0.008,0.069-0.068v-0.334
		c0-0.059-0.008-0.068-0.069-0.068c-0.028,0-0.161,0.007-0.444,0.012l17.136-17.136c0.073-0.074,0.073-0.193,0-0.267
		c-0.075-0.073-0.193-0.073-0.267,0l-17.408,17.408c-0.029,0-0.047,0-0.077,0h-1.606c-0.773,0-1.017-0.017-1.06-0.017
		c-0.06,0-0.069,0.008-0.069,0.068v0.334c0,0.059,0.008,0.068,0.069,0.068c0.044,0,0.287-0.017,1.06-0.017h0.182v1.044
		c-0.65,0-0.877-0.017-0.92-0.017c-0.06,0-0.069,0.008-0.069,0.068c0,0.032,0.01,0.24,0.015,0.944l-0.251,0.251
		c-0.073,0.074-0.073,0.193,0,0.267c0.037,0.036,0.085,0.055,0.133,0.055c0.043,0,0.085-0.02,0.12-0.049
		c0,0.108,0.001,0.214,0.001,0.338v1.438c0,0.382-0.001,0.687-0.002,0.958c-0.075-0.061-0.182-0.063-0.252,0.006
		c-0.073,0.074-0.073,0.193,0,0.267l0.249,0.249c-0.005,0.708-0.013,0.882-0.013,0.917c0,0.06,0.008,0.069,0.069,0.069h0.33
		c0.052,0,0.061-0.009,0.061-0.069v-0.47l19.438,19.438c0.037,0.036,0.085,0.055,0.133,0.055c0.048,0,0.096-0.018,0.134-0.055
		c0.073-0.074,0.073-0.193,0-0.267L566.319,172.301z M568.147,171.857h-2.272l-0.055-0.055v-0.818h2.327V171.857z M568.148,170.557
		h-2.327v-2.36l0.527-0.527c-0.001,0.283-0.005,0.598-0.041,0.901c-0.06,0.505-0.173,0.847-0.425,1.147
		c0.069,0.034,0.138,0.102,0.208,0.222c0.026,0.043,0.052,0.069,0.078,0.069s0.061-0.026,0.087-0.069
		c0.251-0.376,0.373-0.77,0.434-1.241c0.061-0.403,0.052-0.856,0.052-1.19h0.486v1.395c0,0.274,0.034,0.454,0.156,0.565
		c0.087,0.085,0.243,0.128,0.425,0.128c0.122,0,0.226,0,0.339-0.009h0.001V170.557z M568.146,167.508v1.651
		c-0.078,0.009-0.139,0.009-0.217,0.009c-0.173,0-0.226-0.025-0.269-0.094c-0.043-0.06-0.043-0.137-0.043-0.368v-1.198H568.146z
		 M567.227,167.114h-0.323l0.323-0.323V167.114z M567.227,166.07v0.187l-0.486,0.486v-0.673H567.227z M565.821,167.51h0.153
		l-0.153,0.153V167.51z"/>
	<path d="M586.609,192.473c-0.075-0.073-0.194-0.074-0.267,0c-0.074,0.073-0.073,0.192,0,0.266l0.965,0.964
		c0.037,0.036,0.085,0.055,0.133,0.055c0.049,0,0.097-0.018,0.134-0.055c0.074-0.073,0.073-0.192,0-0.266L586.609,192.473z"/>
	<path d="M588.538,194.522c-0.074-0.072-0.193-0.072-0.266,0.002c-0.074,0.074-0.073,0.193,0.001,0.266l20.254,20.013
		c0.036,0.036,0.084,0.054,0.132,0.054c0.049,0,0.097-0.019,0.134-0.056c0.074-0.074,0.073-0.193-0.001-0.266L588.538,194.522z"/>
	<path d="M609.748,215.611c-0.078-0.069-0.198-0.062-0.266,0.016c-0.069,0.078-0.062,0.197,0.016,0.266l1.085,0.965
		c0.036,0.032,0.081,0.048,0.125,0.048c0.052,0,0.104-0.021,0.141-0.064c0.069-0.078,0.062-0.197-0.016-0.266L609.748,215.611z"/>
	<path d="M611.807,217.548c-0.075-0.073-0.193-0.073-0.267,0c-0.073,0.074-0.073,0.193,0,0.267l20.134,20.134
		c0.037,0.036,0.085,0.055,0.133,0.055s0.096-0.018,0.134-0.055c0.073-0.074,0.073-0.193,0-0.267L611.807,217.548z"/>
	<path d="M633.033,238.656c-0.069-0.078-0.189-0.085-0.266-0.016c-0.078,0.069-0.085,0.188-0.016,0.266l0.964,1.085
		c0.037,0.042,0.089,0.063,0.141,0.063c0.045,0,0.09-0.016,0.125-0.047c0.078-0.069,0.085-0.188,0.016-0.266L633.033,238.656z"/>
	<path d="M494.467,238.655l-0.964,1.085c-0.069,0.078-0.062,0.197,0.016,0.266c0.036,0.032,0.081,0.048,0.125,0.048
		c0.051,0,0.103-0.021,0.141-0.064l0.964-1.085c0.069-0.078,0.062-0.197-0.016-0.266
		C494.655,238.571,494.536,238.577,494.467,238.655z"/>
	<path d="M515.693,217.548l-20.254,20.134c-0.074,0.073-0.074,0.192-0.001,0.266c0.037,0.037,0.086,0.056,0.134,0.056
		c0.048,0,0.096-0.018,0.133-0.055l20.254-20.134c0.074-0.073,0.074-0.192,0.001-0.266
		C515.885,217.475,515.766,217.474,515.693,217.548z"/>
	<path d="M517.751,215.612l-1.085,0.965c-0.078,0.069-0.085,0.188-0.016,0.266c0.037,0.042,0.089,0.063,0.141,0.063
		c0.044,0,0.089-0.016,0.125-0.047l1.085-0.965c0.078-0.069,0.085-0.188,0.016-0.266S517.829,215.544,517.751,215.612z"/>
	<path d="M540.891,192.472l-0.964,0.964c-0.073,0.074-0.073,0.193,0,0.267c0.037,0.036,0.085,0.055,0.133,0.055
		s0.096-0.018,0.134-0.055l0.964-0.964c0.073-0.074,0.073-0.193,0-0.267C541.083,192.399,540.965,192.399,540.891,192.472z"/>
	<path d="M564.427,169.324c-0.075-0.073-0.194-0.073-0.267,0l-0.409,0.409l-0.103-0.103c0.052-0.771,0.078-1.577,0.082-2.303
		c0-0.265,0-0.539,0.017-0.787c0-0.06-0.017-0.077-0.078-0.077c-0.052,0-0.347,0.017-1.233,0.017v0h-1.95l-6.977-6.935v-21.555
		c0-0.104-0.084-0.188-0.188-0.188h-21.667l-12.68-12.604c-0.074-0.073-0.193-0.073-0.267,0.001
		c-0.073,0.073-0.073,0.193,0.001,0.266l12.412,12.337h-44.349c-0.104,0-0.188,0.084-0.188,0.188v64.621
		c0,0.104,0.084,0.188,0.188,0.188h43.743l-11.806,11.735c-0.074,0.073-0.074,0.192-0.001,0.266
		c0.037,0.037,0.086,0.056,0.134,0.056s0.096-0.019,0.133-0.055l12.075-12.002h22.272c0.104,0,0.189-0.084,0.188-0.188v-22.157
		l7.685-7.639c0.318,0.026,0.594,0.042,0.973,0.042c0.79,0,1.094-0.394,1.259-1.241c0.063-0.345,0.111-0.751,0.153-1.178
		l0.172-0.172l0.408,0.409c0.037,0.036,0.085,0.055,0.133,0.055c0.049,0,0.097-0.018,0.134-0.055c0.073-0.074,0.073-0.193,0-0.267
		L564.018,170l0.409-0.409C564.5,169.517,564.5,169.398,564.427,169.324z M559.033,165.634c0.017-0.011,0.014-0.028,0.026-0.04
		l0.892,0.887h-1.387c0.096-0.179,0.182-0.368,0.278-0.573C558.903,165.78,558.955,165.685,559.033,165.634z M553.133,138.179
		v20.993l-1.794-1.783v-17.226c0-0.104-0.084-0.188-0.188-0.188h-17.313l-1.806-1.795H553.133z M541.855,191.773
		c0.037,0.037,0.086,0.056,0.134,0.056s0.096-0.018,0.133-0.055l8.841-8.789v17.148h-17.232l5.377-5.345
		c0.074-0.073,0.074-0.192,0.001-0.266c-0.074-0.074-0.193-0.075-0.267-0.001l-5.646,5.612H489.25V140.35h44.432l5.16,5.129
		c0.037,0.037,0.085,0.055,0.133,0.055c0.048,0,0.096-0.019,0.134-0.056c0.073-0.073,0.073-0.193-0.001-0.266l-4.891-4.862h16.746
		v16.665l-8.841-8.789c-0.074-0.073-0.193-0.073-0.267,0.001c-0.073,0.073-0.073,0.193,0.001,0.266l9.107,9.053v24.908l-9.107,9.053
		C541.782,191.58,541.782,191.699,541.855,191.773z M551.339,157.92l1.794,1.783v20.594l-1.794,1.783V157.92z M486.959,202.424
		v-64.245h44.539l1.806,1.795h-44.242c-0.104,0-0.188,0.084-0.188,0.188v60.16c0,0.104,0.084,0.188,0.188,0.188h43.756l-1.926,1.914
		H486.959z M553.133,202.424h-21.706l1.926-1.914h17.799c0.052,0,0.099-0.021,0.133-0.055c0.034-0.034,0.055-0.081,0.055-0.133
		v-17.71l1.794-1.783V202.424z M562.124,172.328c-0.144,0-0.282-0.004-0.428-0.012l0.68-0.676c0.074-0.073,0.074-0.192,0.001-0.266
		c-0.074-0.074-0.193-0.074-0.267-0.001l-0.904,0.899c-0.105-0.013-0.215-0.028-0.341-0.047c0.046,0.083,0.072,0.187,0.098,0.289
		l-7.453,7.409v-19.846l5.3,5.268c-0.107-0.035-0.225-0.07-0.357-0.105c-0.018,0.188-0.069,0.368-0.165,0.599
		c-0.426,0.993-0.964,1.781-1.806,2.585c0.095,0.052,0.2,0.129,0.286,0.24c0.052,0.068,0.078,0.094,0.113,0.094
		c0.035,0,0.069-0.026,0.13-0.086c0.512-0.522,0.929-1.061,1.294-1.703h2.138l1.668,1.658c0.037,0.037,0.085,0.055,0.133,0.055
		c0.049,0,0.097-0.019,0.134-0.056c0.073-0.073,0.073-0.193-0.001-0.266l-1.399-1.391h2.189c0,0.88-0.022,1.651-0.058,2.341
		c-0.011,0.007-0.024,0.005-0.034,0.014c-0.073,0.074-0.073,0.193,0,0.267l0.019,0.019c-0.044,0.713-0.107,1.322-0.187,1.819
		C562.793,172.054,562.619,172.328,562.124,172.328z"/>
	<path d="M586.476,147.583c0.048,0,0.096-0.018,0.134-0.055l0.965-0.965c0.073-0.074,0.073-0.193,0-0.267
		c-0.075-0.073-0.193-0.073-0.267,0l-0.965,0.965c-0.073,0.074-0.073,0.193,0,0.267C586.38,147.564,586.428,147.583,586.476,147.583
		z"/>
	<path d="M588.405,145.534c0.048,0,0.095-0.019,0.132-0.054l20.254-20.013c0.074-0.073,0.074-0.192,0.001-0.266
		c-0.072-0.074-0.192-0.075-0.266-0.002l-20.254,20.013c-0.074,0.073-0.074,0.192-0.001,0.266
		C588.308,145.515,588.356,145.534,588.405,145.534z"/>
	<path d="M610.584,123.142l-1.085,0.964c-0.078,0.069-0.085,0.188-0.016,0.266c0.037,0.042,0.089,0.063,0.141,0.063
		c0.044,0,0.089-0.016,0.125-0.047l1.085-0.964c0.078-0.069,0.085-0.188,0.016-0.266S610.662,123.073,610.584,123.142z"/>
	<path d="M611.673,122.506c0.049,0,0.097-0.018,0.134-0.055l20.134-20.134c0.073-0.074,0.073-0.193,0-0.267
		c-0.075-0.073-0.193-0.073-0.267,0l-20.134,20.134c-0.073,0.074-0.073,0.193,0,0.267
		C611.577,122.487,611.625,122.506,611.673,122.506z"/>
	<path d="M633.715,100.009l-0.964,1.085c-0.069,0.078-0.062,0.197,0.016,0.266c0.036,0.032,0.081,0.048,0.125,0.048
		c0.052,0,0.104-0.021,0.141-0.064l0.964-1.085c0.069-0.078,0.062-0.197-0.016-0.266C633.903,99.924,633.783,99.931,633.715,100.009
		z"/>
	<path d="M311.716,114.549h1.447c0.104,0,0.188-0.084,0.188-0.188s-0.084-0.188-0.188-0.188h-1.447
		c-0.104,0-0.188,0.084-0.188,0.188S311.612,114.549,311.716,114.549z"/>
	<path d="M314.609,114.549h1.447c0.104,0,0.188-0.084,0.188-0.188s-0.084-0.188-0.188-0.188h-1.447
		c-0.104,0-0.188,0.084-0.188,0.188S314.505,114.549,314.609,114.549z"/>
	<path d="M317.382,114.549h1.447c0.104,0,0.188-0.084,0.188-0.188s-0.084-0.188-0.188-0.188h-1.447
		c-0.104,0-0.188,0.084-0.188,0.188S317.278,114.549,317.382,114.549z"/>
	<path d="M320.275,114.549h1.447c0.104,0,0.188-0.084,0.188-0.188s-0.084-0.188-0.188-0.188h-1.447
		c-0.104,0-0.188,0.084-0.188,0.188S320.171,114.549,320.275,114.549z"/>
	<path d="M323.169,114.549h1.326c0.104,0,0.188-0.084,0.188-0.188s-0.084-0.188-0.188-0.188h-1.326
		c-0.104,0-0.188,0.084-0.188,0.188S323.065,114.549,323.169,114.549z"/>
	<path d="M325.942,114.549h1.447c0.104,0,0.188-0.084,0.188-0.188s-0.084-0.188-0.188-0.188h-1.447
		c-0.104,0-0.188,0.084-0.188,0.188S325.838,114.549,325.942,114.549z"/>
	<path d="M334.502,114.549h1.447c0.104,0,0.188-0.084,0.188-0.188s-0.084-0.188-0.188-0.188h-1.447
		c-0.104,0-0.188,0.084-0.188,0.188S334.398,114.549,334.502,114.549z"/>
	<path d="M337.395,114.549h1.447c0.104,0,0.188-0.084,0.188-0.188s-0.084-0.188-0.188-0.188h-1.447
		c-0.104,0-0.188,0.084-0.188,0.188S337.291,114.549,337.395,114.549z"/>
	<path d="M340.168,114.549h1.447c0.104,0,0.188-0.084,0.188-0.188s-0.084-0.188-0.188-0.188h-1.447
		c-0.104,0-0.188,0.084-0.188,0.188S340.064,114.549,340.168,114.549z"/>
	<path d="M343.062,114.549h1.447c0.104,0,0.188-0.084,0.188-0.188s-0.084-0.188-0.188-0.188h-1.447
		c-0.104,0-0.188,0.084-0.188,0.188S342.958,114.549,343.062,114.549z"/>
	<path d="M345.955,114.549h1.326c0.104,0,0.188-0.084,0.188-0.188s-0.084-0.188-0.188-0.188h-1.326
		c-0.104,0-0.188,0.084-0.188,0.188S345.851,114.549,345.955,114.549z"/>
	<path d="M348.728,114.549h1.447c0.104,0,0.188-0.084,0.188-0.188s-0.084-0.188-0.188-0.188h-1.447
		c-0.104,0-0.188,0.084-0.188,0.188S348.624,114.549,348.728,114.549z"/>
	<path d="M170.851,128.705c-0.218-0.351-0.503-0.626-0.854-0.824c-0.351-0.198-0.752-0.297-1.203-0.297
		c-0.98,0-1.763,0.365-2.348,1.094c-0.585,0.729-0.878,1.73-0.878,3.001c0,1.102,0.297,2.006,0.892,2.71
		c0.595,0.704,1.327,1.056,2.198,1.056c0.529,0,0.971-0.1,1.326-0.301c0.355-0.201,0.672-0.522,0.95-0.964v1.032h1.894V125.15
		h-1.977V128.705z M170.476,133.189c-0.287,0.41-0.707,0.615-1.258,0.615c-0.551,0-0.961-0.207-1.23-0.622
		c-0.273-0.41-0.41-0.959-0.41-1.647c0-0.638,0.135-1.172,0.401-1.603c0.266-0.431,0.684-0.646,1.254-0.646
		c0.373,0,0.701,0.118,0.984,0.355c0.46,0.392,0.69,1.044,0.69,1.955C170.907,132.248,170.763,132.779,170.476,133.189z"/>
	<path d="M181.01,130.552c-0.086-0.583-0.275-1.096-0.567-1.538c-0.323-0.502-0.733-0.869-1.23-1.101
		c-0.497-0.233-1.055-0.349-1.675-0.349c-1.043,0-1.892,0.344-2.546,1.032s-0.981,1.677-0.981,2.967c0,1.376,0.362,2.369,1.087,2.98
		c0.725,0.611,1.561,0.916,2.509,0.916c1.149,0,2.042-0.362,2.68-1.087c0.41-0.456,0.64-0.904,0.69-1.346h-1.99
		c-0.105,0.219-0.225,0.39-0.362,0.513c-0.251,0.228-0.577,0.342-0.978,0.342c-0.379,0-0.702-0.093-0.971-0.28
		c-0.442-0.301-0.677-0.825-0.704-1.572h5.1C181.081,131.386,181.06,130.894,181.01,130.552z M176.022,130.742
		c0.064-0.483,0.22-0.865,0.468-1.148c0.248-0.283,0.598-0.424,1.049-0.424c0.414,0,0.762,0.134,1.042,0.4
		c0.28,0.266,0.436,0.657,0.468,1.172H176.022z"/>
	<polygon points="180.977,133.025 180.977,133.026 180.977,133.026 	"/>
	<path d="M184.586,125.751h-1.928v2.078h-1.039v1.388h1.039v4.587c0,0.465,0.109,0.809,0.328,1.032
		c0.338,0.351,0.967,0.511,1.887,0.479l0.923-0.034v-1.456c-0.064,0.004-0.129,0.009-0.195,0.011
		c-0.066,0.002-0.129,0.003-0.188,0.003c-0.397,0-0.634-0.038-0.711-0.113c-0.077-0.075-0.116-0.266-0.116-0.571v-3.938h1.21v-1.388
		h-1.21V125.751z"/>
	<path d="M193.117,134.18c-0.01-0.337-0.014-0.624-0.014-0.861v-3.418c0-0.898-0.317-1.509-0.95-1.832s-1.358-0.485-2.174-0.485
		c-1.253,0-2.137,0.328-2.652,0.984c-0.324,0.419-0.506,0.955-0.548,1.607h1.88c0.045-0.288,0.136-0.515,0.273-0.684
		c0.192-0.228,0.518-0.342,0.978-0.342c0.41,0,0.721,0.058,0.933,0.174c0.212,0.116,0.318,0.327,0.318,0.632
		c0,0.251-0.139,0.436-0.417,0.554c-0.154,0.068-0.412,0.125-0.772,0.171l-0.663,0.082c-0.752,0.096-1.322,0.256-1.709,0.479
		c-0.707,0.41-1.06,1.073-1.06,1.989c0,0.706,0.22,1.252,0.66,1.637s0.997,0.578,1.671,0.578c0.529,0,1.003-0.121,1.422-0.362
		c0.351-0.205,0.661-0.453,0.93-0.745c0.014,0.169,0.032,0.319,0.055,0.451c0.023,0.132,0.064,0.274,0.123,0.424h2.119v-0.287
		c-0.127-0.06-0.223-0.134-0.287-0.226C193.169,134.608,193.131,134.435,193.117,134.18z M191.155,132.314
		c-0.013,0.652-0.197,1.101-0.55,1.347c-0.353,0.246-0.74,0.369-1.159,0.369c-0.264,0-0.488-0.076-0.67-0.226
		c-0.187-0.146-0.28-0.385-0.281-0.718c0-0.374,0.15-0.649,0.451-0.827c0.178-0.105,0.472-0.194,0.882-0.267l0.438-0.082
		c0.219-0.041,0.39-0.085,0.516-0.133c0.126-0.048,0.25-0.111,0.373-0.188V132.314z"/>
	<rect x="194.86" y="125.075" width="1.976" height="1.798"/>
	<rect x="194.86" y="127.761" width="1.976" height="7.451"/>
	<rect x="198.764" y="125.136" width="1.948" height="10.076"/>
</g>
<polygon class="st2" points="366.186,171.768 346.324,132.045 206.633,132.045 206.633,131.045 346.942,131.045 367.081,171.321 "/>
</svg>
