<svg xmlns="http://www.w3.org/2000/svg" width="240.954" height="292.802" viewBox="0 0 240.954 292.802">
  <g id="ba53ff0e-7b5f-4eff-901b-3cc507fe7a75" data-name="レイヤー 2">
    <g id="a990ad34-96be-4b1c-b551-709d3a76bb68" data-name="レイヤー 1">
      <g>
        <path d="M222.353,20.4l.36-10.321c-.817.792-2.4,2.184-2.857,2.184a.608.608,0,0,1-.6-.6.617.617,0,0,1,.336-.552A16.276,16.276,0,0,0,224.537,6a.568.568,0,0,1,.5-.312.7.7,0,0,1,.672.672,9.249,9.249,0,0,1-1.8,2.472L223.648,20.4a.62.62,0,0,1-.671.576.561.561,0,0,1-.624-.552ZM219.545,6.289a.638.638,0,0,1,.359-.528,15.582,15.582,0,0,0,4.585-4.7.6.6,0,0,1,.5-.312.682.682,0,0,1,.672.648c0,.768-4.368,5.521-5.473,5.521A.656.656,0,0,1,219.545,6.289Zm10.969,6.649-.025,3.36a29.546,29.546,0,0,0,3.5-.936.555.555,0,0,1,.192-.049.49.49,0,0,1,.456.529.544.544,0,0,1-.336.5,52.221,52.221,0,0,1-8.425,1.944.581.581,0,0,1-.624-.576.592.592,0,0,1,.552-.576c.912-.12,2.184-.336,3.5-.6v-3.6l-2.9.047a.528.528,0,1,1,0-1.056h2.9l-.024-1.9a.58.58,0,0,1,.624-.576.573.573,0,0,1,.6.576v1.9l2.952-.024a.528.528,0,1,1,0,1.056Zm-4.273-4.249a.528.528,0,0,1,0-1.056l3.072.024V4.489l-2.568.024a.5.5,0,0,1-.528-.528.5.5,0,0,1,.528-.528l2.568.023L229.289.912a.58.58,0,0,1,.624-.576.573.573,0,0,1,.6.576V3.48l2.591-.023a.5.5,0,0,1,.529.528.5.5,0,0,1-.529.528l-2.591-.024-.025,3.168,2.952-.024a.529.529,0,0,1,0,1.056Zm12,9.289v.072c0,1.464-.552,2.688-2.856,2.688a9.718,9.718,0,0,1-1.872-.216.594.594,0,0,1-.481-.624c0-.336.193-.648.505-.648h.1a10.8,10.8,0,0,0,1.752.216c1.008,0,1.56-.384,1.56-1.608,0-1.68.024-6.817.024-9.241h-2.208a.547.547,0,0,1-.552-.576.541.541,0,0,1,.552-.552h5.52a.564.564,0,1,1,0,1.128h-2.088c0,1.8,0,5.713.024,6.865ZM235.122,3.1a.588.588,0,1,1,0-1.176h4.536a.56.56,0,0,1,.6.577.565.565,0,0,1-.6.6Z"/>
        <path d="M229.722,44.569c-1.969-.024-3.913-.072-5.785-.144a2.326,2.326,0,0,1-2.5-2.208c-.023-.7-.047-1.392-.047-2.088s.024-1.368.047-1.968a2.375,2.375,0,0,1,2.449-2.232c1.824-.048,3.816-.072,5.833-.072L229.7,31.92a.6.6,0,0,1,.649-.576.607.607,0,0,1,.672.576l-.025,3.937c2.04,0,4.105.024,6,.072a2.294,2.294,0,0,1,2.328,2.064c.048.624.048,1.344.048,2.064s0,1.464-.048,2.136a2.432,2.432,0,0,1-2.472,2.232c-1.92.1-3.912.144-5.857.144l.025,7.033a.6.6,0,0,1-.672.552.6.6,0,0,1-.649-.552Zm0-7.536c-1.969,0-3.865.024-5.329.072a1.636,1.636,0,0,0-1.705,1.536c-.023.408-.023.96-.023,1.536,0,2.3.1,3,1.752,3.072,1.536.072,3.384.12,5.305.12Zm1.271,6.336c1.872,0,3.744-.048,5.377-.12a1.555,1.555,0,0,0,1.68-1.536c.024-.5.024-1.152.024-1.8,0-1.9-.048-2.736-1.728-2.808-1.489-.048-3.408-.072-5.353-.072Z"/>
        <path d="M231.426,65.689c0,2.232-3.169,11.257-6.385,11.257-1.248,0-3.12-1.632-3.12-4.465a8.917,8.917,0,0,1,9.192-8.472c4.129,0,7.753,2.64,7.753,6.864,0,5.905-6.553,7.825-7.392,7.825a.73.73,0,0,1-.817-.672c0-.288.216-.6.721-.7,3.24-.7,6.12-2.928,6.12-6.553,0-3.36-2.977-5.712-6.408-5.712A.67.67,0,0,1,231.426,65.689Zm-8.257,6.7c0,1.633.984,3.121,1.944,3.121,1.632,0,4.609-5.761,4.945-9.793a.813.813,0,0,1,.24-.6A7.777,7.777,0,0,0,223.169,72.385Z"/>
        <path d="M220.576,104.281a.657.657,0,0,1-.672-.575.628.628,0,0,1,.288-.505,18.309,18.309,0,0,0,4.561-5.472,19.574,19.574,0,0,0-.912-2.76c-.624.648-2.616,2.616-3.216,2.616a.609.609,0,0,1-.625-.552.55.55,0,0,1,.288-.456,16.97,16.97,0,0,0,3.072-2.664,10.26,10.26,0,0,0-1.679-2.5.637.637,0,0,1-.193-.457.585.585,0,0,1,.576-.576c.553,0,1.513,1.321,2.161,2.544a17.211,17.211,0,0,0,1.632-2.3.52.52,0,0,1,.456-.264.653.653,0,0,1,.648.6c0,.408-1.3,1.993-2.232,3.049a23.053,23.053,0,0,1,1.848,8.88c0,3.313-.7,6.937-4.224,6.937-1.752,0-1.945-.432-1.945-.816a.584.584,0,0,1,.553-.648.523.523,0,0,1,.191.024,5.126,5.126,0,0,0,1.273.192,2.314,2.314,0,0,0,2.328-1.8,12.421,12.421,0,0,0,.648-4.129,20.4,20.4,0,0,0-.312-3.384C224.249,100.609,221.44,104.281,220.576,104.281Zm13.993-2.88a11.972,11.972,0,0,0,6.049,7.393.56.56,0,0,1,.336.528.738.738,0,0,1-.7.744c-1.031,0-5.184-3.288-6.5-7.825-1.656,6.049-6.409,8.017-6.937,8.017a.638.638,0,0,1-.216-1.248,10.187,10.187,0,0,0,6.144-7.609l-5.064.072a.564.564,0,1,1,0-1.128l5.257.024a45.518,45.518,0,0,0,.12-5.688l-4.657.048a.576.576,0,1,1,0-1.152l4.632.024c0-1.488,0-2.761-.023-3.241v-.024a.6.6,0,0,1,.624-.624.591.591,0,0,1,.624.624V93.6l5.088-.024a.577.577,0,0,1,0,1.152l-5.065-.024a53.215,53.215,0,0,1-.143,5.664l1.3-.024a24.842,24.842,0,0,0,1.8-4.224.55.55,0,0,1,.552-.432c.36,0,.768.288.768.624a26.527,26.527,0,0,1-1.968,4.032h3.672a.543.543,0,0,1,.553.552.548.548,0,0,1-.553.576Zm-4.2-2.28a12.383,12.383,0,0,0-1.7-2.592.38.38,0,0,1-.12-.288c0-.264.336-.5.624-.5.48,0,2.328,2.448,2.328,3.1a.64.64,0,0,1-.624.648A.542.542,0,0,1,230.369,99.121Z"/>
        <path d="M220.961,135.554a.682.682,0,0,1-.481-1.2,15.442,15.442,0,0,0,4.033-6.409.58.58,0,0,1,.576-.408.725.725,0,0,1,.768.672,18.447,18.447,0,0,1-4.3,7.081A.845.845,0,0,1,220.961,135.554Zm9-13.033a.684.684,0,1,1,1.368,0v12.913l.049,2.688v.048c0,1.464-.889,3-3.745,3a12.318,12.318,0,0,1-2.28-.264.7.7,0,0,1-.624-.672.693.693,0,0,1,.648-.72.408.408,0,0,1,.168.024,10.943,10.943,0,0,0,2.184.288c1.344,0,2.232-.5,2.232-1.872Zm9.313,11.665a22.712,22.712,0,0,0-4.488-5.761.507.507,0,0,1-.192-.408.618.618,0,0,1,.648-.576c1.056,0,5.472,5.5,5.472,6.433a.794.794,0,0,1-.768.792A.773.773,0,0,1,239.274,134.186Z"/>
        <path d="M223.337,160.609h-2.832a.543.543,0,0,1-.553-.552.548.548,0,0,1,.553-.576l2.832.024V153.84a.591.591,0,0,1,.647-.6.584.584,0,0,1,.624.6l-.023,5.665,2.568-.024a.521.521,0,0,1,.528.552.528.528,0,0,1-.528.576h-2.568l-.024,6.5c1.008-.432,1.944-.888,2.665-1.272a.632.632,0,0,1,.287-.072.554.554,0,0,1,.528.552.594.594,0,0,1-.36.528c-1.656.84-6.624,3.12-7.344,3.12a.614.614,0,0,1-.168-1.2c.96-.288,2.088-.7,3.191-1.152Zm10.345-.576-3.073,1.56c0,3.024-.024,6.12-.024,7.608,0,1.849,1.776,1.849,3.457,1.849,4.776,0,5.376-.576,5.376-3.073a.586.586,0,0,1,.624-.648c.265,0,.721.144.721.84,0,3.7-2.257,4.009-6.313,4.009-2.52,0-5.064-.048-5.064-2.809v-7.152a15.866,15.866,0,0,1-2.545,1.248.559.559,0,0,1-.528-.576.527.527,0,0,1,.312-.5s1.176-.6,2.761-1.416v-5.641a.584.584,0,0,1,.624-.6.576.576,0,0,1,.624.552c0,1.3-.025,3.12-.025,5.041l3.073-1.537v-5.616a.579.579,0,0,1,.624-.576.572.572,0,0,1,.6.576v4.992c1.944-.983,2.4-1.2,3.024-1.2,1.512,0,1.585,1.44,1.585,2.761,0,5.376-.433,6.816-2.473,6.816-1.056,0-1.2-.312-1.2-.7,0-.312.192-.648.48-.648.048,0,.072.024.12.024a2.192,2.192,0,0,0,.624.1c.84,0,1.224-.768,1.224-5.112,0-1.488-.12-2.016-.7-2.016-.12,0-.36.023-2.688,1.224v8.3a.549.549,0,0,1-.6.528.557.557,0,0,1-.624-.528Z"/>
        <path d="M235.554,201.1c-4.872,0-7.849-3.216-7.849-7.08a9.407,9.407,0,0,1,2.448-6.025c.193-.192.288-.312.288-.36,0-.024,0-.048-.047-.048a1.2,1.2,0,0,0-.384.1c-3.072,1.008-6.913,1.992-7.129,1.992a.782.782,0,0,1-.864-.744.755.755,0,0,1,.7-.7c.528-.12,1.992-.408,2.784-.6,1.2-.312,3.36-.792,5.881-1.512a40.645,40.645,0,0,1,6.792-1.44.77.77,0,0,1,.816.768c0,.624-.552.7-1.848.768a12.2,12.2,0,0,0-3.744.72A7.947,7.947,0,0,0,229,193.778c0,3,2.04,5.784,6.337,5.784h.432c.672,0,1.008.36,1.008.744C236.778,200.426,236.729,201.1,235.554,201.1Zm2.28-9a8.059,8.059,0,0,0-2.353-1.728.445.445,0,0,1-.311-.408.567.567,0,0,1,.6-.528c.48,0,3.1,1.368,3.1,2.256a.615.615,0,0,1-.6.624A.51.51,0,0,1,237.834,192.1Zm2.064-1.752a7.979,7.979,0,0,0-2.4-1.728.466.466,0,0,1-.336-.432.566.566,0,0,1,.6-.5c.36,0,3.144,1.272,3.144,2.256a.6.6,0,0,1-.576.624A.584.584,0,0,1,239.9,190.345Z"/>
        <path d="M228.785,226.25c0,1.008.025,3.816,2.689,3.816a4.074,4.074,0,0,0,3.912-4.1,5.837,5.837,0,0,0-1.872-3.84.806.806,0,0,1-.241-.528.625.625,0,0,1,.672-.577.843.843,0,0,1,.624.288,7.355,7.355,0,0,1,2.16,4.729,5.4,5.4,0,0,1-5.28,5.256c-1.992,0-3.792-1.3-3.887-4.2v-.648c0-.672.023-1.392.071-2.136a14.139,14.139,0,0,1-2.616-.456c-.456-.121-.624-.408-.624-.673a.624.624,0,0,1,.624-.647,1.019,1.019,0,0,1,.264.047,11.286,11.286,0,0,0,2.448.481c.121-1.392.289-2.857.432-4.225-2.5-.216-3.144-.6-3.144-1.152a.64.64,0,0,1,.648-.624.609.609,0,0,1,.288.048,9.13,9.13,0,0,0,2.328.5c.216-2.376.336-3.7.408-5.016a.634.634,0,0,1,.648-.672.721.721,0,0,1,.744.7v.048c-.048,1.176-.239,2.16-.384,3.576l-.143,1.392a8.423,8.423,0,0,0,1.584-.192.737.737,0,0,1,.216-.024.568.568,0,0,1,.624.576c0,.864-1.849.888-2.592.888-.169,1.368-.361,2.785-.481,4.2a7.793,7.793,0,0,0,2.256-.384,1.224,1.224,0,0,1,.288-.049.626.626,0,0,1,.649.625.649.649,0,0,1-.529.624,10.28,10.28,0,0,1-2.736.432C228.81,224.978,228.785,225.626,228.785,226.25Z"/>
        <path d="M177.633,3.961a.553.553,0,0,1-.576-.576.524.524,0,0,1,.551-.529l8.162.025L185.745.768a.65.65,0,0,1,.7-.624.638.638,0,0,1,.7.624l-.025,2.113,8.137-.025a.51.51,0,0,1,.528.552.522.522,0,0,1-.528.553Zm.12,9.6c0-1.369.864-2.3,2.568-2.329,2.136-.024,4.464-.024,6.865-.024,1.752,0,3.551,0,5.328.024a2.351,2.351,0,0,1,2.545,2.136v3.889c0,.312.047.816.047,1.3v.072c0,1.128-.528,2.208-2.88,2.208-2.016,0-2.281-.312-2.281-.744a.606.606,0,0,1,.6-.648h.1a11.317,11.317,0,0,0,1.8.216c.84,0,1.344-.288,1.344-1.2,0-3.769,0-4.321-.024-4.824-.024-.865-.576-1.345-1.536-1.369-1.92-.024-3.985-.048-6.025-.048-2.015,0-3.96.024-5.664.048a1.379,1.379,0,0,0-1.488,1.464c0,.865-.025,2.089-.025,3.313,0,1.248.025,2.5.025,3.456a.588.588,0,0,1-.649.576.6.6,0,0,1-.647-.6Zm8.688-3.841c-5.088,0-5.52-.024-5.52-1.992,0-1.344.072-2.208,2.088-2.232,1.3-.024,2.568-.048,3.841-.048,4.8,0,5.16.024,5.16,2.136C192.01,9.721,191.722,9.721,186.441,9.721Zm-.072,8.569c-4.008,0-4.512-.192-4.512-2.136,0-1.056.072-2.089,1.8-2.161.817-.024,1.777-.047,2.737-.047.984,0,1.944.023,2.711.047,1.777.072,1.825,1.105,1.825,2.017C190.93,18.242,190.281,18.29,186.369,18.29Zm4.417-10.7c0-.84-.049-1.128-1.08-1.128-1.248-.024-2.5-.024-3.745-.024-.912,0-1.824,0-2.735.024-.961.024-1.081.288-1.081,1.1,0,1.2,0,1.2,4.081,1.2,3.96,0,4.511,0,4.536-.672A3.068,3.068,0,0,0,190.786,7.585Zm-4.417,9.7c3.36,0,3.36-.024,3.36-1.224a2.726,2.726,0,0,0-.023-.456c-.072-.7-.1-.7-3.721-.7-.744,0-1.464,0-1.992.023-.912.025-.936.384-.936,1.561C183.105,17.282,183.513,17.282,186.369,17.282Z"/>
        <path d="M175.736,41.161a.9.9,0,0,1,.145-.432,8.057,8.057,0,0,0,1.008-3.984.489.489,0,0,1,.528-.528.622.622,0,0,1,.672.624c0,1.368-.672,4.872-1.752,4.872A.569.569,0,0,1,175.736,41.161Zm3.721-8.977a.611.611,0,0,1,.672-.6.6.6,0,0,1,.648.6V51.53a.6.6,0,0,1-.648.576.607.607,0,0,1-.672-.576Zm3.24,6.073a10.03,10.03,0,0,0-1.344-2.208.5.5,0,0,1-.12-.289.531.531,0,0,1,.552-.455c.6,0,2.04,1.992,2.04,2.616a.666.666,0,0,1-.648.672A.5.5,0,0,1,182.7,38.257Zm.888,12.889a.543.543,0,0,1-.6-.552.574.574,0,0,1,.6-.576l6,.024V44.473l-3.841.024a.542.542,0,0,1-.6-.552.573.573,0,0,1,.6-.576l3.841.024V38.5l-3.505.024a19.045,19.045,0,0,1-2.016,3.7.691.691,0,0,1-.6.36.61.61,0,0,1-.6-.6.542.542,0,0,1,.12-.36,17.012,17.012,0,0,0,3.073-7.68.621.621,0,0,1,.624-.577.645.645,0,0,1,.672.624,18.293,18.293,0,0,1-.865,3.409l3.1.024V32.256a.636.636,0,0,1,1.271,0v5.161l4.8-.024a.564.564,0,1,1,0,1.128l-4.8-.024v4.9l3.817-.024a.567.567,0,1,1,0,1.128l-3.817-.024v5.569l5.545-.024a.564.564,0,1,1,0,1.128Z"/>
        <path d="M176.673,69.385a.553.553,0,0,1-.576-.576.528.528,0,0,1,.528-.576c.5-.024,1.031-.024,1.584-.072a33.346,33.346,0,0,0,2.063-4.969.591.591,0,0,1,.6-.408.672.672,0,0,1,.72.576,27.042,27.042,0,0,1-2.16,4.681c1.631-.168,3.288-.432,4.656-.7a11.165,11.165,0,0,0-1.128-1.056.419.419,0,0,1-.168-.336.6.6,0,0,1,.6-.528c.671,0,3.143,2.616,3.143,3.36a.662.662,0,0,1-.624.672.553.553,0,0,1-.5-.336c-.192-.336-.408-.648-.624-.96A53.092,53.092,0,0,1,176.673,69.385Zm2.256,9.073c0,1.632.024,3.24.048,4.368a.612.612,0,0,1-1.224,0v-10.1c0-1.944,1.559-1.968,3.624-1.968,2.232,0,3.672.048,3.721,1.992.023.576.023,1.968.023,3.288v3.025c.025.864.048,1.176.048,1.872V81a1.913,1.913,0,0,1-2.16,2.16c-1.536,0-1.728-.36-1.728-.744a.564.564,0,0,1,.528-.6c.048,0,.072.024.12.024a5.841,5.841,0,0,0,1.056.144c.552,0,.936-.216.96-1.08,0-.576.024-1.464.024-2.448Zm0-3.265v2.281h5.04c0-.768-.024-1.536-.024-2.281Zm4.992-.984c0-.5-.024-.936-.024-1.3a1.022,1.022,0,0,0-1.032-1.08c-.336-.024-1.08-.024-1.7-.024-2.089,0-2.208.048-2.208,2.4ZM189.01,69.6c.023.792.263,1.32,2.736,1.32,2.136,0,3.36-.432,3.36-2.232a.547.547,0,0,1,.6-.576.691.691,0,0,1,.72.648c-.048,2.9-2.256,3.24-4.68,3.24-2.28,0-4.009-.216-4.009-2.28,0-1.464.048-4.873.048-6.217a.581.581,0,0,1,.649-.552c.311,0,.624.168.624.5v.024c-.025.744-.048,1.921-.048,3.1a38.247,38.247,0,0,0,5.472-2.065.547.547,0,0,1,.264-.072.707.707,0,0,1,.649.7.667.667,0,0,1-.457.577,42.933,42.933,0,0,1-5.928,1.92Zm0,10.681c.048,1.272,1.176,1.344,2.639,1.344,2.737,0,3.578-.648,3.578-2.232a.546.546,0,0,1,.6-.576.7.7,0,0,1,.744.648c-.048,2.832-2.16,3.288-4.776,3.288-2.376,0-4.057-.24-4.057-2.3,0-1.464.048-5.329.048-6.673a.581.581,0,0,1,.649-.552c.311,0,.624.168.624.5v.024c-.025.72-.048,1.968-.048,3.193a42.432,42.432,0,0,0,5.448-2.185.547.547,0,0,1,.264-.072.7.7,0,0,1,.648.672.638.638,0,0,1-.432.577,44.139,44.139,0,0,1-5.928,2.04Z"/>
        <path d="M191.554,111.578c-4.872,0-7.849-3.216-7.849-7.08a9.407,9.407,0,0,1,2.448-6.025c.193-.192.288-.312.288-.36,0-.024,0-.048-.047-.048a1.2,1.2,0,0,0-.384.1c-3.072,1.008-6.913,1.992-7.129,1.992a.782.782,0,0,1-.864-.744.755.755,0,0,1,.7-.7c.528-.12,1.992-.408,2.784-.6,1.2-.312,3.36-.792,5.881-1.512a40.645,40.645,0,0,1,6.792-1.44.77.77,0,0,1,.816.768c0,.624-.552.7-1.848.768a12.2,12.2,0,0,0-3.744.72A7.947,7.947,0,0,0,185,104.258c0,3,2.04,5.784,6.337,5.784h.432c.672,0,1.008.36,1.008.744C192.778,110.906,192.729,111.578,191.554,111.578Zm2.28-9a8.059,8.059,0,0,0-2.353-1.728.445.445,0,0,1-.311-.408.567.567,0,0,1,.6-.528c.48,0,3.1,1.368,3.1,2.256a.615.615,0,0,1-.6.624A.51.51,0,0,1,193.834,102.577Zm2.064-1.752a7.979,7.979,0,0,0-2.4-1.728.466.466,0,0,1-.336-.432.566.566,0,0,1,.6-.5c.36,0,3.144,1.272,3.144,2.256a.6.6,0,0,1-.576.624A.584.584,0,0,1,195.9,100.825Z"/>
        <path d="M190.546,126.025a2.676,2.676,0,0,1,2.9,2.568c.072,1.464.1,3.672.1,5.88,0,2.185-.024,4.321-.072,5.665-.048,1.848-1.152,2.784-3.288,2.856-.913.024-2.016.048-3.145.048-1.56,0-3.144-.024-4.271-.072-2.185-.072-3.265-.912-3.313-2.784-.024-1.344-.048-3.12-.048-4.992,0-2.281.024-4.657.048-6.457.023-1.56,1.008-2.64,3.072-2.712.48-.024,1.176-.048,1.945-.048.311-1.008.672-2.448.767-3a.616.616,0,0,1,.672-.455c.36,0,.744.191.744.6a19.626,19.626,0,0,1-.887,2.857C187.521,125.977,189.441,125.977,190.546,126.025Zm1.7,6.312H180.608c0,1.3.025,2.688.025,3.985H192.25Zm0-1.1c0-3.048,0-4.032-2.16-4.128-.96-.048-2.4-.048-3.769-.048-1.391,0-2.688,0-3.432.048-1.632.072-2.16.816-2.208,1.944-.024.6-.048,1.344-.048,2.184Zm-11.617,6.193c0,.96.024,1.824.048,2.448.072,2.064,1.3,2.064,5.953,2.064,4.176,0,5.52,0,5.568-2.088.024-.648.024-1.488.024-2.424Z"/>
        <path d="M180.873,160.921a.5.5,0,0,1-.384-.5.593.593,0,0,1,.6-.6,11.44,11.44,0,0,1,2.856,1.248,11.973,11.973,0,0,0,.888-2.712c0-.432-.288-.624-.96-.624-.624,0-1.776.024-2.76.048a23.109,23.109,0,0,1-3.648,5.3.789.789,0,0,1-.6.288.588.588,0,0,1-.6-.576.6.6,0,0,1,.191-.456,19.718,19.718,0,0,0,4.633-7.608.638.638,0,0,1,.6-.505.682.682,0,0,1,.672.649,8.714,8.714,0,0,1-.744,1.872l2.52-.048h.169c1.248,0,1.872.6,1.872,1.464a2.532,2.532,0,0,1-.12.7c-2.641,8.545-8.45,10.8-8.858,10.8a.639.639,0,0,1-.647-.624.664.664,0,0,1,.456-.576,11.922,11.922,0,0,0,4.584-3.553,17.017,17.017,0,0,0-2.64-1.176.476.476,0,0,1-.36-.456.619.619,0,0,1,.624-.624,13.865,13.865,0,0,1,3.072,1.344,17.916,17.916,0,0,0,1.176-1.92A13.084,13.084,0,0,0,180.873,160.921Zm-3.984,13.273a.59.59,0,0,1,.311-.48,6.216,6.216,0,0,0,2.425-3.264.585.585,0,0,1,.6-.48.619.619,0,0,1,.648.6c0,1.248-2.256,4.248-3.265,4.248A.692.692,0,0,1,176.889,174.194ZM190.762,160.8a11.347,11.347,0,0,0,5.736,6.816.589.589,0,0,1,.36.577.669.669,0,0,1-.671.672c-.937,0-4.8-2.928-6.074-6.769a9.658,9.658,0,0,1-6.672,7.081.66.66,0,0,1-.648-.648.594.594,0,0,1,.456-.552,8.717,8.717,0,0,0,5.952-7.153l-2.76.024h-.024a.478.478,0,0,1-.5-.5.548.548,0,0,1,.553-.576h2.9a14.46,14.46,0,0,0,.071-1.752c0-1.032-.047-2.064-.071-3.121a.611.611,0,0,1,.624-.648.626.626,0,0,1,.672.6c0,.84.023,1.609.023,2.3a22.57,22.57,0,0,1-.12,2.616h4.849a.5.5,0,0,1,.528.528.509.509,0,0,1-.528.552ZM184.5,174.7a.56.56,0,0,1-.6-.576,10.119,10.119,0,0,0-.671-3.576.294.294,0,0,1-.025-.144.5.5,0,0,1,.552-.432c1.225,0,1.464,3.912,1.464,4.032A.686.686,0,0,1,184.5,174.7Zm5.232-.072a.584.584,0,0,1-.6-.5,9.956,9.956,0,0,0-1.584-3.5.454.454,0,0,1-.072-.24.556.556,0,0,1,.576-.48c1.032,0,2.4,3.5,2.4,4.032A.7.7,0,0,1,189.729,174.626Zm4.3-16.345a5.647,5.647,0,0,0-2.064-1.92.278.278,0,0,1-.145-.265.647.647,0,0,1,.625-.575c.5,0,2.617,1.512,2.617,2.3a.683.683,0,0,1-.649.672A.461.461,0,0,1,194.026,158.281Zm1.536,16.153a.632.632,0,0,1-.576-.36,11.608,11.608,0,0,0-2.952-3.312.332.332,0,0,1-.144-.264.634.634,0,0,1,.648-.552c.816,0,3.769,2.784,3.769,3.768A.743.743,0,0,1,195.562,174.434Z"/>
        <path d="M187.426,188.329c0,2.232-3.169,11.257-6.385,11.257-1.248,0-3.12-1.632-3.12-4.464a8.917,8.917,0,0,1,9.192-8.473c4.129,0,7.753,2.64,7.753,6.864,0,5.905-6.553,7.825-7.392,7.825a.73.73,0,0,1-.817-.672c0-.288.216-.6.721-.7,3.24-.7,6.12-2.928,6.12-6.553,0-3.36-2.977-5.712-6.408-5.712A.67.67,0,0,1,187.426,188.329Zm-8.257,6.7c0,1.632.984,3.12,1.944,3.12,1.632,0,4.609-5.761,4.945-9.793a.813.813,0,0,1,.24-.6A7.777,7.777,0,0,0,179.169,195.026Z"/>
        <path d="M176.337,231.458a.594.594,0,0,1,.359-.528,6.851,6.851,0,0,0,2.569-3.24.527.527,0,0,1,.528-.408.663.663,0,0,1,.7.576c0,1.08-2.3,4.224-3.432,4.224A.692.692,0,0,1,176.337,231.458ZM186.922,215.4v1.992c1.512,0,3.023.024,4.391.048,1.416.024,2.161.84,2.209,1.608.024.5.048,1.32.048,2.112,0,.648-.024,1.272-.048,1.68-.072,1.033-.816,1.848-2.329,1.9-1.559.047-3.095.072-4.584.072-1.728,0-3.408-.025-4.992-.072-1.56-.049-2.328-.769-2.376-1.849-.024-.48-.024-1.2-.024-1.9s0-1.392.024-1.8c.048-.936.648-1.728,2.3-1.752,1.2-.024,2.641-.048,4.177-.048V215.4l-7.778.024a.528.528,0,0,1-.551-.552.523.523,0,0,1,.551-.528l7.778.024V212.64a.583.583,0,0,1,.624-.6.576.576,0,0,1,.6.6v1.729l7.9-.024a.524.524,0,0,1,.553.528.529.529,0,0,1-.553.552Zm-1.177,2.952c-1.464,0-2.856,0-3.96.024-1.224.024-1.44.552-1.44,2.184h5.4Zm0,3.144h-5.4c0,1.512.024,2.232,1.464,2.28,1.2.048,2.545.048,3.936.048Zm-2.04,5.4c-.024.864-.048,1.824-.048,2.592,0,1.56.12,2.064,2.977,2.064,2.687,0,3.576-.48,3.647-2.256a.58.58,0,0,1,.625-.576.647.647,0,0,1,.7.6c0,3.192-2.785,3.336-5.185,3.336-2.567,0-4.008-.312-4.008-2.5,0-1.032,0-2.136.048-3.264a.568.568,0,0,1,.624-.5c.313,0,.624.168.624.48Zm4.368,1.536a9.026,9.026,0,0,0-2.807-2.064.408.408,0,0,1-.265-.408.558.558,0,0,1,.553-.552c.551,0,3.6,1.7,3.6,2.568a.685.685,0,0,1-.624.7A.582.582,0,0,1,188.073,228.434Zm4.321-7.873c0-1.392,0-2.16-1.488-2.184-1.152-.024-2.568-.024-4.009-.024v2.208Zm-5.5.936v2.328c1.369,0,2.737-.023,4.009-.048,1.464-.048,1.488-.72,1.488-2.28Zm8.545,9.313a10.313,10.313,0,0,0-3.192-3.168.411.411,0,0,1-.216-.384.611.611,0,0,1,.624-.576c.72,0,4.008,2.76,4.008,3.744a.692.692,0,0,1-.672.7A.67.67,0,0,1,195.442,230.81Z"/>
        <path d="M184.113,254.5c-.864,1.752-2.568,5.136-5.3,5.136a1.872,1.872,0,0,1-1.993-1.92c0-2.352,3.145-3.936,6.529-4.3l.264-.5c.912-1.921,2.472-4.849,3.144-6.361a.618.618,0,0,0,.072-.24c0-.048-.023-.1-.12-.1a.352.352,0,0,0-.143.024,18.4,18.4,0,0,1-3.769.624c-.5,0-.72-.288-.72-.6a.659.659,0,0,1,.648-.648,30.914,30.914,0,0,0,4.032-.6,2.14,2.14,0,0,1,.528-.072c.672,0,1.057.36,1.057.912a1.912,1.912,0,0,1-.288.912c-1.177,2.016-2.377,4.489-3.385,6.577a16.857,16.857,0,0,1,6.745,1.3,6.313,6.313,0,0,0,.216-1.608,3.839,3.839,0,0,0-.5-1.992.466.466,0,0,1-.072-.24.64.64,0,0,1,.672-.553c.792,0,1.2,1.561,1.2,2.761a7.736,7.736,0,0,1-.336,2.136,19.214,19.214,0,0,1,3.792,2.328.941.941,0,0,1,.385.7.724.724,0,0,1-.7.744.8.8,0,0,1-.551-.24,15.415,15.415,0,0,0-3.385-2.328c-1.512,3.408-4.7,5.5-5.353,5.5a.531.531,0,0,1-.576-.528.793.793,0,0,1,.456-.672,10.952,10.952,0,0,0,4.321-4.824,16.791,16.791,0,0,0-6.145-1.32Zm-6.049,3.072a.851.851,0,0,0,.937.816c1.8,0,3.288-2.808,3.769-3.792C180.272,254.978,178.064,256.226,178.064,257.57Z"/>
        <path d="M183.969,277.945a9.872,9.872,0,0,1-1.536.144c-1.224,0-2.3-.36-2.3-1.056a.581.581,0,0,1,.624-.576,1.016,1.016,0,0,1,.552.192,2.506,2.506,0,0,0,1.32.288,11.637,11.637,0,0,0,2.017-.24,10.638,10.638,0,0,0,.407-2.5.642.642,0,0,1,.7-.552.611.611,0,0,1,.672.6,7.6,7.6,0,0,1-.456,2.112,11.959,11.959,0,0,0,2.185-.84.793.793,0,0,1,.383-.12.59.59,0,0,1,.6.576c0,.744-1.465,1.176-3.576,1.656a24.908,24.908,0,0,1-1.7,3.528,4.652,4.652,0,0,1,1.823-.408,2.83,2.83,0,0,1,2.856,2.641c1.153-.6,2.377-1.153,3.457-1.633.6-.264,1.344-.552,2.04-.936a1.187,1.187,0,0,1,.577-.168.7.7,0,0,1,.719.672.8.8,0,0,1-.5.7c-.7.312-1.176.456-2.448.936-1.248.48-2.568,1.081-3.721,1.657.025.576.048,1.3.048,1.968,0,1.224,0,1.992-.767,1.992a.572.572,0,0,1-.552-.648v-.072c.023-.552.048-1.248.048-1.872v-.7c-1.609.936-3.769,2.28-3.769,3.96,0,.48.384,2.256,3.529,2.256a11.8,11.8,0,0,0,3.408-.528,1.326,1.326,0,0,1,.408-.072.665.665,0,0,1,.72.648c0,.336-.216.672-.768.816a13.618,13.618,0,0,1-3.433.432c-4.032,0-5.136-2.088-5.136-3.408,0-2.52,3.192-4.392,4.969-5.376-.193-1.609-.96-2.233-1.92-2.233a4.756,4.756,0,0,0-3.049,1.56c-.792,1.081-1.128,1.441-1.56,1.441a.567.567,0,0,1-.6-.528.866.866,0,0,1,.312-.6,15.783,15.783,0,0,0,3.7-5.736Z"/>
        <path d="M139.777,15.434a56.1,56.1,0,0,1-7.369,2.184.594.594,0,0,1-.527-.648.5.5,0,0,1,.407-.552c.7-.144,1.368-.312,2.065-.48L134.377,2.5H132.6a.529.529,0,0,1-.552-.553.522.522,0,0,1,.552-.527h10.128a.509.509,0,0,1,.552.527.516.516,0,0,1-.552.553H141l.024,17.833a.624.624,0,0,1-1.248,0ZM139.8,2.472h-4.224V5.977H139.8Zm0,4.537h-4.224v3.312H139.8Zm0,4.344h-4.224l.024,4.273c1.44-.408,2.856-.865,4.176-1.345Zm3.024-5.568a.509.509,0,0,1-.527-.552.547.547,0,0,1,.552-.576c1.9-.024,4.488-.024,6.144-.024,1.3,0,2.016.576,2.016,1.752a18.377,18.377,0,0,1-2.952,8.713,12.538,12.538,0,0,0,4.537,3.768.579.579,0,0,1,.359.552.738.738,0,0,1-.7.744c-.407,0-2.712-1.128-4.92-4.032-2.185,2.856-4.7,4.248-5.137,4.248a.666.666,0,0,1-.672-.648.569.569,0,0,1,.361-.528,13.135,13.135,0,0,0,4.728-4.08,18.682,18.682,0,0,1-2.929-7.609.6.6,0,0,1,.624-.6.5.5,0,0,1,.529.432,17.065,17.065,0,0,0,2.471,6.72,15.89,15.89,0,0,0,2.4-7.512c0-.456-.168-.816-.888-.816-1.44,0-4.224,0-5.976.048Z"/>
        <path d="M140.186,36.049c.047,0,.168-.192.263-.336a3.392,3.392,0,0,1,2.809-1.56c3.311,0,4.032,4.584,4.032,7.08a12.936,12.936,0,0,1-5.785,10.777,1.151,1.151,0,0,1-.624.216.653.653,0,0,1-.695-.624.9.9,0,0,1,.5-.744,11.657,11.657,0,0,0,5.233-9.817c0-1.992-.528-5.784-2.784-5.784-1.3,0-3.5,1.128-3.5,5.784,0,.432.024.912.048,1.44v.1c0,.6-.36.864-.743.864-.649,0-.745-.48-.745-1.632a23.526,23.526,0,0,1,.552-4.752c.288-1.272.72-2.9.912-4.417a.625.625,0,0,1,.649-.576.635.635,0,0,1,.672.648,16.559,16.559,0,0,1-.7,2.929,1.566,1.566,0,0,0-.095.384Z"/>
        <path d="M136.873,65.208h-.024a.58.58,0,0,1-.577-.624.6.6,0,0,1,.577-.647c1.056-.025,2.9-.049,3.888-.049h.073c1.295,0,2.255.72,2.255,1.849.048,5.808,3.672,12.409,9.074,15.289a.76.76,0,0,1,.456.672.868.868,0,0,1-.841.84c-.84,0-7.177-4.32-9.288-12.5-2.112,9.769-9.241,12.793-9.673,12.793a.812.812,0,0,1-.793-.768.67.67,0,0,1,.433-.624c6.408-3.048,9.144-9.793,9.384-15.529-.095-.5-.431-.792-1.3-.792h-.1Z"/>
        <path d="M139.177,103.2c3.192-3.336,5.329-4.8,7.056-4.8,1.609,0,2.377,1.416,2.377,3.144,0,.12-.024.264-.024.384-.1,1.464-.552,4.176-.672,5.569-.024.24-.024.48-.024.7,0,1.392.456,1.992,1.152,1.992a4.348,4.348,0,0,0,2.641-1.632.826.826,0,0,1,.575-.288.668.668,0,0,1,.624.7c0,.72-2.232,2.544-3.985,2.544-1.319,0-2.328-.936-2.328-3.144,0-.289.025-.576.049-.888.144-1.3.575-3.985.648-5.473v-.336c0-1.3-.36-2.088-1.248-2.088-1.9,0-6.433,4.56-6.961,5.16-.072,1.2-.119,2.4-.119,3.529a29.1,29.1,0,0,0,.263,4.128v.12a.738.738,0,0,1-.744.768c-.744,0-.768-.912-.768-2.736,0-1.3.072-2.857.168-4.513a22.143,22.143,0,0,0-1.417,2.281c-1.271,2.352-1.368,2.52-1.967,2.52a.732.732,0,0,1-.744-.624c0-.264.047-.312.744-1.128a61.411,61.411,0,0,0,3.576-5.881l.144-1.848a27.72,27.72,0,0,0-2.713,1.224.841.841,0,0,1-.431.12.58.58,0,0,1-.6-.6.633.633,0,0,1,.385-.576c1.08-.5,2.4-1.08,3.48-1.464.192-1.968.36-3.7.5-4.825a.6.6,0,0,1,.624-.576.622.622,0,0,1,.672.552v.1c-.192,1.033-.432,2.593-.624,4.393.073,0,.12-.024.168-.024a.693.693,0,0,1,.744.744c0,.36-.144.72-1.224,2.64Z"/>
        <path d="M137.113,130.393a6.055,6.055,0,0,1-2.232-.384.707.707,0,0,1-.408-.648.542.542,0,0,1,.551-.6.92.92,0,0,1,.313.073,6.279,6.279,0,0,0,2.112.335,8.953,8.953,0,0,0,1.945-.216,8.21,8.21,0,0,0,.168-1.608,11.449,11.449,0,0,0-.1-1.368v-.1a.591.591,0,0,1,.648-.6c.6,0,.792.408.792,1.56a8.6,8.6,0,0,1-.168,1.728,9.34,9.34,0,0,0,1.968-.96.555.555,0,0,1,.336-.1.7.7,0,0,1,.673.648c0,.312-.24.864-3.289,1.729a93.855,93.855,0,0,1-4.584,12.5.859.859,0,0,1-.769.528.637.637,0,0,1-.672-.648,1.334,1.334,0,0,1,.145-.552,76.113,76.113,0,0,0,4.512-11.521A10.886,10.886,0,0,1,137.113,130.393ZM147.746,142.8c-3.385,0-5.425-1.512-5.425-2.329a.734.734,0,0,1,.7-.72.655.655,0,0,1,.5.264,4.436,4.436,0,0,0,3.7,1.345,17.642,17.642,0,0,0,2.592-.216h.144a.649.649,0,0,1,.7.672C150.65,142.394,150.122,142.8,147.746,142.8Zm2.5-10.009a9.679,9.679,0,0,0-3.312-.6,6.047,6.047,0,0,0-2.136.336.707.707,0,0,1-.217.048.563.563,0,0,1-.552-.576c0-.936,2.4-1.008,3.121-1.008a10.576,10.576,0,0,1,3.48.576.642.642,0,0,1,.456.624.6.6,0,0,1-.576.648A1.021,1.021,0,0,1,150.242,132.793Z"/>
        <path d="M132.625,159.6a.565.565,0,1,1,0-1.128h7.32a.565.565,0,1,1,0,1.128Zm5.136,14.905c-.5.024-1.1.048-1.7.048s-1.176-.024-1.657-.048a1.582,1.582,0,0,1-1.631-1.608c-.025-.528-.025-1.008-.025-1.464,0-.648,0-1.248.025-1.848a1.557,1.557,0,0,1,1.584-1.608c.551-.024,1.1-.048,1.631-.048.673,0,1.3.024,1.873.048a1.653,1.653,0,0,1,1.728,1.464c.024.552.024,1.152.024,1.752,0,.576,0,1.152-.024,1.68A1.714,1.714,0,0,1,137.761,174.506Zm-4.176-18.193a.564.564,0,1,1,0-1.128h5.064a.527.527,0,0,1,.552.552.534.534,0,0,1-.552.576Zm.023,6.456a.57.57,0,0,1-.6-.552.556.556,0,0,1,.6-.552H138.7a.515.515,0,0,1,.552.552.527.527,0,0,1-.552.552Zm0,3.145a.57.57,0,0,1-.6-.553.556.556,0,0,1,.6-.552H138.7a.515.515,0,0,1,.552.552.528.528,0,0,1-.552.553Zm4.825,5.3c0-.528,0-1.032-.024-1.392-.048-.84-.6-.864-2.3-.864-.456,0-.912,0-1.271.024-.912.048-.912.5-.912,2.232,0,.528.023,1.032.023,1.416.025.7.385.816,2.16.816,1.993,0,2.281-.144,2.3-.864C138.433,172.226,138.433,171.722,138.433,171.218Zm1.824,3.96a.666.666,0,0,1-.672-.648.6.6,0,0,1,.528-.576,13.1,13.1,0,0,0,5.449-3,10.578,10.578,0,0,1-2.592-4.1.638.638,0,0,1,.672-.577.437.437,0,0,1,.431.265,12.384,12.384,0,0,0,2.281,3.6,9.341,9.341,0,0,0,2.375-4.3c0-.384-.263-.553-.863-.553-1.656,0-4.44.024-6.337.048a.5.5,0,0,1-.48-.552c0-.288.144-.552.432-.552h6.792c1.417.024,1.873.6,1.873,1.344,0,1.417-1.873,4.2-2.928,5.377a12.334,12.334,0,0,0,5.28,2.664.679.679,0,0,1,.553.672.662.662,0,0,1-.7.672,12.751,12.751,0,0,1-5.953-3.168A13.186,13.186,0,0,1,140.257,175.178Zm9.409-12.673c-1.728,0-2.16-.48-2.16-1.776,0-1.032.048-2.712.048-3.5,0-.864-.529-.936-1.536-.936-1.321,0-1.9.024-1.9,1.008,0,2.16-.191,4.344-2.328,5.688a.774.774,0,0,1-.432.144.686.686,0,0,1-.672-.672.463.463,0,0,1,.264-.432c1.776-.888,1.969-2.52,1.969-4.536v-.552c0-1.633,1.2-1.729,2.76-1.729,2.016,0,3.072.073,3.072,1.777,0,1.2-.072,2.544-.072,3.552,0,.768.336.888,1.224.888,1.08,0,1.489-.264,1.489-1.728,0-.5.023-.84.6-.84s.6.336.6.768C152.6,162.265,151.418,162.505,149.666,162.505Z"/>
        <path d="M132.744,190.873a.566.566,0,1,1,0-1.129h8.785a.555.555,0,0,1,.6.552.56.56,0,0,1-.6.577Zm4.129,15c-.792,0-1.561-.024-2.04-.048a1.716,1.716,0,0,1-1.776-1.728c-.025-.48-.025-1.056-.025-1.632s0-1.129.025-1.513a1.69,1.69,0,0,1,1.728-1.728c.552-.024,1.272-.048,1.968-.048.864,0,1.728.024,2.328.048a1.815,1.815,0,0,1,1.9,1.584c.023.456.047,1.176.047,1.848,0,1.609,0,3.049-2.04,3.169C138.457,205.85,137.665,205.874,136.873,205.874ZM133.8,187.56a.547.547,0,0,1-.552-.576.541.541,0,0,1,.552-.552h6.36a.542.542,0,0,1,.552.552.548.548,0,0,1-.552.576Zm.048,6.457a.53.53,0,1,1,0-1.056h6.36a.529.529,0,1,1,0,1.056Zm0,3.144a.53.53,0,1,1,0-1.056h6.36a.529.529,0,1,1,0,1.056Zm5.952,5.329c0-1.729-.072-2.233-1.128-2.257-.408-.024-1.08-.024-1.728-.024s-1.3,0-1.68.024c-1.056.048-1.056.888-1.056,2.305,0,.48,0,.96.023,1.3.073.816.336.936,2.689.936,2.184,0,2.76,0,2.832-.96C139.777,203.474,139.8,202.969,139.8,202.49Zm6.961-7.825-4.273.024a.588.588,0,1,1,0-1.176l4.273.024-.025-6.937a.673.673,0,0,1,1.345,0l-.024,6.937,4.392-.024a.591.591,0,1,1,0,1.176l-4.392-.024.024,11.233a.677.677,0,0,1-1.345,0Z"/>
        <path d="M99.426,3.289c0,2.232-3.169,11.257-6.385,11.257-1.248,0-3.12-1.632-3.12-4.464a8.917,8.917,0,0,1,9.192-8.473c4.129,0,7.753,2.64,7.753,6.864,0,5.9-6.553,7.825-7.392,7.825a.73.73,0,0,1-.817-.672c0-.288.216-.6.721-.7,3.24-.7,6.12-2.928,6.12-6.553,0-3.36-2.977-5.712-6.408-5.712A.67.67,0,0,1,99.426,3.289Zm-8.257,6.7c0,1.632.984,3.12,1.944,3.12,1.632,0,4.609-5.761,4.945-9.793a.813.813,0,0,1,.24-.6A7.777,7.777,0,0,0,91.169,9.986Z"/>
        <path d="M92.225,30.481a9.768,9.768,0,0,0,4.753-1.032.911.911,0,0,1,.456-.144.671.671,0,0,1,.7.648.808.808,0,0,1-.527.72c-1.369.72-5.137,5.712-5.137,10.417,0,2.28.96,4.536,3.36,4.536,2.208,0,6.673-2.544,6.673-9.625a7.91,7.91,0,0,0-1.032-4.272,1.17,1.17,0,0,1-.145-.528.631.631,0,0,1,.649-.648.991.991,0,0,1,.887.72,10.989,10.989,0,0,0,5.065,4.92.773.773,0,0,1,.456.7.707.707,0,0,1-.72.72c-.624,0-2.712-1.608-3.792-2.856-.168-.216-.264-.312-.288-.312s-.024,0-.024.048a4.659,4.659,0,0,0,.072.528,11.163,11.163,0,0,1,.12,1.584c0,5.257-3.457,10.417-7.921,10.417-1.512,0-4.633-.768-4.633-5.76,0-3.649,2.041-7.345,3.673-9.505a1.679,1.679,0,0,0,.192-.288c0-.024,0-.048-.048-.048a1.217,1.217,0,0,0-.216.048,19.565,19.565,0,0,1-2.9.336c-.456.024-.84-.192-.84-.648a.729.729,0,0,1,.816-.672Zm14.065,1.272a7.485,7.485,0,0,0-2.328-1.7.446.446,0,0,1-.313-.408.568.568,0,0,1,.6-.5c.528,0,3.048,1.345,3.048,2.233a.606.606,0,0,1-.576.6A.545.545,0,0,1,106.29,31.753Zm1.992-1.728a7.8,7.8,0,0,0-2.376-1.7.5.5,0,0,1-.336-.408.55.55,0,0,1,.6-.5c.528,0,3.12,1.321,3.12,2.209a.615.615,0,0,1-.6.624A.536.536,0,0,1,108.282,30.025Z"/>
        <path d="M95.657,66.505l2.233,4.009c2.231,4.056,3,5.9,3,6.576a.746.746,0,0,1-.7.816.8.8,0,0,1-.744-.7c-.408-1.512-1.632-4.32-4.824-10.1-.48.265-3.433,1.921-4.128,1.921a.692.692,0,0,1-.7-.672c0-.264.168-.529.624-.672a23.879,23.879,0,0,0,3.624-1.633c-1.32-2.664-1.777-3.552-1.777-3.984a.631.631,0,0,1,.649-.648.694.694,0,0,1,.624.5,20.923,20.923,0,0,0,1.56,3.552l.48-.264a40.429,40.429,0,0,1,4.728-2.472,10.483,10.483,0,0,1,3.721-.792c2.712,0,4.1,1.608,4.1,3.192,0,2.3-2.353,4.729-5.929,4.729-1.536,0-3.576-.6-3.576-1.416a.714.714,0,0,1,.672-.721.838.838,0,0,1,.479.168,4.606,4.606,0,0,0,2.5.673c2.905,0,4.465-1.968,4.465-3.409,0-1.368-1.488-2.064-2.856-2.064-2.256,0-4.321,1.1-7.9,3.216Zm2.905-4.416a4.594,4.594,0,0,0-1.393-2.184.5.5,0,0,1-.168-.36.6.6,0,0,1,.648-.528c.768,0,2.233,2.064,2.233,2.832a.764.764,0,0,1-.744.744A.594.594,0,0,1,98.562,62.089Z"/>
        <path d="M93.5,95.378a22.858,22.858,0,0,1-2.5.192.605.605,0,0,1-.648-.6.637.637,0,0,1,.624-.648c.792-.024,1.536-.024,2.424-.1l1.56-.168a41.806,41.806,0,0,0,.936-4.393.674.674,0,0,1,.7-.6.65.65,0,0,1,.673.648,27.372,27.372,0,0,1-.912,4.2c1.872-.168,1.895-.168,1.967-.168,1.513,0,2.809.744,2.809,3.432,0,3.888-1.128,7.945-4.656,7.945-.624,0-2.185-.144-2.185-.985a.641.641,0,0,1,.649-.624.661.661,0,0,1,.215.024,4.763,4.763,0,0,0,1.368.216c2.953,0,3.313-4.68,3.313-6.408,0-1.536-.288-2.448-1.729-2.448-.36,0-1.007.048-2.064.168A35.744,35.744,0,0,1,91.265,105a1.048,1.048,0,0,1-.865.481.635.635,0,0,1-.7-.6,1.106,1.106,0,0,1,.312-.7,27.99,27.99,0,0,0,4.632-8.953Zm13.969,3.144a9.27,9.27,0,0,0-4.008-4.489.46.46,0,0,1-.265-.431.6.6,0,0,1,.624-.577c1.009,0,4.969,3.6,4.969,5.209a.73.73,0,0,1-.7.768A.668.668,0,0,1,107.466,98.522Z"/>
        <path d="M103.554,133.659c-4.872,0-7.849-3.216-7.849-7.081a9.406,9.406,0,0,1,2.448-6.024c.193-.192.288-.312.288-.36,0-.024,0-.048-.047-.048a1.2,1.2,0,0,0-.384.1c-3.072,1.008-6.913,1.992-7.129,1.992a.782.782,0,0,1-.864-.744.755.755,0,0,1,.7-.7c.528-.12,1.992-.408,2.784-.6,1.2-.312,3.36-.792,5.881-1.512a40.634,40.634,0,0,1,6.792-1.441.77.77,0,0,1,.816.769c0,.624-.552.7-1.848.768a12.165,12.165,0,0,0-3.744.72A7.947,7.947,0,0,0,97,126.338c0,3,2.04,5.785,6.337,5.785h.432c.672,0,1.008.36,1.008.744C104.778,132.987,104.729,133.659,103.554,133.659Zm2.28-9a8.059,8.059,0,0,0-2.353-1.728.445.445,0,0,1-.311-.408.567.567,0,0,1,.6-.528c.48,0,3.1,1.368,3.1,2.256a.615.615,0,0,1-.6.624A.51.51,0,0,1,105.834,124.658Zm2.064-1.752a7.979,7.979,0,0,0-2.4-1.728.466.466,0,0,1-.336-.432.566.566,0,0,1,.6-.5c.36,0,3.144,1.272,3.144,2.256a.6.6,0,0,1-.576.624A.584.584,0,0,1,107.9,122.906Z"/>
        <path d="M56.386,10.681l-.025,3.072c.96,0,1.969.024,3.025.049,1.536.023,2.16.887,2.208,1.8.024.456.048.912.048,1.392,0,.456-.024.912-.048,1.416-.048.984-.7,1.872-2.328,1.92-1.3.048-2.4.048-3.5.048-1.08,0-2.137,0-3.385-.048-1.584-.048-2.328-.864-2.376-1.9-.024-.408-.024-.816-.024-1.224,0-.552,0-1.056.024-1.536.048-.936.7-1.825,2.328-1.872.912-.025,1.849-.049,2.809-.049l-.025-3.072-7.129.024c-.215,3.216-.887,6.361-2.712,8.737a.756.756,0,0,1-.624.336.642.642,0,0,1-.671-.6.763.763,0,0,1,.143-.408c2.3-3.1,2.689-6.889,2.689-10.7,0-1.608-.073-3.216-.1-4.8V3.217a2.122,2.122,0,0,1,2.351-2.161c1.537-.048,3.457-.048,5.4-.048,1.92,0,3.888,0,5.472.048,2.136.024,2.232,1.057,2.232,2.809,0,1.128-.216,2.16-2.472,2.184-2.112.024-5.016.072-7.969.072-1.224,0-2.472,0-3.648-.024,0,.48.023.96.023,1.44,0,.672-.023,1.344-.047,2.04l7.056.024v-2.5a.58.58,0,0,1,.624-.576.588.588,0,0,1,.649.576V9.6l6.888-.024a.564.564,0,1,1,0,1.128ZM48.057,4.993c1.68.024,3.48.024,5.232.024,2.473,0,4.776-.024,6.385-.072,1.128-.024,1.248-.576,1.248-1.416,0-.985-.1-1.393-1.3-1.416-1.345-.025-3-.049-4.681-.049-2.04,0-4.08.024-5.544.049A1.272,1.272,0,0,0,48.033,3.48v.072ZM51.2,17.042c0,1.56.12,2.208,1.368,2.232.888.024,1.848.048,2.857.048,1.2,0,2.448-.024,3.6-.048,1.2-.024,1.345-.6,1.345-2.088,0-.432,0-.864-.024-1.2-.048-1.153-.432-1.176-4.536-1.176-1.128,0-2.256,0-3.241.048C51.321,14.882,51.2,15.482,51.2,17.042Z"/>
        <path d="M44.408,48a.72.72,0,0,1-.744-.672.774.774,0,0,1,.217-.5,13.314,13.314,0,0,0,2.952-5.4.631.631,0,0,1,.647-.5.671.671,0,0,1,.7.648c0,.864-1.824,4.729-3.1,6.1A.909.909,0,0,1,44.408,48Zm7.7-10.321c-.12,3.768-.216,8.233-.24,10.993,0,1.536,1.176,1.824,2.736,1.824,3.841,0,4.273-1.032,4.273-3.336a.63.63,0,0,1,.648-.7c.168,0,.768.047.768.888,0,3.672-1.992,4.32-5.448,4.32-1.993,0-4.3-.144-4.3-2.832,0-2.76.12-7.369.192-11.137a.632.632,0,0,1,.7-.6.6.6,0,0,1,.672.552Zm4.393-1.9a15.059,15.059,0,0,0-4.777-2.353.568.568,0,0,1-.432-.5.654.654,0,0,1,.7-.624A18.2,18.2,0,0,1,57.37,34.68a.7.7,0,1,1-.864,1.1Zm7.152,10.08a16.272,16.272,0,0,0-4.392-4.392A.548.548,0,0,1,59,41.017a.665.665,0,0,1,.7-.576c.768,0,5.3,3.888,5.3,4.968a.835.835,0,0,1-.768.817A.712.712,0,0,1,63.658,45.865Z"/>
        <path d="M47.337,71.089H44.505a.543.543,0,0,1-.553-.552.548.548,0,0,1,.553-.576l2.832.024V64.32a.591.591,0,0,1,.647-.6.584.584,0,0,1,.624.6l-.023,5.665,2.568-.024a.521.521,0,0,1,.528.552.528.528,0,0,1-.528.576H48.585l-.024,6.5c1.008-.432,1.944-.888,2.665-1.272a.632.632,0,0,1,.287-.072.554.554,0,0,1,.528.552.594.594,0,0,1-.36.528c-1.656.84-6.624,3.12-7.344,3.12a.614.614,0,0,1-.168-1.2c.96-.288,2.088-.7,3.191-1.152Zm10.345-.576-3.073,1.56c0,3.024-.024,6.12-.024,7.608,0,1.849,1.776,1.849,3.457,1.849,4.776,0,5.376-.576,5.376-3.073a.586.586,0,0,1,.624-.648c.265,0,.721.144.721.84,0,3.7-2.257,4.009-6.313,4.009-2.52,0-5.064-.048-5.064-2.809V72.7a15.866,15.866,0,0,1-2.545,1.248.559.559,0,0,1-.528-.576.527.527,0,0,1,.312-.5s1.176-.6,2.761-1.416V65.808a.584.584,0,0,1,.624-.6.576.576,0,0,1,.624.552c0,1.3-.025,3.12-.025,5.041l3.073-1.537V63.648a.579.579,0,0,1,.624-.576.572.572,0,0,1,.6.576V68.64c1.944-.984,2.4-1.2,3.024-1.2,1.512,0,1.585,1.44,1.585,2.761,0,5.376-.433,6.816-2.473,6.816-1.056,0-1.2-.312-1.2-.7,0-.312.192-.648.48-.648.048,0,.072.024.12.024a2.192,2.192,0,0,0,.624.1c.84,0,1.224-.768,1.224-5.112,0-1.488-.12-2.016-.7-2.016-.12,0-.36.023-2.688,1.224v8.3a.549.549,0,0,1-.6.528.557.557,0,0,1-.624-.528Z"/>
        <path d="M55.426,96.889c0,2.232-3.169,11.257-6.385,11.257-1.248,0-3.12-1.632-3.12-4.465a8.917,8.917,0,0,1,9.192-8.472c4.129,0,7.753,2.64,7.753,6.864,0,5.905-6.553,7.825-7.392,7.825a.73.73,0,0,1-.817-.672c0-.288.216-.6.721-.7,3.24-.7,6.12-2.928,6.12-6.553,0-3.36-2.977-5.712-6.408-5.712A.67.67,0,0,1,55.426,96.889Zm-8.257,6.7c0,1.633.984,3.121,1.944,3.121,1.632,0,4.609-5.761,4.945-9.793a.813.813,0,0,1,.24-.6A7.777,7.777,0,0,0,47.169,103.585Z"/>
        <path d="M49.569,132.793c-.024,2.136-.024,4.656-.024,6.481a39.3,39.3,0,0,0,4.8-1.633.844.844,0,0,1,.239-.047.605.605,0,0,1,.576.6.632.632,0,0,1-.456.576,52.428,52.428,0,0,1-9.576,2.784.626.626,0,0,1-.649-.624.663.663,0,0,1,.6-.648c1.056-.168,2.136-.408,3.24-.672,0-2.305-.024-4.849-.024-7.273,0-2.4.024-4.7.024-6.457a2.158,2.158,0,0,1,2.376-2.112c.984-.024,2.04-.048,3.073-.048l-.025-2.112a.637.637,0,0,1,.7-.624.63.63,0,0,1,.672.624l-.023,2.112c1.008,0,2.015.024,2.9.048,1.8.048,2.472.96,2.52,2.065.048.719.048,1.511.048,2.3,0,.816,0,1.632-.048,2.4-.048,1.176-.768,2.136-2.569,2.208-.96.024-2.015.048-3.168.048a10.615,10.615,0,0,0,1.729,3.36,23.637,23.637,0,0,0,5.376-2.736.484.484,0,0,1,.312-.1.752.752,0,0,1,.72.7.7.7,0,0,1-.408.576,29.929,29.929,0,0,1-5.233,2.424,11.876,11.876,0,0,0,6.793,3.121.615.615,0,0,1,.552.624.726.726,0,0,1-.744.72,12.22,12.22,0,0,1-10.32-8.689Zm9.744-5.04c0-1.993-.071-2.881-1.584-2.953-.6-.024-1.391-.024-2.28-.024-1.416,0-3.024.024-4.368.048-1.488.048-1.512.864-1.512,2.929Zm-9.744,1.008v3.024c1.1.024,2.136.024,3.12.024,1.968,0,3.649-.024,5.04-.1,1.464-.072,1.584-.84,1.584-2.952Z"/>
        <path d="M53.337,161.81a.756.756,0,0,1,.721.72c0,.144-1.1,3.672-3.288,3.672-1.225,0-4.129-1.512-4.561-8.425-.072-1.056-.1-1.56-.1-2.112,0-.744.049-1.272.7-1.272.671,0,.7.48.7,1.872,0,6.937,2.52,8.425,3.24,8.425.288,0,1.105-.12,1.992-2.424A.668.668,0,0,1,53.337,161.81Zm8.9-.553a7.771,7.771,0,0,0-2.952-4.944.569.569,0,0,1-.265-.5.6.6,0,0,1,.624-.6c1.057,0,4.057,3.648,4.057,5.736a.865.865,0,0,1-.816.912A.645.645,0,0,1,62.242,161.257Z"/>
        <path d="M1.345,19.682a.577.577,0,0,1,0-1.152l8.448.023L9.77,14.329l-6.265.024a.564.564,0,1,1,0-1.128H17.21a.527.527,0,0,1,.552.552.534.534,0,0,1-.552.576l-6.169-.024v4.224L19.4,18.53a.554.554,0,0,1,.551.6.542.542,0,0,1-.551.552ZM18.266,5.568c0-.792-.432-1.128-1.656-1.152-1.753-.024-4.056-.048-6.312-.048-2.28,0-4.513.024-6.169.048-1.32.024-1.729.456-1.752,1.176,0,.336.023,1.2.023,1.633a.637.637,0,0,1-.695.624c-.648,0-.673-.409-.673-1.657,0-1.368,0-2.808,2.616-2.832,2.065-.024,4.081-.048,6.1-.048V.624a.624.624,0,0,1,.7-.624.616.616,0,0,1,.672.624L11.09,3.312c1.968,0,3.935.024,5.952.048,1.68.024,2.544.768,2.568,1.968v1.7a.668.668,0,0,1-.7.649.605.605,0,0,1-.648-.6ZM2.521,11.641a.643.643,0,0,1-.648-.648.584.584,0,0,1,.48-.576A8.033,8.033,0,0,0,7.9,5.952a.533.533,0,0,1,.528-.312.619.619,0,0,1,.648.6.82.82,0,0,1-.1.361A9.741,9.741,0,0,1,2.521,11.641ZM11.762,6a.548.548,0,0,1,.6-.528c.313,0,.6.168.6.48v.024c-.024.625-.024,2.209-.024,2.449.024.768.24,1.032,2.136,1.032,1.416,0,2.088-.12,2.16-1.128a.523.523,0,0,1,.576-.505.576.576,0,0,1,.624.553c-.048,1.8-1.44,2.112-3.577,2.112-1.607,0-3.095-.024-3.095-1.872Z"/>
        <path d="M11.426,34.489c0,2.232-3.169,11.257-6.385,11.257-1.248,0-3.12-1.632-3.12-4.465a8.917,8.917,0,0,1,9.192-8.472c4.129,0,7.753,2.64,7.753,6.864,0,5.905-6.553,7.825-7.392,7.825a.73.73,0,0,1-.817-.672c0-.288.216-.6.721-.7,3.24-.7,6.12-2.928,6.12-6.553,0-3.36-2.977-5.712-6.408-5.712A.67.67,0,0,1,11.426,34.489Zm-8.257,6.7c0,1.632.984,3.12,1.944,3.12,1.632,0,4.609-5.761,4.945-9.793a.813.813,0,0,1,.24-.6A7.777,7.777,0,0,0,3.169,41.186Z"/>
        <path d="M.648,79.25A.63.63,0,0,1,0,78.6a.6.6,0,0,1,.576-.576,8.356,8.356,0,0,0,6.913-4.8.588.588,0,0,1,.552-.432.7.7,0,0,1,.672.672.517.517,0,0,1-.048.264C6.505,78.65.744,79.25.648,79.25Zm9.746-7.032c-1.345,0-2.665-.024-3.793-.072-1.752-.073-2.592-1.009-2.64-2.305-.024-1.08-.048-2.664-.048-4.224,0-1.584.024-3.12.048-4.056a2.329,2.329,0,0,1,2.448-2.28c1.008-.025,2.184-.049,3.408-.049,1.489,0,3.025.024,4.393.049a2.206,2.206,0,0,1,2.3,2.088c.048,1.128.048,2.688.048,4.224,0,1.56,0,3.1-.048,4.224a2.361,2.361,0,0,1-2.449,2.329c-.479.023-.96.048-1.463.048-.025,1.056-.048,2.472-.048,3.36,0,1.368.048,2.136,2.88,2.136,2.28,0,3.6-.384,3.6-3a.611.611,0,0,1,.624-.648.717.717,0,0,1,.744.672c0,4.1-2.952,4.128-5.064,4.128-1.849,0-4.009-.144-4.057-2.592,0-.7,0-2.736.025-4.032Zm4.944-7.969H5.137c0,.912.024,1.9.024,2.808H15.338Zm-.025-1.008c0-1.992,0-2.833-1.679-2.88-.864-.025-2.113-.049-3.385-.049-1.248,0-2.52.024-3.456.049a1.466,1.466,0,0,0-1.608,1.464c-.024.384-.024.864-.024,1.416ZM5.161,68.065c0,2.328,0,2.952,1.656,3.024,1.128.048,2.352.072,3.6.072,1.08,0,2.185-.024,3.24-.072,1.656-.072,1.656-.84,1.656-3.024Z"/>
        <path d="M4.561,108.218a1.358,1.358,0,0,1-1.033.624c-.048,0-.743,0-.743-.576a.952.952,0,0,1,.287-.624c.817-.936,1.945-2.112,2.761-2.88A96.589,96.589,0,0,0,12.554,97.2c0-.024-.025-.024-.048-.024a1.107,1.107,0,0,0-.265.072,30.372,30.372,0,0,1-6.1,1.969.746.746,0,0,1-.816-.7.69.69,0,0,1,.624-.672A31.725,31.725,0,0,0,10.321,96.7a9.724,9.724,0,0,1,2.641-.768,1.057,1.057,0,0,1,1.176,1.056,1.3,1.3,0,0,1-.361.864c-1.151,1.272-3.408,3.817-6.24,6.721a3.005,3.005,0,0,1,1.152-.24,2.4,2.4,0,0,1,2.208,1.536,2.594,2.594,0,0,0,2.569,1.848,10.882,10.882,0,0,0,4.056-.84,1.114,1.114,0,0,1,.457-.1.662.662,0,0,1,.7.672.909.909,0,0,1-.7.816,13.329,13.329,0,0,1-4.25.72h-.288a4.053,4.053,0,0,1-.792-.072c-1.343-.192-2.16-.888-2.856-2.472a1.669,1.669,0,0,0-1.56-1.152c-.936,0-2.088.744-3.1,2.136Zm8.353-14.713c-.768,0-3.385-1.56-4.2-2.208a.625.625,0,0,1-.264-.5.663.663,0,0,1,.672-.624.765.765,0,0,1,.456.168,14.169,14.169,0,0,0,3.576,1.824.688.688,0,0,1,.553.624A.772.772,0,0,1,12.914,93.505Z"/>
        <path d="M15.89,132.866c0-2.184-1.968-3.144-4.08-3.144a8.2,8.2,0,0,0-6.385,3.144.742.742,0,0,1-1.344-.36.99.99,0,0,1,.336-.672A87.813,87.813,0,0,0,12.481,123c0-.024-.023-.048-.072-.048a.469.469,0,0,0-.168.024c-1.3.408-5.352,1.224-5.5,1.224a.665.665,0,0,1-.72-.648.678.678,0,0,1,.672-.648,54.62,54.62,0,0,0,5.689-1.1,2.32,2.32,0,0,1,.552-.072c.671,0,1.152.36,1.152.912,0,.456-.145.792-2.832,3.6l-3.313,3.433a9.353,9.353,0,0,1,4.2-1.008c3.264,0,5.088,1.9,5.088,4.128,0,2.976-2.784,5.52-6.649,5.52-2.808,0-4.416-1.3-4.416-2.736,0-.912.7-2.064,2.616-2.064,1.656,0,3.072,1.08,3.072,3.408v.168A4.648,4.648,0,0,0,15.89,132.866Zm-5.256,4.176c0-1.584-.649-2.5-1.777-2.5-1.368,0-1.512.888-1.512,1.032,0,.816,1.056,1.632,2.953,1.632h.336Z"/>
        <path d="M13.729,162.338a15.614,15.614,0,0,0,6.433,3.024.578.578,0,0,1,.481.552.7.7,0,0,1-.721.7,15.507,15.507,0,0,1-4.152-1.656c.168.288.264.528.264,1.944,0,.528,0,1.1-.024,1.512-.048,1.225-.744,1.944-2.208,1.993-1.153.047-2.256.047-3.313.047-1.08,0-2.135,0-3.192-.047-1.608-.049-2.208-.841-2.233-1.969,0-.384-.023-.84-.023-1.272,0-1.584.072-2.16.552-2.592A18.428,18.428,0,0,1,.816,166.9a.6.6,0,0,1-.6-.624.553.553,0,0,1,.408-.552,19.756,19.756,0,0,0,6.24-3.384l-6.049.048a.491.491,0,0,1-.5-.5.5.5,0,0,1,.5-.528l7.129.024a16.215,16.215,0,0,0,1.368-1.488c-5.136,0-5.4,0-5.4-2.977,0-1.44,0-2.712,2.208-2.784,1.416-.048,2.928-.048,4.441-.048s3.024,0,4.44.048c2.04.024,2.088,1.128,2.088,2.784,0,1.729-.12,2.857-2.136,2.929-1.345.048-2.856.048-4.369.048,0,.048-.023.072-.048.12a15.766,15.766,0,0,1-1.151,1.368h1.008l9.672-.024a.491.491,0,0,1,.5.5.5.5,0,0,1-.5.528Zm-.072-10.057v.864a.563.563,0,0,1-.6.528.571.571,0,0,1-.624-.528v-.864H8.281v.864a.572.572,0,0,1-.624.528.572.572,0,0,1-.624-.528v-.864l-5.665.024c-.431,0-.624-.24-.624-.5a.582.582,0,0,1,.624-.576l5.665.024v-1.032a.557.557,0,0,1,.624-.528.557.557,0,0,1,.624.528v1.032h4.153v-1.032a.556.556,0,0,1,.624-.528.548.548,0,0,1,.6.528v1.032l5.953-.024a.541.541,0,1,1,0,1.08Zm2.281,4.248c0-1.176-.36-1.488-1.224-1.512-1.32-.024-2.761-.048-4.177-.048-1.439,0-2.856.024-4.152.048-.888.024-1.344.336-1.344,1.512Zm-10.9.84c0,1.345.5,1.56,1.392,1.585,1.2.024,2.616.024,4.081.024s2.952,0,4.223-.024c1.153-.025,1.225-.552,1.225-1.585Zm3.408,4.969a20.519,20.519,0,0,1-2.4,1.92c.6-.288,1.536-.288,4.776-.288,1.057,0,2.137.024,3.1.048a2.93,2.93,0,0,1,.479.048,16.031,16.031,0,0,1-2.088-1.728Zm6.457,4.3c0-1.056-.049-1.608-1.32-1.656-.864-.024-1.969-.048-3.072-.048s-2.208.024-3.073.048-1.224.36-1.272,1.056v.6Zm-8.737.912v.792c.024.745.48,1.057,1.32,1.08.936.024,1.945.049,2.952.049,1.033,0,2.088-.025,3.1-.049.72-.023,1.319-.36,1.344-1.128,0-.216.024-.48.024-.744Z"/>
        <path d="M9.649,201.579a.722.722,0,0,1-.792-.673c0-.312.216-.624.745-.72a12.707,12.707,0,0,0,3.456-1.128c2.376-1.392,3.408-2.976,3.408-4.224,0-1.44-1.248-1.992-2.592-1.992-2.52,0-5.473,1.872-6.745,2.976a1.938,1.938,0,0,1-1.2.6c-.672,0-1.1-.576-1.1-2.376a24.759,24.759,0,0,1,.216-2.832c.192-1.561.5-3.121.672-4.177a.666.666,0,0,1,.672-.576.548.548,0,0,1,.576.552v.12c-.144,1.032-.432,2.448-.624,3.625a20.381,20.381,0,0,0-.288,2.76c0,.384,0,1.08.288,1.08a1.321,1.321,0,0,0,.528-.264c2.065-1.272,4.536-2.664,7.08-2.664,2.449,0,3.913,1.344,3.913,3.144,0,1.632-1.2,3.624-3.913,5.28A12.525,12.525,0,0,1,9.649,201.579Zm.168-15.506a1.013,1.013,0,0,1-.263.048.614.614,0,0,1-.624-.6.41.41,0,0,1,.287-.432c.625-.24.912-.408.912-.6,0-.168-.239-.336-.7-.624-1.729-1.1-1.849-1.176-1.849-1.56a.578.578,0,0,1,.624-.552.951.951,0,0,1,.528.192c.456.336,1.153.768,1.729,1.1.7.432,1.536.96,1.559,1.536C12.025,185.257,11.785,185.5,9.817,186.073Z"/>
        <path d="M7.033,213.145a.731.731,0,0,1,.792.672c0,.12-.024,1.08-.36,5.521-.168,2.208-.36,4.2-.36,6.192,0,.384,0,.744.024,1.128a3.066,3.066,0,0,0,3.408,3.072,10.384,10.384,0,0,0,6.192-2.64.939.939,0,0,1,.625-.264.729.729,0,0,1,.7.768.872.872,0,0,1-.336.672,11.8,11.8,0,0,1-7.129,2.833c-2.64,0-4.7-1.392-4.8-4.441-.024-.36-.024-.7-.024-1.032,0-2.088.24-3.936.336-6.168.072-1.44.216-3.5.216-5.041v-.552A.678.678,0,0,1,7.033,213.145Z"/>
      </g>
    </g>
  </g>
</svg>
