<svg xmlns="http://www.w3.org/2000/svg" width="161.787" height="340.576"><defs><style>.e441ad71-f79a-424c-9dd8-1d06fec86a60,.f4c2356a-a7e2-467e-8f53-59b04fe4fc65,.fba2622c-21d4-43a9-9077-d1b0d33ebb22{fill:none;stroke:#000;stroke-linecap:round;stroke-linejoin:round}.e441ad71-f79a-424c-9dd8-1d06fec86a60{stroke-width:.144px}.fba2622c-21d4-43a9-9077-d1b0d33ebb22{stroke-width:.576px}.f4c2356a-a7e2-467e-8f53-59b04fe4fc65{stroke-width:.432px}</style></defs><g id="f22fde19-92a3-4405-b049-378b493db46d" data-name="レイヤー 2"><g id="e437ce1a-e23e-4244-abff-2f5c6d2d6241" data-name="レイヤー 1"><path class="e441ad71-f79a-424c-9dd8-1d06fec86a60" d="M138.737 326.025h.72m-119.72 0h.576"/><path class="fba2622c-21d4-43a9-9077-d1b0d33ebb22" d="M20.313 334.237h118.424m-117.415-8.212h13.11m31.551 0h71.745m-116.406 1.009h13.11m31.551 0h71.745M20.89 326.025V245.78m117.415 80.245V245.78M20.313 334.237v-7.203m118.424 7.203v-7.203"/><path class="f4c2356a-a7e2-467e-8f53-59b04fe4fc65" d="M35.873 327.466h30.11m-31.551 0h1.441m-1.441 0V254.28m0 0h1.441m0 73.186V254.28m-1.441 0v-6.195m0 0h57.915m0 6.195v-6.195m-57.915 6.195h57.915"/><path class="e441ad71-f79a-424c-9dd8-1d06fec86a60" d="M35.873 327.466h30.11m-29.39-41.347v-.144m0 .144h.144m-.144 0l.144.144m0 0h.144m0 0h.144m0 0h.144m-.144 0h.144m0 0l.144-.144m0 0v-.144m0 0v-.144m0 0h.144m-.144 0l-.144-.144m-.144-.144l.144.144m-.144-.144h.144m-.288 0h.144m-.288.144l.144-.144m-.288.144h.144m-.144.144v-.144m0 .288v-.144m0 21.322v-.144m0 .288v-.144m0 .144h.144m0 0h.144m0 0l.144.144m0 0v-.144m0 0h.144m0 0l.144-.144m0 0v-.144m0 0h.144m-.144 0v-.144m0 0l-.144-.145m-.144 0h.144m-.144 0h.144m-.288 0h.144m-.288 0h.144m-.288 0h.144m-.144.145v-.145m0 .289v-.144m-.288-20.17h.144m-.144 0h.144m0 0h.144m-.144 0h.144m0 0h.144m-.144 0l.144.144m0 0h.144m-.144 0h.144m0 0h.144m-.144 0h.144m0 0h.144m-.144 0h.144m0 0h.144m-.144 0l.144-.144m0 0h.144m-.144 0h.144m0 0h.145m-.145 0h.145m0 0h.144m-.144-1.585v.144m-.145-.144h.145m-.145 0h.145m-.289 0h.144m-.144 0h.144m-.288 0h.144m-.144 0h.144m-.288 0h.144m-.144 0h.144m-.288 0h.144m-.144 0h.144m-.288 0h.144m-.144 0h.144m-.288 0h.144m-.144 0h.144m-.288 0h.144m-.144 0h.144m-.288 0h.144m-.144.144v-.144m.864 19.594h.144m-.144 0h.144m-.144 0h.144m0 0h.144m-.144 0h.144m-.144 0h.144m0 0h.145m-.145 0h.145m-.145 0h.145m0 0h.144m-.144 0h.144m0 0h.144m-.144 0h.144m-.144 0h.144m0 0h.144m-.144 0h.144m-.144 0h.144m0 0h.144m-.144 0h.144m-.144-15.272h.144m-.144 0h.144m-.288 0h.144m-.144 0h.144m-.144 0h.144m-.288 0h.144m-.144 0h.144m-.144 0h.144m-.288 0h.144m-.144 0h.144m-.289 0h.145m-.145 0h.145m-.145 0h.145m-.289 0h.144m-.144 0h.144m-.144 0h.144m-.288 0h.144m-.144 0h.144m-.144 0h.144m-1.008 11.526h.144m-.144 0h.144m-.144 0h.144m0 0h.144m-.144 0h.144m-.144 0h.144m0 0h.144m-.144 0h.144m-.144 0h.144m-.144 0h.144m0 0h.144m-.144 0h.144m-.144 0h.144m0 0h.144m-.144 0h.144m-.144 0h.144m0 0h.144m-.144 0h.144m-.144 0h.144m-.144-7.78h.144m-.144 0h.144m-.144 0h.144m-.288 0h.144m-.144 0h.144m-.144 0h.144m-.288 0h.144m-.144 0h.144m-.144 0h.144m-.288 0h.144m-.144 0h.144m-.144 0h.144m-.144 0h.144m-.288 0h.144m-.144.144v-.144m0 .144h.144m-.288 0h.144m-.144 0h.144m-.144 0h.144m-.144 14.407h.144m-.144 0h.144m0 0v.144m0 0h.144m0 0h.144m-.144 0h.144m0 0h.144m-.144 0h.144m0 0h.144m-.144 0h.144m0 0h.144m-.144 0h.144m0 0h.144m-.144 0h.144m0 0h.144m-.144 0h.144m0 0v-.144m0 0h.145m0 0h.144m-.144-1.441h.144m-.289 0h.145m-.145-.144v.144m-.144-.144h.144m-.144 0h.144m-.288 0h.144m-.144 0h.144m-.288 0h.144m-.144 0h.144m-.288 0h.144m-.144 0h.144m-.288 0h.144m-.144 0h.144m-.288 0h.144m-.144 0h.144m-.288 0h.144m-.144.144v-.144m-.144.144h.144m-.144 0h.144m-.144 1.441v-1.441m1.297 1.441v-1.441m-.433-6.339v-.72m-.576 0h.576m-.576.72v-.72m0 .72h.576m0-4.898v-.72m-.576 0h.576m-.576.72v-.72m0 .72h.576m-.864 5.907v-7.636m.864 7.636v-.865m-.864 0h.864m-.864 0v-1.152m0 0h.864m0 0v-3.746m-.864 0h.864m-.864 0v-1.152m0 0h.864m0 0v-.865m0 11.526v-15.272m.865 15.272v-15.272m-1.729-2.737v-1.441m1.297 1.441v-1.441m27.66 42.212h.721m-.721 0V254.28m-29.101 73.186V254.28m1.008 50.135h.865m-.865-14.694h.865m-2.161 37.745h29.389"/><path class="f4c2356a-a7e2-467e-8f53-59b04fe4fc65" d="M65.983 327.466V254.28"/><path class="fba2622c-21d4-43a9-9077-d1b0d33ebb22" d="M14.407 124.619h4.178m124.618-.432h.432m-11.669 0h.288m-11.67 0h.288m-11.669 0h.432m-11.669 0h.288m-11.67 0h.289m-11.67 0h.432m-11.669 0h.288m-11.669 0h.288m-11.67 0h.432m-11.669 0h.288m-11.669 0h.288m0 .432h11.093m.288 0h10.949m.432 0h10.95m.288 0h11.093m.288 0h10.949m.432 0h10.949m.289 0h11.093m.288 0h10.949m.432 0h10.949m.288 0h11.094m.288 0h10.949m.432 0h1.008m-130.236 0V60.51m130.236 64.109V60.51"/><path class="f4c2356a-a7e2-467e-8f53-59b04fe4fc65" d="M50.712 113.814V60.51"/><path class="e441ad71-f79a-424c-9dd8-1d06fec86a60" d="M95.517 111.077V62.382m0 0h42.211m0 48.695V62.382m-42.211 48.695h42.211m-43.22 1.297v-51m-42.212 49.703V62.382m0 0h42.212m0 48.695V62.382m-42.212 48.695h42.212m-43.22 1.297v-51m0 0h87.449m0 51v-51m-87.449 51h87.449"/><path class="f4c2356a-a7e2-467e-8f53-59b04fe4fc65" d="M139.457 113.814V60.51m-88.745 53.304h88.745"/><path class="fba2622c-21d4-43a9-9077-d1b0d33ebb22" d="M137.728 327.034h1.009m-1.009-1.009h1.009m-1.009 1.009v-1.009m1.009 1.009v-1.009m-118.424 1.009h1.009m-1.009-1.009h1.009m0 1.009v-1.009m-1.009 1.009v-1.009m-6.338 0h5.762m-5.762 1.009h5.762m0 13.254v-13.254m-5.762 0v-1.009m5.762 1.009v-1.009m-5.33 0V245.78m5.33 80.245V245.78m-4.754 94.508v-13.254m124.474-1.009h5.763m-5.763 1.009h5.763m-1.009 13.254v-13.254m-4.754 0v-1.009m5.763 1.009v-1.009m-5.763 0V245.78m5.186 80.245V245.78m-5.186 94.508v-13.254m-125.05-93.932h4.178m0-.432h.288m22.33 0h.432m-11.669 0h.288m-11.381.432h11.093m.288 0h10.949m.432 0h3.17m-30.398 0V146.23m130.236 91.482V146.23"/><path class="f4c2356a-a7e2-467e-8f53-59b04fe4fc65" d="M51.288 215.814v-63.678m88.889 0v-5.906m-90.186 5.906h90.186m-90.186 0v-5.906m88.746 69.584v-63.678m-87.449 63.678h87.449m-87.449 0v-63.678m88.889 63.678v-63.678m-90.186 63.678h1.297m87.449 0h1.44m-90.186 0v-63.678"/><path class="e441ad71-f79a-424c-9dd8-1d06fec86a60" d="M137.728 185.272h.721m0 0v-2.738m-.721 0h.721m-.721 2.738v-2.738m-86.008 2.738h.576m0 0v-2.738m-.576 0h.576m-.576 2.738v-2.738m44.085 28.526v-56.475m0 0h41.635m0 56.475v-56.475M95.805 211.06h41.635m-43.076 3.457v-61.228M52.729 211.06v-56.475m0 0h41.635m0 56.475v-56.475M52.729 211.06h41.635m-43.076 3.457v-61.228m0 0h87.449m0 61.228v-61.228m-87.449 61.228h87.449"/><path class="f4c2356a-a7e2-467e-8f53-59b04fe4fc65" d="M138.737 215.814v-63.678m-87.449 63.678h87.449"/><path class="fba2622c-21d4-43a9-9077-d1b0d33ebb22" d="M.288 340.288h161.067m-161.067 0h161.067m-161.067 0h.144m-.144 0h161.067m0 0h.144"/><path class="e441ad71-f79a-424c-9dd8-1d06fec86a60" d="M14.407 98.398v17m130.236-17v17"/><path class="fba2622c-21d4-43a9-9077-d1b0d33ebb22" d="M148.101 56.186V2.017M11.381.288h.433m10.949 0h.288m11.093 0h.288m10.949 0h.432m10.949 0h.289M68 .288h.432m10.949 0h.432m10.949 0h.288m10.95 0h.432m10.949 0h.288m11.093 0h.288m10.949 0h.433m10.949 0h.288M11.093 56.186V2.017m0-1.441h.288m136 55.61v-.432m0 0h.288m0 .432v-.432m-.288.432h.288m-11.67 0v-.432m0 0h.433m0 .432v-.432m-.433.432h.433m-11.67 0v-.432m0 0h.288m0 .432v-.432m-.288.432h.288m-11.669 0v-.432m0 0h.288m0 .432v-.432m-.288.432h.288m-11.669 0v-.432m0 0h.432m0 .432v-.432m-.432.432h.432m-11.67 0v-.432m0 0h.288m0 .432v-.432m-.288.432h.288m-11.669 0v-.432m0 0h.432m0 .432v-.432m-.432.432h.432m-11.813 0v-.432m0 0h.432m0 .432v-.432m-.432.432h.432m-11.67 0v-.432m0 0h.289m0 .432v-.432m-.289.432h.289m-11.67 0v-.432m0 0h.432m0 .432v-.432m-.432.432h.432m-11.669 0v-.432m0 0h.288m0 .432v-.432m-.288.432h.288m-11.669 0v-.432m0 0h.288m0 .432v-.432m-.288.432h.288m-11.67 0v-.432m0 0h.433m0 .432v-.432m-.433.432h.433m-.721 1.297v-1.297m0 0h137.008m0 1.297v-1.297M11.093 57.483h137.008M13.398 60.508h132.398m-132.398 0v-3.025m132.398 3.025v-3.025m1.585-1.729h.288m-.288 0V.288m0 0h.288m0 55.466V.288m-11.67 55.466h.433m-.433 0V47.83m0-40.771V.288m0 0h.433m0 55.466V47.83m0-40.771V.288m-11.67 55.466h.288m-.288 0V47.83m0-40.771V.288m0 0h.288m0 55.466V47.83m0-40.771V.288m-11.669 55.466h.288m-.288 0V47.83m0-40.771V.288m0 0h.288m0 55.466V47.83m0-40.771V.288M102 55.754h.432m-.432 0V47.83m0-40.771V.288m0 0h.432m0 55.466V47.83m0-40.771V.288m-11.67 55.466h.288m-.288 0V47.83m0-40.771V.288m0 0h.288m0 55.466V47.83m0-40.771V.288M79.381 55.754h.432m-.432 0V47.83m0-40.771V.288m0 0h.432m0 55.466V47.83m0-40.771V.288M68 55.754h.432m-.432 0V47.83m0-40.771V.288m0 0h.432m0 55.466V47.83m0-40.771V.288m-11.67 55.466h.289m-.289 0V47.83m0-40.771V.288m0 0h.289m0 55.466V47.83m0-40.771V.288m-11.67 55.466h.432m-.432 0V47.83m0-40.771V.288m0 0h.432m0 55.466V47.83m0-40.771V.288M34.144 55.754h.288m-.288 0V47.83m0-40.771V.288m0 0h.288m0 55.466V47.83m0-40.771V.288M22.763 55.754h.288m-.288 0V47.83m0-40.771V.288m0 0h.288m0 55.466V47.83m0-40.771V.288m-11.67 55.466h.433m-.433 0V.288m0 0h.433m0 55.466V.288m136.287 55.898V.576M11.093 56.186h137.008m-137.008 0V.576m.721 0h10.949m.288 0h11.093m.288 0h10.949m.432 0h10.949m.289 0H68m.432 0h10.949m.432 0h10.949m.288 0H102m.432 0h10.949m.288 0h11.093m.288 0h10.949m.433 0h10.949m.288 0h.432m0 141.474v-18.008M29.966 142.05v-.432m0 0h.288m0 .432v-.432m-.288.432h.288m10.949 0v-.432m0 0h.432m0 .432v-.432m-.432.432h.432m22.331 0v-.432m0 0h.288m0 .432v-.432m-.288.432h.288m78.949 0v-.432m0 0h.432m0 .432v-.432m-.432.432h.432m-45.669 0v-.432m0 0h.288m0 .432v-.432m-.288.432h.288m-79.669 0v-.432m0 0h.288m0 .432v-.432m-.288.432h.288m113.093 0v-.432m0 0h.288m0 .432v-.432m-.288.432h.288m-11.67 0v-.432m0 0h.288m0 .432v-.432m-.288.432h.288m-68.287 0v-.432m0 0h.288m0 .432v-.432m-.288.432h.288m56.33 0v-.432m0 0h.432m0 .432v-.432m-.432.432h.432m-23.051 0v-.432m0 0h.289m0 .432v-.432m-.289.432h.289m-11.67 0v-.432m0 0h.432m0 .432v-.432m-.432.432h.432m-64.542 1.297v-1.297m0 0h137.008m0 1.297v-1.297m-137.008 1.297h137.008m-134.703 2.881h132.398m-132.398 0v-2.881m132.398 2.881v-2.881m-2.593-1.729h.432m-.432 0v-17.432m.432 17.432v-17.432m-11.669 17.432h.288m-.288 0v-17.432m.288 17.432v-17.432m-11.67 17.432h.288m-.288 0v-17.432m.288 17.432v-17.432m-11.669 17.432h.432m-.432 0v-17.432m.432 17.432v-17.432m-11.669 17.432h.288m-.288 0v-17.432m.288 17.432v-17.432m-11.67 17.432h.289m-.289 0v-17.432m.289 17.432v-17.432m-11.67 17.432h.432m-.432 0v-17.432m.432 17.432v-17.432m-11.669 17.432h.288m-.288 0v-17.432m.288 17.432v-17.432m-11.669 17.432h.288m-.288 0v-17.432m.288 17.432v-17.432m-11.67 17.432h.432m-.432 0v-17.432m.432 17.432v-17.432m-11.669 17.432h.288m-.288 0v-17.432m.288 17.432v-17.432m-11.669 17.432h.288m-.288 0v-17.432m.288 17.432v-17.432m-7.78 17.864h137.008m-137.008 0v-18.008m-.144 0h3.458m130.236 0h3.458M11.093 241.313h137.008m-38.898 0v-.433m0 0h.432m0 .433v-.433m-.432.433h.432m-11.669 0v-.433m0 0h.288m0 .433v-.433m-.288.433h.288m-11.67 0v-.433m0 0h.289m0 .433v-.433m-.289.433h.289m-22.907 0v-.433m0 0h.288m0 .433v-.433m-.288.433h.288m-34.288 0v-.433m0 0h.288m0 .433v-.433m-.288.433h.288m10.949 0v-.433m0 0h.432m0 .433v-.433m-.432.433h.432m101.568 0v-.433m0 0h.432m0 .433v-.433m-.432.433h.432m-23.051 0v-.433m0 0h.288m0 .433v-.433m-.288.433h.288m-102.287 0v-.433m0 0h.288m0 .433v-.433m-.288.433h.288m113.093 0v-.433m0 0h.288m0 .433v-.433m-.288.433h.288m-79.669 0v-.433m0 0h.288m0 .433v-.433m-.288.433h.288m22.33 0v-.433m0 0h.432m0 .433v-.433m-.432.433h.432m-64.542 1.296v-1.296m0 0h137.008m0 1.296v-1.296m-137.008 1.296h137.008m-134.703 3.17h132.398m-132.398 0v-3.17m132.398 3.17v-3.17m-81.83-1.729h.288m-.288 0v-3.169m.288 3.169v-3.169m33.712 3.169h.288m-.288 0v-3.169m.288 3.169v-3.169m-79.669 3.169h.288m-.288 0v-8.211m.288 8.211v-8.211m33.712 8.211h.288m-.288 0v-3.169m.288 3.169v-3.169m22.33 3.169h.432m-.432 0v-3.169m.432 3.169v-3.169m56.331 3.169h.288m-.288 0v-3.169m.288 3.169v-3.169m-11.67 3.169h.288m-.288 0v-3.169m.288 3.169v-3.169m-79.669 3.169h.432m-.432 0v-8.211m.432 8.211v-8.211m67.568 8.211h.432m-.432 0v-3.169m.432 3.169v-3.169m-79.669 3.169h.288m-.288 0v-8.211m.288 8.211v-8.211m56.33 8.211h.289m-.289 0v-3.169m.289 3.169v-3.169m56.33 3.169h.432m-.432 0v-3.169m.432 3.169v-3.169m-132.542 3.602v-9.365m0 0h3.314m130.236 0h3.458m0 9.365v-9.365m-103.296 5.763v-91.483"/><path class="f4c2356a-a7e2-467e-8f53-59b04fe4fc65" d="M44.805 237.711h99.838M14.407 75.923h36.305m88.889 0h5.042M14.407 91.483h36.305m88.889 0h5.042M14.407 106.898h36.881m88.169 0h5.186M14.407 122.457h130.236M14.407 161.788h35.584m90.186 0h4.466M14.407 177.203h35.584m90.186 0h4.466M14.407 192.762h35.584m90.186 0h4.466M14.407 208.177h35.584m90.186 0h4.466M14.407 223.736h130.236M14.407 261.194h20.025m31.551 0h78.66M14.407 276.753h20.025m31.551 0h78.66M14.407 292.168h20.025m31.551 0h78.66m-130.236 15.56h20.025m31.551 0h78.66M14.407 323.143h20.025m31.551 0h78.66"/><path class="e441ad71-f79a-424c-9dd8-1d06fec86a60" d="M17.864 7.059V47.83m0 0h123.754m0 0V7.059m0 0H17.864m0 30.543h123.754M17.864 27.373h123.754M17.864 17.288h123.754M116.839 47.83V7.059M92.059 47.83V7.059M67.423 47.83V7.059M42.644 47.83V7.059"/></g></g></svg>