<svg xmlns="http://www.w3.org/2000/svg" width="324.781" height="76.039"><g id="a7e0c110-b667-4340-8e11-18e5f03dc10a" data-name="レイヤー 2"><path d="M54.991 24.269a.872.872 0 01-.9-.84.774.774 0 01.63-.75 13.517 13.517 0 006.27-4.08.618.618 0 01.48-.24.914.914 0 01.84.9c0 1.2-5.7 5.01-7.32 5.01zm.42-18.87a.7.7 0 01-.72-.75.716.716 0 01.72-.75l10.5.031V.81a.842.842 0 011.68 0l-.03 3.12L77.91 3.9a.708.708 0 01.75.75.722.722 0 01-.75.75zm10.709 11.07h-2.849c-2.161 0-4.41-.03-4.47-2.61 0-.48-.03-.99-.03-1.469 0-.511.03-1.021.03-1.471a2.714 2.714 0 013-2.58c1.2-.029 2.551-.029 3.991-.029 1.949 0 4.019 0 5.969.029 1.89.031 2.97 1.11 3.03 2.341.03.389.03.84.03 1.289 0 .631 0 1.29-.03 1.86-.06 1.41-.9 2.61-3.06 2.64H67.74v3.51l.03 2.34v.09c0 1.65-.81 3.27-3.84 3.27s-3.059-.75-3.059-1.05a.832.832 0 01.81-.84.511.511 0 01.21.03 9.4 9.4 0 002.159.3c1.471 0 2.07-.63 2.07-2.07zm7.08-3.84c0-2.04 0-2.85-1.95-2.94-.99-.03-2.19-.06-3.42-.06-1.95 0-4.019.03-5.609.06-1.8 0-1.861 1.17-1.861 2.581 0 2.04.031 2.819 1.83 2.849 1.32.03 2.88.06 4.5.06s3.24-.03 4.65-.06c1.62-.03 1.86-.54 1.86-2.49zm3.84 11.25a17.757 17.757 0 00-5.88-3.81.636.636 0 01-.42-.63.768.768 0 01.75-.78c.81 0 4.65 1.95 6.63 3.75a1.094 1.094 0 01.39.81.953.953 0 01-.87.96.779.779 0 01-.6-.3zM95.61 10.68a33.874 33.874 0 01-3.15 3.09 3.6 3.6 0 01.6-.061c.75-.03 1.529-.03 2.31-.03.569 0 1.139 0 1.679.03a2.42 2.42 0 012.46 2.28c.06 1.11.09 2.76.09 4.23 0 .81 0 1.56-.03 2.13A2.593 2.593 0 0196.9 24.9c-.6.03-1.23.06-1.89.06-.63 0-1.289-.03-1.92-.06-1.8-.09-2.759-1.11-2.789-2.52 0-.45-.03-.93-.03-1.44 0-1.65.06-3.48.12-4.74a2.408 2.408 0 01.18-.9c-1.26.93-3.18 2.28-3.69 2.28a.686.686 0 01-.69-.72.762.762 0 01.42-.66 29.627 29.627 0 007.229-5.52l-6.509.059a.685.685 0 01-.72-.69.669.669 0 01.72-.69l5.19.031-.03-3.99-3.75.031a.676.676 0 110-1.35l3.75.029V.78a.715.715 0 01.75-.72.733.733 0 01.809.72l-.029 3.329 2.7-.029a.661.661 0 01.691.69.655.655 0 01-.691.66l-2.7-.031V9.39h.989a27.827 27.827 0 004.38-7.11.7.7 0 01.66-.45.785.785 0 01.78.72 25.024 25.024 0 01-4.11 6.84l3.78-.031a.7.7 0 01.75.721.663.663 0 01-.72.659zm2.61 7.8c0-3.51-.06-3.54-3.3-3.54-2.04 0-3.119.03-3.179 1.65 0 .45-.06 1.14-.06 1.89zm-6.539 1.29v2.25c.029 1.44 1.17 1.59 3.3 1.59 1.621 0 3.18-.06 3.24-1.65.03-.51.03-1.32.03-2.19zM104.46 9.419c0 3.9.03 8.28.03 12.57v3.27a.733.733 0 01-.81.72.749.749 0 01-.81-.72c0-13.65 0-17.429.06-20.939.03-2.64 1.65-2.82 4.38-2.82.78 0 1.62 0 2.46.03 1.59.06 2.52.93 2.52 2.159a3.535 3.535 0 01-.24 1.17c-.51 1.261-1.23 2.46-1.86 3.691a3.29 3.29 0 00-.48 1.47 2.617 2.617 0 00.63 1.5c1.2 1.679 2.28 3.059 2.28 5.429 0 3.24-2.07 4.5-4.23 4.5-1.23 0-2.1-.27-2.1-1.02a.748.748 0 01.69-.81c.06 0 .12.03.18.03a5.685 5.685 0 001.17.15c2.16 0 2.64-1.62 2.64-3a8.022 8.022 0 00-2.04-4.62 3.274 3.274 0 01-.78-1.98 5.1 5.1 0 01.63-2.159c1.44-2.79 1.74-3.63 1.74-4.141 0-.929-.57-1.019-2.82-1.019-2.4 0-3.21.03-3.21 1.68-.03 1.5-.03 3.149-.03 4.859zm28.321-1.949c0 2.789-3.96 14.069-7.98 14.069-1.56 0-3.9-2.04-3.9-5.58a11.145 11.145 0 0111.49-10.589c5.159 0 9.689 3.3 9.689 8.579 0 7.38-8.189 9.78-9.24 9.78a.911.911 0 01-1.019-.84c0-.36.269-.75.9-.87 4.05-.87 7.649-3.66 7.649-8.19 0-4.2-3.72-7.14-8.01-7.14a.84.84 0 01.421.781zm-10.32 8.369c0 2.04 1.23 3.9 2.43 3.9 2.04 0 5.76-7.2 6.18-12.239a1.021 1.021 0 01.3-.75 9.72 9.72 0 00-8.91 9.089zm28.26 2.37a.822.822 0 01-.84-.72.78.78 0 01.36-.63 22.909 22.909 0 005.7-6.839 24.438 24.438 0 00-1.14-3.451c-.78.81-3.27 3.27-4.02 3.27a.76.76 0 01-.78-.69.682.682 0 01.36-.569 21.336 21.336 0 003.84-3.33 12.887 12.887 0 00-2.1-3.12.8.8 0 01-.24-.57.73.73 0 01.72-.72c.69 0 1.89 1.65 2.7 3.18a21.514 21.514 0 002.04-2.88.65.65 0 01.57-.33.816.816 0 01.81.75c0 .51-1.62 2.49-2.79 3.81a28.812 28.812 0 012.31 11.1c0 4.14-.87 8.67-5.28 8.67-2.19 0-2.43-.54-2.43-1.02a.729.729 0 01.69-.81.661.661 0 01.24.03 6.4 6.4 0 001.59.24 2.892 2.892 0 002.91-2.25 15.519 15.519 0 00.81-5.16 25.514 25.514 0 00-.39-4.23c-1.05 1.679-4.561 6.269-5.64 6.269zm17.489-3.6a14.963 14.963 0 007.56 9.24.7.7 0 01.42.66.923.923 0 01-.87.93c-1.29 0-6.48-4.11-8.13-9.78-2.069 7.56-8.009 10.02-8.669 10.02a.8.8 0 01-.27-1.56 12.739 12.739 0 007.68-9.51l-6.33.09a.705.705 0 110-1.41l6.569.03a56.885 56.885 0 00.15-7.11l-5.82.061a.691.691 0 01-.719-.72.691.691 0 01.719-.72l5.791.029c0-1.859 0-3.449-.031-4.049V.78a.755.755 0 01.781-.78.738.738 0 01.779.78v4.079l6.36-.029a.684.684 0 01.69.72.685.685 0 01-.69.72l-6.329-.03a66.038 66.038 0 01-.181 7.079l1.621-.03a31.155 31.155 0 002.249-5.279.687.687 0 01.69-.54c.45 0 .96.36.96.78a33.209 33.209 0 01-2.46 5.039h4.59a.677.677 0 01.69.69.685.685 0 01-.69.72zm-5.25-2.85a15.48 15.48 0 00-2.129-3.239.474.474 0 01-.15-.36c0-.33.42-.631.779-.631.6 0 2.911 3.06 2.911 3.87a.8.8 0 01-.781.81.678.678 0 01-.63-.45zM184.2 18.3a.852.852 0 01-.6-1.5 19.3 19.3 0 005.04-8.009.726.726 0 01.72-.511.906.906 0 01.96.841c0 .719-2.16 5.639-5.37 8.849a1.053 1.053 0 01-.75.33zm11.251-16.29a.855.855 0 111.71 0v16.139l.06 3.36v.06c0 1.83-1.11 3.75-4.68 3.75a15.4 15.4 0 01-2.85-.33.879.879 0 01-.78-.84.866.866 0 01.81-.9.511.511 0 01.21.03 13.679 13.679 0 002.73.36c1.68 0 2.79-.63 2.79-2.34zm11.639 14.579a28.36 28.36 0 00-5.61-7.2.635.635 0 01-.24-.511.772.772 0 01.81-.719c1.32 0 6.84 6.869 6.84 8.039a.993.993 0 01-.96.99.963.963 0 01-.84-.599zm13.081-5.97h-3.54a.677.677 0 01-.69-.689.685.685 0 01.69-.721l3.54.03V2.16a.739.739 0 01.81-.75.73.73 0 01.78.75l-.03 7.079 3.21-.03a.652.652 0 01.66.69.661.661 0 01-.66.72h-3.21l-.03 8.13c1.26-.54 2.43-1.11 3.33-1.59a.8.8 0 01.36-.09.693.693 0 01.66.69.742.742 0 01-.45.66c-2.07 1.05-8.28 3.9-9.18 3.9a.767.767 0 01-.21-1.5c1.2-.36 2.61-.87 3.99-1.44zM233.1 9.9l-3.84 1.951c0 3.779-.031 7.649-.031 9.509 0 2.31 2.221 2.31 4.32 2.31 5.97 0 6.72-.72 6.72-3.84a.732.732 0 01.78-.81c.33 0 .9.18.9 1.05 0 4.62-2.82 5.01-7.889 5.01-3.15 0-6.331-.06-6.331-3.51v-8.94c-3.059 1.56-3.059 1.56-3.179 1.56a.7.7 0 01-.66-.72.658.658 0 01.39-.63s1.469-.75 3.449-1.77V4.02a.731.731 0 01.781-.75.719.719 0 01.78.69c0 1.62-.03 3.9-.03 6.3l3.84-1.92V1.32a.723.723 0 01.78-.72.715.715 0 01.75.72v6.24c2.43-1.23 3-1.5 3.78-1.5 1.89 0 1.98 1.8 1.98 3.45 0 6.719-.54 8.519-3.09 8.519-1.32 0-1.5-.39-1.5-.87 0-.39.241-.81.6-.81.06 0 .09.03.15.03a2.746 2.746 0 00.78.12c1.05 0 1.53-.96 1.53-6.39 0-1.859-.15-2.519-.87-2.519-.15 0-.45.03-3.36 1.53V19.5a.686.686 0 01-.75.66.7.7 0 01-.779-.66zm18.122 7.409c0-1.2.09-2.43.21-3.63.36-3.48 1.139-6.839 1.409-8.669a.828.828 0 01.81-.75.775.775 0 01.81.75v.15c-1.14 5.819-1.68 9.119-1.68 11.969 0 2.13.361 2.82.54 2.82.091 0 .21-.21.36-.51.06-.15 1.14-2.22 1.26-2.43a.659.659 0 01.63-.39.73.73 0 01.721.72.8.8 0 01-.091.36c-.75 1.35-2.13 3.93-2.13 5.49v.15c0 .09.031.15.031.24a.873.873 0 01-.841.96c-1.59 0-2.039-5.43-2.039-7.23zm15.239 5.79c-4.53 0-6.66-1.89-6.66-2.7a.808.808 0 01.84-.78.841.841 0 01.63.27 6.858 6.858 0 004.74 1.47 17.069 17.069 0 003.87-.48 1.338 1.338 0 01.329-.03.814.814 0 01.9.81 1.03 1.03 0 01-.84.99 16.793 16.793 0 01-3.809.451zm2.49-14.4a16.335 16.335 0 00-3.51-.389 16.884 16.884 0 00-4.17.54.392.392 0 01-.18.029.827.827 0 01-.78-.839.809.809 0 01.69-.78 19.3 19.3 0 014.8-.571c3.9 0 4.17.661 4.17 1.2a.811.811 0 01-.81.839.586.586 0 01-.21-.028zM5.49 65.809a31.337 31.337 0 01-4.35 1.68.741.741 0 01-.75-.75.726.726 0 01.51-.72c1.68-.6 3.21-1.17 4.59-1.77l.03-6.33-2.7.03c-.87 4.14-1.38 4.8-2.13 4.8a.625.625 0 01-.69-.6 1.042 1.042 0 01.09-.36 22.232 22.232 0 001.86-8.4.715.715 0 01.75-.72.724.724 0 01.78.72c0 .27-.18 1.65-.42 3.15h2.46l.03-5.76a.724.724 0 01.78-.72.724.724 0 01.78.72l-.03 5.76h2.91a.644.644 0 01.69.689.659.659 0 01-.69.69H7.08l-.03 5.642c.96-.451 1.86-.931 2.7-1.411a.4.4 0 01.24-.06.714.714 0 01.659.69c0 .42-.42.781-3.6 2.31l-.03 10.17a.719.719 0 01-.78.69.719.719 0 01-.78-.69zm5.429-5.22a.712.712 0 01-.75-.69.664.664 0 01.721-.66h6v-3.78l-4.769.031a.676.676 0 110-1.35h4.769l-.03-3.33a.734.734 0 01.81-.72.749.749 0 01.81.72v3.33h5.46a.654.654 0 01.69.66.661.661 0 01-.69.69l-5.49-.031v3.78h7.11a.628.628 0 01.66.66.636.636 0 01-.66.69zm9.36 5.16h-9.36a.676.676 0 110-1.35l9.33.03v-2.07a.723.723 0 01.78-.719.692.692 0 01.75.689l.03 2.1 3.96-.03a.628.628 0 01.66.66.636.636 0 01-.66.69h-3.96l.03 3.75.09 3v.18c0 1.41-.6 3.09-3.81 3.09-2.249 0-2.97-.33-2.97-1.02a.748.748 0 01.75-.78h.15a14.475 14.475 0 002.28.27c1.23 0 1.98-.45 1.98-1.89zm-4.17 5.46a10.19 10.19 0 00-3.449-2.58.562.562 0 01-.361-.48.787.787 0 01.781-.72c.69 0 4.379 2.07 4.379 3.27a.732.732 0 01-1.35.51zm22.861 3.81l.42-16.229c-.63.75-4.23 4.859-5.31 4.859a.813.813 0 01-.81-.839.839.839 0 01.36-.691 32.4 32.4 0 009.12-10.979.711.711 0 01.66-.45 1.008 1.008 0 01.989.93c0 .63-2.219 3.66-3.449 5.25l-.27 18.119a.84.84 0 01-.9.78.733.733 0 01-.81-.72zm18.719-6.63a.923.923 0 01.96.81v.24c0 5.28-2.94 5.4-6.42 5.4-2.43 0-5.31-.12-5.31-3.15 0-1.29.031-19.139.06-20.069a.8.8 0 01.84-.75.765.765 0 01.841.75c0 .66-.06 5.069-.091 9.569A47.6 47.6 0 0056.1 56.81a.808.808 0 01.45-.15.917.917 0 01.42 1.739 60.1 60.1 0 01-8.429 4.32c-.031 3.39-.061 6.6-.061 8.01 0 1.95.271 2.61 3.96 2.61 2.73 0 4.5-.09 4.5-3.99v-.18a.716.716 0 01.749-.78zm13.351-16.2a.914.914 0 01.99.841c0 .15-.03 1.35-.45 6.9-.21 2.759-.45 5.249-.45 7.739 0 .48 0 .93.03 1.41.09 2.52 1.83 3.84 4.259 3.84 2.221 0 5.01-1.08 7.74-3.3a1.169 1.169 0 01.78-.33.912.912 0 01.87.96 1.089 1.089 0 01-.42.84 14.749 14.749 0 01-8.91 3.54c-3.3 0-5.879-1.74-6-5.55-.03-.45-.03-.87-.03-1.29 0-2.61.3-4.92.42-7.709.09-1.8.27-4.38.27-6.3v-.69a.848.848 0 01.901-.901zm26.701 6.361a7.569 7.569 0 01-2.79-.481.884.884 0 01-.511-.809.676.676 0 01.69-.75 1.174 1.174 0 01.391.09 7.866 7.866 0 002.64.42 11.169 11.169 0 002.429-.27 10.177 10.177 0 00.21-2.01 14.312 14.312 0 00-.12-1.71v-.12a.739.739 0 01.81-.75c.75 0 .99.51.99 1.949a10.822 10.822 0 01-.209 2.161 11.753 11.753 0 002.459-1.2.688.688 0 01.42-.119.876.876 0 01.84.81c0 .389-.3 1.08-4.11 2.159a116.9 116.9 0 01-5.73 15.63 1.071 1.071 0 01-.96.66.8.8 0 01-.839-.81 1.684 1.684 0 01.18-.69 95.21 95.21 0 005.639-14.4 13.69 13.69 0 01-2.429.24zm13.289 15.509c-4.23 0-6.78-1.89-6.78-2.91a.918.918 0 01.87-.9.823.823 0 01.63.33c.99 1.2 2.49 1.68 4.62 1.68a22.052 22.052 0 003.24-.27h.18a.811.811 0 01.87.84c0 .72-.66 1.23-3.63 1.23zm3.12-12.51a12.123 12.123 0 00-4.14-.75 7.559 7.559 0 00-2.67.42.848.848 0 01-.27.06.7.7 0 01-.69-.719c0-1.17 3-1.261 3.9-1.261a13.222 13.222 0 014.35.721.8.8 0 01.57.779.752.752 0 01-.72.81 1.276 1.276 0 01-.33-.06zm13.621-1.23h-.06a.746.746 0 01-.84-.719.781.781 0 01.81-.781c1.89-.09 4.319-.15 6.779-.179a30.292 30.292 0 00.36-4.29c0-.75.12-1.35.87-1.35a.922.922 0 01.931.96 29.792 29.792 0 01-.421 4.649c1.56 0 3.03 0 4.32.031 2.07.059 3.39 1.229 3.39 3.149 0 2.49-.54 7.2-1.89 9.54a5.259 5.259 0 01-4.709 2.76c-1.741 0-4.2-1.02-4.2-1.95a.865.865 0 01.87-.84 1.122 1.122 0 01.63.21 4.607 4.607 0 002.67.9 3.735 3.735 0 003.21-1.89c1.17-1.8 1.71-6.09 1.71-8.37a1.873 1.873 0 00-2.1-2.069c-.57-.031-1.23-.031-1.92-.031-.72 0-1.47 0-2.28.031-2.461 11.159-9.15 14.82-10.05 14.82a.84.84 0 01-.87-.81 1.14 1.14 0 01.72-.96c4.65-2.52 7.349-7.71 8.489-13.02-2.31.059-4.649.119-6.419.209zm27.329 14.61a.8.8 0 01-.87-.75c0-.3.24-.66.78-.87a25.366 25.366 0 0010.979-7.86 18.706 18.706 0 00-4.439-2.04.6.6 0 01-.45-.6.755.755 0 01.779-.781 17.807 17.807 0 015.1 2.16c.871-1.169 3.75-5.609 3.75-6.54 0-.449-.3-.66-.81-.66-.69 0-5.04.3-6.569.481-2.34 3.119-6.33 7.649-7.71 7.649a.75.75 0 01-.78-.75 1.114 1.114 0 01.6-.9c2.94-1.86 7.35-7.379 8.519-10.109a.937.937 0 011.831.24c0 .33-.42.96-1.38 2.37.69-.06 5.219-.42 6-.42 1.44 0 2.22.75 2.22 1.829a3.253 3.253 0 01-.45 1.53 53.553 53.553 0 01-3.84 6.15c1.62 1.11 3.06 2.28 3.06 3a.865.865 0 01-.84.87.877.877 0 01-.66-.33 14.821 14.821 0 00-2.549-2.25c-5.221 6.452-11.79 8.581-12.271 8.581zm48.15-11.49c-1.8-.06-4.889-.06-8.219-.06v.06a12.579 12.579 0 01-8.97 11.76 1.777 1.777 0 01-.63.12.8.8 0 01-.9-.81.939.939 0 01.72-.9 10.826 10.826 0 008.16-10.23c-3.57 0-7.23 0-9.84.09h-.03a.726.726 0 01-.78-.72.767.767 0 01.839-.749c2.43-.061 6.18-.091 9.84-.091 0-1.74-.06-3.9-.06-5.069a40.552 40.552 0 01-6.75.689c-.66 0-.96-.389-.96-.75 0-.389.3-.75.93-.75h.69a36.228 36.228 0 0011.25-2.13 1.151 1.151 0 01.51-.119.723.723 0 01.749.75c0 .48 0 .929-4.709 1.98v1.409c0 1.261 0 2.73-.03 3.99 3.48 0 6.689.03 8.219.06a.8.8 0 01.87.75.774.774 0 01-.87.72zm22.082-5.969c0 2.789-3.96 14.069-7.98 14.069-1.56 0-3.9-2.04-3.9-5.58a11.145 11.145 0 0111.489-10.589c5.16 0 9.69 3.3 9.69 8.579 0 7.38-8.19 9.78-9.24 9.78a.911.911 0 01-1.019-.84c0-.36.269-.75.9-.87 4.05-.87 7.65-3.66 7.65-8.19 0-4.2-3.72-7.14-8.01-7.14a.84.84 0 01.42.781zm-10.32 8.369c0 2.04 1.23 3.9 2.43 3.9 2.039 0 5.76-7.2 6.18-12.239a1.02 1.02 0 01.3-.75 9.72 9.72 0 00-8.91 9.089zm31.679 9.48l.42-16.29c-3.239 4.35-4.17 4.41-4.35 4.41a.775.775 0 01-.78-.78.836.836 0 01.3-.63 30.052 30.052 0 007.74-11.009.75.75 0 01.72-.51.927.927 0 01.96.84 28.74 28.74 0 01-3 5.429l-.33 18.54a.8.8 0 01-.87.72c-.42 0-.81-.21-.81-.69zm3.93-.54a.736.736 0 110-1.47l7.98.03v-7.68l-5.49.03a.709.709 0 110-1.41l5.49.031v-6.391l-6.39.03a.726.726 0 01-.78-.72.717.717 0 01.75-.719h14.67a.72.72 0 110 1.439l-6.63-.03v6.391l5.46-.031a.709.709 0 110 1.41l-5.46-.03v7.68l7.86-.03a.741.741 0 01.75.75.7.7 0 01-.75.72zm9.99-20.519a13.445 13.445 0 00-4.26-2.7.629.629 0 01-.39-.57.825.825 0 01.81-.81 15.191 15.191 0 014.979 2.73.887.887 0 01.331.69.946.946 0 01-.871.93.742.742 0 01-.599-.27zm21.42 21.689c-2.43 0-4.62-1.44-4.62-3.27 0-1.65 1.77-3.12 5.04-3.12a12.064 12.064 0 013.39.51c0-.96-.09-1.95-.18-3.03-.09-.93-.18-2.07-.24-3.3a21.837 21.837 0 01-4.5.571c-1.41 0-2.55-.091-2.55-1.021a.741.741 0 01.81-.75 1.345 1.345 0 01.33.03 7.323 7.323 0 001.53.15 22.4 22.4 0 004.29-.54c-.09-1.56-.15-3.209-.18-4.8a36.2 36.2 0 01-4.71.451c-1.74 0-2.25-.181-2.25-.9a.751.751 0 01.84-.75 1.163 1.163 0 01.3.029 10.339 10.339 0 001.74.15 25.383 25.383 0 004.05-.42c0-.75-.03-1.5-.03-2.159 0-2.85 0-3.45.93-3.45a.87.87 0 01.9.84v.059a95.166 95.166 0 00-.18 4.38c.96-.179 1.98-.389 3.12-.659a.511.511 0 01.21-.03.774.774 0 01.78.78c0 .329-.27.69-.84.81l-3.27.6c0 1.59.03 3.21.09 4.741 1.05-.271 2.22-.6 3.45-1.021a.968.968 0 01.39-.059.758.758 0 01.81.75.958.958 0 01-.81.9q-2.115.587-3.78.99c.06 1.26.15 2.46.24 3.51a36.8 36.8 0 01.27 3.69 18.058 18.058 0 014.26 2.46 1.039 1.039 0 01.42.81.929.929 0 01-.84.96.972.972 0 01-.63-.27 16.361 16.361 0 00-3.39-2.31 5.265 5.265 0 01-5.19 3.688zm.27-5.01c-.96 0-3.42.36-3.42 1.74 0 1.08 1.62 1.77 3.06 1.77a3.733 3.733 0 003.78-2.85 10.014 10.014 0 00-3.421-.66zm29.521-4.62a.945.945 0 01.9.9c0 .18-1.381 4.59-4.11 4.59-1.53 0-5.16-1.89-5.7-10.53-.09-1.32-.12-1.949-.12-2.639 0-.931.06-1.59.87-1.59.84 0 .87.6.87 2.34 0 8.669 3.15 10.529 4.05 10.529.36 0 1.379-.15 2.49-3.03a.834.834 0 01.75-.57zm11.129-.69a9.714 9.714 0 00-3.69-6.18.709.709 0 01-.33-.63.75.75 0 01.78-.75c1.32 0 5.07 4.56 5.07 7.17a1.081 1.081 0 01-1.02 1.14.807.807 0 01-.81-.75z" id="e4ecb0b4-76ce-41bf-9db2-5dc749beb2c4" data-name="レイヤー 1"/></g></svg>