<svg xmlns="http://www.w3.org/2000/svg" width="304.47" height="25.619"><g id="b3ebf892-3f95-4cd6-bb69-04ba21d952f1" data-name="レイヤー 2"><path d="M6.93 23.909c-4.86 0-6.93-3.09-6.93-3.93a.967.967 0 01.99-.93.893.893 0 01.81.48 5.613 5.613 0 005.159 2.61c2.88 0 4.92-1.83 4.92-4.08a4.89 4.89 0 00-2.819-4.11c-1.53-.87-3.18-1.679-4.8-2.49A5.528 5.528 0 01.96 6.57C.96 3.99 3 1.56 6.75 1.56s5.969 2.13 5.969 3.09a.956.956 0 01-.9.96 1.006 1.006 0 01-.84-.51A4.884 4.884 0 006.72 3.15c-2.46 0-3.93 1.59-3.93 3.36a4 4 0 002.37 3.42c1.35.72 3.48 1.679 4.77 2.4 2.729 1.5 3.9 3.66 3.9 5.7-.001 2.819-2.31 5.879-6.9 5.879zM19.98 12.75c0-6.51 4.65-11.22 10.89-11.22s10.889 4.71 10.889 11.22c0 6.749-4.65 11.159-10.889 11.159S19.98 19.5 19.98 12.75zm19.829 0c0-5.73-3.99-9.54-8.939-9.54s-8.94 3.81-8.94 9.54c0 5.7 3.99 9.449 8.94 9.449s8.939-3.75 8.939-9.449zm18.27.059c0 .12.12.27.33.451 1.65 1.529 2.94 4.139 4.11 6.059.84 1.35 1.71 2.25 3.06 2.4a1.009 1.009 0 01.93 1.02c0 .51-.39.99-1.23.99-.66 0-2.73-.48-4.35-3.42-1.23-2.19-3.75-7.2-5.849-7.26-.421 0-1.71-.059-2.491-.059-.839 0-.96.179-.96.569 0 2.31.091 8.07.091 9.18a.922.922 0 01-.991.9.848.848 0 01-.929-.87c.059-5.73.03-14.579.119-17.819.091-3.27 3.09-3.27 5.4-3.27.66 0 1.32.03 1.77.06 4.38.3 6.27 2.85 6.27 5.4a5.6 5.6 0 01-5.01 5.519c-.18 0-.27.06-.27.15zm-1.2-9.539c-.42-.03-1.08-.06-1.77-.06-2.219 0-3.27.42-3.389 2.13-.06.75-.031 3.81-.06 5.61 0 .45.449.509 2.909.509.96 0 1.951-.029 2.52-.059a4.425 4.425 0 004.38-4.23c0-1.89-1.41-3.72-4.59-3.9zm30.75 20.399a.993.993 0 01-.93-.69c-.36-.87-1.5-3.96-2.43-6.72-.09-.24-.18-.36-.48-.36-.48-.03-1.92-.03-3.45-.03-2.13 0-4.5 0-5.13.03a.456.456 0 00-.449.36c-.781 2.4-1.71 5.22-2.16 6.69a.97.97 0 01-.96.72.873.873 0 01-.93-.81 1.066 1.066 0 01.06-.3C72.45 17.129 75.959 7.5 77.4 3.36a2.2 2.2 0 012.04-1.59 2.28 2.28 0 012.13 1.62c1.98 5.52 5.94 16.469 6.96 18.869a1.2 1.2 0 01.09.45.973.973 0 01-.991.96zm-4.2-9.87C82.5 10.979 80.58 5.82 80.1 4.32c-.151-.45-.361-.66-.6-.66s-.48.24-.661.72c-.63 1.71-3.3 9.419-3.3 9.659 0 .12.089.18.33.18.6 0 2.219.03 3.779.03 1.59 0 3.121-.03 3.57-.03.21 0 .27-.06.27-.15a.876.876 0 00-.059-.269zM95.31 5.97a.685.685 0 01-.69-.72.677.677 0 01.69-.69h7.259a.705.705 0 110 1.41zm-.03 16.619c-.03-.87-.03-1.71-.03-2.52 0-.57 0-1.14.03-1.71a1.991 1.991 0 011.98-1.95c.51-.03 1.019-.06 1.53-.06 1.439 0 3.419.03 3.48 1.86.029.78.059 1.62.059 2.43 0 2.79 0 3.93-3.45 3.93-1.77 0-3.539-.06-3.599-1.98zM96.27 1.8a.669.669 0 01-.72-.69.663.663 0 01.72-.66h5.58a.637.637 0 01.69.66.645.645 0 01-.69.69zm.06 8.13a.677.677 0 01-.69-.69.66.66 0 01.69-.69h5.25a.644.644 0 01.69.69.659.659 0 01-.69.69zm0 3.929a.676.676 0 01-.69-.69.66.66 0 01.69-.69h5.25a.644.644 0 01.69.69.659.659 0 01-.69.69zm4.589 6.93c0-3.03 0-3.18-2.129-3.18-2.161 0-2.161.18-2.161 2.88 0 .63.031 1.23.031 1.71.029 1.08 1.02 1.08 2.25 1.08 1.949 0 2.009-.33 2.009-2.49zm5.31-6.84c-.03.39-.03.78-.03 1.17a10.364 10.364 0 00.51 3.48 20.361 20.361 0 001.8-7.109.874.874 0 00-.99-.99H105.9l-.12.27a.862.862 0 01-.81.57c-.36 0-.72-.27-.72-.57a.706.706 0 01.06-.24c.45-.93 2.97-6.15 2.97-6.96 0-.39-.24-.57-.69-.57h-2.61a.562.562 0 01-.54-.63.588.588 0 01.6-.63h3.06a1.519 1.519 0 011.71 1.53c0 .45 0 .48-2.37 6 .69 0 1.32-.03 1.47-.03h.06a1.808 1.808 0 011.86 2.01 24.271 24.271 0 01-2.37 8.819c1.56 2.31 4.59 3.36 9.33 3.36 1.02 0 2.1-.06 3.27-.15h.06a.73.73 0 01.69.75c0 .84-.63.87-3.6.87-5.13 0-8.55-1.05-10.41-3.69-.84 1.32-3.39 4.29-4.23 4.29a.853.853 0 01-.87-.75.794.794 0 01.42-.63 13.717 13.717 0 003.93-4.23 12.112 12.112 0 01-.93-4.35c-.81 1.05-1.08 1.35-1.44 1.35a.672.672 0 01-.42-1.23 6.591 6.591 0 001.95-2.52.426.426 0 01.42-.24.686.686 0 01.69.57.381.381 0 01-.03.18l-.06.12zm4.05 5.82a.721.721 0 010-1.44l1.35.03V8.1a.667.667 0 01.72-.69.659.659 0 01.69.69v10.259h2.16V3.66c-2.01.45-3.75.66-3.78.66a.682.682 0 01-.63-.75.571.571 0 01.48-.63 29.763 29.763 0 007.23-1.83.381.381 0 01.18-.03.815.815 0 01.719.81c0 .39-.089.66-2.759 1.38v5.97l2.73-.03a.721.721 0 110 1.44h-2.73v7.709l2.85-.03a.72.72 0 010 1.44zM128.55 24.3a.7.7 0 01-.75-.72.741.741 0 01.75-.75l11.219.03v-6.72l-6.689.03a.684.684 0 01-.69-.72.709.709 0 01.69-.75l6.689.03V8.79l-6.54.03a33.517 33.517 0 01-3.54 5.339 1.031 1.031 0 01-.81.45.8.8 0 01-.809-.78.939.939 0 01.24-.569 28.827 28.827 0 005.669-10.38.818.818 0 01.811-.6.87.87 0 01.929.78 27.075 27.075 0 01-1.74 4.32l5.79.03V1.14a.825.825 0 111.65 0v6.27l9.12-.03a.721.721 0 110 1.44l-9.12-.03v5.939l7.05-.03a.692.692 0 01.72.72.7.7 0 01-.72.75l-7.05-.03v6.72l11.07-.03a.7.7 0 01.719.75.691.691 0 01-.719.72zm38.429 1.319c-2.43 0-4.62-1.44-4.62-3.27 0-1.65 1.77-3.12 5.04-3.12a12.064 12.064 0 013.39.51c0-.96-.09-1.95-.18-3.03-.09-.93-.18-2.07-.24-3.3a21.826 21.826 0 01-4.5.57c-1.41 0-2.55-.09-2.55-1.02a.741.741 0 01.81-.75 1.3 1.3 0 01.33.031 7.4 7.4 0 001.53.15 22.415 22.415 0 004.29-.541c-.09-1.559-.15-3.209-.18-4.8a36.367 36.367 0 01-4.709.45c-1.741 0-2.25-.18-2.25-.9a.751.751 0 01.839-.75 1.122 1.122 0 01.3.03 10.456 10.456 0 001.741.15 25.383 25.383 0 004.049-.42c0-.75-.03-1.5-.03-2.16 0-2.85 0-3.45.93-3.45a.87.87 0 01.9.84V.9c-.09 1.35-.15 2.85-.18 4.38.96-.18 1.98-.39 3.12-.66a.511.511 0 01.21-.03.774.774 0 01.78.78c0 .33-.27.69-.84.81l-3.27.6c0 1.59.03 3.21.09 4.74 1.05-.27 2.22-.6 3.45-1.02a.953.953 0 01.39-.06.758.758 0 01.81.75.958.958 0 01-.81.9q-2.115.585-3.78.99c.06 1.26.15 2.46.24 3.51a36.8 36.8 0 01.27 3.69 18.058 18.058 0 014.26 2.46 1.036 1.036 0 01.42.81.929.929 0 01-.84.96.972.972 0 01-.63-.27 16.361 16.361 0 00-3.39-2.31 5.265 5.265 0 01-5.19 3.689zm.271-5.01c-.96 0-3.42.36-3.42 1.74 0 1.08 1.619 1.77 3.059 1.77a3.733 3.733 0 003.78-2.85 10.013 10.013 0 00-3.419-.66zM203.039 24c-6.09 0-9.81-4.02-9.81-8.85a11.757 11.757 0 013.06-7.529q.36-.36.36-.45c0-.03 0-.06-.06-.06a1.51 1.51 0 00-.48.12c-3.839 1.26-8.639 2.49-8.909 2.49a.978.978 0 01-1.08-.93.945.945 0 01.87-.87c.659-.15 2.489-.51 3.48-.75 1.5-.39 4.2-.99 7.349-1.89.87-.24 6.39-1.8 8.49-1.8a.962.962 0 011.02.96c0 .78-.69.87-2.31.96a15.243 15.243 0 00-4.68.9 9.935 9.935 0 00-5.49 8.549c0 3.75 2.55 7.23 7.92 7.23h.54c.84 0 1.26.45 1.26.93 0 .149-.06.99-1.53.99zm2.85-11.249a10.084 10.084 0 00-2.94-2.16.556.556 0 01-.39-.51.709.709 0 01.75-.66c.6 0 3.87 1.71 3.87 2.82a.769.769 0 01-.75.78.64.64 0 01-.54-.271zm2.58-2.19a9.973 9.973 0 00-3-2.16.582.582 0 01-.42-.54.707.707 0 01.75-.63c.45 0 3.93 1.59 3.93 2.82a.745.745 0 01-.72.78.727.727 0 01-.54-.271zM229.68 7.14c0 2.79-3.96 14.069-7.98 14.069-1.56 0-3.9-2.04-3.9-5.58A11.146 11.146 0 01229.29 5.04c5.159 0 9.689 3.3 9.689 8.579 0 7.38-8.189 9.78-9.24 9.78a.911.911 0 01-1.019-.84c0-.36.269-.75.9-.87 4.049-.87 7.649-3.66 7.649-8.189 0-4.2-3.72-7.14-8.01-7.14a.838.838 0 01.421.78zm-10.32 8.369c0 2.04 1.23 3.9 2.43 3.9 2.04 0 5.76-7.2 6.18-12.239a1.022 1.022 0 01.3-.75 9.721 9.721 0 00-8.91 9.089zm36.63 4.98v.3c0 1.98-1.11 2.79-2.58 2.79-1.26 0-4.65-.99-4.65-2.94 0-2.13 3.87-4.68 5.61-5.7 0-.84-.03-1.679-.03-2.49 0-.84.03-1.649.03-2.429a12.208 12.208 0 01-2.88.36c-2.04 0-2.25-.45-2.25-.96a.736.736 0 01.81-.72 1.231 1.231 0 01.33.03 6.647 6.647 0 001.141.12 11.235 11.235 0 002.879-.45V7.08c0-1.11-.03-2.01-.06-2.82a.858.858 0 111.71-.09v.06c-.06.93-.12 2.46-.15 3.66a9.687 9.687 0 002.28-1.23.756.756 0 01.48-.15.794.794 0 01.78.78 1.011 1.011 0 01-.6.87 17.03 17.03 0 01-3 1.41c-.03 1.35-.03 2.94-.03 4.619a14.008 14.008 0 016.39-1.77c1.47 0 6.659.48 6.659 4.68a6.173 6.173 0 01-6.359 5.85c-1.5 0-4.38-.72-4.38-1.77a.768.768 0 01.75-.78.847.847 0 01.45.12 7.744 7.744 0 003.39.9 4.491 4.491 0 004.439-4.26c0-2.4-2.819-3.27-4.979-3.27a13.449 13.449 0 00-6.36 1.83c.03 1.681.09 3.33.18 4.77zm-5.61.03c0 .93 1.98 1.59 2.85 1.59.78 0 1.2-.45 1.2-1.47 0-1.17 0-2.61-.03-4.11-.45.271-4.02 2.61-4.02 3.99zm18.959-11.1a6.345 6.345 0 00-4.11-1.47 4.424 4.424 0 00-.629.03h-.12a.769.769 0 01-.78-.75c0-.6.42-.78 1.44-.78 2.37 0 5.7 1.14 5.7 2.43a.858.858 0 01-.839.84.949.949 0 01-.662-.299zm9.932-3.299a.706.706 0 110-1.41h9.209a.706.706 0 110 1.41zm6.419 18.659c-.63.03-1.379.06-2.129.06s-1.471-.03-2.071-.06a1.948 1.948 0 01-2.01-1.98c-.029-.66-.029-1.26-.029-1.86 0-.81 0-1.59.029-2.34a1.965 1.965 0 011.98-2.01c.69-.03 1.38-.06 2.04-.06.811 0 1.59.03 2.31.06a2.088 2.088 0 012.16 1.83c.03.69.03 1.44.03 2.19s0 1.47-.03 2.13a2.162 2.162 0 01-2.28 2.04zm-5.219-22.8a.678.678 0 01-.691-.69.661.661 0 01.691-.69h6.359a.661.661 0 01.69.69.677.677 0 01-.69.69zm.059 8.1a.676.676 0 110-1.35h6.36a.654.654 0 01.69.66.661.661 0 01-.69.69zm0 3.9a.662.662 0 110-1.32h6.36a.661.661 0 110 1.32zm.361 6.69c0 .66.029 1.32.029 1.8.03.87.42 1.02 2.73 1.02 2.4 0 2.85-.09 2.88-1.05.03-.45.03-1.11.03-1.77s0-1.32-.03-1.77c-.06-1.08-.69-1.11-2.88-1.11-2.009 0-2.67 0-2.73 1.14 0 .42-.029 1.08-.029 1.74zM297.75 9.93v5.039c.69 0 1.32.03 1.95.06a2.729 2.729 0 012.79 2.43c.06.87.09 1.89.09 2.91 0 .6-.03 1.17-.03 1.71a2.643 2.643 0 01-2.73 2.64c-.81.06-1.8.06-2.76.06-.99 0-1.98 0-2.88-.06a2.549 2.549 0 01-2.67-2.61c-.03-.6-.03-1.23-.03-1.89 0-.87 0-1.77.03-2.64a2.584 2.584 0 012.7-2.55c.63-.03 1.29-.06 1.98-.06V9.93h-5.85a.721.721 0 110-1.44l5.85.03V3.78a48.345 48.345 0 01-5.13.48.667.667 0 01-.69-.72.655.655 0 01.63-.72A33.478 33.478 0 00301.8.96a.748.748 0 01.96.72c0 .57-.361 1.02-5.01 1.86v4.98l5.939-.03a.722.722 0 110 1.44zm3.149 7.949c-.059-1.62-1.019-1.65-3.869-1.65-3.9 0-3.99 0-3.99 3.54 0 3.45 0 3.66 3.81 3.66 3.569 0 4.14-.06 4.14-2.67 0-.959-.06-2.07-.09-2.88z" id="fd70b856-f29b-4810-a3b0-285670aa23d9" data-name="レイヤー 1"/></g></svg>